<svg id="Layer_1" data-name="Layer 1" xmlns="http://www.w3.org/2000/svg" xmlns:xlink="http://www.w3.org/1999/xlink" viewBox="0 0 170.08 113.39"><defs><style>.cls-1{fill:#fff;}.cls-2{fill:url(#radial-gradient);}.cls-3,.cls-4{fill:#1d1d1b;}.cls-4{stroke:#f2f2f2;stroke-width:1.08px;}.cls-5{fill:#b0b0b0;}.cls-6{fill:#404040;}.cls-7{fill:url(#radial-gradient-2);}.cls-8{fill:url(#radial-gradient-3);}.cls-9{fill:url(#radial-gradient-4);}</style><radialGradient id="radial-gradient" cx="85.98" cy="56.07" r="52.5" gradientUnits="userSpaceOnUse"><stop offset="0" stop-color="#fff"/><stop offset="1" stop-color="#989898"/></radialGradient><radialGradient id="radial-gradient-2" cx="1005.56" cy="-131.81" r="30.68" gradientTransform="translate(-847.82 438.88) rotate(-13.88)" xlink:href="#radial-gradient"/><radialGradient id="radial-gradient-3" cx="1005.56" cy="-131.81" r="30.68" gradientTransform="translate(-847.82 438.88) rotate(-13.88)" xlink:href="#radial-gradient"/><radialGradient id="radial-gradient-4" cx="1005.56" cy="-131.81" r="30.67" gradientTransform="translate(-847.82 438.88) rotate(-13.88)" xlink:href="#radial-gradient"/></defs><title>atlant2</title><path class="cls-1" d="M55.51,67.23a40,40,0,0,1,28.17-52l.39-.71L124.32,2.16l0,25.13c15.22,13,17.56,30.48,13.08,42.11a44.17,44.17,0,0,1-13.59,17.93c-.39.34-.91.76-1.45,1.18a63,63,0,0,1-12.31,7,68.25,68.25,0,0,1-10.76,3.74l-.15,0a29.53,29.53,0,0,1-7,1c-6.69,0-9.3-3.68-10.26-5.87l-.83-2.09C80,91.92,78.81,91.5,77.72,91l-.41-.17L30.62,111.23Z"/><path class="cls-2" d="M56.62,67.32A39,39,0,0,1,84.37,16.13l.4-.74L123.3,3.54l0,24.22c15.15,12.71,17.56,29.8,13.15,41.27a43.23,43.23,0,0,1-13.26,17.49c-.42.36-.92.77-1.45,1.18a61.85,61.85,0,0,1-12.1,6.85,66.29,66.29,0,0,1-10.6,3.69l-.14,0a29.09,29.09,0,0,1-6.74.94c-6.11,0-8.46-3.29-9.32-5.25,0-.06,0-.08-1-2.51a38.88,38.88,0,0,1-3.75-1.37c-.3-.12-.59-.25-.89-.39L33.5,108.6Z"/><path class="cls-3" d="M58.86,67.47A37,37,0,0,1,85.72,17.93l.45-.83L121.26,6.31l0,22.42c15,12.11,17.54,28.52,13.29,39.57a40.94,40.94,0,0,1-12.65,16.64c-.39.35-.87.73-1.4,1.13a59.27,59.27,0,0,1-11.67,6.61,65.88,65.88,0,0,1-10.27,3.58l-.13,0a26.69,26.69,0,0,1-6.26.89c-4.7,0-6.65-2.19-7.45-4,0-.06,0-.06-1.34-3.38a35.37,35.37,0,0,1-4.48-1.56c-.64-.27-1.28-.56-1.92-.88l-.07.15L39.14,103Z"/><path class="cls-3" d="M92.19,95.13c-2.89,0-4.76-.94-5.58-2.8l-1.68-4.27a34.59,34.59,0,0,1-5.21-1.73,35,35,0,1,1,36.06-59.06c17.82,11.52,21.24,29,16.88,40.29a38.75,38.75,0,0,1-12,15.8c-.37.32-.83.7-1.34,1.09A57.11,57.11,0,0,1,108,90.8a62.75,62.75,0,0,1-9.94,3.47l-.11,0a25,25,0,0,1-5.79.83Z"/><path class="cls-4" d="M87.57,18.81l31.65-9.74.06,62.82-18.78,6L85.23,67.77,75.38,86,44.77,97.45Zm1,42.2L96,58.61l0-11.72Z"/><polygon class="cls-3" points="117.09 15.85 115.05 13.16 91.62 23.68 51.72 90.56 74.03 85.39 101.24 33.68 101.29 63.06 85.8 64.71 101.29 75.65 117.14 70.89 117.09 15.85"/><polygon class="cls-1" points="115.05 13.16 89.57 20.99 51.72 90.56 71.98 82.7 99.19 31 99.24 60.37 85.8 64.71 99.24 72.96 115.1 68.2 115.05 13.16"/><polygon class="cls-5" points="66.39 78.97 71.98 82.7 99.19 31 91.9 30.44 66.39 78.97"/><polygon class="cls-5" points="106.81 64.06 115.1 68.2 115.05 13.16 106.57 26.26 106.81 64.06"/><path class="cls-6" d="M119.85,31V42.93c1.62,4,2.11,7.71,1.55,10.37-1.42,6.76-1.8,9.54-4.06,10.09-.56.14-1.2.27-1.94.4-1,.19-2.07.4-3.34.72a37.56,37.56,0,0,0-3.75,1.12A65.48,65.48,0,0,0,98.89,69a73.71,73.71,0,0,0-7.82,4V88.1a35.18,35.18,0,0,1-5.45-.82L87.47,92c1,2.41,4.46,2.87,10.4,1.41h0A61.8,61.8,0,0,0,107.65,90a56.59,56.59,0,0,0,11.07-6.24c.47-.36.92-.73,1.33-1.09a37.72,37.72,0,0,0,11.74-15.39C135.59,57.35,133.85,42.25,119.85,31Z"/><path class="cls-1" d="M119.58,32.87c7.94,9.13,11.15,20.05,7.49,29.55-.1.27-.21.53-.32.78a30.52,30.52,0,0,0-3.3-19.09c2.83,7.63,2.84,15.43-.33,21.69A33.19,33.19,0,0,0,123,53.41c-1.13,15.82-3.67,8.8-17.51,15.06s5.32,9.56.86,10.07l1.11.81a16.68,16.68,0,0,1-9.2.6L101,83.73a20.7,20.7,0,0,0,12.62-3.06,19.39,19.39,0,0,0,2.55-1.93q.64-.39,1.26-.81l-.4,4.91a35.86,35.86,0,0,0,13.3-16.17C134.66,55.4,130,42.4,119.58,32.87Z"/><path class="cls-3" d="M120.87,77.31l-3.82-9.66L85.58,81.44l3.82,9.67c.92,2.1,8.71.72,17.4-3.09S121.79,79.42,120.87,77.31Z"/><path class="cls-7" d="M97.49,91.84h0c-3.44.85-7.73,1.45-8.59-.52l-3.82-9.68-.2-.49,32.47-14.24,4,10.19c.56,1.29-.65,3.1-3.61,5.35A54.64,54.64,0,0,1,107,88.52a59.18,59.18,0,0,1-9.53,3.32ZM86.28,81.73l3.62,9.18c.32.72,2.76,1,7.33-.12h0a60.42,60.42,0,0,0,9.35-3.27,52.91,52.91,0,0,0,10.53-5.93c2.79-2.12,3.5-3.51,3.26-4.06l-3.62-9.16L86.28,81.73Z"/><path class="cls-8" d="M117.52,67.21c1,2.17-5.56,7.13-14.55,11.07s-17,5.38-18,3.2,5.57-7.13,14.56-11.07S116.57,65,117.52,67.21Z"/><path class="cls-3" d="M115.64,67.91c.85,1.76-5,6.15-13.13,9.8s-15.35,5.17-16.2,3.4,5-6.15,13.12-9.8S114.78,66.14,115.64,67.91Z"/><path class="cls-9" d="M91.4,79.07c-.68-1.39,3.6-4.71,9.75-7.67l-1.75.75c-6.74,3-11.67,6.62-11,8,.5,1,4,.55,8.51-1C93.92,79.87,91.8,79.91,91.4,79.07Z"/></svg>