<svg id="Layer_1" data-name="Layer 1" xmlns="http://www.w3.org/2000/svg" viewBox="0 0 170.08 141.73"><defs><style>.cls-1,.cls-2,.cls-7{fill:#fff;}.cls-2{stroke:#000;stroke-width:0.49px;}.cls-3,.cls-5{fill:#1d1d1b;}.cls-3,.cls-4,.cls-7{fill-rule:evenodd;}.cls-4{fill:#ccc;}.cls-6{fill:#fafafa;}.cls-8{fill:#bdbdbd;}</style></defs><title>cska</title><path class="cls-1" d="M129.74,140.31l-2.53-1.68-1.32-.87L110.2,127.3l-.31-.11a73.07,73.07,0,0,0-24.83-4.28h-.17a73.17,73.17,0,0,0-24.69,4.28l-.3.11L44.19,137.75l-1.32.87-2.52,1.68.79-2.92.42-1.53,4.68-17.08-.66,0-.54,0-1-.09v-3l0-28.36V85l.67-.3.35-.16.93-.42,1.65-.74L14.82,59.31l-1.33-1L11,56.47l3.14-.18,1.64-.1,47.2-2.76a2.3,2.3,0,0,1,.25-.66c.54-1,1.71-1.69,3.87-2.28l-.43,0-.47.05-.36-.3a1.69,1.69,0,0,1-.47-1.81v0a6.6,6.6,0,0,1,2.22-2.88L67.5,45a2,2,0,0,1-.13-.23,2.57,2.57,0,0,1-.79-1.86,4.93,4.93,0,0,1-.33-1.17L65.49,41a2.14,2.14,0,0,1-.61-2.25l0,0-3-4.29-.16-.23,0-.28a1.79,1.79,0,0,1,1.5-2.16l.65-.11.41.51,3.42,4.21a2.79,2.79,0,0,0,.39,0,1.66,1.66,0,0,1,1.37.62,1.58,1.58,0,0,1,.3,1l.22.28.18.23.05.28a.85.85,0,0,0,.12.26,2.32,2.32,0,0,1,1,.58L81.57,11.08l1.87-5.17L84,4.37l1.06-2.95,1.07,3,.56,1.54L99,40.06l.43.39,0,0,0,0,.11.11a6.21,6.21,0,0,1,1.46-.2,2.72,2.72,0,0,1,2.78,1.91l.55.91,1.36,2.27-1.33-.3c0,.11,0,.22,0,.34a21.13,21.13,0,0,0,2.76,3.72l.57.33.07,0,0,0a2.47,2.47,0,0,1,.71,2.36,2.66,2.66,0,0,1-.07,1.47l45.8,2.68,1.64.1,3.13.18-2.52,1.86-1.32,1L122,83.83l.62.27.32.14.62.27.06.67,0,.35.08,1q.51,6.19,1,12.39l.14,1.77.63,7.91.63,7.44.13,1.6.06.61.09,1.16-1.16.07-.6,0-.56,0,4.47,16.36.42,1.53.8,2.92Z"/><path class="cls-2" d="M127.84,137.69l-1.32-.88L91.89,113.74l-.82-.17-.72-.09h-.11c-1.76-.16-3.42-.23-5.07-.23a59,59,0,0,0-6.83.42l-2.26,1.51v.74l-.42.12-1.15.33-.38.11L43.56,136.8l-1.32.88.42-1.53,5-18.4-.57,0-1.46-.12-.54,0V85.78l.35-.16.93-.42,3.43-1.54L15.49,58.39l-1.33-1,1.65-.1,51.33-3,15.5-42.86L84.51,6.3l.56-1.54.55,1.54,17.35,48,51.32,3,1.63.1-1.32,1L119.7,84.07l1.55.69.87.38.32.14,0,.35.08.94q.58,7.08,1.15,14.16l.63,7.91.63,7.44.13,1.61,0,.61-.6,0-1.62.1-.34,0,4.85,17.71.41,1.53Z"/><polygon class="cls-3" points="85.06 12.34 101.12 56.8 148.64 59.58 111.31 87.05 123.53 131.72 85.06 106.09 46.55 131.72 58.8 87.05 21.45 59.58 68.99 56.8 85.06 12.34"/><polygon class="cls-4" points="85.06 24.01 98.19 60.36 137.04 62.63 106.51 85.08 116.51 121.6 85.06 100.66 53.58 121.6 63.59 85.08 33.05 62.63 71.91 60.36 85.06 24.01"/><path class="cls-5" d="M64.14,90.19a4.41,4.41,0,0,1,3.93-3.49,29.1,29.1,0,0,0,6.73-2.62c1-.76,1.17-.41.41,1.07L74,86.5a1.27,1.27,0,0,0,.1,2.1c1.17.59,1.66,1.14,1.49,1.62a3.44,3.44,0,0,0-3.45.76,3.9,3.9,0,0,0-2.8.48,2.69,2.69,0,0,0-2.14-.13c-.2-.52-.79-.66-1.79-.49A2.53,2.53,0,0,0,64.14,90.19Zm14.11,0c-1.24-1.28-1.38-2.42,0-3.38a18.72,18.72,0,0,0,3.42-3.76c1-.07,1.82-.28,2.79-.42A29.37,29.37,0,0,0,95,79.7a.92.92,0,0,1,1.2.34l2.28,3-.66.24L99.5,84.6c-.31.24-.1.41.27.55-.2.31-.06.62.25.59.14.41.45,1-.45.17-.55-.28-.62,0-.17.86l.93,1.35a2.43,2.43,0,0,0,.79,1.58l.76,1.56a2.3,2.3,0,0,0,.21.69c.1.58.24.9.72,1a5.2,5.2,0,0,1-2.14,2.35c-2,1.1-3.65.65-3.48-2,.1-1.45.38-2.65.41-4.14.59-2.31,0-3.48-2-3.62a4.55,4.55,0,0,0-2.42.45c-.55.38-1.34.24-2.41-.38-2.08-1.55-3.63-2.38-4.66-2.38,1,1.14,1.28,2.28.48,3.41.83.39.8.76,0,1.15a22.46,22.46,0,0,1-6.59-1c-.76-.14-.9,0-.38.42,1.72.69,2.66,1.72,2.66,3.17a18.12,18.12,0,0,0-2.56.21A1,1,0,0,1,78.25,90.19Zm19.56,11.14c-.59.31-.73.65-.17,1,.37.24.58.28.65.1C99,102.3,98,101.92,97.81,101.33Zm-18-1.52c-.39.28-.55.59-.35,1l.76.66a.61.61,0,0,0-.1-1A1,1,0,0,1,79.77,99.81Zm-8.84-3.62c.56.24.56.76-.13,1.07C70.28,97.05,70.31,96.6,70.93,96.19ZM60.86,75.7c2.48,2.86,2.93,6.1.9,9.86-.76,1.83-.66,3,.34,3.56a10.33,10.33,0,0,0,.66-2.59C63,85,64,85.15,65.28,83.81s1-3,.86-5.38c-.24-5.18.83-8.18,2.34-9.87C64.62,67.49,62.28,70.35,60.86,75.7Zm2.45-42.81c-.44.07-.62.38-.55.89l3.07,4.35c.1.21.31.41.27.58-.24.59-.34,1,.18,1.49l1,1a2.83,2.83,0,0,0,.49,1.52c-.25.48.06.93.48,1.38a1.73,1.73,0,0,0,.31.45L68.76,46a6.87,6.87,0,0,0-2.31,2.66c-.07.3-.14.55.07.72l2-.21c.18.11.39.14.45.28a1.48,1.48,0,0,1-1.2,2c-2.52.62-4.35,1.48-3.62,3.17.92,1.21.44,2.28-1.15,3.25a1.5,1.5,0,0,0-.48,1.38,4.72,4.72,0,0,0-1.1,1.62c-.24.69-.24,1,.24.93,3.52-1.17,7-1.66,9.42.38,1.21,1,1,1.51,2.9,1.62-.21.8,0,1.24.69,1.38l.1.9c-.76.17-1.62.17-2.38.37A11.69,11.69,0,0,1,70,67a18.75,18.75,0,0,0-2-1.21c-3.17-2-5.83-2.07-8.14.62A13.82,13.82,0,0,0,58,69.27a21.28,21.28,0,0,0-1.4,3.79c-.19.63-.36,1.27-.53,1.92a5.64,5.64,0,0,1-.58,1.69c-1.79,2.62-1.51,5.41.11,9l.2-.11c.35-3.93,1.18-5.93,2.49-6.31a2.44,2.44,0,0,0,1.14-.86c.38-.59.59-.52.86.1a4.82,4.82,0,0,1-.35,4.83c-2.27,3.69-2.38,6.52.87,8.77l.1.27L60,93.46c-.28.45-.07,1,.69,1.63a6.12,6.12,0,0,1,1,3.07,1.73,1.73,0,0,0-.14,1.51c.48.69,1.66,1.07,3.31.9.17,0,.14-.17.14-.35.14-.75-.38-1.3-.93-2.23-1.62-1.46-2-2.83-1.45-4.18l.25-.38a23.88,23.88,0,0,0,4.37,1.17,4.32,4.32,0,0,0,0,3.8c1,1.79,2.14,2.62,4.25,2.45,2.79-.24,4.17-2.56,3.14-5.69,1-.56,1.65-.52,2,.1,0,1.41.58,1,.62,2.34-1.66,1.46-2.28,2.7-.48,3.49.93.93.41,1.28-.8,1.34-1.27-.31-2.21-.24-2.38.8-1.17.07-1.52.76-1.48,1.86.34-.83,1-.9,1.34-.69a5.28,5.28,0,0,0,1.83-.1,2.12,2.12,0,0,1,1.76,0,.82.82,0,0,1,.76.42c.83.86.72-.11,2.55,1,.45,0,1.21,0,1.35.72l.17-.65a.58.58,0,0,0-.21-.76c-.58-.69.35-.73,2-.42a4.18,4.18,0,0,0,2.28.45c.72-.72.9-.28,1,.69.52-1.41.18-2.17-1.24-2.24.24-.76.35.38.86-.55.45-.21.9,0,1.35.45.1-.7-.31-1.11-1.21-1.32-.21-.58-.65-.62-1.28,0-2.62-.69-2.89-2.28-1.41-2.59.79-.21,1.1.62,1.72.86a5,5,0,0,0,1.39.18,3.52,3.52,0,0,1,1.82.48l.52.17c.28-.2.55-.17.9.14.38.55.76.62,1.1.17,1-.83,2.59-.83,2.49-.31,0,.76.1,1,.37,1s.35.34.35.9c-1,0-1.69.13-1.69.86-.93.27-.9.93-.48,1.79-.11-1.65,1.31-.31,2.69-1.21l1-.1c.11.48.55.69,1.42.66a6.09,6.09,0,0,1,1.1-.21c1.7-.45,3-.35,4,1a1.22,1.22,0,0,0-.11-1.27c1.17-.8,2.45-.49,1.69.79.69-.34,1.39-2.1.49-2.07.38-1,1.93-.17,1.48.59.66-.35.76-.86,0-1.52-.1-.59-.59-.76-1.45-.52-.49-.83-1.11-.86-1.93-.13-.83.37-1.49.41-1.9-.14-.45-.73-.35-1.07.27-.83.32.1.45-.28.83-1,.14-.31.42-.55.62-1,.9-.14,1.62-.93,2.56-2.52.65-.31,1-1.59,1-3.58.27.14.62,0,1.07-.24-.31,0-.45-.14-.45-.94h.86c.35-.14.48-.27.45-.44s-.35-.11-.59-.49a2.8,2.8,0,0,0-.89-1.45l-.83-1.34c-.59-1.87-1.28-2.94-2.14-2.25l-.24-.13A8.15,8.15,0,0,1,102,82.67c0-1.31-1.35-1.38-2.07-.14l-.21-1-.34.55-2.18-3.13c.24,0,.66-.28.9-.31a19.45,19.45,0,0,0,8-2.52l1.93-.59a1.19,1.19,0,0,1,1.59.38l2,2a1,1,0,0,1,.17,1.2c-.21.42.27,1,1,1.55a2.38,2.38,0,0,1,.14,2.8c-.31.76-.24,1.24.21,1.48l1.34,1c.9.72,1.35.48,1.31-.79a4.8,4.8,0,0,0-.65-1.94,5.32,5.32,0,0,1-.8-2.34c0-1.59-.24-2.41-.89-3a10.87,10.87,0,0,1-1.93-2.45c-.18-.51-.32-.83-.59-1-.07-1.66-1.28-2.49-2-2a5.15,5.15,0,0,1-2,.1v-.38a22,22,0,0,0,3.83-3.65c.55-.69.82-.42,1.38.14l2.13,2.24c-.07,1.1.11,1.83.87,1.76.52.89.76,1.76.27,2.14s-.86.69-.86,1.27c.1.87,1.11,1.76,2.21,2.18A.33.33,0,0,0,117,78a3.6,3.6,0,0,0,0-2.55l-.38-1.27a5.62,5.62,0,0,1,0-1.32,2,2,0,0,0-.93-2.31,26.06,26.06,0,0,1-3.41-4.27c0-2-1.66-2.49-2.73-.35l-2.07,1.45c-.51.34-.86-.21-.86-.76-.21-2.59-2-4.66-3.9-6.66-1-3.14-2.44-5.76-3-8.18,2,.21,3.46.59,4,1.18.86.93,2,1.41,2.25.76.1-.21-.52-.59-.83-.9a2.2,2.2,0,0,1,1.27.8c.87,0,1.14-.66.9-1.56.1-.72.07-1.27-.24-1.52l-.73-.41a22.16,22.16,0,0,1-3-4.07.78.78,0,0,1-.14-.45,2,2,0,0,0-.76-1.62l.28-.14,0-.21.62.14-.62-1c-.34-1.28-1.52-1.49-3.28-1-.24.07-.55-.21-.86-.55-1.1-1.07-2.28-1.66-1.86-.86.07.13.41.51,0,.48L95,40.58c-.42-.07-.49.07-.38.27A3.52,3.52,0,0,1,95.39,42L93,42.13a11.38,11.38,0,0,1-1.35.21c-1.31-1.11-2.93-.28-4.62,1l-.24-.11,0-2h.21L86.77,40h.14a5.36,5.36,0,0,0-1-4c-.14-.58.45-.51.59-.68a2.85,2.85,0,0,0,.52-1.9c-.11-.83-.38-1.11-.8-.83h-.48a1.86,1.86,0,0,1-1.14-.48A1.31,1.31,0,0,0,83,32c-2.48.63-2.93,2.56-6,1.25-.35,0-.42.1-.28.38a5,5,0,0,0,2,1.48,2.93,2.93,0,0,1-1.73.17c.52.69,1.52,1,3.07,1a2.23,2.23,0,0,0,2-.1c.42-.25.46-.1.18.45-.79.65-1.35,1.93-1.45,4.24a4.29,4.29,0,0,0-.59,1.59c-1.13-.32-2.14-.52-2.55-.18l-.45,0a2.27,2.27,0,0,0-2.76-.21l-1.75,1.35c-.66.45-1.22.48-1.32-.07l-.72-1.55c0-1.11-.38-1.62-1.14-1.69A2,2,0,0,1,69,39l-.52-.65c.18-.59-.06-.8-.48-.8a2,2,0,0,1-1.1-.24Z"/><path class="cls-1" d="M113.09,84l.35-.73c.17-.24.31-.24.41,0l.83.76c-.17.17-.56.17-.83.24l.27.45-.27.14-.1.37C113.23,84.77,112.92,84.39,113.09,84Zm.73-2.49c.1,0,.2.31.2.66s-.1.66-.2.66-.21-.32-.21-.66S113.68,81.49,113.82,81.49Zm-.48-2.79c.06-.07.23.07.34.24s.17.41.1.45-.24-.07-.34-.28S113.27,78.74,113.34,78.7Z"/><path class="cls-1" d="M115.54,75.32c-.1-.1-.21-.07-.31,0-.38.45-.45.79-.24,1.11l.76.59c.24.2.52.1.38-.11l-.28-.38c.18.07.31.24.48.24s.18-.21,0-.34-.34-.38-.17-.55.07-.14,0-.21Zm0-3.21c-.34-.41-.28-.65.17-.62-.41-.66,0-.79.45-.1a2.84,2.84,0,0,1,.17,1.65c0,.21-.27.27-.34,0A3.5,3.5,0,0,0,115.54,72.11Zm.28,2.72L116,74c0-.2.1-.17.21,0a2.38,2.38,0,0,1,.58,1.28c.07.24,0,.38-.13.41a.62.62,0,0,1-.56-.24C115.85,75.22,115.78,75,115.82,74.83Z"/><path class="cls-1" d="M103.6,66c0-1.45.21-2.62.21-3.69,0-.44.31-.44.31.07a20.21,20.21,0,0,1-.21,3.52C103.91,66.07,103.6,66.38,103.6,66Zm2,5.76c.07,0,.1.07.1.14s0,.14-.1.14a.14.14,0,0,1,0-.28Zm-3.42-5.1.14-.1s.1,0,.14,0l.51.66a.09.09,0,0,1,0,.13l-.13.11a.09.09,0,0,1-.14,0l-.55-.65A.08.08,0,0,1,102.19,66.66Zm5,3.69.2-1.34-.24.48c-.2,0-.24-.21-.27-.62s0-.66.27-.55l.18.44.14-.31c.24-.13.27,0,.17.42l-.07,1.48C107.4,70.56,107.3,70.94,107.16,70.35Zm3.65-4.24a.64.64,0,0,1,0-.86.56.56,0,0,1,.77-.11c.2.11.27.24.27.35l-.41.13.52.14c.27.24,0,.69-.21.31a.54.54,0,0,0-.69-.1C111.06,66.28,111,66.35,110.81,66.11Zm-5,2.41c.07,0,.21.11.32.28s.1.34,0,.38-.21-.07-.28-.25S105.74,68.56,105.81,68.52Zm-3.17-.27c.07,0,.21.07.31.24s.1.38,0,.41-.2-.07-.31-.27S102.57,68.28,102.64,68.25Zm.93-1.69c.24,0,.55.24.62.62s-.07.76-.31.82-.55-.2-.66-.62S103.3,66.62,103.57,66.56Zm.45,2.27c-.14-.65.07-.76.31-.14a8.18,8.18,0,0,1,.55,3.42c0,.52-.41.55-.45.07A30.4,30.4,0,0,0,104,68.83Zm4,1.07a6.88,6.88,0,0,1,.42-2c.1-.31.23-.34.41-.17.62-1,.48-.45.21.31l.17.1c.76-1.41.45-.27.38.35-.55.69-.94.83-1.11.34l-.17.9C108.19,70.14,108.09,70.21,108,69.9Z"/><path class="cls-1" d="M61.1,93.91c-.24.94-1.27.45-.76-.37,1.28-2.08,2.53-4.15,2.76-6.94.07-1,.69-1.45,1.49-1.9a4.43,4.43,0,0,0,2.24-4.31c-.38-7.8,1.79-11.21,5.14-12.56l-.1.31c-3,1.83-4.25,5.35-4.28,10.14a20.81,20.81,0,0,0,0,3.35l.1-.24a51.26,51.26,0,0,1,.45-6.9,9.25,9.25,0,0,1,1.55-3.73,8.31,8.31,0,0,1,.59-.82c.28-.28.58-.35.83-.59l0,.24a9.28,9.28,0,0,0-2.55,4.49,26.69,26.69,0,0,0-.35,7.31,2.56,2.56,0,0,1-.24,1l.14-.07a3.25,3.25,0,0,0,.31-1.49c-.24-3.17,0-6.38,1.14-8.62C70.31,70.63,70.8,70,73,68.8l-.06.24c-1.87,1.28-3.63,2.76-4,7.8l.1-.11c.35-3.83,1.73-6.66,4.28-7.69a8.23,8.23,0,0,1,3.14-.31l-.21.17a5.51,5.51,0,0,0-4.69,1.86l.21.07a4.73,4.73,0,0,1,4.62-1.62l-.14.28a4.36,4.36,0,0,0-3.44,1.07v.14a4.31,4.31,0,0,1,3.27-1c.34,0,.45.31.34.72l-.2,1.9a21.66,21.66,0,0,1-.59,5.25l-.17.13.17-3.17-.73,3.93c-.06.45-.37.38-.3,0,.17-.83.44-2,.62-3.18a.41.41,0,0,0-.35.39A9.12,9.12,0,0,1,74,79.21a16.59,16.59,0,0,0,.41-3.2l-.2.17-.52,3c.38.21-.11.52-.24.14l.17-1.66-.14,0-.72,2.66L73,78.46l-.62,1.83h-.24l.31-1.55-1,2.82c-.31.07-.34,0-.1-.52L72,79.11l-.21,0c-.42,1.41-.73,2.41-1.24,2.72l-.18,0a5.21,5.21,0,0,0,.87-2.52,6.82,6.82,0,0,1-1.45,2.79c-.11-.1,0-.41.45-1.17l.38-1c-.18-.21-.28-.14-.38.17a5.24,5.24,0,0,1-.94,2l.45-1.69-.07-.2a5.22,5.22,0,0,1-1.31,2.38l.28.14c.93-.63,2.2-.42,3.52-1,.27-.13.55-.2.72-.06l-.24.65L72.42,82a2.41,2.41,0,0,1-.62,1.21l-.1-.76c-.56,1.21-.94,1.86-1,1.28l.1-.73A2.75,2.75,0,0,0,70,84.5c-.21,0-.24-.45-.18-1l-.34,1.27c-.31.08-.38-.27-.21-1a4.26,4.26,0,0,1-.62,1.24,1.32,1.32,0,0,1-.07-1l-.34.66c0,.48-.14.65-.35.62.11-.72.11-1,0-.83l-.41,1.11c-.25.13-.32-.14-.28-.77-.38.21-.28,1-.55,1.28-.21-.13-.25-.48-.21-.86-.17.59-.35.93-.59,1L65.8,85a3.92,3.92,0,0,1-.46,1.27L65,85.43l-.13.79c-.24.14-.45-.07-.59-.59,0,1.07-.13,2-.83,2.42a4.42,4.42,0,0,1-.65,1.83l1.1-1.63c.25-.06.35.08.25.59L63,90.71c-.16.2-.38.13-.58,0a6.94,6.94,0,0,1-1.07,2.2,4,4,0,0,0,1.17-1.86c.07-.28.38.07.28.62l-.28.24,0,.42-.35,0v.55l-.31.14C62.24,93.81,61.86,94.29,61.1,93.91Z"/><path class="cls-1" d="M67.59,67.94l1.35-.25-.07.28Z"/><path class="cls-1" d="M55,78.46a8.47,8.47,0,0,1,1.07-1.83c.28-.45.38-.14.34.28A5.25,5.25,0,0,1,55,78.46Z"/><path class="cls-1" d="M69.14,67.31c-2.21-2-4.38-3-6-2.65-3.07.69-4.56,3.52-5.45,6.21.51-.9,1-1.49,1.51-1.66a15.46,15.46,0,0,0-2.51,7.7,1.89,1.89,0,0,1-.55.89,2.57,2.57,0,0,0-1.07,1.9,10,10,0,0,0,.76-1,4.82,4.82,0,0,0,1.1-2c.31-1.21.45-2.42.69-3.31a11.55,11.55,0,0,1,1.31-3,10.07,10.07,0,0,1,4.14-4.17v.14a10.89,10.89,0,0,0-4,4.21,10.33,10.33,0,0,0-.8,1.72,7.53,7.53,0,0,0-.62,2.28,8.1,8.1,0,0,1-1.17,3.8,6.47,6.47,0,0,0-1,1.37,1.71,1.71,0,0,0-.17.83c1.2-2.28,1.76-2.07,2.28-3.69.72-2.48.23-5,3.54-8.66h.25a12.42,12.42,0,0,0-3.21,7.25,7.6,7.6,0,0,1-.48,2c-.42.79-1.28,1.41-1.52,2.2l.17,0a9.22,9.22,0,0,0,1.56-2c1-1.93.65-4.51,1.93-6.58,1.65-2.73,2.93-4.14,5-4.94l.24,0c-2.79,1.48-3.27,2.55-4.48,4.21a7,7,0,0,0-1.07,2.13,24.13,24.13,0,0,0-.69,3.35,5.63,5.63,0,0,1-1.28,2.9c-.3.38-.55.55-.79.9a4.84,4.84,0,0,0-.52,1.31l.18-.07c.75-2,1.21-1.59,1.76-2.28a5.1,5.1,0,0,0,.93-2.21,13,13,0,0,1,1.31-4.83,13.28,13.28,0,0,1,3.14-4.1,4.67,4.67,0,0,1,1.82-1h.18a14.71,14.71,0,0,0-2.28,1.48,12.58,12.58,0,0,0-2.86,4.18,14.93,14.93,0,0,0-1.07,4.34c0-.21.14.11.2-.07A14.13,14.13,0,0,1,63,68.63a6.46,6.46,0,0,1,3-1.87l.66,0a6.57,6.57,0,0,0-4.07,2.83l.2,0a7.7,7.7,0,0,1,4-2.41l.2,0a6.52,6.52,0,0,0-2.24,1.14l.07.21A9.93,9.93,0,0,1,69.14,67.31Z"/><path class="cls-1" d="M55.34,82.39a1.65,1.65,0,0,1-.24-.86c0-.42.34-.38.41-.11C55.58,81.94,55.34,82,55.34,82.39Z"/><path class="cls-1" d="M59.34,86.08l.35-.38a.59.59,0,0,1,.52-.07C60.17,85.81,59.79,86,59.34,86.08Z"/><path class="cls-1" d="M59,87.15l.45-.48a.74.74,0,0,1,.73-.11C60.14,86.77,59.66,87,59,87.15Z"/><path class="cls-1" d="M59.07,87.71l.52-.45a.73.73,0,0,1,.75,0C60.28,87.39,59.69,87.6,59.07,87.71Z"/><path class="cls-1" d="M59.2,88.19l.49-.42a.8.8,0,0,1,.72,0C60.31,87.94,59.79,88.12,59.2,88.19Z"/><path class="cls-1" d="M59.45,88.7l.31-.34a.56.56,0,0,1,.52-.07C60.24,88.43,59.86,88.6,59.45,88.7Z"/><path class="cls-1" d="M61.21,83.18l.27-.17a.36.36,0,0,1,.38,0C61.83,83.15,61.51,83.18,61.21,83.18Z"/><path class="cls-1" d="M60.76,83.77l.59-.28a.73.73,0,0,1,.68.18C61.9,83.84,61.38,83.87,60.76,83.77Z"/><path class="cls-1" d="M61.1,82.36l.45-.35a.68.68,0,0,1,.62,0C62.07,82.18,61.62,82.29,61.1,82.36Z"/><path class="cls-1" d="M61.45,81.53l.45-.11a.56.56,0,0,1,.48.25C62.28,81.77,61.86,81.7,61.45,81.53Z"/><path class="cls-1" d="M60.48,90.81l.31-.17a.65.65,0,0,1,.38,0C61.13,90.77,60.83,90.84,60.48,90.81Z"/><path class="cls-1" d="M61.45,89.74l-.76.1a1,1,0,0,0-.59.66C60.34,90.57,60.9,90.22,61.45,89.74Z"/><path class="cls-1" d="M61.1,89.39h-.58a.63.63,0,0,0-.52.45C60.17,89.91,60.65,89.7,61.1,89.39Z"/><path class="cls-1" d="M63.79,92.22l.35-.72a1,1,0,0,1,.76-.38C64.9,91.36,64.41,91.84,63.79,92.22Z"/><path class="cls-1" d="M65.34,91.5l.63-.24a.93.93,0,0,1,.72.27h0c0,.21-.45.59-1,.86l.31-.58a1.71,1.71,0,0,1,.24-.21H66a3.83,3.83,0,0,1-.73.59l.24-.48a.61.61,0,0,1,.14-.14A2.39,2.39,0,0,0,65.34,91.5Z"/><path class="cls-1" d="M68.35,91.6c.2-.1.93.07.82.31s-.48.59-1,.94l.27-.63a2.08,2.08,0,0,1,.21-.21h-.24a3.1,3.1,0,0,1-.69.59l.21-.51a.76.76,0,0,1,.14-.11c-.07,0-.14,0-.18,0a2.27,2.27,0,0,1-.51.41l.13-.35C67.8,91.71,68,91.74,68.35,91.6Z"/><path class="cls-1" d="M72.8,91.5c0-.59.45-.93,1.31-1s2.21.06,1.86.51h-.1l-.17.41-.39.7.25-.76.1-.39a3.25,3.25,0,0,0-.45-.13l-.31.31-.51.59L74.8,91l.17-.28c-.07,0-.14,0-.21,0l-.31.31-.51.58.41-.66.17-.27h-.27L74,91l-.49.62.35-.72.11-.17a3.15,3.15,0,0,0-.39.1l-.24.58.11-.55A1.08,1.08,0,0,0,72.8,91.5Z"/><path class="cls-1" d="M69.55,92v-.07h.07l.87-.55c.58-.27,1.31-.38,1.21.1,0,0-.08.11-.21.14s0,.38,0,.59l-.24-.52h-.14a5.77,5.77,0,0,0,0,.83l-.35-.76a.34.34,0,0,1-.17,0c0,.38,0,.8,0,1.21l-.48-1v-.07c-.07.21-.1.45-.17.66l-.11-.69h0c-.1.27-.24.62-.34,1l0-.73V92Z"/><path class="cls-1" d="M59.69,68.66l1.48-1.48A3,3,0,0,0,59.69,68.66Z"/><path class="cls-1" d="M67.83,95.64a1.57,1.57,0,0,1,0-1.45c.28-.73.62-.93.83-.9.24.28-.07.83.07,1.52l-.56-.48.18.93-.42-.45Z"/><path class="cls-1" d="M72.73,96.53a.37.37,0,0,0-.21-.2c-.07,0,0,.17.07.31a.48.48,0,0,0,.25.21S72.84,96.67,72.73,96.53Z"/><path class="cls-1" d="M72.73,97.16c-.14-.21-.28-.31-.35-.28s0,.21.14.42.28.3.35.27S72.87,97.36,72.73,97.16Z"/><path class="cls-1" d="M72.42,97.74a.64.64,0,0,0-.24-.27c-.07,0,0,.21,0,.38s.21.27.24.24S72.49,97.91,72.42,97.74Z"/><path class="cls-1" d="M72.11,98.33c-.07-.28-.24-.48-.31-.45s-.07.28,0,.55.21.45.28.45S72.21,98.61,72.11,98.33Z"/><path class="cls-1" d="M68.07,98.09c.21,0,.35.1.35.17a.59.59,0,0,1-.38,0c-.18,0-.35-.1-.31-.13S67.9,98.05,68.07,98.09Z"/><path class="cls-1" d="M67.9,97.64c.24,0,.41.14.41.21s-.2.1-.45.06-.41-.13-.41-.2S67.66,97.6,67.9,97.64Z"/><path class="cls-1" d="M67.8,97.09c.27.07.48.17.48.24s-.28.14-.55.07-.52-.14-.49-.24S67.49,97.05,67.8,97.09Z"/><path class="cls-1" d="M76.77,91.22c-.21-.69.55-.93,1.34-.58a4.07,4.07,0,0,0,2.38.13,4.54,4.54,0,0,1,1.52,0c.52.28.48.52-.11.62a5.93,5.93,0,0,0-2.07,3.14c-.37-.52.42-1.83,1.66-3.45a11.75,11.75,0,0,0-2.11,2.21,7.32,7.32,0,0,1,1.21-2.14c-1.34,1-2.27,2.48-2.14,5.24a5.32,5.32,0,0,1,.9-4.79l-1.48,1.55,1.35-2.07-.83.28.06-.31-.51.24v-.35l-.69.55.14-.58C77.15,90.74,77,90.94,76.77,91.22Z"/><path class="cls-1" d="M77.39,95.12a1.75,1.75,0,0,0,.31,1.38c.1.1.24,0,.17-.27A2.08,2.08,0,0,1,77.39,95.12Z"/><path class="cls-1" d="M79.11,95.33c.07,0,.14.17.14.41s-.07.45-.14.45S79,96,79,95.74,79,95.33,79.11,95.33Z"/><path class="cls-1" d="M80.7,93.57a.54.54,0,0,1,0,.38c-.1.21-.2.34-.27.31s0-.21,0-.38S80.63,93.54,80.7,93.57Z"/><path class="cls-1" d="M81.08,92.74c.07.07,0,.21-.11.34s-.24.28-.27.25,0-.21.1-.35A.47.47,0,0,1,81.08,92.74Z"/><path class="cls-1" d="M94,94.09c.59.2.66,1,.35,2A4.4,4.4,0,0,0,94,94.09Z"/><path class="cls-1" d="M91,98.33a1.68,1.68,0,0,0-.2-.52c0,.21.07.41.1.62Z"/><path class="cls-1" d="M84.25,87.91a1,1,0,0,1,.28,0l.27.45a1.13,1.13,0,0,1-.31-.06Z"/><path class="cls-1" d="M83.7,90.91a.66.66,0,0,1,.21.38c0,.17,0,.28-.07.24a.5.5,0,0,1-.21-.34C83.59,91,83.63,90.91,83.7,90.91Z"/><path class="cls-1" d="M84.22,90.88s.13.1.17.27.1.31.07.35-.14-.11-.21-.28S84.15,90.88,84.22,90.88Z"/><path class="cls-1" d="M84.84,90.77c.07,0,.2.21.24.45s.07.31-.1.31-.11-.07-.14-.31S84.8,90.77,84.84,90.77Z"/><path class="cls-1" d="M85.42,90.57a.85.85,0,0,1,.28.45c.07.24.1.48,0,.48s-.17-.14-.27-.41S85.36,90.6,85.42,90.57Z"/><path class="cls-1" d="M86.05,90.57c.1,0,.2.2.27.48s0,.55,0,.59-.21-.25-.24-.52S86,90.57,86.05,90.57Z"/><path class="cls-1" d="M86.73,90.67c.08,0,.28.31.32.59s.1.41-.11.45-.17-.11-.24-.42S86.67,90.67,86.73,90.67Z"/><path class="cls-1" d="M87.18,90.53c.11,0,.21.21.31.52s.07.59,0,.59-.2-.21-.27-.52S87.12,90.53,87.18,90.53Z"/><path class="cls-1" d="M87.91,90.36c.07,0,.17.31.17.69s-.07.69-.17.69-.17-.31-.17-.69S87.8,90.36,87.91,90.36Z"/><path class="cls-1" d="M88.49,90.57c.07,0,.14.27.14.58s-.07.59-.14.59-.13-.24-.13-.59S88.39,90.57,88.49,90.57Z"/><path class="cls-1" d="M89.08,90.39c.07,0,.14.32.14.7s-.07.68-.14.68-.14-.31-.14-.68S89,90.39,89.08,90.39Z"/><path class="cls-1" d="M89.7,90.22c.11,0,.14.35.11.8s-.14.72-.25.72-.1-.35-.06-.76S89.6,90.22,89.7,90.22Z"/><path class="cls-1" d="M90.53,90.19c.1,0,.1.34,0,.75s-.17.73-.27.73-.11-.34,0-.76S90.46,90.19,90.53,90.19Z"/><path class="cls-1" d="M91.18,89.81c.11,0,.28.52.21,1s-.24.93-.34.9,0-.45,0-.94S91.12,89.77,91.18,89.81Z"/><path class="cls-1" d="M87.67,93.71s.1.1.17.24a1,1,0,0,1,.07.34s-.14-.1-.17-.24S87.63,93.71,87.67,93.71Z"/><path class="cls-1" d="M88.15,93.54c.07,0,.17.17.24.37s.07.32,0,.35-.11-.07-.18-.28A.63.63,0,0,1,88.15,93.54Z"/><path class="cls-1" d="M92.81,92.09v.24l.31-.21a8.84,8.84,0,0,0,0-1.69C93.05,91.05,92.94,91.6,92.81,92.09Z"/><path class="cls-1" d="M92.46,92.85c-.17.89-.21,1.17-.55,1.48A3.14,3.14,0,0,0,92,93.26a1,1,0,0,1-.24.07v.1a1.8,1.8,0,0,1-.38,1.35c0-.49.17-.94.17-1.42l-.27.1V94a3.89,3.89,0,0,1-.28.75,3.37,3.37,0,0,0,.07-1.2,2.17,2.17,0,0,1-.24.07v.14c0,.1,0,.2-.11.2s-.07-.07-.07-.17,0-.1-.07-.14a.33.33,0,0,0-.17,0v0c0,.11,0,.17,0,.21s-.1-.1-.17-.21a1.08,1.08,0,0,0-.17,0c0,.17,0,.24-.1.31s-.18-.11-.21-.28c-.11,0-.21,0-.32.07s0,.24,0,.24-.1-.07-.17-.21h-.28c0,.14,0,.21,0,.25s-.1-.07-.17-.21l0,0s0,0,0,0,0-.1-.07-.17-.14-.42-.1-.45.17.1.27.34a.59.59,0,0,1,.07.24.71.71,0,0,1,.24-.06c0-.07,0-.11,0-.14-.07-.28-.07-.52,0-.56s.17.18.24.46a1.39,1.39,0,0,1,0,.17l.28-.11a1.6,1.6,0,0,1,0-.34c0-.14,0-.21,0-.21s.21.21.28.49l.17-.08s0,0,0-.06a1,1,0,0,1-.07-.42c0-.1,0-.13,0-.17s.2.24.27.48a.13.13,0,0,0,0,.11,1.22,1.22,0,0,1,.17-.07v-.56c0-.13,0-.2.07-.2s.07.07.1.17.07.31.11.48h0a.4.4,0,0,0,.2-.07v-.27c0-.11,0-.17.07-.17s.1.17.14.34l.28-.1v-.38c0-.1,0-.21.06-.21s.07,0,.07.14a.91.91,0,0,1,.07.35c.07,0,.14,0,.21-.11h0c0-.21,0-.41,0-.55S92,92,92.05,92s.07,0,.07.17a2.64,2.64,0,0,1,0,.52.44.44,0,0,1,.21-.07,15.19,15.19,0,0,0,.55-3.45c-.07-.14-.14-.24-.2-.38a7.86,7.86,0,0,1-.59,3.14,8.55,8.55,0,0,0,0-3.52H92a8.14,8.14,0,0,1-.35,3.38,8.13,8.13,0,0,0-.34-3.69.44.44,0,0,0-.21-.07c.31.27.24,1.38.1,1.55-.2-.65,0-.86-.62-1.31h-.17a1.54,1.54,0,0,1,.28,1.27,4.65,4.65,0,0,0-.72-1.1h-.32c.45.52.45.63.38,1-.17-.45-.86-.76-1.14-1-.14,0-.17,0-.31,0,.35.17.83.79.66,1-.24-.27-.76-.55-1-.92-.14,0-.07.06-.2.06a3.7,3.7,0,0,1,0,.59,1.29,1.29,0,0,1-.86-.52c-.07,0-.21,0-.21,0s.17.35.21.45c-.07-.1-.8-.48-.86-.58s.13,0-.28-.07c0,.1.28.65.31.75-.07-.1-.59-.65-.66-.72s-.31,0-.48-.07l-.31-.52a21,21,0,0,0,5.35-.34l1.93-.38c.65-.21,1.1.14,1.24,1.14l.1,1.1a2.22,2.22,0,0,1,.18,2.31A3.4,3.4,0,0,0,95,93.64c.55.52.62,1.24,0,2.27a14,14,0,0,1-2.14,3.45s-.06.07-.06.11a.36.36,0,0,0-.11.13c0-.06.07-.1.11-.17s-.08-.34-.11-.51a.81.81,0,0,1,.17.37l.31-.51c0-.17-.07-.35-.1-.56.07.14.14.24.21.39.07-.15.17-.28.24-.42a6.07,6.07,0,0,1-.17-.59,3,3,0,0,1,.24.42,5.21,5.21,0,0,0,.28-.52c0-.17-.11-.34-.14-.52a3.63,3.63,0,0,1,.2.35,5,5,0,0,0,.21-.76l-3.56,2.21c.32-.28.66-.52,1-.79l0,0c0-.21-.07-.45-.11-.66a2.87,2.87,0,0,1,.24.55c.07-.06.18-.13.25-.2,0-.28-.07-.55-.11-.83a3.45,3.45,0,0,1,.28.69l.31-.24c0-.35-.07-.73-.14-1.1a3.11,3.11,0,0,1,.35.93,1.17,1.17,0,0,1,.27-.24c0-.49-.1-1-.17-1.56A3.21,3.21,0,0,1,93,96.67c.07-.07.14-.1.21-.17A12.78,12.78,0,0,0,93,94.81a4.07,4.07,0,0,1,.49,1.45s.06-.07.1-.1a14,14,0,0,0-.21-2,3,3,0,0,1,.45,1.72l.21-.21a10.13,10.13,0,0,0-.69-2.82c-.14.48-.14.65-.28.61.07-.55,0-.79-.07-.86a2.52,2.52,0,0,1-.48,1.49l.14-1.24Z"/><path class="cls-1" d="M89.36,95c0,.2,0,.38-.14.38s-.11-.21-.07-.38Z"/><path class="cls-1" d="M89.74,94.64c.07,0,.1.1.1.34s0,.42-.17.42-.17-.24-.11-.45S89.67,94.64,89.74,94.64Z"/><path class="cls-1" d="M90.22,94.7c0,.39,0,.66-.14.63S90,95,90,94.7Z"/><path class="cls-1" d="M90.15,94.23s0,.06.07.16h-.17C90.08,94.29,90.12,94.23,90.15,94.23Z"/><path class="cls-1" d="M90.63,94.16c.07,0,.11.13.11.44s0,.59-.25.56-.17-.31-.1-.62S90.53,94.16,90.63,94.16Z"/><path class="cls-1" d="M88.25,84.25A7.42,7.42,0,0,1,90.91,86c.14.24.07.3-.14.2A23.54,23.54,0,0,1,88.25,84.25Z"/><path class="cls-1" d="M91.56,86.5c.18.1.25.2.21.24s-.17,0-.34-.07-.25-.24-.21-.28S91.39,86.39,91.56,86.5Z"/><path class="cls-1" d="M82.87,87.77l.93.1.21.35,0,0c-.1,0,.31,1.1-.24-.07-.07-.14-.27-.11-.44-.18A1.36,1.36,0,0,0,82.87,87.77Z"/><path class="cls-1" d="M78.56,102.68c.17,0,.34.06.34.13s-.1.11-.27.11-.35,0-.35-.11S78.39,102.68,78.56,102.68Z"/><path class="cls-1" d="M79,103.54c.27-.07.58-.1.62,0s-.14.18-.41.28a.92.92,0,0,1-.63,0C78.56,103.71,78.73,103.61,79,103.54Z"/><path class="cls-1" d="M79.28,103.81c.31-.07.62-.1.69,0s-.17.21-.48.28-.62.1-.69,0S78.94,103.89,79.28,103.81Z"/><path class="cls-1" d="M79.7,104.12c.2-.06.41-.06.45,0s-.11.14-.32.21-.45,0-.48,0S79.49,104.16,79.7,104.12Z"/><path class="cls-1" d="M80,104.4c.21,0,.35.07.35.14s-.11.1-.28.1-.34,0-.34-.1S79.8,104.4,80,104.4Z"/><path class="cls-1" d="M83.66,103c.28-.1.56-.1.59,0s-.14.31-.41.41-.55.1-.59,0S83.39,103.16,83.66,103Z"/><path class="cls-1" d="M83.18,102.71c.21-.1.41-.1.45,0s-.11.24-.31.31-.41.07-.45,0S83,102.78,83.18,102.71Z"/><path class="cls-1" d="M82.73,102.09a.36.36,0,0,1,.35,0c0,.1-.07.21-.25.24s-.3.07-.34,0S82.56,102.16,82.73,102.09Z"/><path class="cls-1" d="M77.73,99.23a.14.14,0,0,0-.27,0,.67.67,0,0,0,.27.69c.28.14.35-.14.21-.24A.71.71,0,0,1,77.73,99.23Z"/><path class="cls-1" d="M77.25,99c0-.2-.14-.31-.28-.13a.72.72,0,0,0,0,.86c.24.31.45,0,.38-.14A.7.7,0,0,1,77.25,99Z"/><path class="cls-1" d="M101.33,83.49c-.21.32-.28,1.49.76,2.9.38.49-.07.83.48.9.21,0,.34-.21.38-.52l-.35-.17h.49l-.52-.35c.17,0,.59.07.55-.1s-.52-.24-.76-.34l.59-.14c0-.17-.31-.31-.86-.49l.55-.13-.62-.38.48-.14-.76-.38.42-.21-.45-.13.41-.21C101.78,83.46,101.64,83.15,101.33,83.49Z"/><path class="cls-1" d="M100.5,84.39a1.56,1.56,0,0,1-.13-1.17c.23-.62.47-.79.68-.79.42.44-.27.72-.41,1.06C100.53,83.56,100.5,83.81,100.5,84.39Z"/><path class="cls-1" d="M100.33,82.25c.17-.17.38-.27.45-.21s0,.25-.21.45-.38.32-.45.24S100.16,82.46,100.33,82.25Z"/><path class="cls-1" d="M100.16,84.46a.23.23,0,0,1,.21.24.23.23,0,0,1-.21.21.24.24,0,0,1-.25-.21A.24.24,0,0,1,100.16,84.46Z"/><path class="cls-1" d="M100.6,85.15c.14,0,.18.21.07.38s-.2.28-.3.21-.18-.21-.08-.38S100.5,85.08,100.6,85.15Z"/><path class="cls-1" d="M101.09,85.88c.17.07.2.24.07.44a.53.53,0,0,1-.52.24.29.29,0,0,1-.11-.44A.52.52,0,0,1,101.09,85.88Z"/><path class="cls-1" d="M101.61,86.67c.1.14,0,.28-.14.34a.37.37,0,0,1-.45-.1c-.07-.1,0-.24.14-.31A.4.4,0,0,1,101.61,86.67Z"/><path class="cls-1" d="M104.09,87.08a.19.19,0,0,0-.11-.31c-.17,0-.27,0-.38-.21-.13-.41.07-.61.42-.72s.38.11.31.28l-.17.13a1.1,1.1,0,0,1,.62.38c-.18,0-.28,0-.31.18.58-.11.55.83,0,.65-.34-.1-.52,0-.34.62s.62.86.58.14c-.06-.35,1.11-.41,1.24.35l-.44-.18c.1.55.55.31.62.8l-.38,0a2.49,2.49,0,0,1,1,1.14c-.48-.07-.51-.59-1-.59.58.8,1.28.62,1.62,1.42a3.29,3.29,0,0,1-1.72-1c.58.83,1,1.52.82,1.86-.86-.37-1-1.65-1.38-2,0,.66.49,1,.31,1.76a3.27,3.27,0,0,1-.51-2.11c.34.07.48-.17.48-.75s-.38-.59-.31,0-.31.58-1.24,0c-.14.14.06.31.58.62l0,.52.28-.45.1,1.45c0,.38-.14.31-.24-.07l-.11-.72c0,.51-.07.76-.24.72l-.14-1.35-.38.49-.1-.76-.35.27V88.7c-.24.14-.51,0-.79-.37a1.11,1.11,0,0,0,.93-.14C103.19,87.49,103.5,87.15,104.09,87.08Z"/><path class="cls-1" d="M95.88,91.29a.82.82,0,0,0-.21-.82c-.14-.14-.24-.18-.21,0S95.81,91,95.88,91.29Z"/><path class="cls-1" d="M95.32,89.19c.45.24.66.27.9.93.07.24,0,.41-.14.21S95.67,89.49,95.32,89.19Z"/><path class="cls-1" d="M95.39,87.84a2,2,0,0,1,1.11,1.45c.07.38,0,.59-.24.28C95.91,89.08,95.81,88.36,95.39,87.84Z"/><path class="cls-1" d="M95.67,86.88a1.85,1.85,0,0,1,1.14,1.69c0,.37-.17.62-.28.27A5,5,0,0,0,95.67,86.88Z"/><path class="cls-1" d="M96,86.36a2,2,0,0,1,1.17,1.28c0,.34,0,.51-.24.23A3.91,3.91,0,0,0,96,86.36Z"/><path class="cls-1" d="M100,103.44a.93.93,0,0,1,1.27-.42c.28.07.25.42.25.66-.18-.18-.35-.38-.52-.18C100.53,103.12,100.37,103.33,100,103.44Z"/><path class="cls-1" d="M98.16,103.57a.21.21,0,0,1,.23.21c0,.11-.1.17-.23.17s-.22-.06-.22-.17A.21.21,0,0,1,98.16,103.57Z"/><path class="cls-1" d="M97,103.57c.07,0,.17.11.24.28s0,.34,0,.34-.17-.07-.24-.27S96.88,103.57,97,103.57Z"/><path class="cls-1" d="M97.36,103.5s.1.07.14.21,0,.21,0,.24-.1-.06-.13-.21S97.29,103.54,97.36,103.5Z"/><path class="cls-1" d="M97.46,99.06s-.07.06-.07.1-.27.24-.31.17,0-.21.07-.35l.14-.13s0-.07-.07-.11,0,.07-.07.11-.31.27-.38.21,0-.25.11-.42.1-.1.14-.14,0-.07-.07-.07c-.14.18-.31.24-.38.21s0-.24.1-.42a.07.07,0,0,1,.07-.06c-.07-.07-.07-.11-.1-.14s-.18.1-.25.07,0-.18.11-.31c-.07-.14-.11-.28,0-.35s.31.07.52.52c.06.17,0,.27.1.38s.27.21.34.31a.87.87,0,0,1,.18.72C97.57,99.4,97.6,99.33,97.46,99.06Z"/><path class="cls-1" d="M97.46,99.4c.11.07,0,.27-.13.48s-.35.31-.42.24,0-.28.11-.48S97.39,99.33,97.46,99.4Z"/><path class="cls-1" d="M101.71,97.36s0,.21-.07.42-.21.34-.28.31,0-.21.07-.41S101.64,97.33,101.71,97.36Z"/><path class="cls-1" d="M101.19,97.16c.07,0,0,.31-.1.62s-.35.51-.45.48-.07-.31.1-.62S101.09,97.12,101.19,97.16Z"/><path class="cls-1" d="M100,96.67c.07,0,0,.25-.07.52s-.24.41-.31.38,0-.24.07-.48S99.91,96.64,100,96.67Z"/><path class="cls-6" d="M66.52,38.37a.88.88,0,0,1,.76-.76l.76.14c.27.2.24.28-.07.31-.62-.11-1,0-1.14.45S66.49,38.89,66.52,38.37Z"/><path class="cls-6" d="M68.94,39.82a.2.2,0,0,1,.17.21.24.24,0,0,1-.17.21.2.2,0,0,1-.18-.21C68.76,39.89,68.83,39.82,68.94,39.82Z"/><path class="cls-6" d="M66.41,39.13c-.24.31-.17.65.25,1.07l.55.69c.48.34.72.28.65-.24-.06-.35,0-.48.35-.48a.62.62,0,0,0,.45-.32c.07-.27,0-.41-.21-.48a3.24,3.24,0,0,1-1.14.52,3,3,0,0,0,.83-.66.4.4,0,0,1,.45-.07.39.39,0,0,0-.31-.41,2.08,2.08,0,0,0-1.41.83,1.37,1.37,0,0,1,1.3-.93A.4.4,0,0,0,68,38.2a1.44,1.44,0,0,0-1.07.31Z"/><path class="cls-6" d="M69.21,43.41a14.61,14.61,0,0,1,2.86,3.9v1.27l-.41-1.44c0,1,0,1.65-.11,1.44l-.34-2.07-.24.9-.21-1.28c-.17-.13-.2.66-.17,1.76-.31-.31-.28-1.21-.24-2.21l-.35,1a3.89,3.89,0,0,1,0-1.86c-.2-.18-.34.17-.41,1.21a3.62,3.62,0,0,1-.07-1.9l-.24.51Z"/><path class="cls-6" d="M77.66,33.68a2.46,2.46,0,0,0,1.42.34l0,.28a4.67,4.67,0,0,0,2.55-1,.51.51,0,0,0-.38,0c-.62.32-.55.11.62-.48.18-.1.31,0,.59-.07l.76-.17c-.62.55-1.24,1.1-1.93,1.62a3.13,3.13,0,0,1-2.62.42,7.42,7.42,0,0,1-1.31-.8C77.28,33.68,77.18,33.58,77.66,33.68Z"/><path class="cls-6" d="M82.42,33.85a.14.14,0,1,1,0,.28.14.14,0,0,1,0-.28Z"/><path class="cls-6" d="M83.46,35.92c.06-.1.13-.14.2-.07a.13.13,0,0,1,0,.21c-.07.1-.17.14-.2.1S83.39,36,83.46,35.92Z"/><path class="cls-6" d="M85.91,35c.1,0,.2,0,.24,0a.19.19,0,0,1-.14.24c-.1.06-.21.06-.24,0S85.77,35.06,85.91,35Z"/><path class="cls-6" d="M85.36,34.61c.1-.07.2-.1.24,0s0,.17,0,.24-.2.1-.24,0S85.29,34.72,85.36,34.61Z"/><path class="cls-6" d="M81.6,35.33a.2.2,0,0,1,.24.07.2.2,0,0,1-.18.18.2.2,0,0,1-.24-.07C81.42,35.44,81.49,35.37,81.6,35.33Z"/><path class="cls-6" d="M82.94,37.89c.14-.07.31-.07.35,0s0,.17-.21.24-.31,0-.35,0S82.77,37.92,82.94,37.89Z"/><path class="cls-6" d="M78.52,35.54a5,5,0,0,0,1.59-.48l.79-.38c.38-.17.45-.14.14.17a8.11,8.11,0,0,1-1.1.76,1.66,1.66,0,0,1-1.52.28C78,35.78,78.18,35.58,78.52,35.54Z"/><path class="cls-6" d="M80.94,35.2a3.74,3.74,0,0,1,1.35-.79,4.35,4.35,0,0,1,1.76-.32c.41-.38.79.14.34.56a3.3,3.3,0,0,1-.48.31,4.05,4.05,0,0,1-1.42.62c-.62.17-.69.1-.17-.25A4.71,4.71,0,0,1,82.8,35,2.49,2.49,0,0,1,84,34.65c-.58-.39-1.72.2-2.86.75C80.77,35.58,80.66,35.47,80.94,35.2Z"/><path class="cls-6" d="M84.05,33.4a2.41,2.41,0,0,1,.72,0c.44.14.65.38.69.69a.77.77,0,0,1-.45.55c-.1-.55-.31-.86-.62-1a1,1,0,0,0-.34,0Z"/><path class="cls-6" d="M83.52,33.54a1.48,1.48,0,0,1,.32-.14v.21l-.28.07C83.42,33.71,83.29,33.61,83.52,33.54Z"/><path class="cls-6" d="M82.91,33.2A1.82,1.82,0,0,1,84,32.65a5.34,5.34,0,0,1,1.32,0c.86.31.51.59,0,.38a1.41,1.41,0,0,0-1.24,0c0,.34-.62.07-1,.31S82.77,33.4,82.91,33.2Z"/><path class="cls-6" d="M85.42,33.3c.28,0,.49,0,.52.28a.65.65,0,0,1-.24.68C85.8,33.61,85.49,33.68,85.42,33.3Z"/><path class="cls-6" d="M86.18,33.13a1.17,1.17,0,0,1,0,.82l-.27.52c-.07.25,0,.31.17.25a.84.84,0,0,0,.41-.77c0-.51,0-.75.21-.93C86.39,32.51,86.08,32.58,86.18,33.13Z"/><path class="cls-6" d="M84,36.16c0,.35.8.42.9,0s-.14-.73,0-1.14A1.09,1.09,0,0,0,84,36.16Z"/><path class="cls-6" d="M83.77,37.06a.8.8,0,0,1,.86-.38c.31,0,.48.07.48.38a4.08,4.08,0,0,1,0,.93c-.1.27-.14.24-.49.27s-.51-.17-.93.08C83.91,37.75,83.63,37.51,83.77,37.06Z"/><path class="cls-6" d="M85.25,35.71c-.17-.27,0-.38.21-.17a.86.86,0,0,1,.34.66c0,.24-.24.45-.41.24S85.42,36,85.25,35.71Z"/><path class="cls-6" d="M85.42,37c-.1-.35,0-.38.45-.21s.31.41.18.55a.88.88,0,0,1,0,1.1c-.17-.13-.38-.07-.52-.27s-.14-.07-.07-.59A.79.79,0,0,0,85.42,37Z"/><path class="cls-6" d="M85.91,39.85c.17,0,.27.1.27.21s-.13.18-.27.14-.28-.1-.28-.21S85.77,39.85,85.91,39.85Z"/><path class="cls-6" d="M83.77,39.55c.17,0,.31.1.28.2s-.14.2-.32.17-.31-.1-.27-.2S83.59,39.51,83.77,39.55Z"/><path class="cls-6" d="M86.39,39.16a2,2,0,0,0-1.48-.69,5.35,5.35,0,0,0-1.83.24,2.38,2.38,0,0,0-.45,1.87l.31.07-.27.2H83l-.24.35.21.07-.18.45.21.14-.1.27.28,0-.07.28.21,0-.07.27.2.07a2.06,2.06,0,0,0,.66.55,1,1,0,0,0,.65.07,6.13,6.13,0,0,0,.87-1c.1,0,.13-.24.13-.55a.52.52,0,0,0,.28-.52l.17-.24v-.83a1,1,0,0,1-.52.07l-.48-.21-.14,1.07c0,.21-.1.52-.34.41l-.59-.27c-.13-.07-.1-.28.07-.35l.21,0V40.1A1.17,1.17,0,0,1,83.39,40a.87.87,0,0,0-.41-.07,1.44,1.44,0,0,1,.38-.48l-.21-.31.31,0c.48,0,.72-.1.86,0a1.48,1.48,0,0,0,.38.31l0-.24c.11-.28.31-.35.63-.24l-.07.69,1.1-.35ZM83.84,42a2.58,2.58,0,0,1,1,0c.56.14.59.35.07.66a3.54,3.54,0,0,1-1-.1C84,42.37,84.08,42.3,83.84,42Zm.41.25a.5.5,0,0,1,.55,0c.11.06.07.17,0,.24a.81.81,0,0,1-.38,0C84.28,42.37,84.35,42.3,84.25,42.24Z"/><path class="cls-6" d="M84.35,41.17c.07,0,.11,0,.11.1s0,.07-.11.07-.1,0-.1-.07A.11.11,0,0,1,84.35,41.17Z"/><path class="cls-6" d="M84.91,39.58c0-.07,0-.14,0-.24.17-.18.24-.28.24-.11a1.23,1.23,0,0,1,0,.35Z"/><path class="cls-6" d="M84.7,41.27c0-.45.1-.83.17-1.38h.24a11.5,11.5,0,0,1-.2,1.45C84.84,41.48,84.77,41.41,84.7,41.27Z"/><path class="cls-6" d="M82,38.89c0-.28.25-.24.28,0a1.25,1.25,0,0,1-.24,1.1c-.18.11-.42,0-.28-.21A1,1,0,0,0,82,38.89Z"/><path class="cls-6" d="M81.84,40.85c-.08-.31.13-.41.2-.06a5.37,5.37,0,0,0,1.59,2.69c.38.31,0,.58-.38.27A4.74,4.74,0,0,1,81.84,40.85Z"/><path class="cls-6" d="M85.29,43.68a.83.83,0,0,1,.38-.79c.2-.14.27.1.17.24S85.46,43.37,85.29,43.68Z"/><path class="cls-6" d="M76.28,47.51a1.1,1.1,0,0,1,.21-.58,1.25,1.25,0,0,1-.24-.18,5.77,5.77,0,0,1-.76,1.14,4.56,4.56,0,0,1,1-1.83,6.33,6.33,0,0,1-.21.62c.07.07.18.14.24.21a.78.78,0,0,0,.17-.21,1.16,1.16,0,0,1,0,.32h0l0,.1,0,0A1.23,1.23,0,0,1,76.28,47.51Z"/><path class="cls-6" d="M75.87,48.13a.79.79,0,0,1,.24-.48A.64.64,0,0,1,75.87,48.13Z"/><path class="cls-6" d="M77.7,48.41c0-.14.07-.28.1-.38h0l.07-.07a.26.26,0,0,1,.07-.14c.07-.07.14-.17.2-.24A1,1,0,0,1,77.7,48.41Z"/><path class="cls-6" d="M77.63,49.41c-.11-.35,0-.59.41-.79C78,49.13,78,49.27,77.63,49.41Z"/><path class="cls-6" d="M78.45,49.1a3.61,3.61,0,0,0,.28-2.24C79.11,47.82,79,48.1,78.45,49.1Z"/><path class="cls-6" d="M84.08,52.24a7.4,7.4,0,0,0,.2-2.14c-.06,0-.1,0-.17.07a5.37,5.37,0,0,1-.34,1.38,4.77,4.77,0,0,0,.14-1.35.44.44,0,0,1-.21.07,6.9,6.9,0,0,1-.28,1.11,5.84,5.84,0,0,0,.1-1.07l-.3,0c0,.45-.11.93-.21,1.55,0-.51,0-1,0-1.51h-.35a11.76,11.76,0,0,1-.18,1.76c0-.63,0-1.21-.06-1.8-.1,0-.21,0-.35-.07a14.34,14.34,0,0,1-.17,1.87c0-.66-.07-1.28-.07-1.9l-.31-.11a12.51,12.51,0,0,1-.28,1.73c0-.62,0-1.17,0-1.79L80.94,50c0,.69-.1,1.31-.14,2a9.69,9.69,0,0,1-.1-2.14.74.74,0,0,1-.28-.14,8,8,0,0,0-.17,2.38,4.27,4.27,0,0,1,0-2.45.66.66,0,0,0-.2-.14,6.94,6.94,0,0,1-.48.93,6.57,6.57,0,0,0,.34-1c-.1-.06-.24-.13-.34-.2a4.72,4.72,0,0,1-.63,1.52,9.4,9.4,0,0,0,.52-3.45,6.27,6.27,0,0,1,.17,1.31l.38.17A14.58,14.58,0,0,0,80.08,47a4.23,4.23,0,0,1,.13,1.82,1.05,1.05,0,0,0,.31.11l.18-.28c0,.1-.07.21-.11.31l.25,0c.06-.2.1-.44.2-.72,0,.28,0,.52,0,.79.1,0,.17,0,.27,0,0-.17,0-.38,0-.59a4,4,0,0,1,.1.62c.11,0,.24,0,.34,0v-.79c.08.31.14.55.18.79a1.89,1.89,0,0,0,.41,0,5.91,5.91,0,0,1,0-.82c.06.31.1.58.17.82h.35V48a8,8,0,0,1,.24,1.21c.1,0,.21,0,.31,0,0-.27-.07-.58-.1-.89a3.53,3.53,0,0,1,.27.86c.07,0,.14,0,.21,0,0-.31-.11-.62-.14-1A6.85,6.85,0,0,1,84,49a.51.51,0,0,0,.21,0c-.07-.48-.11-1-.21-1.58A5.5,5.5,0,0,1,84.08,52.24Z"/><path class="cls-6" d="M85,50l.14.31.49-.45c.13-.17.27-.13.38.11l0-.55c.17-.11.31,0,.45.13a.55.55,0,0,0,0-.52l.07-.69c-.27-.44-.48-.72-.79-.82a1.22,1.22,0,0,1,.07,1,1.07,1.07,0,0,0-.59-.93,1.18,1.18,0,0,1,.14.83,1,1,0,0,0-.35-.31l.07.41-.2.14Z"/><path class="cls-6" d="M88.22,47.51c0,.11,0,.18-.07.18s-.14-.07-.24-.18Z"/><path class="cls-6" d="M88,46.93a1.41,1.41,0,0,1,.14.41h-.38a2.53,2.53,0,0,1-.21-.34s0,0,0-.07Z"/><path class="cls-6" d="M87.39,46.27c.1,0,.35.21.52.52h-.45C87.32,46.51,87.29,46.27,87.39,46.27Z"/><path class="cls-6" d="M87.18,47.48s.18.1.31.31.14.38.11.41-.17-.1-.28-.31S87.15,47.48,87.18,47.48Z"/><path class="cls-6" d="M86.53,47.34s.2.14.38.38.21.48.14.52-.21-.14-.38-.38S86.46,47.38,86.53,47.34Z"/><path class="cls-6" d="M75.39,46c.1.06.17.13.24.17L75.8,46a.67.67,0,0,1-.28.48,2,2,0,0,1,.11-.28A1.21,1.21,0,0,0,75.39,46Z"/><path class="cls-1" d="M72.32,80.59l-.14.45L72,81l.07-.38Z"/><path class="cls-1" d="M61.62,95.81c.45-.17.55,0,.69.55.38.35.62.62.62.9.79.65.65.93-.41.83a.75.75,0,0,1-.55-.83Z"/><path class="cls-1" d="M61.79,98.46a1.11,1.11,0,0,0,.14,1.35.86.86,0,0,0,.69.31l-.14-.38.42.28c0-.21-.18-.45-.56-.73l.53.14c0-.27-.25-.51-.66-.72h.34C62.38,98.22,62.07,98.09,61.79,98.46Z"/><path class="cls-1" d="M63.14,98.71c.14,0,.24.14.27.35s0,.37-.17.41-.24-.14-.28-.35S63,98.71,63.14,98.71Z"/><path class="cls-1" d="M70.14,75.08a6.66,6.66,0,0,1,1.11-3.25A26.59,26.59,0,0,0,70.14,75.08Z"/><path class="cls-1" d="M72.63,68.66c-.42.17-.45-.17-.14-.41a3.21,3.21,0,0,1,2.21-.76h1.44c.55,0,.49.55,0,.51h-1A4.6,4.6,0,0,0,72.63,68.66Z"/><path class="cls-1" d="M75.77,68.14c.37,0,.69.07.69.14s-.32.14-.69.14-.7,0-.7-.14S75.39,68.14,75.77,68.14Z"/><path class="cls-6" d="M78.59,60.83c-.07-.07-.24.17-.48.48a1.53,1.53,0,0,0-.31.56s.24-.18.45-.49S78.63,60.83,78.59,60.83Z"/><path class="cls-6" d="M76.18,63.21c-.17.31-.1.48.24.62A5.17,5.17,0,0,0,80.49,63l1.69-.8c.31-.37.24-.48-.17-.34l-.83.41.21-.69a3.24,3.24,0,0,0-.93,1.07l-.14-.34a1.28,1.28,0,0,0-.45.72l-.17-.38a1.08,1.08,0,0,0-.42.45l.07-.48c-.13-.1-.34.13-.62.69l.14-.52c-.1-.1-.28.11-.52.62l.55-1.65c-.27,0-.65.65-1.06,1.75-.18,0-.25,0-.21-.17l.62-1.2c-.31,0-.66.41-1.07,1.2L77.66,62l-.89,1.17v-.44A1.19,1.19,0,0,0,76.18,63.21Z"/><path class="cls-1" d="M76.35,85.67c-.14-.14.11-.28.17-.21l.42.38c.1.11-.14.28-.25.21Z"/><path class="cls-1" d="M76.66,85.39c-.07-.1.11-.24.17-.17l.35.34c.1.11-.1.25-.17.18Z"/><path class="cls-1" d="M76.87,85.08c-.14-.14.1-.31.21-.21l.41.42c.1.1-.17.27-.24.17Z"/><path class="cls-1" d="M77,84.56c-.14-.17.17-.41.35-.31l.62.62c.17.18-.24.45-.35.31Z"/><path class="cls-1" d="M77.7,84c-.21-.2.07-.48.24-.31l.76.66c.2.17-.11.48-.28.34Z"/><path class="cls-1" d="M78.14,83.67c-.17-.18,0-.42.21-.28l.66.55c.17.18-.11.42-.24.31Z"/><path class="cls-1" d="M78.73,83.46c-.14-.14,0-.35.17-.24l.56.48c.13.14-.11.38-.21.28Z"/><path class="cls-1" d="M76,79.56c0-.17-.27-.1-.31,0l-.07.62c0,.14.31.07.31,0Z"/><path class="cls-1" d="M75.07,80.43c0-.28-.31-.14-.31,0l.07.48c0,.24.35.1.31,0Z"/><path class="cls-1" d="M74,81.08c0-.24-.21-.17-.21,0l0,.45c0,.24.24.14.24,0Z"/><path class="cls-1" d="M75.35,80.22a.17.17,0,0,1,0,.34s-.1-.07-.1-.17S75.31,80.22,75.35,80.22Z"/><path class="cls-1" d="M74.39,80.84a.19.19,0,0,1,.17.2c0,.14-.07.21-.17.21s-.18-.07-.18-.21A.19.19,0,0,1,74.39,80.84Z"/><path class="cls-1" d="M73.52,81.46c0-.21-.27-.21-.27,0v.42c0,.2.3.17.3,0Z"/><path class="cls-6" d="M81,55.38c.1,0,.17.1.17.24s-.07.27-.17.27-.14-.13-.14-.27S80.94,55.38,81,55.38Z"/><path class="cls-6" d="M81.42,56c-.07,0-.1-.18-.1-.39s0-.41.1-.41.14.18.14.41S81.49,56,81.42,56Z"/><path class="cls-6" d="M82.08,55.86c.17,0,.31.07.31.14s-.14.1-.31.1S81.8,56,81.8,56,81.94,55.86,82.08,55.86Z"/><path class="cls-6" d="M82.42,56.45a.15.15,0,0,1,.14.14.16.16,0,0,1-.14.17s-.1-.07-.1-.17A.16.16,0,0,1,82.42,56.45Z"/><path class="cls-6" d="M83,56.41h1.27c.41,0,.48.21.21.59.13.69-.73,1.14-.69,0-.07-.2-.31-.31-.79-.31C82.77,56.65,82.77,56.45,83,56.41Z"/><path class="cls-6" d="M81,64.52a.17.17,0,0,1,.18.17.19.19,0,0,1-.18.21c-.07,0-.13-.1-.13-.21S80.9,64.52,81,64.52Z"/><path class="cls-6" d="M80.42,64.69a.24.24,0,0,1,.21.24.23.23,0,0,1-.21.21.2.2,0,0,1-.21-.21A.21.21,0,0,1,80.42,64.69Z"/><path class="cls-6" d="M81.11,65.07c.45-.31.9-.52,1-.41s-.24.45-.73.79-.89.49-1,.38S80.63,65.38,81.11,65.07Z"/><path class="cls-6" d="M82.77,64c.27-.24.55-.38.59-.34s-.14.31-.42.55-.55.38-.59.31S82.49,64.21,82.77,64Z"/><path class="cls-6" d="M81.7,66.62a3.6,3.6,0,0,1,.34-.68l-.07,0a1.34,1.34,0,0,1,.8-.93l.06,0a2.3,2.3,0,0,1,.53-.34c-.11.17-.18.34-.28.48l.1.07a2.13,2.13,0,0,1,.9-.55,4.82,4.82,0,0,1-.66.69l.21.14a3.63,3.63,0,0,1,1-.62c-.24.24-.48.51-.76.75l.24.14a2.59,2.59,0,0,1,1-.48c-.17.14-.35.28-.49.41a5,5,0,0,1,.87-.1c-.45.21-.73.28-1.07.41l.27.18a2.09,2.09,0,0,1,1-.31c-.24.13-.52.31-.79.45l.23.13a1.77,1.77,0,0,1,1-.2,4.38,4.38,0,0,0-.76.34l.14.1a2.41,2.41,0,0,1,.93-.21c-.28.11-.48.25-.73.35l.21.11a1.49,1.49,0,0,1,.8-.07,5.1,5.1,0,0,0-.63.2l.73.45-.14.07-1.1-.38a.19.19,0,0,0-.14.07.15.15,0,0,1,.07-.1l-.28-.07c-.14.07-.31.17-.48.24a1.22,1.22,0,0,1,.27-.31l-.27-.1c-.14.06-.31.17-.49.24a2.86,2.86,0,0,1,.28-.35l-.28-.1a6.39,6.39,0,0,1-.58.38,2.13,2.13,0,0,1,.34-.45l-.38-.14c-.17.17-.34.31-.51.45a1.13,1.13,0,0,1,.27-.52l-.34-.13c-.17.16-.38.34-.59.51a3.31,3.31,0,0,1,.35-.58L82.35,66A3.32,3.32,0,0,1,81.7,66.62Z"/><path class="cls-1" d="M77.84,67.69a14.82,14.82,0,0,0-1.21,5.08,11.56,11.56,0,0,0,0,3.76c.14.69.45.93.76.89l5.14-.83c.38-.06.76-.38.59-.72l-.21-.41L82.7,76l-.28-.48-.21.55-.31-.69-.24.83-.31-.66-.17.69L81,75.7l-.21.72-.24-.65-.21.79-.27-.76-.21.55-.24-.44-.17.41L79.22,76a.85.85,0,0,0-.73,0l-.1.16L78.25,76c-.38-.11-.79-.18-1.17-.25l.48-.24c0-.17-.17-.24-.48-.21l.51-.37L77,74.8l.52-.31c0-.14-.14-.27-.55-.45l.55-.17v-.14L77,73.66l.58-.27c.07-.14-.1-.24-.48-.38l.48-.14c0-.14-.07-.31-.41-.45l.41-.14L77.18,72l.52-.21c0-.17-.07-.24-.38-.37l.55-.25c0-.1-.17-.27-.52-.38l.52-.17-.41-.27.48-.21L77.56,70,78,69.7c.1-.11-.07-.21-.45-.25l.52-.2,0-.21-.48.07.24-.21-.31-.24.72-.17.07-.14-.51-.14.41-.24A.38.38,0,0,0,77.84,67.69Zm.79.73.1,0a20.67,20.67,0,0,0-.31,6.9c-.17-3.27.24-6.76.86-7.34l.1.24a14.24,14.24,0,0,0-.3,7.07c-.31-3.59,0-5.66.58-6.76v.34A14,14,0,0,0,79.59,75l.14-.1A19.88,19.88,0,0,1,80,68.25l.24,0a18.25,18.25,0,0,0-.14,6.63l.14-.14a18.65,18.65,0,0,1,.17-6.35l.21,0a18.76,18.76,0,0,0-.07,6.38l.14,0a19.07,19.07,0,0,1,.24-6.42l.14.14a24.53,24.53,0,0,0,0,6.18l.13-.07a29.38,29.38,0,0,1,.11-5.9l.17-.21a23.1,23.1,0,0,0,.07,6.14h.14a25.53,25.53,0,0,1,.1-6.38l.14.1a43,43,0,0,0,0,6.32l.14,0a23.43,23.43,0,0,1,.28-6.21c.28-.1.28.24,0,.63a25.1,25.1,0,0,0,0,5.55l.21,0a21.5,21.5,0,0,1,.28-6.14c.17-.17.34,0,.13.45a24.17,24.17,0,0,0-.17,5.69h.24c.28.11.31.21,0,.32a37.5,37.5,0,0,1-4.87.75c-.31,0-.41-.14-.41-.58A21,21,0,0,1,78.63,68.42Zm5.69,1.41.21-1c.24-.14.34-.07.31.21l-.45.86Zm-.38-1.1c-.24,1.72-.24,2.76-.42,4.55l.14.31a26.08,26.08,0,0,1,.59-4.79C84.35,68.52,84.08,68.45,83.94,68.73Zm-.52-.07c.1-.14.28-.1.24.07A33.27,33.27,0,0,0,83.18,74h-.1A19.09,19.09,0,0,1,83.42,68.66ZM76.25,79.94a4.17,4.17,0,0,1,.24-1.72c.07-.25.31-.38.72-.42l4.63-.69c.24,0,.27.11.24.42a3.34,3.34,0,0,1-.35,1.21c-.17.13-.2-.46-.17-1.35-.35.83-.21,1.69-.76,1.82-.24-.37.14-1.1.21-1.65-.52.48-.35,1.07-.8,1.69-.17,0-.13-.55,0-1.48a4.55,4.55,0,0,1-.69,1.48A2.7,2.7,0,0,1,79.38,78a3.14,3.14,0,0,1-.65,1.63,5.29,5.29,0,0,1,0-1.49l-.11-.1a3.71,3.71,0,0,1-.48,1.62A2,2,0,0,1,78.25,78H78c-.14.45-.2.83-.41,1-.28,0-.42-.35-.42-.86A3.17,3.17,0,0,1,76.25,79.94Z"/><path class="cls-6" d="M85,70.18c-.28.21-.39.45.17.41-.38.35-.42.59-.11.69-.69.86-.69,1.11,0,.73-.76,1-.66,1.1-.14.93-.65.79-.55.9-.34.93-.45.62-.45.93,0,.9a1.06,1.06,0,0,0-.65,1c-.14.55-1.63,1.18-.38,1.69A2.51,2.51,0,0,1,84.39,79c.1.49.31.52.72.35a6.29,6.29,0,0,1,1-.18c.66.08.69-.65,0-.75.07-.28-.17-.42-.55-.24.31-.52-.07-.38-.2-.45.2-.11.17-.35-.38,0l-.07-.17a.59.59,0,0,0,.45-.48l-.94.31c.28-.24.42-.42.38-.59l-.65.14c.69-.48,1-.83.93-1l-.73.2c.52-.41.86-.75.83-1l-.62.24c0-.2.28-.41.8-.55s.61-.48.55-.86l-.93.45a7.11,7.11,0,0,0,1.55-1.73c-.07-.24-.83.28-1.83,1.11v-.18a7.67,7.67,0,0,0,2.24-2.27L85.11,72.8l1.66-2c-.1-.24-.59,0-1.52,1l.07-.2.86-.93a3.23,3.23,0,0,0,1.35-1.45c.17-.45-.41.13-1.31.93-.21.21-.45.31-.69.55l2.1-2.21,0-.27C87.46,68,86.11,69.63,85,70.18ZM82.49,78.7c-.38-.24,0-.79.31-.55l1,.76c.31.24,0,.65-.25.48Zm.42-.66c-.38-.24.07-.72.31-.51l.55.55c.31.27.1.52-.18.38Zm2.2,2.08c-.27-.14-.41.06-.24.2a6.38,6.38,0,0,0,1.45.93,3.23,3.23,0,0,0,1.59.31c.38,0,.55-.24.07-.34A12.72,12.72,0,0,1,85.11,80.12Zm.28,0c-.18-.21-.14-.38.1-.52l1.24-.1a.84.84,0,0,1,.66.41l.59.66c.24.31,0,.55-.21.48A14,14,0,0,1,85.39,80.08Z"/><path class="cls-1" d="M86.63,76.8a1.72,1.72,0,0,1,1-.82,17.53,17.53,0,0,0,3.45-.83c.34-.24.48-.17.45.2a4.38,4.38,0,0,1-.56,2.25V75.73l-.13,0a4.18,4.18,0,0,1-.49,1.89l.07-1.72h-.17l-.38,1.69L90,76.14c0-.2-.08-.23-.18-.13-.24,1.72-.55,2.45-.9,2.69a5.76,5.76,0,0,0,.28-2.52l-.1-.07a8.28,8.28,0,0,1-.56,2.42c-.34-.52.31-1.42.18-2.28H88.6L88,78.39c-.21,0-.14-.28.07-.83l.06-1.21-.1.07A5.94,5.94,0,0,1,87.43,78l.1-1.58-.45,1.14,0-.94Zm5.11-1.31c0-.38.45-.27.27.1l-.2.49H91.7Zm-.11,1.42s.07.1.07.24,0,.24-.07.24-.07-.1-.07-.24S91.6,76.91,91.63,76.91Zm.18-.52c.07,0,.1,0,.1.14s0,.14-.1.14a.16.16,0,0,1-.14-.14A.13.13,0,0,1,91.81,76.39Zm0-2.11c.11,0,.17.14.21.31s0,.35-.07.35-.14-.11-.17-.28A.59.59,0,0,1,91.77,74.28Zm-.51-1a.91.91,0,0,1,.3.83c0,.35-.3.59-.3.35A2.2,2.2,0,0,0,91,73.39C90.88,73.22,91.12,73.15,91.26,73.28Zm-2.53-.62c0-.34.32-.07.32.14l-.11.55c-.1.11-.14,0-.24-.17Zm-1.2,1.8c-.28.17-.28.31,0,.41l.14,0v0c0,.14.07.24.14.24s.14-.1.14-.24v-.1l.31-.07v.69c-.11,0-.21,0-.35.07a.12.12,0,0,0-.1-.11.15.15,0,0,0-.14.14s0,0,0,.07,0,0,.13.14l2.31-.52c.7,0,.87-.52.7-1.34.1-.28,0-.38-.21-.35l-.52-.07.31-.2c.42-.21.42-.32.07-.32l-.72-.1.58-.1c.17,0,.24-.25,0-.35l-.62-.07.48-.1c.31-.24.14-.42-.45-.48.21-.24.18-.42-.07-.42-.1-.24-.41-.41-.31,0l.14,2.27c.07.25,0,.42-.31.52Zm1.31-.9a.16.16,0,0,1,.17.17.17.17,0,0,1-.17.18.16.16,0,0,1-.14-.18A.16.16,0,0,1,88.84,73.56Zm1.38.72a.08.08,0,0,1,.07.07c0,.07,0,.11-.07.11s-.07,0-.07-.11A.08.08,0,0,1,90.22,74.28Zm-.14-.44a.23.23,0,0,1,.28.07c0,.1-.07.17-.21.2s-.24,0-.28-.1S90,73.87,90.08,73.84Zm-1.59,1.48h.07v-.69l-.17.07Zm.38-.1c.07,0,.11,0,.18,0v-.66l-.32.07Zm.42-.14s.07,0,.1-.07v-.55l-.14,0Zm.31-.14a.17.17,0,0,0,.1,0c.25-.28.25-.42,0-.49H89.6Z"/><path class="cls-1" d="M95,42.34C92.08,42.1,90.7,43,90,44a4.86,4.86,0,0,0-1.08,2.79c.07.17.38-.21.83-.79l-.28-.11a2.56,2.56,0,0,1,.32-.58c.07-.11.07-.28.24-.38a.73.73,0,0,0,.34-.38h-.24a3.64,3.64,0,0,1,3.14-1.18l1,.11a.66.66,0,0,0,.45-.11c.1-.07.13-.17,0-.17a8.82,8.82,0,0,0-3.28.14c.8-.52,1.94-.55,3.56-.48C95.53,42.89,95.57,42.41,95,42.34ZM90,60.76c.1.07.13.28.06.52s-.24.38-.34.34-.17-.27-.11-.48S89.81,60.73,90,60.76Zm-2.49,1s.1.17.1.34-.07.35-.1.35-.1-.14-.1-.35S87.39,61.76,87.46,61.76ZM87.67,63a2.33,2.33,0,0,1,1-1.62c.48-.35.59-.25.21.24A12.69,12.69,0,0,0,88,63.07C87.91,63.28,87.6,63.52,87.67,63Zm1.44-2.62a1.94,1.94,0,0,0-1.1.93c-.17.41-.1.45.21.13a8.82,8.82,0,0,1,1-.82C89.39,60.48,89.53,60.24,89.11,60.35Zm-3,2.31c-.24.31-.21.41.21.24A6.21,6.21,0,0,1,87.84,61L89,60c.9-.21,1.42-1.17,1.59-2.79L90.53,57a4.93,4.93,0,0,1-1.66,2.42,7.26,7.26,0,0,0-1.62,1.65c-.2.21-.2.45-.38.73A8.62,8.62,0,0,0,86.15,62.66Zm-.28-.73c-.2.38,0,.52.18.21a12.62,12.62,0,0,1,2.17-2.55,6.73,6.73,0,0,0,2.31-3.07c.28-.83,0-1.07-.24-.56a6.61,6.61,0,0,1-1.8,3A9.21,9.21,0,0,0,85.87,61.93Zm-.1-1.14c-.17.31-.21.56-.07.73.66-.24.45-1.28,2.07-2.1.21-.28.14-.38-.21-.28l-1.51,1.1a3.16,3.16,0,0,1,1.79-1.65,2.18,2.18,0,0,0,1.34-.73c.18-.38.11-.48-.17-.31-.93.62-1.72.86-2.45,1.42a3.68,3.68,0,0,0-1.27,2Zm-.1-2c.27-.59,1-1,2.1-1.31A4.21,4.21,0,0,0,89.6,56.1c.55-.34.45,0,.27.35a1.5,1.5,0,0,1-.69.65,6.51,6.51,0,0,1-1.51.87A3.64,3.64,0,0,0,86,59.14C85.7,59.38,85.56,59.28,85.67,58.79Zm1.62-2a4,4,0,0,0,1.31-1.14c.48-.69.69-.73.55,0a2.11,2.11,0,0,1-1.41,1.52C87,57.48,86.81,57.14,87.29,56.83Zm2.17-1.59L89.7,54a2.35,2.35,0,0,1,.52-1.31l.38-1c.1-.41.28-.38.28.14l-.25.66c.21.1.11.3,0,.51s0,.52-.28.59a3.5,3.5,0,0,1-.45,1.93C89.46,56,89.32,55.93,89.46,55.24Zm-1.66-.17.56-1.35c.13-.48.37-.76.69-.79l.76-.72c.17-.21.27.06.17.24l-.56.89a3.89,3.89,0,0,1-1,2.14c-.14.14-.38.14-.24-.06l.65-1.32L88,55.24C87.74,55.55,87.7,55.31,87.8,55.07Zm-1,.55c.31-.83.41-1.28.72-1.55s.49-.35.24.1a3.45,3.45,0,0,0-.41,1.69C87.39,56.55,86.53,56.41,86.84,55.62Zm-.07-1.1c0,.27.07.2.21,0l.31-.86a11.22,11.22,0,0,0,1.27-1.21c.21.3.59,0,1.18-.76A2.35,2.35,0,0,0,91,50.1c.17-.59.07-.69-.31-.31a8.18,8.18,0,0,0-1.17,1.52c-.66.2-1.17.93-1.93,1.28a.65.65,0,0,0-.28.61C87,53.41,86.81,53.76,86.77,54.52Zm.07-1.69a.25.25,0,0,1,.28-.11.24.24,0,0,1,0,.31.22.22,0,0,1-.31.11A.26.26,0,0,1,86.84,52.83Zm3.83-5.9a4.52,4.52,0,0,1,1.62-1.25c.65-.27.62.25.17.25s-.83.31-1.62,1.31C90.63,47.51,90.39,47.27,90.67,46.93Zm-4.56,7a2.44,2.44,0,0,1,.76-2.39c1.59-1,2.14-2.38,2.66-2.34a12,12,0,0,1,2.24-2.69c.69-.49.83-.38.45.38-1,1.41-2,3.1-2.9,3.58a1.27,1.27,0,0,0-1,.66l.62-.31c.31,0,.34.07.13.27-.51.28-1.37,1.62-1.58.76-.35.66-.93.56-1,1.21l-.07.87C86.36,54.21,86.25,54.21,86.11,54Zm6.14-9c.32,0,.46.13.21.41a5.76,5.76,0,0,0-2.17,1.73.71.71,0,0,1-.42.79c0,.52-.31.76-.82.83l-.76,1c.17.24-.11.62-.66,1.18-.34.38-.48.27-.41-.35.41-1.14,1.21-2.79,1.58-2.79.21,0,.21-.07.28-.45s.31-.21.24,0,0,.31.21.1A5,5,0,0,1,92.25,44.93Zm-2.3.34c.61-.72,1.68-1.21,3.69-1.17.41,0,.34.45,0,.41a3.3,3.3,0,0,0-1,.17A4.36,4.36,0,0,0,91.5,45a5.34,5.34,0,0,0-1.87,1.86c-.21.11-.24,0-.13-.21a3.23,3.23,0,0,1,2.38-2l0-.07c-.48-.1-1.07.1-1.93.9C89.87,45.65,89.84,45.55,90,45.27Zm.75-1.07a3.8,3.8,0,0,1,2.62-.62c.63.07.63.45.28.42a4.7,4.7,0,0,0-2.83.34C90.43,44.51,90.49,44.34,90.7,44.2Z"/><path class="cls-1" d="M95.5,41.37c-.24-.31-.07-.48.35-.45a6.07,6.07,0,0,1,2.58.83c.34.24.07.49-.17.31l-.73-.38c0,.31-.24.18-.65-.17-.28.28-.62.14-1-.28l.24.7c0,.13-.11.13-.17,0Zm1.48.56c-.14.1,0,.34.14.44s.31.07.24-.13S97.12,41.82,97,41.93Z"/><path class="cls-1" d="M99.19,42.79c-.11-.07-.35-.18,0-.24-.35-.21-.21-.49,0-.52.93,0,1.65-.55,2.72,0l.49.55c.31.73,0,1.07-.38.56-.21-.31,0-.59-.55-.83A3.47,3.47,0,0,1,102,44c.79.76.07.93-.14.45L101.5,43c.07.69.11,1.21,0,1.21s-.1-.48-.21-1.07c-.07-.24-.13-.69-.27-.72a3.4,3.4,0,0,0-1.59,0c.76,0,1.28,0,1.45.2a1.2,1.2,0,0,1,.17,1.07c-.17.28-.27.21-.27-.13l-.11-.45c0-.24-.3-.28-.69-.24A1.1,1.1,0,0,1,99.19,42.79Z"/><path class="cls-1" d="M89.6,68.56a36.74,36.74,0,0,0,3.83,5.24c.17.21,0-.41.17-.17a6.43,6.43,0,0,0,1,1.48c.21-.17-.45-.76-.55-1.45l2,2.28c.18-.31-1-1.66-1.89-2.83l.13-.14,2.25,2.94.1,0a20.72,20.72,0,0,0-2.07-3.21l.07-.24c.42.52,1,1.31,1.41,2a11.22,11.22,0,0,0,1.42,1.82c.83.21-2-2.72-3.24-5.17l0-.14c1.52,2.32,2.86,4.42,4.35,5.38.17.11.31-.1.14-.3a46.44,46.44,0,0,1-3.9-4.87l.07-.14c1.44,1.73,2.2,3.69,5,5.35.18.1.28.27.45.14.62-.48-2.38-1.21-4.69-5.11l0-.27a19.07,19.07,0,0,0,1.79,2.34c1.1,1.21,2.83,2.62,3.1,2.42s-2.48-2.14-4-4.45l.07-.07a15.05,15.05,0,0,0,5.24,4.82c.34.18.21.14.62.14,1.07.07-2.38-1.69-4.17-3.65l0-.18c.52.45,1.17,1,1.9,1.63s1.76,1.17,2.48,1.59,1.17.54,1.42.44c.62-.31-2.38-1.38-3.14-2.17.45.24.89.41,1.27.58,1.31.66,2.25,1.11,2.45.87s-.55-.56-1.76-1c-.13-.14,0-.17.32-.11,1.38.55,2.17.94,2.34.83.45-.13-.28-.45-1.1-1a5.07,5.07,0,0,0,2.41.73c.17,0-.59-.45-1.24-1,.93.58,3.14,1.38,1-.11l.14-.07c.8.59,1.79.83.59-.14h.17c.69.56,1.07,1,.55-.17.69,1,1.38,1.38.45-.07l1.07.83c-.38.17-.35.28,0,.48.9.59,1,.49.8,0a1.85,1.85,0,0,0-.87-1.93c-.68-.45-.65.07.14,1.31a2.94,2.94,0,0,1-.72-.79.88.88,0,0,0-.8-.45,43.87,43.87,0,0,0-4.72.55,3.88,3.88,0,0,1-2.49-.27c-.41-.35-.55-.49-.34-.87a.47.47,0,0,0-.21-.65l-1.1-2.21a6.62,6.62,0,0,0,.44.55c.45.73.76,1.31.87,1.28-.18-.48-.76-1.55-1.21-2.76.87,1.52,1.62,2.83,1.83,2.66a13.72,13.72,0,0,0-1.49-2.9,4.09,4.09,0,0,1,.42.45c.27.34.52.65.65.58a3.75,3.75,0,0,0-1.75-2.07c-1-.34-1.56-.48-1.42.14l-.48-.55-.52-.07c-.17.07.07.35.41.93l-.1.07-.59-.93c-.17-.1-.41-.21-.45,0l.31.62-.65-.72c-.31-.18-.65-.24-.65-.11L96,68c-.17-.24-.45-.48-.69-.83-.38-.52-.69-.89-1.14-1s.45.69,1.07,2.17l-1.48-2.14c-.14-.1-.73-.21-.76,0l1.72,2.48a14.15,14.15,0,0,1-2-2.51.37.37,0,0,0-.31-.11c-.07,0-.14,0-.21.07l2.1,2.72a11.19,11.19,0,0,1-1.13-1.17c-.45-.62-.87-1-1.21-1.58a.32.32,0,0,0-.45,0c-.17.24,1.59,2,2.35,3.11a17.15,17.15,0,0,1-2.66-3.11c-.34-.17-.59-.17-.69,0s2.14,2.35,3,3.69a38.9,38.9,0,0,1-3.24-3.69c-.14-.17-.55-.17-.55,0,0,.34,1.93,2.11,3.48,4.25a30.24,30.24,0,0,0-3.1-3.25c-.28,0,.69,1.18,2.89,3.69a30.46,30.46,0,0,1-3-3.2c-.28.24.93,1.75,2.69,3.69l-2.76-2.9C89.46,68.18,89.39,68.21,89.6,68.56Zm11.73-.66c-.24-.34.1-.52.38-.1a22.28,22.28,0,0,1,1.45,2.62c.17.41-.07.52-.25.14A16.66,16.66,0,0,0,101.33,67.9Zm-1.07-.34c-.17-.28.27-.45.62,0a22.67,22.67,0,0,1,2,3.35c.31.69,0,.86-.31.24A21.63,21.63,0,0,0,100.26,67.56Z"/><path class="cls-1" d="M95.32,44.24a2.49,2.49,0,0,0,1,1.93,8.33,8.33,0,0,0-.52-1C95.57,44.68,95.46,44.3,95.32,44.24Zm2.14,21.52a3.47,3.47,0,0,0-1.72-2.55c0,.24.72.83,1.14,1.55S97.29,65.62,97.46,65.76Zm0-1a10.94,10.94,0,0,1-.59-1c-.34-.58-.93-1.17-1-1.34A3.64,3.64,0,0,1,97.43,64.73Zm-.14-1.31a8.66,8.66,0,0,1-.45-.8c-.27-.44-.72-.89-.76-1A2.46,2.46,0,0,1,97.29,63.42Zm-.14-1.35a1.49,1.49,0,0,0-.83-1.2c0,.1.32.37.52.68S97.08,62,97.15,62.07Zm-.51-18.9a2.42,2.42,0,0,0,.55,2.1,5.89,5.89,0,0,0-.31-1.14C96.77,43.68,96.74,43.23,96.64,43.17ZM90.53,65.38c-.52,0-.62-.07-.66-.58C90.12,65,90.32,65.14,90.53,65.38Zm-.69-.89c.34.34.69.55,1,.93a.46.46,0,0,0,.51-.07c-.55-.59-1.07-.93-1.65-1.52C89.77,64,89.81,64.28,89.84,64.49Zm-.14-1c.73.72,1.28,1.17,1.93,1.86.21.11.35.11.45,0-.79-1-1.52-1.76-2.31-2.76A4.12,4.12,0,0,0,89.7,63.52Zm.14-1.1c.9,1,1.76,1.93,2.69,3.07.28.13.48.13.59,0-.9-1.17-2-2.45-3.07-3.72a3.65,3.65,0,0,1-.18.44A.38.38,0,0,0,89.84,62.42Zm.24-.87c1.18,1.35,2.25,2.56,3.48,4a.51.51,0,0,0,.49,0c-.14-.13-1-1.13-1.11-1.31-1-1.24-1.58-1.89-2.72-3.27A3.23,3.23,0,0,1,90.08,61.55Zm.21-.72c1.24,1.38,1.69,2,3,3.59.14.21.87.93,1,1.1.18.35.76.35.49.1s0-.06-.35-.51c-1.1-1.35-2.93-3.56-4-4.94C90.39,60.41,90.32,60.62,90.29,60.83Zm.17-.83c0-.21.07-.38.1-.55,1,1.31,3.08,3.76,4.25,5.21.62.76.58.72.93,1.1,0,.18-.14.11-.38,0a6.67,6.67,0,0,1-.59-.73C93.32,63.38,91.74,61.41,90.46,60Zm.1-.72a6.63,6.63,0,0,0,.11-.76,27.49,27.49,0,0,0,4.45,5.17C95,63,92.77,61.1,91.43,59.31A14.34,14.34,0,0,1,90.74,58c0-.2,0-.38.07-.62a17.55,17.55,0,0,0,4.48,5.45c-.24-.62-2.38-2.35-3.52-4.17a12.71,12.71,0,0,1-.89-1.8v-.31A18.44,18.44,0,0,0,95.36,62c-.21-.62-2.42-2.41-3.48-4.17A16.23,16.23,0,0,1,90.94,56v-.35a22,22,0,0,0,4.73,5.8c-.21-.58-2.69-2.76-3.73-4.45A13.79,13.79,0,0,1,91,55.1v-.48a17.53,17.53,0,0,0,4.59,5.73c-.21-.59-2.59-2.55-3.55-4.18a11.46,11.46,0,0,1-1-2,2,2,0,0,1,0-.51,13.89,13.89,0,0,0,4.41,5.51c-.21-.51-2.41-2.31-3.31-3.83a16.43,16.43,0,0,1-1.07-2.14,3.82,3.82,0,0,1,0-.58,12.85,12.85,0,0,0,4.21,5.48c-.13-.51-2.2-2.14-3.1-3.58a14.32,14.32,0,0,1-1.07-2.31V52.1c0-.21,0-.45.07-.65a11.58,11.58,0,0,0,4,5.69c-.14-.45-2-2.07-2.83-3.42a22.1,22.1,0,0,1-1.17-2.45c.59-5,2.69-7.9,5.76-8.41l.07,0a3.36,3.36,0,0,0,.34,2,10.67,10.67,0,0,0-.13-1.41V43l.27.07c0,.69.28,1.34.59,1.41a2.3,2.3,0,0,1-.28-1.27l.38.1c0,.73.24,1.52.59,1.55a2.08,2.08,0,0,1-.28-1.41l.07,0a1.53,1.53,0,0,0,.31.69c.14-.17.07-.52,0-.9a1.25,1.25,0,0,1,1.31.14c.17.21.11.31-.14.31h-.24l.55.25c0,.07.14.13-.17.17l-.21.17.73.07c.24.1.21.17.13.27l-.17.21a4.28,4.28,0,0,1,2.07.56c0,.27-.34.24-.93-.07.14.34.69.37.66.58-.07.38-.9,0-1.28.52l.93,0c.21.14.14.24-.17.24.48.59.86.76,1,.35s.28-.31.41,0c.59.35.69.38.34.45l-.55.1.66.11a.17.17,0,0,1,.07.3c-.45.07-.48.14.34.18.35.17.49.34.35.48-.73,0-.69.14.17.21.21.1.28.24.24.34-.45.11-.37.21.18.21.07.1.13.17,0,.28-.52.13-.45.2.21.2,0,.24.41.21.55.52.55-.1.79.28.31.28l0,.1c.8,0,1.15.24,1,.72-.07.21-1.14-.41-.69,1.24l.17.18c.31.07,0-.76.49-.69.06,0,.14.28,0,.69s-.34.55-.72.31-.56-.49-.52-.76l0-.52c-.39,0-.45-.2-.49-.58,0-.07-.14,0-.1-.14-.62-.11-.9.1-1.07.55,0,.17-.18,0-.24-.14s-.21,0-.35,0-.07-.24-.17-.21-.07.1-.21.1-.07-.27-.28-.06-.17.13-.2-.07.17-.52-.21,0c-.14.07-.17.07-.24-.1-.21-.59-.35-.62-.41-.11-.11.21-.21.25-.21-.06-.21-.9-.24-.9-.17,0,0,.38-.14.35-.35-.1-.24-.73-.34.07-.52-.28s-.07-1-.48-1.17l.24,1.21c0,.17-.27.21-.3-.07-.15-.8-.66-2.18-.56-1.73l.31,1.66c0,.14-.35.07-.41-.14l-.42-2.07c-.1-.59-.1,1.1.14,1.83,0,.1-.27.1-.24,0a8.67,8.67,0,0,0-.42-2c-.24.24.42,2.21-.1,1.9-.07,0-.24-2-.31-2s0,1.9-.07,1.86c-.55-.69,0-2.55-.35-2.65-.06,0-.23,2.27-.3,2.21.24,1.75,1.65,1.83,1.55,2.34l-1-.51c.28.51.69,1.06,1,1.65-.32.1,0,.52.24.73-.32,0-.24.17.34.72a.27.27,0,0,1,.14.31c-.72-.18-.8-.18.38.76-.73-.11-.76,0,.07.51a.9.9,0,0,1,.34.52c0,.14-.1.07-.17.07l-.41-.24c-.21,0-.07.24.9,1,.23.2.34.38.17.44-1.18-.72-1.11-.55.17.55.31.49.34.7.24.77-1-.87-1.73-1.42.07.38.31.3.38.51.14.55-1.8-1.35-.83-.45.38.79.06.07,0,.18-.07.14-1.72-1.28-1.8-1,0,.93.07.17.17.31.1.45s-.17,0-.24,0c-1.24-1.18-1.14-.94.28,1,.21.32.31.59,0,.42-1.55-1.76-2-2.14,0,.55.21.35.24.52,0,.41-1.42-1.93-1.45-1.69-.07.38.1.25.1.28,0,.25-1.28-1.56-1.66-1.93-.07.34.2.42.17.48,0,.28-1.55-1.94-1.58-1.69-.07.31.14.24.21.37,0,.27-1.79-2-1.79-2-.07.24,0,.56,0,.52-.31.25-.17-.21-.17-.39-.34-.55-1.11-1.35-1.25-1.25.06.48-.13.14-.31.14-.51,0-1.14-1.48-1.25-1.48-.34-.07l-.63-.1a1.61,1.61,0,0,0-.34-.45c-1.07-1-1.46-1.14-.38.21,0,0-.07.07,0,.1l-1.21-.2a.57.57,0,0,1-.44-.25,7.74,7.74,0,0,0-1.69-2.06c.07.3.72.86,1.24,1.72.14.55-.49.31-.69.21-.38-.52-.52-.59-1.07-1.24C93.56,62.79,91.91,60.73,90.56,59.28Zm4.18-14.49a10.69,10.69,0,0,1,.52,1c.27.55.69,1.07.72,1.25A3,3,0,0,1,94.74,44.79Zm-.52.55a11.24,11.24,0,0,1,.55,1.21,12.23,12.23,0,0,1,.9,1.44A3.75,3.75,0,0,1,94.22,45.34Zm-.48.62c.17.14.27.66.66,1.35s1,1.41,1.06,1.62A4.13,4.13,0,0,1,93.74,46Zm-.42.62a4.9,4.9,0,0,0,2,3.31c0-.24-.83-1-1.24-1.83S93.5,46.75,93.32,46.58Zm-.38.66a5.57,5.57,0,0,0,2.25,3.66c-.07-.28-1-1.18-1.45-2S93.12,47.41,92.94,47.24Zm-.34.65a6.25,6.25,0,0,0,2.48,4c-.06-.31-1.1-1.24-1.62-2.21S92.81,48.1,92.6,47.89Zm-.35.66A7,7,0,0,0,95,52.86c-.07-.34-1.21-1.38-1.83-2.42S92.5,48.79,92.25,48.55ZM92,49.2a7.51,7.51,0,0,0,3,4.66c-.1-.38-1.34-1.48-2-2.59S92.22,49.48,92,49.2Zm-.24.69a8.06,8.06,0,0,0,3.24,5c-.14-.42-1.48-1.63-2.21-2.83S92,50.17,91.74,49.89Zm-.28.66A9.82,9.82,0,0,0,95.08,56c-.13-.45-1.72-1.87-2.48-3.14S91.74,50.9,91.46,50.55ZM96,43.75c.11,0,.25.42.38.8a6.5,6.5,0,0,1,.35.83A1.92,1.92,0,0,1,96,43.75Zm9,9.11c-.38-.38-.62.07-.1.55s.93.28.79.14Zm-2.8-4.28c-.06,0,0,.41.07.62a.75.75,0,0,0,.21.52c.14.17.21.21.17.14a5.91,5.91,0,0,1-.31-1A.26.26,0,0,0,102.22,48.58Zm-.48-.52c-.07,0,0,.49,0,.73a1.11,1.11,0,0,0,.2.62c.14.17.21.24.18.17a4.7,4.7,0,0,1-.28-1.24A.53.53,0,0,0,101.74,48.06Zm-.52-.51c-.06,0,0,.51,0,.79a1.16,1.16,0,0,0,.21.76c.14.21.2.28.17.17a8.34,8.34,0,0,1-.28-1.41C101.36,47.65,101.33,47.58,101.22,47.55Zm-.48-.52c-.07-.07,0,.59,0,.9a1.66,1.66,0,0,0,.17.86c.18.24.25.31.21.2a11,11,0,0,1-.24-1.61C100.88,47.14,100.81,47.07,100.74,47Zm-.48-.55c-.07,0,0,.69,0,1a1.75,1.75,0,0,0,.18.93c.13.31.24.38.2.28a9.89,9.89,0,0,1-.2-1.83A.51.51,0,0,0,100.26,46.48ZM99.74,46a7.36,7.36,0,0,0,0,1.14,1.79,1.79,0,0,0,.17,1c.14.35.21.42.21.31a10.22,10.22,0,0,1-.21-2C99.91,46.13,99.84,46,99.74,46Zm-.45,0c0-.07,0,.58-.07.89a1.49,1.49,0,0,0,.14.86c.1.28.17.35.17.24a8.79,8.79,0,0,1-.13-1.62C99.43,46.13,99.36,46.06,99.29,46Zm-.38,0c-.07,0-.07.48-.1.72a1,1,0,0,0,.07.66c.1.24.14.27.14.2a5.12,5.12,0,0,1,0-1.28A.31.31,0,0,0,98.91,46Z"/><path class="cls-6" d="M63.34,33.58c1,1.27,2,2.48,3.11,3.93,0,.24-.1.38-.38.38-1.14-1.62-2-2.93-2.86-4.18C63,33.47,63.24,33.44,63.34,33.58Zm5.21,8.86c.11.28-.1.42-.31.14a1.31,1.31,0,0,1,.14-1.76,1.17,1.17,0,0,1,1.76-.17c.35.27.24.31-.17.31C68.8,41,68.35,41.55,68.55,42.44Zm1.21-.55c-.48-.17-.62,0-.52.55,6.9,9.73,17.36,23.94,29.67,40.71l-.07.24,1,.59-.35-1.38-.2.13C89.84,69.49,78.84,53.9,69.76,41.89Z"/><path class="cls-6" d="M86.49,44.44c0-.24.9-.86,2.07-1.65A2.23,2.23,0,0,1,90,42.24a1.91,1.91,0,0,0,.62,0c.28.17.18.31-.14.38a.37.37,0,0,0-.41-.07c-.31.07-.34.28-.55.34l-.14-.2c-.41.27-.69,1-1,1.41l-.07-.38c-.21,0-.34.49-.65.73,0-.28,0-.42-.14-.42C87,44.41,86.63,44.58,86.49,44.44ZM72.8,62.52c.31,0,.58.1.58.21s-.27.24-.58.24-.62-.11-.62-.24S72.45,62.52,72.8,62.52ZM75.14,62c.21-.31.45-.45.52-.38s0,.41-.21.69-.44.48-.52.38S75,62.35,75.14,62Zm-.75.41c.13-.24.31-.38.37-.31s0,.31-.13.55-.35.38-.42.31S74.21,62.69,74.39,62.45Zm-.7.14c.14-.21.28-.31.32-.28s0,.28-.11.48-.28.28-.35.25A.56.56,0,0,1,73.69,62.59ZM62.21,60.14l-.14.38c.17,0,.31-.21.48-.31l-.14.62c.21,0,.69-.48,1-.73l-.24.63c.31,0,.51-.45.76-.69l-.14.65c.38,0,.62-.52.93-.79l-.07.62c.28,0,.48-.42.76-.66l.14.45c.24,0,.38-.31.58-.45l.11.42.52-.52.1.45.59-.21.17.24.48-.24,0,.52.65-.28.07.35.48-.28v.45l.55-.14,0,.42.83-.35-.28.62.73-.44-.11.48.8-.35-.45.73c.52,0,.69-.35,1-.52l-.24.66a2.65,2.65,0,0,0,1.41-1.08c.11.18,0,.45-.34,1a2,2,0,0,0,1-1l-.17.73a1.51,1.51,0,0,0,1-.79l0,.68a1.83,1.83,0,0,0,.62-.82c.35.14.73-.07.86-.62s.07-.69-.38-.52c-1.48,1-3.44,1.31-6.35.45a24.37,24.37,0,0,0-5.72-.66C63.28,59.21,62.55,59.35,62.21,60.14Zm4.38-7.42a2,2,0,0,1,.76-.65l.07.31.82-.28.07.28.9-.49c-.52.66-.62.94-.45.94s.79-.76,1-.56c-.45.69,0,.48.73-.13.2.07-.28.55-.21.61s.35-.13.9-.51c.13-.1.44-.45.52-.28s-.18.31-.28.45c-.56.66-.42.55.55-.07.14-.07.35-.24.48-.17-.65.86-.38.69.59.1.14-.06.31-.31.48-.13-1.2,1.06-1,1.2.55.45-.72.82-.55.86.59.13a1.54,1.54,0,0,0,.38-.07c-.52.52-.59.9-.34.76a2.23,2.23,0,0,1,1.1-.31c-.49.49-.45.69.17.59.21.07,0,.31-.62.72-.1.18-.21,0-.31-.41-.07.24-.17.24-.28.1l-.13.9-.21,0v-.52c-.11-.13-.21-.13-.31,0l-.17.7L73.62,55a1.41,1.41,0,0,1-.48.66c-.2-.28-.34-.2-.41,0-.14,0-.21-.06-.35,0-.1.31-.2.38-.37.17a4.33,4.33,0,0,0-.8.62l-.14-.34c-.24.34-.44.55-.58.48l-.24-.24-.39.62-.62.17c0,.18.25.18.66.11a17.63,17.63,0,0,0,2.31-.52A21.58,21.58,0,0,0,74.49,56c.65-.32,1.41-.87,2.17-1.25.17.14,0,.48-1.41,1.62l-.69-.21.37.52c-.17.18-.3.25-.48.21l-.62-.31.21.66c-.45,0-.66-.56-1.07-.31l.17.51-.93-.27.17.62-.79-.35-.17.35c-.24,0-.38.07-.42.17,1.84.31,3.83-.35,5.9-1.35.11,0,.14,0,.14.21a3.76,3.76,0,0,1-1.69,2.21l.28-1.1c-.62.27-1.32,1.62-1.83,1.79l.55-1.45-1.62,1.35c-.14-.18.07-.56.41-1-.48,0-1.31,1.14-1.44,1.07-.35-.17.27-.52.41-.76-.45,0-.76.38-1.14.59,0-.21.21-.45.62-.83l-1.34.62c0-.24.51-.45.61-.79a3.34,3.34,0,0,1-1.31.65l.42-.65-1.17.62.72-.76L68.28,59l.34-.66-.89.59.38-.73a2.29,2.29,0,0,1-1.11.62c.24-.31.42-.55.38-.72a2.51,2.51,0,0,1-1,.59l.17-.59a2.82,2.82,0,0,1-1.13.72l.41-.69c.07-.1,0-.24-.1-.13l-.94.75c.21-.37.31-.62.18-.72l-.66.35.07-.38-.76.82c-.1,0,0-.24.14-.62l-.8.52A3.22,3.22,0,0,1,65,57a14.71,14.71,0,0,1,2.66-.48,9.26,9.26,0,0,0,2.93-.72A5.41,5.41,0,0,0,72.11,55c.27-.21.17-.28-.14-.24l-1.24.07v-.56l-.48.66-.11-.66-.41,1.15-.18-1.32-.31,1.41-.17-1.37-.52,1.58-.13-1.65-.31,1.69L67.8,54l-.21,1.73-.35-1.62-.13,1.55-.45-1.59,0,1.66-.52-1.59L66,55.59l-.34-1.38-.14,1.24-.28-1.14-.17,1.24c-.52-1-.73-1.76-.38-2.21A2,2,0,0,1,66.59,52.72ZM70.52,49c.11,0,.21.14.28.38a.78.78,0,0,1,0,.45c-.1,0-.2-.14-.27-.38A.75.75,0,0,1,70.52,49ZM67,48.55c.52-.8.93-1,1.21-.42.34-1.1.73-1.2,1.21-.24.65,0,.79,1,.69,2.49l-.62-1.66v1.07C69.07,48,66.41,49,67,48.55Zm11.45-6a5.5,5.5,0,0,1,2.25.75c0,.11.07.18-.07.11a1.27,1.27,0,0,0-.73-.31c.07.31,0,.45-.1.41-.27-.48-.52-.55-.72-.45s-.11.07-.18,0c-.2-.45-.31-.45-.41-.28C78.28,42.65,78.28,42.55,78.45,42.55Zm-3.89.2c-.17.11-.17.17,0,.21a.5.5,0,0,1,.79.07c0-.45.18-.42.56.14-.14-.56,0-.69.59.13,0-.44,0-.51.41.25.1.13.21.13.24.06-.21-.79-.1-.75.35.07.13.18.2.18.2.07,0-.55.21-.45.73.31.13.18.2.24.24.07-.11-.45.1-.41.55.14.35,0,.83.24,1.45.79.07.11.14.14.21.11-.35-.62.06-.38.62,0,.34-.18.38-.28.17-.35a10.66,10.66,0,0,1-2.83-1.38c-.79-.62-1.14-.45-2.07-1A2,2,0,0,0,74.56,42.75Zm-1.69,1.11c-.42.14-.42.31,0,.38a1.09,1.09,0,0,0,.44,0c.24,0,.34,0,.45.2.17.35.38.49.55.38s-.66-.65-.27-.65h.2c.59.55,1.14.86,1.1.76l-.24-.63c-.06-.2.24-.1.38,0l.8.69c.1.14,0-.1-.14-.55-.07-.14.14-.14.27,0,.49.48,1.08,1.31,1.08,1v-.3c0-.14.17-.14.27,0,.28.34.66.65.62.51l-.07-.27c0-.17.11-.17.31,0l.83.69c.17.14.31.07.24,0l-.13-.2c-.11-.18,0-.21.17-.07l.72.51c.14.11.14,0-.07-.34h.42c.07.24.24.31.65.48.11.07.14-.07.34-.14l1-.3c.31-.11.27-.32,0-.25-1.45.38-3-.34-4.59-1.24A6.42,6.42,0,0,0,72.87,43.86Zm14.21.79c.07.07,0,.17-.1.31s-.25.14-.31.1,0-.2.1-.31S87,44.61,87.08,44.65Zm1.1.28c-.24-.18-.34.24.07.1l.59-.52c.27-.48.1.14.27.1a1.12,1.12,0,0,0,.45-.93l.49-.24c.27-.24.2-.34-.18-.31a6.45,6.45,0,0,0-1.27,1.24Z"/><path class="cls-3" d="M103.34,114.81l5.17,2.34,14.28-.89-.62-7.45c-.6-7.34-1.18-14.7-1.79-22.06L118.72,86q-4.34-1.89-8.82-3.5l-3.74-1.3-3,4.93c1.73-3.67.48-1.48,2.24-5.15l-3-.71-5.39-1.18c-1,2.36-2.09,4.71-3.13,7.07V78.66c-1.61-.14-3.22-.29-4.82-.41-5.23-.36-9.71.13-15.07.6q-1.89.24-3.75.54c-.91.16-1.84.32-2.78.5V85L65,80.56l-3.21,1c-1.67.5-3.33,1.07-5,1.62v1.94l-1.33-1.58-8.19,3.67,0,28.36,14.43,1.17.16-.07.15-.07.15-.06.17-.07.15-.06.16-.07.15-.07.15-.07.17-.06.15-.07.16-.06.15-.08.14-.06.17-.07.14-.07.17-.07.15-.06.16-.07.16-.06.15-.08.16,0,.15-.07.17-.07.13-.06,3.39.61,5.07-1.46v-2.34l.26.14a62.13,62.13,0,0,1,16.27-.76h.1l1.1-1.53.72,1.84a95.28,95.28,0,0,1,9.42,2.55l1.47-.4C103.28,114.11,103.31,114.45,103.34,114.81Z"/><path class="cls-7" d="M113.19,105V98.45l1.4.53c-.2-2.38-.38-4.78-.58-7.17l-.82-.33V85q3.07,1.22,6.09,2.56c.54,6.43,1,12.84,1.55,19.28.21,2.51.41,5,.63,7.53-2-.89-4-1.78-5.93-2.68l-.45-5.94Zm-49.57,6.31c-1.22.33-2.45.69-3.69,1.07v-3.18c-2.94,1-5.85,2.15-8.71,3.38l-2.74,1.19V87.94l5.86-2.64v19.36c1.21-.48,2.42-.93,3.67-1.36V84q1.6-.57,3.24-1.08c.87-.27,1.75-.51,2.62-.79v19.37l1.94-.54v9.74q-1.11.28-2.19.6ZM113.19,85v6.5l-.82-.33c-.07.93-.17,1.85-.24,2.78-.11,1.33-.21,2.64-.32,4l1.38.55V105l-1.87-.71q-.22,2.79-.44,5.6L105,108q1.06-12.63,2.17-25.2c1.79.61,3.58,1.24,5.37,1.93l.62.23ZM75,86.23l-.59.07V99.2c1.28-.17,2.55-.29,3.82-.42V96.37c1.48-.09,3-.18,4.45-.23l1.43,0v8.84c-1.95.1-3.88.23-5.82.4l-8.06,1-1.67.27V80.85l1.8-.32c1.22-.19,2.44-.37,3.67-.53l10.08-1V88c-1.19,0-2.37.06-3.55.12-.78,0-1.55.1-2.33.15V85.88c-1.08.11-2.16.22-3.23.35Zm27.62-2.14L98.39,93q2.86,7.35,5.73,14.75l-3.79-.87-2.73-.58-4-10.39-.91-.12v9.76c-1.54-.12-3.06-.27-4.57-.36l-1.32-.08V79.29l1.68.1c1.41.08,2.8.22,4.21.34v9.59l1,.12q2-4.48,4-9c2,.44,4,.88,6.09,1.35C103.33,82.56,103,83.33,102.61,84.09Z"/><path class="cls-8" d="M74.16,81.15l8.77-.81v6.51c-1.18,0-2.36.1-3.54.16v-2.4c-1.8.16-3.59.34-5.39.59l-.76.1v15.25c.94-.15,1.87-.26,2.8-.37,1.11-.13,2.22-.23,3.35-.34V97.46q1.77-.12,3.54-.15v6.53c-2.68.15-5.34.36-8,.7-1.75.2-3.48.47-5.22.76V81.82C71.19,81.57,72.67,81.34,74.16,81.15ZM62.7,83.69c-1.18.34-2.36.73-3.53,1.11v19.33c-1,.32-1.9.66-2.84,1l-3.15,1.24V87.1l-3.55,1.59V112c.39-.16.75-.33,1.12-.47,2.86-1.23,5.73-2.36,8.63-3.37l1.72-.57v3.25c1.18-.36,2.36-.69,3.54-1v-7.32L62.7,103Zm57.44,28.79c-1.18-.52-2.35-1-3.51-1.58-.15-2-.3-4-.45-6-1-.39-2-.78-3-1.15l-.8-.31-2.15-.8c-.14,1.76-.29,3.53-.42,5.31l0,.36-3.56-1.13c.65-7.6,1.3-15.18,2-22.79,1.67.57,3.35,1.2,5,1.86s3,1.23,4.56,1.89l.4.17q.66,8.36,1.34,16.74C119.72,107.54,119.93,110,120.14,112.48Zm-4.26-11.72c-.09-1.37-.2-2.73-.33-4.11-.15-1.86-.28-3.77-.43-5.66l-1.89-.74c-.62-.26-1.25-.5-1.88-.75-.09,1-.18,2-.25,3-.18,2.08-.35,4.14-.53,6.21l2.66,1c.2.08.41.14.62.24ZM97.12,93,102,82.61c-1.23-.28-2.49-.55-3.74-.82-.45,1-.88,2-1.32,3-.87,2-1.76,4-2.64,6l-.85-.13c-.68-.09-1.34-.15-2-.23V80.79c-1.18-.11-2.37-.21-3.55-.28V104c1.18.08,2.37.17,3.55.29V94.5c.31,0,.61.07.92.09.67.06,1.33.15,2,.25l4.07,10.45c1.26.26,2.53.54,3.8.82-1.11-2.85-2.21-5.71-3.34-8.56C98.31,96,97.72,94.48,97.12,93Z"/><path class="cls-3" d="M110.28,126.12a75.53,75.53,0,0,0-50.47,0c.16-3.27.33-9.16.49-12.43a73,73,0,0,1,49.49,0C110,117,110.11,122.85,110.28,126.12Z"/><path class="cls-1" d="M63.36,113.66c1-.31,2-.61,3.07-.88.26,1.37.52,2.74.79,4.11h0c.44-1.55.86-3.09,1.28-4.62,1-.23,2-.45,3-.64l-.21,7.75c-.75.14-1.5.29-2.25.46l.18-5.73h0q-.86,3-1.72,6.08l-1.36.34Q65.57,117.76,65,115s0,0,0,0l-.24,5.93c-.57.16-1.14.33-1.7.51Z"/><path class="cls-1" d="M75.67,110.83c2.64-.33,3.43,1.69,3.41,3.65s-.87,4-3.56,4.39-3.44-1.5-3.39-3.49S73,111.18,75.67,110.83Zm-.12,6.6c1-.13,1.06-1.19,1.09-2.71s0-2.59-1-2.46-1,1.21-1.09,2.73S74.5,117.57,75.55,117.43Z"/><path class="cls-1" d="M83.85,113.09c0-.52-.14-1.42-1-1.4s-1.1,1.2-1.11,2.63c0,1.59.07,2.57,1.14,2.53.83,0,1-.6,1.08-1.57.66,0,1.32.09,2,.15,0,1.7-1.17,2.8-3.16,2.86-2.78.1-3.5-1.81-3.48-3.83,0-1.84.77-4.1,3.51-4.2A2.71,2.71,0,0,1,86,113.08Z"/><path class="cls-1" d="M86.79,110.4l2.26.09c0,1.11,0,2.22,0,3.33h0l2.16-3.18c.74.06,1.47.14,2.21.22l-1.94,2.35q1,2.69,2,5.38c-.74-.08-1.49-.16-2.23-.22-.43-1.15-.86-2.3-1.28-3.44h0l-.94,1.16c0,.71,0,1.42,0,2.12l-2.29-.09Z"/><path class="cls-1" d="M94,110.92c1.24.16,2.49.34,3.73.56,1.61.28,2.6,1.29,2.64,2.35a1.45,1.45,0,0,1-1.61,1.49v0a2.6,2.6,0,0,1,1.88,2.28c0,1.31-1.08,1.88-2.85,1.57-1.22-.21-2.44-.39-3.65-.54C94.06,116.08,94,113.5,94,110.92Zm2.31,3.38.73.12c.82.13,1.12-.19,1.1-.65,0-.74-.58-1-1.08-1l-.79-.13C96.25,113.17,96.26,113.73,96.28,114.3Zm.07,3.24.83.13c.49.08,1.12,0,1.1-.78a1.22,1.22,0,0,0-1.15-1.16l-.82-.13C96.32,116.25,96.33,116.89,96.35,117.54Z"/><path class="cls-1" d="M102.45,112.48c1,.23,1.93.49,2.89.77.72,2.77,1.45,5.54,2.18,8.33-.74-.23-1.49-.46-2.24-.67-.13-.56-.27-1.11-.41-1.67-.67-.18-1.36-.37-2-.53l-.33,1.47q-.93-.23-1.86-.42C101.26,117.32,101.86,114.9,102.45,112.48Zm.64,4.93,1.42.37-.75-3.33h0C103.52,115.43,103.31,116.42,103.09,117.41Z"/></svg>