<svg id="Layer_1" data-name="Layer 1" xmlns="http://www.w3.org/2000/svg" viewBox="0 0 170.08 113.39"><defs><style>.cls-1{fill:#1d1d1b;}</style></defs><title>maritec</title><path class="cls-1" d="M106.62,57.46a6.54,6.54,0,0,0,4-6.07v0a6.54,6.54,0,0,0-.76-3.06l-.05-.09-.06-.11A6.26,6.26,0,0,0,109,47c-.09-.11-.19-.22-.29-.32l-.18-.17-.15-.13,0,0-.22-.17h0l-.23-.16a6.72,6.72,0,0,0-2.41-1,10,10,0,0,0-2.26-.24H95.54V65h4.2V58.31h2.64L106.11,65h4.81Zm-.48-5.92v0c0,1.82-1.16,3-3.3,3h-3.1v-6.1h3C104.9,48.51,106.14,49.52,106.14,51.54Z"/><path class="cls-1" d="M26,81.07A23.76,23.76,0,0,1,7.17,71.9a6.65,6.65,0,0,0,2.55.49,7.07,7.07,0,0,0,1.83-.24,20.83,20.83,0,0,0,29.05,0,8.74,8.74,0,0,0,1.71.23,6.69,6.69,0,0,0,2.59-.52A23.71,23.71,0,0,1,26,81.07Z"/><path class="cls-1" d="M15.84,65.17v-.3h0V46.54a2,2,0,0,1,4.07,0l0,5.79V64.88a6.09,6.09,0,1,0,12.17,0V52.33s0-5.65,0-5.74v-.05a2,2,0,0,1,4.07.05l.06,5.73V64.87c0,.09,0,.18,0,.27A6.1,6.1,0,0,0,40.58,71h0l.06,0a9.56,9.56,0,0,0,1.55.23h.11a6.08,6.08,0,0,0,5.35-3.17l0-.07.09-.17a24.44,24.44,0,1,0-43.73-.33,5.6,5.6,0,0,0,.49.94,6.11,6.11,0,0,0,11.29-3.26ZM11.82,47V64.84s0,.19,0,.3a2.07,2.07,0,0,1-2.08,2,2,2,0,0,1-1.56-.73c-.14-.26-.28-.52-.41-.79s-.25-.54-.37-.81a20,20,0,0,1-1.67-8.09,20.34,20.34,0,1,1,39,8.12c-.14.33-.3.66-.46,1-.08.16-.18.31-.25.48,0,0,0,0,0,.07l0-.07a2.07,2.07,0,0,1-3.76-1.17v-.29h0V46.54h0a6.1,6.1,0,0,0-12.19.05l0,12.55,0,5.73a2,2,0,0,1-4.09,0V46.54a6.09,6.09,0,0,0-12.18,0v.05A3.24,3.24,0,0,0,11.82,47Z"/><path class="cls-1" d="M40.59,71l.06,0-.06,0Z"/><path class="cls-1" d="M42.31,71.23h0Z"/><path class="cls-1" d="M162.39,61.48a6.43,6.43,0,1,1,3.31-11.95l2.66-2.66a10.33,10.33,0,1,0,.15,16.23l-2.65-2.64A6.42,6.42,0,0,1,162.39,61.48Z"/><path class="cls-1" d="M54.57,44.58H59l4.51,8.22,4.46-8.22h4.42V64.83H68.25V51.9l-4.77,8.36h-.09L58.65,52V64.83H54.57Z"/><path class="cls-1" d="M82.06,44.53h4L93.31,64.9H89l-1.5-4.4h-7L79,64.9H74.8ZM86.2,56.8,84,50.2l-2.23,6.6Z"/><path class="cls-1" d="M113.6,44.78h4.19V65H113.6Z"/><path class="cls-1" d="M125.27,48.73h-5.09V44.85h14.34v3.88h-5.09V65.1h-4.16Z"/><path class="cls-1" d="M136.59,44.92h13V48.7h-8.88v4.37h7.81v3.79h-7.81v4.51h9v3.79H136.59Z"/></svg>