<svg id="Layer_1" data-name="Layer 1" xmlns="http://www.w3.org/2000/svg" viewBox="0 0 170.08 113.39"><defs><style>.cls-1{fill:#1d1d1b;}</style></defs><title>var</title><path class="cls-1" d="M134.79,62.33c-.11.39-.15.78-.24,1.17,0,.06-.2.82-.13.81-.24,0-1,.15-1.11,0,.37-.21.43-1,.5-1.4a15.81,15.81,0,0,1,.47-1.92c.79-2.5,2.29-5,2.14-7.65-.09-1.55-.95-2-2.07-2.9s-1.59-3.9-1.5-5.12c0-.53,0-1,.06-1.57,0-.27,0-.55.05-.81s.16-.49.18-.75a4.12,4.12,0,0,1,.25-1.11,3.78,3.78,0,0,1,1.07-1.79c.51-.42,1.56.24,1.89.57a7.14,7.14,0,0,1,1.43,2,11.3,11.3,0,0,1,.95,5.13,15,15,0,0,1-1.11,4.37,4.15,4.15,0,0,0-.33,1.62c.28-.7.84-1.23,1.14-1.94a16,16,0,0,1,.87-2.1,7.5,7.5,0,0,0,.91-2.41c.15-1-.36-1.91-.43-2.88a12,12,0,0,1,3.5-9.93c1.31-1.25,3-2.79,4.92-2.95,2.77-.23,1.91,6.82,1.12,8.51a18.43,18.43,0,0,1-3,5.18,8.76,8.76,0,0,1-3.59,2.43c-.86.29-1.53.28-2,1.14-.23.47-1,1.48-.92,2-.08-.31,3.4-2.24,3.73-2.52,2-1.81,6.12-1.92,8.3-.56.9.54,2.23,1.29,2.5,2.39.16.65-1.74.37-2.12.57-2.09,1.09-3.8,2.29-6.23,2.43-1.39.1-3.21.49-4.44-.4-2.84-2.05-3.67,2.28-4.3,4.14-.48,1.43-1.15,2.76-1.73,4.14A16.37,16.37,0,0,0,134.79,62.33Z"/><path class="cls-1" d="M89.38,89.46H84.24L74.57,63.21h6.9l5.35,16.22L92.1,63.21H99Z"/><path class="cls-1" d="M112.86,89.46V87.19a8,8,0,0,1-6.44,2.52c-3,0-5.14-.76-6.7-2.32a8.42,8.42,0,0,1-2.17-5.89c0-4.18,2.87-7.61,9-7.61h6.2V72.58c0-2.87-1.41-4.13-4.88-4.13-2.52,0-3.68.6-5,2.17l-4.18-4.08c2.57-2.83,5.08-3.63,9.47-3.63,7.35,0,11.18,3.12,11.18,9.27V89.46Zm-.15-11.09h-5.19c-2.36,0-3.67,1.11-3.67,3s1.21,3,3.78,3c1.81,0,3-.15,4.13-1.26.7-.66.95-1.71.95-3.33Z"/><path class="cls-1" d="M135.33,70.37a4.34,4.34,0,0,0-3.47-1.57c-2,0-4.23,1.51-4.23,4.84V89.46h-6.55V63.21h6.39v2.52a8.89,8.89,0,0,1,6.6-2.82,7.9,7.9,0,0,1,6.2,2.47Z"/><rect class="cls-1" x="88.61" y="33.31" width="6.45" height="26.45"/><path class="cls-1" d="M23.36,59.55C18,59.55,15.7,55.77,15.7,52V23.68h6.55v28c0,1.56.65,2.37,2.31,2.37h2.52v5.54Z"/><path class="cls-1" d="M42.75,59.55V57.28A8,8,0,0,1,36.3,59.8c-3,0-5.14-.75-6.7-2.32a8.39,8.39,0,0,1-2.16-5.89c0-4.18,2.87-7.61,9-7.61h6.2V42.67c0-2.87-1.41-4.13-4.89-4.13a5.64,5.64,0,0,0-5,2.17L28.5,36.63C31.06,33.81,33.58,33,38,33c7.35,0,11.18,3.12,11.18,9.27V59.55ZM42.6,48.47H37.41c-2.37,0-3.68,1.1-3.68,3s1.21,3,3.78,3c1.81,0,3-.15,4.13-1.26.71-.65,1-1.71,1-3.32Z"/><path class="cls-1" d="M59.67,59.55c-5.33,0-7.6-3.78-7.6-7.51v-13H49.3v-5h2.77V26.3h6.55v7.76h4.63v5H58.62V51.64c0,1.51.7,2.37,2.26,2.37h2.37v5.54Z"/><path class="cls-1" d="M78.49,59.55H73.35L63.68,33.3h6.9l5.34,16.23L81.21,33.3h6.9Z"/><path class="cls-1" d="M100.07,59.8H96.34V54.26h2.52c1.66,0,2.32-.81,2.32-2.37V33.31h6.55v19C107.73,56,105.46,59.8,100.07,59.8Z"/><path class="cls-1" d="M124,59.55V57.28a8,8,0,0,1-6.45,2.52c-3,0-5.14-.75-6.7-2.32a8.4,8.4,0,0,1-2.17-5.89c0-4.18,2.87-7.61,9-7.61h6.19V42.67c0-2.87-1.4-4.13-4.88-4.13-2.52,0-3.68.6-5,2.17l-4.18-4.08c2.57-2.82,5.09-3.63,9.47-3.63,7.35,0,11.18,3.12,11.18,9.27V59.55Zm-.16-11.08h-5.18c-2.37,0-3.68,1.1-3.68,3s1.21,3,3.78,3c1.81,0,3-.15,4.13-1.26.7-.65,1-1.71,1-3.32Z"/><path class="cls-1" d="M95.2,28a3.35,3.35,0,1,1-3.34-3.35A3.34,3.34,0,0,1,95.2,28Z"/><path class="cls-1" d="M107.73,28a3.35,3.35,0,1,1-3.35-3.35A3.35,3.35,0,0,1,107.73,28Z"/><path class="cls-1" d="M147.77,79.47a.92.92,0,0,1-.88.87h-3a.91.91,0,0,1-.87-.87l-1.37-22.89a.79.79,0,0,1,.77-.87h6a.78.78,0,0,1,.76.87Z"/><path class="cls-1" d="M148.73,86.11a3.35,3.35,0,1,1-3.34-3.34A3.35,3.35,0,0,1,148.73,86.11Z"/></svg>