<svg id="Layer_1" data-name="Layer 1" xmlns="http://www.w3.org/2000/svg" viewBox="0 0 170.08 113.39"><defs><style>.cls-1{fill:#010000;}.cls-2{fill:#1d1d1b;}</style></defs><title>zivtina</title><path class="cls-1" d="M68.52,72.67a2.2,2.2,0,0,0,.62-2.32c-.11-.57-2.7.18-2.59,1.45C66.63,72.84,67.51,73.69,68.52,72.67Z"/><path class="cls-1" d="M90.49,69.55c.08.38.4.76,1.86,1.41.56.25,1.19-1.79,0-2.44C91.44,68,90.21,68.19,90.49,69.55Z"/><path class="cls-2" d="M132.53,53.34c2.15-2.42,4.83-7.74,5.39-16.91a52.92,52.92,0,0,0-.55-12.25c-.46-2.39-3.55-15.7,1-9.67,3.95,5.22,4.56,7.17,6.49,13.28,1.11,3.52,1.25,8.54,2.15,10.67,1.84,4.35,6,.25,7-7.38.51-3.78,1.23-5.84,3.29,1.76.85,3.11.56,10.7-4.23,16.73-5.59,7-13.09,9.06-22.41,10.26C122.92,60.82,129.49,56.77,132.53,53.34Zm-22.16,23c0-.47.08-.61.59-.87s1.34-.48,1.7.2a4.27,4.27,0,0,1,.43,2c0,.29-.2.72-.43.29a2.15,2.15,0,0,0-1.11-.88c-.32-.07-1.12-.26-1.18-.7ZM54,53.66c.54-.92,4.67-.61,6.83-2.61,1.2-1.11-2.19-2.13-2.89-2.37,1.33-3.81,8.59-7.72,7.4-11.18-.76-2.26-16,2.56-20.2,4.85-3,1.61.65,1.38,2,1.2a61.48,61.48,0,0,0,7.32-1.72c1.52-.36,4.28-1.23,4.28-.56,0,2.8-5.2,6.89-5.53,7.32s-.79.59-1.66.78c-2.9.57-5.37,2.13-6,3.12-.9,1.49,3.3,1.87,3.55,1.79s-1,2.86-1.16,3.13a24.45,24.45,0,0,0-2.84,10.4c.07,1.43,2.8.4,4.13-.38a25.33,25.33,0,0,1,6.95-2.3c2-.26,8.87.17,7.64-1.19-.78-.87-4.09-2.09-6.59-2.24-1.67-.1-4.56.53-5.9-.28-.51-.31,0-1.8.27-2.71A26.52,26.52,0,0,1,54,53.66Zm63.29,3.74a13.41,13.41,0,0,1-7.86-3.74,15.94,15.94,0,0,1-2.74-5.92c-.06-.78-.87-.65-1.28-.08-2.15,3.11-4.63,5.33-6.36,5.82-1.34.37-1.87-2.53-1.92-3.7a4,4,0,0,1,3.74-4.44c1.6,0,3.6,2.27,3.93,1.88.79-.94-1.1-3.84-2.75-4.2a5.89,5.89,0,0,0-6.21,2.83c-.81,1.37-1.22,4.48-3.15,4.85-2.13.39-2.13-4.19-1.86-5.44.3-1.41,5.69-2,5.22-3.09-.59-1.41-5,0-4.63-1.88.3-1.58,3.45-3.73,2.46-3.82a6,6,0,0,0-3.54,1.58,7.36,7.36,0,0,0-2,2.91c-.42,1.19-3.53,1.29-3.84,2.24s2.75.75,2.57,1.87A25.24,25.24,0,0,0,87.06,52a1,1,0,0,1-.29.82c-4.59,6.25-7.85-1.22-5.84-5.32,1.57-3.2,1.8-3.91,3.64-7.52a4.68,4.68,0,0,0-.6-5.53C82.25,33,78.38,35.28,76.7,39c-2.76,6.08-.62,11.82-.62,12.74,0,1.4-6.17,5.61-8.27,4.62s2.06-2,4.16-6.89c1.75-4.05,1.35-9.46-1.67-9.68-3.28-.26-7.48,5.1-7.74,12.32a15.13,15.13,0,0,0,1,6.74c.84,1.92,1.94,2.65,3.41,2.24,3.38-1,5.83-2.37,8.89-6.76.17-.25.9-1.1,1-.66.42,2.3,2.56,5.71,4.83,5.62s5.17-4.91,5.3-5.15.35-.51.5-.07c1.88,5.36,5.7-2.18,6.92-2.14.59,2,1,6.46,3.36,6.23,2.13-.21,3.45-2.58,4.51-3.8.29-.34,2.55-3.26,2.46-2.42a6.44,6.44,0,0,0,2,5.18c2.1,1.9,6.59,2,8.93,2,1.28,0,6.49.19,7.09-.37S118.54,57.53,117.32,57.4ZM78.57,46.76c-.36.26-1-.11-1-1.6a11.32,11.32,0,0,1,.79-5.22c.73-1.77,2.85-3.74,3.83-3.56,1.22.23.21,3.56-.49,4.76C81.27,41.91,79.64,45.91,78.57,46.76Zm-12.7,5.68c-1.77-.83,2.07-10.78,4.13-9.52,1.38.84-.77,5.24-1.48,6.59C68,50.44,66.42,52.83,65.87,52.44Zm.29,19.36c-.1-1.27,2.49-2,2.59-1.45a2.13,2.13,0,0,1-.61,2.32C67.14,73.69,66.24,72.84,66.16,71.8ZM44.92,77.4c-1.57-.19,4.34-5.69,6.49-6.92,3.09-1.73,7.89-3.21,10.82-2.62,1.38.29-2.93,9.31-4.1,11.82-.22.46,0,.56.23.61a11.94,11.94,0,0,0,3.82.09c2.15-.17,2.94-5.72,4.84-5.72,1,.06.45,3.87-.06,6.89-.43,2.46-1.09,13.51,3.4,8.75,2.07-2.22.2-4.94.2-7,0-1-.13-5.35,1.19-4.23,2.61,2.25,1.3,6.49,5.49,10.4,2.37,2.32,2.28.12,2.24-.67-.09-3.12-2.48-6.29-3-7.74-.66-1.79-1.7-6-.53-5.35,1.36.8,3.36,4.11,4.1,5.39,1,1.69,4.57,11.8,1.12,12.76-2.17.61-6-.41-8-2.82a.23.23,0,0,0-.4.09,3.44,3.44,0,0,1-.94,1.58c-3.26,2.84-4.63,1.61-6.46,0-2.67-2.3-3.71-6.59-3-9.94a19.1,19.1,0,0,0-6,1.75c-1.43.56-3.47,8,1.26,9.9,8.22,3.27,13.17,1.26,13.17,1.31.13,1.74-9.09,3.91-15.14,2.06s-6.89-7.57-4.7-12.15c.19-.39.07-.6-.23-.63-1.24-.12-4-1.24-3.93-2.24.07-1.31,4.18-2.47,6-2.58,1.12-.06,1.17-.49,1.81-1.58a16.66,16.66,0,0,0,2.1-4.75c.29-1.14-.39-1.31-1.28-.75C53.51,74.26,46.49,77.59,44.92,77.4ZM81.58,61.64c2.17-2.37.19,2.74.6,4.23s3.08-.24,5.37-.74c5.9-1.29,7.41-.81,0,2.73-.9.44-4.2,2.13-4.59,3.5s1.11,7,2.56,8.91c1.33,1.8,3.34,4.58,5.64,4.36,1.31-.12,4.39-1.94,4.46-4a8.52,8.52,0,0,0-1.71-4.07,9,9,0,0,1-1.77-4.4c0-1.76,2.71.84,3.54,1.78,1.57,1.77,2.49,4.83,5.51,4.83,1,0,1.6-2.47.87-4.15a6,6,0,0,0-2.94-3.19c-1-.42-1.53-1.29-1-1.39.78-.12,2.09.26,2.94,0a19.27,19.27,0,0,1,2.57-1.11,8.84,8.84,0,0,1,5.14.56c2.57,1,5.72,3.26,8.89,1.49.29-.17.44-.34.18-.48s-4.8.08-4.15-4.18c.17-1.11,1.11-2.82,4-3.4,1.42-.28,4.14.23,3.48.61-1.5.85-4.37,1.17-4.87,2.56-.82,2.33,1.83,3.36,3.84,1.77,1.56-1.2,1.58-4.18,2.42-4.74,1.33-.87,3,.31,7.35.22,3.89-.1,7.72-1.36,7.41-.67s-3.7,2.28-7.05,3a11,11,0,0,1-6.11-.34c-.2-.07-.31,0-.33.17a4.77,4.77,0,0,1-1.23,4.18,29.5,29.5,0,0,1-2.33,2.13,9.07,9.07,0,0,1-7.53,1.51c-1-.3-7-2.59-7.69-1.63-.36.51,2.26,2.71,2.92,3.95,2.71,5-2.36-.15-3.74,1.06-1,.84.37,4.58-.91,4.91-2.36.63-5-.74-5.44.25a44.65,44.65,0,0,1-4.14,6.55c-2.49,2.61-4,3.28-7.35.24-2.23-2-3.41-4.17-4.66-7.47a50.26,50.26,0,0,1-2.32-8.69c-.29-1.77-5.41.18-5-1.09.62-1.77,4.24-2.89,4.45-3.74A9.6,9.6,0,0,1,81.58,61.64ZM92,68.52c1.16.65.52,2.69,0,2.44-1.47-.65-1.78-1-1.87-1.41C89.82,68.19,91.06,68,92,68.52ZM42.12,48c-.81,11-5.81,34.89,5.65,48.9.74.92,1.39,2.41-1.71,2.83s-7.49.27-17.15-1.89a35.12,35.12,0,0,1-9.68-4c-1.58-1,5.34-4.7,2-6.59-1.07-.62-2.66.38-8.1-1-1.41-.35-.6-3.86-.18-6.08a45.77,45.77,0,0,1,5.9-15.56A49.86,49.86,0,0,1,29.76,51.22c4.56-3.7,7.69-5.74,9.78-7.2C42.45,42,42.12,48,42.12,48ZM35.7,77.42c.7-6-1.14-10.76-4.11-10.58-2.56.15-5.13,3.92-6.23,8.81a2,2,0,0,1,.91-.29c1.64-.11,3.06,1.9,3.19,4.48s-1.08,4.73-2.71,4.83a2.24,2.24,0,0,1-1.6-.62c.62,2.88,2,4.72,3.9,4.61,3-.2,5.94-5.23,6.65-11.24Z"/></svg>