<svg id="Layer_1" data-name="Layer 1" xmlns="http://www.w3.org/2000/svg" viewBox="0 0 165.89 165.89"><defs><style>.cls-1{fill:#25c4ff;opacity:0.25;}.cls-2{fill:#fff;}</style></defs><title>ico-6</title><circle class="cls-1" cx="82.94" cy="82.94" r="78.8"/><path class="cls-2" d="M46.8,114.5v-11h4.46a4,4,0,0,1,2.67.83,3.18,3.18,0,0,1,0,4.54,3.91,3.91,0,0,1-2.66.84h-3v4.78Zm1.42-5.94h2.9a2.68,2.68,0,0,0,1.78-.51,2,2,0,0,0,0-2.88,2.74,2.74,0,0,0-1.78-.5h-2.9Z"/><path class="cls-2" d="M59.45,114.61a3.3,3.3,0,0,1-1.79-.48,3.25,3.25,0,0,1-1.22-1.39,5,5,0,0,1-.43-2.13,4.91,4.91,0,0,1,.44-2.13,3.46,3.46,0,0,1,1.22-1.42,3.1,3.1,0,0,1,1.78-.52,3,3,0,0,1,1.79.52,2.52,2.52,0,0,1,1,1.47l-.19.11v-1.9h1.39v7.76H62.06v-1.94l.19.08a2.54,2.54,0,0,1-1,1.45A3,3,0,0,1,59.45,114.61Zm.31-1.14a2.06,2.06,0,0,0,1.71-.75,3.41,3.41,0,0,0,.59-2.14,3.32,3.32,0,0,0-.6-2.13,2.29,2.29,0,0,0-3.41,0,3.34,3.34,0,0,0-.62,2.14,3.25,3.25,0,0,0,.62,2.12A2.11,2.11,0,0,0,59.76,113.47Z"/><path class="cls-2" d="M68.47,114.61a4.72,4.72,0,0,1-3.17-1l.45-1a4.29,4.29,0,0,0,1.29.7,4.62,4.62,0,0,0,1.47.23,2.38,2.38,0,0,0,1.28-.29.94.94,0,0,0,.44-.83.85.85,0,0,0-.3-.68,2.63,2.63,0,0,0-1-.43l-1.3-.31a2.85,2.85,0,0,1-1.53-.77,1.85,1.85,0,0,1-.53-1.34,2,2,0,0,1,.37-1.2,2.61,2.61,0,0,1,1.06-.83,4,4,0,0,1,1.61-.3,4.71,4.71,0,0,1,1.55.26,3.45,3.45,0,0,1,1.24.76l-.45,1a4,4,0,0,0-1.14-.69,3.38,3.38,0,0,0-1.22-.22,2.11,2.11,0,0,0-1.23.31,1,1,0,0,0-.44.83.94.94,0,0,0,.28.71,2,2,0,0,0,.88.42l1.31.32A3.18,3.18,0,0,1,71,111a1.85,1.85,0,0,1,.52,1.36,1.9,1.9,0,0,1-.83,1.63A3.71,3.71,0,0,1,68.47,114.61Z"/><path class="cls-2" d="M76.45,114.61a3.36,3.36,0,0,1-1.8-.48,3.29,3.29,0,0,1-1.21-1.39,4.85,4.85,0,0,1-.43-2.13,4.77,4.77,0,0,1,.44-2.13,3.46,3.46,0,0,1,1.22-1.42,3.08,3.08,0,0,1,1.78-.52,3,3,0,0,1,1.79.52,2.51,2.51,0,0,1,1,1.47l-.18.11v-1.9h1.39v7.76H79.06v-1.94l.18.08a2.53,2.53,0,0,1-1,1.45A3,3,0,0,1,76.45,114.61Zm.31-1.14a2,2,0,0,0,1.7-.75,4.1,4.1,0,0,0,0-4.27,2.3,2.3,0,0,0-3.42,0,3.34,3.34,0,0,0-.61,2.14,3.25,3.25,0,0,0,.61,2.12A2.15,2.15,0,0,0,76.76,113.47Zm-2.15-8.8v-1h4.71v1Z"/><path class="cls-2" d="M82.79,114.5V103.14H84.2V114.5Zm5.25,0-4.12-4,3.83-3.78h1.76l-4.26,4.15.06-.82,4.54,4.41Z"/><path class="cls-2" d="M93.63,114.61a2.7,2.7,0,0,1-2.11-.78,3.34,3.34,0,0,1-.7-2.31v-4.78h1.4v4.77a2.21,2.21,0,0,0,.41,1.47,1.58,1.58,0,0,0,1.26.47,2.07,2.07,0,0,0,1.59-.64,2.37,2.37,0,0,0,.6-1.7v-4.37H97.5v7.76H96.13v-1.66l.18-.08a2.52,2.52,0,0,1-1,1.38A2.9,2.9,0,0,1,93.63,114.61Z"/><path class="cls-2" d="M99.83,114.5v-5.58c0-.36,0-.73,0-1.09a9.81,9.81,0,0,0-.1-1.09H101l.14,1.59-.16.08a2.55,2.55,0,0,1,1-1.38,2.69,2.69,0,0,1,1.63-.49,2.55,2.55,0,0,1,1.75.55,2.77,2.77,0,0,1,.79,1.7l-.37-.23a2.66,2.66,0,0,1,1-1.47,2.85,2.85,0,0,1,1.77-.55,2.44,2.44,0,0,1,2,.77,3.58,3.58,0,0,1,.64,2.33v4.86h-1.4v-4.8a2.58,2.58,0,0,0-.36-1.52,1.38,1.38,0,0,0-1.17-.48,1.82,1.82,0,0,0-1.48.64,2.62,2.62,0,0,0-.54,1.75v4.41H104.8v-4.8a2.5,2.5,0,0,0-.37-1.52,1.37,1.37,0,0,0-1.17-.48,1.83,1.83,0,0,0-1.49.64,2.67,2.67,0,0,0-.53,1.75v4.41Z"/><path class="cls-2" d="M116.24,114.61a2.71,2.71,0,0,1-2.11-.78,3.39,3.39,0,0,1-.7-2.31v-4.78h1.41v4.77a2.15,2.15,0,0,0,.41,1.47,1.54,1.54,0,0,0,1.25.47,2.07,2.07,0,0,0,1.59-.64,2.33,2.33,0,0,0,.61-1.7v-4.37h1.42v7.76h-1.38v-1.66l.19-.08a2.54,2.54,0,0,1-1,1.38A2.9,2.9,0,0,1,116.24,114.61Z"/><path class="cls-2" d="M39,133.14a3.78,3.78,0,0,1-2-.5,3.35,3.35,0,0,1-1.31-1.4,4.58,4.58,0,0,1-.46-2.13,4.65,4.65,0,0,1,.46-2.14A3.37,3.37,0,0,1,37,125.56a4.13,4.13,0,0,1,3.94,0,3.35,3.35,0,0,1,1.3,1.41,4.65,4.65,0,0,1,.46,2.14,4.58,4.58,0,0,1-.46,2.13,3.32,3.32,0,0,1-1.3,1.4A3.78,3.78,0,0,1,39,133.14ZM39,132a2.09,2.09,0,0,0,1.72-.73,3.34,3.34,0,0,0,.6-2.15,3.3,3.3,0,0,0-.61-2.15,2.11,2.11,0,0,0-1.71-.74,2.08,2.08,0,0,0-1.69.74,3.3,3.3,0,0,0-.62,2.15,3.34,3.34,0,0,0,.6,2.15A2.08,2.08,0,0,0,39,132Z"/><path class="cls-2" d="M44.62,133v-5.59c0-.36,0-.72,0-1.09s-.05-.73-.1-1.09h1.32l.17,1.93-.17-.06a2.41,2.41,0,0,1,.92-1.54,2.73,2.73,0,0,1,1.61-.51l.4,0,.33.07,0,1.28a2.54,2.54,0,0,0-.86-.14,2.2,2.2,0,0,0-1.27.34,2,2,0,0,0-.69.87,2.8,2.8,0,0,0-.22,1.12V133Z"/><path class="cls-2" d="M53.6,136.47a5.81,5.81,0,0,1-3.08-.79l.24-1.12a7.22,7.22,0,0,0,1.38.6,5.56,5.56,0,0,0,1.46.18,2.19,2.19,0,0,0,1.66-.58,2.35,2.35,0,0,0,.57-1.72V131l.17-.15a2.86,2.86,0,0,1-.58,1,2.65,2.65,0,0,1-1,.69,3.3,3.3,0,0,1-1.29.25,3.43,3.43,0,0,1-1.81-.49A3.26,3.26,0,0,1,50.14,131a4.88,4.88,0,0,1,0-4.05,3.29,3.29,0,0,1,1.22-1.36,3.34,3.34,0,0,1,1.81-.49,3.05,3.05,0,0,1,1.81.53A2.59,2.59,0,0,1,56,127l-.19-.12v-1.66h1.4v7.66a3.54,3.54,0,0,1-.91,2.66A3.76,3.76,0,0,1,53.6,136.47Zm-.12-4.83a2.13,2.13,0,0,0,1.71-.72,3.49,3.49,0,0,0,0-4,2.1,2.1,0,0,0-1.71-.73,2.16,2.16,0,0,0-1.73.73,3.46,3.46,0,0,0,0,4A2.21,2.21,0,0,0,53.48,131.64Z"/><path class="cls-2" d="M62.52,133.14a3.36,3.36,0,0,1-1.79-.49,3.25,3.25,0,0,1-1.22-1.39,5,5,0,0,1-.43-2.12,4.85,4.85,0,0,1,.44-2.13,3.5,3.5,0,0,1,1.22-1.43,3.12,3.12,0,0,1,1.78-.52,3.06,3.06,0,0,1,1.8.52,2.59,2.59,0,0,1,1,1.47l-.19.11v-1.9h1.39V133H65.13v-1.95l.19.08a2.6,2.6,0,0,1-1,1.46A3.13,3.13,0,0,1,62.52,133.14Zm.31-1.15a2.06,2.06,0,0,0,1.71-.75,4.13,4.13,0,0,0,0-4.27,2.29,2.29,0,0,0-3.41,0,3.38,3.38,0,0,0-.62,2.15,3.22,3.22,0,0,0,.62,2.11A2.08,2.08,0,0,0,62.83,132Z"/><path class="cls-2" d="M68.87,133v-5.59c0-.36,0-.72,0-1.09s0-.73-.1-1.09h1.32l.14,1.59-.15.1a2.7,2.7,0,0,1,1.09-1.4,3,3,0,0,1,1.72-.49c1.86,0,2.79,1,2.79,3.11V133h-1.4v-4.79a2.35,2.35,0,0,0-.41-1.53,1.61,1.61,0,0,0-1.31-.49,2.17,2.17,0,0,0-1.65.64,2.39,2.39,0,0,0-.62,1.72V133Z"/><path class="cls-2" d="M77.84,121.91h1.65v1.53H77.84ZM78,133v-7.77h1.41V133Z"/><path class="cls-2" d="M81.31,133v-1l5.17-6.22.2.51H81.46v-1.08h6.29v1l-5.17,6.21-.16-.53h5.5V133Z"/><path class="cls-2" d="M96,132.12a3.47,3.47,0,0,1-1.31.75,5.07,5.07,0,0,1-1.63.27,4.29,4.29,0,0,1-2.1-.48,3.29,3.29,0,0,1-1.36-1.38,5,5,0,0,1,0-4.27,3.56,3.56,0,0,1,1.31-1.43,3.49,3.49,0,0,1,1.91-.52,3.35,3.35,0,0,1,1.8.47,2.87,2.87,0,0,1,1.14,1.31,5,5,0,0,1,.39,2v.25H90.33v-.87h5l-.43.56a3.11,3.11,0,0,0-.51-2,1.88,1.88,0,0,0-1.57-.69,2,2,0,0,0-1.7.76,3.38,3.38,0,0,0-.6,2.14,3.33,3.33,0,0,0,.64,2.23,2.41,2.41,0,0,0,1.92.75,4,4,0,0,0,1.29-.22,4,4,0,0,0,1.18-.68Zm-5.55-8.93v-1h4.71v1Z"/><path class="cls-2" d="M100.64,133.14a4.71,4.71,0,0,1-3.17-1l.45-1a4.33,4.33,0,0,0,1.29.71,4.62,4.62,0,0,0,1.47.22,2.38,2.38,0,0,0,1.28-.29.92.92,0,0,0,.44-.82.86.86,0,0,0-.3-.69,2.55,2.55,0,0,0-1-.42l-1.3-.31a2.92,2.92,0,0,1-1.53-.77,1.86,1.86,0,0,1-.54-1.35,2,2,0,0,1,.38-1.2,2.61,2.61,0,0,1,1.06-.83,4,4,0,0,1,1.61-.3,4.71,4.71,0,0,1,1.55.26,3.45,3.45,0,0,1,1.24.76l-.45,1a4.24,4.24,0,0,0-1.14-.68,3.39,3.39,0,0,0-1.22-.23,2.19,2.19,0,0,0-1.23.31,1,1,0,0,0-.44.84,1,1,0,0,0,.28.71,2.06,2.06,0,0,0,.88.41l1.31.33a3.18,3.18,0,0,1,1.64.76,1.87,1.87,0,0,1,.52,1.37,1.91,1.91,0,0,1-.83,1.63A3.78,3.78,0,0,1,100.64,133.14Zm1.2-12h1.25l-1.87,3.17h-.94l-1.87-3.17h1.25l1.1,2.18Z"/><path class="cls-2" d="M108.62,133.14a3.37,3.37,0,0,1-1.8-.49,3.23,3.23,0,0,1-1.21-1.39,4.83,4.83,0,0,1-.44-2.12,4.71,4.71,0,0,1,.45-2.13,3.41,3.41,0,0,1,1.21-1.43,3.13,3.13,0,0,1,1.79-.52,3,3,0,0,1,1.79.52,2.54,2.54,0,0,1,1,1.47l-.18.11v-1.9h1.39V133h-1.39v-1.95l.18.08a2.55,2.55,0,0,1-1,1.46A3.1,3.1,0,0,1,108.62,133.14Zm.31-1.15a2,2,0,0,0,1.7-.75,4.07,4.07,0,0,0,0-4.27,2,2,0,0,0-1.69-.75,2.1,2.1,0,0,0-1.72.77,3.38,3.38,0,0,0-.62,2.15,3.22,3.22,0,0,0,.62,2.11A2.1,2.1,0,0,0,108.93,132Z"/><path class="cls-2" d="M115,133v-5.59c0-.36,0-.72,0-1.09s0-.73-.1-1.09h1.33l.13,1.59-.15.1a2.75,2.75,0,0,1,1.09-1.4,3,3,0,0,1,1.72-.49c1.86,0,2.79,1,2.79,3.11V133h-1.4v-4.79a2.35,2.35,0,0,0-.41-1.53,1.6,1.6,0,0,0-1.31-.49,2.18,2.18,0,0,0-1.65.64,2.38,2.38,0,0,0-.61,1.72V133Z"/><path class="cls-2" d="M127,133.14a3.37,3.37,0,0,1-1.8-.49,3.23,3.23,0,0,1-1.21-1.39,5.41,5.41,0,0,1,0-4.25,3.43,3.43,0,0,1,1.22-1.43,3.1,3.1,0,0,1,1.78-.52,3,3,0,0,1,1.79.52,2.56,2.56,0,0,1,1,1.47l-.19.11v-1.9H131V133h-1.39v-1.95l.19.08a2.57,2.57,0,0,1-1,1.46A3.07,3.07,0,0,1,127,133.14Zm.31-1.15a2.06,2.06,0,0,0,1.71-.75,4.13,4.13,0,0,0,0-4.27,2.29,2.29,0,0,0-3.41,0,3.38,3.38,0,0,0-.62,2.15,3.22,3.22,0,0,0,.62,2.11A2.08,2.08,0,0,0,127.34,132Z"/><path class="cls-2" d="M109.62,47.33a2,2,0,1,0,2,2,2,2,0,0,0-2-2m0,6.39A4.41,4.41,0,1,1,114,49.31a4.39,4.39,0,0,1-4.36,4.41"/><path class="cls-2" d="M115.58,61.13,113.43,60a4.25,4.25,0,1,0-8-1.88,4.39,4.39,0,0,0,.43,1.89l-2.15,1.07a6.87,6.87,0,0,1-.68-3,6.64,6.64,0,1,1,13.27,0,6.88,6.88,0,0,1-.68,3"/><polygon class="cls-2" points="109.48 72.43 103.66 61.08 105.78 59.96 109.53 67.27 113.46 59.97 115.57 61.14 109.48 72.43"/><path class="cls-2" d="M50.58,69.55a2,2,0,1,0,2,2,2,2,0,0,0-2-2m0,6.39a4.41,4.41,0,1,1,4.36-4.41,4.39,4.39,0,0,1-4.36,4.41"/><path class="cls-2" d="M44.62,83.34a6.89,6.89,0,0,1-.67-3,6.69,6.69,0,0,1,6.64-6.72,6.58,6.58,0,0,1,5.29,2.67L54,77.8a4.16,4.16,0,0,0-3.38-1.7,4.26,4.26,0,0,0-4.24,4.28,4.47,4.47,0,0,0,.43,1.9Z"/><path class="cls-2" d="M63.7,69.55a2,2,0,1,0,2,2,2,2,0,0,0-2-2m0,6.39a4.41,4.41,0,1,1,4.35-4.41,4.39,4.39,0,0,1-4.35,4.41"/><path class="cls-2" d="M60.24,77.92l-2-1.4a6.58,6.58,0,0,1,10.86,0l-2,1.39a4.37,4.37,0,0,0-6.93,0"/><path class="cls-2" d="M76.81,69.55a2,2,0,1,0,2,2,2,2,0,0,0-2-2m0,6.39a4.41,4.41,0,1,1,4.36-4.41,4.39,4.39,0,0,1-4.36,4.41"/><path class="cls-2" d="M80.28,77.92a4.35,4.35,0,0,0-6.93,0l-2-1.4a6.58,6.58,0,0,1,10.86,0Z"/><path class="cls-2" d="M89.93,69.55a2,2,0,1,0,1.95,2,2,2,0,0,0-1.95-2m0,6.39a4.41,4.41,0,1,1,4.35-4.41,4.39,4.39,0,0,1-4.35,4.41"/><path class="cls-2" d="M86.46,77.92l-2-1.4a6.58,6.58,0,0,1,10.86,0l-2,1.39a4.36,4.36,0,0,0-6.93,0"/><path class="cls-2" d="M103,69.55a2,2,0,1,0,1.95,2,2,2,0,0,0-1.95-2m0,6.39a4.41,4.41,0,1,1,4.36-4.41A4.39,4.39,0,0,1,103,75.94"/><path class="cls-2" d="M99.58,77.92l-2-1.4a6.59,6.59,0,0,1,10.87,0l-2,1.4a4.35,4.35,0,0,0-6.93,0"/><path class="cls-2" d="M116.15,69.55a2,2,0,1,0,2,2,2,2,0,0,0-2-2m0,6.39a4.41,4.41,0,1,1,4.36-4.41,4.39,4.39,0,0,1-4.36,4.41"/><path class="cls-2" d="M122.11,83.35,120,82.27a4.36,4.36,0,0,0,.43-1.89,4.27,4.27,0,0,0-4.23-4.29,4.22,4.22,0,0,0-3.47,1.83l-2-1.4a6.62,6.62,0,0,1,12.07,3.86,6.74,6.74,0,0,1-.68,3"/><path class="cls-2" d="M57.14,77.61a2,2,0,1,0,2,2,2,2,0,0,0-2-2m0,6.39a4.41,4.41,0,1,1,4.36-4.4A4.38,4.38,0,0,1,57.14,84"/><path class="cls-2" d="M63.09,91.41l-2.15-1.08a4.23,4.23,0,1,0-7.6,0L51.18,91.4a6.89,6.89,0,0,1-.67-3,6.64,6.64,0,1,1,12.58,3"/><path class="cls-2" d="M70.26,77.61a2,2,0,1,0,1.95,2,2,2,0,0,0-1.95-2m0,6.39a4.41,4.41,0,1,1,4.35-4.4A4.39,4.39,0,0,1,70.26,84"/><path class="cls-2" d="M76.21,91.41l-2.16-1.08a4.23,4.23,0,1,0-7.59,0L64.3,91.4a6.66,6.66,0,1,1,12.59-3,6.77,6.77,0,0,1-.68,3"/><path class="cls-2" d="M83.37,77.61a2,2,0,1,0,1.95,2,2,2,0,0,0-1.95-2m0,6.39a4.41,4.41,0,1,1,4.35-4.4A4.38,4.38,0,0,1,83.37,84"/><path class="cls-2" d="M89.32,91.41l-2.15-1.08a4.23,4.23,0,1,0-7.6,0L77.41,91.4a6.89,6.89,0,0,1-.67-3,6.64,6.64,0,1,1,12.58,3"/><path class="cls-2" d="M96.48,77.61a2,2,0,1,0,2,2,2,2,0,0,0-2-2m0,6.39a4.41,4.41,0,1,1,4.36-4.4A4.38,4.38,0,0,1,96.48,84"/><path class="cls-2" d="M102.43,91.41l-2.14-1.09a4.25,4.25,0,1,0-8-1.88,4.39,4.39,0,0,0,.43,1.89L90.52,91.4a6.86,6.86,0,0,1-.67-3,6.64,6.64,0,1,1,13.27,0,6.61,6.61,0,0,1-.69,3"/><path class="cls-2" d="M109.6,77.61a2,2,0,1,0,2,2,2,2,0,0,0-2-2m0,6.39A4.41,4.41,0,1,1,114,79.6,4.39,4.39,0,0,1,109.6,84"/><path class="cls-2" d="M115.55,91.41l-2.15-1.09a4.15,4.15,0,0,0,.43-1.88,4.24,4.24,0,1,0-8,1.89l-2.16,1.07a6.63,6.63,0,1,1,11.91,0"/><path class="cls-2" d="M105.56,63.55H61.37a3.86,3.86,0,0,1-3.83-3.88V31.45a3.87,3.87,0,0,1,3.83-3.88h44a3.87,3.87,0,0,1,3.83,3.88v15.2h-2.4V31.45A1.44,1.44,0,0,0,105.37,30h-44a1.44,1.44,0,0,0-1.43,1.44V59.67a1.44,1.44,0,0,0,1.43,1.45h44.19v2.43Z"/><rect class="cls-2" x="59.17" y="34.36" width="48.47" height="2.43"/></svg>