<svg id="Layer_1" data-name="Layer 1" xmlns="http://www.w3.org/2000/svg" viewBox="0 0 165.89 165.89"><defs><style>.cls-1{fill:#25c4ff;opacity:0.25;}.cls-2{fill:#fff;}</style></defs><title>ico-7</title><circle class="cls-1" cx="82.94" cy="82.94" r="78.8"/><path class="cls-2" d="M57.76,117a8.15,8.15,0,0,1-1.6-.14,5.67,5.67,0,0,1-1.39-.46,4.72,4.72,0,0,1-1.15-.77l.53-1.08a5.22,5.22,0,0,0,1.67,1,5.81,5.81,0,0,0,2,.3,3.35,3.35,0,0,0,2-.5,1.62,1.62,0,0,0,.7-1.39,1.18,1.18,0,0,0-.34-.87,2.61,2.61,0,0,0-1-.54,13.64,13.64,0,0,0-1.4-.39c-.56-.12-1.07-.25-1.55-.4a5.65,5.65,0,0,1-1.26-.58,2.41,2.41,0,0,1-.83-.88,2.56,2.56,0,0,1-.3-1.29,2.82,2.82,0,0,1,.51-1.67,3.27,3.27,0,0,1,1.41-1.13,5.08,5.08,0,0,1,2.14-.41,6.34,6.34,0,0,1,1.46.16,6,6,0,0,1,1.31.46,4,4,0,0,1,1.05.75l-.53,1.08a5.4,5.4,0,0,0-1.56-1,4.87,4.87,0,0,0-1.73-.3,3.21,3.21,0,0,0-1.93.51,1.71,1.71,0,0,0-.71,1.45,1.36,1.36,0,0,0,.31.92,2.1,2.1,0,0,0,.88.57,9.78,9.78,0,0,0,1.36.4c.56.13,1.08.27,1.58.42a6.78,6.78,0,0,1,1.3.56,2.52,2.52,0,0,1,.89.82,2.36,2.36,0,0,1,.32,1.26,2.8,2.8,0,0,1-.49,1.66A3.17,3.17,0,0,1,60,116.66,5.68,5.68,0,0,1,57.76,117Z"/><path class="cls-2" d="M67,117a3.92,3.92,0,0,1-2-.49,3.41,3.41,0,0,1-1.31-1.4A4.75,4.75,0,0,1,63.3,113a4.82,4.82,0,0,1,.46-2.14,3.37,3.37,0,0,1,1.31-1.41,3.82,3.82,0,0,1,2-.49,3.77,3.77,0,0,1,2,.49,3.35,3.35,0,0,1,1.3,1.41,4.68,4.68,0,0,1,.46,2.14,4.63,4.63,0,0,1-.46,2.14,3.38,3.38,0,0,1-1.3,1.4A3.86,3.86,0,0,1,67,117Zm0-1.14a2.08,2.08,0,0,0,1.71-.74,4.12,4.12,0,0,0,0-4.3,2.08,2.08,0,0,0-1.7-.74,2.1,2.1,0,0,0-1.7.74,4.09,4.09,0,0,0,0,4.3A2.12,2.12,0,0,0,67,115.89Z"/><path class="cls-2" d="M76,117a4,4,0,0,1-2-.49,3.44,3.44,0,0,1-1.31-1.39,4.57,4.57,0,0,1-.46-2.12,4.7,4.7,0,0,1,.47-2.13A3.43,3.43,0,0,1,74,109.46a4.06,4.06,0,0,1,2-.5,4.51,4.51,0,0,1,1.55.27,3.44,3.44,0,0,1,1.22.74l-.45,1a4.93,4.93,0,0,0-1.11-.65,2.93,2.93,0,0,0-1.13-.23,2.31,2.31,0,0,0-1.8.76,3.78,3.78,0,0,0,0,4.28,2.35,2.35,0,0,0,1.83.74,3.13,3.13,0,0,0,1.11-.22,4.06,4.06,0,0,0,1.11-.66l.45,1a3.72,3.72,0,0,1-1.25.73A4.68,4.68,0,0,1,76,117Z"/><path class="cls-2" d="M80.22,105.81h1.65v1.52H80.22Zm.12,11.11v-7.76h1.41v7.76Z"/><path class="cls-2" d="M87.07,117a3.27,3.27,0,0,1-1.79-.49,3.2,3.2,0,0,1-1.22-1.39,5,5,0,0,1-.43-2.12,4.91,4.91,0,0,1,.44-2.13,3.57,3.57,0,0,1,1.22-1.43,3.2,3.2,0,0,1,1.78-.51,3.12,3.12,0,0,1,1.8.51,2.61,2.61,0,0,1,1,1.48l-.19.1v-1.89h1.39v7.76H89.68V115l.19.07a2.56,2.56,0,0,1-1,1.46A3.06,3.06,0,0,1,87.07,117Zm.31-1.14a2.06,2.06,0,0,0,1.71-.75,3.41,3.41,0,0,0,.59-2.14,3.35,3.35,0,0,0-.6-2.14,2.28,2.28,0,0,0-3.41,0,3.34,3.34,0,0,0-.62,2.14,3.25,3.25,0,0,0,.62,2.12A2.11,2.11,0,0,0,87.38,115.89Zm-2.14-8.8v-1H90v1Z"/><path class="cls-2" d="M93.42,116.92V105.56h1.4v11.36Z"/><path class="cls-2" d="M100.15,117a3.28,3.28,0,0,1-1.8-.49,3.18,3.18,0,0,1-1.21-1.39,4.83,4.83,0,0,1-.43-2.12,4.77,4.77,0,0,1,.44-2.13,3.49,3.49,0,0,1,1.22-1.43,3.15,3.15,0,0,1,1.78-.51,3.07,3.07,0,0,1,1.79.51,2.57,2.57,0,0,1,1,1.48l-.18.1v-1.89h1.39v7.76h-1.39V115l.18.07a2.52,2.52,0,0,1-1,1.46A3,3,0,0,1,100.15,117Zm.31-1.14a2,2,0,0,0,1.7-.75,4.12,4.12,0,0,0,0-4.28,2.29,2.29,0,0,0-3.42,0,3.34,3.34,0,0,0-.61,2.14,3.25,3.25,0,0,0,.61,2.12A2.15,2.15,0,0,0,100.46,115.89Zm-2.15-8.8v-1H103v1Z"/><path class="cls-2" d="M109.16,117a4.73,4.73,0,0,1-3.16-1l.45-1a4.29,4.29,0,0,0,1.29.7,4.54,4.54,0,0,0,1.47.22,2.35,2.35,0,0,0,1.27-.28.92.92,0,0,0,.44-.83.86.86,0,0,0-.3-.69,2.43,2.43,0,0,0-1-.42l-1.3-.31a2.92,2.92,0,0,1-1.54-.77,1.89,1.89,0,0,1-.53-1.34,2,2,0,0,1,.38-1.21,2.46,2.46,0,0,1,1.06-.82,3.9,3.9,0,0,1,1.6-.3,4.43,4.43,0,0,1,1.55.26,3.48,3.48,0,0,1,1.25.75l-.45,1a4,4,0,0,0-1.14-.69,3.42,3.42,0,0,0-1.22-.22,2.07,2.07,0,0,0-1.23.31,1,1,0,0,0-.44.83.91.91,0,0,0,.28.71,2.12,2.12,0,0,0,.88.42l1.31.32a3.22,3.22,0,0,1,1.64.76,2,2,0,0,1-.31,3A3.74,3.74,0,0,1,109.16,117Z"/><path class="cls-2" d="M46.3,135.44V124.08h1.4v11.36Zm5.25,0-4.12-4,3.82-3.78H53l-4.26,4.15.07-.82,4.53,4.41Z"/><path class="cls-2" d="M57.21,135.55a3.36,3.36,0,0,1-1.8-.48,3.29,3.29,0,0,1-1.21-1.39,4.85,4.85,0,0,1-.43-2.13,4.91,4.91,0,0,1,.44-2.13A3.46,3.46,0,0,1,55.43,128a3.1,3.1,0,0,1,1.78-.52A3,3,0,0,1,59,128a2.52,2.52,0,0,1,1,1.47l-.19.11v-1.9h1.39v7.76H59.82V133.5l.19.08A2.6,2.6,0,0,1,59,135,3.07,3.07,0,0,1,57.21,135.55Zm.31-1.14a2.06,2.06,0,0,0,1.71-.75,3.41,3.41,0,0,0,.59-2.14,3.32,3.32,0,0,0-.6-2.13,2.29,2.29,0,0,0-3.41,0,3.34,3.34,0,0,0-.62,2.14,3.25,3.25,0,0,0,.62,2.12A2.11,2.11,0,0,0,57.52,134.41Z"/><path class="cls-2" d="M63.56,135.44v-5.58c0-.36,0-.73,0-1.09a9.81,9.81,0,0,0-.1-1.09h1.33l.14,1.59-.16.08a2.55,2.55,0,0,1,1-1.38,2.71,2.71,0,0,1,1.63-.49,2.51,2.51,0,0,1,1.75.56,2.72,2.72,0,0,1,.8,1.69l-.37-.23a2.59,2.59,0,0,1,1-1.47,2.85,2.85,0,0,1,1.77-.55,2.41,2.41,0,0,1,1.95.77,3.58,3.58,0,0,1,.65,2.33v4.86H73.48v-4.8a2.58,2.58,0,0,0-.36-1.52,1.37,1.37,0,0,0-1.17-.48,1.83,1.83,0,0,0-1.48.64,2.63,2.63,0,0,0-.54,1.75v4.41h-1.4v-4.8a2.57,2.57,0,0,0-.37-1.52,1.4,1.4,0,0,0-1.18-.48,1.84,1.84,0,0,0-1.49.64A2.69,2.69,0,0,0,65,131v4.41Z"/><path class="cls-2" d="M77.2,138.78v-8.92c0-.36,0-.73,0-1.09s-.05-.73-.1-1.09h1.33l.13,1.59-.12.2a2.56,2.56,0,0,1,1-1.47,3,3,0,0,1,1.78-.52A3.14,3.14,0,0,1,83,128a3.54,3.54,0,0,1,1.22,1.42,4.91,4.91,0,0,1,.44,2.13,4.85,4.85,0,0,1-.44,2.13A3.43,3.43,0,0,1,83,135.07a3.37,3.37,0,0,1-1.81.48,3.08,3.08,0,0,1-1.78-.51,2.63,2.63,0,0,1-1-1.46l.19-.17v5.37Zm3.71-4.37a2.09,2.09,0,0,0,1.7-.74,3.3,3.3,0,0,0,.6-2.12,3.4,3.4,0,0,0-.6-2.14,2,2,0,0,0-1.7-.77,2.08,2.08,0,0,0-1.72.75,4.1,4.1,0,0,0,0,4.27A2.08,2.08,0,0,0,80.91,134.41Z"/><path class="cls-2" d="M89.5,135.55a3.35,3.35,0,0,1-1.79-.48,3.31,3.31,0,0,1-1.22-1.39,5,5,0,0,1-.43-2.13,4.91,4.91,0,0,1,.44-2.13A3.54,3.54,0,0,1,87.72,128a3.12,3.12,0,0,1,1.78-.52,3.06,3.06,0,0,1,1.8.52,2.56,2.56,0,0,1,1,1.47l-.19.11v-1.9H93.5v7.76H92.11V133.5l.19.08a2.63,2.63,0,0,1-1,1.46A3.12,3.12,0,0,1,89.5,135.55Zm.31-1.14a2.06,2.06,0,0,0,1.71-.75,3.41,3.41,0,0,0,.59-2.14,3.32,3.32,0,0,0-.6-2.13,2.29,2.29,0,0,0-3.41,0,3.34,3.34,0,0,0-.62,2.14,3.25,3.25,0,0,0,.62,2.12A2.11,2.11,0,0,0,89.81,134.41Z"/><path class="cls-2" d="M95.85,135.44v-5.58c0-.36,0-.73,0-1.09s0-.73-.1-1.09h1.32l.14,1.59-.15.09A2.68,2.68,0,0,1,98.13,128a3,3,0,0,1,1.72-.49c1.86,0,2.79,1,2.79,3.1v4.86h-1.4v-4.78a2.4,2.4,0,0,0-.41-1.54,1.64,1.64,0,0,0-1.31-.48,2.17,2.17,0,0,0-1.65.64,2.39,2.39,0,0,0-.62,1.72v4.44Zm4.21,1.12v.91a3.21,3.21,0,0,1-.17,1.1,2.28,2.28,0,0,1-.66,1l-.6-.45a2,2,0,0,0,.46-.69,2.28,2.28,0,0,0,.11-.7l.37.23H98.41v-1.35Z"/><path class="cls-2" d="M107.92,135.55a3.36,3.36,0,0,1-1.8-.48,3.29,3.29,0,0,1-1.21-1.39,4.85,4.85,0,0,1-.43-2.13,4.77,4.77,0,0,1,.44-2.13,3.46,3.46,0,0,1,1.22-1.42,3.1,3.1,0,0,1,1.78-.52,3,3,0,0,1,1.79.52,2.51,2.51,0,0,1,1,1.47l-.18.11v-1.9h1.39v7.76h-1.39V133.5l.18.08a2.58,2.58,0,0,1-1,1.46A3.07,3.07,0,0,1,107.92,135.55Zm.31-1.14a2,2,0,0,0,1.7-.75,4.1,4.1,0,0,0,0-4.27,2.29,2.29,0,0,0-3.41,0,3.29,3.29,0,0,0-.62,2.14,3.19,3.19,0,0,0,.62,2.12A2.11,2.11,0,0,0,108.23,134.41Z"/><path class="cls-2" d="M116.93,135.55a4.7,4.7,0,0,1-3.16-1l.45-1a4.29,4.29,0,0,0,1.29.7,4.58,4.58,0,0,0,1.47.23,2.32,2.32,0,0,0,1.27-.29.91.91,0,0,0,.44-.83.85.85,0,0,0-.3-.68,2.57,2.57,0,0,0-1-.43l-1.3-.31a2.85,2.85,0,0,1-1.53-.77,1.86,1.86,0,0,1-.54-1.34,2,2,0,0,1,.38-1.2,2.48,2.48,0,0,1,1.06-.83,3.94,3.94,0,0,1,1.6-.3,4.63,4.63,0,0,1,1.55.26,3.5,3.5,0,0,1,1.25.76l-.45,1a4,4,0,0,0-1.14-.69,3.38,3.38,0,0,0-1.22-.22,2.07,2.07,0,0,0-1.23.31,1,1,0,0,0-.44.83.91.91,0,0,0,.28.71,1.9,1.9,0,0,0,.88.42l1.31.32a3.18,3.18,0,0,1,1.64.77,1.85,1.85,0,0,1,.52,1.36,1.92,1.92,0,0,1-.83,1.63A3.74,3.74,0,0,1,116.93,135.55Z"/><path class="cls-2" d="M124.59,47.55H106.46V23.31a1.1,1.1,0,0,0-1.1-1.1H55.45a1.1,1.1,0,0,0-1.1,1.1V60.36H41.3a1.11,1.11,0,0,0-1.11,1.1V92.17a1.11,1.11,0,0,0,1.11,1.1h83.29a1.1,1.1,0,0,0,1.1-1.1V48.66A1.11,1.11,0,0,0,124.59,47.55Zm-68-23.15h47.7V47.55H73l.6-.59a1.12,1.12,0,0,0,0-1.56,1.1,1.1,0,0,0-1.56,0l-2.15,2.15h-2a1.11,1.11,0,0,0-1.1,1.11v.9l-1.41-1.41a1.1,1.1,0,1,0-1.56,1.55l2.76,2.76a.83.83,0,0,0,.21.16v7.74H56.55ZM76.87,91.07H42.4V89L50,81.41l3.92,3.93a1.14,1.14,0,0,0,.78.32,1.12,1.12,0,0,0,.78-.32l12-12,9.4,9.41Zm0-11.47L68.25,71a1.09,1.09,0,0,0-1.56,0l-12,12-3.92-3.93a1.14,1.14,0,0,0-1.56,0L42.4,85.86V62.55H76.87Zm46.62,11.47H79.08V61.46a1.1,1.1,0,0,0-1.1-1.1h-9V58.47h54.55Zm0-34.8H68.94V49.76h54.55Z"/><path class="cls-2" d="M52.05,75.71a4.57,4.57,0,1,1,4.56-4.56A4.57,4.57,0,0,1,52.05,75.71Zm0-6.92a2.36,2.36,0,1,0,2.36,2.36A2.37,2.37,0,0,0,52.05,68.79Z"/><path class="cls-2" d="M67.32,40.85a1.1,1.1,0,0,1-.78-.32l-2.75-2.76a1.1,1.1,0,0,1,1.55-1.55l2,2L72,33.47a1.1,1.1,0,0,1,1.56,0,1.09,1.09,0,0,1,0,1.55l-5.51,5.51A1.1,1.1,0,0,1,67.32,40.85Z"/><path class="cls-2" d="M96.24,38.1H79.65a1.1,1.1,0,0,1,0-2.2H96.24a1.1,1.1,0,1,1,0,2.2Z"/><path class="cls-2" d="M92.48,82.94a1.17,1.17,0,0,1-.52-.12,1.1,1.1,0,0,1-.58-1V68.3a1.09,1.09,0,0,1,1.72-.91l9.9,6.77a1.12,1.12,0,0,1,.48.91A1.1,1.1,0,0,1,103,76l-9.9,6.77A1.08,1.08,0,0,1,92.48,82.94Zm1.1-12.56v9.38l6.85-4.69Z"/><circle class="cls-2" cx="72.78" cy="53.01" r="1.61"/><circle class="cls-2" cx="77.69" cy="53.01" r="1.61"/><circle class="cls-2" cx="82.56" cy="53.01" r="1.61"/></svg>