<svg id="Layer_1" data-name="Layer 1" xmlns="http://www.w3.org/2000/svg" viewBox="0 0 165.89 165.89"><defs><style>.cls-1{fill:#25c4ff;opacity:0.25;}.cls-2{fill:#fff;}</style></defs><title>ico-1</title><circle class="cls-1" cx="82.94" cy="82.94" r="78.8"/><path class="cls-2" d="M42.15,112.09v-11h1.42v11Zm7,0-5.94-5.59,5.69-5.4h1.79l-6.14,5.82.08-.88,6.36,6Z"/><path class="cls-2" d="M55.08,112.2a3.78,3.78,0,0,1-2-.5,3.29,3.29,0,0,1-1.31-1.4,4.58,4.58,0,0,1-.46-2.13,4.65,4.65,0,0,1,.46-2.14,3.31,3.31,0,0,1,1.31-1.41,3.78,3.78,0,0,1,2-.5,3.83,3.83,0,0,1,2,.5,3.35,3.35,0,0,1,1.3,1.41,4.79,4.79,0,0,1,.46,2.14,4.71,4.71,0,0,1-.46,2.13,3.32,3.32,0,0,1-1.3,1.4A3.83,3.83,0,0,1,55.08,112.2Zm0-1.15a2.1,2.1,0,0,0,1.72-.73,3.34,3.34,0,0,0,.6-2.15,3.3,3.3,0,0,0-.61-2.15,2.11,2.11,0,0,0-1.71-.74,2.08,2.08,0,0,0-1.69.74,3.24,3.24,0,0,0-.62,2.15,3.34,3.34,0,0,0,.6,2.15A2.08,2.08,0,0,0,55.08,111.05Z"/><path class="cls-2" d="M60.72,112.09V106.5c0-.36,0-.72,0-1.09a10.06,10.06,0,0,0-.11-1.09h1.33l.17,1.93-.17-.06a2.41,2.41,0,0,1,.92-1.54,2.73,2.73,0,0,1,1.61-.51l.4,0,.33.07,0,1.28a2.54,2.54,0,0,0-.86-.14,2.2,2.2,0,0,0-1.27.34,2,2,0,0,0-.69.87,2.8,2.8,0,0,0-.22,1.12v4.39Z"/><path class="cls-2" d="M66.41,115.42V106.5c0-.36,0-.72,0-1.09s0-.73-.1-1.09h1.33l.14,1.59-.13.2a2.56,2.56,0,0,1,1-1.47,3,3,0,0,1,1.77-.52,3.14,3.14,0,0,1,1.8.52,3.43,3.43,0,0,1,1.22,1.43,5.35,5.35,0,0,1,0,4.25,3.3,3.3,0,0,1-1.21,1.39,3.38,3.38,0,0,1-1.81.49,3,3,0,0,1-1.77-.52,2.57,2.57,0,0,1-1-1.46l.19-.17v5.37Zm3.71-4.37a2.06,2.06,0,0,0,1.7-.74,3.27,3.27,0,0,0,.6-2.11,3.43,3.43,0,0,0-.6-2.15,2.06,2.06,0,0,0-1.7-.77,2.1,2.1,0,0,0-1.72.75,4.1,4.1,0,0,0,0,4.27A2.1,2.1,0,0,0,70.12,111.05Z"/><path class="cls-2" d="M79,112.2a3.82,3.82,0,0,1-2-.5,3.26,3.26,0,0,1-1.3-1.4,4.58,4.58,0,0,1-.47-2.13,4.66,4.66,0,0,1,.47-2.14,3.29,3.29,0,0,1,1.3-1.41,4.15,4.15,0,0,1,3.95,0A3.39,3.39,0,0,1,82.28,106a4.65,4.65,0,0,1,.46,2.14,4.58,4.58,0,0,1-.46,2.13A3.37,3.37,0,0,1,81,111.7,3.83,3.83,0,0,1,79,112.2Zm0-1.15a2.08,2.08,0,0,0,1.71-.73,3.34,3.34,0,0,0,.6-2.15,3.3,3.3,0,0,0-.61-2.15,2.08,2.08,0,0,0-1.7-.74,2.1,2.1,0,0,0-1.7.74,4.07,4.07,0,0,0,0,4.3A2.08,2.08,0,0,0,79,111.05Z"/><path class="cls-2" d="M84.64,112.09V106.5c0-.36,0-.72,0-1.09a10,10,0,0,0-.1-1.09h1.33l.17,1.93-.17-.06a2.37,2.37,0,0,1,.92-1.54,2.68,2.68,0,0,1,1.61-.51l.39,0,.33.07v1.28a2.65,2.65,0,0,0-.87-.14,2.18,2.18,0,0,0-1.26.34,2,2,0,0,0-.7.87,3,3,0,0,0-.21,1.12v4.39Z"/><path class="cls-2" d="M93.16,112.2a3.36,3.36,0,0,1-1.79-.49,3.25,3.25,0,0,1-1.22-1.39,5,5,0,0,1-.43-2.12,4.85,4.85,0,0,1,.44-2.13,3.43,3.43,0,0,1,1.22-1.43,3.1,3.1,0,0,1,1.78-.52,3,3,0,0,1,1.79.52,2.56,2.56,0,0,1,1,1.47l-.19.11v-1.9h1.39v7.77H95.77v-2l.19.08a2.57,2.57,0,0,1-1,1.46A3.07,3.07,0,0,1,93.16,112.2Zm.31-1.15a2.06,2.06,0,0,0,1.71-.75,4.13,4.13,0,0,0,0-4.27,2.29,2.29,0,0,0-3.41,0,3.38,3.38,0,0,0-.62,2.15,3.22,3.22,0,0,0,.62,2.11A2.08,2.08,0,0,0,93.47,111.05Z"/><path class="cls-2" d="M98.44,105.4v-1.08h5.1v1.08Zm5.07,5.47V112a5.23,5.23,0,0,1-.54.12,5.11,5.11,0,0,1-.58,0,2.43,2.43,0,0,1-1.79-.65,2.59,2.59,0,0,1-.66-1.92v-7.28l1.4-.5v7.63a2,2,0,0,0,.18.93,1,1,0,0,0,.48.47,1.84,1.84,0,0,0,.69.13,2.5,2.5,0,0,0,.4,0A3.31,3.31,0,0,0,103.51,110.87Z"/><path class="cls-2" d="M103.37,102.25v-1h4.7v1Zm1.65,9.84v-7.77h1.4v7.77Z"/><path class="cls-2" d="M111.05,112.09l-3.31-7.75h1.46l2.73,6.67h-.38l2.76-6.67h1.41l-3.37,7.75Z"/><path class="cls-2" d="M119.9,112.2a3.37,3.37,0,0,1-1.8-.49,3.23,3.23,0,0,1-1.21-1.39,4.83,4.83,0,0,1-.43-2.12,4.71,4.71,0,0,1,.44-2.13,3.43,3.43,0,0,1,1.22-1.43,3.1,3.1,0,0,1,1.78-.52,3,3,0,0,1,1.79.52,2.54,2.54,0,0,1,1,1.47l-.18.11v-1.9h1.39v7.77h-1.39v-2l.18.08a2.55,2.55,0,0,1-1,1.46A3.07,3.07,0,0,1,119.9,112.2Zm.31-1.15a2,2,0,0,0,1.7-.75,4.1,4.1,0,0,0,0-4.27,2.07,2.07,0,0,0-1.7-.75,2.11,2.11,0,0,0-1.72.77,3.37,3.37,0,0,0-.61,2.15,3.22,3.22,0,0,0,.61,2.11A2.12,2.12,0,0,0,120.21,111.05Zm-2.15-8.8v-1h4.71v1Z"/><path class="cls-2" d="M37.09,130.61V119.25H38.5v11.36Zm5.25,0-4.12-4,3.83-3.78h1.76L39.55,127l.06-.81,4.54,4.41Z"/><path class="cls-2" d="M48.3,130.72a3.92,3.92,0,0,1-2-.49,3.32,3.32,0,0,1-1.3-1.4,4.63,4.63,0,0,1-.47-2.14,4.69,4.69,0,0,1,.47-2.14,3.29,3.29,0,0,1,1.3-1.41,4.23,4.23,0,0,1,4,0,3.39,3.39,0,0,1,1.29,1.41,4.68,4.68,0,0,1,.46,2.14,4.63,4.63,0,0,1-.46,2.14,3.43,3.43,0,0,1-1.29,1.4A3.93,3.93,0,0,1,48.3,130.72Zm0-1.14a2.08,2.08,0,0,0,1.71-.74,4.12,4.12,0,0,0,0-4.3,2.08,2.08,0,0,0-1.7-.74,2.1,2.1,0,0,0-1.7.74,3.3,3.3,0,0,0-.62,2.15,3.24,3.24,0,0,0,.61,2.15A2.08,2.08,0,0,0,48.3,129.58Z"/><path class="cls-2" d="M53.93,130.61V125c0-.36,0-.72,0-1.08s0-.73-.1-1.09h1.33l.14,1.59-.16.07a2.63,2.63,0,0,1,1-1.38,2.74,2.74,0,0,1,1.62-.48,2.56,2.56,0,0,1,1.76.55,2.75,2.75,0,0,1,.79,1.7l-.37-.23a2.75,2.75,0,0,1,1-1.48,3,3,0,0,1,1.78-.54,2.41,2.41,0,0,1,2,.77,3.56,3.56,0,0,1,.64,2.33v4.86h-1.4v-4.8a2.56,2.56,0,0,0-.36-1.52,1.39,1.39,0,0,0-1.17-.49,1.85,1.85,0,0,0-1.48.64,2.66,2.66,0,0,0-.54,1.76v4.41H58.9v-4.8a2.48,2.48,0,0,0-.37-1.52,1.39,1.39,0,0,0-1.17-.49,1.86,1.86,0,0,0-1.49.64,2.72,2.72,0,0,0-.53,1.76v4.41Z"/><path class="cls-2" d="M70.34,130.72a2.71,2.71,0,0,1-2.11-.78,3.39,3.39,0,0,1-.7-2.31v-4.78h1.41v4.77a2.15,2.15,0,0,0,.41,1.47,1.58,1.58,0,0,0,1.25.47,2.07,2.07,0,0,0,1.59-.64,2.35,2.35,0,0,0,.61-1.7v-4.37h1.42v7.76H72.84v-1.67l.19-.07a2.61,2.61,0,0,1-1,1.38A3,3,0,0,1,70.34,130.72Z"/><path class="cls-2" d="M76.55,130.61V125q0-.54,0-1.08a9.81,9.81,0,0,0-.1-1.09h1.33l.14,1.59-.15.09a2.73,2.73,0,0,1,1.08-1.4,3.14,3.14,0,0,1,1.72-.48c1.87,0,2.8,1,2.8,3.1v4.86H81.93v-4.78a2.39,2.39,0,0,0-.4-1.54,1.65,1.65,0,0,0-1.31-.49,2.21,2.21,0,0,0-1.65.64,2.39,2.39,0,0,0-.62,1.73v4.44Z"/><path class="cls-2" d="M85.52,119.5h1.65V121H85.52Zm.12,11.11v-7.76H87v7.76Z"/><path class="cls-2" d="M89.39,130.61V119.25h1.4v11.36Zm5.25,0-4.12-4,3.82-3.78H96.1L91.84,127l.07-.81,4.53,4.41Z"/><path class="cls-2" d="M100.3,130.72a3.25,3.25,0,0,1-1.79-.49,3.2,3.2,0,0,1-1.22-1.39,5,5,0,0,1-.43-2.12,4.91,4.91,0,0,1,.44-2.13,3.49,3.49,0,0,1,1.22-1.43,3.17,3.17,0,0,1,1.78-.51,3.07,3.07,0,0,1,1.79.51,2.58,2.58,0,0,1,1,1.48l-.19.1v-1.89h1.39v7.76h-1.39v-1.94l.19.07a2.53,2.53,0,0,1-1,1.46A3,3,0,0,1,100.3,130.72Zm.31-1.14a2.06,2.06,0,0,0,1.71-.75,3.41,3.41,0,0,0,.59-2.14,3.35,3.35,0,0,0-.6-2.14,2.28,2.28,0,0,0-3.41,0,3.34,3.34,0,0,0-.62,2.14,3.25,3.25,0,0,0,.62,2.12A2.11,2.11,0,0,0,100.61,129.58Zm-2.14-8.8v-1h4.7v1Z"/><path class="cls-2" d="M110,130.72a4,4,0,0,1-2-.49,3.42,3.42,0,0,1-1.3-1.39,5,5,0,0,1,0-4.25,3.37,3.37,0,0,1,1.33-1.44,4.06,4.06,0,0,1,2-.5,4.46,4.46,0,0,1,1.54.27,3.35,3.35,0,0,1,1.22.74l-.45,1a4.88,4.88,0,0,0-1.1-.65,3,3,0,0,0-1.13-.23,2.28,2.28,0,0,0-1.8.76,3.78,3.78,0,0,0,0,4.28,2.33,2.33,0,0,0,1.82.74,3.13,3.13,0,0,0,1.11-.22,4.06,4.06,0,0,0,1.11-.66l.45,1a3.72,3.72,0,0,1-1.25.73A4.63,4.63,0,0,1,110,130.72Z"/><path class="cls-2" d="M114.2,119.5h1.65V121H114.2Zm.12,11.11v-7.76h1.4v7.76Z"/><path class="cls-2" d="M116,132.69a3,3,0,0,0,.41.1l.35,0a1.74,1.74,0,0,0,.64-.13,1,1,0,0,0,.47-.46,2,2,0,0,0,.17-.92v-8.46h1.4v8.61a2.56,2.56,0,0,1-.64,1.91,2.34,2.34,0,0,1-1.75.64l-.53,0a3,3,0,0,1-.52-.11Zm1.9-13.19h1.65V121h-1.65Z"/><path class="cls-2" d="M124.8,130.72a3.28,3.28,0,0,1-1.8-.49,3.18,3.18,0,0,1-1.21-1.39,4.83,4.83,0,0,1-.43-2.12,4.77,4.77,0,0,1,.44-2.13,3.49,3.49,0,0,1,1.22-1.43,3.17,3.17,0,0,1,1.78-.51,3.07,3.07,0,0,1,1.79.51,2.57,2.57,0,0,1,1,1.48l-.18.1v-1.89h1.39v7.76h-1.39v-1.94l.18.07a2.52,2.52,0,0,1-1,1.46A3,3,0,0,1,124.8,130.72Zm.31-1.14a2,2,0,0,0,1.7-.75,4.12,4.12,0,0,0,0-4.28,2.28,2.28,0,0,0-3.41,0,3.29,3.29,0,0,0-.62,2.14,3.19,3.19,0,0,0,.62,2.12A2.11,2.11,0,0,0,125.11,129.58Z"/><path class="cls-2" d="M101.53,59.22V36.92a5.66,5.66,0,0,0-5.64-5.64H58.23a5.66,5.66,0,0,0-5.64,5.64v22.3a5.66,5.66,0,0,0,5.64,5.64h1.55v6.69a2.32,2.32,0,0,0,2.29,2.29A2.28,2.28,0,0,0,63.8,73l7.07-8.17H96A5.61,5.61,0,0,0,101.53,59.22ZM70.12,61.76a1.51,1.51,0,0,0-1.18.56l-6.07,7.06v-6a1.53,1.53,0,0,0-1.54-1.55h-3.1a2.51,2.51,0,0,1-2.54-2.54V37a2.51,2.51,0,0,1,2.54-2.54H96A2.51,2.51,0,0,1,98.49,37v22.3A2.51,2.51,0,0,1,96,61.82H70.12ZM95,74H73a1.55,1.55,0,1,1,0-3.09h22.8a1.5,1.5,0,0,1,1.17.55L103,78.55v-6A1.53,1.53,0,0,1,104.56,71h3.1a2.51,2.51,0,0,0,2.54-2.54V46.15a2.51,2.51,0,0,0-2.54-2.54,1.55,1.55,0,1,1,0-3.1,5.66,5.66,0,0,1,5.64,5.64v22.3a5.66,5.66,0,0,1-5.64,5.64h-1.55v6.62a2.13,2.13,0,0,1-1.48,2.11,1.9,1.9,0,0,1-.81.12,2.25,2.25,0,0,1-1.73-.8ZM79.17,48.63a2.11,2.11,0,1,1-2.11-2.11A2.13,2.13,0,0,1,79.17,48.63Zm7,0a2.11,2.11,0,1,1-2.11-2.11A2.17,2.17,0,0,1,86.17,48.63Zm-14,0a2.11,2.11,0,1,1-2.11-2.11A2.17,2.17,0,0,1,72.17,48.63Z"/></svg>