<svg id="Layer_1" data-name="Layer 1" xmlns="http://www.w3.org/2000/svg" viewBox="0 0 253.99 144.87"><defs><style>.cls-1{fill:#010101;}</style></defs><title>b-com</title><path class="cls-1" d="M99.06,110.54a2.35,2.35,0,0,0-.58.06.78.78,0,0,0-.39.24,1.34,1.34,0,0,0-.21.48,3.93,3.93,0,0,0-.06.77v.5a4.07,4.07,0,0,0,.06.77,1.34,1.34,0,0,0,.21.48.72.72,0,0,0,.39.24,2.52,2.52,0,0,0,1.09,0,.84.84,0,0,0,.34-.17.68.68,0,0,0,.18-.28,1.84,1.84,0,0,0,0-.44h.73a1.42,1.42,0,0,1-.45,1.2,2.21,2.21,0,0,1-1.36.35,3.15,3.15,0,0,1-.87-.1,1.34,1.34,0,0,1-.62-.34,1.59,1.59,0,0,1-.36-.67,4,4,0,0,1-.11-1.06v-.5a3.87,3.87,0,0,1,.12-1.06,1.59,1.59,0,0,1,.36-.67,1.35,1.35,0,0,1,.61-.34,3.72,3.72,0,0,1,.87-.1,2.21,2.21,0,0,1,1.36.35,1.42,1.42,0,0,1,.45,1.19h-.73a1.67,1.67,0,0,0,0-.42.65.65,0,0,0-.18-.29.83.83,0,0,0-.34-.16A1.82,1.82,0,0,0,99.06,110.54Z"/><path class="cls-1" d="M105.57,112.59a3.93,3.93,0,0,1-.11,1,1.55,1.55,0,0,1-.36.66,1.26,1.26,0,0,1-.6.36,3.36,3.36,0,0,1-.89.1,3.28,3.28,0,0,1-.88-.1,1.29,1.29,0,0,1-.61-.36,1.53,1.53,0,0,1-.34-.66,3.89,3.89,0,0,1-.12-1v-.5a3.81,3.81,0,0,1,.12-1,1.63,1.63,0,0,1,.35-.67,1.2,1.2,0,0,1,.61-.35,3.54,3.54,0,0,1,1.75,0,1.2,1.2,0,0,1,.61.35,1.53,1.53,0,0,1,.36.67,3.85,3.85,0,0,1,.11,1Zm-.72-.5a4.07,4.07,0,0,0-.06-.77,1.08,1.08,0,0,0-.2-.47.72.72,0,0,0-.39-.24,2,2,0,0,0-.59-.07,2,2,0,0,0-.59.07.67.67,0,0,0-.37.24,1,1,0,0,0-.2.47,4.07,4.07,0,0,0-.06.77v.5a4.07,4.07,0,0,0,.06.77,1.06,1.06,0,0,0,.2.48.8.8,0,0,0,.37.24,2.45,2.45,0,0,0,.59.07,2.38,2.38,0,0,0,.59-.07.86.86,0,0,0,.39-.24,1.18,1.18,0,0,0,.2-.48,4.07,4.07,0,0,0,.06-.77Z"/><path class="cls-1" d="M107.15,110.47a2.88,2.88,0,0,1,.71-.41,2,2,0,0,1,.74-.14,1.37,1.37,0,0,1,.72.16,1.27,1.27,0,0,1,.46.4,3.77,3.77,0,0,1,.72-.41,1.92,1.92,0,0,1,.77-.15,1.71,1.71,0,0,1,.65.1.92.92,0,0,1,.41.27,1.12,1.12,0,0,1,.2.47,4.27,4.27,0,0,1,0,.67v3.23h-.72v-3.23a1,1,0,0,0-.18-.7.8.8,0,0,0-.63-.19,1.53,1.53,0,0,0-.56.12,2.66,2.66,0,0,0-.59.34v3.66h-.73v-3.23a2.63,2.63,0,0,0,0-.43.58.58,0,0,0-.14-.27.43.43,0,0,0-.24-.15,1.41,1.41,0,0,0-.39,0,1.36,1.36,0,0,0-.57.12,2.31,2.31,0,0,0-.58.34v3.66h-.72V110H107Z"/><path class="cls-1" d="M114.3,110.47a2.88,2.88,0,0,1,.71-.41,2,2,0,0,1,.74-.14,1.37,1.37,0,0,1,.72.16,1.17,1.17,0,0,1,.45.4,4.49,4.49,0,0,1,.72-.41,2,2,0,0,1,.78-.15,1.71,1.71,0,0,1,.65.1.92.92,0,0,1,.41.27,1.12,1.12,0,0,1,.2.47,4.27,4.27,0,0,1,0,.67v3.23H119v-3.23a1,1,0,0,0-.17-.7.8.8,0,0,0-.63-.19,1.53,1.53,0,0,0-.56.12,3,3,0,0,0-.6.34v3.66h-.72v-3.23a1.8,1.8,0,0,0,0-.43.49.49,0,0,0-.13-.27.43.43,0,0,0-.24-.15,1.41,1.41,0,0,0-.39,0,1.36,1.36,0,0,0-.57.12,2.31,2.31,0,0,0-.58.34v3.66h-.72V110h.48Z"/><path class="cls-1" d="M124,114.66l-.17-.45a3.35,3.35,0,0,1-.72.41,2.22,2.22,0,0,1-.81.13,2.73,2.73,0,0,1-.69-.08,1.06,1.06,0,0,1-.47-.28,1.14,1.14,0,0,1-.27-.5,2.8,2.8,0,0,1-.08-.77V110h.72v3.1a1.75,1.75,0,0,0,.06.5.77.77,0,0,0,.18.32.54.54,0,0,0,.3.16,1.81,1.81,0,0,0,.43.05,1.74,1.74,0,0,0,.67-.13,2.22,2.22,0,0,0,.6-.34V110h.73v4.64Z"/><path class="cls-1" d="M126,110l.16.45a2.88,2.88,0,0,1,.71-.41,2.35,2.35,0,0,1,.82-.14,2.31,2.31,0,0,1,.69.09,1,1,0,0,1,.47.27,1.18,1.18,0,0,1,.27.51,2.88,2.88,0,0,1,.09.78v3.09h-.73v-3.09a1.78,1.78,0,0,0-.06-.51.76.76,0,0,0-.17-.31.74.74,0,0,0-.3-.17,1.94,1.94,0,0,0-.44,0,1.71,1.71,0,0,0-.66.12,2,2,0,0,0-.61.34v3.66h-.73V110Z"/><path class="cls-1" d="M130.29,108.44h.77v.76h-.77Zm0,1.58H131v4.64h-.73Z"/><path class="cls-1" d="M133.94,110.54a2.4,2.4,0,0,0-.58.06.8.8,0,0,0-.38.24,1.34,1.34,0,0,0-.21.48,3.93,3.93,0,0,0-.06.77v.5a4.07,4.07,0,0,0,.06.77,1.34,1.34,0,0,0,.21.48.73.73,0,0,0,.38.24,2.36,2.36,0,0,0,.58.07,2.4,2.4,0,0,0,.52-.05.74.74,0,0,0,.33-.17.53.53,0,0,0,.18-.28,1.42,1.42,0,0,0,.06-.44h.72a1.42,1.42,0,0,1-.44,1.2,2.23,2.23,0,0,1-1.37.35,3.13,3.13,0,0,1-.86-.1,1.34,1.34,0,0,1-.62-.34,1.59,1.59,0,0,1-.36-.67,4,4,0,0,1-.11-1.06v-.5a3.91,3.91,0,0,1,.11-1.06,1.6,1.6,0,0,1,.37-.67,1.35,1.35,0,0,1,.61-.34,3.69,3.69,0,0,1,.86-.1,2.23,2.23,0,0,1,1.37.35,1.41,1.41,0,0,1,.44,1.19H135A1.29,1.29,0,0,0,135,111a.52.52,0,0,0-.18-.29.73.73,0,0,0-.33-.16A1.9,1.9,0,0,0,133.94,110.54Z"/><path class="cls-1" d="M136.54,113.43a1.22,1.22,0,0,1,.36-.94,1.71,1.71,0,0,1,1.11-.38l1.57-.11v-.55a1.76,1.76,0,0,0,0-.42.57.57,0,0,0-.17-.28.73.73,0,0,0-.33-.16,2,2,0,0,0-.52,0,1.35,1.35,0,0,0-.83.19.81.81,0,0,0-.24.67h-.73a1.62,1.62,0,0,1,.13-.7,1.13,1.13,0,0,1,.34-.46,1.56,1.56,0,0,1,.57-.24,3.41,3.41,0,0,1,.76-.08,3.29,3.29,0,0,1,.83.09,1.23,1.23,0,0,1,.55.26,1,1,0,0,1,.31.47,2.09,2.09,0,0,1,.1.71v3.21h-.48l-.17-.45a3.58,3.58,0,0,1-.69.41,2.21,2.21,0,0,1-.81.14,1.92,1.92,0,0,1-1.21-.33A1.23,1.23,0,0,1,136.54,113.43Zm1.68.72A1.83,1.83,0,0,0,139,114a2.21,2.21,0,0,0,.61-.4v-1.14l-1.49.15a1.19,1.19,0,0,0-.62.23.69.69,0,0,0-.2.53.69.69,0,0,0,.24.58A1.2,1.2,0,0,0,138.22,114.15Z"/><path class="cls-1" d="M141.6,110.63H141v-.5l.6-.11v-1.14l.73-.12V110h1v.61h-1v2.94a.66.66,0,0,0,.12.42.47.47,0,0,0,.4.15,1.72,1.72,0,0,0,.34,0l.28-.06v.61a2,2,0,0,1-.34.07,2.73,2.73,0,0,1-.41,0,1.12,1.12,0,0,1-.85-.29,1.32,1.32,0,0,1-.27-.91Z"/><path class="cls-1" d="M144.3,108.44h.76v.76h-.76Zm0,1.58H145v4.64h-.72Z"/><path class="cls-1" d="M149.88,112.59a3.89,3.89,0,0,1-.12,1,1.54,1.54,0,0,1-.35.66,1.29,1.29,0,0,1-.61.36,3.28,3.28,0,0,1-.88.1,3.23,3.23,0,0,1-.88-.1,1.29,1.29,0,0,1-.61-.36,1.44,1.44,0,0,1-.35-.66,4.39,4.39,0,0,1-.11-1v-.5a4.3,4.3,0,0,1,.11-1,1.53,1.53,0,0,1,.36-.67,1.21,1.21,0,0,1,.6-.35,3.31,3.31,0,0,1,.88-.11,3.25,3.25,0,0,1,.88.11,1.21,1.21,0,0,1,.6.35,1.53,1.53,0,0,1,.36.67,3.81,3.81,0,0,1,.12,1Zm-.73-.5a4.07,4.07,0,0,0-.06-.77,1.08,1.08,0,0,0-.2-.47.69.69,0,0,0-.38-.24,2,2,0,0,0-.59-.07,2,2,0,0,0-.59.07.66.66,0,0,0-.38.24,1.08,1.08,0,0,0-.2.47,4.07,4.07,0,0,0-.06.77v.5a4.07,4.07,0,0,0,.06.77,1.18,1.18,0,0,0,.2.48.78.78,0,0,0,.38.24,2.38,2.38,0,0,0,.59.07,2.45,2.45,0,0,0,.59-.07.83.83,0,0,0,.38-.24,1.18,1.18,0,0,0,.2-.48,4.07,4.07,0,0,0,.06-.77Z"/><path class="cls-1" d="M151.29,110l.16.45a2.88,2.88,0,0,1,.71-.41,2.35,2.35,0,0,1,.82-.14,2.31,2.31,0,0,1,.69.09,1,1,0,0,1,.47.27,1.18,1.18,0,0,1,.27.51,2.88,2.88,0,0,1,.09.78v3.09h-.73v-3.09a1.78,1.78,0,0,0-.06-.51.76.76,0,0,0-.17-.31.74.74,0,0,0-.3-.17,1.94,1.94,0,0,0-.44,0,1.71,1.71,0,0,0-.66.12,2,2,0,0,0-.61.34v3.66h-.73V110Z"/><path class="cls-1" d="M159.12,113.37a1.88,1.88,0,0,1-.07.53.79.79,0,0,1-.25.44,1.28,1.28,0,0,1-.57.3,3.87,3.87,0,0,1-1,.11,3.24,3.24,0,0,1-.9-.1,1.38,1.38,0,0,1-.57-.28.89.89,0,0,1-.29-.46,1.87,1.87,0,0,1-.09-.61h.73a1.35,1.35,0,0,0,.05.38.5.5,0,0,0,.18.27.82.82,0,0,0,.34.15,2.79,2.79,0,0,0,.55.05,2.44,2.44,0,0,0,.61-.06,1,1,0,0,0,.36-.15.41.41,0,0,0,.16-.24,1.15,1.15,0,0,0,0-.33.77.77,0,0,0,0-.32.47.47,0,0,0-.19-.23,1.25,1.25,0,0,0-.38-.15,3.81,3.81,0,0,0-.6-.08,4.6,4.6,0,0,1-.8-.13,1.54,1.54,0,0,1-.53-.25.84.84,0,0,1-.29-.39,1.45,1.45,0,0,1-.09-.54,1.18,1.18,0,0,1,.47-1,2.34,2.34,0,0,1,1.3-.32,2.2,2.2,0,0,1,1.36.34,1.38,1.38,0,0,1,.41,1.12h-.72a1.25,1.25,0,0,0-.05-.36.57.57,0,0,0-.16-.27.85.85,0,0,0-.33-.16,1.87,1.87,0,0,0-.51,0,1.47,1.47,0,0,0-.78.16.76.76,0,0,0,0,1.14,1.73,1.73,0,0,0,.86.22,5.84,5.84,0,0,1,.9.13,1.72,1.72,0,0,1,.56.24.85.85,0,0,1,.29.39A1.73,1.73,0,0,1,159.12,113.37Z"/><path class="cls-1" d="M128.11,46.68a34,34,0,0,0-6.68.66v5.5a27.53,27.53,0,0,1,6.68-.83c13.78,0,25,10.19,25,22.71s-11.22,22.71-25,22.71-25-10.18-25-22.71a20.92,20.92,0,0,1,2.59-10V55.46a26.64,26.64,0,0,0-8.46,19.26c0,15.47,13.85,28.05,30.88,28.05S159,90.19,159,74.72,145.13,46.68,128.11,46.68Z"/><path class="cls-1" d="M128.1,56.75a18.44,18.44,0,0,0-3.25.29,17.76,17.76,0,0,0-3.11.88,16.3,16.3,0,0,0-2.88,1.4,18.42,18.42,0,0,0-2.61,1.89V35.26h0a10.39,10.39,0,0,0-.83-4.1,10.58,10.58,0,0,0-2.26-3.36,10.56,10.56,0,0,0-7.46-3.09h0c.61,0,1.19.5,1.72,1.3a14.47,14.47,0,0,1,1.41,3,30.24,30.24,0,0,1,1,3.51,15.57,15.57,0,0,1,.35,2.68V73.82a1.77,1.77,0,0,0,0,.23c0,.08,0,.15,0,.23v.23a1.93,1.93,0,0,0,0,.24,18,18,0,0,0,30.73,12.72,18.21,18.21,0,0,0,3.86-5.72,18.08,18.08,0,0,0,0-14A18.21,18.21,0,0,0,140.83,62a18,18,0,0,0-12.73-5.28Zm0,29.85a11.88,11.88,0,0,1-8.37-3.48,11.84,11.84,0,0,1-3.48-8.37,11.79,11.79,0,0,1,.94-4.61,11.88,11.88,0,0,1,6.31-6.31,11.87,11.87,0,0,1,9.21,0,11.83,11.83,0,0,1,3.77,19.29,11.88,11.88,0,0,1-8.38,3.48Z"/></svg>