<svg id="Layer_1" data-name="Layer 1" xmlns="http://www.w3.org/2000/svg" viewBox="0 0 253.99 144.87"><defs><style>.cls-1{fill:#1b181c;}</style></defs><title>haemogram</title><rect class="cls-1" x="205.53" y="53.47" width="9.56" height="9.56"/><path class="cls-1" d="M54.71,82V72H46.46V82H43V59.61h3.49v9.54h8.25V59.61h3.5V82Z"/><path class="cls-1" d="M68.65,82.41c-5,0-7.52-2-7.52-5.39,0-4.55,4.74-5.45,9.79-5.73v-.87c0-1.73-1.21-2.38-3.13-2.38a13.42,13.42,0,0,0-4.68,1l-1-2.85A17.07,17.07,0,0,1,68.25,65c4.28,0,6.66,1.68,6.66,6V81.2A15.31,15.31,0,0,1,68.65,82.41ZM70.92,74c-3.1.15-5.83.43-5.83,2.94,0,1.58,1.24,2.47,3.44,2.47a8,8,0,0,0,2.39-.33Z"/><path class="cls-1" d="M92.33,74,81.58,75.44c.37,2.45,2.17,3.66,4.61,3.66A10.66,10.66,0,0,0,90.84,78l1.21,3.16a14.75,14.75,0,0,1-6.16,1.21c-5.52,0-8.43-3.59-8.43-8.74S80.34,65,85.21,65c4.61,0,7.18,3,7.18,7.59A11.64,11.64,0,0,1,92.33,74ZM85.11,68c-2.2,0-3.75,1.61-3.81,4.74l7-1C88.3,69.31,87.06,68,85.11,68Z"/><path class="cls-1" d="M114.45,82V70.73a2.86,2.86,0,0,0-3.19-3,4.19,4.19,0,0,0-3.07,1.11V82h-3.4V70.42c0-1.67-1.33-2.69-3.41-2.69a7.34,7.34,0,0,0-2.85.49V82H95.15V66.18a16,16,0,0,1,6-1.18,7.33,7.33,0,0,1,5.33,1.8A8.83,8.83,0,0,1,112,65c3.56,0,5.79,2.08,5.79,5.39V82Z"/><path class="cls-1" d="M128.13,82.38c-4.74,0-7.34-3.75-7.34-8.71s2.6-8.67,7.34-8.67,7.34,3.72,7.34,8.67S132.87,82.38,128.13,82.38Zm0-14.68c-2.63,0-3.94,2.35-3.94,5.94s1.31,6,3.94,6,3.93-2.39,3.93-6S130.76,67.7,128.13,67.7Z"/><path class="cls-1" d="M147.82,82.35c-5.32,0-9.75-3.81-9.75-11.52s4.49-11.53,9.85-11.53a10.73,10.73,0,0,1,5.29,1.15L152.53,62A9.4,9.4,0,0,0,148,61c-4.22,0-8,3.06-8,9.88s3.72,9.87,7.81,9.87a10,10,0,0,0,4.08-.65V71.2h-5.39V69.62h7.22V81.2A12.69,12.69,0,0,1,147.82,82.35Z"/><path class="cls-1" d="M164.93,66.67a8,8,0,0,0-1.24-.09,10.12,10.12,0,0,0-3.72.65V82h-1.82V66.18A14.42,14.42,0,0,1,163.91,65a9.43,9.43,0,0,1,1.42.07Z"/><path class="cls-1" d="M173.81,82.35c-4.36,0-6.59-1.95-6.59-5,0-4.86,5.33-5.48,10.37-5.76V70.15c0-2.82-1.89-3.66-4.36-3.66a10.66,10.66,0,0,0-4.46,1.05l-.57-1.36A12.88,12.88,0,0,1,173.35,65c3.5,0,6,1.4,6,5.24V81.2A13,13,0,0,1,173.81,82.35ZM177.59,73c-4,.21-8.61.43-8.61,4.33,0,2.14,1.54,3.56,4.8,3.56a10.79,10.79,0,0,0,3.81-.62Z"/><path class="cls-1" d="M203.63,82V70.36a3.68,3.68,0,0,0-4-3.81,5.26,5.26,0,0,0-4.12,1.67V82h-1.82V69.87c0-2.05-1.83-3.32-4.4-3.32a9.93,9.93,0,0,0-3.75.68V82h-1.83V66.18A14.07,14.07,0,0,1,189.26,65a6.53,6.53,0,0,1,5.23,2,7.74,7.74,0,0,1,5.39-2c3.31,0,5.58,2,5.58,5.24V82Z"/><path class="cls-1" d="M128.86,95.42v-7h3.61v.51h-3v2.63h2.8V92h-2.8V94.9h3v.52Z"/><path class="cls-1" d="M137.65,95.42l-1.85-3.16h0l-1.84,3.16h-.65l2.16-3.64-2-3.41h.65l1.7,2.92h0l1.71-2.92h.65l-2,3.41,2.16,3.64Z"/><path class="cls-1" d="M141.75,95.52c-1.47,0-2.74-1.15-2.74-3.63s1.27-3.62,2.74-3.62a2.76,2.76,0,0,1,1.5.36l-.21.49a2.32,2.32,0,0,0-1.25-.32c-1.17,0-2.16,1-2.16,3.09s1,3.09,2.16,3.09a2.33,2.33,0,0,0,1.25-.31l.21.49A2.85,2.85,0,0,1,141.75,95.52Z"/><path class="cls-1" d="M144.58,95.42v-7h3.61v.51h-3v2.63H148V92h-2.8V94.9h3v.52Z"/><path class="cls-1" d="M149.53,95.42v-7h3.6v.51h-3v2.63h2.8V92h-2.8V94.9h3v.52Z"/><path class="cls-1" d="M156.26,95.52a4.11,4.11,0,0,1-1.79-.36V88.63a4.08,4.08,0,0,1,1.79-.36c1.67,0,3,1.17,3,3.62S157.93,95.52,156.26,95.52Zm0-6.73a3.44,3.44,0,0,0-1.19.19v5.83a3.24,3.24,0,0,0,1.19.19c1.31,0,2.4-.94,2.4-3.11S157.57,88.79,156.26,88.79Z"/><path class="cls-1" d="M165.82,92.57v2.85h-.59V92.57l-2.32-4.2h.65L165.51,92h0l1.95-3.59h.66Z"/><path class="cls-1" d="M171.44,95.52c-1.78,0-2.69-1.64-2.69-3.63s.91-3.62,2.69-3.62,2.69,1.64,2.69,3.62S173.21,95.52,171.44,95.52Zm0-6.72c-1.38,0-2.1,1.39-2.1,3.09s.72,3.1,2.1,3.1,2.09-1.39,2.09-3.1S172.81,88.8,171.44,88.8Z"/><path class="cls-1" d="M177.8,95.52a2.07,2.07,0,0,1-2.24-2.09V88.37h.6v5.06a1.64,1.64,0,0,0,3.27,0V88.37h.6v5.06A2.07,2.07,0,0,1,177.8,95.52Z"/><path class="cls-1" d="M185.61,95.42l-1.21-2.36a1.35,1.35,0,0,0-1.3-.84h-.81v3.2h-.58V88.64a4.34,4.34,0,0,1,1.8-.37c1.59,0,2.41.82,2.41,1.93a1.76,1.76,0,0,1-1.75,1.85v0A1.89,1.89,0,0,1,185,93l1.26,2.43Zm-2.09-6.66a3.8,3.8,0,0,0-1.23.2v2.78h1c1.24,0,2-.39,2-1.52C185.33,89.35,184.74,88.76,183.52,88.76Z"/><path class="cls-1" d="M188.83,95.52a3.73,3.73,0,0,1-1.65-.36l.22-.52a3.16,3.16,0,0,0,1.42.34c1,0,1.73-.5,1.73-1.4s-.71-1.16-1.44-1.48c-.93-.4-1.86-.88-1.86-2a1.87,1.87,0,0,1,2.11-1.83,3,3,0,0,1,1.5.36l-.22.49a2.72,2.72,0,0,0-1.27-.32c-.88,0-1.53.46-1.53,1.28s.8,1.18,1.54,1.5,1.77.84,1.77,2S190.18,95.52,188.83,95.52Z"/><path class="cls-1" d="M192.58,95.42v-7h3.61v.51h-3v2.63H196V92h-2.79V94.9h3v.52Z"/><path class="cls-1" d="M197.55,95.42v-7h.59V94.9H201v.52Z"/><path class="cls-1" d="M202.77,88.88v2.63h2.72V92h-2.72v3.39h-.58v-7h3.52v.51Z"/></svg>