<svg id="Layer_1" data-name="Layer 1" xmlns="http://www.w3.org/2000/svg" viewBox="0 0 253.99 144.87"><defs><style>.cls-1{fill:#1b181c;}</style></defs><title>lapas</title><path class="cls-1" d="M127.9,66.81h.44v5.28h3v.38H127.9Z"/><path class="cls-1" d="M135.74,71.1H133.1l-.5,1.37h-.46l2.08-5.66h.39l2.09,5.66h-.47Zm-2.51-.38h2.38l-1.19-3.34Z"/><path class="cls-1" d="M138.76,72.47h-.43V67.19h-1.69v-.38h3.81v.38h-1.69Z"/><path class="cls-1" d="M143.1,72.47l-1.87-5.66h.46l1.59,4.91,1.6-4.91h.45l-1.86,5.66Z"/><path class="cls-1" d="M146.42,66.81h.43v5.66h-.43Z"/><path class="cls-1" d="M149.26,72.52A1.64,1.64,0,0,1,148,72l.29-.29a1.15,1.15,0,0,0,.95.4c.82,0,1.26-.51,1.26-1.42V66.81h.42v4A1.59,1.59,0,0,1,149.26,72.52Z"/><path class="cls-1" d="M155.41,71.1h-2.65l-.49,1.37h-.46l2.08-5.66h.38l2.09,5.66h-.46Zm-2.51-.38h2.37l-1.19-3.34Z"/><path class="cls-1" d="M159,72.52a2.4,2.4,0,0,1-1.89-.75l.3-.3a2,2,0,0,0,1.61.67c.9,0,1.46-.43,1.46-1.17a1,1,0,0,0-.31-.8,1.41,1.41,0,0,0-.82-.3l-.66-.1a1.91,1.91,0,0,1-1-.42,1.26,1.26,0,0,1-.45-1A1.54,1.54,0,0,1,159,66.76a2.23,2.23,0,0,1,1.63.61l-.27.28a1.83,1.83,0,0,0-1.38-.53c-.83,0-1.32.45-1.32,1.17a.89.89,0,0,0,.3.74,1.78,1.78,0,0,0,.84.35l.62.1a1.74,1.74,0,0,1,1,.37,1.41,1.41,0,0,1,.49,1.1C160.94,71.92,160.21,72.52,159,72.52Z"/><path class="cls-1" d="M166.39,70.07h-1.65v2.4h-.42V66.81h2.07a1.63,1.63,0,1,1,0,3.26Zm0-2.88h-1.61v2.5h1.61a1.25,1.25,0,1,0,0-2.5Z"/><path class="cls-1" d="M169.34,66.81h.43v5.28h3v.38h-3.44Z"/><path class="cls-1" d="M177.18,71.1h-2.65L174,72.47h-.46l2.09-5.66h.38l2.08,5.66h-.46Zm-2.51-.38H177l-1.19-3.34Z"/><path class="cls-1" d="M180.19,72.47h-.42V67.19h-1.69v-.38h3.81v.38h-1.7Z"/><path class="cls-1" d="M183.49,69.52h2.57v.38h-2.57v2.57h-.43V66.81h3.44v.38h-3Z"/><path class="cls-1" d="M190.71,71.94a2,2,0,0,1-1.41.58,2,2,0,0,1-1.42-.58c-.51-.52-.53-1-.53-2.3s0-1.78.53-2.3a2,2,0,0,1,1.42-.58,2,2,0,0,1,1.41.58c.52.52.53,1,.53,2.3S191.23,71.42,190.71,71.94Zm-.34-4.36a1.48,1.48,0,0,0-1.07-.44,1.5,1.5,0,0,0-1.08.44c-.4.41-.43.85-.43,2.06s0,1.66.43,2.06a1.5,1.5,0,0,0,1.08.44,1.48,1.48,0,0,0,1.07-.44c.41-.4.44-.85.44-2.06S190.78,68,190.37,67.58Z"/><path class="cls-1" d="M194.67,69.86h-1.56v2.61h-.43V66.81h2.16a1.47,1.47,0,0,1,1.62,1.51,1.45,1.45,0,0,1-1.3,1.53l1.36,2.62H196Zm.11-2.67h-1.67v2.29h1.67A1.1,1.1,0,0,0,196,68.33C196,67.54,195.51,67.19,194.78,67.19Z"/><path class="cls-1" d="M202.16,67.8l-1.71,3.88H200l-1.74-3.88v4.67h-.43V66.81h.43l2,4.36,1.92-4.36h.44v5.66h-.44Z"/><path class="cls-1" d="M207.32,71.1h-2.65l-.49,1.37h-.46l2.08-5.66h.38l2.09,5.66h-.46Zm-2.51-.38h2.37L206,67.38Z"/><path class="cls-1" d="M130.74,80.65H128.1L127.61,82h-.47l2.09-5.67h.38L131.7,82h-.46Zm-2.5-.38h2.37l-1.19-3.33Z"/><path class="cls-1" d="M133.76,82h-.43V76.74h-1.69v-.38h3.82v.38h-1.7Z"/><path class="cls-1" d="M138.44,82H138V76.74h-1.68v-.38h3.81v.38h-1.69Z"/><path class="cls-1" d="M140.34,75.29h2.36v.37h-2.36Zm1,1.07h.43V82h-.43Z"/><path class="cls-1" d="M144.87,82.08a2.44,2.44,0,0,1-1.89-.75l.3-.3a2,2,0,0,0,1.61.67c.9,0,1.46-.44,1.46-1.18a1,1,0,0,0-.31-.79,1.37,1.37,0,0,0-.82-.3l-.66-.1a2.07,2.07,0,0,1-1-.42,1.31,1.31,0,0,1-.44-1,1.55,1.55,0,0,1,1.76-1.56,2.16,2.16,0,0,1,1.62.62l-.27.28a1.76,1.76,0,0,0-1.38-.53c-.83,0-1.31.45-1.31,1.17a.91.91,0,0,0,.3.74,1.84,1.84,0,0,0,.84.35l.61.1a1.68,1.68,0,0,1,1,.37,1.39,1.39,0,0,1,.5,1.1C146.78,81.47,146.05,82.08,144.87,82.08Z"/><path class="cls-1" d="M149.7,82h-.43V76.74h-1.69v-.38h3.81v.38H149.7Z"/><path class="cls-1" d="M151.61,75.29H154v.37h-2.36Zm1,1.07H153V82h-.43Z"/><path class="cls-1" d="M156.89,82h-2.14V76.36h2.08a1.48,1.48,0,0,1,1.64,1.48,1.3,1.3,0,0,1-.88,1.28,1.37,1.37,0,0,1,1,1.36A1.48,1.48,0,0,1,156.89,82Zm-.1-5.29h-1.62v2.2h1.62c.68,0,1.25-.32,1.25-1.1S157.47,76.74,156.79,76.74Zm.06,2.59h-1.68v2.32h1.68a1.17,1.17,0,1,0,0-2.32Z"/><path class="cls-1" d="M163,80.65h-2.64l-.5,1.38h-.46l2.09-5.67h.38L163.93,82h-.46Zm-2.51-.38h2.37l-1.18-3.33Z"/><path class="cls-1" d="M166.59,82.08a2.43,2.43,0,0,1-1.88-.75l.3-.3a2,2,0,0,0,1.61.67c.9,0,1.46-.44,1.46-1.18a1,1,0,0,0-.31-.79,1.34,1.34,0,0,0-.82-.3l-.66-.1a2,2,0,0,1-1-.42,1.28,1.28,0,0,1-.45-1,1.55,1.55,0,0,1,1.76-1.56,2.22,2.22,0,0,1,1.63.62l-.28.28a1.76,1.76,0,0,0-1.38-.53,1.15,1.15,0,0,0-1.31,1.17.91.91,0,0,0,.3.74,1.84,1.84,0,0,0,.84.35l.61.1a1.68,1.68,0,0,1,1,.37,1.39,1.39,0,0,1,.5,1.1C168.51,81.47,167.78,82.08,166.59,82.08Z"/><path class="cls-1" d="M173.3,82.08a2.4,2.4,0,0,1-1.88-.75l.29-.3a2,2,0,0,0,1.61.67c.9,0,1.46-.44,1.46-1.18a1,1,0,0,0-.31-.79,1.32,1.32,0,0,0-.82-.3l-.66-.1a2,2,0,0,1-1-.42,1.28,1.28,0,0,1-.45-1,1.55,1.55,0,0,1,1.76-1.56,2.2,2.2,0,0,1,1.63.62l-.27.28a1.79,1.79,0,0,0-1.38-.53c-.83,0-1.32.45-1.32,1.17a.91.91,0,0,0,.3.74,1.94,1.94,0,0,0,.84.35l.62.1a1.71,1.71,0,0,1,1,.37,1.38,1.38,0,0,1,.49,1.1C175.21,81.47,174.49,82.08,173.3,82.08Z"/><path class="cls-1" d="M179.53,80.65h-2.64l-.5,1.38h-.46L178,76.36h.38L180.48,82H180ZM177,80.27h2.38l-1.19-3.33Z"/><path class="cls-1" d="M184.92,81.51a1.93,1.93,0,0,1-1.41.52H181.6V76.36h1.91a1.93,1.93,0,0,1,1.41.52,3,3,0,0,1,.55,2.24A3.41,3.41,0,0,1,184.92,81.51Zm-.3-4.33a1.6,1.6,0,0,0-1.22-.44H182v4.91h1.37a1.6,1.6,0,0,0,1.22-.44,3.29,3.29,0,0,0,.42-2.09A2.85,2.85,0,0,0,184.62,77.18Z"/><path class="cls-1" d="M189.81,80.65h-2.65L186.67,82h-.47l2.09-5.67h.38L190.76,82h-.46Zm-2.51-.38h2.37l-1.18-3.33Z"/><path class="cls-1" d="M193.87,79.42H192.3V82h-.42V76.36H194a1.53,1.53,0,0,1,.31,3L195.72,82h-.5Zm.11-2.68H192.3V79H194a1.15,1.15,0,1,0,0-2.3Z"/><path class="cls-1" d="M199.18,82H197V76.36h2.09a1.48,1.48,0,0,1,1.64,1.48,1.3,1.3,0,0,1-.89,1.28,1.36,1.36,0,0,1,1,1.36A1.47,1.47,0,0,1,199.18,82Zm-.11-5.29h-1.61v2.2h1.61c.69,0,1.26-.32,1.26-1.1S199.76,76.74,199.07,76.74Zm.07,2.59h-1.68v2.32h1.68a1.17,1.17,0,1,0,0-2.32Z"/><path class="cls-1" d="M201.26,75.29h2.36v.37h-2.36Zm1,1.07h.43V82h-.43Z"/><path class="cls-1" d="M206.55,82H204.4V76.36h2.09a1.47,1.47,0,0,1,1.63,1.48,1.29,1.29,0,0,1-.87,1.28,1.37,1.37,0,0,1,1,1.36A1.48,1.48,0,0,1,206.55,82Zm-.11-5.29h-1.61v2.2h1.61c.68,0,1.26-.32,1.26-1.1S207.12,76.74,206.44,76.74Zm.06,2.59h-1.67v2.32h1.67a1.17,1.17,0,1,0,0-2.32Z"/><path class="cls-1" d="M212.62,80.65H210L209.49,82H209l2.09-5.67h.38L213.58,82h-.46Zm-2.5-.38h2.37l-1.19-3.33Z"/><path class="cls-1" d="M214.71,76.36h.42V82h-.42Z"/><path class="cls-1" d="M72.3,73.59l-1.17,1.14a1.6,1.6,0,0,1-1.1.45H63.47v6.71H62v-15h8a1.55,1.55,0,0,1,1.07.45l1.22,1.16a1.56,1.56,0,0,1,.47,1.12v2.8A1.54,1.54,0,0,1,72.3,73.59Zm-.92-3.86a.43.43,0,0,0-.14-.32l-1-1a.41.41,0,0,0-.31-.14H63.47v5.46h6.47a.41.41,0,0,0,.31-.14l1-.94a.45.45,0,0,0,.14-.32Z"/><path class="cls-1" d="M103.14,79.51l-1.86,1.91a1.5,1.5,0,0,1-1.12.47H95a1.52,1.52,0,0,1-1.12-.46l-2.32-2.3,1-1,2.18,2.27a.44.44,0,0,0,.33.13h5a.44.44,0,0,0,.32-.13l1.7-1.77a.45.45,0,0,0,.14-.32V76.12a.41.41,0,0,0-.12-.3.48.48,0,0,0-.29-.15l-8.86-1.1a1.5,1.5,0,0,1-1-.51A1.53,1.53,0,0,1,91.51,73V70.38a1.58,1.58,0,0,1,.5-1.15l1.93-1.84A1.57,1.57,0,0,1,95,66.94h5.12a1.52,1.52,0,0,1,1.1.44l2.32,2.3-1,1-2.27-2.2a.41.41,0,0,0-.31-.14H95.11a.45.45,0,0,0-.32.14l-1.73,1.68a.42.42,0,0,0-.13.31v2.27A.44.44,0,0,0,93,73a.41.41,0,0,0,.29.15l8.87,1.1a1.59,1.59,0,0,1,1,.51,1.56,1.56,0,0,1,.4,1.06v2.58A1.59,1.59,0,0,1,103.14,79.51Z"/><path class="cls-1" d="M39.17,80.51H35a.39.39,0,0,1-.3-.13l-1.69-1.77a.42.42,0,0,1-.12-.26V66.93H31.54V78.38A1.58,1.58,0,0,0,32,79.46l.94,1v.07H33l.83.88a1.58,1.58,0,0,0,1.15.49h5.88V80.51Z"/><path class="cls-1" d="M120.76,65.72H108.32a.84.84,0,0,0-.83.84V82.28a.83.83,0,0,0,.83.83h12.44a.84.84,0,0,0,.84-.83V66.56A.85.85,0,0,0,120.76,65.72Zm-2.06,7.43.73.74-4.22,4.21v3.66h-1V78.1L110,73.89l.74-.74,3.48,3.49V74.33L110,70.11l.74-.73,3.48,3.49V70.55l-2.5-2.5.73-.73,1.77,1.77V66.94h1v2.15L117,67.32l.73.73-2.5,2.5v2.32l3.49-3.49.73.73-4.22,4.22v2.31Z"/><path class="cls-1" d="M87.05,81.89h1.51L83.39,67.47c-.14-.42-.7-.55-1.14-.55h-1c-.43,0-1,.13-1.13.55-.1.26-5.17,14.42-5.17,14.42h1.5s.67-1.9,1.5-4.28h7.57C86.39,80,87.05,81.89,87.05,81.89ZM78.48,76.2c1.27-3.64,2.69-7.69,2.7-7.73a.31.31,0,0,1,.29-.18h.6a.3.3,0,0,1,.28.18s1.44,4.09,2.71,7.73Z"/><path class="cls-1" d="M56.53,81.89H58L52.87,67.47c-.14-.42-.7-.55-1.14-.55h-1c-.43,0-1,.13-1.14.55L44.46,81.89H46s.67-1.9,1.5-4.28H55C55.87,80,56.53,81.89,56.53,81.89ZM48,76.2c1.27-3.64,2.69-7.69,2.7-7.73a.31.31,0,0,1,.29-.18h.6a.3.3,0,0,1,.28.18s1.43,4.09,2.71,7.73Z"/></svg>