<svg id="Layer_1" data-name="Layer 1" xmlns="http://www.w3.org/2000/svg" viewBox="0 0 253.99 144.87"><defs><style>.cls-1{fill:#1b181c;}</style></defs><title>latvija-var</title><path class="cls-1" d="M160.91,78.87c-.08.32-.12.63-.19.95a2.39,2.39,0,0,0-.11.65c-.19,0-.77.12-.89,0,.3-.17.34-.84.4-1.13a13.48,13.48,0,0,1,.38-1.55c.64-2,1.85-4,1.73-6.17-.07-1.25-.77-1.63-1.67-2.34s-1.28-3.15-1.21-4.14c0-.42,0-.84.05-1.27,0-.21,0-.43,0-.65s.12-.39.15-.6a3.29,3.29,0,0,1,.19-.9,3.1,3.1,0,0,1,.87-1.44c.41-.34,1.26.19,1.52.46a5.51,5.51,0,0,1,1.16,1.63,9.19,9.19,0,0,1,.76,4.14A11.91,11.91,0,0,1,163.2,70a3.34,3.34,0,0,0-.27,1.31c.23-.57.68-1,.92-1.57a13.08,13.08,0,0,1,.7-1.69,6,6,0,0,0,.74-1.94,10.94,10.94,0,0,0-.35-2.33,9.68,9.68,0,0,1,2.82-8c1.06-1,2.45-2.25,4-2.38,2.23-.18,1.53,5.5.9,6.86a14.57,14.57,0,0,1-2.43,4.18,7.06,7.06,0,0,1-2.89,2c-.7.24-1.25.23-1.59.92-.19.39-.85,1.2-.74,1.66-.07-.25,2.74-1.81,3-2a6.39,6.39,0,0,1,6.71-.46c.72.44,1.79,1,2,1.93.13.52-1.4.3-1.71.47-1.69.87-3.06,1.84-5,2-1.12.08-2.59.39-3.58-.33-2.29-1.65-3,1.84-3.47,3.35-.39,1.14-.93,2.22-1.4,3.33A17.45,17.45,0,0,0,160.91,78.87Z"/><path class="cls-1" d="M124.28,100.76h-4.15l-7.8-21.17h5.56l4.31,13.08,4.27-13.08H132Z"/><path class="cls-1" d="M143.22,100.76V98.93a6.4,6.4,0,0,1-5.2,2,7.23,7.23,0,0,1-5.41-1.86,6.83,6.83,0,0,1-1.74-4.76c0-3.37,2.31-6.14,7.23-6.14h5v-1c0-2.32-1.14-3.34-3.94-3.34a4.55,4.55,0,0,0-4.07,1.75l-3.37-3.29c2.07-2.28,4.1-2.93,7.64-2.93,5.93,0,9,2.52,9,7.48v13.94Zm-.12-8.94h-4.19c-1.91,0-3,.89-3,2.4s1,2.44,3.06,2.44a4.17,4.17,0,0,0,3.33-1A3.47,3.47,0,0,0,143.1,93Z"/><path class="cls-1" d="M161.35,85.36a3.49,3.49,0,0,0-2.8-1.26c-1.63,0-3.42,1.22-3.42,3.9v12.76h-5.28V79.59H155v2a7.18,7.18,0,0,1,5.33-2.28,6.38,6.38,0,0,1,5,2Z"/><rect class="cls-1" x="123.65" y="55.46" width="5.21" height="21.34"/><path class="cls-1" d="M71,76.63a5.75,5.75,0,0,1-6.18-6V47.69h5.29V70.25c0,1.26.53,1.91,1.87,1.91h2v4.47Z"/><path class="cls-1" d="M86.65,76.63V74.8a6.43,6.43,0,0,1-5.2,2A7.23,7.23,0,0,1,76,75a6.75,6.75,0,0,1-1.75-4.75c0-3.38,2.32-6.14,7.24-6.14h5V63c0-2.31-1.14-3.33-3.94-3.33a4.55,4.55,0,0,0-4.07,1.75l-3.37-3.29c2.07-2.28,4.1-2.93,7.64-2.93,5.94,0,9,2.52,9,7.48V76.63Zm-.12-8.94H82.34c-1.91,0-3,.89-3,2.4s1,2.44,3,2.44a4.22,4.22,0,0,0,3.34-1,3.47,3.47,0,0,0,.77-2.68Z"/><path class="cls-1" d="M100.31,76.63a5.74,5.74,0,0,1-6.14-6V60.09H91.93v-4h2.24V49.8h5.28v6.27h3.74v4H99.45V70.25c0,1.22.57,1.91,1.83,1.91h1.91v4.47Z"/><path class="cls-1" d="M115.49,76.63h-4.15l-7.8-21.18h5.56l4.31,13.09,4.27-13.09h5.57Z"/><path class="cls-1" d="M132.9,76.83h-3V72.36h2c1.35,0,1.87-.65,1.87-1.91v-15h5.29V70.78A5.75,5.75,0,0,1,132.9,76.83Z"/><path class="cls-1" d="M152.17,76.63V74.8a6.43,6.43,0,0,1-5.2,2A7.23,7.23,0,0,1,141.56,75a6.79,6.79,0,0,1-1.74-4.75c0-3.38,2.31-6.14,7.23-6.14h5V63c0-2.31-1.14-3.33-3.94-3.33A4.56,4.56,0,0,0,144,61.43l-3.37-3.29c2.07-2.28,4.11-2.93,7.64-2.93,5.93,0,9,2.52,9,7.48V76.63Zm-.12-8.94h-4.18c-1.92,0-3,.89-3,2.4s1,2.44,3,2.44a4.21,4.21,0,0,0,3.33-1,3.47,3.47,0,0,0,.77-2.68Z"/><path class="cls-1" d="M129,51.18a2.7,2.7,0,1,1-2.69-2.7A2.7,2.7,0,0,1,129,51.18Z"/><path class="cls-1" d="M139.08,51.18a2.7,2.7,0,1,1-2.7-2.7A2.7,2.7,0,0,1,139.08,51.18Z"/><path class="cls-1" d="M171.39,92.71a.75.75,0,0,1-.71.7h-2.43a.75.75,0,0,1-.71-.7l-1.1-18.48a.64.64,0,0,1,.62-.7h4.81a.64.64,0,0,1,.62.7Z"/><path class="cls-1" d="M172.16,98.06a2.7,2.7,0,1,1-2.7-2.7A2.7,2.7,0,0,1,172.16,98.06Z"/></svg>