<svg id="Layer_1" data-name="Layer 1" xmlns="http://www.w3.org/2000/svg" viewBox="0 0 253.99 144.87"><defs><style>.cls-1{fill:#1b181c;}</style></defs><title>makslai</title><path class="cls-1" d="M96.5,98.73a.92.92,0,0,1-.92-.92V46.26H54.71V96.88h7.63V53a.75.75,0,0,1,0-.26l.07-.17h0l0,0v0l0,0,.05-.1h0l0,0h0a.74.74,0,0,1,.21-.13.86.86,0,0,1,.36-.08H84.69a.92.92,0,0,1,.92.92V97.81a.92.92,0,0,1-.92.92H73.91a.93.93,0,0,1-.93-.92V58.1l-8.79-3.17V97.81a.93.93,0,0,1-.93.92H53.79a.92.92,0,0,1-.92-.92V45.34a.92.92,0,0,1,.92-.92h42.8a.85.85,0,0,1,.36.12l9.83,4.21.08,0,0,.08a1,1,0,0,1,.13.47V97.81a.93.93,0,0,1-.93.92Zm8.69-1.85V50l-7.77-3.06V96.88Zm-21.42,0V54H66.45l8,2.94,0,0a.92.92,0,0,1,.3.68V96.88Z"/><path class="cls-1" d="M73.91,58.55a.92.92,0,1,1,0-1.84H84.69a.92.92,0,1,1,0,1.84Z"/><path class="cls-1" d="M123.57,67.68v-7L121,66.22h-.84l-2.57-5.56v7h-1V58.43h1l3,6.56,2.93-6.56h1v9.25Z"/><path class="cls-1" d="M136.52,67.68l-.74-2.09h-4L131,67.68H130l3.4-9.25h.83l3.39,9.25Zm-4.72-11.1h3.9v.74h-3.9Zm2,3.27L132,64.73h3.46Z"/><path class="cls-1" d="M148.71,67.68l-2.81-4.92-2,2.34v2.58h-1V58.43h1v5.31l4.31-5.31h1.21L146.56,62l3.32,5.68Z"/><path class="cls-1" d="M157.68,67.75a4,4,0,0,1-3.17-1.21l.67-.68a3.17,3.17,0,0,0,2.52,1c1.35,0,2.18-.63,2.18-1.71a1.49,1.49,0,0,0-.44-1.16,2,2,0,0,0-1.21-.44l-1.07-.17a3.36,3.36,0,0,1-1.71-.7,2.2,2.2,0,0,1-.7-1.72c0-1.57,1.13-2.61,3-2.61a3.72,3.72,0,0,1,2.75,1l-.64.64a2.87,2.87,0,0,0-2.15-.8,1.71,1.71,0,0,0-2,1.72,1.34,1.34,0,0,0,.41,1.06,2.68,2.68,0,0,0,1.25.51l1,.15a3,3,0,0,1,1.69.65,2.31,2.31,0,0,1,.78,1.83C160.87,66.76,159.6,67.75,157.68,67.75Z"/><path class="cls-1" d="M166.83,67.68V58.43h1V66.8h4.73v.88Z"/><path class="cls-1" d="M183.56,67.68l-.74-2.09h-4L178,67.68h-1l3.4-9.25h.83l3.39,9.25Zm-2.74-7.83-1.74,4.88h3.45Z"/><path class="cls-1" d="M190,67.68V58.43h1v9.25Z"/><path class="cls-1" d="M119.74,83.26h-1.35l-3-9.24h1.87l1.86,6,1.86-6h1.88Z"/><path class="cls-1" d="M132.63,83.26l-.55-1.64H128.8l-.56,1.64h-1.89L129.72,74h1.41l3.38,9.24Zm-2.16-6.52L129.3,80.1h2.3Z"/><path class="cls-1" d="M140.94,83.34a3,3,0,0,1-2.38-1l1.2-1.18a1.45,1.45,0,0,0,1.18.52c.88,0,1.45-.52,1.45-1.58V74h1.81v6.2A3.05,3.05,0,0,1,140.94,83.34Z"/><path class="cls-1" d="M155.26,83.26l-.55-1.64h-3.28l-.56,1.64H149L152.35,74h1.42l3.37,9.24Zm-2.16-6.52-1.16,3.36h2.3Z"/><path class="cls-1" d="M167.75,82.29a3.67,3.67,0,0,1-5.1,0,2.69,2.69,0,0,1-.75-1.39,16.61,16.61,0,0,1,0-4.6,2.61,2.61,0,0,1,.75-1.39,3.42,3.42,0,0,1,2.49-1,3.3,3.3,0,0,1,3.48,3H166.8a1.56,1.56,0,0,0-1.66-1.35A1.47,1.47,0,0,0,164,76c-.34.43-.44.77-.44,2.6s.07,2.18.44,2.61a1.4,1.4,0,0,0,1.15.48,1.69,1.69,0,0,0,1.29-.52,1.81,1.81,0,0,0,.41-1.23v-.36h-1.7v-1.5h3.5v1.35A3.7,3.7,0,0,1,167.75,82.29Z"/><path class="cls-1" d="M119.35,90.48v8.37h-1V90.48h-2.68V89.6H122v.88Z"/><path class="cls-1" d="M127.65,98.85V89.6h5.74v.88h-4.75v3.26h4.05v.89h-4.05V98h4.75v.89Z"/><path class="cls-1" d="M139.34,98.85V89.6h1V98h4.72v.89Z"/><path class="cls-1" d="M154.12,95h-2.46v3.81h-1V89.6h3.44a2.72,2.72,0,1,1,0,5.44ZM154,90.48h-2.37v3.68H154a1.84,1.84,0,1,0,0-3.68Z"/><path class="cls-1" d="M165.85,98.92a3.05,3.05,0,0,1-3.23-3.13V89.6h1v6.12a2.24,2.24,0,1,0,4.48,0V89.6h1v6.19A3.06,3.06,0,0,1,165.85,98.92Z"/></svg>