<svg id="Layer_1" data-name="Layer 1" xmlns="http://www.w3.org/2000/svg" viewBox="0 0 253.99 144.87"><defs><style>.cls-1{fill:#010101;}.cls-2{fill:#fff;}</style></defs><title>positivus-ab</title><path class="cls-1" d="M210.22,83.06a7.81,7.81,0,0,0,.92-1.16c.19-.37.69-.81.72-1.2,0-.1,0-.2,0-.3.09-1.88.18-3.73.44-5.6s.13-3.86.23-5.77c0-.52.06-1.06.1-1.58a1.35,1.35,0,0,0,0-.72c-.07-.14-.21-.22-.29-.37a3.57,3.57,0,0,0-.25-.47,6.4,6.4,0,0,0-.56-.6c-.32-.32-.43-.81-.75-1.16-.18-.19-.38-.34-.55-.53a6.23,6.23,0,0,1-.75-1,1.11,1.11,0,0,0-.28-.42,1,1,0,0,0-.25-.13c-.11-.1-.15-.29-.25-.41a5.09,5.09,0,0,0-1.13-1,2,2,0,0,0-1-.22c-.72-.07-1.43-.11-2.16-.11h-1a2.15,2.15,0,0,0-.51,0,.81.81,0,0,1-.35.06,1.24,1.24,0,0,1-.68-.42c-.14-.13-.34-.18-.47-.32s-.2-.24-.33-.35a8.5,8.5,0,0,1-.78-1,11.84,11.84,0,0,1-1-1.27,6.31,6.31,0,0,0-1-1.18l-.36-.28a3.39,3.39,0,0,1-.32-.35,1,1,0,0,0-.3-.18c-.54-.21-1.17.08-1.72.14a10.46,10.46,0,0,1-1.92-.28c-.84-.06-1.66,0-2.5,0H184a22.32,22.32,0,0,0-3.47,0c-.5.08-1.06,0-1.45.36a2.9,2.9,0,0,0-.44.6c-.21.26-.49.39-.64.69s0,.18-.16.32-.38.23-.52.39c-.28.31-.21.43-.67.42-.78,0-1.56,0-2.34,0h-17a11.89,11.89,0,0,0-1.79,0c-.33.06-.39.16-.62.39-.08.09-.16.16-.24.24a2.8,2.8,0,0,0-.43.47,1.37,1.37,0,0,1-1.4.74h-6.76c-.85,0-1.7,0-2.55,0s-1.77.14-2.66.15l-2.87,0c-2.3,0-4.65-.17-6.95,0a15.43,15.43,0,0,0-1.9.45,15.69,15.69,0,0,1-3.14.1c-1.53,0-3.06-.15-4.59-.14-1.15,0-2.28-.13-3.43-.15s-2.36,0-3.54,0c-.68,0-1.36,0-2,0s-1.53-.13-2.31-.15a43.75,43.75,0,0,1-4.86-.1c-1.21-.16-2.42-.13-3.63-.21-.79-.05-1.57-.1-2.36-.1a15.32,15.32,0,0,1-2.71,0,.4.4,0,0,0-.19-.11,2.94,2.94,0,0,0-.42,0,1.89,1.89,0,0,1-.82,0c-.14-.08-.2-.27-.27-.4a3.25,3.25,0,0,1-.46-.81,3.8,3.8,0,0,0-.6-1.27c-.45-.53-1.34-.45-2-.45H88.33a8.62,8.62,0,0,0-3,.15,7.45,7.45,0,0,1-2.75.26c-.77,0-1.48-.14-2.27-.14s-1.49,0-2.24,0-1.18-.15-1.81-.15H61.6c-1.58,0-3.18,0-4.76,0-.55,0-1.09.13-1.65.15s-1.23,0-1.85,0H51.07a8.12,8.12,0,0,0-2.09.15.76.76,0,0,0-.51.31c-.1.14-.12.32-.27.43s-.22.08-.33.27,0,.26-.16.39a.75.75,0,0,1-.33.17,3.61,3.61,0,0,0-.67.75,1,1,0,0,1-.45.38c-.37.19-.54.59-.91.75a2.5,2.5,0,0,1-1,.06,10.71,10.71,0,0,0-1.79,0c-.19,0-.34.14-.53.16s-.47,0-.72,0c-.46.07-1.35.2-1.44.68,0,.18,0,.39,0,.58s-.1.22-.12.3,0,.45,0,.67a20.85,20.85,0,0,1-.49,2A7.63,7.63,0,0,0,39.16,67c0,1.44,0,2.89,0,4.33s.24,2.73.29,4.09c0,1.16.07,2.31.13,3.48,0,.55.19,1.09.25,1.64s.05.88.14,1.33a22.29,22.29,0,0,1,.17,3.83c0,.55.16,1.08.15,1.65s.3.7.84.7a10.88,10.88,0,0,1,1.12.11,18.71,18.71,0,0,0,2.12,0c.25,0,.89-.12,1.1.06a6.52,6.52,0,0,1,.3.64c.12.22.15.52.34.68l.27.13c.09.09.06.19.15.29s.29.19.4.42a1.3,1.3,0,0,0,.35.49c.1.08.17.21.27.28a2.21,2.21,0,0,0,1.56.12,11.92,11.92,0,0,1,1.89.12,5.57,5.57,0,0,1,1.08.11,27.66,27.66,0,0,0,5.07.18,17.93,17.93,0,0,0,1.94,0c.73-.08.85-.56,1.18-1.09.15-.24.35-.29.53-.49a.44.44,0,0,0,.17-.25c.16-.15.36-.13.52-.28s.16-.5.36-.68.24-.08.33-.19.07-.28.23-.38a5.63,5.63,0,0,1,.92,0,7.74,7.74,0,0,1,1.67.14,6.18,6.18,0,0,0,1.77.14c1.56,0,3.12,0,4.68,0s2.85.14,4.28.15c1.86,0,3.72-.15,5.58-.15,4.74,0,9.49,0,14.24,0,3.11,0,6.21.09,9.33.09.38,0,.65-.11.82.26s.47.73.65,1.14.54,1,.76,1.56c.41,1,.89,2,1.35,3a15.19,15.19,0,0,1,.83,1.85c.12.38.15,1,.39,1.23s.73.15,1.08.22a6.2,6.2,0,0,0,1.14.11c2.14,0,4.29.06,6.42.06h11.07c3.37,0,6.74,0,10.11,0,3.57,0,7.12-.37,10.69-.43,1.45,0,2.89-.13,4.34-.13,2,0,4,0,5.95.11s3.72.06,5.59.06H168a14.16,14.16,0,0,0,1.44-.18c.71-.07,1.43,0,2.14,0s.42-.56.55-1a8.28,8.28,0,0,1,.57-1.29c.35-.76.81-1.5,1.11-2.29a4.89,4.89,0,0,1,.54-1.1c.23-.34.44-.66.65-1a2,2,0,0,1,.54-.51,2.26,2.26,0,0,1,1.27-.19c.73,0,1.46-.2,2.19-.2a17.13,17.13,0,0,1,2.38,0,6.88,6.88,0,0,0,1.36,0q.75,0,1.5-.06c1.5,0,3-.17,4.51-.19,2.63,0,5.25,0,7.88,0h1.27c.68,0,1.36,0,2,0,.5,0,1,0,1.52-.08s.94-.24,1.44-.26a8,8,0,0,0,1,0,2.29,2.29,0,0,0,1.24-.9,9.38,9.38,0,0,0,1.08-1.28A8.68,8.68,0,0,1,207.42,86c.17-.17.31-.35.47-.53a4.07,4.07,0,0,1,.48-.33"/><path class="cls-2" d="M74.39,70.25a6.24,6.24,0,0,1,.66,3,6.73,6.73,0,0,1-.68,3.15,2.27,2.27,0,0,1-2,1.45h-4a2.29,2.29,0,0,1-2-1.45,6.73,6.73,0,0,1-.66-3.15,6.24,6.24,0,0,1,.66-3,2.25,2.25,0,0,1,2-1.37h4A2.26,2.26,0,0,1,74.39,70.25Zm4.37,3.33a9.9,9.9,0,0,0-1.45-5.49A5,5,0,0,0,73,65.58H67.83a5,5,0,0,0-4.32,2.51A9.9,9.9,0,0,0,62,73.58a9.17,9.17,0,0,0,1.45,5.31,4.92,4.92,0,0,0,4.34,2.41H73a5,5,0,0,0,4.37-2.41A9.47,9.47,0,0,0,78.76,73.58Z"/><path class="cls-2" d="M83.91,77.53a1,1,0,0,0,.88.42h9V81.3H84.24a3.78,3.78,0,0,1-3.16-1.5,5.46,5.46,0,0,1-1-3.3,5.38,5.38,0,0,1,1-3.31,3.79,3.79,0,0,1,3.16-1.48h5.27a1.08,1.08,0,0,0,.9-.41,1.48,1.48,0,0,0,.31-1,1.59,1.59,0,0,0-.31-1,1.15,1.15,0,0,0-.9-.46H81v-3.3h9.08a3.83,3.83,0,0,1,3.17,1.49,5.65,5.65,0,0,1,0,6.56,3.82,3.82,0,0,1-3.17,1.47H84.79a1.06,1.06,0,0,0-.86.4,1.66,1.66,0,0,0-.29,1A1.77,1.77,0,0,0,83.91,77.53Z"/><rect class="cls-2" x="96.12" y="65.58" width="3.48" height="15.72"/><polygon class="cls-2" points="114.06 68.88 109.48 68.88 109.48 81.3 106.05 81.3 106.05 68.88 101.49 68.88 101.49 65.58 114.06 65.58 114.06 68.88"/><path class="cls-2" d="M124.42,65.58l4,12.12a.35.35,0,0,0,.34.25.32.32,0,0,0,.34-.24l4-12.13h3.76c-.35,1.12-.79,2.62-1.4,4.46q-1.06,3.48-2,6.35a37.44,37.44,0,0,1-1.29,3.55,3,3,0,0,1-1.43,1.17,5.17,5.17,0,0,1-1.91.35,4.92,4.92,0,0,1-1.93-.35,2.9,2.9,0,0,1-1.41-1.17,31.82,31.82,0,0,1-1.34-3.51c-.44-1.35-1.13-3.45-2-6.36-.75-2.41-1.23-3.92-1.41-4.49Z"/><rect class="cls-2" x="115.79" y="65.58" width="3.47" height="15.72"/><rect class="cls-2" x="125.03" y="90.39" width="5.78" height="1.15"/><rect class="cls-2" x="125.03" y="87.59" width="5.78" height="1.15"/><polygon class="cls-2" points="130.82 85.76 125.42 85.76 125.03 85.76 119.64 85.76 119.64 87.41 124.28 87.41 124.28 88.56 119.64 88.56 119.64 91.81 118.49 90.96 118.49 84.61 125.03 84.61 125.42 84.61 130.82 84.61 130.82 85.76"/><path class="cls-2" d="M134.21,91.59a4.31,4.31,0,0,1-1.2-.16,3,3,0,0,1-1.75-1.28l1.06-.74a2.25,2.25,0,0,0,2.09,1,2.06,2.06,0,0,0,.73-.11.8.8,0,0,0,.57-.78.69.69,0,0,0-.5-.67c-.16-.05-.17-.06-.79-.21l-.81-.17a6.21,6.21,0,0,1-.85-.24,1.71,1.71,0,0,1-1.13-1.65c0-1.28,1.07-2.1,2.66-2.1A3.14,3.14,0,0,1,137,85.86l-1,.78a2,2,0,0,0-1.75-1c-.68,0-1.27.3-1.27.82s.63.68,1.24.8l.7.15c.91.19,2.19.56,2.19,2S135.65,91.59,134.21,91.59Z"/><polygon class="cls-2" points="143.29 85.76 140.97 85.76 140.97 91.31 139.82 91.31 139.82 85.76 137.51 85.76 137.51 84.61 143.29 84.61 143.29 85.76"/><rect class="cls-2" x="143.85" y="84.62" width="1.14" height="6.74"/><path class="cls-2" d="M140.57,80a5.23,5.23,0,0,1-2.08-4.37V65.58h3.45V75.1A3,3,0,0,0,143,77.48a4.09,4.09,0,0,0,2.47.7,4.17,4.17,0,0,0,2.33-.66,2.77,2.77,0,0,0,1-2.21V65.58h3.35V75.66A5.33,5.33,0,0,1,150,80.08a7.57,7.57,0,0,1-4.76,1.39A7.37,7.37,0,0,1,140.57,80Z"/><rect class="cls-2" x="151.63" y="83.35" width="3.34" height="0.71"/><polygon class="cls-2" points="147.71 91.36 145.41 84.61 146.52 84.62 148.43 90.41 150.35 84.63 151.45 84.63 149.14 91.35 147.71 91.36"/><path class="cls-2" d="M153.3,85.56l1.13,3.36h-2.27Zm3,5.8-2.28-6.75h-1.51l-2.26,6.72h1.1l.47-1.44h2.9l.46,1.45Z"/><path class="cls-2" d="M154.58,79.8a5.33,5.33,0,0,1-1.05-3.3,5.26,5.26,0,0,1,1.05-3.31,3.79,3.79,0,0,1,3.16-1.48H163a1.06,1.06,0,0,0,.9-.41,1.48,1.48,0,0,0,.32-1,1.6,1.6,0,0,0-.32-1,1.1,1.1,0,0,0-.9-.46h-8.5v-3.3h9.09a3.84,3.84,0,0,1,3.16,1.49,5.65,5.65,0,0,1,0,6.56,3.84,3.84,0,0,1-3.16,1.47h-5.3a1.06,1.06,0,0,0-.87.4,1.73,1.73,0,0,0-.29,1,1.71,1.71,0,0,0,.32,1,1,1,0,0,0,.84.45h9.37V81.3h-9.92A3.78,3.78,0,0,1,154.58,79.8Z"/><polygon class="cls-2" points="161.65 91.36 158.08 91.36 156.94 91.36 156.94 90.22 156.94 84.62 158.08 84.62 158.08 90.22 161.65 90.22 161.65 91.36"/><path class="cls-2" d="M165.06,91.59a4.36,4.36,0,0,1-1.2-.16,3,3,0,0,1-1.75-1.28l1.06-.74a2.27,2.27,0,0,0,2.1,1,2,2,0,0,0,.72-.11.82.82,0,0,0,.58-.78.7.7,0,0,0-.51-.67,7.65,7.65,0,0,0-.78-.21l-.81-.17a6,6,0,0,1-.86-.24,1.71,1.71,0,0,1-1.13-1.65c0-1.28,1.08-2.1,2.66-2.1a3.17,3.17,0,0,1,2.72,1.36l-1,.78a2,2,0,0,0-1.75-1c-.69,0-1.28.3-1.28.82s.64.68,1.25.8l.69.15c.91.19,2.19.56,2.19,2S166.5,91.59,165.06,91.59Z"/><path class="cls-2" d="M190,67.59h2.1c2.1,0,2.77,1,2.76,2.23,0,1.7-1.1,2.54-3.36,2.53H190Z"/><polygon class="cls-2" points="180.33 74.67 175.38 74.65 177.78 68.89 180.33 74.67"/><polygon class="cls-2" points="171.44 78.32 171.5 65.58 176.94 65.6 171.44 78.32"/><polygon class="cls-2" points="172.5 81.31 174.49 76.7 181.26 76.73 183.32 81.35 172.5 81.31"/><polygon class="cls-2" points="187.68 81.37 185.66 81.36 178.73 65.61 187.74 65.64 187.68 81.37"/><path class="cls-2" d="M192.84,79.41H190l0-5h2.75c2.41,0,3.52,1,3.52,2.49C196.25,78.09,195.52,79.42,192.84,79.41Z"/><path class="cls-2" d="M201.51,81.42h-.82v-2.5h0a1.4,1.4,0,0,0-1.41,1.39,1.38,1.38,0,0,0,.56,1.11l-5.5,0c3.1-.4,4.28-2.4,4.28-4.15,0-2.15-1.43-3.72-3.81-4.22a3.39,3.39,0,0,0,2.44-3.4,4,4,0,0,0-3.54-4l7.05,0-.05,13.22a1.39,1.39,0,0,1,.81,2.51Z"/><path class="cls-2" d="M60.35,81.3H56.92V77.46a2.55,2.55,0,0,0-.42-1.6,2,2,0,0,0-1.78-.76H50a3.84,3.84,0,0,1-3.14-1.51,5.59,5.59,0,0,1,0-6.52A3.77,3.77,0,0,1,50,65.58H60.35Zm-10.71-12a1.5,1.5,0,0,0-.34,1,1.44,1.44,0,0,0,.34,1,1.06,1.06,0,0,0,.91.43h5.68a5.68,5.68,0,0,1,.72,0V68.88h-6.4A1.11,1.11,0,0,0,49.64,69.34Z"/></svg>