<svg id="Layer_1" data-name="Layer 1" xmlns="http://www.w3.org/2000/svg" viewBox="0 0 253.99 144.87"><defs><style>.cls-1{fill:#1b181c;}.cls-2{fill:#fff;}</style></defs><title>reformu</title><rect class="cls-1" x="62.25" y="51.27" width="43.58" height="42.78" rx="4.5" ry="4.5"/><path class="cls-2" d="M94.93,65.4,71.58,88.83l-3.71-3.7,23.3-23.39H72.92V56.49h27.24l.06,27.18-5.25,0Z"/><path class="cls-1" d="M128.38,69.15h-2.7c-.24,0-.33-.22-.44-.44l-3.19-5.91h-.31c-.57,0-1.45-.06-2-.08v6a.43.43,0,0,1-.42.44h-2.22a.44.44,0,0,1-.44-.44V53.49c0-.44.27-.59.71-.66a29.71,29.71,0,0,1,4.33-.29c3.41,0,6.37,1.22,6.37,5v.2a4.49,4.49,0,0,1-3,4.51l3.47,6.46a.31.31,0,0,1,0,.18A.24.24,0,0,1,128.38,69.15Zm-3.32-11.61c0-1.66-1.1-2.37-3.32-2.37-.46,0-1.57,0-2,.09v5c.35,0,1.59.07,2,.07,2.28,0,3.32-.62,3.32-2.57Z"/><path class="cls-1" d="M140.22,63.93H133V64a2.49,2.49,0,0,0,2.65,2.81c1.62,0,3.15-.14,4.07-.22h.07c.22,0,.4.11.4.33v1.46c0,.35-.07.51-.47.57a19.37,19.37,0,0,1-4.29.38c-2.21,0-5.35-1.2-5.35-5.55V62.14c0-3.45,1.93-5.62,5.31-5.62s5.26,2.32,5.26,5.62v1.24C140.66,63.73,140.53,63.93,140.22,63.93Zm-2.5-2.17c0-1.72-.95-2.72-2.32-2.72S133,60,133,61.76v.09h4.69Z"/><path class="cls-1" d="M149.53,54.27h-1c-1.06,0-1.31.24-1.31,1.32v1.09h2.13a.44.44,0,0,1,.44.44v1.33a.43.43,0,0,1-.44.42h-2.13v9.81a.46.46,0,0,1-.44.47h-2a.48.48,0,0,1-.47-.47V58.87l-2-.31c-.24-.05-.44-.18-.44-.42v-1a.44.44,0,0,1,.44-.44h2V55.59c0-2.85,1.53-3.53,3.83-3.53a5.81,5.81,0,0,1,1.33.17c.17.05.39.16.39.36v1.3A.34.34,0,0,1,149.53,54.27Z"/><path class="cls-1" d="M156.5,69.33c-3.47,0-5.29-2.34-5.29-5.51V62c0-3.16,1.82-5.51,5.29-5.51s5.28,2.35,5.28,5.51v1.79C161.78,67,160,69.33,156.5,69.33Zm2.37-7.3c0-1.81-.82-3-2.37-3s-2.37,1.18-2.37,3v1.79c0,1.81.82,3,2.37,3s2.37-1.18,2.37-3Z"/><path class="cls-1" d="M170.18,59a6.24,6.24,0,0,0-3.06.8v8.88a.46.46,0,0,1-.44.47h-2a.46.46,0,0,1-.44-.47V57.12a.44.44,0,0,1,.44-.44h1.92a.44.44,0,0,1,.44.44v.47a5.12,5.12,0,0,1,3.17-1.07.45.45,0,0,1,.44.45v1.59A.44.44,0,0,1,170.18,59Z"/><path class="cls-1" d="M188,69.15h-2a.46.46,0,0,1-.44-.47V61.17c0-1.7-.35-2.15-1.59-2.15a4.93,4.93,0,0,0-2,.55,13.6,13.6,0,0,1,.08,1.6v7.51a.46.46,0,0,1-.44.47h-2a.46.46,0,0,1-.44-.47V61.17c0-1.7-.29-2.15-1.53-2.15a5,5,0,0,0-2,.73v8.93a.46.46,0,0,1-.44.47h-2a.46.46,0,0,1-.44-.47V57.12a.44.44,0,0,1,.44-.44h1.92a.44.44,0,0,1,.44.44v.47a5.53,5.53,0,0,1,3.17-1.07,3.11,3.11,0,0,1,2.58,1,6.93,6.93,0,0,1,3.65-1c3,0,3.67,2.06,3.67,4.65v7.51A.46.46,0,0,1,188,69.15Z"/><path class="cls-1" d="M201,69.15h-2a.44.44,0,0,1-.44-.44V68.2A5.7,5.7,0,0,1,195,69.31a3.78,3.78,0,0,1-2.72-.93c-.82-.82-1.1-2.19-1.1-4V57.14a.46.46,0,0,1,.44-.46h2a.45.45,0,0,1,.44.46v7.21c0,1.11.09,1.75.51,2.12a1.9,1.9,0,0,0,1.37.4,6.21,6.21,0,0,0,2.5-.88V57.14a.46.46,0,0,1,.44-.46h2a.46.46,0,0,1,.44.46V68.71A.44.44,0,0,1,201,69.15Z"/><path class="cls-1" d="M121.74,86.83c-.57,0-1.45-.06-2-.08v5.77a.43.43,0,0,1-.42.44h-2.22a.44.44,0,0,1-.44-.44V77.3c0-.44.27-.6.71-.66a29.71,29.71,0,0,1,4.33-.29c3.41,0,6.37,1.19,6.37,5.11v.2C128.11,85.57,125.15,86.83,121.74,86.83Zm3.32-5.37c0-1.86-1.1-2.57-3.32-2.57-.46,0-1.57,0-2,.09v5.27c.35,0,1.59.06,2,.06,2.39,0,3.32-.88,3.32-2.65Z"/><path class="cls-1" d="M139,93h-1.88a.44.44,0,0,1-.44-.44v-.36a6,6,0,0,1-3.11,1c-1.84,0-3.83-.71-3.83-3.7v-.09c0-2.52,1.55-3.82,5.4-3.82h1.39v-1c0-1.43-.64-1.79-1.95-1.79a34.3,34.3,0,0,0-3.6.18h-.11c-.23,0-.4-.07-.4-.38V81.15c0-.24.13-.4.42-.47a19.67,19.67,0,0,1,3.69-.35c3.14,0,4.87,1.39,4.87,4.22v8A.45.45,0,0,1,139,93Zm-2.47-5.48h-1.39c-2,0-2.46.64-2.46,1.87v.09c0,1.09.49,1.37,1.59,1.37a4.77,4.77,0,0,0,2.26-.62Z"/><path class="cls-1" d="M148.14,82.81a6.34,6.34,0,0,0-3,.79v8.89a.46.46,0,0,1-.44.47h-2a.47.47,0,0,1-.45-.47V80.93a.44.44,0,0,1,.45-.44h1.92a.44.44,0,0,1,.44.44v.46a5.16,5.16,0,0,1,3.16-1.06.45.45,0,0,1,.45.44v1.6A.45.45,0,0,1,148.14,82.81Z"/><path class="cls-1" d="M157.6,93a9,9,0,0,1-1.51.16c-2.49,0-3.51-.56-3.51-3.52v-7l-2.08-.3a.47.47,0,0,1-.44-.45v-1a.43.43,0,0,1,.44-.44h2.08V78.67c0-.24.2-.39.44-.44l2.06-.35h.08a.32.32,0,0,1,.36.33v2.28h2a.44.44,0,0,1,.44.44v1.3a.44.44,0,0,1-.44.44h-2v7c0,1.1.07,1.24.86,1.24h1.17c.29,0,.47.11.47.33v1.39C158,92.8,157.89,92.94,157.6,93Z"/><path class="cls-1" d="M162.58,78.83h-2.15a.46.46,0,0,1-.46-.45V76.44a.46.46,0,0,1,.46-.44h2.15a.44.44,0,0,1,.44.44v1.94A.45.45,0,0,1,162.58,78.83ZM162.51,93h-2a.46.46,0,0,1-.44-.47V80.93a.44.44,0,0,1,.44-.44h2a.44.44,0,0,1,.45.44V92.49A.47.47,0,0,1,162.51,93Z"/><path class="cls-1" d="M165.47,97.38a8.52,8.52,0,0,1-1.47-.13c-.28,0-.42-.18-.42-.4V95.41c0-.22.18-.35.47-.35h1c.71,0,.78-.29.78-1.17v-13a.44.44,0,0,1,.44-.44h2a.44.44,0,0,1,.44.44v13C168.74,96.58,167.52,97.38,165.47,97.38Zm2.87-18.55h-2.12a.45.45,0,0,1-.45-.45V76.44a.45.45,0,0,1,.45-.44h2.12a.46.46,0,0,1,.46.44v1.94A.46.46,0,0,1,168.34,78.83Z"/><path class="cls-1" d="M180.2,93h-1.87a.45.45,0,0,1-.45-.44v-.36a6,6,0,0,1-3.11,1c-1.84,0-3.83-.71-3.83-3.7v-.09c0-2.52,1.55-3.82,5.4-3.82h1.39v-1c0-1.43-.64-1.79-1.95-1.79a34.3,34.3,0,0,0-3.6.18h-.11c-.22,0-.4-.07-.4-.38V81.15c0-.24.13-.4.42-.47a19.76,19.76,0,0,1,3.69-.35c3.14,0,4.87,1.39,4.87,4.22v8A.45.45,0,0,1,180.2,93Zm-2.47-5.48h-1.39c-2,0-2.46.64-2.46,1.87v.09c0,1.09.49,1.37,1.59,1.37a4.77,4.77,0,0,0,2.26-.62Z"/></svg>