<svg id="Layer_1" data-name="Layer 1" xmlns="http://www.w3.org/2000/svg" viewBox="0 0 253.99 144.87"><defs><style>.cls-1{fill:#1b181c;}</style></defs><title>royal-fit</title><path class="cls-1" d="M84.49,102.24H85v.38c0,1.71-.6,2.55-2.2,2.55s-2.15-1-2.42-3.08c-.18-1.44-.51-3.19-2.63-3.19H76.28v4.56a.86.86,0,0,0,.56.91,7.3,7.3,0,0,0,1.33.2v.4h-5.7v-.4a7.21,7.21,0,0,0,1.31-.2.86.86,0,0,0,.56-.91V94.09a.83.83,0,0,0-.56-.91,6.87,6.87,0,0,0-1.31-.25v-.4h6.36c1.83,0,3.89.82,3.89,2.8s-2.07,2.81-3.37,3.17v.18c.86.1,2.39.57,2.75,1.9.28,1,.39,1.89.62,2.79s.71.87,1,.87c.51,0,.78-.31.78-1.62Zm-4-6.54A2.33,2.33,0,0,0,77.88,93h-1.6v5.33H77.4C79,98.37,80.48,97.77,80.48,95.7Zm13.43,1.67a4.65,4.65,0,0,1-.13,6.6,4.72,4.72,0,0,1-3.3,1.24A4.5,4.5,0,0,1,87.35,104a4.14,4.14,0,0,1-1.48-3.27,4.32,4.32,0,0,1,1.35-3.35A4.52,4.52,0,0,1,90.54,96,4.63,4.63,0,0,1,93.91,97.37Zm-.68,3.23c0-2-.67-4.08-2.69-4.08-1.68,0-2.68,1.53-2.68,4.13,0,2.22.82,4.08,2.68,4.08S93.23,103,93.23,100.6ZM105,96.28h-3.9v.38c.64.06,1.61.22,1.61.55a27.08,27.08,0,0,1-2.06,3.33,31.17,31.17,0,0,1-2-3.5c0-.23,1.1-.36,1.51-.38v-.38h-5v.38a3.63,3.63,0,0,1,1.08.26,2,2,0,0,1,.76.8c.59.91,1.17,1.91,1.77,3a2.16,2.16,0,0,1,.38.93v2.13a.57.57,0,0,1-.42.6,12.59,12.59,0,0,1-1.42.19V105h5.41v-.38a11.85,11.85,0,0,1-1.42-.26.59.59,0,0,1-.42-.58v-1.63a3,3,0,0,1,.3-1.38,17.9,17.9,0,0,1,2.13-3.2,1.87,1.87,0,0,1,.71-.6,4.77,4.77,0,0,1,1-.28Zm8.39,8a4.7,4.7,0,0,0,1.07.28V105h-4.88v-.38c.51,0,1.53-.19,1.53-.48a.85.85,0,0,0-.05-.25l-.79-1.91h-3.11c-.22.56-.37.92-.49,1.31a2.1,2.1,0,0,0-.15.69c0,.4,1.2.58,1.68.64V105h-4.12v-.38a4.16,4.16,0,0,0,1.13-.28,1.92,1.92,0,0,0,.73-.93c1-2.16,2.06-4.82,3.06-7.23h.73c1.34,3.24,2.67,6.43,3.15,7.62A.93.93,0,0,0,113.4,104.31Zm-3.35-2.87-1.33-3.23-1.33,3.23Zm13.52.45h-.42a8.54,8.54,0,0,1-1.27,2.3,3,3,0,0,1-1.77.36c-1.26,0-1.51-.18-1.51-1.13v-6a.59.59,0,0,1,.42-.58,5.62,5.62,0,0,1,1.23-.22v-.38h-4.93v.38a5.34,5.34,0,0,1,1.13.28.57.57,0,0,1,.42.6v6.28a.57.57,0,0,1-.42.58,7.22,7.22,0,0,1-1.19.19V105h8Z"/><path class="cls-1" d="M133.24,93a13.45,13.45,0,0,1,1.51.07c.78.11,1.75,1.59,1.95,2.39h.49v-3H127v.4a6.57,6.57,0,0,1,1.44.32.85.85,0,0,1,.56.9v9.34a.84.84,0,0,1-.56.89,7.84,7.84,0,0,1-1.44.19v.4h5.88v-.4a7.3,7.3,0,0,1-1.38-.28.88.88,0,0,1-.57-.89V98.83h1.62a2.28,2.28,0,0,1,1.62.56,4.16,4.16,0,0,1,.57,1.81h.49V96.08h-.49a3.29,3.29,0,0,1-.57,1.68,2.23,2.23,0,0,1-1.62.56H131V93Z"/><path class="cls-1" d="M142.8,104.59a7.83,7.83,0,0,1-1.18-.24.57.57,0,0,1-.42-.56V97.43a.54.54,0,0,1,.42-.57,8.05,8.05,0,0,1,1.18-.2v-.38h-4.93v.38a8.81,8.81,0,0,1,1.18.26.55.55,0,0,1,.42.56v6.38a.56.56,0,0,1-.42.56,9,9,0,0,1-1.18.17V105h4.93Z"/><path class="cls-1" d="M143.92,99.23h.38c.13-.73,1-2.4,1.58-2.48.31,0,.66,0,1,0h.45v7.1a.59.59,0,0,1-.41.6,12.09,12.09,0,0,1-1.41.19V105h5.4v-.38a12.87,12.87,0,0,1-1.41-.26.6.6,0,0,1-.42-.58v-7h.48c.34,0,.63,0,.95,0,.56.08,1.51,1.82,1.56,2.48h.4v-3h-8.52Z"/><path class="cls-1" d="M159.83,96.66a6.49,6.49,0,0,1,1.66.44c.4.2.44.86.44,1.69v3.9l-5.19-6.41h-3.47v.38a5,5,0,0,1,1.79.57,1.31,1.31,0,0,1,.42,1v4.26c0,.93-.11,1.52-.44,1.73a5.84,5.84,0,0,1-1.42.39V105h4.57v-.38a7.18,7.18,0,0,1-1.67-.44c-.3-.22-.44-.8-.44-1.75V98.06l5.72,7h.75V98.72c0-.82,0-1.49.41-1.69a5,5,0,0,1,1.41-.37v-.38h-4.54Z"/><path class="cls-1" d="M172.38,104.2c-.31.32-1.24.32-2.15.32-1.26,0-1.49-.14-1.49-1.14v-2.71h1a1.27,1.27,0,0,1,1.11.4,3.2,3.2,0,0,1,.42,1.31h.45V98.61h-.45a2.93,2.93,0,0,1-.42,1.26,1.34,1.34,0,0,1-1.11.36h-1V96.7h1.51a9.46,9.46,0,0,1,1.15.07c.56.08,1.25,1.2,1.4,1.75h.42V96.28h-7.85v.38a5.77,5.77,0,0,1,1.22.26.61.61,0,0,1,.42.58v6.32a.54.54,0,0,1-.42.58,7.59,7.59,0,0,1-1.22.19V105h8.32l.24-2.88h-.44A7.55,7.55,0,0,1,172.38,104.2Z"/><path class="cls-1" d="M180.12,100.05c-.62-.26-1.24-.33-2-.66a1.7,1.7,0,0,1-1.22-1.54,1.37,1.37,0,0,1,1.29-1.33c1.84,0,2.64,1.42,3.08,2.75h.38l-.13-3.12h-.51l-.47.57a3.57,3.57,0,0,0-2-.66,2.76,2.76,0,0,0-3,2.44,2.44,2.44,0,0,0,1.59,2.42c.77.33,1.26.39,2,.68s1.41.77,1.41,1.51a1.56,1.56,0,0,1-1.75,1.62c-1.79,0-2.7-1.51-3.19-2.89h-.36l.1,3.26h.51l.48-.58a4.31,4.31,0,0,0,2.38.69c1.84,0,3.21-1.15,3.21-2.74C182,101.16,181.35,100.54,180.12,100.05Z"/><path class="cls-1" d="M188.41,100.05c-.62-.26-1.24-.33-2-.66a1.7,1.7,0,0,1-1.22-1.54,1.37,1.37,0,0,1,1.29-1.33c1.84,0,2.64,1.42,3.08,2.75H190l-.13-3.12h-.51l-.47.57a3.57,3.57,0,0,0-2-.66,2.75,2.75,0,0,0-3,2.44,2.43,2.43,0,0,0,1.58,2.42c.77.33,1.26.39,2,.68s1.41.77,1.41,1.51a1.56,1.56,0,0,1-1.75,1.62c-1.79,0-2.7-1.51-3.19-2.89h-.36l.1,3.26h.52l.47-.58a4.32,4.32,0,0,0,2.39.69,2.91,2.91,0,0,0,3.2-2.74C190.28,101.16,189.62,100.54,188.41,100.05Z"/><path class="cls-1" d="M128.72,82.08a83.85,83.85,0,0,1-8.12-8.18l0,0h0a5,5,0,0,0-3.65,2l-.17.23a19.11,19.11,0,0,1-2.43,3l0,0v0a1.5,1.5,0,0,1-.26,1.18,2.79,2.79,0,0,1-1.89.73l-.48,0a4.24,4.24,0,0,1-.71-.07l-.49-.07.37-.16.08,0a1.8,1.8,0,0,0,1.18-.92l.06-.13h-.21a2,2,0,0,1-.7-.13l-.06,0,0,0a1,1,0,0,1-.69.24,1.57,1.57,0,0,1-1.3-.75l-.17-.27.3.1a1,1,0,0,0,.34.06.7.7,0,0,0,.5-.18l.06-.05,0-.06a3.16,3.16,0,0,1-.52-1.86c0-1.92,1-4.43,2.06-7.08,1.31-3.27,2.79-7,2.79-10.53,0-1.87-1.75-2.73-3.39-2.73a2.89,2.89,0,0,0-2.1.72l-.06.06.06.06a1.7,1.7,0,0,1,.55,1.31A4,4,0,0,1,108,61.43a11.54,11.54,0,0,1-3.57,2,7.16,7.16,0,0,0-2.29,1.28l-.38.39.2-.51a5.19,5.19,0,0,1,2.24-2.32c1-.66,2-1.35,2.17-2.64a.26.26,0,0,0-.06-.16.12.12,0,0,0-.09,0h-.1v.09a4.31,4.31,0,0,1-2.2,1.89l-.53.2.42-.39A5.25,5.25,0,0,0,105,58.91c.37-1.37,1.31-2.37,2.25-2.37a1.27,1.27,0,0,1,.72.22l.06.05,0-.06a4.88,4.88,0,0,1,3.39-1.14c2,0,4.39,1,4.39,3.71,0,4-1.58,7.68-3,10.93-1,2.44-2,4.54-2,6.27s.57,1.79,1.57,1.81c1.49,0,2.26-1.24,3-2.44a9.77,9.77,0,0,1,1-1.43,9.42,9.42,0,0,1,2.79-2l.11,0-.07-.09a51.53,51.53,0,0,1-4.21-5.9l0,0,0,0c.1-.22.27-.64.42-1.07l.08-.22.12.19a55.67,55.67,0,0,0,3.51,5l.16.2v-.26a2.26,2.26,0,0,1,0-.27v-.12a5.15,5.15,0,0,1,.24-1.3c0-.07.06-.19.11-.37.25-.88.84-2.92,1.76-3.62a14.34,14.34,0,0,1,2.56-1.89l.35-.21h0a3.73,3.73,0,0,0,.5,0,13,13,0,0,0,1.61-.13,3.8,3.8,0,0,0,1.5-.8c.13-.11.21-.18.3-.19a3.07,3.07,0,0,0,2.56-2.51l0-.15.19.1a.91.91,0,0,0,.35.15l.34.09a3.93,3.93,0,0,1,1.1.47l.34.18.46.34.11.07,0-.13a5.47,5.47,0,0,1,.76-1.72,5.69,5.69,0,0,0,.94-2.73,9.13,9.13,0,0,0-2.39-5.59.86.86,0,0,0-.52-.21.4.4,0,0,0-.43.41,3.36,3.36,0,0,0,.86,2.35,5.27,5.27,0,0,1,1.17,3.41,6.67,6.67,0,0,1-1,3.21l-.13.21L133,59a2.07,2.07,0,0,0-.89-1,4.47,4.47,0,0,1-2-3c0-.25-.25-.55-.48-.55a.28.28,0,0,0-.27.24,4.62,4.62,0,0,0,.1,1.43,5,5,0,0,1-.76,4.39,4.59,4.59,0,0,1-1.64.72,7.2,7.2,0,0,1-1.08.17l-.51,0,.19-.22a7.58,7.58,0,0,0,1.73-4.1c.11-1.18-.1-1.41-.17-1.49a.34.34,0,0,0-.24-.11.59.59,0,0,0-.29.1c-.38.14-.41.58-.41,1.3a4.23,4.23,0,0,1-2.19,4.13l-.16.09a16.74,16.74,0,0,0-2.91,2l-.19.19v-.28a8.93,8.93,0,0,1,1.54-4.53c.36-.62.71-1.25,1.06-2,1.31-2.69,1.25-3.51,1.1-3.75a.32.32,0,0,0-.28-.16c-.57,0-1,1.08-1.48,2.41-.59,1.53-1.32,3.43-2.45,3.88L120,59l.22-.3a4.34,4.34,0,0,0,.31-3.05,15.42,15.42,0,0,1-.12-1.56,16.6,16.6,0,0,1,.55-3.2c.23-1,.41-1.67.17-2a.41.41,0,0,0-.35-.16c-.49.18-.68,1.22-.91,2.54-.28,1.55-.63,3.47-1.51,4.24l-.31.27.13-.39a3.21,3.21,0,0,0-.14-2,6.76,6.76,0,0,1,.11-4.68c.1-.31.27-.73.46-1.17.53-1.25.89-2.16.7-2.55a.3.3,0,0,0-.21-.17l-.12,0c-.42,0-.59.51-.81,1.34a8.72,8.72,0,0,1-.75,2,1.73,1.73,0,0,1-1.4,1.12h-.26l.18-.19a4.74,4.74,0,0,0,.74-2.91,5.12,5.12,0,0,1,.89-3.31l0,0v0c0-.15,0-.3-.17-.36a3.9,3.9,0,0,1-1.78-2.08l-.22-.45-.05-.09.09-.06a2.38,2.38,0,0,0,.3-.18,4.59,4.59,0,0,1,2.33-.85h.23a.24.24,0,0,0,.15-.22.88.88,0,0,0-.24-.59l-.06-.06,0-.07A4.26,4.26,0,0,1,119,37l.1-.08.07.1a.94.94,0,0,0,.62.47h0l0,0a23.17,23.17,0,0,1,9.46-4.14l.11,0,0-.1a1.09,1.09,0,0,1-.11-.41l.11-.52.09.44h.16l1,0,0,.09a1.79,1.79,0,0,1-.14.7,1.28,1.28,0,0,0-.06.25V34l.16-.21a4.12,4.12,0,0,1,2.67-1.48l.36-.08.11,0,0,.11c.05.21.13.41.2.63a3.83,3.83,0,0,1,.09,3c0,.19,0,.21.29.26a4.66,4.66,0,0,1,1.43.64,2.18,2.18,0,0,0,1.14.45h.16l.35,0-.26.23a1.86,1.86,0,0,1-1.23.35,5.73,5.73,0,0,1-1.54-.24h-.08a.18.18,0,0,0-.2.14.29.29,0,0,0,.18.3,5.3,5.3,0,0,0,.56.38c.29.19.74.48,1,.71a14.38,14.38,0,0,1,2.28,2.37c.67.83,1.19,1.47,1.75,1.63l.25.07-.22.13a1.8,1.8,0,0,1-.94.26,4.17,4.17,0,0,1-1.56-.41,4,4,0,0,1-.91-.73c-.29-.28-.49-.47-.66-.47l-.1,0a.33.33,0,0,0-.23.27c0,.38.66.86,1.81,1.62a8.59,8.59,0,0,1,1.46,1.08A7.26,7.26,0,0,1,140,46.66a2.23,2.23,0,0,0,.72,1l.16.08-.15.1a1.38,1.38,0,0,1-.84.27A3.49,3.49,0,0,1,137.69,47a.64.64,0,0,0-.42-.22A.26.26,0,0,0,137,47c-.06.19.06.52.45.79a7.83,7.83,0,0,1,1.9,1.68,4.64,4.64,0,0,1,1.11,3.9,2.84,2.84,0,0,0,.47,1.15c.13.26.24.45.28.57a12.74,12.74,0,0,1,.55,2.06,10.08,10.08,0,0,1,.23,2.06,2.11,2.11,0,0,1-.38,1.23l-.24.45c-.31.56-.67,1.16-1,1.68A8.71,8.71,0,0,0,139.13,65l0,.16-.14-.07A3.07,3.07,0,0,1,137.38,63v-.09h-.09c-.3,0-.8-.49-1.37-1.07s-.94-.94-1.19-.94a.24.24,0,0,0-.23.18v0l0,0a3.35,3.35,0,0,1,.31.7.94.94,0,0,0,.25.48c.14.2.54.65,1.68,1.94,1,1.11,2.17,2.45,3,3.4l.59.67.06-.09a43.88,43.88,0,0,0,2.84-4.15c.32-.56.63-1.14,1-1.77l0,0h0c.49-.23,1-.51,1.36-.7l.31-.17-.15.32c-.37.73-1,2.08-1.53,2.94a46.87,46.87,0,0,1-3,4.6l0,.06,0,0a14.36,14.36,0,0,1,1.13,1.58,2.09,2.09,0,0,1,.26,1.22,6.15,6.15,0,0,0,.18,1.5,2.86,2.86,0,0,0,.5.93c.5.73,1.07,1.55.64,2.45l0,.06.05,0a1.69,1.69,0,0,1,.64,1.69A1.83,1.83,0,0,1,143.33,80l-.27.11.13-.26a1.63,1.63,0,0,0,.13-1.07,1,1,0,0,0-.7-.86,1,1,0,0,0-.23,0,.58.58,0,0,0-.45.16.88.88,0,0,0-.12.65,1.25,1.25,0,0,1,0,.15,1.73,1.73,0,0,1-1.71,1.64h-.24l-.26,0,.2-.17a1.61,1.61,0,0,0,.52-.84,1.09,1.09,0,0,0-.29-1.13.31.31,0,0,0-.22-.09c-.21,0-.38.22-.47.33a1.81,1.81,0,0,1-1.41.64,1.78,1.78,0,0,1-1.18-.43l-.28-.25.37,0,.17,0a1.11,1.11,0,0,0,.86-.39.82.82,0,0,0,.16-.73.41.41,0,0,0-.07-.23.32.32,0,0,0-.23-.07h-.22c-.42-.17-.44-.76-.39-1.22.17-1.07.54-1.19.93-1.32s.77-.26.88-1.23a1.07,1.07,0,0,0-.2-.91l-.07-.07-.07.07a100.07,100.07,0,0,1-9.13,9.59l-.39.35ZM125,76.87c1.69,1.76,3.1,3.12,4,3.94l.06.06.06-.06a91.83,91.83,0,0,0,7.52-8l0,0v0a4.16,4.16,0,0,1,.07-1c.1-.67.19-1.31-.35-1.53a.2.2,0,0,0-.1,0,.13.13,0,0,0-.13.09.37.37,0,0,0,0,.11c.12.66-.21.85-.63,1.09a2.26,2.26,0,0,0-.63.46l-.14.16-.05-.2a7,7,0,0,1-.15-1.28c0-.87-.08-1.7-.65-1.88l-.16,0,0,.15a1.62,1.62,0,0,1-.42,1.54,2.12,2.12,0,0,0-.33.53l-.06.17-.13-.13a3.5,3.5,0,0,1-.68-1.44,4.29,4.29,0,0,0-1.63-2.19,6.33,6.33,0,0,0-1.32-.91c-.46-.21-1.09-.11-1.51-.39s-.35-.89-.29-1.32.1-1,.13-1.47c0-.21.09-.4.09-.62a.44.44,0,0,0-.08-.3.13.13,0,0,0-.09,0l-.09,0h-.08l0,.06c-.73.91-.53,2-.81,3.09-.2.74-.1,1.35.74,1.52a6,6,0,0,1,2.14.93,4,4,0,0,1,1.47,2.23,6.05,6.05,0,0,0,.32.8l.08.14-.17,0a6,6,0,0,0-.93.2,5,5,0,0,1-1.18.23h-.17a3.88,3.88,0,0,0-2.84.94.67.67,0,0,0-.12.45c0,.32.34.5.62.66s.41.24.44.38a.28.28,0,0,1,0,.22,10.9,10.9,0,0,1-.74,1,6.46,6.46,0,0,0-1,1.61l0,0Zm12.34-23.11c-.09,0-.23,0-.29.31a2.49,2.49,0,0,0,.17.66,10.38,10.38,0,0,1,.62,2.71c.06.94.09,1.19.12,1.45s.05.49.11,1.24a.13.13,0,0,0,0,.1.19.19,0,0,0,.13.05c.24,0,.8-.44,1.47-1.42a5.19,5.19,0,0,0,.8-3.24c-.09-.23-.25-.41-.38-.41a.13.13,0,0,0-.13.15,4.27,4.27,0,0,1-.87,2.22l-.19.21V57.5A5.94,5.94,0,0,0,137.76,54a.57.57,0,0,0-.38-.22Zm-11.45-7a4.83,4.83,0,0,0-.37,1.45,2,2,0,0,0,0,1.15c.18.6,1.49,1.22,2.6,1.22a2.3,2.3,0,0,0,1.39-.42.89.89,0,0,0,.18-.38c.08-.24.14-.47.46-.55a.48.48,0,0,1,.26-.08.88.88,0,0,1,.4.14.92.92,0,0,0,.4.14h.07a2.84,2.84,0,0,0,2-1.71,1.85,1.85,0,0,0,.18-1.56,1.36,1.36,0,0,0-.69-.78l0,0c-1-.76-1.25-.8-1.27-.8h-.25l.19.15a6.27,6.27,0,0,1,.76,1v0h0a.82.82,0,0,1,.06.66,4.3,4.3,0,0,1-2.39,2.19,6.54,6.54,0,0,1-1.93.32c-1,0-1.64-.29-1.79-.76,0-.12,0-.33-.06-.65s0-.57,0-.63v-.19Zm.65-2a.93.93,0,0,0,.12.46L127,46l0,.05a3.71,3.71,0,0,0,.64,1.27,1.06,1.06,0,0,0,.9.42h.32a3.21,3.21,0,0,0,.39-.05,2.33,2.33,0,0,1,.38,0h.05l0,0a3.12,3.12,0,0,1,.33-.36c.48-.36.91-1,.25-2.19l-.11-.2a2.92,2.92,0,0,0-.7-1.06l0,0h-.08a.21.21,0,0,0-.16,0c-.11.13-.08.49-.06.76a2.43,2.43,0,0,1,0,.37l0,.19-.15-.12a.88.88,0,0,1-.24-.38.9.9,0,0,0-.1-.22,2.85,2.85,0,0,1-.21-.37,2,2,0,0,0-.1-.21l0-.08a6,6,0,0,1-.36-.72c-.17-.51.34-.84.71-1.08s.36-.24.34-.37-.12-.14-.21-.16a.59.59,0,0,1-.35-.39.22.22,0,0,1,.06-.22.38.38,0,0,1,.28-.12,1.3,1.3,0,0,1,.49.14l.27.1h.07a.54.54,0,0,0,.43-.29.23.23,0,0,0-.08-.25,3.44,3.44,0,0,1-.72-.58c-.17-.17-.29-.29-.45-.29a.41.41,0,0,0-.18.05l-4.17,1.79c-.18.11-.2.29-.22.56a3.37,3.37,0,0,1-.06.5c0,.24,0,.58.11.69a.13.13,0,0,0,.09,0,.79.79,0,0,0,.59-.65c0-.19.07-.28.21-.29a.5.5,0,0,1,.16,0,.23.23,0,0,1,.23.11.72.72,0,0,1,0,.58v.06a.24.24,0,0,0,.26.2,1.87,1.87,0,0,0,.4-.08,2,2,0,0,1,.57-.13c.57,0,.72.67.83,1.16a2.35,2.35,0,0,0,.11.39,1.89,1.89,0,0,0,.09.21l.12.25a.26.26,0,0,0,0,.1c.09.19.15.33.1.43l0,.06h-.07c-.21,0-.36-.22-.5-.42s-.09-.13-.12-.16c-.18-.19-.27-.24-.38-.24a.69.69,0,0,0-.25.06l0,0Zm-5.43-2.21s0,.1,0,.18a2.18,2.18,0,0,0,.73,2.24,2.42,2.42,0,0,0,.59.3.55.55,0,0,1,.23.37.68.68,0,0,0,.2.37,1.93,1.93,0,0,0,1.11.41,1.73,1.73,0,0,0,1.32-.77l0-.06,0,0v0c0-.15-.1-.3-.2-.3h-.09l-.11,0a1.54,1.54,0,0,1-1.3-1.28V44h-.07a2.52,2.52,0,0,1-2.31-1.42l-.16-.27Zm10,.56h.08c.13,0,.27,0,.43,0q1.22,0,1.5-1.44a.57.57,0,0,0-.12-.48.5.5,0,0,1-.12-.37,1.47,1.47,0,0,0,.24-.63,2.08,2.08,0,0,0-1-2l-.17-.12-.2.1a2.65,2.65,0,0,1-.57,2.57l0,0,0,.06a1.73,1.73,0,0,1,.24,1.37.89.89,0,0,1-.28.5l0,0h0a.14.14,0,0,0-.12.12.22.22,0,0,0,.13.23h0Zm-14.74-2.74c.36.59.9,1.47,1.73,1.56h.14a1.41,1.41,0,0,0,1.07-.38.77.77,0,0,1,.13-.09h0c.08,0,.13.07.23.18a.45.45,0,0,0,.16.15h0a2.82,2.82,0,0,0,.47,0l.07,0v-.07c0-.17-.84-2.21-2.46-2.26v0a2.17,2.17,0,0,0-1,.31,4.09,4.09,0,0,1-.74.3l-.12,0Zm4.24-.45a1.86,1.86,0,0,1,.94.38,2,2,0,0,0,1.1.44,1.25,1.25,0,0,0,.46-.09c1.09-.5,1.09-1.07,1.08-2.1v-.49l-.15.12a1.56,1.56,0,0,1-.52.31,16.32,16.32,0,0,1-3.26,1,.27.27,0,0,0-.16.05.16.16,0,0,0-.06.13.33.33,0,0,0,.33.29l.24,0Zm5.82-2.67.26.27c.45.48.81.86,1.44.86a2.17,2.17,0,0,0,.74-.14c.57-.23.63-.71.69-1.17a1.66,1.66,0,0,1,.59-1.3.34.34,0,0,0,.14-.35.16.16,0,0,0-.16-.11.32.32,0,0,0-.21.09,10.54,10.54,0,0,1-2.58,1.45,3.68,3.68,0,0,1-.76.19c-.2,0-.21.07-.21.13v.08Zm5.06-.25a.59.59,0,0,0,.22-.08.38.38,0,0,0,.16-.14.75.75,0,0,0,0-.29c0-.15,0-.22,0-.27a.24.24,0,0,1,.16,0l.19,0a1.59,1.59,0,0,0,.54-.17c.81-.44,1-1.74.37-2.91l0-.06-.08,0a3.11,3.11,0,0,0-2,1.32,3.22,3.22,0,0,0,.26,2.54v.1Zm9.34,26,.16-.3c.1-.19.2-.38.29-.58s.16-.34.24-.49a7.75,7.75,0,0,0,1.05-3,3.6,3.6,0,0,0-.19-1.54c-.13-.36-.31-.95-.43-1.44l0-.09.09,0a3.5,3.5,0,0,1,1.39-.25h.35l.6,0,.58,0h.37a2.92,2.92,0,0,0,1.89-.48,1.13,1.13,0,0,0,.36-1c0-.06,0-.11,0-.16a.93.93,0,0,1,.15-.72,4.42,4.42,0,0,1,.5-.46l-.1-.05a2.1,2.1,0,0,1-.35-.27l-1.38-.61-.5-.21c.07.16.19.42.22.46l.13.15c.55.6,1.17,1.3.87,2.25,0,.08-.07.22-1.14.22l-.72,0a3.7,3.7,0,0,1-2.26-.91,2.52,2.52,0,0,1-.68-1.75v0c-.75-1.34-.17-3.42,1.39-4.94a5.37,5.37,0,0,1,3.56-1.63,2.69,2.69,0,0,1,1.41.36h0a2.56,2.56,0,0,1,1.74.71,1.73,1.73,0,0,1,.52,1,.17.17,0,0,0,0,.1l.07.19-.2,0a2.7,2.7,0,0,0-.63-.07l-.36,0h-.14l.08.13a2.73,2.73,0,0,1,.41.9l.11.42-.3-.32a2.41,2.41,0,0,0-.52-.47,2.59,2.59,0,0,0-1.41-.41,3,3,0,0,0-1,.17A1.8,1.8,0,0,0,145.94,49a.81.81,0,0,0,.38.92,11.5,11.5,0,0,1,1.14.55l.12.05h.16a.53.53,0,0,0,.53-.29.87.87,0,0,0-.07-.83,1.14,1.14,0,0,0-.74-.48l-.36-.08.34-.14a1.7,1.7,0,0,1,.61-.11,1.89,1.89,0,0,1,1.76,1.19c.07.23.19.49.44.49l.12,0a1.11,1.11,0,0,0,.66-1,1.69,1.69,0,0,0-.2-1l-.13-.23.25.07a1.71,1.71,0,0,1,1,.58,2,2,0,0,1,.29,1.63.77.77,0,0,1-.07.17,1.54,1.54,0,0,0-.08.19.9.9,0,0,1-.07.14.75.75,0,0,0-.08.18,1.2,1.2,0,0,0,0,.33.62.62,0,0,1,0,.13,5.64,5.64,0,0,1,0,.73v.07l.07.06.42.17,0-.07A4.61,4.61,0,0,1,156.26,50a3.39,3.39,0,0,1,.84.1l.81.22h-.84a5,5,0,0,0-4.34,3.4,5.3,5.3,0,0,0,.23,4.49l.41.73-.59-.59a4.59,4.59,0,0,1-1-4.25l0-.08L150,53.27l0,0a.5.5,0,0,0-.11.17c-.16.4.29.69.77.94l.4.27.08.06,0,.09a6.19,6.19,0,0,0-.62,1.47,7.21,7.21,0,0,1-.58,1.42,8.83,8.83,0,0,1-1.61,1.73l-.41.38a3.35,3.35,0,0,1-1.8.93,5.6,5.6,0,0,0-.87.36l-.45.21-.78.3.67-.49a6,6,0,0,0,1.53-2.45,7.38,7.38,0,0,1-1,.91l-.49.33a3.7,3.7,0,0,0-1.21,1c-.09.15-.18.28-.26.42s-.28.44-.45.68A4.21,4.21,0,0,1,141,63.2l-.25.08Zm-27.82,0c-.78-1.59-2-4.15-2.49-5.5l-.11-.22.13,0a1.73,1.73,0,0,1,.49-.08,1.68,1.68,0,0,1,.6.12h.05l0,0c.46,1.13,1.39,3.2,1.86,4.19l0,0,0,.17c0,.18-.09.4-.19.78,0,.15-.08.32-.14.48l-.09.25Zm43.32-2.8a3.28,3.28,0,0,1-1.17-.21,3.08,3.08,0,0,1-1-.65L154,59.2l-.08-.07,0,0a4.86,4.86,0,0,1-.66-5,4.75,4.75,0,0,1,4.18-3.28,3.07,3.07,0,0,1,1.08.19l.07-.11.09,0a3.28,3.28,0,0,1,.56.42,4.63,4.63,0,0,1,1.3,5.52,4.75,4.75,0,0,1-4.18,3.28Zm1.23-8.2a3.56,3.56,0,0,0-3.13,2.46,3.78,3.78,0,0,0,.24,3.39l.16-.1a4.32,4.32,0,0,1,.38-3.14,2.83,2.83,0,0,1,2.63-1.76l.43,0a2.13,2.13,0,0,1,1.31.54l.19.24,0-.4v0a2.71,2.71,0,0,0-1.26-1.06,2.65,2.65,0,0,0-.89-.16Zm-48,2.91a97,97,0,0,1-2.76-9.53l-.11-.53.53-.14s3.66-.93,8.59-1.77h.06l0,0a.87.87,0,0,1,.16.78,1.72,1.72,0,0,1-.1.26l0,.06H116c-3.54.61-6.38,1.25-7.76,1.58l-.09,0,0,.09c.26,1.14,1.25,5,2.63,8.93l0,.14h-.15a6,6,0,0,0-.91.13l-.1,0Zm35.12-10.37c-1.44-.29-2-.38-3.72-.65l-.21,0,.14-.15a2.11,2.11,0,0,0,.49-.82l0-.09.09,0c3,.49,4.74.81,6,1.1l.82.2-.85,0a11.09,11.09,0,0,0-2.54.36l-.21.05h0Z"/><path class="cls-1" d="M117.53,34.54l1.89,2.05s.7-.79,4.09-2.16a31.6,31.6,0,0,1,4.92-1.69c0-.16,0-2.64,0-2.64l.06-.5.18-1s0-.28,0-.7.13-1.42.15-1.53-.12,0-.44.06-.18.62-.18.62-.52-.05-.62.35.66.56.66.56l-.08.44-.43.07c-.27,0-.55.05-.55.05s0-.63-.4-.6-.3.79-.3.79-.59-.09-.6.34.48.42.48.42-.06.67.29.68.2-.55.2-.55a4.05,4.05,0,0,1,.52-.09c.13,0,.3.07.32.2a11.24,11.24,0,0,1-.24,1.37c-.15.73-.37,1.23-.87,1.41s-1-.33-1-.33l-.18.07a.91.91,0,0,1-.33.7.73.73,0,0,1-1.09-.19c-.21-.47-.52-1.53-.52-1.53l.11-.24.27-.12a.35.35,0,0,0,.51.21c.41-.17.13-.66.13-.66s.61-.24.46-.54-.69-.19-.69-.19-.11-.54-.55-.45-.16.76-.16.76l-.84.31-.22-.52s.33-.19.21-.49-.63-.16-.63-.16-.13-.54-.53-.38-.06.67-.06.67-.58.25-.44.55.67.08.67.08l.19.59L121,31s-.15-.52-.52-.38-.1.63-.1.63a.52.52,0,0,0-.31.67.47.47,0,0,0,.66.24,1,1,0,0,0,.18.39c.14.16.53,0,.46-.21s-.1-.51,0-.56l.33-.11.2.1a10.81,10.81,0,0,1,.5,1.33.92.92,0,0,1-.72,1.32c-.4,0-.91-.52-.91-.52l-.22.16a1.29,1.29,0,0,1-.26.7c-.29.49-.58.46-1.21.23a3.88,3.88,0,0,1-1.27-1.05l.45-.65s.46.31.69.16.11-.45,0-.55-.16-.17,0-.3a.28.28,0,0,0,0-.49c-.19-.17-.55.13-.61.2s-.1,0-.18-.12a.43.43,0,0,0-.6-.19c-.28.18,0,.54.09.6s-.06.25-.27.55-.5.12-.63,0-.29-.17-.21-.25a.36.36,0,0,0,0-.55c-.25-.23-.53,0-.71.21s-.3-.28-.61-.33-.41.28-.41.28l1.9,1.33Z"/></svg>