<svg id="Layer_1" data-name="Layer 1" xmlns="http://www.w3.org/2000/svg" viewBox="0 0 253.99 144.87"><defs><style>.cls-1{fill:#140f11;}</style></defs><title>satori</title><path class="cls-1" d="M74.21,84.27l0-1.69-4.52,0,0-1.74,4-8.45,2.28,0-3.85,8.22,2.11,0,0-2.77,2.06,0,0,2.76h1.23l0,2H76.25l0,1.69Zm-12.3.15L70.72,65l2.21,0L64.12,84.39Zm-1.17-7.5-.1-9.21-2.17,2,0-2.52,2.35-2,1.89,0,.14,11.83Z"/><path class="cls-1" d="M115.74,82.26a7.4,7.4,0,0,1-5.54-1.88l-.22-.21,1.67-1.7.2.22a5,5,0,0,0,3.84,1.36c1.18,0,3.16-.3,3.14-2,0-.72-.24-1.46-1.92-1.59l-2.13-.16c-3.43-.24-4.16-2.15-4.19-3.72,0-2.44,2-4.11,5-4.13a7.39,7.39,0,0,1,4.85,1.4l.25.19-1.62,1.67-.2-.16a5.3,5.3,0,0,0-3.29-.92c-1,0-2.62.27-2.59,1.87,0,.72.25,1.46,2,1.59l2.08.16c2.75.23,4.11,1.44,4.14,3.75,0,2.56-2.14,4.26-5.52,4.3Z"/><path class="cls-1" d="M130.8,82.08c-1.87,0-3-.33-3.88-1.23A4,4,0,0,1,125.84,78c0-2.52,1.73-4,4.72-4.09l3.6,0,0-.94c0-1.79-.93-2.54-3-2.53a3.14,3.14,0,0,0-3,1.4l-.2.28-1.74-1.58.16-.21c1.29-1.71,2.79-2.07,4.79-2.09,4.53-.06,5.51,2.44,5.54,4.54l.1,9.08-2.47,0V81a5,5,0,0,1-3.45,1.07Zm0-6.14c-1.76,0-2.6.68-2.59,2,0,1,.35,1.92,2.72,1.9a3.6,3.6,0,0,0,2.68-.82,2.67,2.67,0,0,0,.54-2V75.9Z"/><path class="cls-1" d="M147.16,81.72A3.46,3.46,0,0,1,143.5,78l-.09-7.67-1.64,0,0-2,1.64,0,0-4.07,2.48,0,.05,4.06,2.76,0,0,2-2.77,0,.09,7.62c0,1.08.5,1.59,1.5,1.58l1.29,0,0,2.21Z"/><path class="cls-1" d="M159.35,81.75a5.43,5.43,0,0,1-3.94-1.52c-1.49-1.48-1.72-3.54-1.74-5.35s.15-3.87,1.61-5.39a5.71,5.71,0,0,1,7.84-.1c1.49,1.48,1.71,3.54,1.74,5.36s-.16,3.87-1.61,5.38a5.44,5.44,0,0,1-3.9,1.62Zm-.15-11.61a3,3,0,0,0-2.13.9c-.84.86-.93,2.34-.92,3.81s.16,3,1,3.79a2.88,2.88,0,0,0,2.15.83,3,3,0,0,0,2.15-.89c.87-.87.92-2.42.91-3.8s-.12-2.94-1-3.8a3,3,0,0,0-2.18-.84Z"/><path class="cls-1" d="M170.87,81.45l-.16-13.55,2.48,0V69a4.88,4.88,0,0,1,3.34-1.27,4.23,4.23,0,0,1,3.33,1.26l.2.19L178.29,71l-.21-.21a2.43,2.43,0,0,0-2-.84,2.89,2.89,0,0,0-2.79,3.23l.1,8.24Z"/><path class="cls-1" d="M184.43,81.29l-.16-13.55,2.48,0,.16,13.55Zm-.31-16.65,0-2.73,2.73,0,0,2.71Z"/><path class="cls-1" d="M89,90.42a22.76,22.76,0,0,1-.38-32.17l.78-.79L106.5,74.12,89.81,91.19Zm.46-29.8A20.49,20.49,0,0,0,89.8,88l13.54-13.86Z"/></svg>