<svg id="Layer_1" data-name="Layer 1" xmlns="http://www.w3.org/2000/svg" viewBox="0 0 253.99 144.87"><defs><style>.cls-1{fill:#1b181c;}</style></defs><title>wolmtec</title><polygon class="cls-1" points="44.07 59.49 37.75 59.49 44.63 73.35 50.89 73.32 44.07 59.49"/><polygon class="cls-1" points="61.88 66.81 64.97 72.84 55.02 92.75 52.01 86.77 61.88 66.81"/><polygon class="cls-1" points="80.36 59.49 86.51 59.49 69.92 92.75 66.91 86.77 80.36 59.49"/><path class="cls-1" d="M198.5,81a5.89,5.89,0,1,1,3-10.93L204,67.57a9.45,9.45,0,1,0,.13,14.87L201.68,80A5.87,5.87,0,0,1,198.5,81Z"/><path class="cls-1" d="M166.2,69.4h-4.66V65.85h13.13V69.4H170v15H166.2Z"/><path class="cls-1" d="M175.72,65.85h11.94v3.47h-8.13v4h7.15v3.47h-7.15v4.13h8.24v3.47H175.72Z"/><path class="cls-1" d="M109.94,84.38h-3l-3.41-11.24L100.1,84.38h-3L92.14,65.85h3.77l2.86,11.69,3.39-11.69h2.71l3.38,11.69,2.89-11.69h3.77Z"/><path class="cls-1" d="M126.56,82.51a6.7,6.7,0,0,1-5,2,6.78,6.78,0,0,1-5-2c-1.87-1.87-1.82-4.19-1.82-7.39s0-5.52,1.82-7.4a6.78,6.78,0,0,1,5-2,6.7,6.7,0,0,1,5,2c1.88,1.88,1.85,4.2,1.85,7.4S128.44,80.64,126.56,82.51Zm-2.68-12.6a3,3,0,0,0-2.31-1,3.08,3.08,0,0,0-2.35,1c-.7.78-.88,1.64-.88,5.21s.18,4.42.88,5.2a3.08,3.08,0,0,0,2.35,1,3,3,0,0,0,2.31-1c.7-.78.91-1.64.91-5.2S124.58,70.69,123.88,69.91Z"/><path class="cls-1" d="M130.17,84.38V65.85h3.62V81.16h8.41v3.22Z"/><path class="cls-1" d="M156.47,84.38V73.58l-3.54,7h-2.45l-3.57-7v10.8H143.3V65.85h3.56l4.84,10,4.82-10h3.56V84.38Z"/></svg>