<svg id="Layer_1" data-name="Layer 1" xmlns="http://www.w3.org/2000/svg" viewBox="0 0 170.08 113.39"><defs><style>.cls-1{fill:#1d1d1b;}</style></defs><title>bb-wake</title><path class="cls-1" d="M105.13,44.13l.25-.83-1.07-1.48-.87-1-1-1-1-2.09,2.31.63,1.87.21,1.54.42.77.79.69.63-.55,2L107,45l-1,.07Zm8.94,39.78a17.37,17.37,0,0,1-7.13,1.37H86.79V39.81l1.88,1.91,7.08,1.53,1.73,1.49,1.29-.35-.41,1-3.62,2.86L94.65,50l3.1,3.81,2,2.56-.25,1.53.34,1.58-1.5,2.67-1.19,1.74.44.55,1.82-1.82L104,55.42l3.39-7.07,2.31-6.93-.34-2.29-2-1.17-5-2.07-.9-.57-1.33.32-3,0,.16-.79-.47-1.72-1.54-.9-1.82.45-.57.85.64,2.6.86.77.63.65L93.71,41,95,42.54l-5.86-1.81-2.37-3.07V23.58h8.84c-1.12-.6-2.25-1.2-3.4-1.77a3.4,3.4,0,0,0-1.47-.33c-1.66,0-3.32.07-5,.14a6.75,6.75,0,0,0-2.07.22c-2.44.92-5.08,1.51-6.93,3.7l2,.75a5.43,5.43,0,0,0-3.65.93,15.19,15.19,0,0,0-1.35-.92l5.07-4.4A1.89,1.89,0,0,0,81.39,20c-.07-1.31,1.06-1.81,1.61-2.68.07-.11.53,0,.82.06,1.08-1.22,2.78-1.59,3.88-2.86.46-.54,1.4-.66,2.2-1,0-.19-.05-.47-.07-.78l3.39-.23c.76,0,1.25-.39,1.32-1,1.12-.36,2.13-.7,3.15-1a1,1,0,0,1,.7,0c.75.53,1.27.17,1.9-.57-.06.4-.08.58-.1.71l1.11.33,3.64-2.12c0,.48,0,.72-.07,1h2.69l-1.93,1.58.81.12a.68.68,0,0,0,0,.14l-1.19.28a.77.77,0,0,1,0,.15l2.08.13c.67-1,1.29-1.11,2.41-.48a3.35,3.35,0,0,0,1.33.13l1.87.07a5,5,0,0,0,.67,0c.76-.11,1.43-.09,1.52.69l-.91,1.88-1,.65c1.77.22,2.35-.16,2.55-1.51a16.08,16.08,0,0,0,3.07.32,3.24,3.24,0,0,1,2.26.43l1.12-.88.2.22L121.27,15l1.76.62a4.62,4.62,0,0,1-3.52,1.66c-2.7,0-5.41.14-8.11.18-1.34,0-2.69-.12-4-.11a2.13,2.13,0,0,0-1.3.63l2.46.73a2.62,2.62,0,0,1,0,.28c-1.64-.15-3.28-.36-4.92-.43s-3.37,0-5.06,0c.71.58.71.58,3.65,1l-1.59.08,1.06.64C99.6,20,98,18.47,96,19.13c.12-.95-.85-1.09-1.35-1.09-2.36-.05-4.73.05-7.09.16-.81,0-1,.62-.76,1.49,1.35-1.41,2.94-.74,4.42-.89l.06.3a6.47,6.47,0,0,1-1.06.23c-.36,0-.72-.08-1.08-.08-1.34,0-2.12,1.1-3.19,1.63l0,.25c1.3,0,2.61.08,3.91,0,1.11-.08,2.22-.52,3.32-.5a30.19,30.19,0,0,1,4.43.5c1.73.27,3.46.61,5.19.92a1.59,1.59,0,0,1,.27.12c0,.08-.07.15-.1.23L92.41,21l-.18.53,4,2.08h4.92a24.53,24.53,0,0,1,8,1.16,15.35,15.35,0,0,1,5.55,3.15,12.75,12.75,0,0,1,3.24,4.64A15,15,0,0,1,119,38.25a18.83,18.83,0,0,1-.87,5.89,16.71,16.71,0,0,1-2.23,4.56,11.58,11.58,0,0,1-3,3,5.84,5.84,0,0,1-3.15,1.08A12.15,12.15,0,0,1,116,54.3a13.4,13.4,0,0,1,4.19,3.86,16.26,16.26,0,0,1,2.36,5.06,19.2,19.2,0,0,1,.75,5,20.07,20.07,0,0,1-1,6.47,16,16,0,0,1-3.07,5.43A14.26,14.26,0,0,1,114.07,83.91ZM113.51,16a4.94,4.94,0,0,0,1.6.24c.56,0,1.11-.11.76-1.05ZM100.75,17.9l-.35-.77L97.71,17c0,.1,0,.19,0,.29Zm2.24-.77L101.15,17l.45-.67-.36-.17c-.1.36-.38.81-.25,1,.51,1,1.28.34,2,.31C103,17.37,103,17.25,103,17.13Zm3-.11h-2.22C104.62,18.15,105.28,17.42,106,17Zm-4-2.56c.18.29.39.83.54.81,1-.1,2-.32,3.31-.56-.44-.3-.75-.42-.9-.64-.43-.62-.88-.4-1.5-.42C102.58,13.62,102.5,14.31,102,14.46Zm-4.72.47,1.68.5v.12H97.35a3,3,0,0,0,3.37-.2l1,.19c-.13-2-1.32-.89-2.16-.78l-.06-.34,1.27-.58c0-.08,0-.15-.08-.22l-2.3.52.38.5-1.51.14Zm-2.66-.85a9.59,9.59,0,0,0,1.3.24c.15,0,.31-.23.47-.36-.16-.13-.32-.37-.47-.36a8.31,8.31,0,0,0-1.3.26ZM89.12,16.3l3.43-.49C91.26,14.77,90.16,15,89.12,16.3Zm-1-.6,2-.91C88.81,13.74,88.56,15,88.1,15.7ZM85.25,19c-.24-.72-.33-1.63-1.46-1.52l0,0c-2,1.21-2.25,1.75-1.87,3.55a.74.74,0,0,0,.29,0c.72-.24,1.43-.55,2.17-.76S85.5,19.7,85.25,19Zm15.41,35,1.9,1.4,2.79-6.81-1-2.25-2.15,2.5L98.7,50.41ZM62.37,23.58H48v61.7h7.19c.09-2.78.16-5.54.29-8.29.08-1.64.29-3.28.42-4.92,0-.26,0-.7-.08-.77-1.29-.68-.58-1.15.12-1.66a.45.45,0,0,0,.15-.35c-.17-1.33-.3-2.67-.57-4-.07-.33-.56-.6-.91-.82A7.12,7.12,0,0,0,53.53,64a1.92,1.92,0,0,0,.21-.29c.4-1,.93-1.68,2.16-1.34.1,0,.43-.3.43-.45,0-.9.46-1.84-.25-2.69-.15-.18-.15-.5-.29-1,.5.32.74.46,1,.61.06,0,.13-.07.15-.12.61-1.8,1.24-3.6,1.8-5.43.42-1.36.67-2.78,1.12-4.14.74-2.23,1.63-4.4,2.34-6.64A36.32,36.32,0,0,0,63,38.71s0,.36.09.76a2.44,2.44,0,0,0,.54-.28c.94-.85,1.85-1.74,2.8-2.57.34-.29.58-.44.29-1-.2-.35,0-.91,0-1.4.17.06.26.06.28.1.78,1.7,1.13,1.6,2.54.26a4.93,4.93,0,0,0,1.9-4.22c-.08-.84.66-1.76,1-2.66a2.21,2.21,0,0,0,.14-1.18c-.09-.36-.19-.71-.3-1.06a16.56,16.56,0,0,0-1.87-.75A24.47,24.47,0,0,0,62.37,23.58Zm10.7,3.31.68-.59c-.31-.19-.63-.37-1-.54C72.88,26.13,73,26.5,73.07,26.89ZM73,32.1c.34,0,.49,0,.64,0a.76.76,0,0,1,.59,0,2.79,2.79,0,0,1-.39.5c-.32.24-.82.36-1,.67-1.15,2.17-3.26,3.27-5.08,4.68a8.8,8.8,0,0,0-3.39,4.91,25.66,25.66,0,0,1-1,2.66l.27.22c.69-.63,1.38-1.26,2.08-1.88.25-.22.57-.62.79-.57,1.9.4,3.08-1,4.57-1.8a10.11,10.11,0,0,1-3.77,3.8c-1.07.62-2,1.41-3.12,2-1.46.79-1.48,2.25-1.82,3.56,0,.13.35.46.59.54.68.21,1.38.33,2.08.49l-.06.45H63.55c-1.52,0-1.77.19-2.15,1.63q-.67,2.58-1.34,5.16a5.12,5.12,0,0,0-.09.62c1.18.31,2.5.06,3.45.94,0,.12,0,.23-.05.35-.85-.09-1.72-.13-2.57-.26a1,1,0,0,0-1.23,1.13,54.5,54.5,0,0,1,.08,7.23c-.2,2.64-.18,5.31-.29,8-.11,2.39-.26,4.77-.41,7.15a6.29,6.29,0,0,1-.25,1h9.48a17.41,17.41,0,0,0,7.13-1.37,14.35,14.35,0,0,0,5.1-3.74,16.15,16.15,0,0,0,3.07-5.43,20.07,20.07,0,0,0,1-6.47,19.16,19.16,0,0,0-.74-5,16.28,16.28,0,0,0-2.37-5.06,13.25,13.25,0,0,0-4.18-3.86,12.16,12.16,0,0,0-6.31-1.53,5.85,5.85,0,0,0,3.16-1.08,11.4,11.4,0,0,0,3-3,16.72,16.72,0,0,0,2.24-4.56,18.83,18.83,0,0,0,.87-5.89,15,15,0,0,0-1.08-5.72,12.72,12.72,0,0,0-3.23-4.64c-.25-.23-.52-.45-.79-.67C73.79,28.23,73.22,30,73,32.1Zm-1.42-8.85c.19.75.44,1.49.66,2.24l.58.27-.86-3.33A.91.91,0,0,0,71.54,23.25ZM57.77,87.65l-1.32,5.62-1.31-5.62H52.77l-1.31,5.62-1.33-5.62H46.8L50,100.16h2.71L54,94.88l1.15,5.28h2.53l3.55-12.51Zm4.9,0L59,100.16h3.21l1.11-3.3h2.44l1.12,3.3h3.22L66.44,87.65Zm12.61,0-2,2.91V87.65H70.42v12.51h2.83V97.45l2,2.71h3.49l-4.64-6.24,4.66-6.27Zm4.27,12.51h7.67V97.33H82.38v-2h3.56V92.49H82.38v-2h4.84V87.65H79.55Zm15.59-6.81a5,5,0,0,0,.25-1.65A5.18,5.18,0,0,0,95.14,90a4,4,0,0,0-.71-1.28,3.22,3.22,0,0,0-1.12-.81,3.67,3.67,0,0,0-1.47-.29H88v12.51H90.9V95.75h.94a3.51,3.51,0,0,0,1.47-.29,3.28,3.28,0,0,0,1.12-.83A4.07,4.07,0,0,0,95.14,93.35ZM98,87.65l-3.67,12.51h3.21l1.11-3.3H101l1.13,3.3h3.21l-3.67-12.51Zm13.6,7.29a3.07,3.07,0,0,0,.76-.67,4.34,4.34,0,0,0,.66-1.1,3.93,3.93,0,0,0,.28-1.5,6.43,6.43,0,0,0-.19-1.54,3.45,3.45,0,0,0-.61-1.28A3.1,3.1,0,0,0,111.3,88a4.24,4.24,0,0,0-1.79-.33H105.7v12.51h2.82V96.09h0l1.69,4.07h3.24l-2.54-5A1.37,1.37,0,0,0,111.55,94.94ZM119,87.65l-2,2.91V87.65h-2.82v12.51H117V97.45l2,2.71h3.5l-4.64-6.24,4.66-6.27Z"/></svg>