<svg id="Layer_1" data-name="Layer 1" xmlns="http://www.w3.org/2000/svg" viewBox="0 0 170.08 113.39"><defs><style>.cls-1{fill:#1b181c;}.cls-2{fill:#3b3c3d;}</style></defs><title>creative</title><path class="cls-1" d="M72.71,56.33l-.49,0a2.3,2.3,0,0,1-1.36-.7,2.71,2.71,0,0,1-.74-1.35V45.88a2.56,2.56,0,0,1,.74-1.39,2.26,2.26,0,0,1,1.36-.71l.46-.05H76l.5.05a2.38,2.38,0,0,1,1.38.7,2.6,2.6,0,0,1,.74,1.34v1.67H76.49V46.08a1.74,1.74,0,0,0-.24-.17l-.23,0H72.7l-.24,0a.46.46,0,0,0-.21.24l0,.15v7.39l0,.26a.33.33,0,0,0,.21.16l.25.06h3.29l.22,0a.44.44,0,0,0,.22-.24V52.54h2.15v1.63a2.65,2.65,0,0,1-.74,1.41,2.35,2.35,0,0,1-1.38.7l-.48,0Z"/><path class="cls-1" d="M86.24,56.33l-2.3-5.22H82.09v5.22H79.94V43.73l6.37,0a2.34,2.34,0,0,1,2.1,2.1l0,.43v2.22l0,.47a2.33,2.33,0,0,1-2,2.09h-.1l2.31,5.25ZM85.87,49l.19-.05a.44.44,0,0,0,.22-.24l0-.21V46.32l0-.19a.37.37,0,0,0-.23-.21l-.19,0H82.09V49Z"/><polygon class="cls-1" points="89.98 56.33 89.98 43.73 98.53 43.73 98.53 45.88 92.13 45.88 92.13 48.96 96.84 48.96 96.84 51.11 92.13 51.11 92.13 54.18 98.53 54.18 98.53 56.33 89.98 56.33"/><path class="cls-1" d="M106.21,56.33v-3H102v3H99.8V52.52l3.31-8.79h2l3.26,8.69,0,3.91Zm-.6-5.16-1.53-4-1.49,4Z"/><polygon class="cls-1" points="111.83 56.33 111.83 45.88 108.63 45.88 108.63 43.73 117.18 43.73 117.18 45.88 113.98 45.88 113.98 56.33 111.83 56.33"/><rect class="cls-1" x="118.55" y="43.73" width="2.15" height="12.6"/><polygon class="cls-1" points="125.63 56.33 122.34 47.61 122.32 43.73 124.47 43.73 124.47 47.14 126.59 52.87 128.71 47.14 128.7 43.73 130.85 43.73 130.85 47.53 127.6 56.33 125.63 56.33"/><polygon class="cls-1" points="132.41 56.33 132.41 43.73 140.96 43.73 140.96 45.88 134.55 45.88 134.55 48.96 139.26 48.96 139.26 51.11 134.55 51.11 134.55 54.18 140.96 54.18 140.96 56.33 132.41 56.33"/><polygon class="cls-1" points="40.66 46.23 45.67 57.14 50.68 46.23 40.66 46.23"/><polyline class="cls-2" points="40.66 46.23 40.66 46.23 29.27 71.06 39.29 71.06 45.67 57.14 40.66 46.23"/><polygon class="cls-2" points="50.68 46.23 45.67 57.14 52.06 71.06 62.08 71.06 50.68 46.23"/><polygon class="cls-1" points="1.42 63.65 12.33 58.64 1.42 53.63 1.42 63.65"/><polyline class="cls-2" points="1.42 63.65 1.42 63.65 26.25 75.05 26.25 65.03 12.33 58.64 1.42 63.65"/><polygon class="cls-2" points="1.42 53.63 12.33 58.64 26.25 52.26 26.25 42.24 1.42 53.63"/><path class="cls-1" d="M76.52,74.29v-3H72.27v3H70.12V70.47l3.3-8.79h2l3.26,8.7v3.91Zm-.6-5.16-1.53-4-1.49,4Z"/><polygon class="cls-1" points="86.68 74.29 82.35 66.35 82.35 74.29 80.2 74.29 80.2 61.68 82.25 61.68 86.58 69.6 86.58 61.68 88.73 61.68 88.73 74.29 86.68 74.29"/><path class="cls-1" d="M90.37,74.29V61.68l6.39,0a1.88,1.88,0,0,1,1.38.69,2.53,2.53,0,0,1,.72,1.4l0,.44,0,7.87a2.42,2.42,0,0,1-.71,1.4,2.28,2.28,0,0,1-1.36.72l-.48.06Zm5.9-2.15.23,0a.25.25,0,0,0,.16-.2l.06-.25V64s0-.1-.21-.15l-.23,0H92.51v8.28Z"/><path class="cls-1" d="M106.77,74.29l-2.3-5.23h-1.86v5.23h-2.15V61.68l6.38,0a2.35,2.35,0,0,1,2.09,2.1l.06.44v2.22l-.06.46a2.33,2.33,0,0,1-2,2.1h-.1l2.31,5.25Zm-.38-7.38.2,0a.42.42,0,0,0,.21-.24l0-.21V64.28l0-.2a.46.46,0,0,0-.24-.21h-3.94v3Z"/><polygon class="cls-1" points="110.51 74.29 110.51 61.68 119.06 61.68 119.06 63.83 112.65 63.83 112.65 66.91 117.36 66.91 117.36 69.06 112.65 69.06 112.65 72.14 119.06 72.14 119.06 74.29 110.51 74.29"/><path class="cls-1" d="M123,74.29l-.5-.06a2.3,2.3,0,0,1-1.37-.7,2.67,2.67,0,0,1-.74-1.35V69.62h2.14v2l0,.24a.55.55,0,0,0,.24.2l.23,0h3.28l.23-.06a.6.6,0,0,0,.22-.26V61.68h2.15V72.14a2.31,2.31,0,0,1-2.1,2.09l-.48.06Z"/><path class="cls-1" d="M133.09,74.29l-.49-.06a2.31,2.31,0,0,1-2.1-2V70.93h2.15v1a.7.7,0,0,0,.22.14l.25,0h3.3l.23-.06a.38.38,0,0,0,.22-.24l0-.18V69.5l0-.23a.71.71,0,0,0-.24-.2l-.22,0h-3.73A2.62,2.62,0,0,1,130.5,67V63.84a2.62,2.62,0,0,1,.74-1.4,2.25,2.25,0,0,1,1.36-.7l.47-.06h3.33l.5.06a2.23,2.23,0,0,1,1.36.69,2.62,2.62,0,0,1,.73,1.34v1.16h-2.15v-.65l0-.22a.4.4,0,0,0-.23-.18l-.23-.05h-3.27l-.22.05a.45.45,0,0,0-.21.25v2.31l0,.22a.4.4,0,0,0,.23.18l.23,0h3.32l.44.06a2.27,2.27,0,0,1,1.36.68A2.59,2.59,0,0,1,139,69v3.14a2.35,2.35,0,0,1-2.1,2.1l-.48.06Z"/><path class="cls-1" d="M146.82,74.29v-3h-4.25v3h-2.15V70.47l3.3-8.79h2l3.27,8.7v3.91Zm-.6-5.16-1.53-4-1.49,4Z"/><polygon class="cls-1" points="150.5 74.29 150.5 61.68 152.65 61.68 152.65 72.14 159.05 72.14 159.05 74.29 150.5 74.29"/><path class="cls-1" d="M166.51,74.29v-3h-4.25v3h-2.15V70.47l3.3-8.79h2l3.26,8.7v3.91Zm-.6-5.16-1.53-4-1.49,4Z"/></svg>