<svg id="Layer_1" data-name="Layer 1" xmlns="http://www.w3.org/2000/svg" viewBox="0 0 170.08 113.39"><defs><style>.cls-1{fill:#1d1d1b;}</style></defs><title>liepaja</title><path class="cls-1" d="M74,104.17c-10.72,0-26-1.75-38.07-10,0,0-.21-.13-.48-.3-1.31-.82-4.8-3-6.52-4.39-2.13-1.73-6.1-6.54-5.86-12.38.08-1.81.2-3.49.33-5.34l.09-1.25c0-.6.1-1.19.16-1.77l0-.29a23.75,23.75,0,0,0,.19-4,10.28,10.28,0,0,0-1.73-4.09l0-.06a19.35,19.35,0,0,1-2.32-5c-.12-.49-.2-1-.26-1.34a6,6,0,0,0-.25-1.08,4.09,4.09,0,0,0-.16-.42L19,52.21a14.28,14.28,0,0,1-.76-2.29,6.07,6.07,0,0,1-1.06-2.18c-.28-1.08-.55-2.15-.75-3.28,0-.21-.05-.41-.07-.62l0-.12a3.82,3.82,0,0,1,.41-4.56,9.14,9.14,0,0,1,1.87-1.73,30.27,30.27,0,0,1,6.24-3.11c1.28-.46,2.58-.87,3.72-1.24h0a4.11,4.11,0,0,1,2.18-2.31c1.08-.54,2.36-1.18,3.71-1.8,1-.45,1.82-.81,2.61-1.12a15,15,0,0,1,1.08-2.39A22.37,22.37,0,0,1,40,22.69a6,6,0,0,1,1.15-1.13l.22-.19a12.91,12.91,0,0,1,3.8-2.61c.52-.23,1-.5,1.57-.78a19,19,0,0,1,5.71-2.17,54.35,54.35,0,0,0,15.62-5,17.87,17.87,0,0,1,3.74-1.48,3.83,3.83,0,0,1,.73-.07,3.21,3.21,0,0,1,2.86,1.71,3,3,0,0,1,.36,1.28c.75,0,1.5-.05,2.25-.05,8.66,0,15.65,1.93,24.13,5.06,12,4.42,31,8.19,33.49,8.43l.12,0,.09,0,.08,0c.27.1.26.26.22.35s-.05.16-.42.15c-1.57.61-11.71,4.38-20.87,4l-1.1,0c5.58,1.68,19.81,5.18,20,5.22l.59.15-.54.27c-.07,0-7.21,3.66-20.3,4.15a53.38,53.38,0,0,1-5.87-.18c8.65,3.67,23.89,5.46,32.24,6.44,5.43.63,5.76.71,5.85,1l0,.15-.13.13c-6.88,5.66-16.34,6.67-24.69,7.56-3.14.33-6.1.65-8.78,1.18-3.66.73-6,2.09-7.27,4.16a6.64,6.64,0,0,0-.94,3.43c28.25.07,49.57,13.87,49.78,14l.62.41h-.74c-.11,0-11.47.09-22,.09a150,150,0,0,0-17.67,1c8.3,1.24,35.73,4.54,36,4.57l1.4.17-1.38.28c-.2,0-19.85,4-23.33,4.51-4.48.66-10,1.48-15.36,2,6.18,1.43,28.74,5.71,29,5.76l1.68.31-1.7.13c-.23,0-22.89,1.74-29.09,1.67A130.34,130.34,0,0,1,81.69,95.2a20.23,20.23,0,0,0-5-.63c-.49,0-1,0-1.44.05,2.66,1,5.93,2,9.15,2.86.28.08,1,.22,2,.4,6.52,1.27,10.27,2.21,10.19,3.28s-3.26,1.64-11.37,2.35c-.58,0-1,.08-1.22.11A88.66,88.66,0,0,1,74,104.17ZM72.55,9.67a3.14,3.14,0,0,0-.65.07,16.69,16.69,0,0,0-3.62,1.44,55.28,55.28,0,0,1-15.75,5.08A18.19,18.19,0,0,0,47,18.38c-.54.28-1.06.55-1.59.79a12.48,12.48,0,0,0-3.67,2.52l-.26.21A6.2,6.2,0,0,0,40.37,23a23.13,23.13,0,0,0-1.79,2.7,15.19,15.19,0,0,0-1.08,2.42l0,.1-.1,0c-.81.32-1.66.68-2.68,1.15-1.34.61-2.62,1.25-3.7,1.79a3.67,3.67,0,0,0-2,2.15l0,.11-.1,0-.1,0-.06,0c-1.14.36-2.43.78-3.71,1.23a30.43,30.43,0,0,0-6.15,3.07,8.58,8.58,0,0,0-1.76,1.63,3.38,3.38,0,0,0-.35,4.08l0,.1,0,.18c0,.2.05.39.08.59.19,1.11.46,2.16.74,3.23a5.3,5.3,0,0,0,1,2.06l0,.09A13.42,13.42,0,0,0,19.41,52l.08.21c.06.14.12.29.17.43a6,6,0,0,1,.25,1.14c.07.4.15.86.27,1.33A18.59,18.59,0,0,0,22.44,60l0,.08a10.41,10.41,0,0,1,1.8,4.29,23.52,23.52,0,0,1-.2,4l0,.3c-.06.57-.12,1.16-.16,1.75l-.09,1.25c-.13,1.85-.25,3.53-.33,5.33-.23,5.66,3.63,10.33,5.7,12a77.7,77.7,0,0,0,6.47,4.36l.5.31C48.09,102,63.3,103.71,74,103.71a88.86,88.86,0,0,0,10-.54l1.23-.11c9.48-.83,10.94-1.56,11-1.93,0-.59-3.26-1.53-9.82-2.8-1-.19-1.69-.33-2-.41-3.6-1-7.28-2.15-10.1-3.21l-.83-.31.88-.12a17.74,17.74,0,0,1,2.46-.16,20.23,20.23,0,0,1,5.06.64,130.27,130.27,0,0,0,29.37,3.53c5.2,0,21.93-1.14,27.35-1.54-6-1.14-25.83-4.94-28.59-5.77l-1.11-.33,1.16-.11c5.76-.54,11.78-1.43,16.61-2.14,2.94-.43,17.38-3.32,21.93-4.24-6.19-.75-31.07-3.77-36.11-4.63l-1.33-.23,1.34-.22a139.83,139.83,0,0,1,19.2-1.24c8.93,0,18.46-.06,21.21-.08-3.8-2.3-23.64-13.53-49.11-13.53h-.22V64a7.16,7.16,0,0,1,1-3.9c1.3-2.18,3.78-3.6,7.57-4.36,2.7-.54,5.67-.85,8.82-1.19,8.18-.87,17.44-1.86,24.19-7.25-.75-.17-2.87-.42-5.26-.7-8.77-1-25.09-2.94-33.53-7l-1.06-.51,2,.14a57.18,57.18,0,0,0,6.24.21c10.89-.41,17.62-3,19.54-3.83-3.14-.78-17.21-4.28-20.77-5.53l-1.32-.47,1.4,0c.86,0,1.72,0,2.58,0,8.09.3,16.93-2.63,19.87-3.71-.54-.08-1.31-.22-2.39-.42-2.49-.47-5.56-1.11-8.66-1.81A194.21,194.21,0,0,1,102,17.64c-8.44-3.11-15.39-5-24-5-.82,0-1.65,0-2.46.06h-.24v-.24a2.63,2.63,0,0,0-.32-1.3A2.74,2.74,0,0,0,72.55,9.67Z"/><path class="cls-1" d="M55.92,45.62a32,32,0,0,1,1.89,6c.51,3.06.39,4.07-1.26,6.75a7.66,7.66,0,0,0-1.39-2.87,12,12,0,0,1-.75,2.32,7.68,7.68,0,0,0-2.25-4.27c.76,2.78,1.76,8.81-2.48,12,2.18.28,4.9.65,6.86-.52,2.91-1.75,3.28-5.55,3.86-8.45.69.31,1.28.91,2,1.24a5.14,5.14,0,0,1-.09-1.55c.51.24.81.8,1.23,1.11.05-1.27.36-2.28.4-3.56a12.27,12.27,0,0,1,3.8,1.92,30,30,0,0,1-1.21-3.94c-1.21.89-4.86-.71-5.86-1.39A25.55,25.55,0,0,1,55.92,45.62Z"/><path class="cls-1" d="M145.78,75.94c-21-9.06-44.32-9.16-44.34-9.2-1.31-4-.22-11.63,10.25-13.51s19.12-1.35,26.4-4.25a.17.17,0,0,0,0-.32c-22.2-1.43-34.26-5.27-39.86-12.32-.89-1.12,15.45,2.08,25.11-.43a.17.17,0,0,0,0-.33c-7.63-1-15.15-4.44-25.42-8-9.41-3.31,14.6,1.36,27.83-1.25a.17.17,0,0,0,0-.33c-23-2.28-33.46-13.11-54.18-10.34-1.56.21,1.24-2.71,1-3.37-2.27.07-8.36,4.8-19.47,6.54-2.32.37-4.35,1.72-6.47,2.71a9.69,9.69,0,0,0-2.93,2,11.87,11.87,0,0,0-1.1,1,19.94,19.94,0,0,0-1.59,2.4,11.44,11.44,0,0,0-1,2.42A1.38,1.38,0,0,1,39,30.39c-1.06.39-2.1.84-3.13,1.31-1.21.56-2.41,1.15-3.61,1.75-.65.33-1,.71-.44,1.53a1,1,0,0,1,.09.2c-.21.08-.41.16-.61.22C29.5,36,27.72,36.53,26,37.16A27.34,27.34,0,0,0,20.34,40a6.09,6.09,0,0,0-1.22,1.16A.82.82,0,0,0,19,42.2,3.72,3.72,0,0,1,19.5,44c.17,1,.42,2,.69,3a2.47,2.47,0,0,0,.84,1.4.75.75,0,0,1,.16.43,14,14,0,0,0,1,3,22.65,22.65,0,0,1,.61,2.74,16.36,16.36,0,0,0,2,4.29,12.46,12.46,0,0,1,2.14,5.42,46.57,46.57,0,0,1-.38,6.46c-.15,2.23-.32,4.27-.41,6.51-.19,4.58,3.15,8.61,4.75,9.92,2,1.62,6.68,4.44,6.81,4.53,17.18,11.85,41.91,9.48,46,9a.11.11,0,0,0,0-.22c-2.54-.7-12.86-3.62-16.3-6.17a.17.17,0,0,1,0-.28c6.65-3.88,14-2,15.1-1.67,15.38,5,31.27,3.38,38.55,4a.17.17,0,0,0,.06-.33C110.67,93,97.66,90,95.07,88.26a.17.17,0,0,1,.13-.3c9.06,2.05,33-2.71,39.49-3.22a.17.17,0,0,0,0-.33c-5.82-.81-25.29-1-35-6a.17.17,0,0,1,.1-.32c4.87.74,26-4.51,45.94-1.86C146,76.3,146,76,145.78,75.94ZM111.54,48.32S97.82,54.69,87.15,48a32.22,32.22,0,0,0,17.55.53c-11.17-3.57-11.93-7-14.91-9.37C103.43,47.72,111.54,48.32,111.54,48.32ZM78.87,18a19.17,19.17,0,0,1,6.92,1c2.71,1,5.35,1.86,8,3.1a75.75,75.75,0,0,0-15.57-.51C81.88,23.12,85,25.72,88.31,28s7,4.17,11,4.13a25.55,25.55,0,0,1-20.09-5.27c-2.34-1.9-3.37-3.31-6.64-4.72-3.89-1.67-13.55-1.09-14.79-.77C63.52,19.74,73,18,78.87,18ZM22.72,40.85c2.68-2,10.46-4.29,11.12-4.76.31-.23-.29-.53.31-1.16s6.49-2.44,7.46-3.47c1.68-1.79,1.59-3.74,4.49-4.29a5.4,5.4,0,0,1,1.44.09,39.16,39.16,0,0,0,10.11-.56c1.31-.26,1.7-.46,2.47.54a19.64,19.64,0,0,1,1.63,3.54c-.33-.66.79-3.55,1-4.32l5.65,3.75a1.15,1.15,0,0,1,.58.65,1.06,1.06,0,0,1-.06.53c-.47,1.7-1.34,3.52-1,5.26.06.32.75,3.31,1.13,3.28A2.86,2.86,0,0,1,67,39.22a15.09,15.09,0,0,0,1.86,5.55c-2.1-3-8.1-2.49-9.52-2-.61,6.56,8.39,6.56,8.39,6.56s1.38,6.31,1.67,8.67c0,0-3.22-1.75-4.24-2.33l-1,4.72a3.48,3.48,0,0,1-.85-1c-.52,1-1.07,4.5-2.62,6.26-2.58,2.94-7.36,4.1-11.72,2.85a21.63,21.63,0,0,1-3.88,4.72c1.83-4.87,3.28-10.31,1.84-15.48A49.07,49.07,0,0,0,43.13,51a8.25,8.25,0,0,0-4.22-3.1c-1.64-.56-3.6-.31-5.06-1.31a2.76,2.76,0,0,0-2-.73,4.6,4.6,0,0,0-1.33.74,3,3,0,0,1-1.72.41c-.24,0-1.21-.41-1.39-.28a3.37,3.37,0,0,0,2.06-2c.94-3.19,4.16-2.7,6.9-3.73,1.27-.48,7.14-2.65,9-3.08.78-.19,1.8-.81,2.29-.3a5.71,5.71,0,0,0,2.49,1.55v0c0,.13-1.88,1.34-1.87,1.4a23.92,23.92,0,0,0,4-.21c2-.13,4.93.32,5.54-.25a6.9,6.9,0,0,0,.82-2.94,14.59,14.59,0,0,0-4.9.28c2.12-2.95,6.34-1.75,6.41-1.68a4,4,0,0,0-2.06-2.1,6.09,6.09,0,0,0-3.51.23c-1.47.57-4.64,2.44-4.85,2.51a1.6,1.6,0,0,1-1.57-.55,1.67,1.67,0,0,1-.2-1.71,3.66,3.66,0,0,1,.49-.8,3.24,3.24,0,0,1,.65-.77l-4.85,2.74A76.87,76.87,0,0,1,36,38.88a42.11,42.11,0,0,1-4.89,1.5,17.39,17.39,0,0,1-2.6-.18A14.92,14.92,0,0,0,22.72,40.85Zm.59,9.62c-.2-.7-.65-1.65-.34-2,.72-.11,2,.9,2.65,1.1a7.23,7.23,0,0,0,5.93-.95,2,2,0,0,1,.9-.43,2,2,0,0,1,1.37.71c1,.9,2.65.78,3.92,1a8.32,8.32,0,0,1,6,6.16A10.25,10.25,0,0,0,35,51.84c.25,0,.64.22.64.35a38.43,38.43,0,0,0-.06,7.24c0,.25-3.32-4.45-3.26-8.07-.37-.31-4,0-4.63,0l-2.11-.15s1.09.72,1.19,1c0,2.56,1,4.6,1.63,6.54C27.93,58.59,25.37,57.83,23.31,50.47ZM49.93,78.05c-2.38.72-8.29,2.57-9.25,4.89s1.77,6.24,2,6.24a7.07,7.07,0,0,1-4.71-2,11.36,11.36,0,0,1-2-2.92,32.33,32.33,0,0,1-1.68-4.69A10,10,0,0,0,34,81.89a23.48,23.48,0,0,1-1.39-3.17c-.79,1.36-.11,6.51-.11,6.51s-2.7-3.31-3.06-5.87a29.91,29.91,0,0,1-.37-7A18,18,0,0,1,30.37,68a37.47,37.47,0,0,0,1.12,6l2.9-.38a14.21,14.21,0,0,1,.08-5.93c.6,1.16,1.56,4.22,3.09,5.55C39.51,74.88,43,76.91,43.94,77c.83-2.24,2.41-.47,2.41-.47s.54-1.66.83-2.74c.29.66,1.08,1.69,1.8,1.7a17.47,17.47,0,0,0,4.77-.89c-.19.55-.65,4.31-4.25,6.34A6.47,6.47,0,0,0,49.93,78.05ZM64.29,91.82c-1.71.61-3.47,1.79-5.34,1.69,1.49.67,5.91,3.31,10.25,5.43a16.58,16.58,0,0,1-6-1.54c-.81-.34-1.61-.72-2.4-1.1a21.7,21.7,0,0,0-2.09-.76c-3-1.07-6.19-1.8-9-3.16,1,0,1.68.1,2.43.11a24.32,24.32,0,0,0,3.07-.18c2-.25,4.07-.7,6.08-1.15,3.76-.83,7.64-1.64,11.43-1A29.75,29.75,0,0,0,64.29,91.82ZM80.66,66.76c1.18,2.36,3.64,4.7,6.15,6.68a31.06,31.06,0,0,0-9.06-1.52c8.48,12.24,41,12.45,41,12.45S88,91,68.36,69.17a29.71,29.71,0,0,1,10.26,0s-1.87-3.66-4.25-4.71c3.57-.93,5.52-1.67,5.52-1.67l-3.37-3.37A93.56,93.56,0,0,0,93.06,67.7C107.37,73.2,125,73.39,125,73.39S103.94,77.27,80.66,66.76Z"/></svg>