<svg id="Layer_1" data-name="Layer 1" xmlns="http://www.w3.org/2000/svg" viewBox="0 0 170.08 113.39"><defs><style>.cls-1{fill:#1d1d1b;}</style></defs><title>sporta</title><path class="cls-1" d="M47,35.79,42.41,20.05a1.71,1.71,0,0,0-3.29.95l5,17,0,0a1.48,1.48,0,0,0,.21.46l.06.07a1.41,1.41,0,0,0,.34.35h0a1.4,1.4,0,0,0,.44.22l.08,0a1.66,1.66,0,0,0,.49.07h0l17.75-.55a1.71,1.71,0,0,0,.95-3.09,1.69,1.69,0,0,0-1.06-.33Z"/><path class="cls-1" d="M25.66,35.78,9.27,35.3a1.71,1.71,0,1,0-.11,3.42l17.74.55h0a1.68,1.68,0,0,0,.5-.07l.09,0A2,2,0,0,0,28,39v0a1.93,1.93,0,0,0,.35-.35l.05-.07a1.57,1.57,0,0,0,.22-.45v0l5-17a1.71,1.71,0,0,0-2.65-1.86,1.7,1.7,0,0,0-.64.9Z"/><path class="cls-1" d="M20.27,54.74,14.75,70.18A1.71,1.71,0,1,0,18,71.34l6-16.69v0a2.1,2.1,0,0,0,.09-.5V54a1.61,1.61,0,0,0-.08-.48v0a2,2,0,0,0-.23-.43L23.71,53a1.5,1.5,0,0,0-.36-.35,0,0,0,0,1,0,0l-14.68-10A1.71,1.71,0,0,0,6.72,45.5Z"/><path class="cls-1" d="M36.13,66.19l13,10a1.71,1.71,0,1,0,2.1-2.7l-14-10.88h0a1.88,1.88,0,0,0-.44-.24l-.09,0a1.51,1.51,0,0,0-.48-.08h0a1.61,1.61,0,0,0-.48.08l-.08,0a1.7,1.7,0,0,0-.44.24h0l-14,10.88a1.72,1.72,0,0,0-.31,2.4,1.74,1.74,0,0,0,2.41.31Z"/><path class="cls-1" d="M51.88,54.74l13.55-9.25a1.71,1.71,0,0,0-1.92-2.83l-14.68,10,0,0a1.5,1.5,0,0,0-.36.35l-.05.07a1.85,1.85,0,0,0-.23.44v0a2.53,2.53,0,0,0-.07.48v.09a1.62,1.62,0,0,0,.08.49l0,0,6,16.71a1.71,1.71,0,0,0,2.19,1,1.73,1.73,0,0,0,1-1.08,1.69,1.69,0,0,0,0-1.11Z"/><path class="cls-1" d="M84.49,34.9l-.33,1.81a.34.34,0,0,1-.36.31h0c-.5,0-2.55-.2-3.78-.2-.86,0-1.6.14-1.6,1.15,0,.38.18.56.92,1l2.09,1.37a3.46,3.46,0,0,1,1.92,2.88c0,3.29-2.57,4.6-5.59,4.6a13.15,13.15,0,0,1-3.39-.4.32.32,0,0,1-.3-.3V47.1l.31-1.76a.38.38,0,0,1,.38-.34h0c.72.07,2.68.21,3.38.21,1,0,1.85-.32,1.85-1.47,0-.4-.21-.79-.93-1.26L76.87,41a3.29,3.29,0,0,1-1.62-2.79c0-3.15,2.57-4.06,5.28-4.06a18.7,18.7,0,0,1,3.74.39.25.25,0,0,1,.22.25Z"/><path class="cls-1" d="M95.63,38.51l0,.16c-.37,3.4-3,4.35-6.13,4.35-.43,0-1,0-1.45-.05l-.76,4.37a.45.45,0,0,1-.43.35H84.52a.27.27,0,0,1-.3-.28v-.06l2.14-12.07c.1-.62.37-.78,1-.87a28.27,28.27,0,0,1,3.7-.23c2.73,0,4.66,1.08,4.66,3.65C95.67,38,95.65,38.28,95.63,38.51Zm-5-1.78c-.25,0-1.26,0-1.47.06l-.65,3.66c.2,0,1.26,0,1.45,0,1.61,0,2.49-.58,2.63-1.82v-.16a1.34,1.34,0,0,0,0-.34C92.6,37.14,92,36.73,90.6,36.73Z"/><path class="cls-1" d="M107.14,40l-.38,2.14c-.74,4.2-3,5.77-6.34,5.77A4.11,4.11,0,0,1,96,43.45a7.34,7.34,0,0,1,.13-1.36L96.5,40c.79-4.46,3.34-5.77,6.34-5.77,2.41,0,4.43,1.31,4.43,4.36A8,8,0,0,1,107.14,40Zm-4.78-3.08c-1.51,0-2.36.83-2.75,3.08l-.38,2.14a6.89,6.89,0,0,0-.13,1.25c0,1.35.62,1.82,1.8,1.82,1.51,0,2.39-.92,2.77-3.07l.38-2.14a8.1,8.1,0,0,0,.12-1.19C104.17,37.42,103.56,36.87,102.36,36.87Z"/><path class="cls-1" d="M116.05,42.21l1.82,5.07a.4.4,0,0,1,0,.15c0,.14-.1.26-.32.26H115c-.2,0-.22-.17-.29-.35l-1.62-4.55h0l-.32,0c-.38,0-.94,0-1.28,0l-.79,4.57a.45.45,0,0,1-.43.35h-2.34a.27.27,0,0,1-.29-.28v-.06h0l2.13-12.06c.1-.62.37-.78,1-.87a27.36,27.36,0,0,1,3.7-.23c2.7,0,4.71,1,4.71,3.43A4.46,4.46,0,0,1,116.05,42.21Zm-2.13-5.42c-.26,0-1.19,0-1.41.05l-.61,3.45c.2,0,1.06,0,1.26,0,1.76,0,2.86-.44,2.86-2.32C116,37.07,115.32,36.79,113.92,36.79Z"/><path class="cls-1" d="M130.45,34.68l-.32,1.85a.46.46,0,0,1-.45.34h-2.91l-1.84,10.47a.45.45,0,0,1-.43.35h-2.35a.27.27,0,0,1-.29-.28v-.07l1.83-10.47h-2.93a.25.25,0,0,1-.28-.27v-.07l.32-1.85a.43.43,0,0,1,.41-.34h8.92a.3.3,0,0,1,.32.29Z"/><path class="cls-1" d="M139.53,47.69h-2.46a.31.31,0,0,1-.31-.32l-.12-2.95H133l-1.17,2.95a.47.47,0,0,1-.41.32H128.8c-.16,0-.25-.08-.25-.21a.45.45,0,0,1,0-.16l4.64-11.15a3.2,3.2,0,0,1,3.34-2c1.24,0,2.5.27,2.61,2l.72,11.15v0A.34.34,0,0,1,139.53,47.69ZM136.35,37c0-.18,0-.27-.18-.27s-.24.09-.31.27l-2,5h2.68Z"/><path class="cls-1" d="M79.42,56.25,77.19,68.91a.45.45,0,0,1-.41.35H74.37a.25.25,0,0,1-.26-.26v-.09l2.24-12.66a.37.37,0,0,1,.37-.34h2.41a.26.26,0,0,1,.29.27Z"/><path class="cls-1" d="M90.24,56.41c-.07.47-.18,1.1-.28,1.64a1.61,1.61,0,0,1-.24.47l-6.26,7.76a.42.42,0,0,0-.12.24s0,.09.18.09h4.67a.27.27,0,0,1,.31.27v.05l-.34,2a.47.47,0,0,1-.43.35H79.56c-.37,0-.66-.12-.66-.44,0,0,0-.08,0-.11l.27-1.44a1.56,1.56,0,0,1,.39-.79l6.17-7.59a.42.42,0,0,0,.11-.21c0-.07-.06-.11-.19-.11H81.4a.28.28,0,0,1-.31-.29v-.05l.36-2a.42.42,0,0,1,.41-.34h7.75c.35,0,.63.14.63.41Z"/><path class="cls-1" d="M101.22,56.43l-.34,1.91c0,.2-.14.23-.3.23h0c-.88,0-2.21-.14-3.74-.14s-2.46.57-2.89,3l-.4,2.25a8,8,0,0,0-.12,1.19c0,1.49.73,1.87,1.6,1.87.5,0,1,0,1.4-.06l.72-4.13a.43.43,0,0,1,.41-.36h2.3a.27.27,0,0,1,.29.29v.07l-1.06,6c0,.25-.14.36-.43.41a20.42,20.42,0,0,1-4.1.38,4.11,4.11,0,0,1-4.25-4.37,7.48,7.48,0,0,1,.13-1.35l.4-2.23c.88-5,3.56-5.73,6.48-5.73a16.42,16.42,0,0,1,3.69.41c.13,0,.25.09.25.22Z"/><path class="cls-1" d="M109,67.15l-.31,1.67c0,.23-.14.32-.41.38a20.34,20.34,0,0,1-3,.23c-2,0-3.79-.7-3.79-3a6.22,6.22,0,0,1,.09-.9l1.64-9.29a.45.45,0,0,1,.43-.36H106a.27.27,0,0,1,.29.29v.07l-1.64,9.29a3,3,0,0,0-.05.47c0,.58.31.76,1,.76h3.09a.29.29,0,0,1,.31.3Z"/><path class="cls-1" d="M116.39,53.05l-.23,1.33a.41.41,0,0,1-.41.32h-3.49a.27.27,0,0,1-.3-.27v0l.23-1.33a.41.41,0,0,1,.41-.34h3.49a.27.27,0,0,1,.3.28Zm-1.2,3.2L113,68.91a.43.43,0,0,1-.41.35h-2.41a.24.24,0,0,1-.25-.26v-.09l2.23-12.66a.38.38,0,0,1,.37-.34h2.41a.26.26,0,0,1,.29.27Z"/><path class="cls-1" d="M132,53.05l-.23,1.33a.41.41,0,0,1-.41.32h-3.49a.28.28,0,0,1-.31-.27v0l.23-1.33a.43.43,0,0,1,.42-.34h3.49a.27.27,0,0,1,.3.28Zm-1.2,3.2-2.23,12.66a.45.45,0,0,1-.42.35h-2.4a.25.25,0,0,1-.26-.26v-.09l2.23-12.66a.39.39,0,0,1,.38-.34h2.41a.26.26,0,0,1,.29.27Z"/><path class="cls-1" d="M126.1,56.25l-.32,1.86a.48.48,0,0,1-.45.34h-2.91l-1.84,10.46a.45.45,0,0,1-.43.35H117.8a.27.27,0,0,1-.29-.28v-.07l1.83-10.46h-2.93a.26.26,0,0,1-.29-.27v-.07l.33-1.86a.41.41,0,0,1,.41-.34h8.92a.3.3,0,0,1,.32.29Z"/><path class="cls-1" d="M139.74,62.47a2.54,2.54,0,0,1,1.19,2.18c0,3.75-3.3,4.78-6.43,4.78a21.88,21.88,0,0,1-3.29-.22c-.58-.11-.83-.27-.83-.77a3,3,0,0,1,0-.39l1.92-10.93c.14-.81.45-1.07,1.17-1.17a29.45,29.45,0,0,1,3.29-.2c3,0,5,.86,5,3.07A3.85,3.85,0,0,1,139.74,62.47Zm-3.48,1.06h-2l-.59,3.36,1.48,0c1.49,0,2.8-.36,2.8-2.14C137.93,64.07,137.5,63.53,136.26,63.53Zm.29-5.26h-1.37l-.56,3.11h2a1.89,1.89,0,0,0,2.17-2.06C138.81,58.54,138.16,58.27,136.55,58.27Z"/><path class="cls-1" d="M151.9,69.26h-2.47a.3.3,0,0,1-.3-.32L149,66h-3.68l-1.17,2.94a.48.48,0,0,1-.41.32h-2.58c-.16,0-.25-.08-.25-.21a.47.47,0,0,1,0-.16l4.64-11.15a3.19,3.19,0,0,1,3.34-2c1.24,0,2.5.27,2.61,2l.72,11.15v0A.35.35,0,0,1,151.9,69.26Zm-3.18-10.69c0-.18,0-.27-.18-.27s-.24.09-.31.27l-2,5h2.68Z"/><path class="cls-1" d="M163.79,56.47l-.32,1.81a.34.34,0,0,1-.36.31h0c-.51,0-2.56-.2-3.78-.2-.86,0-1.6.15-1.6,1.15,0,.38.18.56.92,1L160.7,62a3.49,3.49,0,0,1,1.93,2.88c0,3.29-2.57,4.6-5.59,4.6a13.29,13.29,0,0,1-3.4-.4.32.32,0,0,1-.29-.3v0l.31-1.77a.38.38,0,0,1,.37-.34h.06c.72.07,2.68.22,3.38.22,1,0,1.85-.33,1.85-1.48,0-.39-.22-.79-.94-1.25l-2.21-1.46a3.3,3.3,0,0,1-1.61-2.79c0-3.14,2.57-4.06,5.28-4.06a18.67,18.67,0,0,1,3.74.4.24.24,0,0,1,.21.25Z"/><path class="cls-1" d="M84.16,90.84H81.7a.31.31,0,0,1-.3-.33l-.13-2.94H77.58l-1.16,2.94a.48.48,0,0,1-.42.33H73.43a.22.22,0,0,1-.25-.22.47.47,0,0,1,0-.16l4.64-11.14a3.19,3.19,0,0,1,3.34-2c1.24,0,2.5.27,2.6,2l.72,11.14v0A.35.35,0,0,1,84.16,90.84ZM81,80.14c0-.18,0-.27-.18-.27s-.23.09-.3.27l-2,5H81.2Z"/><path class="cls-1" d="M92.42,92.2l-1.47,2c-.13.19-.2.36-.4.36H89a.24.24,0,0,1-.27-.23.28.28,0,0,1,0-.13l.9-2c.1-.22.21-.35.41-.35h2.19c.15,0,.24.08.24.18A.29.29,0,0,1,92.42,92.2ZM97.05,78l-.34,1.91c0,.2-.14.23-.3.23h-.06c-.86,0-2.19-.14-3.72-.14s-2.46.58-2.89,3l-.4,2.25a8.1,8.1,0,0,0-.12,1.19c0,1.49.74,1.87,1.6,1.87.5,0,1,0,1.4-.06l.72-4.13a.43.43,0,0,1,.41-.36h2.3a.27.27,0,0,1,.29.29v.07l-1.06,6c0,.25-.14.36-.43.41a20.42,20.42,0,0,1-4.1.38,4.09,4.09,0,0,1-4.24-4.37,7.41,7.41,0,0,1,.12-1.35l.4-2.23c.88-5,3.56-5.73,6.49-5.73a16.31,16.31,0,0,1,3.68.41c.13,0,.25.09.25.22Z"/><path class="cls-1" d="M107.21,77.91l-.31,1.68a.44.44,0,0,1-.41.36h-3.65c-.73,0-1.18.14-1.37,1.2l-.28,1.65h4.65a.28.28,0,0,1,.29.31v0l-.29,1.71a.45.45,0,0,1-.43.36h-4.65l-.34,1.9a2.4,2.4,0,0,0-.06.47c0,.58.31.76,1,.76H105a.28.28,0,0,1,.3.3v.06l-.3,1.67a.42.42,0,0,1-.42.38,21.35,21.35,0,0,1-3.48.23c-1.87,0-3.83-.66-3.83-3a4.69,4.69,0,0,1,.09-.88l1.06-6c.61-3.49,2.61-3.85,5.07-3.85a19.52,19.52,0,0,1,3.41.24c.22,0,.33.08.33.25S107.21,77.88,107.21,77.91Z"/><path class="cls-1" d="M119.65,77.82l-2.18,12.34a.84.84,0,0,1-.79.68h-1.51a.93.93,0,0,1-1-.56l-3-7.08c0-.11-.09-.15-.14-.15s-.09,0-.11.15l-1.28,7.28a.45.45,0,0,1-.43.36h-2.12a.28.28,0,0,1-.29-.31v0L109,78.17a.86.86,0,0,1,.81-.69h1.36a1,1,0,0,1,1,.56l3.08,7.41c.06.1.06.14.11.14s.11,0,.13-.16l1.35-7.61a.42.42,0,0,1,.41-.34h2.12a.3.3,0,0,1,.31.29Z"/><path class="cls-1" d="M130.56,77.82l-.32,1.85a.47.47,0,0,1-.45.35h-2.91L125,90.48a.45.45,0,0,1-.43.36h-2.35a.27.27,0,0,1-.29-.29v-.07L123.8,80h-2.93a.26.26,0,0,1-.29-.27v-.08l.33-1.85a.42.42,0,0,1,.41-.34h8.92a.3.3,0,0,1,.32.29Z"/><path class="cls-1" d="M150.37,85.36l1.82,5.06a.8.8,0,0,1,0,.15c0,.14-.1.27-.32.27h-2.61c-.2,0-.22-.18-.29-.36l-1.62-4.55h0L147,86c-.37,0-.93,0-1.27,0L145,90.48a.47.47,0,0,1-.43.36h-2.34a.28.28,0,0,1-.29-.29v-.07L144,78.42c.11-.61.38-.78,1-.86a25.56,25.56,0,0,1,3.7-.24c2.7,0,4.71,1,4.71,3.43A4.49,4.49,0,0,1,150.37,85.36Zm-2.14-5.43c-.25,0-1.19,0-1.4,0l-.61,3.45c.2,0,1.06,0,1.26,0,1.76,0,2.85-.43,2.85-2.32C150.33,80.21,149.63,79.93,148.23,79.93Z"/><path class="cls-1" d="M163.74,90.84h-2.46a.32.32,0,0,1-.31-.33l-.12-2.94h-3.69L156,90.51a.48.48,0,0,1-.41.33H153a.22.22,0,0,1-.25-.22.9.9,0,0,1,0-.16l4.64-11.14a3.21,3.21,0,0,1,3.35-2c1.23,0,2.5.27,2.6,2l.72,11.14v0A.35.35,0,0,1,163.74,90.84Zm-3.18-10.7c0-.18,0-.27-.18-.27s-.23.09-.31.27l-2,5h2.68Z"/><path class="cls-1" d="M142.13,77.82l-1.41,8c-.81,4.52-3.26,5.18-6.12,5.18-2.51,0-4.36-1.17-4.36-3.9a6.52,6.52,0,0,1,.1-1.28l1.42-8a.44.44,0,0,1,.42-.34h2.35a.3.3,0,0,1,.31.29v0l-1.42,8a5.45,5.45,0,0,0-.11,1.06c0,1.08.5,1.55,1.76,1.55,1.62,0,2.25-.77,2.57-2.61l1.42-8a.44.44,0,0,1,.41-.34h2.34a.29.29,0,0,1,.32.29Zm-2.08-2.92-.23,1.33a.41.41,0,0,1-.42.32h-4.67a.27.27,0,0,1-.3-.27v0l.23-1.33a.43.43,0,0,1,.41-.34h4.68a.27.27,0,0,1,.3.29Z"/></svg>