<svg id="Layer_1" data-name="Layer 1" xmlns="http://www.w3.org/2000/svg" viewBox="0 0 170.08 113.39"><defs><style>.cls-1{fill:#fff;}.cls-2{fill:#1d1d1b;}</style></defs><title>binders</title><path class="cls-1" d="M25.53,41.12l1.15-4.19a20.1,20.1,0,0,0-2.81-.19c-.75,0-1.7,0-2.43.12l-1.18,4.26Z"/><path class="cls-1" d="M15.62,53.83H4.12a19.35,19.35,0,0,0-.21,2.86c0,.55.08.77.12,1.3H14.44Z"/><path class="cls-1" d="M23.44,70.87c5.28,0,10-2.62,11.57-8.31.79-2.89.59-5.77-2.24-6.68l0-.08a9.55,9.55,0,0,0,5.11-6.11c1.28-4.7-1.68-7.32-6.81-7.29H9.94a17.23,17.23,0,0,0-3.33,4.17H29.89c2.32,0,3.07,1.74,2.52,3.79a4.37,4.37,0,0,1-4.28,3.47H23.24L22.11,58h5.25c2.52,0,3,1.91,2.33,4.28a5.4,5.4,0,0,1-5.09,4.27l-5.16,0h0c-.5,0-.72-.45-.52-1.3l4.76-17.45H18.49l-6.8,24.34a13.37,13.37,0,0,0,4.59,3l1.15-4.24Z"/><path class="cls-2" d="M26.68,36.93l-1.15,4.19H20.26l1.18-4.26A19.33,19.33,0,0,0,9.94,42.4H31.1c5.13,0,8.09,2.59,6.81,7.29a9.53,9.53,0,0,1-5.12,6.11l0,.08c2.83.91,3,3.79,2.24,6.68-1.56,5.69-6.29,8.28-11.57,8.31l-6,0-1.15,4.24a19,19,0,0,0,7.59,1.51,20,20,0,0,0,2.81-39.72Z"/><path class="cls-2" d="M23.68,47.81,18.92,65.26c-.2.85,0,1.28.52,1.3h0l5.16,0a5.4,5.4,0,0,0,5.09-4.27c.65-2.37.19-4.29-2.33-4.28H22.11l1.13-4.16h4.89a4.37,4.37,0,0,0,4.28-3.47c.55-2-.2-3.81-2.52-3.79H6.61a22,22,0,0,0-2.49,7.26h11.5L14.44,58H4a19.33,19.33,0,0,0,7.66,14.16l6.8-24.34Z"/><rect class="cls-2" x="73.29" y="45.2" width="3.75" height="3.99"/><path class="cls-2" d="M77.39,65V54.34c0-1.61-.69-2.32-2.29-2.32H71V55.7h1.36a.67.67,0,0,1,.75.75V67.09c0,1.64.68,2.32,2.29,2.32H79.5V65.76H78.14A.68.68,0,0,1,77.39,65Z"/><path class="cls-2" d="M98.42,65V58.22c0-4.6-2.22-6.61-6.07-6.61a6.69,6.69,0,0,0-6.14,3.61h-.07a4.6,4.6,0,0,0,.07-.75V54c0-1.23-.75-1.94-2.29-1.94h-4V55.7H81.3a.67.67,0,0,1,.75.75v13h4.29v-8a7.61,7.61,0,0,1,.34-2.32,4.79,4.79,0,0,1,4.68-3.55c2.18,0,2.73,1.44,2.73,3.55v8c0,1.64.68,2.32,2.31,2.32h4.13V65.76H99.17A.68.68,0,0,1,98.42,65Z"/><path class="cls-2" d="M118.5,65V47.51c0-1.6-.72-2.31-2.32-2.31h-4.12v3.68h1.36a.67.67,0,0,1,.75.75V52.7c0,.58,0,1,0,1h-.07s-1.22-2.11-5-2.11c-4.6,0-7.91,3.58-7.91,9.1s3,9.11,7.74,9.11A6,6,0,0,0,114.37,67h.07v.65c0,1,.58,1.77,2.15,1.77h4V65.76h-1.33A.68.68,0,0,1,118.5,65Zm-8.6,1.16c-2.55,0-4.29-2.15-4.29-5.46s2-5.39,4.36-5.39c2.9,0,4.3,2.66,4.3,5.36C114.27,64.53,112.16,66.17,109.9,66.17Z"/><path class="cls-2" d="M130.15,51.61c-5.22,0-8.83,3.75-8.83,9.1a8.91,8.91,0,0,0,9.34,9.11,10.54,10.54,0,0,0,7-2.63l-1.8-3a7.9,7.9,0,0,1-4.88,2,5,5,0,0,1-5.22-4.68h12s.1-1.09.1-1.6C137.86,55.26,135.13,51.61,130.15,51.61Zm-4.26,6.85A4.17,4.17,0,0,1,130.15,55a3.38,3.38,0,0,1,3.28,3.51Z"/><path class="cls-2" d="M145.17,56.25h-.07a7.91,7.91,0,0,0,.07-1.1v-1c0-1.47-.78-2.11-2.32-2.11h-4V55.7h1.37a.67.67,0,0,1,.75.75v13h4.3V62.52a10.48,10.48,0,0,1,.37-2.83A4.9,4.9,0,0,1,150.42,56a7.46,7.46,0,0,1,1.06.07V51.85a5.42,5.42,0,0,0-.78-.07A6,6,0,0,0,145.17,56.25Z"/><path class="cls-2" d="M156.92,56.52c0-1,1.06-1.57,2.6-1.57.95,0,2.18.41,2.18,1.23V57h3.82V55.22c0-2.83-3.75-3.61-6.11-3.61-3.61,0-6.75,1.6-6.75,5.08,0,5.63,9.17,5.59,9.17,8,0,1.16-1,1.7-2.35,1.7-3,0-5.18-2.55-5.18-2.55l-2.05,2.83a9.55,9.55,0,0,0,7.23,3.1c3.79,0,6.69-2,6.69-5.32C166.17,58.7,156.92,59.25,156.92,56.52Z"/><path class="cls-2" d="M65.9,56.69v-.07a5.65,5.65,0,0,0,2.93-5.18c0-4-3.14-6.24-7.5-6.24H50.86V49h2.21V67.09c0,1.64.72,2.32,2.32,2.32h6c4.5,0,8.36-2.18,8.36-7A5.69,5.69,0,0,0,65.9,56.69ZM57.54,49h3.75a2.78,2.78,0,0,1,3,3,2.86,2.86,0,0,1-2.94,3.11H57.54Zm4.23,16.65H58.29a.69.69,0,0,1-.75-.75V58.63h4.23a3.5,3.5,0,0,1,0,7Z"/></svg>