<svg id="Layer_1" data-name="Layer 1" xmlns="http://www.w3.org/2000/svg" viewBox="0 0 170.08 113.39"><defs><style>.cls-1{fill:#1d1d1b;}</style></defs><title>made</title><path class="cls-1" d="M34,67.16l0-1.78-4.76.06,0-1.84,4.2-8.89,2.4,0-4.05,8.66,2.22,0,0-2.9,2.17,0,0,2.91h1.29l0,2.08h-1.3l0,1.78Zm-13,.16,9.28-20.48,2.33,0L23.41,67.28Zm-1.23-7.89-.11-9.7-2.28,2.05,0-2.65L19.9,47l2,0,.15,12.45Z"/><path class="cls-1" d="M77.74,65.05a7.8,7.8,0,0,1-5.83-2l-.23-.21,1.76-1.8.21.23a5.25,5.25,0,0,0,4,1.44c1.24,0,3.32-.32,3.3-2.15,0-.76-.25-1.54-2-1.67l-2.24-.17c-3.61-.25-4.38-2.27-4.4-3.92,0-2.57,2.08-4.32,5.28-4.35a7.79,7.79,0,0,1,5.11,1.48l.27.2-1.71,1.75-.21-.16a5.57,5.57,0,0,0-3.47-1c-1,0-2.75.28-2.73,2,0,.76.28,1.54,2.14,1.67l2.19.17c2.89.24,4.32,1.52,4.35,3.94,0,2.7-2.24,4.49-5.81,4.54Z"/><path class="cls-1" d="M93.59,64.85c-2,0-3.15-.35-4.08-1.29a4.18,4.18,0,0,1-1.14-3c0-2.65,1.83-4.26,5-4.31l3.79,0,0-1c0-1.89-1-2.68-3.21-2.66a3.28,3.28,0,0,0-3.17,1.47l-.21.28-1.83-1.65.17-.23c1.35-1.79,2.93-2.17,5-2.2,4.76-.06,5.8,2.57,5.83,4.79l.11,9.56-2.61,0v-.91a5.23,5.23,0,0,1-3.63,1.12Zm0-6.46c-1.86,0-2.74.72-2.73,2.14,0,1,.36,2,2.86,2a3.76,3.76,0,0,0,2.82-.87,2.85,2.85,0,0,0,.58-2.14V58.35Z"/><path class="cls-1" d="M110.81,64.48A3.64,3.64,0,0,1,107,60.57l-.09-8.07-1.73,0,0-2.14,1.73,0-.06-4.28,2.61,0,0,4.28,2.91,0,0,2.14-2.91,0,.09,8c0,1.14.53,1.68,1.58,1.67l1.36,0,0,2.33Z"/><path class="cls-1" d="M123.64,64.5a5.73,5.73,0,0,1-4.15-1.59c-1.56-1.56-1.8-3.72-1.82-5.63s.16-4.08,1.69-5.68a6,6,0,0,1,8.26-.1c1.56,1.55,1.8,3.72,1.82,5.64s-.16,4.08-1.69,5.66a5.67,5.67,0,0,1-4.11,1.7Zm-.15-12.21a3.14,3.14,0,0,0-2.24.94c-.89.91-1,2.46-1,4s.16,3.11,1.07,4a3,3,0,0,0,2.26.87,3.07,3.07,0,0,0,2.27-.93c.91-.91,1-2.55,1-4s-.13-3.09-1.06-4a3.15,3.15,0,0,0-2.29-.88Z"/><path class="cls-1" d="M135.77,64.19l-.17-14.26,2.61,0,0,1.14a5.13,5.13,0,0,1,3.51-1.35,4.48,4.48,0,0,1,3.5,1.33l.21.21-1.87,2-.22-.22a2.53,2.53,0,0,0-2.15-.88,3,3,0,0,0-2.94,3.39l.11,8.68Z"/><path class="cls-1" d="M150.05,64l-.18-14.26,2.61,0L152.65,64Zm-.33-17.53,0-2.86,2.87,0,0,2.86Z"/><path class="cls-1" d="M49.61,73.63a24,24,0,0,1-.4-33.86l.82-.83L68,56.48l-17.56,18Zm.48-31.36a21.54,21.54,0,0,0,.35,28.83L64.69,56.52Z"/></svg>