<svg id="Layer_1" data-name="Layer 1" xmlns="http://www.w3.org/2000/svg" viewBox="0 0 170.08 113.39"><defs><style>.cls-1{fill:#1d1d1b;}</style></defs><title>makslai</title><path class="cls-1" d="M56.76,86.78a1,1,0,0,1-1-1V28.44H10.31V84.73h8.48V35.94a.94.94,0,0,1,.07-.3l.07-.19h0l0,0v0l0,0,.05-.11h.07l0,0h0a.75.75,0,0,1,.24-.15.9.9,0,0,1,.4-.09H43.64a1,1,0,0,1,1,1V85.75a1,1,0,0,1-1,1h-12a1,1,0,0,1-1-1V41.61l-9.78-3.53V85.75a1,1,0,0,1-1,1H9.28a1,1,0,0,1-1-1V27.42a1,1,0,0,1,1-1H56.86a.93.93,0,0,1,.4.12L68.2,31.21l.09,0,0,.08a1.07,1.07,0,0,1,.14.52v53.9a1,1,0,0,1-1,1Zm9.67-2V32.6l-8.64-3.41V84.73Zm-23.82,0V37H23.36l8.94,3.26,0,0a1,1,0,0,1,.33.75V84.73Z"/><path class="cls-1" d="M31.65,42.11a1,1,0,1,1,0-2h12a1,1,0,0,1,0,2Z"/><path class="cls-1" d="M86.87,52.25v-7.8l-2.82,6.19h-.93l-2.86-6.19v7.8h-1.1V42h1.1l3.35,7.29L86.87,42H88V52.25Z"/><path class="cls-1" d="M101.27,52.25l-.83-2.32H96l-.82,2.32H94L97.74,42h.93l3.76,10.27ZM96,39.91h4.34v.83H96Zm2.21,3.64L96.28,49h3.84Z"/><path class="cls-1" d="M114.82,52.25l-3.13-5.47-2.16,2.6v2.87h-1.1V42h1.1v5.9l4.79-5.9h1.34l-3.23,4,3.69,6.31Z"/><path class="cls-1" d="M124.79,52.34A4.49,4.49,0,0,1,121.26,51l.75-.75a3.56,3.56,0,0,0,2.8,1.13c1.51,0,2.43-.71,2.43-1.91a1.66,1.66,0,0,0-.49-1.28,2.16,2.16,0,0,0-1.34-.49l-1.2-.19a3.73,3.73,0,0,1-1.89-.78,2.43,2.43,0,0,1-.78-1.92c0-1.75,1.25-2.9,3.29-2.9A4.11,4.11,0,0,1,127.89,43l-.71.7a3.21,3.21,0,0,0-2.39-.88,1.9,1.9,0,0,0-2.17,1.91,1.5,1.5,0,0,0,.46,1.18,2.94,2.94,0,0,0,1.39.57l1.12.17a3.24,3.24,0,0,1,1.88.72,2.58,2.58,0,0,1,.87,2C128.34,51.23,126.92,52.34,124.79,52.34Z"/><path class="cls-1" d="M135,52.25V42h1.09v9.29h5.26v1Z"/><path class="cls-1" d="M153.56,52.25l-.82-2.32h-4.49l-.82,2.32h-1.17L150,42H151l3.77,10.27Zm-3.05-8.7L148.58,49h3.84Z"/><path class="cls-1" d="M160.72,52.25V42h1.1V52.25Z"/><path class="cls-1" d="M82.61,69.58h-1.5L77.72,59.3h2.07L81.86,66l2.07-6.7H86Z"/><path class="cls-1" d="M96.93,69.58l-.6-1.82H92.68l-.62,1.82H90L93.7,59.3h1.57L99,69.58Zm-2.39-7.24-1.3,3.73h2.55Z"/><path class="cls-1" d="M106.17,69.67a3.36,3.36,0,0,1-2.64-1.06l1.33-1.31a1.64,1.64,0,0,0,1.31.58c1,0,1.62-.58,1.62-1.76V59.3h2v6.9A3.39,3.39,0,0,1,106.17,69.67Z"/><path class="cls-1" d="M122.1,69.58l-.61-1.82h-3.65l-.62,1.82h-2.09l3.74-10.28h1.57l3.75,10.28Zm-2.4-7.24-1.3,3.73H121Z"/><path class="cls-1" d="M136,68.5a3.85,3.85,0,0,1-2.9,1.17,3.76,3.76,0,0,1-2.77-1.13,3,3,0,0,1-.84-1.54,13.56,13.56,0,0,1-.18-2.56,13.44,13.44,0,0,1,.18-2.55,2.9,2.9,0,0,1,.84-1.55,3.75,3.75,0,0,1,2.77-1.12A3.69,3.69,0,0,1,137,62.51h-2a1.74,1.74,0,0,0-1.84-1.5,1.62,1.62,0,0,0-1.29.55c-.37.47-.49.85-.49,2.88s.09,2.43.49,2.9a1.58,1.58,0,0,0,1.29.54,1.87,1.87,0,0,0,1.43-.58,2,2,0,0,0,.46-1.37v-.39h-1.89V63.86H137v1.51A4.1,4.1,0,0,1,136,68.5Z"/><path class="cls-1" d="M82.18,77.61v9.3h-1.1v-9.3h-3v-1h7v1Z"/><path class="cls-1" d="M91.41,86.91V76.63h6.37v1H92.5v3.62H97v1H92.5v3.71h5.28v1Z"/><path class="cls-1" d="M104.4,86.91V76.63h1.1v9.3h5.25v1Z"/><path class="cls-1" d="M120.83,82.68H118.1v4.23H117V76.63h3.83a3,3,0,1,1,0,6.05Zm-.1-5.07H118.1V81.7h2.63a2,2,0,1,0,0-4.09Z"/><path class="cls-1" d="M133.87,87a3.39,3.39,0,0,1-3.58-3.48V76.63h1.1v6.8a2.49,2.49,0,1,0,5,0v-6.8h1.09v6.88A3.4,3.4,0,0,1,133.87,87Z"/></svg>