<svg id="Layer_1" data-name="Layer 1" xmlns="http://www.w3.org/2000/svg" viewBox="0 0 170.08 141.73"><defs><style>.cls-1{fill:#b3b3b3;}.cls-2{fill:#fff;}.cls-3{fill:#1d1d1b;}.cls-4{fill:none;}.cls-5{fill:#999;}</style></defs><title>atlant</title><path class="cls-1" d="M84.73,135l-4.9,2.31-2.43-3.33-.14-.1-.67-1-15-23.1-1.16-8.94L59.29,98c-1.68,0-3.17-.06-4.44-.16a17.91,17.91,0,0,1-1.91-.26l-1.1-.23c-.4-.09-1.18-.28-1.85-.5a47,47,0,0,1-8.3-3.58,34,34,0,0,1-3-1.92c-.49-.35-1.16-.85-2-1.49L34.34,88l-4.38-2-1.38-6.65,1.24-2.22c1.69-3,7.24-13,7.57-13.55.19-.3.76-1.25,6.83-7.37l6.41-6.52,8.63-22.94L60.34,4.28l6.15,9.41L71.9,5.21,74.77,25l3-3.23L78.34,16l4.81.51L95.1,5.26l7.62,16.15,4.37.33-.59,6L115.67,46,129,59.78c3.34,3.55,3.64,4.06,3.86,4.43s2.74,5,7.52,13.8l1.11,2-1.45,6.63-4.4,1.9c-1,.74-3.13,2.39-4.34,3.24-.54.38-1.11.75-1.72,1.12a45.58,45.58,0,0,1-9.68,4.26c-.51.16-1.07.29-1.46.38a25.72,25.72,0,0,1-2.69.49l-.73.06c-1.14.08-2.46.12-3.92.12h-.53L109.41,101,108.15,110,89.87,137.45ZM98.87,74.24a22.79,22.79,0,0,1,3.65-.86,6.4,6.4,0,0,1,.77,0h.28c.74,0,2.09.17,4.12.44l.06-.22,6.31-1.13c-.18-.57-.3-.92-.38-1.14s-.53-.86-1-1.55c-1.13-1.8-2.23-3.51-3-4.74l-3.22-.85-3.55-.43c-2.61-.31-3.21-.33-3.24-.33H99.3a19.55,19.55,0,0,1,.34,3.3l0,6.09-.74.63Zm-32.1-1.1a6.17,6.17,0,0,1,.87,0,11.43,11.43,0,0,1,1.41.26c.56.14,1.3.35,2,.57v-.78l-.73-.63,0-6.09a19.41,19.41,0,0,1,.38-3.29h-.22s-.66,0-3.66.33l-3.1.35-3.23.81c-.07.11-.15.23-.24.35C59,67.13,57.14,69.94,56.49,71L56.1,72.1l6.29,1.21.06.22c2-.25,3.4-.38,4.14-.39Z"/><path class="cls-2" d="M84.74,134l-4.62,2.18L78,133.28l-.12-.08-.58-.89L62.46,109.38l-1.15-8.86-1.42-3.44h-.12c-1.86,0-3.49-.06-4.85-.16-.53,0-1.14-.13-1.81-.25-.35-.07-.71-.14-1.07-.23A17.26,17.26,0,0,1,50.27,96a45.93,45.93,0,0,1-8.14-3.51,29.06,29.06,0,0,1-3-1.87c-.48-.34-1.14-.84-2-1.47s-1.83-1.42-2.38-1.86l-4.06-1.81-1.23-5.87,1.08-1.93c2.17-3.9,7.25-13,7.56-13.52a75.23,75.23,0,0,1,6.7-7.21l6.54-6.66L60.15,27l1-19.93,5.4,8.26,4.86-7.62L74.15,27l4.47-4.83L79.14,17l4.32.46L94.81,6.76l7.32,15.5,4,.3L105.58,28l9.35,18.56L128.37,60.4c3.26,3.47,3.56,4,3.73,4.26.28.47,4.82,8.84,7.5,13.78l1,1.76-1.28,5.85-4.09,1.77c-1,.79-3.19,2.44-4.39,3.28-.53.36-1.09.73-1.67,1.08a43.81,43.81,0,0,1-9.49,4.17c-.48.15-1,.29-1.39.37a24.64,24.64,0,0,1-2.6.47l-.68.06c-1.11.07-2.42.11-3.86.11H110l-1.46,3.44-1.25,8.84L89.56,136.3ZM98,75.46a27.37,27.37,0,0,1,4.64-1.19c.22,0,.44,0,.68,0h.26c.78,0,2.39.2,4.79.53l.12-.43,6.77-1.21c0-.15-.1-.3-.14-.44-.33-1-.51-1.54-.6-1.79s-.54-.88-1-1.64c-1.44-2.27-2.56-4-3.25-5l-3.61-.95L103,62.83c-2.68-.31-3.29-.33-3.31-.33a6.69,6.69,0,0,1-1.5-.17,23.24,23.24,0,0,1,.57,4.35l0,5.68L98,73ZM66.77,74c.27,0,.52,0,.76,0s.79.13,1.3.25c.78.19,2,.56,3.15.93V72.84l-.73-.64,0-5.67a23.75,23.75,0,0,1,.61-4.31,7.47,7.47,0,0,1-1.29.11h0s-.66,0-3.76.34L63.64,63c-1.07.26-2.52.62-3.62.91-.13.18-.27.39-.43.64-1.44,2.14-3.31,5-3.91,6-.14.39-.41,1.17-.75,2.21l6.75,1.29.11.44c2.42-.31,4-.47,4.81-.49h.17Z"/><path class="cls-3" d="M138,79.29c-2.16-4-7.2-13.27-7.47-13.72-.13-.21-.52-.87-6.37-6.95l-10.73-11-9.71-19.28.4-4.08L101,24,94.24,9.75,84.09,19.29l-3.35-.35-.41,4-7.27,7.86-.24-.52L70.28,12.74l-3.76,5.9-3.9-6-.7,14.69-9,23.87-6.81,6.93c-2.64,2.66-6,6.11-6.45,6.88-.29.48-5.83,10.43-7.51,13.46l-.76,1.35.9,4.32,3.43,1.53,2.54,2c.81.62,1.46,1.11,1.92,1.43A28.64,28.64,0,0,0,43,90.9a44.22,44.22,0,0,0,7.83,3.37c.55.18,1.24.35,1.61.43l1,.21a14.86,14.86,0,0,0,1.61.22c1.32.11,2.91.16,4.72.16h1.32l2,4.78,1.12,8.69,14.65,22.58.39.6.08,0,1.39,1.91L84.75,132l4.19,2,16.63-25,1.23-8.68,2-4.76,1.18,0h1.1c1.42,0,2.68,0,3.76-.1l.58-.06a24.26,24.26,0,0,0,2.41-.43c.34-.08.83-.2,1.25-.33a42.37,42.37,0,0,0,9.1-4c.55-.33,1.08-.68,1.57-1,1.26-.87,3.61-2.67,4.5-3.37l3.45-1.49.94-4.31ZM68.41,76.06a10,10,0,0,0-1.08-.21,5,5,0,0,0-.56,0h-.13c-1.11,0-4.1.4-6.16.67l-.24-.86L52.6,74.17c.66-2,1.25-3.83,1.47-4.39.48-.76,2.48-3.89,4-6.2l.82-1.21,4.4-1.1,3.3-.38c3.13-.33,3.84-.35,4-.35h0a4.34,4.34,0,0,0,3.24-1.29,3.75,3.75,0,0,0,.53-.71l1.65,0A9.71,9.71,0,0,0,73.82,62l-.07.18,0,.18a24.19,24.19,0,0,0-.63,4.22l0,4.85.73.64,0,5.68,1,1,0,0a7.91,7.91,0,0,0-1.89-1.3A34.93,34.93,0,0,0,68.41,76.06Zm41.47-.16-.24.86c-2-.28-5-.7-6.15-.73h-.2a3.68,3.68,0,0,0-.49,0,30.44,30.44,0,0,0-5.54,1.57,8.37,8.37,0,0,0-2.38,1.72h-.14c.27-.29.46-.49.46-.5l1-1,0-5.67.73-.63,0-4.86a23.09,23.09,0,0,0-.59-4.22l0-.18,0-.18a9.33,9.33,0,0,0-2-3.2L96,58.82a4,4,0,0,0,1.45,1.34,4.71,4.71,0,0,0,2.25.55c.06,0,.68,0,3.5.34l3.74.46c1.58.41,3.34.87,4.4,1.16.71,1,2,3.09,3.64,5.64.58.9,1,1.53,1.13,1.81s.27.74.68,2c.24.76.51,1.59.75,2.39Z"/><path class="cls-2" d="M127.48,67.4c-.25-.44-7.91-8.51-8.83-9.29s-2.09-2-2.09-2L99.22,56s-.86,1.12.5,1.13,7.9.86,7.9.86,5.55,1.42,5.88,1.6,5.46,8.28,5.81,8.9S122,76.72,122,76.72l6.8,3.71-7.29-1.75-3.38-.61-5.37,1-.81,2.88-5.29,2.26,3.9-3.66s-6.57-1-7.35-.9a28.35,28.35,0,0,0-4.44,1.28c-1.92.86-4.11,4.8-4.11,4.8L94,83l-2.1.19L91.08,80a26.42,26.42,0,0,1-1.81,2.44l-2,5.76.86-5.22c-1.33.33-2.72.82-2.72.82l-.4-.1-.39.09a3,3,0,0,1-2.72-.83l.81,5.27-1.94-5.84A26.75,26.75,0,0,1,79,79.89l-.88,3.23L76,82.91l-.61,2.68s-2.14-4-4-4.86a29.32,29.32,0,0,0-4.42-1.32c-.79-.09-7.37.82-7.37.82l3.86,3.7-5.25-2.32-.79-2.88L52,77.7l-3.39.58-7.3,1.66,6.84-3.63s2.39-7.6,2.74-8.2,5.55-8.67,5.89-8.84,5.89-1.53,5.89-1.53S69.24,57,70.6,57s.51-1.12.51-1.12l-17.34-.11s-1.17,1.22-2.11,2S43,66.5,42.74,66.93s-7.55,13.52-7.55,13.52l.25,1.22,2.17,1s3.2,2.54,4.67,3.59a35.41,35.41,0,0,0,9.66,4.65,19.22,19.22,0,0,0,3.39.7c3.51.27,8.13.07,8.13.07l3.08,7.49,1.09,8.35,14.21,21.91,1.53-.72,1.4-.62,1.4.63,1.52.74,14.45-21.75,1.18-8.33,3.17-7.46a80.72,80.72,0,0,0,8.13,0,17.83,17.83,0,0,0,3.4-.66,35.52,35.52,0,0,0,9.7-4.53c1.49-1,4.72-3.54,4.72-3.54l2.18-1,.26-1.21S127.74,67.84,127.48,67.4ZM67.34,94.61l0-2.6-2.82-5.77,4.86,5.08-.17,3.5.25,4.84Zm6.6-7.78,4.13.51,4.21,4.86-4.61-3.4-4.92-.58-2.57-3.94Zm4.9,19.44,5.48.81-1.35.67-5.92.44-5.86-7.5ZM79.43,123l-2.92-4.9,7-1.43,1.23-7.26L84.44,117l-6,1.93Zm6,3.33a.65.65,0,0,1-.64.52.64.64,0,0,1-.63-.5c-.06-.2-.79.11-.79.11s.74-1.32,1.43-1.32,1.41,1.34,1.41,1.34S85.44,126.09,85.42,126.36Zm4.42-2.68,1.06-4.08-5-1.35,7,.49Zm2.87-15.41-5.9-.5-1.35-.68,5.48-.75,7.69-5.49Zm4.53-19.91-4.92.52-4.66,3.35,4.26-4.82L96.07,87l3.78-2.51Zm5.41,3.85-.07,2.59-2.13,5,.3-4.82-.13-3.5,4.92-5Z"/><polygon class="cls-4" points="67.34 94.61 69.41 99.66 69.16 94.82 69.45 92.19 69.33 91.32 64.47 86.24 66.89 91.21 67.29 92.01 67.34 94.61"/><polygon class="cls-4" points="97.24 88.36 99.85 84.44 96.06 86.95 91.92 87.41 87.66 92.23 92.31 88.88 97.24 88.36"/><polygon class="cls-4" points="71.19 100.69 77.05 108.19 82.97 107.75 84.31 107.08 83.91 107.02 78.84 106.27 71.19 100.69"/><polygon class="cls-4" points="100.75 94.98 100.45 99.81 102.58 94.8 102.65 92.21 105.54 86.47 100.62 91.49 100.75 94.98"/><polygon class="cls-4" points="85.46 107.09 86.81 107.77 92.71 108.27 98.63 100.84 90.94 106.34 85.46 107.09"/><path class="cls-4" d="M127.48,67.4c-.25-.43-7.91-8.51-8.83-9.29s-2.09-2-2.09-2L107.44,56c3,1.18,7.66,3,7.66,3l10.74,14.11,2.92,7.31-7.29-1.75-3.38-.61-5.37,1-.81,2.88-5.29,2.26,3.9-3.66s-6.57-1-7.35-.9a28.35,28.35,0,0,0-4.44,1.28c-1.92.86-4.11,4.8-4.11,4.8L94,83l-2.1.19L91.08,80a26.42,26.42,0,0,1-1.81,2.44l-2,5.76.86-5.22c-1.33.33-2.72.82-2.72.82l-.4-.1-.39.09s-.51-.11-1.16-.31l.4,4.47,0,6.19-1.71-2L77.66,88.8l-4.91-.58-2.57-3.94,3.76,2.55,4.13.51.11.12-.11-.12L76,82.91l-.61,2.68s-2.14-4-4-4.86a29.32,29.32,0,0,0-4.42-1.32c-.79-.09-7.37.82-7.37.82l3.86,3.7-5.26-2.32-.78-2.89L52,77.7l-3.39.58-7.3,1.66,6.84-3.63s2.39-7.6,2.74-8.2,5.55-8.67,5.89-8.84,5.89-1.53,5.89-1.53S69.24,57,70.59,57s.52-1.12.52-1.12l-10.69-.06L51.66,60,43.17,74.71,40.41,80l10.88,6,10.55,3.24,5,2-2.42-5,4.86,5.08.12.87,1.85.72,3.41,5.75L84,107h-.07l.41.06-1.35.67-5.92.44-1.48,1.14,6.27,20h0l1.53-.73,1.45-18.21.05.14,0-.14.2,17.33,1.58.74,15.44-20.85,1.18-8.33,3.17-7.46L108,89.45l10.74-1.64,9.73-4.55,6.12-1.05.26-1.21S127.74,67.84,127.48,67.4Zm-35.56,20L96.07,87l3.78-2.51-2.61,3.92-4.92.52-4.66,3.35Zm.79,20.86-5.9-.5-1.35-.68,5.48-.75,7.69-5.49Zm9.94-16.06-.07,2.59-2.13,5,.3-4.82-.13-3.5,4.92-5Z"/><polygon class="cls-4" points="78.18 87.46 78.07 87.33 73.94 86.83 70.18 84.28 72.75 88.22 77.66 88.8 82.11 92.08 82.28 92.2 78.18 87.46"/><path class="cls-5" d="M77.05,108.19l-5.86-7.5,7.65,5.58,5.07.75H84l-9.27-8.35L71.3,92.91l-1.85-.72-.29,2.63.25,4.84-2.07-5,0-2.6-.4-.8-5-2L51.29,86,40.41,80l2.76-5.33L51.66,60l8.76-4.25-6.66-.05s-1.16,1.22-2.1,2S43,66.5,42.74,66.93s-7.55,13.52-7.55,13.52l.25,1.22,2.17,1s3.2,2.54,4.67,3.59a35.41,35.41,0,0,0,9.66,4.65,19.22,19.22,0,0,0,3.39.7c3.51.27,8.13.07,8.13.07l3.09,7.49,1.08,8.35,14.21,21.9-6.27-20Z"/><path class="cls-5" d="M78.18,87.46l4.1,4.74-.17-.12,1.71,2,0-6.19-.54-4.18c-.23-.07-1.07-.72-1.42-.81l.82,5.22-2-5.79A26.75,26.75,0,0,1,79,79.89l-.88,3.23L76,82.91h0l2.07,4.43Z"/><path class="cls-5" d="M115.1,59s-4.68-1.79-7.66-3l-8.22,0s-.86,1.12.5,1.13,7.9.86,7.9.86,5.54,1.42,5.88,1.6,5.46,8.28,5.81,8.9S122,76.72,122,76.72l6.8,3.71-2.92-7.31Z"/><path class="cls-5" d="M118.77,87.81,108,89.45l-1.54,2.43a80.72,80.72,0,0,0,8.13,0,17.83,17.83,0,0,0,3.4-.66,35.52,35.52,0,0,0,9.7-4.53c1.49-1,4.72-3.54,4.72-3.54l2.18-1-6.12,1.05Z"/><path class="cls-2" d="M93.36,69.87s0-2.09,0-3.22a21.64,21.64,0,0,0-.5-3.43s-1.5-4.49-7.82-4.53a10,10,0,0,0-3.74.63l-.46,3.24-1.73,2.77.78,3.1.36.23,1.46-.29,2.07.74-.33,3.63-.69-2.53-1.1,3.48-1,3,2.24,5.61h0l1.31.07.7-1.12.68,1.13,1.8-.08s1.59-2,2.4-2.92,2.79-3,2.79-3l0-4.47-1.51,1.25-.81,3.56,0-4.28ZM83.92,74.2l1.06.57L86,74.21l1.08,1.11-1.21-.23L85,75.4,84,75.08l-1.21.21Zm3.67,4.27L84.94,80,82.3,78.46l.44,0,1.11.28,1.1-.1,1.11.11,1.12-.24Zm-1-1.08-1.13.18h-1l-1.21-.21-1.73.41.16-.22,1.52-.88,1.7.16,1.71-.15,1.55,1,.12.17Zm1.63-6.54-1-.61-.72,2.51-.29-3.63,2.09-.71,3.3.68Z"/><path class="cls-5" d="M80.65,76.72l1-3,1.1-3.48-1,.6L78.41,69l1.86-.36-.36-.23-.78-3.1,1.73-2.77.46-3.24a7,7,0,0,0-4.12,3.81,22.62,22.62,0,0,0-.54,3.43c0,1.13,0,3.22,0,3.22l3,2.63,0,4.28-.76-3.57-1.5-1.27,0,4.47s2,2.13,2.75,3,2.38,3,2.38,3l.44,0h0Z"/><path class="cls-2" d="M110.52,49.69,100,28.85,102,26l-2.51,1.74-3.53-7L92,31.08l-5.12-5.15L92.55,15l-8,8.62L83.2,22.23l1,1.79L72.06,37.13l-2.71-5.84L68.91,19l-2.36,6.25L64.4,20.58l1.07,7.53L57.08,52.87l-1.54,1.28,16.3.29,6,2.58,8.79-1.79,5.3,1.87,5.84-1.92,16.88-.7ZM89.9,34.36l-5.56,3.83-1.84-3.8,3.59-6.93Z"/><polygon class="cls-5" points="66.07 28.32 63.23 43.2 59.58 50.91 64.09 45.18 65.64 50.85 75.94 55.06 67.06 48.44 64.94 41.35 66.07 28.32"/><polygon class="cls-5" points="88.47 20.08 71.22 39.1 70.78 44.38 72.97 39.54 88.47 20.08"/><polygon class="cls-5" points="95.84 24.04 89.46 41.74 97.82 52.07 106.06 51.63 98.26 45.47 103.2 44.16 106.72 46.57 103.97 40.09 94.74 39.1 95.84 24.04"/><polygon class="cls-5" points="86.86 26.22 86.31 27.14 90.1 33.74 90.77 31.97 86.86 26.22"/><polygon class="cls-5" points="81.99 35.25 89.14 51.51 78.46 56.1 83.2 51.41 81.99 35.25"/><polygon class="cls-5" points="80.12 37.45 72.86 49.43 74.95 51.3 80.12 37.45"/><polygon class="cls-5" points="68.88 32.28 71.26 37.13 67.69 39.68 68.88 32.28"/><polygon class="cls-5" points="65.14 23.32 65.78 26.89 66.23 25.52 65.14 23.32"/><path class="cls-2" d="M115.17,101.68a2.43,2.43,0,0,1-4.16,1.7,2.44,2.44,0,0,1,0-3.46,2.36,2.36,0,0,1,1.72-.72,2.46,2.46,0,0,1,2.42,2.48Zm-2.44,1.81A1.82,1.82,0,0,0,114,103a1.9,1.9,0,0,0,.56-1.3,1.85,1.85,0,0,0-.54-1.31,1.81,1.81,0,0,0-1.29-.55,1.75,1.75,0,0,0-1.3.54,1.82,1.82,0,0,0,0,2.6A1.73,1.73,0,0,0,112.73,103.49Zm.93-2.69a.54.54,0,0,0-.55-.54h-1.28l0,2.79h.65v-.88h.17l.36.88h.68l-.35-.92a.59.59,0,0,0,.34-.51Zm-1.19.1H113v.62h-.54Z"/></svg>