<svg id="Layer_1" data-name="Layer 1" xmlns="http://www.w3.org/2000/svg" viewBox="0 0 170.08 113.39"><defs><style>.cls-1{fill:#1d1d1b;}</style></defs><title>latvija</title><path class="cls-1" d="M21.14,52.92h7.12l-.58,2.39-3.6,14.83-5.4,3.53h15L32,80H14.52Z"/><path class="cls-1" d="M72.5,59.27H60.72l1.63-6.35h20.4l-1.63,6.35H74.51L69.47,80H62.35l4.24-17.49Z"/><path class="cls-1" d="M83,52.92H90.6l.62,16.84L100,52.92h7.82L92.1,80.18H85.37Z"/><path class="cls-1" d="M109,52.92h7.08L109.46,80h-7.12l4.08-16.61,7.09-4.35h-6Z"/><path class="cls-1" d="M111.5,76.46,116,71.85c1.16,1.55,2.21,2.21,3.29,2.21a2.52,2.52,0,0,0,1.94-.81,7.65,7.65,0,0,0,1.63-3.68l1.46-6.16,7.23-4.35h-6.17l1.46-6.14H134l-4.26,17.7c-.82,3.48-1.86,5.65-3.56,7.35a8.85,8.85,0,0,1-6.47,2.48A9.73,9.73,0,0,1,111.5,76.46Z"/><path class="cls-1" d="M143.87,52.77h7.28L153.9,80h-7.36l-.08-1.26,5.35-3.69H138l-2.71,5h-7.59Zm1.9,16.61-.39-8-4.06,8Z"/><path class="cls-1" d="M49.3,52.77h7.2L59.33,80H52l-.1-1.41,5.31-3.54H43.46l-2.71,5H33.16Zm1.9,16.61-.39-8-4.06,8Z"/><polygon class="cls-1" points="97.68 31.25 91.89 30.41 89.3 25.16 86.72 30.41 80.93 31.25 82.74 32.78 89.19 32.78 85.12 35.33 84.13 41.09 89.3 38.37 94.48 41.09 93.49 35.33 97.68 31.25"/><polygon class="cls-1" points="110.52 38.2 111.53 32.44 106.35 35.15 101.18 32.4 102.16 38.17 97.96 42.24 103.75 43.09 106.31 48.35 108.92 43.1 114.7 42.29 110.52 38.2"/><polygon class="cls-1" points="77.7 32.06 72.53 34.8 67.35 32.09 68.36 37.85 64.18 41.94 69.97 42.76 72.57 48.01 75.14 42.75 80.93 41.9 76.72 37.83 77.7 32.06"/></svg>