<svg id="Layer_1" data-name="Layer 1" xmlns="http://www.w3.org/2000/svg" viewBox="0 0 170.08 113.39"><defs><style>.cls-1{fill:#1d1d1b;}</style></defs><title>mars</title><path class="cls-1" d="M56.52,60.83,53.76,37.29c-.23-2-.37-4.36-.37-4.36h-.1s-.46,2.34-1.07,4.36L45.06,60.83H41.45L34.34,37.29c-.61-2-1.08-4.36-1.08-4.36h-.09s-.14,2.34-.37,4.36L30,60.83H25.07l4.36-33.89h6.13l6.69,22.14c.56,1.92,1,4.17,1,4.17h.1s.42-2.25,1-4.17L51,26.94h6.13l4.35,33.89Z"/><path class="cls-1" d="M74.05,61.34c-7.25,0-10.9-3-10.9-7.91,0-7,7.48-8.28,15.11-8.7V43.14c0-3.19-2.1-4.31-5.33-4.31a18.59,18.59,0,0,0-7,1.54l-1.31-3.51a23.54,23.54,0,0,1,8.8-1.77c6,0,9.69,2.34,9.69,8.56V59.56A21.81,21.81,0,0,1,74.05,61.34Zm4.21-13.2c-5.15.28-10.29.71-10.29,5.2,0,2.67,2,4.3,5.94,4.3A13,13,0,0,0,78.26,57Z"/><path class="cls-1" d="M98.88,39.53a10.74,10.74,0,0,0-2.58-.28,11.12,11.12,0,0,0-4,.66V60.83h-5.1v-24A26.5,26.5,0,0,1,97,35.09a16.61,16.61,0,0,1,2.86.18Z"/><path class="cls-1" d="M109.37,61.34a18,18,0,0,1-7.86-1.78l1.73-3.93a13.93,13.93,0,0,0,6,1.64c2.76,0,4.59-1.36,4.59-3.46,0-2.3-1.92-3.19-4.49-4.12-3.37-1.27-7.16-2.81-7.16-7.54,0-4.16,3.22-7.06,8.84-7.06a14.8,14.8,0,0,1,7.35,1.77l-1.59,3.56a11.38,11.38,0,0,0-5.2-1.5c-2.67,0-4.16,1.41-4.16,3.23,0,2.3,1.87,3.09,4.35,4,3.51,1.31,7.39,2.76,7.39,7.67C119.15,58.39,115.69,61.34,109.37,61.34Z"/><path class="cls-1" d="M87.06,81.09l7.35-7.38c1.14-1.14,2.16-2.33,2.16-3.64,0-1.81-1.25-3.12-3.92-3.12a10.86,10.86,0,0,0-4.26.94l-.59-1.34a12.43,12.43,0,0,1,5-1c3.78,0,5.54,1.91,5.54,4.46,0,1.67-1.16,3.18-2.58,4.51l-5.43,5.14h8.63v1.48Z"/><path class="cls-1" d="M108,81.37c-4.31,0-6.44-3.46-6.44-8s2.13-7.92,6.44-7.92,6.45,3.44,6.45,7.92S112.27,81.37,108,81.37Zm0-14.45c-3.23,0-4.74,2.76-4.74,6.5s1.51,6.5,4.74,6.5,4.75-2.75,4.75-6.5S111.19,66.92,108,66.92Z"/><path class="cls-1" d="M127.91,81.09V85.6h-1.59V81.09h-9.68V79.75l9.4-14h1.87v14h2.24v1.31Zm-1.53-13.68s-.66,1.24-1.42,2.38l-6.7,10h8.09V70.07c0-1.3.08-2.66.08-2.66Z"/><path class="cls-1" d="M134.39,85.89l-.51-1.45a12.55,12.55,0,0,0,8.8-7.72,10.69,10.69,0,0,1-3.89.76c-3.95,0-6.65-2.13-6.65-5.93a6.09,6.09,0,0,1,6.34-6c4.37,0,6.52,3.35,6.52,7.38C145,78.22,141.29,84,134.39,85.89Zm4.09-19a4.57,4.57,0,0,0-4.66,4.63c0,3.07,2.13,4.6,5.11,4.6a12.09,12.09,0,0,0,4.17-.88,10,10,0,0,0,.26-2.41C143.36,69.56,141.68,66.92,138.48,66.92Z"/><path class="cls-1" d="M67.38,30.56,67,27.8l-.85,2.76h-.38l-.86-2.76-.36,2.76h-.45L64.6,27h.5s.86,2.76.87,2.78.86-2.78.86-2.78h.51l.49,3.58Z"/><rect class="cls-1" x="68.47" y="26.98" width="0.46" height="3.58"/><path class="cls-1" d="M70.4,30.61a1.83,1.83,0,0,1-.84-.19l-.07,0,.18-.41.08.05a1.47,1.47,0,0,0,.64.15c.37,0,.76-.15.76-.59s-.28-.47-.65-.63-1-.46-1-1.05a1,1,0,0,1,1.11-1,1.46,1.46,0,0,1,.77.19l.06,0-.18.4-.08,0a1.14,1.14,0,0,0-.57-.15c-.31,0-.65.14-.65.53s.3.48.69.65.91.4.91,1A1.08,1.08,0,0,1,70.4,30.61Z"/><path class="cls-1" d="M72.93,30.61a1.8,1.8,0,0,1-.84-.19l-.07,0L72.2,30l.08.05a1.47,1.47,0,0,0,.64.15c.37,0,.75-.15.75-.59s-.28-.47-.64-.63-1-.46-1-1.05a1,1,0,0,1,1.11-1,1.46,1.46,0,0,1,.77.19l.06,0-.18.4-.08,0a1.14,1.14,0,0,0-.57-.15c-.32,0-.65.14-.65.53s.3.48.69.65.91.4.91,1A1.08,1.08,0,0,1,72.93,30.61Z"/><rect class="cls-1" x="74.75" y="26.98" width="0.46" height="3.58"/><path class="cls-1" d="M77.28,30.61c-.84,0-1.39-.72-1.39-1.84s.55-1.84,1.39-1.84,1.39.72,1.39,1.84S78.12,30.61,77.28,30.61Zm0-3.25c-.68,0-.93.76-.93,1.41s.25,1.41.93,1.41.93-.76.93-1.41S78,27.36,77.28,27.36Z"/><path class="cls-1" d="M81.6,30.56l-1.82-2.81v2.81h-.44V27h.41l1.8,2.78V27H82v3.58Z"/><polygon class="cls-1" points="84.61 30.56 84.61 27.4 83.7 27.4 83.7 26.98 85.98 26.98 85.98 27.4 85.07 27.4 85.07 30.56 84.61 30.56"/><path class="cls-1" d="M87.64,30.61c-.84,0-1.39-.72-1.39-1.84s.55-1.84,1.39-1.84S89,27.65,89,28.77,88.48,30.61,87.64,30.61Zm0-3.25c-.68,0-.92.76-.92,1.41s.24,1.41.92,1.41.93-.76.93-1.41S88.32,27.36,87.64,27.36Z"/></svg>