<svg id="Layer_1" data-name="Layer 1" xmlns="http://www.w3.org/2000/svg" viewBox="0 0 170.08 113.39"><defs><style>.cls-1{fill:#1d1d1b;}</style></defs><title>open</title><path class="cls-1" d="M109.06,30.87,88.92,31l.18,38.79h20.12l10.21-18.93Zm-3.31,33H95.06V36.75h10.65v.09l7.72,13.85Z"/><path class="cls-1" d="M55.8,69.74H49.57V41L42,58.39H35.76L28.23,41V69.74H22V30.93h7.45l9.39,22.3,9.41-22.3H55.8Z"/><path class="cls-1" d="M148.06,69.74H121.42V30.93h26.64v5.48H127.65V48H148v5.19H127.65v11h20.41Z"/><path class="cls-1" d="M87.26,69.74H81.45V58.3H63.76V69.74H58.17V56.16L69.62,30.79h6.17L87.26,56.16ZM80.09,53.26,72.61,36.17,65.39,53.26Z"/><path class="cls-1" d="M95.29,82.59H94V80H89.9v2.62H88.62V79.47l2.63-5.82h1.41l2.63,5.82Zm-1.64-3.78-1.72-3.93-1.65,3.93Z"/><path class="cls-1" d="M101.35,82.58l-1.87-3.79h-1.8v3.79H96.34V73.65l4.94,0a1.68,1.68,0,0,1,1.5,1.5l0,.36h0V76.9h0l0,.35a1.69,1.69,0,0,1-1.5,1.51l-.32,0,1.86,3.79Zm-.44-5.14.19,0a.51.51,0,0,0,.31-.3l0-.2V75.54l0-.19a.57.57,0,0,0-.31-.32h-.19v0H97.68v2.45Z"/><path class="cls-1" d="M105.82,82.58V78.79h3.79v3.79H111V73.65h-1.35v3.79h-3.79V73.65h-1.33v8.93Z"/><path class="cls-1" d="M114,73.65v8.93h-1.35V73.65Z"/><path class="cls-1" d="M119.6,82.58V75h2.57V73.65h-6.48V75h2.56v7.59Z"/><path class="cls-1" d="M130,82.58V81.24h-5.14V78.79h5V77.44h-5V75H130V73.65H123.5v8.93Z"/><path class="cls-1" d="M131.16,82.58V73.65h1.35v3.71l3.38-3.71h1.73l-3.79,4.24,3.81,4.69H136L133,79l-.44.53v3.09Z"/><path class="cls-1" d="M141.46,82.58V75H138.9V73.65h6.47V75h-2.56v7.59Z"/><path class="cls-1" d="M146.71,73.65v8.93h1.35V73.65Z"/></svg>