<svg id="Layer_1" data-name="Layer 1" xmlns="http://www.w3.org/2000/svg" viewBox="0 0 170.08 113.39"><defs><style>.cls-1{fill:#1d1d1b;}</style></defs><title>royal</title><path class="cls-1" d="M28.92,100.36h.56v.45c0,2-.72,3.06-2.64,3.06-1.74,0-2.57-1.22-2.9-3.69-.21-1.72-.61-3.81-3.14-3.81H19.08v5.45a1,1,0,0,0,.68,1.09,8.18,8.18,0,0,0,1.59.24v.48H14.52v-.48a7.85,7.85,0,0,0,1.57-.24,1,1,0,0,0,.68-1.09V90.61a1,1,0,0,0-.68-1.09,8.55,8.55,0,0,0-1.57-.31v-.48h7.61c2.21,0,4.67,1,4.67,3.36s-2.49,3.36-4,3.8v.21c1,.11,2.85.68,3.29,2.27.33,1.2.46,2.27.74,3.34s.85,1,1.18,1c.61,0,.94-.37.94-1.94Zm-4.8-7.83c0-2.49-1.46-3.19-3.12-3.19H19.08v6.39h1.35C22.35,95.73,24.12,95,24.12,92.53Zm16.07,2a5.57,5.57,0,0,1-.15,7.9,5.64,5.64,0,0,1-3.95,1.48,5.35,5.35,0,0,1-3.75-1.46,4.92,4.92,0,0,1-1.77-3.9,5.19,5.19,0,0,1,1.62-4,5.37,5.37,0,0,1,4-1.59A5.53,5.53,0,0,1,40.19,94.53Zm-.81,3.86c0-2.42-.81-4.88-3.23-4.88-2,0-3.2,1.83-3.2,4.95,0,2.66,1,4.88,3.2,4.88S39.38,101.21,39.38,98.39Zm14.1-5.16H48.81v.45c.77.07,1.92.27,1.92.66a32.59,32.59,0,0,1-2.46,4,37.49,37.49,0,0,1-2.4-4.19c0-.28,1.31-.43,1.81-.46v-.45h-6v.45A4.68,4.68,0,0,1,43,94a2.44,2.44,0,0,1,.92,1C44.6,96,45.3,97.24,46,98.57a2.61,2.61,0,0,1,.46,1.11v2.55a.68.68,0,0,1-.5.72,14.75,14.75,0,0,1-1.7.22v.46h6.47v-.46a11.9,11.9,0,0,1-1.7-.31.69.69,0,0,1-.5-.69v-1.94a3.73,3.73,0,0,1,.35-1.66,22.39,22.39,0,0,1,2.55-3.84A2.44,2.44,0,0,1,52.3,94a6.09,6.09,0,0,1,1.18-.33Zm10,9.61a5.1,5.1,0,0,0,1.29.33v.46H59v-.46c.61,0,1.84-.22,1.84-.57a.92.92,0,0,0-.07-.3L59.79,100H56.06c-.26.67-.43,1.11-.59,1.57a2.77,2.77,0,0,0-.17.83c0,.48,1.44.69,2,.76v.46H52.38v-.46a4.86,4.86,0,0,0,1.35-.33,2.3,2.3,0,0,0,.87-1.11c1.16-2.6,2.47-5.78,3.67-8.66h.87c1.61,3.88,3.2,7.7,3.77,9.12A1.16,1.16,0,0,0,63.52,102.84Zm-4-3.44-1.59-3.86-1.6,3.86Zm16.19.54h-.5a10.15,10.15,0,0,1-1.53,2.75,3.54,3.54,0,0,1-2.12.44c-1.5,0-1.81-.22-1.81-1.36V94.64a.71.71,0,0,1,.51-.69,6.86,6.86,0,0,1,1.48-.27v-.45H65.82v.45a6.51,6.51,0,0,1,1.35.33.69.69,0,0,1,.5.72v7.52a.68.68,0,0,1-.5.7,8.62,8.62,0,0,1-1.42.22v.46h9.62Z"/><path class="cls-1" d="M87.27,89.32a13.82,13.82,0,0,1,1.81.09c.94.13,2.09,1.9,2.33,2.86H92V88.73H79.83v.48a8,8,0,0,1,1.73.39,1,1,0,0,1,.67,1.07v11.19a1,1,0,0,1-.67,1.07,9.83,9.83,0,0,1-1.73.22v.48h7v-.48a8.41,8.41,0,0,1-1.66-.33,1.06,1.06,0,0,1-.68-1.07V96.28h1.95a2.76,2.76,0,0,1,1.94.67,5,5,0,0,1,.67,2.16h.59V93H89.1a4,4,0,0,1-.67,2,2.66,2.66,0,0,1-1.94.68H84.54V89.32Z"/><path class="cls-1" d="M98.72,103.17a8.89,8.89,0,0,1-1.42-.28.7.7,0,0,1-.5-.68V94.6a.63.63,0,0,1,.5-.68,11.34,11.34,0,0,1,1.42-.24v-.45H92.81v.45a10.5,10.5,0,0,1,1.42.31.66.66,0,0,1,.5.68v7.63a.66.66,0,0,1-.5.67,10.55,10.55,0,0,1-1.42.2v.46h5.91Z"/><path class="cls-1" d="M100.05,96.76h.46c.15-.87,1.22-2.88,1.9-3a11.07,11.07,0,0,1,1.15-.06h.55v8.5a.7.7,0,0,1-.5.72,13.82,13.82,0,0,1-1.68.22v.46h6.45v-.46a13,13,0,0,1-1.68-.31.7.7,0,0,1-.5-.69V93.73h.57a10.15,10.15,0,0,1,1.13.06c.68.09,1.81,2.18,1.88,3h.48V93.23H100.05Z"/><path class="cls-1" d="M119.1,93.68a8,8,0,0,1,2,.53c.48.24.52,1,.52,2v4.67l-6.21-7.67h-4.15v.45a6.12,6.12,0,0,1,2.14.68,1.53,1.53,0,0,1,.5,1.18v5.1c0,1.11-.13,1.81-.52,2.07a6.87,6.87,0,0,1-1.7.46v.46h5.47v-.46a8.26,8.26,0,0,1-2-.52c-.35-.27-.53-1-.53-2.1V95.36l6.85,8.42h.89V96.15c0-1,.07-1.79.51-2a6.38,6.38,0,0,1,1.68-.44v-.45H119.1Z"/><path class="cls-1" d="M134.13,102.71c-.37.37-1.49.37-2.58.37-1.5,0-1.78-.15-1.78-1.35V98.48H131a1.5,1.5,0,0,1,1.32.48,3.81,3.81,0,0,1,.51,1.57h.54V96h-.54a3.38,3.38,0,0,1-.51,1.5c-.17.18-.43.44-1.32.44h-1.2V93.73h1.81a13.16,13.16,0,0,1,1.37.08c.68.09,1.5,1.44,1.68,2.1h.5V93.23h-9.4v.45a7.16,7.16,0,0,1,1.46.31.72.72,0,0,1,.5.7v7.56a.66.66,0,0,1-.5.7,9.13,9.13,0,0,1-1.46.22v.46h10l.28-3.45h-.52A9.37,9.37,0,0,1,134.13,102.71Z"/><path class="cls-1" d="M143.4,97.74c-.75-.31-1.49-.39-2.36-.79a2,2,0,0,1-1.46-1.85,1.65,1.65,0,0,1,1.55-1.59c2.2,0,3.16,1.7,3.68,3.29h.46l-.15-3.73h-.61l-.57.68a4.27,4.27,0,0,0-2.4-.79c-1.92,0-3.55,1.29-3.55,2.93a2.92,2.92,0,0,0,1.9,2.9c.91.39,1.5.45,2.42.8s1.68.92,1.68,1.81a1.87,1.87,0,0,1-2.1,1.94c-2.14,0-3.23-1.81-3.81-3.46h-.44l.13,3.9h.61l.57-.7a5.07,5.07,0,0,0,2.85.83c2.21,0,3.84-1.37,3.84-3.27C145.64,99.07,144.86,98.33,143.4,97.74Z"/><path class="cls-1" d="M153.31,97.74c-.74-.31-1.48-.39-2.36-.79a2,2,0,0,1-1.46-1.85A1.65,1.65,0,0,1,151,93.51c2.2,0,3.16,1.7,3.69,3.29h.45L155,93.07h-.61l-.57.68a4.24,4.24,0,0,0-2.39-.79c-1.92,0-3.56,1.29-3.56,2.93a2.92,2.92,0,0,0,1.9,2.9c.91.39,1.5.45,2.42.8s1.68.92,1.68,1.81a1.87,1.87,0,0,1-2.09,1.94c-2.14,0-3.23-1.81-3.82-3.46h-.44l.13,3.9h.61l.57-.7a5.14,5.14,0,0,0,2.86.83c2.2,0,3.84-1.37,3.84-3.27C155.56,99.07,154.77,98.33,153.31,97.74Z"/><path class="cls-1" d="M81.86,76.23a99.8,99.8,0,0,1-9.71-9.8l0,0h0a6,6,0,0,0-4.37,2.42l-.2.28a24,24,0,0,1-2.91,3.64l0,0v0a1.8,1.8,0,0,1-.31,1.43,3.38,3.38,0,0,1-2.27.86,4,4,0,0,1-.57,0,4.93,4.93,0,0,1-.85-.07L60,75l.43-.18.1,0a2.15,2.15,0,0,0,1.42-1.11l.07-.15h-.25a2.28,2.28,0,0,1-.84-.16l-.07,0,0,.05a1.18,1.18,0,0,1-.82.3,1.88,1.88,0,0,1-1.56-.91l-.2-.31.35.12a1.41,1.41,0,0,0,.41.07.87.87,0,0,0,.6-.22l.07-.06,0-.08a3.8,3.8,0,0,1-.63-2.22c0-2.3,1.2-5.3,2.47-8.47C63,57.67,64.76,53.23,64.76,49c0-2.25-2.1-3.27-4.06-3.27a3.5,3.5,0,0,0-2.52.85l-.07.08.08.07a2,2,0,0,1,.64,1.57,4.67,4.67,0,0,1-1.75,3.22A13.88,13.88,0,0,1,52.8,54a8.38,8.38,0,0,0-2.73,1.52l-.46.47.24-.61a6.12,6.12,0,0,1,2.69-2.77c1.19-.8,2.41-1.62,2.59-3.17a.29.29,0,0,0-.07-.19.16.16,0,0,0-.11-.05h-.12v.11a5.13,5.13,0,0,1-2.63,2.26l-.63.24.49-.46a6.36,6.36,0,0,0,1.4-2.82c.43-1.64,1.56-2.84,2.68-2.84a1.54,1.54,0,0,1,.87.27l.07,0,.06-.06a5.84,5.84,0,0,1,4.07-1.38c2.42,0,5.24,1.17,5.24,4.46,0,4.78-1.89,9.18-3.55,13.07-1.25,2.93-2.33,5.45-2.33,7.51s.68,2.15,1.88,2.17c1.78,0,2.69-1.49,3.58-2.92a11.46,11.46,0,0,1,1.2-1.71,11.18,11.18,0,0,1,3.34-2.35l.13-.06-.09-.11a63.79,63.79,0,0,1-5-7.06l0-.06,0-.06c.12-.27.32-.77.5-1.29l.09-.26.15.24A71.3,71.3,0,0,0,70.5,62l.19.24V62c0-.11,0-.22,0-.32V61.5A6.23,6.23,0,0,1,71,60c0-.08.07-.24.13-.44.31-1.06,1-3.5,2.11-4.34a17.29,17.29,0,0,1,3.07-2.26l.41-.25h0a5.15,5.15,0,0,0,.59,0,16.65,16.65,0,0,0,1.92-.15,4.41,4.41,0,0,0,1.8-1,.87.87,0,0,1,.37-.23,3.69,3.69,0,0,0,3.06-3l0-.18.23.12a1.12,1.12,0,0,0,.42.18l.4.11a4.32,4.32,0,0,1,1.33.55l.4.22c.23.18.39.31.55.41l.13.08,0-.15a7,7,0,0,1,.9-2.07,6.65,6.65,0,0,0,1.13-3.26c0-3.37-2.39-6.16-2.86-6.69a1,1,0,0,0-.63-.25.48.48,0,0,0-.51.49,4,4,0,0,0,1,2.81A6.26,6.26,0,0,1,88.5,44.8a8,8,0,0,1-1.27,3.85l-.15.25L87,48.63a2.33,2.33,0,0,0-1.06-1.17,5.39,5.39,0,0,1-2.36-3.62c0-.3-.3-.66-.57-.66-.08,0-.25,0-.32.3a5.28,5.28,0,0,0,.12,1.71c.25,1.54.56,3.45-.91,5.25a5.51,5.51,0,0,1-2,.87,8.8,8.8,0,0,1-1.3.2l-.59.05.22-.25a9.18,9.18,0,0,0,2.07-4.91c.13-1.42-.12-1.69-.21-1.78a.36.36,0,0,0-.29-.14.64.64,0,0,0-.34.12c-.46.17-.49.7-.5,1.55a5.06,5.06,0,0,1-2.61,5l-.19.11a20.16,20.16,0,0,0-3.49,2.35l-.23.23v-.33A10.58,10.58,0,0,1,74.31,48c.43-.75.85-1.51,1.26-2.4,1.58-3.22,1.51-4.2,1.32-4.49a.37.37,0,0,0-.33-.18c-.68,0-1.16,1.28-1.77,2.88-.71,1.83-1.58,4.11-2.94,4.64l-.41.16.26-.37c.68-1,.53-2.26.37-3.65a18,18,0,0,1-.14-1.86,19.92,19.92,0,0,1,.65-3.83c.28-1.17.49-2,.21-2.37a.52.52,0,0,0-.42-.18c-.59.21-.81,1.46-1.09,3-.34,1.85-.75,4.15-1.81,5.08l-.37.32.16-.46A3.92,3.92,0,0,0,69.08,42a8.14,8.14,0,0,1,.14-5.6c.11-.36.33-.86.55-1.4.63-1.49,1.06-2.58.84-3.05a.37.37,0,0,0-.25-.2.39.39,0,0,0-.15,0c-.5,0-.7.61-1,1.6a9.53,9.53,0,0,1-.89,2.37A2.16,2.16,0,0,1,66.67,37h-.31l.21-.23c.74-.79.81-2.1.89-3.48s.16-3,1.06-4l0,0v0c0-.19,0-.37-.2-.44a4.66,4.66,0,0,1-2.13-2.48c-.09-.19-.18-.38-.27-.54l-.06-.12.11-.06.36-.21a5.55,5.55,0,0,1,2.79-1h.28a.32.32,0,0,0,.18-.27,1.14,1.14,0,0,0-.29-.71l-.07-.07,0-.09a5.64,5.64,0,0,1,.88-1l.12-.1.08.12a1.12,1.12,0,0,0,.74.56l0,0,0,0a27.84,27.84,0,0,1,11.32-5l.13,0,0-.12a1,1,0,0,1-.12-.49l.12-.62.12.52h.19l1.2-.06,0,.12a2.64,2.64,0,0,1-.17.83,1.34,1.34,0,0,0-.07.3v.32l.19-.25a5,5,0,0,1,3.2-1.77l.43-.09.13,0,0,.13q.11.38.24.75A4.57,4.57,0,0,1,88.23,21c0,.22,0,.25.35.31a5.7,5.7,0,0,1,1.71.77,2.54,2.54,0,0,0,1.36.53h.2l.41,0-.31.28a2.17,2.17,0,0,1-1.46.43A6.92,6.92,0,0,1,88.63,23h-.09a.22.22,0,0,0-.24.17.35.35,0,0,0,.22.36c.11.09.31.22.67.46s.88.58,1.24.85a16.42,16.42,0,0,1,2.73,2.84c.8,1,1.43,1.76,2.1,1.95l.29.08-.26.16a2.17,2.17,0,0,1-1.13.3,5,5,0,0,1-1.86-.49,4.69,4.69,0,0,1-1.09-.87c-.34-.33-.59-.57-.79-.57a.19.19,0,0,0-.12,0,.37.37,0,0,0-.27.32c0,.45.79,1,2.16,1.93a10.19,10.19,0,0,1,1.74,1.3,8.41,8.41,0,0,1,1.4,2.06A2.47,2.47,0,0,0,96.19,35l.19.1-.17.12a1.63,1.63,0,0,1-1,.33,4.22,4.22,0,0,1-2.6-1.29.8.8,0,0,0-.51-.26.29.29,0,0,0-.29.22c-.07.22.07.62.53.94a9.08,9.08,0,0,1,2.28,2,5.57,5.57,0,0,1,1.33,4.67,3.36,3.36,0,0,0,.56,1.38c.16.31.29.54.34.68a16.16,16.16,0,0,1,.66,2.46,12.71,12.71,0,0,1,.27,2.47,2.56,2.56,0,0,1-.45,1.47c-.09.17-.19.34-.29.54-.37.67-.81,1.38-1.2,2a10.29,10.29,0,0,0-1.51,2.95l0,.19-.17-.09a3.65,3.65,0,0,1-1.9-2.54l0-.1H92.1c-.35,0-.95-.58-1.64-1.28S89.34,50.83,89,50.83a.29.29,0,0,0-.27.21v.05l0,0a4.33,4.33,0,0,1,.37.84,1.21,1.21,0,0,0,.31.59c.16.22.64.77,2,2.31,1.17,1.33,2.59,2.93,3.55,4.07l.7.81.08-.11a50.89,50.89,0,0,0,3.39-5c.38-.67.76-1.36,1.15-2.11l0,0,0,0c.6-.28,1.22-.61,1.64-.83l.36-.2-.18.37c-.43.87-1.24,2.49-1.83,3.52a57.31,57.31,0,0,1-3.62,5.51l0,.06,0,.07a17.88,17.88,0,0,1,1.35,1.89,2.53,2.53,0,0,1,.31,1.46,6.71,6.71,0,0,0,.22,1.79,3.1,3.1,0,0,0,.6,1.12c.6.87,1.27,1.86.76,2.93l0,.08.06,0a2,2,0,0,1,.77,2,2.21,2.21,0,0,1-1.45,1.42l-.32.13.16-.32a1.89,1.89,0,0,0,.14-1.27,1.22,1.22,0,0,0-.83-1l-.28,0a.66.66,0,0,0-.53.19,1,1,0,0,0-.14.79,1.23,1.23,0,0,1,0,.17,2.06,2.06,0,0,1-2,2l-.29,0-.31,0,.24-.2a2,2,0,0,0,.62-1,1.32,1.32,0,0,0-.34-1.36.44.44,0,0,0-.26-.1c-.26,0-.46.26-.57.4a2.19,2.19,0,0,1-1.69.76,2.11,2.11,0,0,1-1.41-.52L91.18,72l.44.06.2,0a1.33,1.33,0,0,0,1-.46,1,1,0,0,0,.19-.89.38.38,0,0,0-.08-.26.37.37,0,0,0-.27-.09h-.27c-.51-.21-.53-.91-.46-1.46.2-1.28.64-1.42,1.1-1.58S94,67,94.12,65.84a1.27,1.27,0,0,0-.24-1.09l-.08-.09-.08.09A122.78,122.78,0,0,1,82.78,76.23l-.46.41ZM77.45,70c2,2.11,3.72,3.73,4.79,4.72l.08.07.07-.07a113,113,0,0,0,9-9.55l0,0v0a4.92,4.92,0,0,1,.08-1.26c.11-.8.22-1.56-.42-1.83L91,62a.15.15,0,0,0-.15.12.27.27,0,0,0,0,.13c.15.78-.25,1-.76,1.3a2.62,2.62,0,0,0-.75.56l-.16.19L89.05,64a8.83,8.83,0,0,1-.17-1.53c0-1.05-.1-2-.79-2.25l-.18-.06,0,.19a2,2,0,0,1-.51,1.84,2.5,2.5,0,0,0-.39.64l-.08.2-.15-.16A4.23,4.23,0,0,1,86,61.17a5.19,5.19,0,0,0-1.94-2.63,7.75,7.75,0,0,0-1.58-1.08c-.56-.25-1.31-.14-1.82-.47s-.42-1.06-.35-1.58a17.24,17.24,0,0,0,.16-1.75c0-.26.11-.49.11-.75a.51.51,0,0,0-.09-.35.14.14,0,0,0-.11,0l-.11,0h-.1l-.06.06c-.87,1.1-.63,2.45-1,3.71-.24.88-.11,1.61.89,1.81a7.4,7.4,0,0,1,2.57,1.13,4.74,4.74,0,0,1,1.76,2.66,6.06,6.06,0,0,0,.38,1l.09.18-.2,0a6.66,6.66,0,0,0-1.12.24,5.91,5.91,0,0,1-1.41.27h-.2a4.65,4.65,0,0,0-3.4,1.11.87.87,0,0,0-.15.55c0,.38.42.59.75.78s.49.3.53.45a.36.36,0,0,1-.06.27A10.79,10.79,0,0,1,78.69,68a8.21,8.21,0,0,0-1.26,1.93l0,.06ZM92.22,42.32c-.09,0-.27,0-.34.37a3.12,3.12,0,0,0,.21.8,12.27,12.27,0,0,1,.74,3.24c.07,1.13.1,1.42.14,1.74s.06.59.13,1.48a.15.15,0,0,0,0,.12.2.2,0,0,0,.15.06c.29,0,1-.53,1.76-1.71s1.25-3,1-3.87c-.11-.27-.3-.48-.46-.48a.15.15,0,0,0-.15.17,5,5,0,0,1-1,2.66l-.23.26v-.35a7.05,7.05,0,0,0-1.44-4.22.73.73,0,0,0-.47-.27ZM78.52,34a5.31,5.31,0,0,0-.44,1.73,2.26,2.26,0,0,0,0,1.37c.21.72,1.79,1.46,3.11,1.46a2.75,2.75,0,0,0,1.66-.49,1.09,1.09,0,0,0,.23-.47c.08-.28.16-.55.54-.65a.65.65,0,0,1,.31-.1,1.11,1.11,0,0,1,.48.17,1,1,0,0,0,.49.17H85a3.41,3.41,0,0,0,2.45-2.05,2.21,2.21,0,0,0,.21-1.87,1.66,1.66,0,0,0-.82-.94l-.06,0c-1.25-.91-1.49-1-1.53-1h-.29l.22.19a6.77,6.77,0,0,1,.91,1.16v0l0,0a.92.92,0,0,1,.06.79,5,5,0,0,1-2.86,2.61,7.84,7.84,0,0,1-2.3.38c-1.15,0-2-.34-2.14-.9,0-.15,0-.4-.07-.78s-.07-.68-.07-.75v-.23Zm.77-2.35a1.21,1.21,0,0,0,.15.55l.3.82,0,.06a4.29,4.29,0,0,0,.78,1.52,1.26,1.26,0,0,0,1.07.51l.38,0a3,3,0,0,0,.47-.06,3.17,3.17,0,0,1,.46-.05h0l0,0a3.82,3.82,0,0,1,.39-.44c.58-.43,1.09-1.23.3-2.62l-.12-.23a3.64,3.64,0,0,0-.85-1.27l0,0h-.1a.28.28,0,0,0-.19.05c-.14.16-.1.59-.07.91a2.24,2.24,0,0,1,0,.44l0,.23-.18-.15a1.06,1.06,0,0,1-.29-.45,1.36,1.36,0,0,0-.13-.27,3.09,3.09,0,0,1-.24-.43c0-.09-.08-.17-.13-.26l0-.09a7.84,7.84,0,0,1-.44-.87c-.2-.6.41-1,.86-1.29.28-.19.43-.29.41-.44s-.15-.17-.25-.19a.74.74,0,0,1-.43-.47.27.27,0,0,1,.07-.26.45.45,0,0,1,.34-.14,1.68,1.68,0,0,1,.59.16l.32.12h.08a.65.65,0,0,0,.52-.34.28.28,0,0,0-.1-.31,4.34,4.34,0,0,1-.86-.68c-.2-.21-.34-.35-.54-.35a.45.45,0,0,0-.21.06l-5,2.14c-.21.14-.24.35-.26.67a3.57,3.57,0,0,1-.07.6,1.61,1.61,0,0,0,.12.82.15.15,0,0,0,.12,0,.92.92,0,0,0,.7-.77c.06-.23.09-.34.26-.36a.65.65,0,0,1,.18,0,.29.29,0,0,1,.28.13.89.89,0,0,1,0,.7v.07a.3.3,0,0,0,.32.24,2.17,2.17,0,0,0,.48-.1,2.38,2.38,0,0,1,.68-.15c.68,0,.86.8,1,1.38,0,.18.08.35.13.47a2.72,2.72,0,0,0,.11.25,2.92,2.92,0,0,1,.14.31l0,.11c.11.22.18.39.13.52l0,.07h-.08c-.24,0-.43-.26-.59-.5l-.15-.2c-.21-.22-.32-.28-.45-.28a.79.79,0,0,0-.3.07l-.07,0ZM72.8,29a1.11,1.11,0,0,1,0,.23,2.61,2.61,0,0,0,.88,2.68,3.13,3.13,0,0,0,.7.36.64.64,0,0,1,.28.45.91.91,0,0,0,.24.44,2.31,2.31,0,0,0,1.32.48,2.06,2.06,0,0,0,1.59-.92l.07-.07,0,0v0c0-.19-.12-.36-.24-.36h-.11l-.13,0a1.81,1.81,0,0,1-1.56-1.53v-.08h-.09A3,3,0,0,1,73,28.93l-.2-.32Zm12,.68h.1a3.91,3.91,0,0,0,.51,0c1,0,1.58-.58,1.8-1.72a.65.65,0,0,0-.14-.58.56.56,0,0,1-.14-.45,1.72,1.72,0,0,0,.28-.74A2.49,2.49,0,0,0,86,23.77l-.2-.14-.24.12a3.17,3.17,0,0,1-.68,3.08l-.05.06,0,.06a2.15,2.15,0,0,1,.29,1.64,1.18,1.18,0,0,1-.34.61l0,0h0a.2.2,0,0,0-.15.16.26.26,0,0,0,.16.27h0ZM67.17,26.38c.43.7,1.08,1.76,2.07,1.86h.17a1.71,1.71,0,0,0,1.28-.45c.09-.07.12-.1.16-.11h.05c.1,0,.17.08.28.21a.56.56,0,0,0,.2.18h0A3.65,3.65,0,0,0,72,28l.09,0v-.09c0-.2-1-2.65-2.95-2.7v0a2.66,2.66,0,0,0-1.17.36,4.48,4.48,0,0,1-.89.37l-.14,0Zm5.07-.54a2.25,2.25,0,0,1,1.14.46,2.43,2.43,0,0,0,1.31.52,1.64,1.64,0,0,0,.56-.11c1.3-.6,1.3-1.27,1.28-2.5v-.6l-.17.15a2.24,2.24,0,0,1-.63.38,19.68,19.68,0,0,1-3.9,1.18.28.28,0,0,0-.19.06.2.2,0,0,0-.07.16.38.38,0,0,0,.39.33l.28,0Zm7-3.19.31.32c.54.58,1,1,1.72,1a2.66,2.66,0,0,0,.89-.17c.68-.28.75-.85.82-1.41a2,2,0,0,1,.7-1.54.41.41,0,0,0,.18-.42.2.2,0,0,0-.2-.14.42.42,0,0,0-.25.11,11.94,11.94,0,0,1-3.08,1.73,5.58,5.58,0,0,1-.91.24c-.24.05-.26.08-.25.15v.1Zm6.06-.3a1,1,0,0,0,.25-.1.5.5,0,0,0,.2-.17.85.85,0,0,0,0-.35c0-.18,0-.26.06-.32a.31.31,0,0,1,.19-.06l.22,0a1.57,1.57,0,0,0,.65-.2c1-.52,1.17-2.08.45-3.47l0-.08-.08,0a3.69,3.69,0,0,0-2.42,1.58,3.87,3.87,0,0,0,.3,3v.13ZM96.45,53.44l.19-.36c.13-.23.25-.46.36-.7s.18-.4.28-.59a9.36,9.36,0,0,0,1.26-3.55,4.35,4.35,0,0,0-.23-1.84,17.31,17.31,0,0,1-.51-1.72l0-.12.11,0a4.08,4.08,0,0,1,1.67-.3H100l.72,0,.69,0h.44a3.47,3.47,0,0,0,2.27-.58,1.34,1.34,0,0,0,.43-1.14,1.21,1.21,0,0,0,0-.19,1.08,1.08,0,0,1,.18-.86,5.62,5.62,0,0,1,.6-.55l-.13-.06a2.64,2.64,0,0,1-.42-.32l-1.65-.73-.59-.25a5.05,5.05,0,0,0,.26.55l.16.17c.65.73,1.39,1.56,1,2.7,0,.1-.08.26-1.36.26l-.85,0A4.44,4.44,0,0,1,99,42.18a3.06,3.06,0,0,1-.8-2.1v0l0,0c-.9-1.6-.2-4.08,1.67-5.91a6.4,6.4,0,0,1,4.26-1.95,3.25,3.25,0,0,1,1.68.43l0,0h0a3,3,0,0,1,2.08.85,2.05,2.05,0,0,1,.62,1.15.56.56,0,0,0,0,.12l.09.23-.24,0a3.29,3.29,0,0,0-.76-.09l-.42,0-.18,0,.1.15a3.24,3.24,0,0,1,.49,1.08l.13.5-.35-.38a3.42,3.42,0,0,0-.63-.57,3.15,3.15,0,0,0-1.68-.49,3.69,3.69,0,0,0-1.19.21,2.21,2.21,0,0,0-1.48,1.3,1,1,0,0,0,.46,1.1c.09,0,.95.43,1.37.67l.14.06h.19a.63.63,0,0,0,.64-.35,1,1,0,0,0-.09-1,1.4,1.4,0,0,0-.89-.58l-.43-.09.41-.17a1.94,1.94,0,0,1,.73-.14,2.24,2.24,0,0,1,2.1,1.43c.1.28.24.59.53.59a.4.4,0,0,0,.15,0,1.31,1.31,0,0,0,.79-1.16,1.94,1.94,0,0,0-.25-1.16l-.15-.27.3.07a2.08,2.08,0,0,1,1.17.71,2.38,2.38,0,0,1,.36,1.94,1.2,1.2,0,0,1-.09.21,1.07,1.07,0,0,0-.1.22.63.63,0,0,1-.08.17c0,.07-.07.14-.1.22a1.67,1.67,0,0,0,0,.39,1,1,0,0,1,0,.16,6.22,6.22,0,0,1-.05.88v.07l.09.08.5.2,0-.08a5.58,5.58,0,0,1,4.63-3,4.15,4.15,0,0,1,1,.13l1,.26h-1a5.94,5.94,0,0,0-5.19,4.07,6.36,6.36,0,0,0,.26,5.38l.5.87-.7-.71a5.46,5.46,0,0,1-1.23-5.09l0-.08-2.12-.94,0,.06a.53.53,0,0,0-.13.2c-.19.48.35.82.92,1.13l.47.32.11.07-.07.11a7.87,7.87,0,0,0-.75,1.76,8.58,8.58,0,0,1-.68,1.7,10.49,10.49,0,0,1-1.93,2.07l-.49.46a4.1,4.1,0,0,1-2.16,1.1,8,8,0,0,0-1,.44l-.55.26-.93.35.8-.59a7.15,7.15,0,0,0,1.83-2.93,8.54,8.54,0,0,1-1.23,1.09c-.18.13-.39.26-.59.39a4.46,4.46,0,0,0-1.44,1.19c-.11.17-.22.34-.31.5s-.34.53-.55.81a4.75,4.75,0,0,1-2,1.4l-.3.1Zm-33.3-.06c-.93-1.91-2.33-5-3-6.59L60,46.52l.15,0a1.78,1.78,0,0,1,.59-.1,2,2,0,0,1,.72.14l0,0,0,.06c.55,1.35,1.67,3.83,2.23,5l0,0,0,.2c0,.23-.11.48-.23.93-.05.18-.1.39-.17.58l-.1.3ZM115,50a3.85,3.85,0,0,1-1.39-.26,3.65,3.65,0,0,1-1.25-.78l-.21-.15-.1-.08,0,0a5.8,5.8,0,0,1-.79-6,5.68,5.68,0,0,1,5-3.92,4,4,0,0,1,1.28.21l.08-.13.11.07a3.6,3.6,0,0,1,.68.5c1.88,1.26,2.53,4,1.55,6.61A5.69,5.69,0,0,1,115,50Zm1.48-9.82a4.25,4.25,0,0,0-3.75,2.94,4.55,4.55,0,0,0,.29,4.06l.2-.12a5.12,5.12,0,0,1,.45-3.76,3.37,3.37,0,0,1,3.14-2.1l.52,0a2.57,2.57,0,0,1,1.57.65l.23.28-.06-.47,0,0a3.14,3.14,0,0,0-1.5-1.27,3,3,0,0,0-1.07-.19ZM59,43.69c-2.06-5.92-3.28-11.35-3.3-11.4l-.13-.65.64-.16s4.38-1.12,10.28-2.12l.08,0,0,.07a1,1,0,0,1,.19.93,2,2,0,0,1-.11.32l0,.06-.07,0c-4.24.72-7.65,1.5-9.3,1.89l-.1,0,0,.1c.32,1.37,1.5,6,3.16,10.69l.05.17h-.17a5.38,5.38,0,0,0-1.1.15l-.12,0ZM101,31.28c-1.73-.35-2.35-.46-4.46-.79l-.25,0,.17-.19a2.47,2.47,0,0,0,.59-1l0-.12.11,0c3.6.59,5.68,1,7.18,1.33l1,.23-1,0a13.66,13.66,0,0,0-3,.43l-.25.06h0Z"/><path class="cls-1" d="M68.46,19.32l2.27,2.45s.84-.94,4.89-2.58a38.84,38.84,0,0,1,5.9-2c0-.19,0-3.16,0-3.16l.08-.6.21-1.22s0-.33,0-.83.15-1.71.17-1.83-.13.05-.52.07-.21.74-.21.74-.63-.06-.75.42.79.67.79.67l-.08.52-.52.09c-.32,0-.66.06-.66.06s0-.75-.49-.73-.35,1-.35,1-.71-.11-.72.4.57.5.57.5-.07.81.35.82.24-.66.24-.66a4.79,4.79,0,0,1,.63-.11c.15,0,.35.09.37.24a13,13,0,0,1-.28,1.64c-.17.88-.44,1.48-1,1.69s-1.2-.4-1.2-.4l-.21.09a1.06,1.06,0,0,1-.4.83c-.4.25-1,.35-1.3-.22s-.62-1.83-.62-1.83l.13-.3.32-.14a.41.41,0,0,0,.61.26c.49-.21.15-.8.15-.8s.73-.28.55-.64-.82-.22-.82-.22-.13-.65-.66-.54-.19.9-.19.9l-1,.37-.26-.62a.51.51,0,0,0,.25-.59c-.14-.36-.75-.18-.75-.18s-.16-.65-.64-.46-.07.8-.07.8-.7.31-.52.66.79.09.79.09l.24.71-1,.42s-.18-.62-.62-.45-.12.75-.12.75a.62.62,0,0,0-.37.8.55.55,0,0,0,.79.29,1.2,1.2,0,0,0,.22.47c.17.19.63,0,.55-.25S73,16,73.1,16l.4-.14.23.12a11.77,11.77,0,0,1,.6,1.6,1.1,1.1,0,0,1-.86,1.57c-.48,0-1.09-.62-1.09-.62l-.27.2a1.49,1.49,0,0,1-.3.83c-.35.59-.7.56-1.45.28a4.55,4.55,0,0,1-1.53-1.26l.54-.77s.56.37.83.19a.4.4,0,0,0-.06-.66c-.2-.11-.19-.21,0-.36a.33.33,0,0,0,.06-.59c-.23-.2-.66.16-.72.24s-.13,0-.23-.14a.5.5,0,0,0-.71-.22c-.34.2,0,.63.1.71s-.07.3-.31.66-.61.14-.77,0-.35-.21-.25-.31a.42.42,0,0,0,0-.65c-.3-.29-.63.05-.86.25s-.35-.34-.72-.41-.49.34-.49.34l2.28,1.6Z"/></svg>