<svg id="Layer_1" data-name="Layer 1" xmlns="http://www.w3.org/2000/svg" viewBox="0 0 165.89 165.89"><defs><style>.cls-1{fill:#0bf;opacity:0.3;}.cls-2{fill:#fff;}</style></defs><title>ico-3</title><circle class="cls-1" cx="82.94" cy="82.94" r="78.8"/><path class="cls-2" d="M55.86,112.09v-11h1.42v11Z"/><path class="cls-2" d="M59.78,112.09V106.5c0-.36,0-.72,0-1.09a10,10,0,0,0-.1-1.09H61l.14,1.59L61,106a2.75,2.75,0,0,1,1.09-1.4,3.06,3.06,0,0,1,1.72-.49c1.87,0,2.8,1,2.8,3.11v4.86H65.16V107.3a2.3,2.3,0,0,0-.41-1.53,1.58,1.58,0,0,0-1.3-.49,2.17,2.17,0,0,0-1.65.64,2.39,2.39,0,0,0-.62,1.72v4.45Z"/><path class="cls-2" d="M67.8,105.4v-1.08h5.1v1.08Zm5.07,5.47V112a5.23,5.23,0,0,1-.54.12,5.11,5.11,0,0,1-.58,0,2.43,2.43,0,0,1-1.79-.65,2.59,2.59,0,0,1-.66-1.92v-7.28l1.41-.5v7.63a2,2,0,0,0,.17.93,1,1,0,0,0,.48.47,1.84,1.84,0,0,0,.69.13,2.5,2.5,0,0,0,.4,0A3.31,3.31,0,0,0,72.87,110.87Z"/><path class="cls-2" d="M80.8,111.18a3.55,3.55,0,0,1-1.31.75,5.13,5.13,0,0,1-1.64.27,4.34,4.34,0,0,1-2.1-.48,3.35,3.35,0,0,1-1.36-1.38,4.68,4.68,0,0,1-.47-2.16,4.44,4.44,0,0,1,.47-2.11,3.5,3.5,0,0,1,3.22-1.95,3.34,3.34,0,0,1,1.79.47,3,3,0,0,1,1.15,1.31,5,5,0,0,1,.39,2v.25H75.15v-.87h5l-.43.56a3.11,3.11,0,0,0-.51-2,1.89,1.89,0,0,0-1.58-.69,2,2,0,0,0-1.69.76,4.11,4.11,0,0,0,0,4.37,2.39,2.39,0,0,0,1.91.75,4,4,0,0,0,1.3-.22,4.1,4.1,0,0,0,1.17-.68Z"/><path class="cls-2" d="M82.79,112.09V106.5c0-.36,0-.72,0-1.09s0-.73-.1-1.09H84l.17,1.93-.17-.06a2.4,2.4,0,0,1,.91-1.54,2.74,2.74,0,0,1,1.62-.51l.39,0,.33.07v1.28a2.65,2.65,0,0,0-.87-.14,2.18,2.18,0,0,0-1.26.34,2,2,0,0,0-.7.87,3,3,0,0,0-.21,1.12v4.39Z"/><path class="cls-2" d="M94.75,111.18a3.4,3.4,0,0,1-1.31.75,5.07,5.07,0,0,1-1.63.27,4.29,4.29,0,0,1-2.1-.48,3.29,3.29,0,0,1-1.36-1.38,5,5,0,0,1,0-4.27,3.56,3.56,0,0,1,1.31-1.43,3.49,3.49,0,0,1,1.91-.52,3.35,3.35,0,0,1,1.8.47,2.87,2.87,0,0,1,1.14,1.31,5,5,0,0,1,.39,2v.25H89.11v-.87h5l-.43.56a3.11,3.11,0,0,0-.51-2,1.88,1.88,0,0,0-1.57-.69,2,2,0,0,0-1.7.76,3.38,3.38,0,0,0-.6,2.14,3.33,3.33,0,0,0,.64,2.23,2.41,2.41,0,0,0,1.92.75,4,4,0,0,0,1.29-.22,4,4,0,0,0,1.18-.68Z"/><path class="cls-2" d="M99.42,112.2a4.71,4.71,0,0,1-3.17-1l.45-1a4.33,4.33,0,0,0,1.29.71,4.62,4.62,0,0,0,1.47.22,2.38,2.38,0,0,0,1.28-.29.92.92,0,0,0,.44-.82.86.86,0,0,0-.3-.69,2.55,2.55,0,0,0-1-.42l-1.3-.31a2.92,2.92,0,0,1-1.53-.77,1.86,1.86,0,0,1-.54-1.35,2,2,0,0,1,.38-1.2,2.61,2.61,0,0,1,1.06-.83,4,4,0,0,1,1.61-.3,4.71,4.71,0,0,1,1.55.26,3.45,3.45,0,0,1,1.24.76l-.45,1a4.24,4.24,0,0,0-1.14-.68,3.39,3.39,0,0,0-1.22-.23,2.19,2.19,0,0,0-1.23.31,1,1,0,0,0-.44.84,1,1,0,0,0,.28.71,2.06,2.06,0,0,0,.88.41l1.31.33a3.18,3.18,0,0,1,1.64.76,1.87,1.87,0,0,1,.52,1.37,1.91,1.91,0,0,1-.83,1.63A3.78,3.78,0,0,1,99.42,112.2Zm1.2-12h1.25L100,103.32h-.94l-1.87-3.17h1.25l1.1,2.18Z"/><path class="cls-2" d="M107.18,112.2a2.7,2.7,0,0,1-2.11-.78,3.34,3.34,0,0,1-.7-2.31v-4.79h1.41v4.77a2.26,2.26,0,0,0,.4,1.48,1.61,1.61,0,0,0,1.26.47,2.1,2.1,0,0,0,1.59-.64,2.41,2.41,0,0,0,.6-1.71v-4.37h1.42v7.77h-1.37v-1.67l.19-.08a2.6,2.6,0,0,1-1,1.39A3,3,0,0,1,107.18,112.2Z"/><path class="cls-2" d="M45.88,133.94V125q0-.54,0-1.08a9.81,9.81,0,0,0-.1-1.09h1.33l.14,1.59-.12.2a2.57,2.57,0,0,1,1-1.48,3.06,3.06,0,0,1,1.78-.51,3.2,3.2,0,0,1,1.79.51,3.49,3.49,0,0,1,1.22,1.43,4.77,4.77,0,0,1,.44,2.13,4.7,4.7,0,0,1-.44,2.12,3.18,3.18,0,0,1-1.21,1.39,3.26,3.26,0,0,1-1.8.49,3,3,0,0,1-1.78-.52,2.52,2.52,0,0,1-1-1.46l.18-.17v5.37Zm3.7-4.36a2.08,2.08,0,0,0,1.7-.74,3.3,3.3,0,0,0,.6-2.12,3.4,3.4,0,0,0-.6-2.14,2,2,0,0,0-1.7-.78,2.06,2.06,0,0,0-1.71.75,4.12,4.12,0,0,0,0,4.28A2.06,2.06,0,0,0,49.58,129.58Z"/><path class="cls-2" d="M58.18,130.72a3.28,3.28,0,0,1-1.8-.49,3.18,3.18,0,0,1-1.21-1.39,4.83,4.83,0,0,1-.43-2.12,4.77,4.77,0,0,1,.44-2.13,3.49,3.49,0,0,1,1.22-1.43,3.17,3.17,0,0,1,1.78-.51,3.07,3.07,0,0,1,1.79.51,2.57,2.57,0,0,1,1,1.48l-.18.1v-1.89h1.39v7.76H60.79v-1.94l.18.07a2.52,2.52,0,0,1-1,1.46A3,3,0,0,1,58.18,130.72Zm.31-1.14a2,2,0,0,0,1.7-.75,4.12,4.12,0,0,0,0-4.28,2.28,2.28,0,0,0-3.41,0,3.29,3.29,0,0,0-.62,2.14,3.19,3.19,0,0,0,.62,2.12A2.11,2.11,0,0,0,58.49,129.58Zm-2.15-8.8v-1h4.71v1Z"/><path class="cls-2" d="M64.52,130.61V125c0-.36,0-.72,0-1.08a9.81,9.81,0,0,0-.1-1.09h1.33l.17,1.93-.17-.07a2.32,2.32,0,0,1,.92-1.53,2.65,2.65,0,0,1,1.61-.52l.39,0,.33.07V124a2.65,2.65,0,0,0-.87-.13,2.11,2.11,0,0,0-1.26.34,2,2,0,0,0-.7.86,3,3,0,0,0-.21,1.13v4.38Z"/><path class="cls-2" d="M72.81,130.72a4.75,4.75,0,0,1-3.16-1l.45-1a4.29,4.29,0,0,0,1.29.7,4.54,4.54,0,0,0,1.47.22,2.32,2.32,0,0,0,1.27-.28.92.92,0,0,0,.44-.83.86.86,0,0,0-.3-.69,2.43,2.43,0,0,0-1-.42l-1.3-.31a2.92,2.92,0,0,1-1.54-.77,1.89,1.89,0,0,1-.53-1.34,2,2,0,0,1,.38-1.21,2.46,2.46,0,0,1,1.06-.82,3.94,3.94,0,0,1,1.6-.3,4.43,4.43,0,0,1,1.55.26,3.48,3.48,0,0,1,1.25.75l-.45,1a4,4,0,0,0-1.14-.69,3.42,3.42,0,0,0-1.22-.22,2.07,2.07,0,0,0-1.23.31,1,1,0,0,0-.44.83.91.91,0,0,0,.28.71,2.12,2.12,0,0,0,.88.42l1.31.32a3.18,3.18,0,0,1,1.64.76,1.89,1.89,0,0,1,.52,1.37,1.94,1.94,0,0,1-.83,1.63A3.74,3.74,0,0,1,72.81,130.72Z"/><path class="cls-2" d="M76.67,123.93v-1.08h5.1v1.08Zm5.07,5.46v1.18a5.17,5.17,0,0,1-.54.11,3.52,3.52,0,0,1-.58,0,2.43,2.43,0,0,1-1.79-.65,2.56,2.56,0,0,1-.66-1.91v-7.29l1.4-.49V128a2,2,0,0,0,.18.94,1,1,0,0,0,.48.46,1.67,1.67,0,0,0,.69.13,2.5,2.5,0,0,0,.4,0A3.31,3.31,0,0,0,81.74,129.39Z"/><path class="cls-2" d="M86.23,130.72a3.28,3.28,0,0,1-1.8-.49,3.18,3.18,0,0,1-1.21-1.39,4.83,4.83,0,0,1-.43-2.12,4.77,4.77,0,0,1,.44-2.13,3.47,3.47,0,0,1,1.21-1.43,3.2,3.2,0,0,1,1.79-.51,3.09,3.09,0,0,1,1.79.51,2.57,2.57,0,0,1,1,1.48l-.18.1v-1.89h1.39v7.76H88.84v-1.94l.18.07a2.52,2.52,0,0,1-1,1.46A3,3,0,0,1,86.23,130.72Zm.31-1.14a2,2,0,0,0,1.7-.75,3.35,3.35,0,0,0,.6-2.14,3.29,3.29,0,0,0-.61-2.14,2,2,0,0,0-1.69-.75,2.07,2.07,0,0,0-1.72.78,3.34,3.34,0,0,0-.61,2.14,3.25,3.25,0,0,0,.61,2.12A2.13,2.13,0,0,0,86.54,129.58Zm-2.15-8.8v-1H89.1v1Z"/><path class="cls-2" d="M94.86,130.61l-3.32-7.75H93l2.74,6.67h-.39l2.76-6.67h1.41l-3.37,7.75Z"/><path class="cls-2" d="M99.16,120.78v-1h4.71v1Zm1.65,9.83v-7.76h1.41v7.76Z"/><path class="cls-2" d="M104.57,130.61V119.25H106v5.56l-.18-.19a2.56,2.56,0,0,1,1-1.45,3,3,0,0,1,1.77-.52,3.27,3.27,0,0,1,1.81.49,3.39,3.39,0,0,1,1.21,1.4,4.7,4.7,0,0,1,.44,2.12,4.81,4.81,0,0,1-.44,2.14,3.4,3.4,0,0,1-1.22,1.42,3.29,3.29,0,0,1-1.8.5,3,3,0,0,1-1.77-.52,2.52,2.52,0,0,1-1-1.46l.17-.18v2.05Zm3.7-1a2,2,0,0,0,1.7-.77,3.4,3.4,0,0,0,.6-2.15,3.29,3.29,0,0,0-.6-2.11,2.3,2.3,0,0,0-3.41,0,4.1,4.1,0,0,0,0,4.27A2.06,2.06,0,0,0,108.27,129.58Z"/><path class="cls-2" d="M116.87,130.72a3.28,3.28,0,0,1-1.8-.49,3.18,3.18,0,0,1-1.21-1.39,4.83,4.83,0,0,1-.43-2.12,4.77,4.77,0,0,1,.44-2.13,3.49,3.49,0,0,1,1.22-1.43,3.15,3.15,0,0,1,1.78-.51,3.07,3.07,0,0,1,1.79.51,2.57,2.57,0,0,1,1,1.48l-.18.1v-1.89h1.39v7.76h-1.39v-1.94l.18.07a2.52,2.52,0,0,1-1,1.46A3,3,0,0,1,116.87,130.72Zm.31-1.14a2,2,0,0,0,1.7-.75,4.12,4.12,0,0,0,0-4.28,2.29,2.29,0,0,0-3.42,0,3.34,3.34,0,0,0-.61,2.14,3.25,3.25,0,0,0,.61,2.12A2.15,2.15,0,0,0,117.18,129.58Z"/><path class="cls-2" d="M58.7,84.19A3.73,3.73,0,0,1,55,81L52,61.43a3.72,3.72,0,0,1,.67-2.76,3.66,3.66,0,0,1,2.43-1.48l4.6-.71A3.73,3.73,0,0,1,64,59.59l3,19.6a3.71,3.71,0,0,1-3.1,4.24l-4.6.71A3.79,3.79,0,0,1,58.7,84.19Zm1.58-24.77h-.11l-4.59.71a.74.74,0,0,0-.49.3A.73.73,0,0,0,55,61l3,19.6a.71.71,0,0,0,.3.48.7.7,0,0,0,.55.13l4.59-.7h0a.74.74,0,0,0,.62-.85L61,60a.69.69,0,0,0-.3-.48A.73.73,0,0,0,60.28,59.42Z"/><path class="cls-2" d="M82.62,86.14C79.5,86.14,68.87,83,65.55,82a1.49,1.49,0,0,1,.85-2.85c6.78,2,14.91,4.16,16.21,4C84,82.82,95,76.87,102.23,72.92c3.51-1.91,6.83-3.72,9-4.83a1.2,1.2,0,0,0,.62-.94,1,1,0,0,0-.4-.91,6.74,6.74,0,0,0-5.21-1.11L92.44,67.26A1.49,1.49,0,1,1,92,64.32l13.74-2.12a9.68,9.68,0,0,1,7.45,1.67,4,4,0,0,1,1.58,3.53,4.1,4.1,0,0,1-2.2,3.33c-2.11,1.1-5.41,2.9-8.91,4.81C90.28,82.81,84.46,85.9,83.05,86.11A2.63,2.63,0,0,1,82.62,86.14Z"/><path class="cls-2" d="M74.84,75.85a1.49,1.49,0,0,1-.22-3l17.25-2.67a.83.83,0,0,0,.61-.43.75.75,0,0,0,0-.67c-1.43-2.89-3.44-4.15-6-3.77l-7.6,1.18a5.14,5.14,0,0,1-4.36-1.38c-1.3-1.23-3.9-3.24-6.69-2.81L64,63l-.5.06-.18,0v0c-.71,0-1.53-.13-1.7-1.21a1.48,1.48,0,0,1,1.25-1.69h0l4.59-.71c4-.63,7.49,2,9.18,3.59a2.2,2.2,0,0,0,1.87.59l7.59-1.17c3.86-.6,7.09,1.31,9.1,5.38a3.71,3.71,0,0,1,0,3.37,3.8,3.8,0,0,1-2.78,2L75.07,75.83Z"/><path class="cls-2" d="M77.24,56.19a2.8,2.8,0,0,1-2.76-3.27l1.15-6.7-4.86-4.74a2.78,2.78,0,0,1-.71-2.87,2.82,2.82,0,0,1,2.26-1.9l6.73-1,3-6.1a2.79,2.79,0,0,1,5,0h0l3,6.1,6.72,1a2.79,2.79,0,0,1,1.55,4.77l-4.86,4.74,1.15,6.7a2.8,2.8,0,0,1-4.06,2.95l-6-3.16-6,3.16A2.85,2.85,0,0,1,77.24,56.19ZM73.1,39.6l4.68,4.56a2.8,2.8,0,0,1,.8,2.47l-1.1,6.44,5.77-3a2.78,2.78,0,0,1,2.6,0l5.78,3-1.1-6.44a2.8,2.8,0,0,1,.8-2.47L96,39.6l-6.46-.93a2.82,2.82,0,0,1-2.11-1.53l-2.89-5.86-2.89,5.86a2.82,2.82,0,0,1-2.1,1.53Zm17-3.78Z"/></svg>