<svg id="Layer_1" data-name="Layer 1" xmlns="http://www.w3.org/2000/svg" viewBox="0 0 165.89 165.89"><defs><style>.cls-1{fill:#0bf;opacity:0.3;}.cls-2{fill:#fff;}</style></defs><title>ico-8</title><circle class="cls-1" cx="82.94" cy="82.94" r="78.8"/><path class="cls-2" d="M30.92,116.92v-11h1.42v11Zm7,0-5.94-5.59,5.69-5.4h1.79l-6.14,5.82.08-.88,6.36,6Z"/><path class="cls-2" d="M40.66,116.92v-5.59c0-.36,0-.72,0-1.08a9.81,9.81,0,0,0-.11-1.09h1.33l.17,1.93-.17-.07a2.36,2.36,0,0,1,.92-1.53,2.67,2.67,0,0,1,1.61-.52l.4,0,.33.07,0,1.28a2.55,2.55,0,0,0-.86-.13,2.12,2.12,0,0,0-1.27.34,1.87,1.87,0,0,0-.69.86,2.85,2.85,0,0,0-.22,1.13v4.38Z"/><path class="cls-2" d="M44.7,107.09v-1h4.71v1Zm1.65,9.83v-7.76h1.41v7.76Z"/><path class="cls-2" d="M49.7,116.92v-1l5.17-6.22.2.51H49.86v-1.08h6.28v1L51,116.35l-.16-.52h5.5v1.09Z"/><path class="cls-2" d="M64.37,116a3.55,3.55,0,0,1-1.31.75,5.13,5.13,0,0,1-1.64.27,4.34,4.34,0,0,1-2.1-.48A3.29,3.29,0,0,1,58,115.17a4.52,4.52,0,0,1-.48-2.15A4.6,4.6,0,0,1,58,110.9a3.62,3.62,0,0,1,1.31-1.43,3.57,3.57,0,0,1,1.91-.51,3.35,3.35,0,0,1,1.8.46,3,3,0,0,1,1.14,1.32,4.73,4.73,0,0,1,.4,2V113H58.72v-.86h5l-.43.55a3.08,3.08,0,0,0-.51-2,1.85,1.85,0,0,0-1.57-.7,2,2,0,0,0-1.69.77,4.09,4.09,0,0,0,0,4.36,2.39,2.39,0,0,0,1.91.75,3.78,3.78,0,0,0,1.3-.22,4.06,4.06,0,0,0,1.17-.67Z"/><path class="cls-2" d="M69,117a4.78,4.78,0,0,1-3.17-1l.45-1a4.29,4.29,0,0,0,1.29.7,4.64,4.64,0,0,0,1.48.22,2.35,2.35,0,0,0,1.27-.28.94.94,0,0,0,.44-.83.86.86,0,0,0-.3-.69,2.42,2.42,0,0,0-1-.42l-1.29-.31a2.92,2.92,0,0,1-1.54-.77,1.89,1.89,0,0,1-.53-1.34,2,2,0,0,1,.38-1.21,2.49,2.49,0,0,1,1-.82,4,4,0,0,1,1.61-.3,4.47,4.47,0,0,1,1.55.26A3.43,3.43,0,0,1,72,110l-.44,1a4.23,4.23,0,0,0-1.15-.69,3.38,3.38,0,0,0-1.22-.22,2.06,2.06,0,0,0-1.22.31,1,1,0,0,0-.17,1.54,2.18,2.18,0,0,0,.88.42l1.32.32a3.14,3.14,0,0,1,1.63.76,1.89,1.89,0,0,1,.53,1.37,1.92,1.92,0,0,1-.84,1.63A3.69,3.69,0,0,1,69,117Z"/><path class="cls-2" d="M80.78,117a4.76,4.76,0,0,1-3.17-1l.45-1a4.29,4.29,0,0,0,1.29.7,4.62,4.62,0,0,0,1.47.22,2.38,2.38,0,0,0,1.28-.28.94.94,0,0,0,.44-.83.86.86,0,0,0-.3-.69,2.55,2.55,0,0,0-1-.42l-1.3-.31a2.85,2.85,0,0,1-1.53-.77,1.86,1.86,0,0,1-.54-1.34,2,2,0,0,1,.38-1.21,2.59,2.59,0,0,1,1.06-.82,4,4,0,0,1,1.61-.3,4.47,4.47,0,0,1,1.55.26,3.43,3.43,0,0,1,1.24.75l-.45,1a4,4,0,0,0-1.14-.69,3.38,3.38,0,0,0-1.22-.22,2.11,2.11,0,0,0-1.23.31,1,1,0,0,0-.44.83.94.94,0,0,0,.28.71,2.18,2.18,0,0,0,.88.42l1.31.32a3.18,3.18,0,0,1,1.64.76,1.89,1.89,0,0,1,.52,1.37,1.91,1.91,0,0,1-.83,1.63A3.71,3.71,0,0,1,80.78,117Z"/><path class="cls-2" d="M85.65,105.81h1.66v1.52H85.65Zm.13,11.11v-7.76h1.4v7.76Z"/><path class="cls-2" d="M88.46,110.24v-1.08h5.1v1.08Zm5.07,5.46v1.17a3.79,3.79,0,0,1-1.12.16,2.43,2.43,0,0,1-1.79-.65,2.56,2.56,0,0,1-.66-1.91v-7.29l1.4-.49v7.62a2,2,0,0,0,.18.94,1,1,0,0,0,.48.46,1.67,1.67,0,0,0,.69.13,2.5,2.5,0,0,0,.4,0A3.31,3.31,0,0,0,93.53,115.7Z"/><path class="cls-2" d="M97.8,117a2.71,2.71,0,0,1-2.11-.78,3.39,3.39,0,0,1-.7-2.31v-4.78H96.4v4.77a2.15,2.15,0,0,0,.41,1.47,1.58,1.58,0,0,0,1.25.47,2.07,2.07,0,0,0,1.59-.64,2.35,2.35,0,0,0,.61-1.7v-4.37h1.42v7.76H100.3v-1.67l.19-.07a2.61,2.61,0,0,1-1,1.38A3,3,0,0,1,97.8,117Z"/><path class="cls-2" d="M107,117a3.28,3.28,0,0,1-1.8-.49,3.18,3.18,0,0,1-1.21-1.39,4.83,4.83,0,0,1-.44-2.12,4.91,4.91,0,0,1,.44-2.13,3.57,3.57,0,0,1,1.22-1.43A3.2,3.2,0,0,1,107,109a3.09,3.09,0,0,1,1.79.51,2.57,2.57,0,0,1,1,1.48l-.18.1v-1.89H111v7.76H109.6V115l.18.07a2.52,2.52,0,0,1-1,1.46A3,3,0,0,1,107,117Zm.31-1.14a2,2,0,0,0,1.7-.75,4.09,4.09,0,0,0,0-4.28,2,2,0,0,0-1.69-.75,2.06,2.06,0,0,0-1.72.78A3.34,3.34,0,0,0,105,113a3.25,3.25,0,0,0,.62,2.12A2.12,2.12,0,0,0,107.3,115.89Zm-2.15-8.8v-1h4.71v1Z"/><path class="cls-2" d="M116.65,117a4,4,0,0,1-2-.49,3.38,3.38,0,0,1-1.31-1.39,5.09,5.09,0,0,1,0-4.25,3.43,3.43,0,0,1,1.33-1.44,4.06,4.06,0,0,1,2-.5,4.51,4.51,0,0,1,1.55.27,3.31,3.31,0,0,1,1.21.74l-.44,1a4.93,4.93,0,0,0-1.11-.65,2.93,2.93,0,0,0-1.13-.23,2.31,2.31,0,0,0-1.8.76,3.78,3.78,0,0,0,0,4.28,2.34,2.34,0,0,0,1.82.74,3.19,3.19,0,0,0,1.12-.22A4.06,4.06,0,0,0,119,115l.44,1a3.62,3.62,0,0,1-1.25.73A4.63,4.63,0,0,1,116.65,117Z"/><path class="cls-2" d="M120.88,105.81h1.65v1.52h-1.65Zm.12,11.11v-7.76h1.41v7.76Z"/><path class="cls-2" d="M122.72,119a2.69,2.69,0,0,0,.41.1,2,2,0,0,0,.34,0,1.7,1.7,0,0,0,.64-.13,1,1,0,0,0,.47-.46,1.91,1.91,0,0,0,.17-.92v-8.46h1.41v8.61a2.6,2.6,0,0,1-.64,1.91,2.36,2.36,0,0,1-1.75.64,4.89,4.89,0,0,1-.54,0,2.71,2.71,0,0,1-.51-.11Zm1.89-13.19h1.66v1.52h-1.66Z"/><path class="cls-2" d="M131.27,117a2.7,2.7,0,0,1-2.11-.78,3.34,3.34,0,0,1-.7-2.31v-4.78h1.4v4.77a2.21,2.21,0,0,0,.41,1.47,1.59,1.59,0,0,0,1.26.47,2.07,2.07,0,0,0,1.59-.64,2.38,2.38,0,0,0,.6-1.7v-4.37h1.42v7.76h-1.37v-1.67l.18-.07a2.59,2.59,0,0,1-1,1.38A3,3,0,0,1,131.27,117Z"/><path class="cls-2" d="M45.24,138.78v-8.92c0-.36,0-.73,0-1.09s0-.73-.1-1.09h1.33l.13,1.59-.12.2a2.56,2.56,0,0,1,1-1.47,3,3,0,0,1,1.78-.52A3.14,3.14,0,0,1,51,128a3.54,3.54,0,0,1,1.22,1.42,4.91,4.91,0,0,1,.44,2.13,4.85,4.85,0,0,1-.44,2.13,3.43,3.43,0,0,1-1.21,1.39,3.37,3.37,0,0,1-1.81.48,3.08,3.08,0,0,1-1.78-.51,2.63,2.63,0,0,1-1-1.46l.19-.17v5.37ZM49,134.41a2.06,2.06,0,0,0,1.69-.74,3.25,3.25,0,0,0,.61-2.12,3.34,3.34,0,0,0-.61-2.14,2,2,0,0,0-1.69-.77,2.08,2.08,0,0,0-1.72.75,4.1,4.1,0,0,0,0,4.27A2.08,2.08,0,0,0,49,134.41Z"/><path class="cls-2" d="M57.54,135.55a3.35,3.35,0,0,1-1.79-.48,3.31,3.31,0,0,1-1.22-1.39,5,5,0,0,1-.43-2.13,4.91,4.91,0,0,1,.44-2.13A3.54,3.54,0,0,1,55.76,128a3.12,3.12,0,0,1,1.78-.52,3.06,3.06,0,0,1,1.8.52,2.56,2.56,0,0,1,1,1.47l-.19.11v-1.9h1.39v7.76H60.15V133.5l.19.08a2.63,2.63,0,0,1-1,1.46A3.12,3.12,0,0,1,57.54,135.55Zm.31-1.14a2.06,2.06,0,0,0,1.71-.75,3.41,3.41,0,0,0,.59-2.14,3.32,3.32,0,0,0-.6-2.13,2.29,2.29,0,0,0-3.41,0,3.34,3.34,0,0,0-.62,2.14,3.25,3.25,0,0,0,.62,2.12A2.11,2.11,0,0,0,57.85,134.41Zm-2.14-8.8v-1h4.71v1Z"/><path class="cls-2" d="M63.89,135.44v-5.58c0-.36,0-.73,0-1.09s0-.73-.1-1.09h1.32l.17,1.93-.17-.06A2.41,2.41,0,0,1,66,128a2.73,2.73,0,0,1,1.61-.51,2.49,2.49,0,0,1,.4,0,1.6,1.6,0,0,1,.33.07l0,1.28a2.54,2.54,0,0,0-.86-.14,2.12,2.12,0,0,0-1.27.34,2,2,0,0,0-.69.86,2.85,2.85,0,0,0-.22,1.13v4.38Z"/><path class="cls-2" d="M72.33,135.44,69,127.7h1.47l2.73,6.66h-.38l2.76-6.66H77l-3.36,7.74Z"/><path class="cls-2" d="M81.18,135.55a3.36,3.36,0,0,1-1.8-.48,3.29,3.29,0,0,1-1.21-1.39,4.85,4.85,0,0,1-.44-2.13,4.77,4.77,0,0,1,.45-2.13A3.44,3.44,0,0,1,79.39,128a3.13,3.13,0,0,1,1.79-.52A3,3,0,0,1,83,128a2.51,2.51,0,0,1,1,1.47l-.18.11v-1.9h1.39v7.76H83.79V133.5l.18.08A2.58,2.58,0,0,1,83,135,3.09,3.09,0,0,1,81.18,135.55Zm.31-1.14a2,2,0,0,0,1.7-.75,3.35,3.35,0,0,0,.6-2.14,3.26,3.26,0,0,0-.61-2.13,2,2,0,0,0-1.69-.75,2.07,2.07,0,0,0-1.72.77,3.34,3.34,0,0,0-.62,2.14,3.25,3.25,0,0,0,.62,2.12A2.13,2.13,0,0,0,81.49,134.41Z"/><path class="cls-2" d="M87.52,135.44V124.08h1.41v11.36Z"/><path class="cls-2" d="M98.25,135.44H96.86v-2.05l.19.19A2.6,2.6,0,0,1,96,135a3.07,3.07,0,0,1-1.79.51,3.25,3.25,0,0,1-1.78-.5,3.34,3.34,0,0,1-1.22-1.42,4.92,4.92,0,0,1-.44-2.14,4.83,4.83,0,0,1,.43-2.12,3.32,3.32,0,0,1,1.21-1.4,3.28,3.28,0,0,1,1.8-.49A3,3,0,0,1,96,128a2.6,2.6,0,0,1,1,1.46l-.2.18v-5.56h1.4Zm-3.69-1a2.06,2.06,0,0,0,1.7-.75,3.35,3.35,0,0,0,.6-2.14,3.44,3.44,0,0,0-.59-2.13,2.06,2.06,0,0,0-1.71-.75,2.09,2.09,0,0,0-1.71.75,3.15,3.15,0,0,0-.62,2.1,3.31,3.31,0,0,0,.62,2.16A2.07,2.07,0,0,0,94.56,134.41Z"/><path class="cls-2" d="M98.94,125.61v-1h4.71v1Zm1.66,9.83v-7.76H102v7.76Z"/><path class="cls-2" d="M104.35,135.44V124.08h1.4v5.56l-.18-.18a2.58,2.58,0,0,1,1-1.46,3,3,0,0,1,1.77-.52,3.27,3.27,0,0,1,1.81.49,3.39,3.39,0,0,1,1.21,1.4,4.7,4.7,0,0,1,.44,2.12,4.78,4.78,0,0,1-.44,2.14,3.34,3.34,0,0,1-1.22,1.42,3.29,3.29,0,0,1-1.8.5,3,3,0,0,1-1.77-.51,2.58,2.58,0,0,1-1-1.46l.17-.19v2.05Zm3.7-1a2,2,0,0,0,1.7-.76,3.43,3.43,0,0,0,.6-2.16,3.26,3.26,0,0,0-.6-2.1,2.31,2.31,0,0,0-3.41,0,4.1,4.1,0,0,0,0,4.27A2.06,2.06,0,0,0,108.05,134.41Z"/><path class="cls-2" d="M116.65,135.55a3.36,3.36,0,0,1-1.8-.48,3.29,3.29,0,0,1-1.21-1.39,4.85,4.85,0,0,1-.43-2.13,4.77,4.77,0,0,1,.44-2.13,3.46,3.46,0,0,1,1.22-1.42,3.1,3.1,0,0,1,1.78-.52,3,3,0,0,1,1.79.52,2.51,2.51,0,0,1,1,1.47l-.18.11v-1.9h1.39v7.76h-1.39V133.5l.18.08a2.58,2.58,0,0,1-1,1.46A3.07,3.07,0,0,1,116.65,135.55Zm.31-1.14a2,2,0,0,0,1.7-.75,4.1,4.1,0,0,0,0-4.27,2.3,2.3,0,0,0-3.42,0,3.34,3.34,0,0,0-.61,2.14,3.25,3.25,0,0,0,.61,2.12A2.15,2.15,0,0,0,117,134.41Z"/><path class="cls-2" d="M54.39,90.2a1.36,1.36,0,0,1-.72-.19c-5.78-3.59-8.61-6.76-9.46-10.59-.94-4.31.57-9.09,3.31-15.41a1.41,1.41,0,0,1,1.22-.82h0a1.45,1.45,0,0,1,1.26.75,17.59,17.59,0,0,1,1.18,2.92l.16.54.32-.46a19.57,19.57,0,0,0,2.87-5.22c.71-2.35.54-4.62-.61-8.11a1.36,1.36,0,0,1,.16-1.13,1.4,1.4,0,0,1,1-.65l.16,0a1.57,1.57,0,0,1,.86.3A36.94,36.94,0,0,1,64.8,62.59l.43.74.07-.85a9.83,9.83,0,0,0-.14-3.2,1.39,1.39,0,0,1,.71-1.64,1.26,1.26,0,0,1,.55-.12,1.45,1.45,0,0,1,1.19.62C72,65,74.7,70.28,74.47,75.44c-.22,4.84-3.16,9.3-9.56,14.46a1.41,1.41,0,0,1-1.6.08,1.39,1.39,0,0,1-.58-1.47c1.55-5.83,1.91-9.37,1.2-11.84a10.47,10.47,0,0,0-2.77-4.29L60.78,72l-.08.55a14.22,14.22,0,0,1-2.79,6.59,1.38,1.38,0,0,1-1.11.53,1.34,1.34,0,0,1-.4-.06,1.5,1.5,0,0,1-.94-1.36l-.52,0-.16.46a13,13,0,0,0-.44,1.44C54,81.9,54.09,84,55.68,88.41a1.34,1.34,0,0,1-1.29,1.79Zm-6-20.38c-1.45,4.28-1.9,7.06-1.47,9,.5,2.26,1.93,4.22,4.65,6.36l.57.45L52,84.94a14.21,14.21,0,0,1-.31-5.34,23.43,23.43,0,0,1,1.05-3.55,34.8,34.8,0,0,0,1.17-3.73,1.4,1.4,0,0,1,1.18-1h.14a1.41,1.41,0,0,1,1.24.77c.22.44.44,1,.66,1.49l.38.91.23-.69a8.68,8.68,0,0,0,.21-4.83,1.34,1.34,0,0,1,1.32-1.65,1.43,1.43,0,0,1,.9.32c3.19,2.82,5.53,5.07,6.45,8.33.7,2.45.27,5.62-.23,8.41l-.16.85.61-.61c3.28-3.27,4.8-6.12,4.94-9.25.12-2.86-1-6.31-3.51-10.88l-.36-.64-.14.72a13.24,13.24,0,0,1-.85,3,1.37,1.37,0,0,1-2.45,0A42.46,42.46,0,0,0,58.1,57.9l-.52-.59.05.78a12.34,12.34,0,0,1-.5,4.42c-.87,2.86-2.66,5.5-5.67,9.35a1.43,1.43,0,0,1-1.1.5,1.16,1.16,0,0,1-.42-.07c-.52-.15-1-1.27-1.07-2.4ZM100.22,88a1.45,1.45,0,0,1-1.36-1q-5.06-18.8-10.14-37.59c-.73-2.79-.45-6.52,2.55-8.6l.15-.1-1.06-3.91-6.83,1.8.07.26a1.49,1.49,0,0,1-.69,1.73L68,47.88a1.18,1.18,0,0,1-.53.12,1.45,1.45,0,0,1-1.39-1l-2.53-9.37a1.33,1.33,0,0,1,.22-1.11,1.39,1.39,0,0,1,1-.6L81.4,34.87a1.43,1.43,0,0,1,1.36.86l.09.23L97.7,32l5.55-6.27a1.74,1.74,0,0,1,1.09-.49,1.28,1.28,0,0,1,.75.27,1.41,1.41,0,0,1,.18,2l-3,3.33.7-.08a17,17,0,0,1,1.85-.11,5.53,5.53,0,0,1,4,1.42c1.54,1.24,2.61,3.12,3.36,5.92l9.76,36.11a1.31,1.31,0,0,1-.16,1,1.36,1.36,0,0,1-.81.65,1.06,1.06,0,0,1-.31,0,1.45,1.45,0,0,1-1.37-1l-9.76-36.12a8.71,8.71,0,0,0-2.44-4.52,3.59,3.59,0,0,0-2.41-.86,7.12,7.12,0,0,0-1.86.28l-3.46.93.07.26c.24.83.46,1.63.69,2.43l.29,1.07h.54c3.16,0,5.27,3.2,6.2,6.2L117.3,82.08a1.41,1.41,0,0,1-1,1.64l-15.82,4.21A1.45,1.45,0,0,1,100.22,88ZM98.38,50.51a1.43,1.43,0,0,1,1.34,1l5.93,21.91a1.35,1.35,0,0,1-.15,1,1.38,1.38,0,0,1-.81.66l-5.81,1.54L101.14,85l13.17-3.49-9.8-36.25c-.36-1.25-1.45-4.15-4-4.15a3.55,3.55,0,0,0-.64.06,1.43,1.43,0,0,1-.39.06,1.47,1.47,0,0,1-1.37-1c-.44-1.6-.82-2.87-1.21-4.22l-.22-.72-3.63,1,1.35,5a1.37,1.37,0,0,1-.17,1,1.33,1.33,0,0,1-.85.63c-2.17.51-2.57,3.39-2,5.85l.91,3.41,1.85-.5c1.4-.37,2.81-.75,4.2-1.09ZM93,54.69,98.18,74l4.45-1.17L97.44,53.52ZM66.57,38.53l1.71,6.2L80.7,38.64l-.1-.41c0-.13-.07-.26-.11-.4l-.07-.2Z"/></svg>