<svg id="Layer_1" data-name="Layer 1" xmlns="http://www.w3.org/2000/svg" viewBox="0 0 165.89 165.89"><defs><style>.cls-1{fill:#0bf;opacity:0.3;}.cls-2{fill:#fff;}</style></defs><title>ico-5</title><circle class="cls-1" cx="82.94" cy="82.94" r="78.8"/><path class="cls-2" d="M60.62,114.5v-11h1.17l4.38,10h-.61l4.35-10h1.16v11h-1.3v-9l.48.06-3.91,9h-1l-4-9,.52-.06,0,9Z"/><path class="cls-2" d="M80,113.59a3.55,3.55,0,0,1-1.31.75,5.13,5.13,0,0,1-1.64.27,4.34,4.34,0,0,1-2.1-.48,3.29,3.29,0,0,1-1.36-1.38,4.52,4.52,0,0,1-.48-2.15,4.63,4.63,0,0,1,.47-2.12,3.59,3.59,0,0,1,1.31-1.42,3.49,3.49,0,0,1,1.91-.52,3.35,3.35,0,0,1,1.8.46,3,3,0,0,1,1.14,1.32,4.75,4.75,0,0,1,.4,2.05v.24H74.34v-.86h5l-.43.56a3.09,3.09,0,0,0-.51-2,1.88,1.88,0,0,0-1.57-.7,2,2,0,0,0-1.69.77,4.11,4.11,0,0,0,0,4.37,2.39,2.39,0,0,0,1.91.75,3.78,3.78,0,0,0,1.3-.23,4.06,4.06,0,0,0,1.17-.67Z"/><path class="cls-2" d="M89,114.5H87.57v-2l.18.19a2.53,2.53,0,0,1-1,1.45,3,3,0,0,1-1.79.52,3.25,3.25,0,0,1-1.78-.5A3.34,3.34,0,0,1,82,112.69a4.78,4.78,0,0,1-.44-2.14,4.83,4.83,0,0,1,.43-2.12,3.32,3.32,0,0,1,1.21-1.4,3.28,3.28,0,0,1,1.8-.49,3,3,0,0,1,1.79.52,2.59,2.59,0,0,1,1,1.45l-.2.19v-5.56H89Zm-3.69-1a2.07,2.07,0,0,0,1.7-.75,4.1,4.1,0,0,0,0-4.27,2,2,0,0,0-1.7-.75,2.09,2.09,0,0,0-1.71.75,3.15,3.15,0,0,0-.62,2.1,3.31,3.31,0,0,0,.62,2.16A2.07,2.07,0,0,0,85.27,113.47Z"/><path class="cls-2" d="M91.18,103.39h1.65v1.53H91.18Zm.12,11.11v-7.76h1.41v7.76Z"/><path class="cls-2" d="M93,116.59l.41.09a2,2,0,0,0,.34,0,1.53,1.53,0,0,0,.64-.13,1,1,0,0,0,.47-.45,2,2,0,0,0,.17-.93v-8.46h1.41v8.61a2.59,2.59,0,0,1-.64,1.92,2.39,2.39,0,0,1-1.75.63,4.89,4.89,0,0,1-.54,0,2.71,2.71,0,0,1-.51-.11Zm1.9-13.2h1.65v1.53H94.92Z"/><path class="cls-2" d="M101.57,114.61a2.7,2.7,0,0,1-2.11-.78,3.34,3.34,0,0,1-.7-2.31v-4.78h1.4v4.77a2.21,2.21,0,0,0,.41,1.47,1.58,1.58,0,0,0,1.26.47,2.07,2.07,0,0,0,1.59-.64,2.37,2.37,0,0,0,.6-1.7v-4.37h1.42v7.76h-1.37v-1.66l.18-.08a2.52,2.52,0,0,1-1,1.38A2.9,2.9,0,0,1,101.57,114.61Z"/><path class="cls-2" d="M52,133.14a3.36,3.36,0,0,1-1.79-.49A3.25,3.25,0,0,1,49,131.26a5,5,0,0,1-.43-2.12A4.85,4.85,0,0,1,49,127a3.5,3.5,0,0,1,1.22-1.43,3.12,3.12,0,0,1,1.78-.52,3.06,3.06,0,0,1,1.8.52,2.59,2.59,0,0,1,1,1.47l-.19.11v-1.9H56V133H54.57v-1.95l.19.08a2.6,2.6,0,0,1-1,1.46A3.13,3.13,0,0,1,52,133.14Zm.31-1.15a2.06,2.06,0,0,0,1.71-.75A4.13,4.13,0,0,0,54,127a2.29,2.29,0,0,0-3.41,0,3.38,3.38,0,0,0-.62,2.15,3.22,3.22,0,0,0,.62,2.11A2.08,2.08,0,0,0,52.27,132Z"/><path class="cls-2" d="M57.24,126.34v-1.08h5.1v1.08Zm5.07,5.47V133a5.23,5.23,0,0,1-.54.12,5.11,5.11,0,0,1-.58,0,2.43,2.43,0,0,1-1.79-.65,2.59,2.59,0,0,1-.66-1.92v-7.28l1.4-.5v7.63a2,2,0,0,0,.18.93,1,1,0,0,0,.48.47,1.84,1.84,0,0,0,.69.13,2.5,2.5,0,0,0,.4,0A3.31,3.31,0,0,0,62.31,131.81Z"/><path class="cls-2" d="M62.77,126.34v-1.08h5.09v1.08Zm5.06,5.47V133a4.54,4.54,0,0,1-.53.12,5.11,5.11,0,0,1-.58,0,2.47,2.47,0,0,1-1.8-.65,2.62,2.62,0,0,1-.65-1.92v-7.28l1.4-.5v7.63a2,2,0,0,0,.18.93,1,1,0,0,0,.48.47A1.84,1.84,0,0,0,67,132a2.6,2.6,0,0,0,.4,0A2.83,2.83,0,0,0,67.83,131.81Z"/><path class="cls-2" d="M69.22,121.91h1.65v1.53H69.22ZM69.35,133v-7.77h1.4V133Z"/><path class="cls-2" d="M79.52,132.12a3.55,3.55,0,0,1-1.31.75,5.13,5.13,0,0,1-1.64.27,4.34,4.34,0,0,1-2.1-.48,3.29,3.29,0,0,1-1.36-1.38,5,5,0,0,1,0-4.27,3.56,3.56,0,0,1,1.31-1.43,3.49,3.49,0,0,1,1.91-.52,3.35,3.35,0,0,1,1.8.47,2.87,2.87,0,0,1,1.14,1.31,4.81,4.81,0,0,1,.4,2v.25H73.87v-.87h5l-.43.56a3.11,3.11,0,0,0-.51-2,1.87,1.87,0,0,0-1.57-.69,2,2,0,0,0-1.69.76A3.32,3.32,0,0,0,74,129a3.28,3.28,0,0,0,.65,2.23,2.39,2.39,0,0,0,1.91.75,4,4,0,0,0,1.3-.22,4.1,4.1,0,0,0,1.17-.68Z"/><path class="cls-2" d="M84.83,133.14a3.93,3.93,0,0,1-2-.5,3.36,3.36,0,0,1-1.3-1.39,4.5,4.5,0,0,1-.46-2.11,4.57,4.57,0,0,1,.47-2.13,3.37,3.37,0,0,1,1.33-1.44,4,4,0,0,1,2-.51,4.46,4.46,0,0,1,1.54.27,3.24,3.24,0,0,1,1.22.75l-.45,1a4.58,4.58,0,0,0-1.1-.66,3.11,3.11,0,0,0-1.13-.22,2.28,2.28,0,0,0-1.8.76,3.12,3.12,0,0,0-.67,2.16,3.07,3.07,0,0,0,.66,2.11A2.3,2.3,0,0,0,85,132a3.12,3.12,0,0,0,1.11-.21,4.38,4.38,0,0,0,1.11-.67l.45,1a3.49,3.49,0,0,1-1.25.74A4.63,4.63,0,0,1,84.83,133.14Z"/><path class="cls-2" d="M87.53,123.19v-1h4.71v1ZM89.18,133v-7.77h1.41V133Z"/><path class="cls-2" d="M92.93,133V121.67h1.41v5.55l-.19-.18a2.61,2.61,0,0,1,1-1.45,3,3,0,0,1,1.78-.53,3.3,3.3,0,0,1,1.81.5A3.43,3.43,0,0,1,100,127a5.38,5.38,0,0,1,0,4.26,3.35,3.35,0,0,1-1.22,1.42,3.21,3.21,0,0,1-1.8.51,3.09,3.09,0,0,1-1.78-.52,2.6,2.6,0,0,1-1-1.46l.17-.19V133Zm3.71-1a2,2,0,0,0,1.69-.76,3.36,3.36,0,0,0,.61-2.15,3.24,3.24,0,0,0-.61-2.11,2.3,2.3,0,0,0-3.41,0,4.08,4.08,0,0,0,0,4.26A2.07,2.07,0,0,0,96.64,132Z"/><path class="cls-2" d="M105.23,133.14a3.36,3.36,0,0,1-1.79-.49,3.25,3.25,0,0,1-1.22-1.39,5,5,0,0,1-.43-2.12,4.85,4.85,0,0,1,.44-2.13,3.43,3.43,0,0,1,1.22-1.43,3.1,3.1,0,0,1,1.78-.52,3,3,0,0,1,1.79.52,2.56,2.56,0,0,1,1,1.47l-.19.11v-1.9h1.39V133h-1.39v-1.95l.19.08a2.57,2.57,0,0,1-1,1.46A3.07,3.07,0,0,1,105.23,133.14Zm.31-1.15a2.06,2.06,0,0,0,1.71-.75,4.13,4.13,0,0,0,0-4.27,2.29,2.29,0,0,0-3.41,0,3.38,3.38,0,0,0-.62,2.15,3.22,3.22,0,0,0,.62,2.11A2.08,2.08,0,0,0,105.54,132Z"/><path class="cls-2" d="M114.25,133.14a4.73,4.73,0,0,1-3.17-1l.45-1a4.33,4.33,0,0,0,1.29.71,4.62,4.62,0,0,0,1.47.22,2.38,2.38,0,0,0,1.28-.29.92.92,0,0,0,.44-.82.86.86,0,0,0-.3-.69,2.49,2.49,0,0,0-1-.42l-1.3-.31a3,3,0,0,1-1.53-.77,1.86,1.86,0,0,1-.53-1.35,2,2,0,0,1,.37-1.2,2.61,2.61,0,0,1,1.06-.83,4,4,0,0,1,1.61-.3,4.71,4.71,0,0,1,1.55.26,3.45,3.45,0,0,1,1.24.76l-.45,1a4.24,4.24,0,0,0-1.14-.68,3.39,3.39,0,0,0-1.22-.23,2.19,2.19,0,0,0-1.23.31,1,1,0,0,0-.44.84,1,1,0,0,0,.28.71,2.06,2.06,0,0,0,.88.41l1.31.33a3.14,3.14,0,0,1,1.64.76,1.88,1.88,0,0,1,.53,1.37,1.92,1.92,0,0,1-.84,1.63A3.78,3.78,0,0,1,114.25,133.14Z"/><path class="cls-2" d="M114.47,25.54h-63a6.07,6.07,0,0,0-6.06,6.07V72.83a6.07,6.07,0,0,0,6.06,6.06H70.07l-2.46,4.93a6.06,6.06,0,0,0-5.28,6v3.63h41.23V89.81a6.06,6.06,0,0,0-5.28-6l-2.46-4.93h18.65a6.07,6.07,0,0,0,6.06-6.06V31.61A6.07,6.07,0,0,0,114.47,25.54ZM101.13,89.81V91H64.76V89.81a3.64,3.64,0,0,1,3.64-3.64H97.49A3.64,3.64,0,0,1,101.13,89.81Zm-5.6-6.07H70.36l2.42-4.85H93.11Zm22.58-10.91a3.64,3.64,0,0,1-3.64,3.64h-63a3.65,3.65,0,0,1-3.64-3.64V31.61A3.65,3.65,0,0,1,51.42,28h63.05a3.64,3.64,0,0,1,3.64,3.64Z"/><path class="cls-2" d="M113.26,30.39H52.63a2.43,2.43,0,0,0-2.42,2.43V66.77a2.42,2.42,0,0,0,2.42,2.42h60.63a2.42,2.42,0,0,0,2.42-2.42V32.82A2.43,2.43,0,0,0,113.26,30.39ZM91.43,62.59V58.28h7.28v4.31a4.83,4.83,0,0,0-2.43,4.18H93.86A4.83,4.83,0,0,0,91.43,62.59Zm9.7,1.75h2.43V61.92h-2.43V55.86H89v6.06H86.58v2.42H89a2.43,2.43,0,0,1,2.42,2.43H84.16V57.48A2.42,2.42,0,0,1,86,55.13l7.87-2V49.64l-.61-.35a3.61,3.61,0,0,1-1.82-3.13V44a3.8,3.8,0,0,1,3.31-3.87,3.59,3.59,0,0,1,2.79.94,3.64,3.64,0,0,1,1.18,2.68v2.43a3.61,3.61,0,0,1-1.82,3.13l-.61.35v3.53l7.87,2A2.42,2.42,0,0,1,106,57.48v9.29H98.71A2.43,2.43,0,0,1,101.13,64.34Zm7.28,2.43V57.48a4.83,4.83,0,0,0-3.68-4.7l-6-1.51V51a6.07,6.07,0,0,0,2.42-4.82V43.73a6.05,6.05,0,0,0-6.6-6A6.23,6.23,0,0,0,89,44v2.18A6.07,6.07,0,0,0,91.43,51v.29l-6,1.51a4.83,4.83,0,0,0-3.68,4.7v9.29H52.63V32.82h60.63V66.77Z"/><rect class="cls-2" x="110.83" y="71.62" width="2.42" height="2.42"/><rect class="cls-2" x="105.98" y="71.62" width="2.42" height="2.42"/><rect class="cls-2" x="101.13" y="71.62" width="2.42" height="2.42"/><rect class="cls-2" x="52.63" y="71.62" width="9.7" height="2.42"/><rect class="cls-2" x="64.76" y="71.62" width="2.42" height="2.42"/><path class="cls-2" d="M57.48,64.34H69.61V52.22H57.48Zm2.43-9.7h7.27v7.28H59.91Z"/><path class="cls-2" d="M72.39,34.39l-3.28,3.28H57.48V49.79H69.61V40.6l4.49-4.5Zm-5.21,13H59.91V40.09h6.77l-3.13,3.14L62,41.66l-1.72,1.72,3.29,3.28L67.18,43Z"/><rect class="cls-2" x="108.41" y="48.58" width="2.42" height="2.42"/><polygon class="cls-2" points="105.98 37.67 108.41 37.67 108.41 46.16 110.83 46.16 110.83 35.24 105.98 35.24 105.98 37.67"/></svg>