<svg id="Layer_1" data-name="Layer 1" xmlns="http://www.w3.org/2000/svg" viewBox="0 0 165.89 165.89"><defs><style>.cls-1{fill:#0bf;opacity:0.3;}.cls-2{fill:#fff;}</style></defs><title>ico-2</title><circle class="cls-1" cx="82.94" cy="82.94" r="78.8"/><path class="cls-2" d="M42.05,112.09v-11h4.43a4.19,4.19,0,0,1,2.76.79,2.84,2.84,0,0,1,.95,2.29,2.75,2.75,0,0,1-1,2.24,4.09,4.09,0,0,1-2.72.82l1.16-.22a1.66,1.66,0,0,1,1,.34,2.28,2.28,0,0,1,.7,1l1.39,3.68H49.25l-1.36-3.66a1.45,1.45,0,0,0-.69-.88,2.55,2.55,0,0,0-1.16-.22H43.46v4.76Zm1.41-5.91h2.89a2.82,2.82,0,0,0,1.85-.51,2.11,2.11,0,0,0,0-2.94,3,3,0,0,0-1.86-.48H43.46Z"/><path class="cls-2" d="M59.05,111.18a3.55,3.55,0,0,1-1.31.75,5.13,5.13,0,0,1-1.64.27,4.34,4.34,0,0,1-2.1-.48,3.35,3.35,0,0,1-1.36-1.38,4.56,4.56,0,0,1-.47-2.16,4.44,4.44,0,0,1,.47-2.11,3.5,3.5,0,0,1,3.21-1.95,3.35,3.35,0,0,1,1.8.47,3,3,0,0,1,1.15,1.31,5,5,0,0,1,.39,2v.25H53.4v-.87h5l-.44.56a3,3,0,0,0-.51-2,1.87,1.87,0,0,0-1.57-.69,2,2,0,0,0-1.69.76,4.11,4.11,0,0,0,0,4.37,2.39,2.39,0,0,0,1.91.75,4,4,0,0,0,1.3-.22,4.1,4.1,0,0,0,1.17-.68Z"/><path class="cls-2" d="M61,115.42V106.5c0-.36,0-.72,0-1.09s-.05-.73-.1-1.09h1.32l.14,1.59-.12.2a2.54,2.54,0,0,1,1-1.47,3,3,0,0,1,1.78-.52,3.14,3.14,0,0,1,1.8.52,3.5,3.5,0,0,1,1.22,1.43,5.35,5.35,0,0,1,0,4.25,3.2,3.2,0,0,1-3,1.88,3.09,3.09,0,0,1-1.78-.52,2.55,2.55,0,0,1-1-1.46l.19-.17v5.37Zm3.71-4.37a2,2,0,0,0,1.69-.74,3.22,3.22,0,0,0,.61-2.11,3.37,3.37,0,0,0-.61-2.15,2,2,0,0,0-1.69-.77A2.07,2.07,0,0,0,63,106a4.1,4.1,0,0,0,0,4.27A2.07,2.07,0,0,0,64.75,111.05Z"/><path class="cls-2" d="M73.13,112.2a2.7,2.7,0,0,1-2.11-.78,3.34,3.34,0,0,1-.7-2.31v-4.79h1.4v4.77a2.25,2.25,0,0,0,.41,1.48,1.59,1.59,0,0,0,1.26.47A2.1,2.1,0,0,0,75,110.4a2.41,2.41,0,0,0,.6-1.71v-4.37H77v7.77H75.63v-1.67l.18-.08a2.58,2.58,0,0,1-1,1.39A3,3,0,0,1,73.13,112.2Z"/><path class="cls-2" d="M78.27,105.4v-1.08h5.09v1.08Zm5.06,5.47V112a4.54,4.54,0,0,1-.53.12,5.11,5.11,0,0,1-.58,0,2.47,2.47,0,0,1-1.8-.65,2.58,2.58,0,0,1-.65-1.92v-7.28l1.4-.5v7.63a2,2,0,0,0,.18.93,1,1,0,0,0,.48.47,1.83,1.83,0,0,0,.68.13,2.41,2.41,0,0,0,.4,0A2.62,2.62,0,0,0,83.33,110.87Z"/><path class="cls-2" d="M87.82,112.2a3.37,3.37,0,0,1-1.8-.49,3.23,3.23,0,0,1-1.21-1.39,5.41,5.41,0,0,1,0-4.25A3.43,3.43,0,0,1,86,104.64a3.1,3.1,0,0,1,1.78-.52,3,3,0,0,1,1.79.52,2.56,2.56,0,0,1,1,1.47l-.19.11v-1.9h1.39v7.77H90.43v-2l.19.08a2.57,2.57,0,0,1-1,1.46A3.07,3.07,0,0,1,87.82,112.2Zm.31-1.15a2.06,2.06,0,0,0,1.71-.75,4.13,4.13,0,0,0,0-4.27,2.29,2.29,0,0,0-3.41,0,3.38,3.38,0,0,0-.62,2.15,3.22,3.22,0,0,0,.62,2.11A2.08,2.08,0,0,0,88.13,111.05ZM86,102.25v-1h4.7v1Z"/><path class="cls-2" d="M97.49,112.2a3.9,3.9,0,0,1-2-.5,3.36,3.36,0,0,1-1.3-1.39,4.5,4.5,0,0,1-.47-2.11,4.7,4.7,0,0,1,.47-2.13,3.46,3.46,0,0,1,1.34-1.44,4,4,0,0,1,2-.51,4.46,4.46,0,0,1,1.54.27,3.32,3.32,0,0,1,1.22.75l-.45,1a4.78,4.78,0,0,0-1.1-.66,3.17,3.17,0,0,0-1.14-.22,2.24,2.24,0,0,0-1.79.76,3.13,3.13,0,0,0-.68,2.16,3.07,3.07,0,0,0,.67,2.11,2.3,2.3,0,0,0,1.82.74,3.12,3.12,0,0,0,1.11-.21,4.38,4.38,0,0,0,1.11-.67l.45,1a3.58,3.58,0,0,1-1.25.74A4.63,4.63,0,0,1,97.49,112.2Z"/><path class="cls-2" d="M101.72,101h1.65v1.53h-1.65Zm.12,11.12v-7.77h1.4v7.77Z"/><path class="cls-2" d="M103.55,114.17l.41.09.35,0a1.56,1.56,0,0,0,.64-.13.93.93,0,0,0,.47-.45,2.11,2.11,0,0,0,.17-.93v-8.46H107v8.62a2.56,2.56,0,0,1-.64,1.91,2.38,2.38,0,0,1-1.75.63l-.53,0a2.29,2.29,0,0,1-.52-.11Zm1.9-13.2h1.65v1.53h-1.65Z"/><path class="cls-2" d="M112.32,112.2a3.37,3.37,0,0,1-1.8-.49,3.23,3.23,0,0,1-1.21-1.39,4.83,4.83,0,0,1-.43-2.12,4.71,4.71,0,0,1,.44-2.13,3.43,3.43,0,0,1,1.22-1.43,3.1,3.1,0,0,1,1.78-.52,3,3,0,0,1,1.79.52,2.54,2.54,0,0,1,1,1.47l-.18.11v-1.9h1.39v7.77h-1.39v-2l.18.08a2.55,2.55,0,0,1-1,1.46A3.07,3.07,0,0,1,112.32,112.2Zm.31-1.15a2,2,0,0,0,1.7-.75,4.1,4.1,0,0,0,0-4.27,2.29,2.29,0,0,0-3.41,0,3.32,3.32,0,0,0-.62,2.15,3.16,3.16,0,0,0,.62,2.11A2.08,2.08,0,0,0,112.63,111.05Z"/><path class="cls-2" d="M121.33,112.2a4.7,4.7,0,0,1-3.16-1l.45-1a4.33,4.33,0,0,0,1.29.71,4.58,4.58,0,0,0,1.47.22,2.32,2.32,0,0,0,1.27-.29.9.9,0,0,0,.44-.82.86.86,0,0,0-.3-.69,2.43,2.43,0,0,0-1-.42l-1.3-.31a2.92,2.92,0,0,1-1.53-.77,1.86,1.86,0,0,1-.54-1.35,2,2,0,0,1,.38-1.2,2.48,2.48,0,0,1,1.06-.83,3.94,3.94,0,0,1,1.6-.3,4.63,4.63,0,0,1,1.55.26,3.5,3.5,0,0,1,1.25.76l-.45,1a4.24,4.24,0,0,0-1.14-.68,3.39,3.39,0,0,0-1.22-.23,2.15,2.15,0,0,0-1.23.31,1,1,0,0,0-.44.84.93.93,0,0,0,.28.71,2,2,0,0,0,.88.41l1.31.33a3.18,3.18,0,0,1,1.64.76,1.87,1.87,0,0,1,.52,1.37,1.94,1.94,0,0,1-.83,1.63A3.81,3.81,0,0,1,121.33,112.2Z"/><path class="cls-2" d="M61.81,130.61l-3.32-7.75H60l2.73,6.67H62.3l2.76-6.67h1.41l-3.37,7.75Z"/><path class="cls-2" d="M70.65,130.72a3.28,3.28,0,0,1-1.8-.49,3.18,3.18,0,0,1-1.21-1.39,4.83,4.83,0,0,1-.43-2.12,4.77,4.77,0,0,1,.44-2.13,3.49,3.49,0,0,1,1.22-1.43,3.17,3.17,0,0,1,1.78-.51,3.07,3.07,0,0,1,1.79.51,2.57,2.57,0,0,1,1,1.48l-.18.1v-1.89h1.39v7.76H73.26v-1.94l.18.07a2.52,2.52,0,0,1-1,1.46A3,3,0,0,1,70.65,130.72Zm.31-1.14a2,2,0,0,0,1.7-.75,4.12,4.12,0,0,0,0-4.28,2.28,2.28,0,0,0-3.41,0,3.29,3.29,0,0,0-.62,2.14,3.19,3.19,0,0,0,.62,2.12A2.11,2.11,0,0,0,71,129.58Z"/><path class="cls-2" d="M84,130.61H82.58v-2.05l.19.18a2.53,2.53,0,0,1-1,1.46,3,3,0,0,1-1.79.52,3.25,3.25,0,0,1-1.78-.5A3.4,3.4,0,0,1,77,128.8a5.43,5.43,0,0,1,0-4.26,3.27,3.27,0,0,1,1.22-1.4,3.23,3.23,0,0,1,1.79-.49,3,3,0,0,1,1.79.52,2.57,2.57,0,0,1,1,1.45l-.2.19v-5.56H84Zm-3.69-1a2.06,2.06,0,0,0,1.7-.75,3.35,3.35,0,0,0,.6-2.14,3.4,3.4,0,0,0-.59-2.13,2.31,2.31,0,0,0-3.42,0,3.24,3.24,0,0,0-.62,2.11,3.34,3.34,0,0,0,.62,2.15A2.08,2.08,0,0,0,80.28,129.58Z"/><path class="cls-2" d="M84.67,120.78v-1h4.7v1Zm1.65,9.83v-7.76h1.4v7.76Z"/><path class="cls-2" d="M90.07,130.61V119.25h1.4v5.56l-.18-.19a2.56,2.56,0,0,1,1-1.45,3,3,0,0,1,1.78-.52,3.24,3.24,0,0,1,1.8.49,3.32,3.32,0,0,1,1.21,1.4,4.7,4.7,0,0,1,.44,2.12,4.81,4.81,0,0,1-.44,2.14,3.4,3.4,0,0,1-1.22,1.42,3.23,3.23,0,0,1-1.79.5,3,3,0,0,1-1.78-.52,2.52,2.52,0,0,1-1-1.46l.17-.18v2.05Zm3.7-1a2,2,0,0,0,1.7-.77,3.4,3.4,0,0,0,.6-2.15,3.29,3.29,0,0,0-.6-2.11,2.3,2.3,0,0,0-3.41,0,4.1,4.1,0,0,0,0,4.27A2.06,2.06,0,0,0,93.77,129.58Z"/><path class="cls-2" d="M102.37,130.72a3.28,3.28,0,0,1-1.8-.49,3.18,3.18,0,0,1-1.21-1.39,4.83,4.83,0,0,1-.43-2.12,4.77,4.77,0,0,1,.44-2.13,3.49,3.49,0,0,1,1.22-1.43,3.17,3.17,0,0,1,1.78-.51,3.07,3.07,0,0,1,1.79.51,2.57,2.57,0,0,1,1,1.48l-.18.1v-1.89h1.39v7.76H105v-1.94l.18.07a2.52,2.52,0,0,1-1,1.46A3,3,0,0,1,102.37,130.72Zm.31-1.14a2.06,2.06,0,0,0,1.71-.75,3.41,3.41,0,0,0,.59-2.14,3.35,3.35,0,0,0-.6-2.14,2.28,2.28,0,0,0-3.41,0,3.29,3.29,0,0,0-.62,2.14,3.19,3.19,0,0,0,.62,2.12A2.11,2.11,0,0,0,102.68,129.58Z"/><path class="cls-2" d="M107.73,24.94H58.16a5.68,5.68,0,0,0-5.67,5.64V64.52a5.68,5.68,0,0,0,5.67,5.67H78.3L66.36,86.65A1.66,1.66,0,0,0,69,88.6L81.29,71.71V87.62a1.66,1.66,0,1,0,3.31,0V71.71L96.87,88.6a1.66,1.66,0,0,0,2.66-1.95L87.59,70.19h20.14a5.68,5.68,0,0,0,5.67-5.67V30.58A5.68,5.68,0,0,0,107.73,24.94Zm2.35,39.58a2.35,2.35,0,0,1-2.35,2.35H58.16a2.35,2.35,0,0,1-2.35-2.35h0V30.58a2.34,2.34,0,0,1,2.35-2.32h49.57a2.34,2.34,0,0,1,2.35,2.32ZM98.74,40.27a1.66,1.66,0,0,1-3,1.32l-1.14-2.65a20.54,20.54,0,0,1-26.5,10.8,1.66,1.66,0,0,1,1.24-3.07,17.19,17.19,0,0,0,22.16-9L88.8,38.79a1.67,1.67,0,0,1-1.33-3.06h0L93.82,33a1.65,1.65,0,0,1,2.2.81l0,0ZM73.41,56.36v4.21a1.66,1.66,0,1,1-3.31,0V56.36a1.66,1.66,0,1,1,3.31,0Zm7.39,0v4.21a1.66,1.66,0,1,1-3.31,0V56.36a1.66,1.66,0,1,1,3.31,0Zm7.39-2.18v6.39a1.66,1.66,0,0,1-3.32,0V54.18a1.66,1.66,0,0,1,3.32,0Zm7.36-5.78V60.57a1.66,1.66,0,1,1-3.32,0V48.4a1.66,1.66,0,1,1,3.32,0Z"/></svg>