<svg id="Layer_1" data-name="Layer 1" xmlns="http://www.w3.org/2000/svg" viewBox="0 0 165.89 165.89"><defs><style>.cls-1{fill:#0bf;opacity:0.3;}.cls-2{fill:#fff;}</style></defs><title>ico-9</title><circle class="cls-1" cx="82.94" cy="82.94" r="78.8"/><path class="cls-2" d="M61,116.92v-11h1.18l4.38,10H66l4.36-10h1.15v11H70.2v-9l.47.07-3.9,9h-1l-4-9,.53-.07v9Z"/><path class="cls-2" d="M80.42,116a3.52,3.52,0,0,1-1.32.75,5.07,5.07,0,0,1-1.63.27,4.29,4.29,0,0,1-2.1-.48A3.29,3.29,0,0,1,74,115.17a4.52,4.52,0,0,1-.48-2.15A4.6,4.6,0,0,1,74,110.9a3.62,3.62,0,0,1,1.31-1.43,3.57,3.57,0,0,1,1.91-.51,3.35,3.35,0,0,1,1.8.46,3,3,0,0,1,1.14,1.32,4.88,4.88,0,0,1,.39,2V113H74.77v-.86h5l-.43.55a3.08,3.08,0,0,0-.51-2,1.86,1.86,0,0,0-1.57-.7,2,2,0,0,0-1.69.77,3.29,3.29,0,0,0-.61,2.13,3.33,3.33,0,0,0,.64,2.23,2.41,2.41,0,0,0,1.92.75,3.72,3.72,0,0,0,1.29-.22A4,4,0,0,0,80,115Z"/><path class="cls-2" d="M89.38,116.92H88v-2l.19.18a2.56,2.56,0,0,1-1,1.46,3,3,0,0,1-1.79.52,3.28,3.28,0,0,1-1.79-.5,3.47,3.47,0,0,1-1.22-1.42,5,5,0,0,1-.44-2.14,4.83,4.83,0,0,1,.44-2.12,3.18,3.18,0,0,1,3-1.89,3,3,0,0,1,1.79.52,2.61,2.61,0,0,1,1,1.45l-.2.19v-5.56h1.4Zm-3.69-1a2.06,2.06,0,0,0,1.7-.75,4.13,4.13,0,0,0,0-4.27,2.06,2.06,0,0,0-1.71-.76,2.09,2.09,0,0,0-1.71.75,3.24,3.24,0,0,0-.62,2.11,3.34,3.34,0,0,0,.62,2.15A2.08,2.08,0,0,0,85.69,115.89Z"/><path class="cls-2" d="M91.61,105.81h1.65v1.52H91.61Zm.12,11.11v-7.76h1.4v7.76Z"/><path class="cls-2" d="M93.44,119a3,3,0,0,0,.41.1l.35,0a1.7,1.7,0,0,0,.64-.13,1,1,0,0,0,.47-.46,2,2,0,0,0,.17-.92v-8.46h1.41v8.61a2.6,2.6,0,0,1-.64,1.91,2.38,2.38,0,0,1-1.76.64l-.53,0a3,3,0,0,1-.52-.11Zm1.9-13.19H97v1.52H95.34Z"/><path class="cls-2" d="M102,117a2.7,2.7,0,0,1-2.11-.78,3.34,3.34,0,0,1-.7-2.31v-4.78h1.4v4.77a2.21,2.21,0,0,0,.41,1.47,1.59,1.59,0,0,0,1.26.47,2.07,2.07,0,0,0,1.59-.64,2.38,2.38,0,0,0,.6-1.7v-4.37h1.42v7.76H104.5v-1.67l.18-.07a2.65,2.65,0,0,1-1,1.38A3,3,0,0,1,102,117Z"/><path class="cls-2" d="M60.9,128.76v-1.08H66v1.08ZM66,134.22v1.18a4.29,4.29,0,0,1-1.11.15,2.4,2.4,0,0,1-1.8-.65A2.56,2.56,0,0,1,62.4,133V125.7l1.41-.49v7.63a2.11,2.11,0,0,0,.17.93,1,1,0,0,0,.48.46,1.67,1.67,0,0,0,.69.13,2.5,2.5,0,0,0,.4,0A2.19,2.19,0,0,0,66,134.22Z"/><path class="cls-2" d="M67.48,135.44v-5.58c0-.36,0-.73,0-1.09s0-.73-.1-1.09h1.32l.17,1.93-.17-.06A2.41,2.41,0,0,1,69.6,128a2.74,2.74,0,0,1,1.62-.51,2.42,2.42,0,0,1,.39,0,1.6,1.6,0,0,1,.33.07v1.28a2.65,2.65,0,0,0-.87-.14,2.09,2.09,0,0,0-1.26.34,1.94,1.94,0,0,0-.7.86,3,3,0,0,0-.22,1.13v4.38Z"/><path class="cls-2" d="M79.44,134.53a3.47,3.47,0,0,1-1.31.75,5.13,5.13,0,0,1-1.64.27,4.34,4.34,0,0,1-2.1-.48A3.33,3.33,0,0,1,73,133.69a5,5,0,0,1,0-4.27,3.51,3.51,0,0,1,3.22-1.94,3.35,3.35,0,0,1,1.8.46,3.08,3.08,0,0,1,1.14,1.32,4.9,4.9,0,0,1,.39,2.05v.24H73.79v-.86h5l-.43.56a3.09,3.09,0,0,0-.51-2,1.9,1.9,0,0,0-1.58-.7,2,2,0,0,0-1.69.77,4.11,4.11,0,0,0,0,4.37,2.39,2.39,0,0,0,1.91.75,3.74,3.74,0,0,0,1.3-.23,4.25,4.25,0,0,0,1.18-.67Z"/><path class="cls-2" d="M81.43,135.44v-5.58c0-.36,0-.73,0-1.09a9.81,9.81,0,0,0-.1-1.09h1.33l.14,1.59-.16.09A2.73,2.73,0,0,1,83.71,128a3,3,0,0,1,1.72-.49c1.86,0,2.8,1,2.8,3.1v4.86H86.82v-4.78a2.4,2.4,0,0,0-.41-1.54,1.62,1.62,0,0,0-1.3-.48,2.17,2.17,0,0,0-1.65.64,2.34,2.34,0,0,0-.62,1.72v4.44Z"/><path class="cls-2" d="M90.4,124.33h1.65v1.53H90.4Zm.13,11.11v-7.76h1.4v7.76Z"/><path class="cls-2" d="M94.28,135.44v-5.58c0-.36,0-.73,0-1.09a9.81,9.81,0,0,0-.1-1.09h1.33l.14,1.59-.16.09A2.73,2.73,0,0,1,96.55,128a3.06,3.06,0,0,1,1.72-.49c1.87,0,2.8,1,2.8,3.1v4.86H99.66v-4.78a2.34,2.34,0,0,0-.41-1.54,1.61,1.61,0,0,0-1.3-.48,2.17,2.17,0,0,0-1.65.64,2.39,2.39,0,0,0-.62,1.72v4.44Zm4.21,1.12v.91a3.48,3.48,0,0,1-.17,1.1,2.28,2.28,0,0,1-.66,1l-.6-.45a2,2,0,0,0,.46-.69,2.28,2.28,0,0,0,.11-.7l.37.23H96.84v-1.35Z"/><path class="cls-2" d="M103.25,124.33h1.65v1.53h-1.65Zm.12,11.11v-7.76h1.4v7.76Z"/><path class="cls-2" d="M98.22,60.92a18,18,0,1,0-17.8-20.73,19.59,19.59,0,0,0-9-2.58A20.14,20.14,0,0,0,50.5,57.74V69.11l3.25,1.08,1.09,11.93h8.39v8.49h2.12V82.12h1.06A9.55,9.55,0,0,0,76,72.58V71.52H73.83v1.06A7.43,7.43,0,0,1,66.41,80H56.77l-1-11.39-3.12-1V57.74a18.09,18.09,0,0,1,.44-3.91L57.6,52a8.9,8.9,0,0,1,10.83,3.54l2.69,4.31H73.3l2.44-3.25a2.47,2.47,0,0,1,4.45,1.48v3.32a2.46,2.46,0,0,1-.86,1.88l-5.65,4.84a.91.91,0,0,1-1.41-.4l-.62-1.85-2,.67.62,1.86a3,3,0,0,0,2.85,2,3,3,0,0,0,2-.72l5.65-4.84a4.57,4.57,0,0,0,1.6-3.49V58.09A4.6,4.6,0,0,0,74,55.33L72.27,57.7l-2-3.27A11,11,0,0,0,56.81,50l-3,1.19a18,18,0,0,1,17.46-11.5,17.49,17.49,0,0,1,8.9,2.82c0,.11,0,.23,0,.34a18,18,0,0,0,8.48,15.27V62a18,18,0,0,1-8,15l-.47.31V90.61h2.12V78.4A20.12,20.12,0,0,0,90.79,62V59.3A17.93,17.93,0,0,0,98.22,60.92ZM82.37,44h6.35a24.46,24.46,0,0,0,1,6.37H84.16A15.74,15.74,0,0,1,82.37,44ZM98.21,27.16a15.66,15.66,0,0,1,5.33,6.19H92.86A15.43,15.43,0,0,1,98.21,27.16Zm6.24,8.31a22,22,0,0,1,1.14,6.36H90.84A22.08,22.08,0,0,1,92,35.47Zm9.62,6.36h-6.36a24,24,0,0,0-1-6.36h5.59A15.91,15.91,0,0,1,114.07,41.83Zm0,2.12a15.91,15.91,0,0,1-1.8,6.37h-5.59a24.46,24.46,0,0,0,1-6.37ZM88.72,41.83H82.37a15.74,15.74,0,0,1,1.79-6.36h5.59A24.38,24.38,0,0,0,88.72,41.83ZM90.84,44h14.75a22.09,22.09,0,0,1-1.12,6.37H92A22.05,22.05,0,0,1,90.84,44Zm12.73,8.49a15.43,15.43,0,0,1-5.35,6.19,15.66,15.66,0,0,1-5.33-6.19Zm-1.65,5.91a18.88,18.88,0,0,0,4-5.91h5A16,16,0,0,1,101.92,58.35Zm9-25h-5a18.88,18.88,0,0,0-4-5.91A16,16,0,0,1,110.91,33.35Zm-16.4-5.91a18.88,18.88,0,0,0-4,5.91h-5A16,16,0,0,1,94.51,27.44Zm-9,25h5a18.88,18.88,0,0,0,4,5.91A16,16,0,0,1,85.52,52.44Z"/><path class="cls-2" d="M113.06,74.7a3.18,3.18,0,0,0-3,2.12H98.22A3.18,3.18,0,0,1,95,73.64V63H92.91v10.6a5.3,5.3,0,0,0,5.31,5.3h11.85a3.18,3.18,0,1,0,3-4.24Zm0,4.24a1.06,1.06,0,0,1,0-2.12,1.06,1.06,0,0,1,0,2.12Z"/><path class="cls-2" d="M97.15,63v2.12a5.31,5.31,0,0,0,5.31,5.3H108a3.18,3.18,0,1,0,0-2.12h-5.49a3.18,3.18,0,0,1-3.18-3.18V63Zm13.79,5.3a1.06,1.06,0,0,1,0,2.12,1.06,1.06,0,0,1,0-2.12Z"/><rect class="cls-2" x="77.01" y="26.99" width="2.12" height="2.12"/><rect class="cls-2" x="81.25" y="26.99" width="2.12" height="2.12"/><path class="cls-2" d="M60.05,31.23a3.17,3.17,0,0,0,3-2.12H74.89V27H63a3.18,3.18,0,1,0-3,4.24Zm0-4.24a1.06,1.06,0,0,1,0,2.12,1.06,1.06,0,1,1,0-2.12Z"/><rect class="cls-2" x="70.65" y="33.35" width="2.12" height="2.12"/><rect class="cls-2" x="74.89" y="33.35" width="2.12" height="2.12"/><path class="cls-2" d="M53.68,37.59a3.18,3.18,0,0,0,3-2.12H68.53V33.35H56.67a3.18,3.18,0,1,0-3,4.24Zm0-4.24a1.06,1.06,0,1,1-1.06,1.06A1.06,1.06,0,0,1,53.68,33.35Z"/><path class="cls-2" d="M79.17,72.81l1.31,1.67a15.93,15.93,0,0,0,6-11.36L84.4,63A13.83,13.83,0,0,1,79.17,72.81Z"/><path class="cls-2" d="M63.83,43.36l.91,1.91A13.71,13.71,0,0,1,71.16,44a13.08,13.08,0,0,1,4.39.94l.79-2a15,15,0,0,0-5.11-1.08A15.45,15.45,0,0,0,63.83,43.36Z"/><path class="cls-2" d="M59.51,46.39l1.57,1.43a14.94,14.94,0,0,1,1.69-1.4l-1.21-1.74a15.71,15.71,0,0,0-1.94,1.6Z"/><rect class="cls-2" x="84.43" y="58.8" width="2.12" height="2.12"/><rect class="cls-2" x="92.91" y="46.08" width="2.12" height="2.12"/><rect class="cls-2" x="97.15" y="46.08" width="2.12" height="2.12"/><rect class="cls-2" x="101.4" y="46.08" width="2.12" height="2.12"/><rect class="cls-2" x="92.91" y="37.59" width="2.12" height="2.12"/><rect class="cls-2" x="97.15" y="37.59" width="2.12" height="2.12"/><rect class="cls-2" x="101.4" y="37.59" width="2.12" height="2.12"/></svg>