<svg id="Layer_1" data-name="Layer 1" xmlns="http://www.w3.org/2000/svg" viewBox="0 0 98.86 123.36"><defs><style>.cls-1{opacity:0.1;}.cls-2{fill:#25c4ff;}</style></defs><title>transp</title><g class="cls-1"><path class="cls-2" d="M88.84,56.32c10.78,30.37-12.49,58.81-41.73,57.23a42.06,42.06,0,0,1-28.4-70.77.75.75,0,0,1,1.3.5V54.85a2.11,2.11,0,0,1-.25,1A34.18,34.18,0,0,0,18.13,84a31.67,31.67,0,0,0,18.65,18.77c25,9.28,48.54-10.51,46-34.78a33.55,33.55,0,0,0-46.4-27.39.43.43,0,0,1-.61-.4V32.44a1,1,0,0,1,.7-1,43.07,43.07,0,0,1,29.36,1.16C75.09,36.25,85.53,47,88.84,56.32Z"/><path class="cls-2" d="M75,68.09A25.81,25.81,0,0,1,47.27,97.22C33.81,96.11,23.64,84.45,23.64,70.94V11.07A1.34,1.34,0,0,1,25,9.74h5.88a1.33,1.33,0,0,1,1.32,1.33V52.38A25.77,25.77,0,0,1,75,68.09Zm-8.44,5.68A17.26,17.26,0,1,0,51.68,88.63,17.29,17.29,0,0,0,66.55,73.77Z"/></g></svg>