<svg id="Layer_1" data-name="Layer 1" xmlns="http://www.w3.org/2000/svg" viewBox="0 0 170.08 113.39"><defs><style>.cls-1{fill:#fff;}</style></defs><title>5g</title><rect x="1.89" y="42.69" width="142.43" height="20.99"/><path d="M99.27,95.7l1.49-.36a.77.77,0,0,0,.64.34.7.7,0,0,0,.45-.15L105,98ZM106,97.77a.74.74,0,0,0-.5.19l-3.43-2.68a.75.75,0,0,0,.1-.36.77.77,0,0,0-1.54,0s0,.07,0,.1l-2,.48h0l0,0s0,0,0,0l0,0h0v0s0,0,0,0a0,0,0,0,0,0,0s0,0,0,0h0a.22.22,0,0,0,.05.08h0l0,0,6.57,2.63s0,.06,0,.08a.77.77,0,1,0,.77-.76m19.08-1.32a.72.72,0,0,0-.39.19L116.44,91a.68.68,0,0,0,.07-.32.34.34,0,0,0,0-.1l8.84-3.44a.75.75,0,0,0,.44.38Zm-5.59-1v0a.76.76,0,0,0-.77-.76.62.62,0,0,0-.27,0l-2.17-3.49,8,5.53Zm-6.92,1.89,5.48-1.57a.76.76,0,0,0,1.34,0L124,97.06Zm7.22,1.17a.76.76,0,0,0-1.37.08l-5.48-.93,10.94-.31ZM112,97.22l-.14-.18,3.67-5.69a.75.75,0,0,0,.26.05.78.78,0,0,0,.22,0l2.21,3.56a.73.73,0,0,0-.22.53s0,0,0,0Zm-.67-.38h-.13l-4.77-12.64.08,0L115,90.37a.6.6,0,0,0-.06.27.77.77,0,0,0,.22.53l-3.67,5.71a.67.67,0,0,0-.24,0m-.5.18L88,79.54l17.23,4a.75.75,0,0,0,.76.72h.06L110.84,97l-.06,0M87.39,78.38l-1-10.79,17.75,6.84v0a.28.28,0,0,0,0,.09L88,78.83a.79.79,0,0,0-.64-.45m5.27,14-4.13-1.79-1-10.28Zm10.79-28.47a.75.75,0,0,0,.37.33l.83,9.55a.75.75,0,0,0-.41.35L86.79,67.38Zm1.08.26,17,9.59-15.81.61a.79.79,0,0,0-.69-.63l-.82-9.45a.85.85,0,0,0,.36-.12m15.21,16h-.07a.74.74,0,0,0-.65.36l-13.37-5.8h0L121.84,74Zm-13,3.49L119,81.23a.78.78,0,0,0,.24.27l-3.38,8.39h-.11a.78.78,0,0,0-.53.21l-8.53-6.19a.66.66,0,0,0,.09-.29m-1.06-.76a.79.79,0,0,0-.42.42l-17.2-4s0,0,0-.06l16.17-4.29a.8.8,0,0,0,.53.34Zm-.57-7.67a.75.75,0,0,0,.34-.21l13.43,5.82a.28.28,0,0,0,0,.09v0l-12.18,2.37a.75.75,0,0,0-.67-.48Zm20.25,11.16a.75.75,0,0,0-.13.42v0l-8.87,3.44a.87.87,0,0,0-.22-.21l3.38-8.38h.12a.77.77,0,0,0,.39-.11ZM126,86a.77.77,0,0,0-.39.11l-5.33-4.81a.75.75,0,0,0-.24-1.07l2.17-6.31v0a0,0,0,0,0,0,0h0v0a0,0,0,0,1,0,0h0a0,0,0,0,0,0,0s0,0,0,0l0,0h0l-17.4-9.84a1.54,1.54,0,0,0,.08-.19h-2.13l-16,3.37,3.09-3.37h-.45l-3,3.3-.9-3.3H85l1,3.51-3.08.61a.79.79,0,0,0-.49-.49L83,63.69h-.34l-.52,3.6a.75.75,0,0,0-.68.75.74.74,0,0,0,.34.63L80,73.33l-4.78-6.11a.78.78,0,0,0,.18-.49.77.77,0,0,0-1.54,0,.75.75,0,0,0,0,.26l-9.84,6.14a.79.79,0,0,0-.56-.23.76.76,0,1,0,.77.76.86.86,0,0,0,0-.24l9.85-6.15a.76.76,0,0,0,.54.22.72.72,0,0,0,.33-.07l5,6.35h0s0,0,0,0l0,0h.07a.17.17,0,0,0,.1,0h0a.18.18,0,0,0,0-.07h0l1.87-4.93h.11a.76.76,0,0,0,.75-.66l3.12-.61,1,10.9a.76.76,0,0,0-.49.71.77.77,0,0,0,.63.75l1,10.79h0a.16.16,0,0,0,.05.09h0l0,0,4.6,2h.15s0,0,0,0l0-.05h0a.06.06,0,0,0,0,0v0a0,0,0,0,0,0,0,.09.09,0,0,0,0-.05h0L87.72,79.79l0,0,22.82,17.52a.64.64,0,0,0-.07.31.76.76,0,0,0,.77.76.78.78,0,0,0,.71-.47L118.36,99a.77.77,0,0,0,1.54,0s0,0,0-.05l4.65-1.33a.77.77,0,1,0,.88-1.09l.7-8.95a.76.76,0,0,0,.68-.75A.77.77,0,0,0,126,86m32.49-27.61-2.05-1.75a.79.79,0,0,0,.1-.37.77.77,0,0,0-.25-.56L157.51,53l.07,0,1.07,5.28-.13.1M156,55.54a.79.79,0,0,0-.74.17l-.27-.19a.88.88,0,0,0,.07-.32.73.73,0,0,0-.06-.3L157.15,53Zm-3.91,9L154.36,56a.83.83,0,0,0,.44-.18l.29.21a.64.64,0,0,0-.06.28.78.78,0,0,0,.39.66Zm.13-19.27,2.89,3.56a.76.76,0,0,0-.1.37.77.77,0,0,0,.39.66l-1,4.61h-.15Zm.29-5.19,3.12,6.59-.06.08-3-1.92a.64.64,0,0,0,.07-.31.75.75,0,0,0-.46-.7Zm-.69,3.68a.78.78,0,0,0-.61.34l-7.62-3.72s0-.06,0-.09l8.11-.78a.79.79,0,0,0,.47.39Zm-8.49-4.14,3.41-5.48a1,1,0,0,0,.24,0,.86.86,0,0,0,.24,0l4.47,4.73a.73.73,0,0,0-.06.3v0l-8.06.77a.81.81,0,0,0-.24-.34m9.84,32.9a.76.76,0,0,0-.33.62.78.78,0,0,0,0,.16L144,77.74v0l7.27-10.57a.75.75,0,0,0,.26,0h.1Zm-2.32,10h-.08a.75.75,0,0,0-.48.18l-6.24-4.25a.7.7,0,0,0,.05-.25.88.88,0,0,0,0-.16L153,73.58a.76.76,0,0,0,.21.19ZM149,89.88a.76.76,0,0,0-.73.74l-6.7.56,0,0,8.8-7.24a.76.76,0,0,0,.18.09Zm-7.71,1a.75.75,0,0,0-.36-.1L139.88,88a.76.76,0,0,0,.45-.69.77.77,0,0,0,0-.15l9.7-3.42Zm-1.15.65-10.55,4.57,9.53-8.22a.87.87,0,0,0,.42.14l1.06,2.83a.76.76,0,0,0-.46.68M143.26,79h.09a.78.78,0,0,0,.55-.22L150.1,83a.73.73,0,0,0-.08.33s0,.06,0,.08l-9.86,3.47a.68.68,0,0,0-.24-.2Zm-.61-1.07-4.89-1a.7.7,0,0,0-.14-.41l6.79-8-1.09,9a.76.76,0,0,0-.67.44m2.14-9.81h0l6.05-1.19.09.09-7.26,10.54h0Zm-7.8,8a.75.75,0,0,0-.36.1l-2.36-2.42,6-9.72-3.18,12H137M142.11,40l-6.93-.09s0-.06,0-.09a.75.75,0,0,0-.12-.4l3.21-5.17a.7.7,0,0,0,.25,0l.21,0,3.57,5.38a.82.82,0,0,0-.2.35m-7.46-.9a.62.62,0,0,0-.23,0,.76.76,0,0,0-.72.49l-2.2-.72a.78.78,0,0,0,0-.22.81.81,0,0,0-.05-.27l4.8-3.66Zm2.11-4.74.06,0,1.06-.37a.76.76,0,0,0,.11.14l-2.79,4.49Zm-6.62-4.62a.8.8,0,0,0,.11-.4.59.59,0,0,0,0-.23L136,25.93a.8.8,0,0,0,.51.29v7.71Zm6.72-2.61,1.34,5.72a.77.77,0,0,0-.44.69.28.28,0,0,0,0,.09l-.91.31Zm-15.22-.41a.94.94,0,0,0,0-.16l2.65-2.16a.77.77,0,0,0,1.17-.29l6.28,1.26Zm-8-.64a.77.77,0,0,0-.58-.26.79.79,0,0,0-.63.32l-2.82-2,0-.1,6.49.41Zm2.62,4.13a.32.32,0,0,0,0,.09L105,28.09l7.4-1.1a.78.78,0,0,0,.65.35,1,1,0,0,0,.24,0Zm-11.45-2.6,3.64-3.19a.77.77,0,0,0,.45.14.76.76,0,0,0,.51-.19l2.89,2.09a.49.49,0,0,0,0,.12.28.28,0,0,0,0,.09l-7.43,1.11a.85.85,0,0,0-.06-.17M93.94,35.67l6-8.63a.72.72,0,0,0,.29.06.77.77,0,0,0,.61-.3L103.34,28h0a.68.68,0,0,0,.09.35ZM169,76.25,164.67,68a.77.77,0,0,0,.29-.59.78.78,0,0,0-.32-.62l.86-3.17h0v-.06s0,0,0,0,0,0,0,0l0,0,0,0h0l-5.72-4.08a.7.7,0,0,0,.11-.38.77.77,0,0,0-.77-.76H159L157.92,53a.76.76,0,1,0-1-.72.7.7,0,0,0,.11.38l-2.21,2a.5.5,0,0,0-.12-.08l1-4.61h.06a.76.76,0,1,0,0-1.52.74.74,0,0,0-.44.14l-2.65-3.27L155.45,47a.74.74,0,0,0,.75.91.77.77,0,0,0,.77-.77.76.76,0,0,0-.77-.76.86.86,0,0,0-.27.05l-3.15-6.65a.74.74,0,0,0,.41-.66.77.77,0,0,0-1.28-.57l-4.37-4.64a.75.75,0,0,0,.23-.54.77.77,0,1,0-1.3.55l-3.42,5.5a.58.58,0,0,0-.19,0,.86.86,0,0,0-.27,0L139,34.11a.74.74,0,0,0,.27-.57.78.78,0,0,0-.77-.77h0L137,26.15a.76.76,0,1,0-1.12-.68.77.77,0,0,0,0,.15l-5.83,3.2h0l2.8-3.3h0s0,0,0,0a0,0,0,0,0,0,0h0v0h0l.6-5.93a.79.79,0,0,0,.62-.46l10.22,1.74h0a.19.19,0,0,0,.1,0l3.07-2.09a.78.78,0,0,0,.43.13.76.76,0,1,0-.77-.76.7.7,0,0,0,.11.38l-3,2L134.15,18.7a.77.77,0,0,0-1.53,0,.77.77,0,0,0,.52.72l-.58,5.74-7.07-1.41a.77.77,0,0,0-1.54,0,.7.7,0,0,0,.09.35l-2.63,2.14a.76.76,0,0,0-.52-.21.78.78,0,0,0-.64.34l-3.42-2.35h0l0,0h-.15l-.08.05-6.92-.44a.77.77,0,0,0-1.53.12.76.76,0,0,0,.1.37l-3.64,3.19a.76.76,0,0,0-.46-.16.78.78,0,0,0-.69.42L101,26.5a.88.88,0,0,0,0-.16.77.77,0,0,0-1.54,0,.72.72,0,0,0,.21.51L93,36.37h0l0,0a0,0,0,0,1,0,0v0s0,0,0,0,0,0,0,0,0,0,0,0h0l0,0h0l.09,0h0l.09,0h0l10.36-8a.82.82,0,0,0,.47.15.77.77,0,0,0,.64-.34l11.47,2.26a.76.76,0,1,0,.2-.72l-2.85-2.8a.73.73,0,0,0,.24-.54.64.64,0,0,0,0-.2l2.88-1.92h.14l3.33,2.3a.31.31,0,0,0,0,.1.77.77,0,0,0,1.5.21l10.68-1.43-2.54,3a.66.66,0,0,0-.28-.05.76.76,0,1,0,.41,1.4l6.45,4.23-5.05,3.85a.77.77,0,0,0-.53-.21.74.74,0,0,0-.52.21l-5-4.87a.82.82,0,0,0,.16-.46.77.77,0,1,0-1.33.53l-3.91,4.18a.73.73,0,0,0-.41-.12.76.76,0,1,0,0,1.52.71.71,0,0,0,.39-.11l3.08,3.62h.44l-3.27-3.84a.78.78,0,0,0,.13-.43.73.73,0,0,0-.12-.41l4-4.23a.75.75,0,0,0,.26.05v8.86H125V33.42l0,0,5,5a.58.58,0,0,0-.06.26.78.78,0,0,0,.12.4l-3.83,3.34h.51l3.55-3.1a.76.76,0,0,0,1-.12l2.33.76a.39.39,0,0,0,0,.18l-5.56,2.28H129l4.86-2a.8.8,0,0,0,.54.22h.1l.82,1.78h.37l-.88-1.89a.8.8,0,0,0,.23-.22l7.05.1a.78.78,0,0,0,.18.35l-1,1.66h.39l.89-1.47a.72.72,0,0,0,.29.06.78.78,0,0,0,.6-.28l7.66,3.73a.43.43,0,0,0,0,.11s0,.06,0,.1l-6.76,1.64v.35l6.88-1.68a.73.73,0,0,0,.19.2l-7.07,11.58v.65l7.38-12.09h.17l2,9.29a.78.78,0,0,0-.37.65.86.86,0,0,0,0,.24l-9.23,5.28v.38l9.41-5.37a.64.64,0,0,0,.27.18l-2.57,9.76a.77.77,0,0,0-.72.54l-7.8-2.52h-1.08l8.85,2.86h0l-6.06,1.2,0-.07-3.26-4h-.43l3.42,4.21.05,0,0,0-7,8.23,3.29-12.48.14,0h-.74L134,73.57l-5.84-3.5,11.5-6.38H139l-11.1,6.16L123,63.69h-.42l5,6.36L122.29,72l-.92-8.28H121l.91,8.17-10.26-6.69,3.55-1.48h-.87l-2.84,1.18.12-1.18h-.34l-.15,1.43h0v0s0,0,0,0v0h0a0,0,0,0,1,0,0l0,0h0l10.83,7.07a.13.13,0,0,0,.09,0h.06l5.55-2a.2.2,0,0,0,.09-.09l6.1,3.66,2.42,2.49a.76.76,0,0,0,.62,1.21.77.77,0,0,0,.7-.46l4.89,1a.8.8,0,0,0,.36.63l-3.33,7.69h-.05a.77.77,0,0,0-.77.76.73.73,0,0,0,.11.38l-9.81,8.44a.82.82,0,0,0-.35-.09.76.76,0,1,0,0,1.52.75.75,0,0,0,.74-.58l7.68.72h0a.16.16,0,0,0,.09,0l5.1-3.59a.75.75,0,0,0,.57.26.76.76,0,0,0,.76-.62l14.45.47h0a.17.17,0,0,0,.17-.16.18.18,0,0,0-.17-.18l-14.48-.46a.75.75,0,0,0-.74-.57.77.77,0,0,0-.77.76,1.52,1.52,0,0,0,0,.21l-5.07,3.57-7.64-.72,0-.08,10.76-4.66a.77.77,0,0,0,1.46-.32V91.5l6.65-.55a.77.77,0,1,0,1-1l1.53-5.9a.76.76,0,0,0,.7-.75.73.73,0,0,0-.23-.54l5.34-9.44a.78.78,0,0,0,.21,0,.76.76,0,1,0-.77-.76.74.74,0,0,0,.26.56l-5,8.87,2.21-8.15h.06a.76.76,0,1,0,0-1.52h-.13l-1.61-5.3a.75.75,0,0,0,.35-.64.73.73,0,0,0-.33-.61l3.83-8.8h.06a.77.77,0,0,0,.45-.14l2.08,1.78a.86.86,0,0,0-.05.27.76.76,0,0,0,.77.76.78.78,0,0,0,.43-.13l5.66,4-.82,3h-.13a.76.76,0,1,0,0,1.52l.17,0,4.34,8.3a.16.16,0,0,0,.15.09l.08,0a.16.16,0,0,0,.07-.23M115.19,12.17a.77.77,0,0,1,1.54,0,.64.64,0,0,1,0,.24l5.81,3.11a.18.18,0,0,1,.07.23.16.16,0,0,1-.15.09l-.08,0-5.83-3.12a.77.77,0,0,1-1.32-.53m7,10.36a.76.76,0,1,1,0,1.52.77.77,0,0,1-.72-.5h-2.93a.17.17,0,0,1-.16-.17.16.16,0,0,1,.16-.16h2.89a.76.76,0,0,1,.76-.69m24.44,3.28a.68.68,0,0,0,.29.06.76.76,0,1,0-.77-.76.79.79,0,0,0,.2.51l-2,2.48h0a0,0,0,0,0,0,0,0,0,0,0,0,0,0v.07s0,0,0,0v0l0,0,0,0h0l1.72,1.2a.37.37,0,0,0,0,.11.77.77,0,1,0,.14-.43l-1.51-1ZM76.52,42.35h.41l4.64-6.62A.76.76,0,1,0,81,35a.75.75,0,0,0,.26.57Zm21.56-6.49a.76.76,0,0,1-.16-.46.77.77,0,1,1,1.07.71l1.85,6.24h-.35l-1.84-6.19a.65.65,0,0,1-.31-.08l-7.81,6.27H90ZM83.61,70.15h.09l1.5,6.59-2.76-1.91a.73.73,0,0,0,.11-.38.79.79,0,0,0-.29-.6Zm2,6.95h0l-1.6-7a.75.75,0,0,0,.44-.68.77.77,0,0,0-1.54,0,.77.77,0,0,0,.36.64L82,73.72l-.17,0a.76.76,0,1,0,.44,1.38l3.15,2.19a.16.16,0,0,0,.09,0h0s0,0,0,0h0l0,0h0l0,0s0,0,0,0V77.1"/><path class="cls-1" d="M8.25,53.49,9,47h7.54v2.27H11.47l-.3,2.55a3.58,3.58,0,0,1,.84-.33,4,4,0,0,1,1-.14,3.84,3.84,0,0,1,3,1.12,5.08,5.08,0,0,1,.48,5.37,3.83,3.83,0,0,1-1.56,1.53,5,5,0,0,1-2.36.53,5.34,5.34,0,0,1-2.28-.49A4.1,4.1,0,0,1,8.59,58,3.23,3.23,0,0,1,8,56.09h3a1.68,1.68,0,0,0,.45,1.11,1.46,1.46,0,0,0,1.07.41c1,0,1.51-.74,1.51-2.2s-.62-2-1.85-2a1.87,1.87,0,0,0-1.56.66Z"/><path class="cls-1" d="M28.88,58.13a5,5,0,0,1-2.1,1.27,9.25,9.25,0,0,1-3,.48,5.44,5.44,0,0,1-4.05-1.53,6.2,6.2,0,0,1-1.63-4.26V53a7.51,7.51,0,0,1,.67-3.28,5,5,0,0,1,1.93-2.16,5.52,5.52,0,0,1,2.9-.75,5.79,5.79,0,0,1,3.74,1.08,4.61,4.61,0,0,1,1.56,3.25h-3a2.33,2.33,0,0,0-.69-1.52,2.27,2.27,0,0,0-1.51-.45,2,2,0,0,0-1.8,1,5.2,5.2,0,0,0-.65,2.8v.77a5,5,0,0,0,.66,2.86,2.34,2.34,0,0,0,2.08,1A2.68,2.68,0,0,0,25.77,57V55H23.6v-2.1h5.28Z"/><polygon class="cls-1" points="44.42 49.35 40.55 49.35 40.55 59.7 37.44 59.7 37.44 49.35 33.64 49.35 33.64 46.98 44.42 46.98 44.42 49.35"/><polygon class="cls-1" points="53.28 54.3 48.39 54.3 48.39 57.35 54.17 57.35 54.17 59.7 45.28 59.7 45.28 46.98 54.19 46.98 54.19 49.35 48.39 49.35 48.39 52.03 53.28 52.03 53.28 54.3"/><path class="cls-1" d="M65.42,55.4a4.61,4.61,0,0,1-.72,2.34,4.4,4.4,0,0,1-1.87,1.58,6.45,6.45,0,0,1-2.74.56,5.11,5.11,0,0,1-4-1.63,6.72,6.72,0,0,1-1.46-4.62V53a7.57,7.57,0,0,1,.66-3.27,4.92,4.92,0,0,1,1.9-2.17,5.38,5.38,0,0,1,2.87-.76A5.58,5.58,0,0,1,63.83,48a4.78,4.78,0,0,1,1.62,3.36h-3.1a2.24,2.24,0,0,0-.6-1.67,2.45,2.45,0,0,0-1.7-.51,1.87,1.87,0,0,0-1.7.86,5.45,5.45,0,0,0-.57,2.73v.9a6.07,6.07,0,0,0,.52,2.91,1.9,1.9,0,0,0,1.79.88,2.44,2.44,0,0,0,1.64-.5,2.07,2.07,0,0,0,.6-1.58Z"/><polygon class="cls-1" points="77.22 59.7 74.13 59.7 74.13 54.39 69.55 54.39 69.55 59.7 66.44 59.7 66.44 46.98 69.55 46.98 69.55 52.03 74.13 52.03 74.13 46.98 77.22 46.98 77.22 59.7"/><path class="cls-1" d="M81.85,52.84h2a1.76,1.76,0,0,0,1.33-.46,2,2,0,0,0,0-2.57,1.76,1.76,0,0,0-1.32-.47h-2Zm1.68,2.36H81.85v4.51H78.74V47h5.08a5.69,5.69,0,0,1,3.58,1,3.38,3.38,0,0,1,1.3,2.84,4,4,0,0,1-.55,2.2,3.92,3.92,0,0,1-1.7,1.42l2.69,5.13v.14H85.81Z"/><rect class="cls-1" x="90.34" y="46.98" width="3.1" height="12.73"/><polygon class="cls-1" points="105.27 49.35 101.4 49.35 101.4 59.7 98.29 59.7 98.29 49.35 94.49 49.35 94.49 46.98 105.27 46.98 105.27 49.35"/><path class="cls-1" d="M113.89,53.07a5.3,5.3,0,0,0-.64-2.88,2.08,2.08,0,0,0-1.84-1c-1.56,0-2.38,1.15-2.47,3.46v.93a5.45,5.45,0,0,0,.63,2.88,2.06,2.06,0,0,0,1.87,1,2,2,0,0,0,1.82-1,5.31,5.31,0,0,0,.64-2.84Zm3.17.53a7.52,7.52,0,0,1-.7,3.3,5.15,5.15,0,0,1-2,2.21,6,6,0,0,1-5.86,0,5.12,5.12,0,0,1-2-2.13,7.11,7.11,0,0,1-.75-3.19v-.72a7.49,7.49,0,0,1,.69-3.3,5.17,5.17,0,0,1,2-2.21,6,6,0,0,1,5.88,0,5.37,5.37,0,0,1,2,2.19,7.41,7.41,0,0,1,.72,3.26Z"/><path class="cls-1" d="M121.32,52.84h2a1.76,1.76,0,0,0,1.33-.46,1.74,1.74,0,0,0,.45-1.28,1.78,1.78,0,0,0-.45-1.29,1.8,1.8,0,0,0-1.33-.47h-2ZM123,55.2h-1.68v4.51h-3.11V47h5.08a5.69,5.69,0,0,1,3.58,1,3.38,3.38,0,0,1,1.3,2.84,4,4,0,0,1-.55,2.2,3.92,3.92,0,0,1-1.7,1.42l2.69,5.13v.14h-3.33Z"/><polygon class="cls-1" points="134.32 52.5 136.69 46.98 140.05 46.98 135.89 55.13 135.89 59.7 132.74 59.7 132.74 55.13 128.59 46.98 131.93 46.98 134.32 52.5"/></svg>