<svg id="Layer_1" data-name="Layer 1" xmlns="http://www.w3.org/2000/svg" viewBox="0 0 170.08 113.39"><defs><style>.cls-1{fill:#1d1d1b;}.cls-2{fill:#fff;}.cls-3{fill:none;}</style></defs><title>gagarin</title><path class="cls-1" d="M26,70.94c.6.67,1.24,1.34,1.89,2,.38.39,2.85,2.72,2.59,2.82-.67.3-5.29-3.18-6-3.88-3.26-2.49-6.7-6.67-6.95-10.74s.37-7.8,4-13.15C25.44,41.72,37.75,33.11,41,31.58A105.5,105.5,0,0,1,52.43,26c.84-.34,1.67-.68,2.52-1,1.31-.5,2.64-1,4-1.41,1-.31,1.91-.65,2.89-.91.72-.19,1.1.33,1.32.94s.71,1.49.27,1.93a3.93,3.93,0,0,1-1.76.73A72.28,72.28,0,0,0,44.11,34c-1.41.77-2.81,1.58-4.16,2.45C31.19,42,25.5,48.16,23,53.5a15,15,0,0,0-1.35,9.55A17.33,17.33,0,0,0,26,70.94Z"/><path class="cls-1" d="M64,22.25c.32.88.63,1.68,1,2.49,2.12-.54,4.45-1.07,7.68-1.75,6-1.5,18.29-4.28,20.12-4.67A8.89,8.89,0,0,0,98.35,14c-.18.06-3.48-2.43-6.71-1.55-1.54.32-13.77,4.15-20.11,6.62C68.35,20.41,66.06,21.43,64,22.25Z"/><path class="cls-1" d="M74.26,23.1c-4,.92-6.71,1.58-9.11,2.26-.51.73-1,1.47-1.52,2.31,1.21-.45,2.34-.83,3.57-1.19C69.05,25.46,71.23,24.46,74.26,23.1Z"/><path class="cls-1" d="M60.83,20.61l3,1.1c2.42-.94,5.28-2.17,9.48-3.86-3.46.52-6.23,1-8.65,1.37C63.29,19.76,62.08,20.22,60.83,20.61Z"/><path class="cls-1" d="M95.73,14.83c0,.15.13.24.22.22l6.7-1.92c.09,0,.15-.08.14-.12s-.09-.07-.18,0l-6.87,1.18c-.09,0-.14.15-.1.29Z"/><polygon class="cls-1" points="119.26 8.67 118.22 8.52 113.77 7.88 111.32 2.91 108.87 7.88 103.38 8.67 107.35 12.54 106.42 18 111.32 15.43 116.23 18 115.29 12.54 119.26 8.67"/><polygon class="cls-2" points="118.15 9.03 113.43 8.35 111.32 4.07 109.21 8.35 104.49 9.03 107.91 12.36 107.1 17.06 111.32 14.84 115.54 17.06 114.74 12.36 118.15 9.03"/><polygon class="cls-1" points="111.32 14.48 107.53 16.47 108.25 12.25 105.19 9.26 109.43 8.64 111.32 4.8 113.22 8.64 117.46 9.26 114.39 12.25 115.11 16.47 111.32 14.48"/><path class="cls-1" d="M88.51,107.9v2.43H82.83v-1.81a2.09,2.09,0,0,1,.47-1.61,5.28,5.28,0,0,1,1.51-1c1.34-.68,1.43-.8,1.43-1.23s-.15-.61-.51-.61c-.52,0-.47.59-.47,1v.3H83v-2.1a5,5,0,0,1,2.93-.82,3.38,3.38,0,0,1,1.92.48,2,2,0,0,1,.84,1.73v.27a2.26,2.26,0,0,1-1.44,2.19l-.86.43c-1.3.65-1.18.78-1.18,1.2h.28c.6,0,.77-.21.79-.83Z"/><path class="cls-1" d="M95.5,107.91c0,2-1,2.57-2.88,2.57s-2.88-.57-2.88-2.57V105c0-2,1-2.58,2.88-2.58S95.5,103,95.5,105ZM93.09,105c0-.36,0-.88-.48-.88s-.46.46-.46.8v3c0,.34,0,.89.47.89s.47-.53.47-.89Z"/><path class="cls-1" d="M102.17,107.91c0,2-1,2.57-2.88,2.57s-2.88-.57-2.88-2.57V105c0-2,1-2.58,2.88-2.58s2.88.57,2.88,2.58ZM99.76,105c0-.36,0-.88-.48-.88s-.46.46-.46.8v3c0,.34,0,.89.47.89s.47-.53.47-.89Z"/><path class="cls-1" d="M106.42,107.46a2.78,2.78,0,0,1-2.72-.27,1.81,1.81,0,0,1-.61-1.65v-.69c0-1.61.64-2.42,2.76-2.42s3,.66,3,2.5v3c0,1.19-.22,2.59-3,2.59a4.35,4.35,0,0,1-2.67-.79V108h2.22a2.71,2.71,0,0,0,.08.48.4.4,0,0,0,.42.29c.49,0,.51-.44.51-.78Zm-1-2.1c0,.3,0,.8.48.8s.47-.5.47-.8v-.45c0-.31,0-.81-.47-.81s-.48.5-.48.81Z"/><path class="cls-3" d="M85.91,77.25c-.22-.4-.59-.63-1.58-.64h-.42v6.45h.42c1,0,1.36-.24,1.58-.64a5,5,0,0,0,.26-2.11v-.93A5,5,0,0,0,85.91,77.25Z"/><path class="cls-1" d="M58.11,42.06l0,0h0Zm102.15,2.23q-5.32-1.71-10.7-3.18l-5.28-1.43v.06q-5.47-1.37-11-2.45l-5-1v5.85q-3.54-.64-7.08-1.18l-4.81-.72v.83a12.58,12.58,0,0,0-2.88-1c-.51-.11-1-.2-1.46-.27-3-.46-6-.72-9-.89l-6.55-.39h-.22l-1.35-.08v0L93.2,38.4c-2.64-.09-5.29-.13-7.93-.13l-3,0-3.42,0L78.35,41a17.87,17.87,0,0,0-9.53-2.53c-.6,0-1.2,0-1.78.07a17,17,0,0,0-4.42.88A12.44,12.44,0,0,0,58.13,42,9.55,9.55,0,0,0,57,43.35L56.26,40l-3.86.53q-5.44.75-10.84,1.75l-2.19.4-1.95-1.08a18.17,18.17,0,0,0-8.83-2.12,27.27,27.27,0,0,0-7.19,1A21.1,21.1,0,0,0,10.63,47a14.78,14.78,0,0,0-3.1,5.93,21.69,21.69,0,0,0-.61,5.47V71a21.67,21.67,0,0,0,.63,6.06A10,10,0,0,0,9.2,80.36a9.64,9.64,0,0,0,3.07,2.58l0,0h0a10.62,10.62,0,0,0,5.07,1.17A26.26,26.26,0,0,0,24,83a40.88,40.88,0,0,0,7.3-2.61,22.87,22.87,0,0,0,7.16-5.19l.07-.08.3-.06q4-.81,8.09-1.48l1-.16,1-.15,3.35-.49a8.58,8.58,0,0,0-.46,1.24,15.19,15.19,0,0,0-.54,4.31v8.91a19.38,19.38,0,0,0,.39,4.43,10,10,0,0,0,2.9,5.08h0a11,11,0,0,0,4.66,2.48,19.21,19.21,0,0,0,5.09.65h.6A21.29,21.29,0,0,0,70.47,99,15.15,15.15,0,0,0,75,96.84l.28.26a11,11,0,0,0,4.84,2.4,21.87,21.87,0,0,0,8.53,0,12.25,12.25,0,0,0,3-1.13v1.08h17.44v-7a14.55,14.55,0,0,0,2.76-.6,10,10,0,0,0,3.24-1.79,9.27,9.27,0,0,0,2.85-4.38,15.74,15.74,0,0,0,.62-4.66V79.16s0-.42,0-.87a13.71,13.71,0,0,0-.58-4,10.13,10.13,0,0,0-.52-1.36l.44.06,1,.15,1,.15c2.78.43,5.57.91,8.34,1.45v3.84l3.35.68c3.4.7,6.79,1.46,10.17,2.31l2.93.73h0l2.08.57q4.92,1.35,9.78,2.92l5.46,1.75V57.68l1.1-.36V45.23ZM54.59,96.82l0,0h0Z"/><path class="cls-3" d="M84.14,58.35l1.8-.28Q85.48,55.51,85,53C84.73,54.76,84.43,56.55,84.14,58.35Z"/><path class="cls-3" d="M85,49.89c-.3,1.77-.59,3.53-.89,5.3l1.82,0Z"/><path class="cls-3" d="M84.32,48.8l-.45,0V53.1l.51,0,.37,0a1.24,1.24,0,0,0,1.13-.47,2.78,2.78,0,0,0,.33-1.57,2.73,2.73,0,0,0-.4-1.65A2,2,0,0,0,84.32,48.8Z"/><path class="cls-2" d="M14.13,49.76c-2.22,2.59-2.54,5.37-2.54,8.18V70.08A17,17,0,0,0,12,74.69a4.91,4.91,0,0,0,2.48,3.09,6,6,0,0,0,2.85.61,21.8,21.8,0,0,0,5.3-.9c4-1.07,8.65-2.77,11.73-6.14V56.51Q29,57.67,23.62,59.07v5.67L25,64.38l.34-.08v1.77c0,.3,0,.67,0,1.06A6.19,6.19,0,0,1,25,69.4,2.5,2.5,0,0,1,23.23,71a2.55,2.55,0,0,1-.69.1,1.51,1.51,0,0,1-1.41-.86,2.39,2.39,0,0,1-.24-1V55a6.3,6.3,0,0,1,.32-2.27A2.67,2.67,0,0,1,23.09,51,2.31,2.31,0,0,1,23.7,51a1.45,1.45,0,0,1,1.4,1,5.67,5.67,0,0,1,.24,1.9c0,.39,0,.75,0,1.05v.36c3-.77,6-1.48,9-2.12V45.5a13.22,13.22,0,0,0-6.26-1.42,22,22,0,0,0-5.77.83A16,16,0,0,0,14.13,49.76Z"/><path class="cls-2" d="M56,62.15a5.8,5.8,0,0,1-.37-1.32q-1.66-8-3.33-15.91c-3.26.46-6.53,1-9.77,1.58l-3,16.62A5.52,5.52,0,0,1,38.44,66v3.61q3.68-.73,7.37-1.34v-3.6a1.17,1.17,0,0,1-.63-.38,1.45,1.45,0,0,1-.31-1,3.09,3.09,0,0,1,.12-.75l0-.17.18,0,3.47-.56.24,0L49,62a3,3,0,0,1,.11.72,1.75,1.75,0,0,1-.83,1.55v3.58q4.26-.66,8.55-1.15V63.08A1.67,1.67,0,0,1,56,62.15ZM48.12,58l-2.37.38-.37.07.06-.38c.38-2.32.75-4.64,1.13-7l0-.2.2,0h0l.27-.05,0,.27q.6,3.3,1.18,6.6l0,.27Z"/><path class="cls-2" d="M61.47,65.18a7,7,0,0,0,4.16,1c.6,0,1.2,0,1.79-.08,2.89-.2,6.23-.82,8.43-2.79V52.78q-3.84.13-7.68.41v3.92l1-.06.29,0v1.31c0,.21,0,.48,0,.76a4.13,4.13,0,0,1-.25,1.62,1.54,1.54,0,0,1-1.4,1h-.16A1.48,1.48,0,0,1,66.26,61,2,2,0,0,1,66,60V49.84a4.2,4.2,0,0,1,.24-1.62,1.65,1.65,0,0,1,1.47-1h.15a1.35,1.35,0,0,1,1.31.87,4.06,4.06,0,0,1,.23,1.54c0,.28,0,.54,0,.75v.22q3.21-.21,6.43-.33V44.87a12.73,12.73,0,0,0-7.34-2.07c-.46,0-.92,0-1.38.05a9.52,9.52,0,0,0-5.95,2.27c-1.6,1.48-1.84,3.39-1.84,5.41v8.71a12.48,12.48,0,0,0,.31,3.36A4.72,4.72,0,0,0,61.47,65.18Z"/><path class="cls-2" d="M85.85,65.09V61.48A1.5,1.5,0,0,1,84.9,60a3.37,3.37,0,0,1,.12-.74l0-.21h.21c1.17,0,2.35,0,3.51,0H89l0,.2a2.66,2.66,0,0,1,.12.74,1.49,1.49,0,0,1-.84,1.43v3.63q4.31.07,8.6.31V61.81a2.08,2.08,0,0,1-.84-1.07,7,7,0,0,1-.37-1.38Q94,51.05,92.37,42.75q-3.63-.12-7.26-.12l-2.62,0q-1.5,8.06-3,16.14h0c-.21.81-.26,2-1.08,2.7v3.66q3-.07,6-.08Zm-.37-10.27L86.62,48l0-.22h.51l0,.22,1.2,6.83,0,.33h-.33l-2.39,0h-.32Z"/><path class="cls-2" d="M116.83,62.65a5.65,5.65,0,0,1-.12-1.37V60a4.27,4.27,0,0,0-.61-2.54A4.35,4.35,0,0,0,113.86,56l-.17-.07v-.48l.23,0a3.18,3.18,0,0,0,2.54-1.52,6.25,6.25,0,0,0,.68-3.17,6.13,6.13,0,0,0-2.43-5.3c-1.47-1.08-3.67-1.33-5.46-1.51-3.24-.33-6.5-.6-9.75-.79v3.66a1.87,1.87,0,0,1,.66.92,3.55,3.55,0,0,1,.13,1.11V60a3.26,3.26,0,0,1-.14,1.11,1.54,1.54,0,0,1-.65.84v3.68c2.76.18,5.51.4,8.27.67V62.6a2.39,2.39,0,0,1-.79-2.07V57.19l.3,0,.3,0a2.48,2.48,0,0,1,2,1,4.54,4.54,0,0,1,.38,2.24c0,.61,0,1.14,0,1.62a18,18,0,0,0,.37,4.37q3.63.39,7.26.92V63.82A1.89,1.89,0,0,1,116.83,62.65ZM109.9,52.57a1.74,1.74,0,0,1-1.51.68h0l-.4,0-.74-.08-.24,0V47.88l.3,0L108,48a2.47,2.47,0,0,1,1.81.86,4.12,4.12,0,0,1,.08,3.74Z"/><path class="cls-2" d="M121.54,51.11v11.2a3.45,3.45,0,0,1-.13,1.1,1.52,1.52,0,0,1-.65.8v3.7c2.73.42,5.46.9,8.18,1.42V65.68a2.63,2.63,0,0,1-.78-2.13c0-.14,0-.28,0-.41V52.75c0-.13,0-.27,0-.41a3.73,3.73,0,0,1,.14-1.1,1.41,1.41,0,0,1,.64-.78V46.75c-2.72-.52-5.45-1-8.18-1.4V49A2.5,2.5,0,0,1,121.54,51.11Z"/><path class="cls-2" d="M149.43,54.48v6.1l-.36-.12H149l-.14,0,0-.14q-2.75-8-5.49-16c-3.43-.85-6.89-1.63-10.35-2.32v5.29a3.54,3.54,0,0,1,1.09,3v.56h0V65.36h0v.54a4.68,4.68,0,0,1-.18,1.5,1.84,1.84,0,0,1-.91,1.06v5.36c3.14.64,6.28,1.35,9.4,2.13V70.67a3.67,3.67,0,0,1-1.08-3V61.11l.33.07.08,0,.14,0,0,.13q2.94,8,5.86,16,4.56,1.25,9.08,2.7V56.85c0-.19,0-.38,0-.57a4.87,4.87,0,0,1,.18-1.49,1.6,1.6,0,0,1,.89-1V48.43q-4.75-1.53-9.55-2.85v5.3a3.74,3.74,0,0,1,1.07,3Z"/><path class="cls-2" d="M63.66,71h0a9.61,9.61,0,0,0-6,1.69C56.07,74,55.8,75.94,55.8,78v8.56c0,2.32.08,4.4,1.82,6,1.25,1.19,3.77,1.84,6.43,1.84h.46A13,13,0,0,0,72,92.11V84.84H65.6v3a3.27,3.27,0,0,1-.23,1.41,1.58,1.58,0,0,1-2.72,0,3.27,3.27,0,0,1-.23-1.41V77.66a3.27,3.27,0,0,1,.23-1.41,1.58,1.58,0,0,1,2.72,0,3.3,3.3,0,0,1,.23,1.41v1.73H72v-6a15.59,15.59,0,0,0-7.69-2.37Z"/><path class="cls-2" d="M86,76.26a6.56,6.56,0,0,1,.11,1.31v10.5a2.52,2.52,0,0,1-.26,1.12,1.71,1.71,0,0,1-2.88,0,2.35,2.35,0,0,1-.25-1.12V77.17a3.52,3.52,0,0,1,.13-1.11,1.69,1.69,0,0,1,.64-.88V71.51H75.31v3.67a1.77,1.77,0,0,1,.65.88,3.52,3.52,0,0,1,.13,1.11v9.71c.06,2.44.23,4.24,2.1,5.89,1.6,1.41,3.87,1.65,5.92,1.65s4.31-.24,5.91-1.65c1.87-1.65,2-3.45,2.11-5.88V77.57c0-.12,0-.24,0-.36a3.44,3.44,0,0,1,.15-1.14,1.81,1.81,0,0,1,.74-.9V71.51H85.24v3.66A1.8,1.8,0,0,1,86,76.26Z"/><path class="cls-2" d="M111.32,72.66c-1.42-1.11-3.86-1.16-5.78-1.16H96.2v3.67a1.71,1.71,0,0,1,.65.88A3.52,3.52,0,0,1,97,77.16V88.3a3.52,3.52,0,0,1-.13,1.11,1.78,1.78,0,0,1-.65.89V94h8.18V90.3a1.71,1.71,0,0,1-.65-.92,4.15,4.15,0,0,1-.13-1.24v-.78h2.82c2.9,0,4.64-.67,5.66-1.81s1.39-2.84,1.39-5V78.72c0-.15,0-.42,0-.8C113.49,76.6,113.26,74.13,111.32,72.66Zm-4.47,6.76v.44a5,5,0,0,1-.31,2.28,2,2,0,0,1-2,.9h-1V75.76h.94a2,2,0,0,1,2,.91,5.07,5.07,0,0,1,.31,2.3Z"/><path class="cls-2" d="M28.88,43.8a23.56,23.56,0,0,0-6.16.88,17.31,17.31,0,0,0-8.83,5.24c-2.44,2.84-2.79,5.93-2.78,8.89V71.45a17.86,17.86,0,0,0,.46,5A5.69,5.69,0,0,0,14.43,80a6.72,6.72,0,0,0,3.23.71,23.3,23.3,0,0,0,5.67-1c4.23-1.14,9.22-2.94,12.56-6.65L36,73V56.61l-.34.07q-5.91,1.26-11.78,2.81l-.21.06v7.07l.36-.1,1.42-.37v1.11c0,.33,0,.71,0,1.11a5.92,5.92,0,0,1-.3,2.16,2,2,0,0,1-1.47,1.32,2.15,2.15,0,0,1-.57.08,1,1,0,0,1-1-.58,2.11,2.11,0,0,1-.19-.84V55.72a6,6,0,0,1,.3-2.15,2.16,2.16,0,0,1,1.58-1.4,1.91,1.91,0,0,1,.48-.08.93.93,0,0,1,.93.72,5.41,5.41,0,0,1,.21,1.78c0,.39,0,.77,0,1.1v1.1l.35-.09q5-1.28,10-2.34l.22,0v-8.8l-.14-.08A14.3,14.3,0,0,0,28.88,43.8ZM35.4,53.85q-4.72,1-9.42,2.21v-.37c0-.31,0-.69,0-1.1a5.83,5.83,0,0,0-.25-2,1.48,1.48,0,0,0-1.46-1.09,2.51,2.51,0,0,0-.63.09,2.76,2.76,0,0,0-2,1.74,6.56,6.56,0,0,0-.34,2.36V70.51a2.55,2.55,0,0,0,.26,1.1,1.55,1.55,0,0,0,1.47.89,2.75,2.75,0,0,0,.71-.1,2.61,2.61,0,0,0,1.86-1.67A6.44,6.44,0,0,0,26,68.37c0-.41,0-.79,0-1.11V65.42l-.36.09-1.42.37V60q5.57-1.47,11.2-2.67V72.76c-3.21,3.51-8.06,5.29-12.21,6.4a22.8,22.8,0,0,1-5.53.94,6.17,6.17,0,0,1-3-.64,5.14,5.14,0,0,1-2.59-3.22,17.52,17.52,0,0,1-.44-4.8V58.81c0-2.93.34-5.82,2.65-8.52a16.74,16.74,0,0,1,8.55-5.06,23,23,0,0,1,6-.86,13.81,13.81,0,0,1,6.52,1.48ZM58.32,68.59V63.87l-.24,0c-.27,0-.51-.31-.69-.71A6.58,6.58,0,0,1,57,61.87Q55.29,53.43,53.53,45l-.06-.26-.26,0q-5.34.75-10.66,1.72l-.19,0,0,.19q-1.59,8.73-3.16,17.48c-.22,1-.33,2.16-1,2.76l-.1.08v4.7l.34-.07q4.11-.83,8.23-1.5l.24,0V65.45l-.26,0a.72.72,0,0,1-.54-.24.94.94,0,0,1-.18-.62,2.91,2.91,0,0,1,.06-.46c1.06-.18,2.11-.35,3.17-.51a1.42,1.42,0,0,1,0,.36,1.24,1.24,0,0,1-.72,1.19l-.15.08v4.72l.33,0c3.14-.48,6.3-.91,9.45-1.27Zm-.57-.5q-4.45.51-8.9,1.19V65.55a1.8,1.8,0,0,0,.87-1.6,3.19,3.19,0,0,0-.12-.76L49.53,63l-.25,0c-1.21.18-2.41.38-3.62.58l-.18,0,0,.18a3.85,3.85,0,0,0-.12.78,1.48,1.48,0,0,0,.32,1,1.22,1.22,0,0,0,.66.4v3.75c-2.56.42-5.12.89-7.67,1.39V67.33a5.79,5.79,0,0,0,1.11-3l3.12-17.31c3.38-.62,6.78-1.17,10.18-1.64Q54.76,53.68,56.49,62a6.45,6.45,0,0,0,.39,1.37,1.73,1.73,0,0,0,.87,1Zm-10-16.27-.06-.29-.28.06h0l-.21,0,0,.21c-.39,2.42-.78,4.83-1.18,7.25l-.06.39.39-.06,2.46-.4L49,59l0-.29Zm-1.17,7c.29-1.81.58-3.6.87-5.4.31,1.7.61,3.4.92,5.11Zm14.91,8.29a7.87,7.87,0,0,0,4.66,1.17c.65,0,1.29,0,1.91-.07,3.09-.23,6.74-.87,9.21-3.14l.09-.09V53.12H77q-4.29.15-8.57.45l-.27,0v5.23l.31,0,1-.06v.75c0,.24,0,.51,0,.8a3.91,3.91,0,0,1-.21,1.46,1,1,0,0,1-1,.68h-.13a1,1,0,0,1-.91-.49,1.64,1.64,0,0,1-.18-.68V50.65a4.06,4.06,0,0,1,.21-1.47,1.14,1.14,0,0,1,1-.71h.12a.81.81,0,0,1,.84.55,3.93,3.93,0,0,1,.19,1.39c0,.27,0,.54,0,.78V52l.3,0q3.63-.24,7.26-.37h.27V45.17l-.12-.08a13.72,13.72,0,0,0-8.09-2.35c-.49,0-1,0-1.48.06a10.45,10.45,0,0,0-6.54,2.52C59.24,47,59,49.23,59,51.36v9.08a13.37,13.37,0,0,0,.34,3.65A5.48,5.48,0,0,0,61.44,67.08ZM59.55,51.36c0-2.1.26-4.08,1.91-5.63a9.9,9.9,0,0,1,6.21-2.36c.47,0,1-.06,1.43-.06a13.24,13.24,0,0,1,7.64,2.16v5.61q-3.34.12-6.69.33v-.22c0-.22,0-.49,0-.78a4.23,4.23,0,0,0-.24-1.61,1.39,1.39,0,0,0-1.36-.9H68.3A1.7,1.7,0,0,0,66.77,49a4.34,4.34,0,0,0-.25,1.69V61.27a2,2,0,0,0,.24.95,1.52,1.52,0,0,0,1.41.78h.17a1.64,1.64,0,0,0,1.46-1,4.3,4.3,0,0,0,.26-1.69c0-.3,0-.57,0-.8V58.13l-.3,0-1,.07V54.13c2.66-.18,5.33-.33,8-.42v11C74.46,66.76,71,67.4,68,67.61c-.6,0-1.23.08-1.86.08a7.31,7.31,0,0,1-4.32-1.07,4.83,4.83,0,0,1-1.9-2.69,13,13,0,0,1-.33-3.49ZM84.83,67.1H86.9V62.36l-.21,0a1,1,0,0,1-.78-1.05,2.27,2.27,0,0,1,0-.41l3.21,0a2.1,2.1,0,0,1,0,.43,1,1,0,0,1-.69,1l-.19.06v4.73h.28c3.17,0,6.35.16,9.52.34l.3,0V62.74l-.19-.06a1.45,1.45,0,0,1-.73-.88,7,7,0,0,1-.36-1.33Q95.39,51.69,93.63,43l0-.22h-.22c-2.6-.08-5.2-.13-7.8-.13l-3,0h-.24l0,.22q-1.59,8.52-3.19,17h0c-.23,1-.35,2.11-1,2.56l-.12.08V67.2h.29C80.46,67.14,82.65,67.1,84.83,67.1Zm-6.27-4.29c.85-.73.9-2,1.12-2.81h0q1.57-8.4,3.16-16.8l2.72,0q3.78,0,7.56.12,1.74,8.64,3.49,17.3A7.21,7.21,0,0,0,97,62a2.15,2.15,0,0,0,.88,1.11V66.9c-3-.17-6-.27-9-.33V62.79a1.54,1.54,0,0,0,.88-1.48,3.28,3.28,0,0,0-.12-.77l-.06-.22H89.4c-1.22,0-2.44,0-3.66,0h-.22l0,.22a2.94,2.94,0,0,0-.13.76,1.55,1.55,0,0,0,1,1.53v3.75h-1.5q-3.14,0-6.27.08Zm10.15-6.6h.34L89,55.88c-.42-2.38-.83-4.75-1.25-7.12l0-.23h-.53l0,.23c-.4,2.37-.79,4.73-1.19,7.09l0,.33h.33Zm-1.27-5.89.93,5.32-1.81,0C86.85,53.85,87.15,52.09,87.44,50.32Zm30.83,13.49a5.62,5.62,0,0,1-.1-1.29V61.15a5,5,0,0,0-.74-3,4.46,4.46,0,0,0-1.81-1.41,3.69,3.69,0,0,0,2.21-1.68,7.1,7.1,0,0,0,.79-3.59,7,7,0,0,0-2.76-6c-1.72-1.26-4.1-1.49-6-1.68-3.48-.36-7-.65-10.48-.85l-.3,0v4.71l.13.08a1.38,1.38,0,0,1,.58.76,3,3,0,0,1,.12,1c0,.14,0,.28,0,.43V60.72c0,.14,0,.28,0,.42a3.16,3.16,0,0,1-.11,1,1.19,1.19,0,0,1-.57.66l-.15.08v4.69h.27q4.59.28,9.16.75l.31,0V63.61l-.11-.08a1.89,1.89,0,0,1-.71-1.79c0-.13,0-.28,0-.42V58.89c1,.13,1.43.4,1.68.82a4.17,4.17,0,0,1,.31,2c0,.63,0,1.19,0,1.69a19,19,0,0,0,.45,4.87l.05.2.2,0q4,.45,8.06,1l.32,0V64.84l-.15-.08A1.39,1.39,0,0,1,118.27,63.81Zm.26,5.14q-3.78-.54-7.56-1a18.63,18.63,0,0,1-.39-4.55c0-.5,0-1,0-1.68a4.56,4.56,0,0,0-.4-2.34,2.57,2.57,0,0,0-2.1-1.09l-.32,0-.31,0v3.48a2.49,2.49,0,0,0,.82,2.16v3.8Q104,67.28,99.68,67V63.18a1.71,1.71,0,0,0,.68-.89,3.49,3.49,0,0,0,.14-1.15V49.51a3.58,3.58,0,0,0-.14-1.16,1.93,1.93,0,0,0-.68-1V43.58c3.39.21,6.78.48,10.16.83,1.86.19,4.15.44,5.68,1.58a6.38,6.38,0,0,1,2.53,5.51,6.5,6.5,0,0,1-.71,3.3,3.3,3.3,0,0,1-2.64,1.58l-.25,0v.5l.19.07A4.64,4.64,0,0,1,117,58.5a4.38,4.38,0,0,1,.64,2.65v1.37a6.13,6.13,0,0,0,.12,1.43,2,2,0,0,0,.81,1.22Zm-10-20.28-.76-.07-.31,0V54l.25,0,.77.07a3.1,3.1,0,0,0,.42,0h0a1.79,1.79,0,0,0,1.57-.7,3.29,3.29,0,0,0,.43-1.9,3.2,3.2,0,0,0-.52-2A2.51,2.51,0,0,0,108.54,48.67Zm1.51,4.46a1.27,1.27,0,0,1-1.14.47l-.37,0-.5,0V49.19l.45.05a2,2,0,0,1,1.48.67,2.66,2.66,0,0,1,.4,1.65A2.88,2.88,0,0,1,110.05,53.13Zm10.85-7.89-.32-.05v4.74l.11.08a2,2,0,0,1,.7,1.84V63.51a3.05,3.05,0,0,1-.11,1,1,1,0,0,1-.54.59l-.16.08v4.69l.24,0q4.55.7,9.08,1.58l.33.07V66.76l-.1-.09a2.09,2.09,0,0,1-.71-1.87V53.13a3,3,0,0,1,.11-1,.9.9,0,0,1,.53-.57l.17-.08V46.84l-.23,0C127,46.22,123.94,45.7,120.9,45.24Zm8.77,5.93A1.49,1.49,0,0,0,129,52a3.67,3.67,0,0,0-.13,1.14V64.8a2.67,2.67,0,0,0,.81,2.22v3.8c-2.84-.54-5.68-1-8.53-1.48V65.49a1.53,1.53,0,0,0,.68-.84,3.4,3.4,0,0,0,.14-1.14V51.85a2.62,2.62,0,0,0-.82-2.19V45.85c2.85.44,5.69.92,8.53,1.46Zm28.4,31.34.37.12V57.68c0-.2,0-.4,0-.6a4.23,4.23,0,0,1,.16-1.36,1.13,1.13,0,0,1,.76-.74l.2-.06V48.49l-.2-.06q-5.23-1.7-10.53-3.13l-.36-.1v6.5l.09.09a3.3,3.3,0,0,1,1,2.82v5q-2.64-7.74-5.28-15.41l-.05-.14-.15,0q-5.62-1.41-11.3-2.53l-.34-.07v6.47l.1.08a3.09,3.09,0,0,1,1,2.74V67.11a4.16,4.16,0,0,1-.16,1.38,1.35,1.35,0,0,1-.81.85l-.17.07v6.41l.23.05q5.19,1,10.34,2.34l.35.09V71.81l-.09-.09a3.2,3.2,0,0,1-1-2.78V63.86q2.85,7.71,5.68,15.51l.05.14.14,0m.29-.51q-3-8.37-6.1-16.66l0-.14-.15,0-.08,0-.35-.08v6.83a3.82,3.82,0,0,0,1.13,3.12v5.51q-4.87-1.21-9.79-2.21V69.78a1.94,1.94,0,0,0,.95-1.1,5.16,5.16,0,0,0,.19-1.57c0-.19,0-.38,0-.57h0V50.76A3.68,3.68,0,0,0,133,47.67V42.16q5.41,1.08,10.78,2.42,2.87,8.3,5.71,16.66l0,.14.14,0,.06,0,.38.12v-7A3.92,3.92,0,0,0,149,51.46V46q5,1.36,9.95,3v5.61a1.7,1.7,0,0,0-.93,1,4.68,4.68,0,0,0-.18,1.55V81.85M64.89,71l-.68,0a10.56,10.56,0,0,0-6.61,1.9c-1.86,1.54-2.14,3.75-2.14,5.92v8.91c0,2.41.06,4.81,2.07,6.69,1.5,1.4,4.22,2.06,7.08,2.07h.5a14,14,0,0,0,8.22-2.61l.1-.08V85.36H65.65v3c0,.21,0,.43,0,.65a2.87,2.87,0,0,1-.19,1.23.87.87,0,0,1-.9.49.86.86,0,0,1-.9-.49A2.7,2.7,0,0,1,63.48,89V78.45a2.68,2.68,0,0,1,.19-1.22.88.88,0,0,1,.9-.5.89.89,0,0,1,.9.5,2.85,2.85,0,0,1,.19,1.22c0,.23,0,.45,0,.65v1.71h7.78V73.73l-.13-.09A16.73,16.73,0,0,0,64.89,71Zm8,9.25H66.22V79.1c0-.18,0-.41,0-.65A3.43,3.43,0,0,0,66,77a1.63,1.63,0,0,0-2.82,0,3.26,3.26,0,0,0-.25,1.47c0,.24,0,.47,0,.65v9.25c0,.19,0,.42,0,.66a3.29,3.29,0,0,0,.25,1.47,1.63,1.63,0,0,0,2.82,0A3.45,3.45,0,0,0,66.23,89c0-.23,0-.46,0-.65V85.93h6.64V93.5a13.62,13.62,0,0,1-7.77,2.39h-.48c-2.77,0-5.39-.68-6.69-1.91-1.82-1.7-1.9-3.86-1.9-6.28V78.8c0-2.14.28-4.12,1.94-5.48a10,10,0,0,1,6.23-1.77h.67a16.26,16.26,0,0,1,8,2.47Zm12.41-4.08.14.08a1.31,1.31,0,0,1,.66.87,5.86,5.86,0,0,1,.09,1.24V89.27a2,2,0,0,1-.19.9,1.23,1.23,0,0,1-2,0,2,2,0,0,1-.19-.9V77.93a3.28,3.28,0,0,1,.1-1,1.32,1.32,0,0,1,.57-.71l.14-.08V71.47H74.93v4.69l.13.08a1.23,1.23,0,0,1,.57.71,3,3,0,0,1,.11,1V88.05c.05,2.54.26,4.69,2.39,6.55,1.85,1.61,4.36,1.86,6.53,1.86s4.67-.25,6.53-1.86c2.12-1.86,2.33-4,2.39-6.55v-9.7c0-.13,0-.26,0-.38a3,3,0,0,1,.12-1,1.34,1.34,0,0,1,.66-.73l.15-.08v-4.7H85.27ZM85.84,72h8.09v3.8a1.89,1.89,0,0,0-.77.94A3.48,3.48,0,0,0,93,78V88.05c-.06,2.53-.24,4.4-2.2,6.12-1.66,1.46-4,1.72-6.15,1.72s-4.49-.26-6.16-1.72c-2-1.72-2.13-3.59-2.19-6.13V77.93a3.55,3.55,0,0,0-.14-1.16,1.83,1.83,0,0,0-.67-.92V72H84v3.81a1.83,1.83,0,0,0-.67.92,3.58,3.58,0,0,0-.14,1.16V89.27a2.57,2.57,0,0,0,.26,1.17,1.79,1.79,0,0,0,3,0,2.57,2.57,0,0,0,.26-1.17V78.35A7.16,7.16,0,0,0,86.62,77a1.89,1.89,0,0,0-.78-1.13Zm26.65.75c-1.73-1.31-4.36-1.31-6.37-1.32H95.83v4.69l.13.08a1.23,1.23,0,0,1,.57.71,3,3,0,0,1,.11,1v11.6a3,3,0,0,1-.11,1,1.22,1.22,0,0,1-.57.7l-.13.09V96h9.65V91.3l-.14-.09a1.24,1.24,0,0,1-.57-.72,4.11,4.11,0,0,1-.11-1.13c0-.08,0-.16,0-.25H107c3.09,0,5.1-.71,6.32-2.07S115,83.76,115,81.45v-1.9c0-.12,0-.42,0-.83C115,77.3,114.74,74.52,112.49,72.79Zm1.89,6.76v1.9c0,2.25-.37,4-1.44,5.21s-2.88,1.88-5.9,1.88H104.1v.82a4.6,4.6,0,0,0,.13,1.3,1.78,1.78,0,0,0,.68.94v3.82H96.4V91.6a1.79,1.79,0,0,0,.67-.92,3.49,3.49,0,0,0,.14-1.15V77.93a3.55,3.55,0,0,0-.14-1.16,1.83,1.83,0,0,0-.67-.92V72h9.72c2,0,4.54,0,6,1.2,2,1.53,2.25,4.11,2.25,5.48C114.4,79.11,114.38,79.39,114.38,79.55Zm-9.3-3.08h-1v7.58h1a2.06,2.06,0,0,0,2-.93,5.29,5.29,0,0,0,.33-2.38v-.93a5.36,5.36,0,0,0-.33-2.4A2.1,2.1,0,0,0,105.08,76.47Zm1.84,4.27a4.8,4.8,0,0,1-.26,2.11c-.22.4-.59.63-1.58.64h-.41V77h.41c1,0,1.36.24,1.58.64a4.91,4.91,0,0,1,.26,2.13v.93Z"/></svg>