<svg id="Layer_1" data-name="Layer 1" xmlns="http://www.w3.org/2000/svg" viewBox="0 0 170.08 113.39"><defs><style>.cls-1{fill:#1d1d1b;}</style></defs><title>guw</title><path class="cls-1" d="M122.75,40.64l-1.83-3.75h-1.31v3.75h-1.84v-9.4h3.67a2.86,2.86,0,0,1,3.07,2.87,2.56,2.56,0,0,1-1.73,2.48l2.11,4Zm-1.41-7.77h-1.73v2.49h1.73a1.25,1.25,0,1,0,0-2.49Z"/><path class="cls-1" d="M125.81,40.64v-9.4h1.83v9.4Z"/><path class="cls-1" d="M135,39.64a3.51,3.51,0,0,1-2.66,1.08,3.44,3.44,0,0,1-2.53-1c-1-.95-.94-2.13-.94-3.75s0-2.8.94-3.75a3.6,3.6,0,0,1,6.06,2h-1.84a1.6,1.6,0,0,0-1.69-1.37,1.56,1.56,0,0,0-1.18.5c-.36.4-.45.83-.45,2.64s.09,2.25.45,2.65a1.52,1.52,0,0,0,1.18.49,1.74,1.74,0,0,0,1.31-.53,1.86,1.86,0,0,0,.42-1.25v-.36h-1.73V35.41h3.54v1.37A3.74,3.74,0,0,1,135,39.64Z"/><path class="cls-1" d="M142.41,40.64,141.86,39h-3.34L138,40.64H136l3.42-9.4h1.43l3.44,9.4ZM140.23,34,139,37.43h2.34Z"/><path class="cls-1" d="M58.4,76.51c-4,4.16-8.82,5.71-14.18,5.71a18.49,18.49,0,0,1-13.53-5.5c-5.08-5.08-4.94-11.36-4.94-20s-.14-14.95,4.94-20a18.22,18.22,0,0,1,13.53-5.5c11.64,0,17.56,7.62,18.9,16.07H53.25c-1.13-4.72-4-7.33-9-7.33A8.16,8.16,0,0,0,38,42.59C36,44.7,35.55,47,35.55,56.69S36,68.75,38,70.87a8.11,8.11,0,0,0,6.27,2.6,9.19,9.19,0,0,0,7-2.82A9.66,9.66,0,0,0,53.46,64V62.05h0V53.87h9.73V61.2C63.19,68.47,61.93,72.84,58.4,76.51Z"/><rect class="cls-1" x="40.37" y="53.87" width="8.2" height="14.12"/><path class="cls-1" d="M94.28,62.05V64A9.66,9.66,0,0,1,92,70.65a9.17,9.17,0,0,1-7,2.82,8.13,8.13,0,0,1-6.28-2.6c-1.9-2.12-2.39-4.52-2.39-14.18,0-1,0-1.95,0-2.82H66.57v2.82c0,8.67-.14,15,4.93,20A18.53,18.53,0,0,0,85,82.22a18.66,18.66,0,0,0,14.17-5.71c3.53-3.67,4.8-8,4.8-15.31V53.87H94.28Z"/><path class="cls-1" d="M134.6,62.05V64a9.66,9.66,0,0,1-2.26,6.69,9.17,9.17,0,0,1-7,2.82,8.09,8.09,0,0,1-6.27-2.6c-1.91-2.12-2.4-4.52-2.4-14.18,0-1,0-1.95,0-2.82h-9.82v2.82c0,8.67-.14,15,4.93,20a18.53,18.53,0,0,0,13.54,5.5c5.36,0,10.16-1.55,14.18-5.71,3.52-3.67,4.79-8,4.79-15.31V53.87H134.6Z"/><rect class="cls-1" x="121.51" y="53.87" width="8.2" height="14.12"/></svg>