<?xml version="1.0" encoding="utf-8"?>
<!-- Generator: Adobe Illustrator 22.0.0, SVG Export Plug-In . SVG Version: 6.00 Build 0)  -->
<svg version="1.1" id="Layer_1" xmlns="http://www.w3.org/2000/svg" xmlns:xlink="http://www.w3.org/1999/xlink" x="0px" y="0px"
	 viewBox="0 0 170.1 113.4" style="enable-background:new 0 0 170.1 113.4;" xml:space="preserve">
<style type="text/css">
	.st0{fill:#1D1D1B;}
</style>
<title>mars</title>
<g>
	<path class="st0" d="M62.1,62.8l-3-25.3c-0.3-2.2-0.4-4.7-0.4-4.7h-0.1c0,0-0.5,2.5-1.2,4.7l-7.7,25.3h-3.9l-7.7-25.3
		c-0.7-2.2-1.2-4.7-1.2-4.7H37c0,0-0.2,2.5-0.4,4.7l-3,25.3h-5.3L33,26.3h6.6l7.2,23.8c0.6,2.1,1.1,4.5,1.1,4.5h0.1
		c0,0,0.5-2.4,1.1-4.5l7.2-23.8h6.6l4.7,36.5H62.1z"/>
	<path class="st0" d="M81,63.4c-7.8,0-11.7-3.2-11.7-8.5c0-7.6,8.1-8.9,16.3-9.4v-1.7c0-3.4-2.3-4.6-5.7-4.6c-2.6,0-5.7,0.8-7.5,1.7
		L70.9,37c2.2-1,5.8-1.9,9.5-1.9c6.5,0,10.4,2.5,10.4,9.2v17.1C88.8,62.5,84.8,63.4,81,63.4z M85.6,49.1c-5.5,0.3-11.1,0.8-11.1,5.6
		c0,2.9,2.2,4.6,6.4,4.6c1.8,0,3.8-0.3,4.7-0.7V49.1z"/>
	<path class="st0" d="M107.7,39.9c-0.8-0.2-1.8-0.3-2.8-0.3c-1.6,0-3.2,0.3-4.3,0.7v22.5h-5.5V37c2.6-1.1,6.5-1.9,10.5-1.9
		c1.2,0,2.3,0.1,3.1,0.2L107.7,39.9z"/>
	<path class="st0" d="M119,63.4c-3.2,0-6.5-0.9-8.5-1.9l1.9-4.2c1.4,0.9,4.4,1.8,6.5,1.8c3,0,4.9-1.5,4.9-3.7c0-2.5-2.1-3.4-4.8-4.4
		c-3.6-1.4-7.7-3-7.7-8.1c0-4.5,3.5-7.6,9.5-7.6c3.3,0,6,0.8,7.9,1.9l-1.7,3.8c-1.2-0.8-3.6-1.6-5.6-1.6c-2.9,0-4.5,1.5-4.5,3.5
		c0,2.5,2,3.3,4.7,4.3c3.8,1.4,8,3,8,8.3C129.6,60.2,125.9,63.4,119,63.4z"/>
	<g>
		<path class="st0" d="M84.9,82.4l7.2-7.2c1.1-1.1,2.1-2.3,2.1-3.6c0-1.8-1.2-3.1-3.8-3.1c-1.5,0-3.1,0.4-4.2,0.9l-0.6-1.3
			c1.3-0.6,3.1-1,4.9-1c3.7,0,5.4,1.9,5.4,4.4c0,1.6-1.1,3.1-2.5,4.4l-5.3,5h8.5v1.4H84.9z"/>
		<path class="st0" d="M105.4,82.6c-4.2,0-6.3-3.4-6.3-7.8c0-4.4,2.1-7.8,6.3-7.8c4.2,0,6.3,3.4,6.3,7.8
			C111.8,79.2,109.7,82.6,105.4,82.6z M105.4,68.5c-3.2,0-4.7,2.7-4.7,6.4s1.5,6.4,4.7,6.4s4.7-2.7,4.7-6.4S108.6,68.5,105.4,68.5z"
			/>
		<path class="st0" d="M125,82.4v4.4h-1.6v-4.4H114v-1.3l9.2-13.7h1.8v13.7h2.2v1.3H125z M123.5,68.9c0,0-0.6,1.2-1.4,2.3l-6.6,9.8
			h7.9v-9.5C123.5,70.3,123.6,68.9,123.5,68.9L123.5,68.9z"/>
		<path class="st0" d="M131.4,87.1l-0.5-1.4c4.6-1.3,7.4-4.3,8.6-7.6c-1,0.4-2.5,0.8-3.8,0.8c-3.9,0-6.5-2.1-6.5-5.8
			c0-3.1,2.5-5.9,6.2-5.9c4.3,0,6.4,3.3,6.4,7.2C141.8,79.5,138.2,85.2,131.4,87.1z M135.4,68.5c-2.8,0-4.6,2.2-4.6,4.5
			c0,3,2.1,4.5,5,4.5c1.2,0,3-0.4,4.1-0.9c0.2-0.8,0.3-1.6,0.3-2.4C140.2,71,138.5,68.5,135.4,68.5z"/>
	</g>
	<g>
		<path d="M74.3,30.9l-0.5-3.4c0-0.2,0-0.4,0-0.4h0c0,0-0.1,0.2-0.1,0.4l-1.1,3.4h-0.2l-1.1-3.4c-0.1-0.2-0.1-0.4-0.1-0.4h0
			c0,0,0,0.2,0,0.4l-0.5,3.4h-0.2l0.6-4h0.3l1,3.3c0.1,0.2,0.1,0.5,0.1,0.5h0c0,0,0.1-0.2,0.1-0.5l1-3.3h0.3l0.6,4H74.3z"/>
		<path d="M75.4,27.2c-0.1,0-0.2-0.1-0.2-0.2s0.1-0.2,0.2-0.2c0.1,0,0.2,0.1,0.2,0.2S75.5,27.2,75.4,27.2z M75.3,30.9v-3h0.2v3H75.3
			z"/>
		<path d="M77.2,31c-0.3,0-0.6-0.1-0.8-0.2l0.1-0.2c0.2,0.1,0.5,0.2,0.7,0.2c0.5,0,0.8-0.2,0.8-0.6c0-0.4-0.3-0.5-0.7-0.7
			c-0.5-0.2-0.8-0.4-0.8-0.9c0-0.4,0.3-0.7,0.9-0.7c0.3,0,0.6,0.1,0.7,0.2L78,28.3c-0.1-0.1-0.4-0.2-0.7-0.2c-0.4,0-0.7,0.2-0.7,0.6
			c0,0.4,0.3,0.5,0.7,0.7c0.5,0.2,0.9,0.4,0.9,0.9C78.2,30.7,77.8,31,77.2,31z"/>
		<path d="M79.6,31c-0.3,0-0.6-0.1-0.8-0.2l0.1-0.2c0.2,0.1,0.5,0.2,0.7,0.2c0.5,0,0.8-0.2,0.8-0.6c0-0.4-0.3-0.5-0.7-0.7
			c-0.5-0.2-0.8-0.4-0.8-0.9c0-0.4,0.3-0.7,0.9-0.7c0.3,0,0.6,0.1,0.7,0.2l-0.1,0.2c-0.1-0.1-0.4-0.2-0.7-0.2
			c-0.4,0-0.7,0.2-0.7,0.6c0,0.4,0.3,0.5,0.7,0.7c0.5,0.2,0.9,0.4,0.9,0.9C80.6,30.7,80.2,31,79.6,31z"/>
		<path d="M81.5,27.2c-0.1,0-0.2-0.1-0.2-0.2s0.1-0.2,0.2-0.2c0.1,0,0.2,0.1,0.2,0.2S81.6,27.2,81.5,27.2z M81.4,30.9v-3h0.2v3H81.4
			z"/>
		<path d="M83.7,31c-0.8,0-1.2-0.7-1.2-1.6s0.4-1.5,1.2-1.5c0.8,0,1.2,0.7,1.2,1.5S84.5,31,83.7,31z M83.7,28.1c-0.7,0-1,0.6-1,1.4
			c0,0.8,0.3,1.4,1,1.4c0.7,0,1-0.6,1-1.4C84.7,28.7,84.3,28.1,83.7,28.1z"/>
		<path d="M87.6,30.9v-2.1c0-0.5-0.3-0.8-0.9-0.8c-0.3,0-0.6,0.1-0.8,0.1v2.7h-0.2v-2.8c0.3-0.1,0.6-0.2,1-0.2c0.7,0,1.1,0.4,1.1,1
			v2.1H87.6z"/>
		<path d="M91.4,27.1v3.8h-0.2v-3.8H90v-0.2h2.5v0.2H91.4z"/>
		<path d="M94,31c-0.8,0-1.2-0.7-1.2-1.6s0.4-1.5,1.2-1.5c0.8,0,1.2,0.7,1.2,1.5S94.8,31,94,31z M94,28.1c-0.7,0-1,0.6-1,1.4
			c0,0.8,0.3,1.4,1,1.4c0.7,0,1-0.6,1-1.4C95,28.7,94.7,28.1,94,28.1z"/>
	</g>
</g>
</svg>
