<svg id="Layer_1" data-name="Layer 1" xmlns="http://www.w3.org/2000/svg" viewBox="0 0 170.08 113.39"><defs><style>.cls-1{fill:#1d1d1b;}.cls-2{fill:#fff;}</style></defs><title>positivus</title><path class="cls-1" d="M166.48,63.05a6.29,6.29,0,0,0,.88-1.12c.18-.35.67-.78.7-1.15,0-.1,0-.2,0-.3.09-1.81.17-3.59.42-5.4s.13-3.73.23-5.57c0-.51.05-1,.09-1.53a1.34,1.34,0,0,0,0-.69c-.07-.14-.21-.22-.28-.36a4.09,4.09,0,0,0-.25-.46,7.29,7.29,0,0,0-.53-.58c-.32-.31-.43-.78-.73-1.11s-.37-.33-.54-.52a5.92,5.92,0,0,1-.71-1,1.12,1.12,0,0,0-.28-.4,1.34,1.34,0,0,0-.24-.12c-.11-.1-.15-.28-.24-.4a4.7,4.7,0,0,0-1.09-1,1.9,1.9,0,0,0-1-.22c-.7-.06-1.39-.1-2.1-.1h-1a1.57,1.57,0,0,0-.49,0,.9.9,0,0,1-.34.05,1.19,1.19,0,0,1-.66-.4c-.13-.13-.32-.18-.45-.31s-.2-.23-.31-.33a8.9,8.9,0,0,1-.76-1,12.49,12.49,0,0,1-.94-1.23,6.22,6.22,0,0,0-1-1.14c-.11-.1-.23-.18-.34-.27a3.18,3.18,0,0,1-.31-.34A.85.85,0,0,0,154,36c-.53-.21-1.13.07-1.66.13a9.82,9.82,0,0,1-1.86-.27c-.8-.05-1.6,0-2.41,0H141.2a22.16,22.16,0,0,0-3.36,0c-.48.08-1,0-1.4.35a3.41,3.41,0,0,0-.43.57c-.19.26-.46.39-.61.68s0,.17-.16.3-.36.23-.5.38-.2.41-.64.4H115.4a11.1,11.1,0,0,0-1.73,0c-.32,0-.38.15-.59.38l-.24.22a2.59,2.59,0,0,0-.41.46,1.33,1.33,0,0,1-1.36.71h-6.53c-.82,0-1.63,0-2.45,0s-1.71.13-2.57.15-1.85,0-2.78,0c-2.22,0-4.49-.16-6.71,0a11.73,11.73,0,0,0-1.84.44,15.31,15.31,0,0,1-3,.09c-1.48,0-3-.15-4.43-.14-1.11,0-2.2-.12-3.31-.14s-2.28,0-3.42,0H72c-.75,0-1.48-.12-2.23-.14a40.75,40.75,0,0,1-4.69-.09c-1.17-.15-2.34-.13-3.51-.2-.77-.05-1.51-.11-2.28-.11a14.33,14.33,0,0,1-2.62,0,.33.33,0,0,0-.18-.11,2.67,2.67,0,0,0-.4,0c-.21,0-.61.08-.8,0s-.19-.26-.26-.38a3.55,3.55,0,0,1-.44-.78A3.66,3.66,0,0,0,54,37.61c-.44-.52-1.3-.44-1.9-.44H48.77a8.29,8.29,0,0,0-2.9.15,7.15,7.15,0,0,1-2.65.25c-.75,0-1.44-.13-2.2-.13H38.86c-.59,0-1.15-.14-1.75-.14H23c-1.52,0-3.07-.05-4.59,0-.54,0-1.06.13-1.6.15s-1.19,0-1.78,0H12.79a7.59,7.59,0,0,0-2,.14.79.79,0,0,0-.5.29c-.1.14-.12.32-.26.43s-.21.07-.32.26,0,.25-.15.38a.74.74,0,0,1-.32.16,3.39,3.39,0,0,0-.65.72,1,1,0,0,1-.43.37c-.36.18-.52.56-.88.73a2.48,2.48,0,0,1-1,0,10.12,10.12,0,0,0-1.74,0c-.18,0-.32.13-.51.15s-.44,0-.69,0c-.44.07-1.3.2-1.39.66,0,.17.05.38,0,.56a2.75,2.75,0,0,0-.11.29c-.05.21,0,.44,0,.64a16.6,16.6,0,0,1-.47,2,7.5,7.5,0,0,0-.08,2.27c0,1.39-.05,2.79,0,4.18s.24,2.63.28,3.94c0,1.13.07,2.24.12,3.36,0,.54.19,1.06.26,1.6s0,.84.13,1.28a21.67,21.67,0,0,1,.16,3.69c0,.54.15,1.05.14,1.6s.29.68.81.68a9.85,9.85,0,0,1,1.08.1,17.53,17.53,0,0,0,2.05,0c.24,0,.87-.12,1.06.06a3.59,3.59,0,0,1,.29.62c.13.21.15.5.34.66a1.15,1.15,0,0,1,.25.12c.09.08.07.18.15.28s.28.19.38.41a1.32,1.32,0,0,0,.35.47,3.31,3.31,0,0,0,.26.27,2.1,2.1,0,0,0,1.5.11,11.19,11.19,0,0,1,1.83.13,4.58,4.58,0,0,1,1,.1,26.69,26.69,0,0,0,4.9.17,16.66,16.66,0,0,0,1.87,0c.7-.08.82-.55,1.14-1,.14-.24.34-.29.51-.47a.4.4,0,0,0,.16-.25c.16-.14.35-.12.5-.27s.16-.48.36-.65.22-.08.31-.19.07-.27.22-.36a3.79,3.79,0,0,1,.89,0,7.29,7.29,0,0,1,1.62.13,5.39,5.39,0,0,0,1.7.13c1.51,0,3,0,4.53,0s2.74.14,4.13.14c1.8,0,3.59-.14,5.39-.14,4.58,0,9.16,0,13.75,0,3,0,6,.08,9,.08.36,0,.62-.1.8.25s.44.71.62,1.11.52,1,.73,1.5c.4,1,.87,2,1.31,2.94a14.36,14.36,0,0,1,.8,1.79c.11.36.15,1,.37,1.18s.71.15,1.05.21a5.68,5.68,0,0,0,1.09.11c2.07,0,4.15.06,6.21.06H98.19c3.44,0,6.87-.36,10.31-.41,1.4,0,2.8-.14,4.2-.13,1.91,0,3.83,0,5.75.1s3.59.06,5.39.06h1.85a12.87,12.87,0,0,0,1.39-.17c.69-.06,1.38,0,2.07,0s.41-.54.53-1a7.7,7.7,0,0,1,.56-1.24c.33-.74.77-1.46,1.06-2.22a5.8,5.8,0,0,1,.52-1.06c.23-.32.43-.63.64-1a2,2,0,0,1,.52-.49,2.27,2.27,0,0,1,1.22-.18c.71,0,1.41-.19,2.12-.19a16,16,0,0,1,2.3,0,6.4,6.4,0,0,0,1.31,0c.48,0,1,0,1.45-.06,1.45,0,2.9-.16,4.35-.19,2.54,0,5.08,0,7.61,0h1.23c.66,0,1.31,0,2,0,.49,0,1,0,1.47-.08s.91-.23,1.39-.25a7.32,7.32,0,0,0,.94,0c.57-.1.83-.48,1.2-.87a8.68,8.68,0,0,0,1-1.23,8.12,8.12,0,0,1,1.2-1.14c.17-.17.3-.34.46-.51a2.91,2.91,0,0,1,.46-.32"/><path class="cls-2" d="M35.31,50.69a6.08,6.08,0,0,1,.63,2.93,6.48,6.48,0,0,1-.66,3.05,2.18,2.18,0,0,1-1.9,1.4H29.54a2.22,2.22,0,0,1-1.94-1.4A6.61,6.61,0,0,1,27,53.62a6.07,6.07,0,0,1,.64-2.93,2.19,2.19,0,0,1,1.94-1.33h3.84A2.19,2.19,0,0,1,35.31,50.69Zm4.22,3.21a9.52,9.52,0,0,0-1.41-5.3,4.81,4.81,0,0,0-4.19-2.43H29A4.78,4.78,0,0,0,24.8,48.6a9.53,9.53,0,0,0-1.42,5.3A8.87,8.87,0,0,0,24.78,59,4.76,4.76,0,0,0,29,61.35h5A4.78,4.78,0,0,0,38.15,59,9.17,9.17,0,0,0,39.53,53.9Z"/><path class="cls-2" d="M44.5,57.71a1,1,0,0,0,.85.41H54v3.23H44.82a3.64,3.64,0,0,1-3-1.44,5.2,5.2,0,0,1-1-3.19,5.12,5.12,0,0,1,1-3.2,3.66,3.66,0,0,1,3-1.43h5.09a1,1,0,0,0,.86-.39,1.39,1.39,0,0,0,.31-.93,1.49,1.49,0,0,0-.31-1,1.06,1.06,0,0,0-.86-.45H41.69V46.17h8.77a3.66,3.66,0,0,1,3,1.45,4.85,4.85,0,0,1,1,3.15,4.91,4.91,0,0,1-1,3.18,3.65,3.65,0,0,1-3,1.42H45.35a1,1,0,0,0-.83.38,1.66,1.66,0,0,0-.29.94A1.71,1.71,0,0,0,44.5,57.71Z"/><rect class="cls-2" x="56.29" y="46.17" width="3.36" height="15.18"/><polygon class="cls-2" points="73.62 49.36 69.19 49.36 69.19 61.35 65.88 61.35 65.88 49.36 61.47 49.36 61.47 46.17 73.62 46.17 73.62 49.36"/><path class="cls-2" d="M83.62,46.17l3.9,11.71a.35.35,0,0,0,.33.24.33.33,0,0,0,.33-.23L92,46.17h3.63c-.33,1.09-.76,2.54-1.35,4.32-.69,2.24-1.34,4.28-2,6.13A33.51,33.51,0,0,1,91.07,60a2.93,2.93,0,0,1-1.37,1.14,5.31,5.31,0,0,1-1.85.33A5,5,0,0,1,86,61.18,2.92,2.92,0,0,1,84.62,60a30.81,30.81,0,0,1-1.29-3.39c-.43-1.3-1.09-3.33-2-6.14-.72-2.33-1.19-3.78-1.36-4.34Z"/><rect class="cls-2" x="75.28" y="46.17" width="3.35" height="15.18"/><rect class="cls-2" x="84.2" y="70.13" width="5.59" height="1.11"/><rect class="cls-2" x="84.2" y="67.43" width="5.59" height="1.11"/><polygon class="cls-2" points="89.8 65.66 84.59 65.66 84.21 65.66 79.01 65.66 79.01 67.26 83.49 67.26 83.49 68.37 79.01 68.37 79.01 71.5 77.9 70.68 77.9 64.56 84.21 64.56 84.59 64.56 89.8 64.56 89.8 65.66"/><path class="cls-2" d="M93.07,71.29a4.45,4.45,0,0,1-1.16-.15,2.91,2.91,0,0,1-1.68-1.24l1-.71a2.19,2.19,0,0,0,2,1,1.71,1.71,0,0,0,.7-.11.78.78,0,0,0,.56-.75.66.66,0,0,0-.49-.64,4.25,4.25,0,0,0-.76-.21l-.78-.16a6.51,6.51,0,0,1-.83-.23,1.67,1.67,0,0,1-1.09-1.6c0-1.23,1-2,2.57-2a3,3,0,0,1,2.62,1.32l-1,.75a1.89,1.89,0,0,0-1.69-1c-.65,0-1.22.29-1.22.79s.61.67,1.2.78l.67.15c.88.18,2.11.54,2.11,1.93S94.46,71.29,93.07,71.29Z"/><polygon class="cls-2" points="101.84 65.66 99.6 65.66 99.6 71.03 98.5 71.03 98.5 65.66 96.26 65.66 96.26 64.56 101.84 64.56 101.84 65.66"/><rect class="cls-2" x="102.38" y="64.56" width="1.1" height="6.51"/><path class="cls-2" d="M99.21,60.13a5.09,5.09,0,0,1-2-4.22V46.17h3.34v9.2a2.83,2.83,0,0,0,1,2.3,3.93,3.93,0,0,0,2.38.67,4.1,4.1,0,0,0,2.25-.63,2.69,2.69,0,0,0,1-2.14v-9.4h3.23v9.74a5.14,5.14,0,0,1-2.13,4.27,7.39,7.39,0,0,1-4.6,1.34A7.18,7.18,0,0,1,99.21,60.13Z"/><rect class="cls-2" x="109.89" y="63.34" width="3.23" height="0.68"/><polygon class="cls-2" points="106.11 71.07 103.88 64.55 104.96 64.56 106.81 70.16 108.66 64.57 109.72 64.57 107.49 71.06 106.11 71.07"/><path class="cls-2" d="M111.5,65.47l1.1,3.24h-2.19Zm2.93,5.6-2.19-6.52h-1.46l-2.19,6.49h1.06l.45-1.39h2.8l.46,1.4Z"/><path class="cls-2" d="M112.75,59.91a5.14,5.14,0,0,1-1-3.19,5.06,5.06,0,0,1,1-3.2,3.66,3.66,0,0,1,3-1.43h5.08a1,1,0,0,0,.86-.39,1.4,1.4,0,0,0,.32-.93,1.5,1.5,0,0,0-.32-1,1,1,0,0,0-.86-.45h-8.21V46.17h8.77a3.68,3.68,0,0,1,3,1.45,4.85,4.85,0,0,1,1,3.15,4.91,4.91,0,0,1-1,3.18,3.67,3.67,0,0,1-3,1.42h-5.11a1,1,0,0,0-.84.38,1.77,1.77,0,0,0,0,1.94,1,1,0,0,0,.82.43h9v3.23H115.8A3.64,3.64,0,0,1,112.75,59.91Z"/><polygon class="cls-2" points="119.57 71.07 116.13 71.07 115.03 71.07 115.03 69.97 115.03 64.56 116.13 64.56 116.13 69.97 119.57 69.97 119.57 71.07"/><path class="cls-2" d="M122.87,71.29a4.4,4.4,0,0,1-1.16-.15A2.93,2.93,0,0,1,120,69.9l1-.71a2.21,2.21,0,0,0,2,1,1.79,1.79,0,0,0,.71-.11.77.77,0,0,0,.55-.75.66.66,0,0,0-.49-.64,4.25,4.25,0,0,0-.76-.21l-.78-.16a5.81,5.81,0,0,1-.82-.23,1.66,1.66,0,0,1-1.1-1.6c0-1.23,1-2,2.58-2a3.06,3.06,0,0,1,2.62,1.32l-1,.75a1.9,1.9,0,0,0-1.69-1c-.66,0-1.23.29-1.23.79s.61.67,1.2.78l.68.15c.87.18,2.11.54,2.11,1.93S124.26,71.29,122.87,71.29Z"/><path class="cls-2" d="M147,48.11h2c2,0,2.68,1,2.68,2.15,0,1.64-1.07,2.45-3.26,2.45H147Z"/><polygon class="cls-2" points="137.61 54.95 132.83 54.93 135.15 49.37 137.61 54.95"/><polygon class="cls-2" points="129.03 58.48 129.08 46.17 134.33 46.2 129.03 58.48"/><polygon class="cls-2" points="130.05 61.36 131.97 56.91 138.5 56.94 140.5 61.4 130.05 61.36"/><polygon class="cls-2" points="144.71 61.42 142.76 61.41 136.07 46.2 144.76 46.23 144.71 61.42"/><path class="cls-2" d="M149.69,59.53h-2.77l0-4.83,2.66,0c2.32,0,3.4,1,3.39,2.4C153,58.26,152.29,59.54,149.69,59.53Z"/><path class="cls-2" d="M158.07,61.47h-.8V59h0a1.35,1.35,0,0,0-1.35,1.35,1.28,1.28,0,0,0,.53,1.07h-5.31c3-.39,4.13-2.33,4.14-4,0-2.07-1.38-3.59-3.68-4.07a3.27,3.27,0,0,0,2.35-3.28,3.84,3.84,0,0,0-3.41-3.82l6.8,0L157.28,59a1.36,1.36,0,0,1,1.33,1.36A1.33,1.33,0,0,1,158.07,61.47Z"/><path class="cls-2" d="M21.75,61.35H18.43V57.64A2.46,2.46,0,0,0,18,56.1a1.92,1.92,0,0,0-1.71-.73h-4.6a3.69,3.69,0,0,1-3-1.46,5.36,5.36,0,0,1,0-6.29,3.64,3.64,0,0,1,3-1.45h10ZM11.4,49.81a1.45,1.45,0,0,0-.32,1,1.42,1.42,0,0,0,.32.95,1,1,0,0,0,.89.41h5.48a5.49,5.49,0,0,1,.7,0V49.36H12.29A1.06,1.06,0,0,0,11.4,49.81Z"/></svg>