<svg id="Layer_1" data-name="Layer 1" xmlns="http://www.w3.org/2000/svg" viewBox="0 0 170.08 113.39"><title>rsu</title><path d="M72.59,30.25l-3.67-7.52H66.27v7.52H62.59V11.41H70c3.84,0,6.12,2.62,6.12,5.77a5.1,5.1,0,0,1-3.44,4.95l4.21,8.12ZM69.74,14.69H66.27v5h3.47a2.5,2.5,0,1,0,0-5Z"/><path d="M84.69,34.26c-2.86,0-5-.61-6.89-2.49l2.39-2.38A6.16,6.16,0,0,0,84.74,31c2.17,0,3.33-.82,3.33-2.33a2.07,2.07,0,0,0-.58-1.58,2.75,2.75,0,0,0-1.67-.66l-2.27-.32a6.36,6.36,0,0,1-3.65-1.56,5,5,0,0,1-1.35-3.71c0-3.36,2.48-5.72,6.56-5.72a8.1,8.1,0,0,1,6.09,2.2l-2.33,2.3A5.27,5.27,0,0,0,85,18.3c-2,0-2.91,1.08-2.91,2.38A1.81,1.81,0,0,0,82.65,22a3.3,3.3,0,0,0,1.75.74l2.22.32a6.27,6.27,0,0,1,3.6,1.45,5.31,5.31,0,0,1,1.45,4C91.67,32.19,88.63,34.26,84.69,34.26Z"/><path d="M100.92,30.41c-3.86,0-6.93-2.62-6.93-6.62V11.41h3.68V23.66c0,2.17,1.27,3.47,3.25,3.47a3.14,3.14,0,0,0,3.29-3.47V11.41h3.65V23.79C107.86,27.79,104.79,30.41,100.92,30.41Z"/><path d="M46.14,73.12a8.72,8.72,0,0,1-6.32,2.29H31.18V51.47h8.64a8.71,8.71,0,0,1,6.32,2.28c2.69,2.69,2.42,6,2.42,9.59S48.83,70.43,46.14,73.12Zm-3.26-16a4.16,4.16,0,0,0-3.5-1.48H35.85v15.6h3.53a4.19,4.19,0,0,0,3.5-1.48c.87-1.08,1-2.79,1-6.42S43.75,58.19,42.88,57.12Z"/><path d="M52.21,75.41V51.47H68v4.17H56.89v5.61h9.44v4.17H56.89v5.82H68v4.17Z"/><path d="M78.88,75.61c-3.64,0-6.39-.77-8.75-3.16l3-3a7.8,7.8,0,0,0,5.78,2c2.76,0,4.24-1,4.24-3a2.67,2.67,0,0,0-.74-2,3.63,3.63,0,0,0-2.12-.84l-2.89-.4a8.13,8.13,0,0,1-4.64-2,6.35,6.35,0,0,1-1.71-4.71c0-4.27,3.16-7.27,8.33-7.27,3.3,0,5.69.81,7.74,2.8l-3,2.92a6.69,6.69,0,0,0-4.91-1.65c-2.49,0-3.7,1.38-3.7,3a2.31,2.31,0,0,0,.71,1.72,4.2,4.2,0,0,0,2.22.94l2.82.4a7.86,7.86,0,0,1,4.57,1.85,6.7,6.7,0,0,1,1.85,5.08C87.75,73,83.89,75.61,78.88,75.61Z"/><path d="M90.88,75.41V51.47h4.67V75.41Z"/><path d="M114.82,72.89a9,9,0,0,1-6.76,2.72A8.77,8.77,0,0,1,101.6,73a7,7,0,0,1-1.95-3.6,32.68,32.68,0,0,1-.4-6,32.6,32.6,0,0,1,.4-5.95,6.82,6.82,0,0,1,1.95-3.6,8.78,8.78,0,0,1,6.46-2.63,8.58,8.58,0,0,1,9,7.67h-4.71a4.06,4.06,0,0,0-4.3-3.49,3.82,3.82,0,0,0-3,1.27c-.87,1.11-1.14,2-1.14,6.73s.2,5.65,1.14,6.76a3.71,3.71,0,0,0,3,1.24,4.35,4.35,0,0,0,3.33-1.34,4.75,4.75,0,0,0,1.07-3.2V66h-4.4v-3.9h9v3.5C117.1,69.09,116.46,71.14,114.82,72.89Z"/><path d="M134.73,75.41l-9.48-14.7v14.7h-4.67V51.47h4.17l9.48,14.66V51.47h4.67V75.41Z"/><path d="M49.56,102A6.12,6.12,0,0,1,45,100.14a4.81,4.81,0,0,1-1.37-2.52,22.78,22.78,0,0,1-.29-4.18,22.66,22.66,0,0,1,.29-4.17A4.7,4.7,0,0,1,45,86.75a6.12,6.12,0,0,1,4.52-1.84,5.92,5.92,0,0,1,6.18,5.3H52.42a2.78,2.78,0,0,0-2.83-2.38,2.61,2.61,0,0,0-2.1.87c-.69.74-.83,1.49-.83,4.74s.14,4,.83,4.74a2.59,2.59,0,0,0,2.1.88,2.78,2.78,0,0,0,2.83-2.39h3.32A5.94,5.94,0,0,1,49.56,102Z"/><path d="M68.24,100.14a6.52,6.52,0,0,1-9.08,0c-1.69-1.7-1.65-3.8-1.65-6.7s0-5,1.65-6.69a6.52,6.52,0,0,1,9.08,0c1.7,1.7,1.68,3.79,1.68,6.69S69.94,98.44,68.24,100.14ZM65.81,88.73a2.72,2.72,0,0,0-2.09-.9,2.8,2.8,0,0,0-2.13.9c-.63.71-.8,1.48-.8,4.71s.17,4,.8,4.72a2.8,2.8,0,0,0,2.13.9,2.72,2.72,0,0,0,2.09-.9c.64-.71.83-1.49.83-4.72S66.45,89.44,65.81,88.73Z"/><path d="M78.44,102a5.84,5.84,0,0,1-6.17-5.9v-11h3.27V96a2.92,2.92,0,1,0,5.83,0V85.05h3.25v11A5.84,5.84,0,0,1,78.44,102Z"/><path d="M96.45,101.84l-3.28-6.7H90.81v6.7H87.54V85.05h6.57a5.07,5.07,0,0,1,5.45,5.14A4.52,4.52,0,0,1,96.5,94.6l3.75,7.24ZM93.9,88H90.81v4.44H93.9a2.23,2.23,0,1,0,0-4.44Z"/><path d="M107.22,102c-2.55,0-4.48-.54-6.13-2.22l2.12-2.12a5.51,5.51,0,0,0,4.06,1.42c1.93,0,3-.74,3-2.08a1.87,1.87,0,0,0-.52-1.41,2.44,2.44,0,0,0-1.49-.59l-2-.29A5.72,5.72,0,0,1,103,93.3a4.43,4.43,0,0,1-1.2-3.3c0-3,2.22-5.09,5.85-5.09a7.16,7.16,0,0,1,5.42,2l-2.08,2a4.64,4.64,0,0,0-3.44-1.16c-1.74,0-2.59,1-2.59,2.12a1.64,1.64,0,0,0,.49,1.21,3,3,0,0,0,1.56.66l2,.28a5.57,5.57,0,0,1,3.21,1.3,4.7,4.7,0,0,1,1.29,3.56C113.44,100.14,110.73,102,107.22,102Z"/><path d="M115.64,101.84V85.05h11V88h-7.78v3.94h6.63v2.93h-6.63v4.07h7.78v2.93Z"/><rect x="31.18" y="40.19" width="107.73" height="2.47"/></svg>