<svg id="Layer_1" data-name="Layer 1" xmlns="http://www.w3.org/2000/svg" viewBox="0 0 170.08 113.39"><defs><style>.cls-1{fill:none;stroke:#1a171b;stroke-miterlimit:10;stroke-width:0.87px;}.cls-2{fill:#1a171b;}</style></defs><title>saistoss</title><rect class="cls-1" x="6.61" y="15.15" width="156.85" height="83.09"/><path class="cls-2" d="M112.14,40.64h-8.67V28.26a.82.82,0,0,1,.83-.83h.39a.84.84,0,0,1,.84.83V38.78h6.61a.77.77,0,0,1,.83.78v.3A.77.77,0,0,1,112.14,40.64Zm-3.66,5h-2.14a.46.46,0,0,1-.42-.5V45a.44.44,0,0,1,.42-.42h1.73a.51.51,0,0,0,.52-.5v-.26c0-.33-.11-.55-.55-.55h-1.37V41.09h1.12v1.09h.67a1.2,1.2,0,0,1,1.25,1.17v1.09A1.19,1.19,0,0,1,108.48,45.61Z"/><path class="cls-2" d="M125.05,40.64H120.5a3.1,3.1,0,0,1-3.09-3.12v-7a3.15,3.15,0,0,1,3.2-3.07h4.33a3.16,3.16,0,0,1,3.2,3.07v7A3.12,3.12,0,0,1,125.05,40.64Zm1-9.81a1.54,1.54,0,0,0-1.53-1.53H121a1.52,1.52,0,0,0-1.53,1.53v6.41A1.51,1.51,0,0,0,121,38.78h3.57a1.53,1.53,0,0,0,1.53-1.54Z"/><path class="cls-2" d="M140.66,29.3H137V39.81a.84.84,0,0,1-.84.83h-.39a.82.82,0,0,1-.83-.83V29.3h-3.65a.8.8,0,0,1-.87-.78v-.31a.79.79,0,0,1,.84-.78h9.39a.8.8,0,0,1,.87.78v.31A.8.8,0,0,1,140.66,29.3Z"/><path class="cls-2" d="M149.7,40.64h-5.24a.77.77,0,0,1-.84-.78v-.3a.79.79,0,0,1,.84-.78H146V29.3h-1.45a.78.78,0,0,1-.83-.78v-.31a.79.79,0,0,1,.83-.78h5a.79.79,0,0,1,.83.78v.31a.78.78,0,0,1-.83.78h-1.45v9.48h1.59a.79.79,0,0,1,.83.78v.3A.77.77,0,0,1,149.7,40.64Z"/><path class="cls-2" d="M57.18,64.17H50.29a.78.78,0,0,1-.84-.78v-.31a.78.78,0,0,1,.84-.78h6.5c1,0,1.2-1,1.2-1.59V59.6a1.12,1.12,0,0,0-1.2-1.2H52.21a2.79,2.79,0,0,1-2.73-2.82V53.86A3.14,3.14,0,0,1,52.66,51h5.49a.8.8,0,0,1,.87.78V52a.79.79,0,0,1-.84.78h-5a1.39,1.39,0,0,0-1.58,1.43v1a1.44,1.44,0,0,0,1.53,1.39h4.49a2.36,2.36,0,0,1,2.48,2.51v1.87A2.79,2.79,0,0,1,57.18,64.17Z"/><path class="cls-2" d="M72.9,64.17h-.39a.76.76,0,0,1-.61-.39l-.28-.47a.45.45,0,0,0-.5-.28c-.92,0-2.2,1.23-4.32,1.23h-.42c-2.4,0-3.6-1.48-3.6-3.29v-1.9c0-1.81,1.2-3.29,3.6-3.29h.42c2.12,0,3.4,1.28,4.32,1.28a.45.45,0,0,0,.39-.5v-2a1.64,1.64,0,0,0-1.81-1.79H64.76A.8.8,0,0,1,63.9,52v-.3a.79.79,0,0,1,.83-.78h5.69A3.18,3.18,0,0,1,73.57,54v9.45A.66.66,0,0,1,72.9,64.17Zm-1.39-5a1.43,1.43,0,0,0-1.45-1.42H66.3a1.43,1.43,0,0,0-1.45,1.42v1.73A1.43,1.43,0,0,0,66.3,62.3h3.76a1.43,1.43,0,0,0,1.45-1.42Z"/><path class="cls-2" d="M83.19,64.17H78a.78.78,0,0,1-.84-.78v-.31A.8.8,0,0,1,78,62.3h1.59V52.82H78.09a.78.78,0,0,1-.84-.78v-.3a.8.8,0,0,1,.84-.78h5a.79.79,0,0,1,.84.78V52a.77.77,0,0,1-.84.78H81.6V62.3h1.59a.8.8,0,0,1,.84.78v.31A.78.78,0,0,1,83.19,64.17Z"/><path class="cls-2" d="M94.85,64.17H88a.78.78,0,0,1-.84-.78v-.31A.78.78,0,0,1,88,62.3h6.5c1,0,1.2-1,1.2-1.59V59.6a1.12,1.12,0,0,0-1.2-1.2H89.88a2.79,2.79,0,0,1-2.73-2.82V53.86A3.14,3.14,0,0,1,90.33,51h5.49a.8.8,0,0,1,.87.78V52a.79.79,0,0,1-.84.78h-5a1.39,1.39,0,0,0-1.58,1.43v1a1.45,1.45,0,0,0,1.53,1.39h4.49a2.36,2.36,0,0,1,2.48,2.51v1.87A2.79,2.79,0,0,1,94.85,64.17Z"/><path class="cls-2" d="M109.79,52.82h-3.68V63.34a.83.83,0,0,1-.83.83h-.39a.82.82,0,0,1-.84-.83V52.82H100.4a.8.8,0,0,1-.87-.78v-.3a.79.79,0,0,1,.84-.78h9.39a.8.8,0,0,1,.87.78V52A.79.79,0,0,1,109.79,52.82Z"/><path class="cls-2" d="M120.53,64.17H116a3.1,3.1,0,0,1-3.09-3.12V54A3.16,3.16,0,0,1,116.1,51h4.32a3.15,3.15,0,0,1,3.2,3.06v7A3.12,3.12,0,0,1,120.53,64.17Zm1-9.81A1.55,1.55,0,0,0,120,52.82h-3.54A1.53,1.53,0,0,0,115,54.36v6.41a1.51,1.51,0,0,0,1.51,1.53H120a1.53,1.53,0,0,0,1.53-1.53Z"/><path class="cls-2" d="M134.58,64.17h-6.89a.78.78,0,0,1-.83-.78v-.31a.78.78,0,0,1,.83-.78h6.5c.95,0,1.2-1,1.2-1.59V59.6a1.12,1.12,0,0,0-1.2-1.2h-4.57a2.78,2.78,0,0,1-2.73-2.82V53.86a3.13,3.13,0,0,1,3.17-2.9h5.5a.8.8,0,0,1,.86.78V52a.79.79,0,0,1-.83.78h-5.05A1.4,1.4,0,0,0,129,54.25v1a1.45,1.45,0,0,0,1.53,1.39H135a2.36,2.36,0,0,1,2.48,2.51v1.87A2.79,2.79,0,0,1,134.58,64.17Zm1.62-17.93-3,2.79a1,1,0,0,1-.75.28h-.95a1,1,0,0,1-.75-.28l-3-2.79a.47.47,0,0,1,0-.64l.25-.25a.54.54,0,0,1,.7,0l3.34,2.26,3.35-2.26a.54.54,0,0,1,.7,0l.25.25A.48.48,0,0,1,136.2,46.24Z"/><path class="cls-2" d="M148,64.17h-6.89a.78.78,0,0,1-.84-.78v-.31a.78.78,0,0,1,.84-.78h6.5c.94,0,1.2-1,1.2-1.59V59.6a1.12,1.12,0,0,0-1.2-1.2H143a2.79,2.79,0,0,1-2.73-2.82V53.86a3.14,3.14,0,0,1,3.18-2.9h5.49a.8.8,0,0,1,.87.78V52a.79.79,0,0,1-.84.78h-5.05a1.4,1.4,0,0,0-1.59,1.43v1a1.45,1.45,0,0,0,1.54,1.39h4.49a2.36,2.36,0,0,1,2.48,2.51v1.87A2.79,2.79,0,0,1,148,64.17Z"/><path class="cls-2" d="M80.21,85.08H75a.77.77,0,0,1-.84-.78V84a.79.79,0,0,1,.84-.78h1.59V73.74H75.11a.78.78,0,0,1-.84-.78v-.31a.79.79,0,0,1,.84-.78h5a.8.8,0,0,1,.84.78V73a.78.78,0,0,1-.84.78H78.62v9.48h1.59a.8.8,0,0,1,.84.78v.3A.78.78,0,0,1,80.21,85.08Z"/><path class="cls-2" d="M93.76,79.31H86.65v2.21a1.59,1.59,0,0,0,1.81,1.7h3.85a.77.77,0,0,1,.84.78v.3a.77.77,0,0,1-.84.78H87.63a3.17,3.17,0,0,1-3-3.17v-7a3.16,3.16,0,0,1,3.2-3.07h4.38a3.16,3.16,0,0,1,3.21,3.07v2.7A1.5,1.5,0,0,1,93.76,79.31Zm-.44-4.07a1.5,1.5,0,0,0-1.51-1.5H88.16a1.5,1.5,0,0,0-1.51,1.5v2.34h6.67Z"/><path class="cls-2" d="M105,84a1.66,1.66,0,0,1-1.29,1.08H103A1.65,1.65,0,0,1,101.71,84L97.5,73.1A.76.76,0,0,1,98,72l.39-.17a.73.73,0,0,1,1.09.44l2.9,7.9c.61,1.7,1,3.06,1,3.06h.08s.36-1.36,1-3.06l2.9-7.9a.72.72,0,0,1,1.08-.44l.39.17a.77.77,0,0,1,.48,1.06Z"/><path class="cls-2" d="M121.62,85.08h-.39a.79.79,0,0,1-.62-.39l-.28-.47a.44.44,0,0,0-.5-.28c-.92,0-2.2,1.23-4.32,1.23h-.42c-2.39,0-3.59-1.48-3.59-3.29V80c0-1.81,1.2-3.29,3.59-3.29h.42c2.12,0,3.4,1.29,4.32,1.29.23,0,.39-.23.39-.51v-2a1.63,1.63,0,0,0-1.81-1.78h-4.93a.8.8,0,0,1-.87-.78v-.31a.8.8,0,0,1,.84-.78h5.69a3.19,3.19,0,0,1,3.15,3.07v9.45A.66.66,0,0,1,121.62,85.08Zm-1.4-5a1.44,1.44,0,0,0-1.45-1.43H115a1.44,1.44,0,0,0-1.45,1.43v1.72A1.43,1.43,0,0,0,115,83.22h3.76a1.43,1.43,0,0,0,1.45-1.43Z"/><path class="cls-2" d="M133.91,85.08H126V72.57a.69.69,0,0,1,.75-.7h.39a.58.58,0,0,1,.47.31l.34.58a.56.56,0,0,0,.42.31c1.28,0,1.89-1.28,4.6-1.28h.64c2.2,0,3.43,1.25,3.43,3.15V82A3,3,0,0,1,133.91,85.08Zm1-9.81a1.51,1.51,0,0,0-1.51-1.53h-3.85A1.54,1.54,0,0,0,128,75.27v8h5.24A1.71,1.71,0,0,0,135,81.63Z"/><path class="cls-2" d="M148,85.08h-6.89a.78.78,0,0,1-.84-.78V84a.78.78,0,0,1,.84-.78h6.5c.95,0,1.2-1,1.2-1.59V80.51a1.12,1.12,0,0,0-1.2-1.2H143a2.79,2.79,0,0,1-2.74-2.81V74.77a3.15,3.15,0,0,1,3.18-2.9h5.49a.8.8,0,0,1,.87.78V73a.8.8,0,0,1-.84.78h-5a1.39,1.39,0,0,0-1.59,1.42v1a1.45,1.45,0,0,0,1.53,1.39h4.49a2.36,2.36,0,0,1,2.48,2.51V82A2.79,2.79,0,0,1,148,85.08Z"/></svg>