<svg id="Layer_1" data-name="Layer 1" xmlns="http://www.w3.org/2000/svg" xmlns:xlink="http://www.w3.org/1999/xlink" viewBox="0 0 170.08 113.39"><defs><style>.cls-1{fill:none;clip-rule:evenodd;}.cls-2{fill:#d5d9dc;}.cls-2,.cls-4{fill-rule:evenodd;}.cls-3{fill:#140f11;}.cls-4{fill:#fff;}.cls-5{clip-path:url(#clip-path);}</style><clipPath id="clip-path"><path class="cls-1" d="M61.7,37.05c-2.68.34-4.47,4.55-7.73,8.7s-2,6.55-.54,8.83a17.92,17.92,0,0,1,2.44,7c.41,2.28,2.44,5.09,9.23,6.42s11.8,3.21,20.76,2.68S103.77,69,110.15,72s8.41-2,13.57-3.35,5.16-2.54,5.43-6.15.27-7.89-3.4-10.7a34.58,34.58,0,0,0-16-6.42,183.28,183.28,0,0,0-22.66-1.47c-7.06-.14-14.25-1.21-17.1-3S65,36.65,61.7,37.05Z"/></clipPath></defs><title>survival</title><path class="cls-2" d="M128.34,58c0,21.53-17.71,39-39.56,39S49.22,79.52,49.22,58,66.93,19,88.78,19,128.34,36.45,128.34,58Z"/><path class="cls-3" d="M88.78,98.31C66.22,98.31,47.87,80.22,47.87,58S66.22,17.66,88.78,17.66,129.69,35.75,129.69,58,111.34,98.31,88.78,98.31Zm0-78C67.71,20.33,50.57,37.22,50.57,58S67.71,95.64,88.78,95.64,127,78.75,127,58,109.85,20.33,88.78,20.33Z"/><path class="cls-4" d="M52.25,12.35H53c2.11,2,2.13,4.84,3.08,7.49.75,2.1,2.65,4,3.62,6.42a18.86,18.86,0,0,0,3.7,6.33A12.8,12.8,0,0,0,65.82,34c1.17.75,1.74,2,2.71,2.76,1.85,1.54,5,2.2,8,2.77,1.44.26,2.78.85,4.26,1.16s3.23.33,4.88.53a38.09,38.09,0,0,0,4.89.54c1.75,0,3.45-.1,5.24,0,3.43.17,6.9.67,10.32.53a14.92,14.92,0,0,1,1.72-.09,9.09,9.09,0,0,1,1.36.54c.38.12.9.06,1.17.18s.51.58.81.71a15.18,15.18,0,0,0,2.9.62c3.1.64,5.42,1.06,7.78,2.59,1.34.87,2.81,1.79,4.16,2.76,3,2.18,5.9,4.54,5.61,10.17a23.08,23.08,0,0,0-.18,4.55c.18,1.22.75,2.37,1.09,3.74.38,1.58.32,3,.54,4.38.44,2.76,2,4.38,3.62,6.33,2,1,3.11,2.87,4.16,4.81v.54c-.7.9-1.68.67-2.26,1.6a10.53,10.53,0,0,0-.55,3.57,31.85,31.85,0,0,0-.36,4.81,19.13,19.13,0,0,1,.27,3.22c-.13,1.22-1,2.79-2,2.94s-1.91-.69-2.89.09H132a2.55,2.55,0,0,1-.45-3.48c.4-.54,1.23-.62,1.63-1.07.95-1.08.44-2.8.18-4.46a22.12,22.12,0,0,0-.54-3c-.72-2.13-1.82-2.83-3.35-4.19A22.67,22.67,0,0,0,127,81.73c-3.36-2.09-7.73-2.92-10.32-5.44a19.08,19.08,0,0,0,2.08,4c.65.77,2.15,1.4,2.27,2.5.13,1.26-1.28,2.09-2.18,2.76a20.19,20.19,0,0,0-2.71,2.32c-1.6,1.8-2.46,4.21-5,4.73-.35.33-.33,1-.63,1.43-.67.36-1.42.17-2.17.35-.44.11-.8.46-1.27.54a5.59,5.59,0,0,1-2.35-.45c-1-.17-2.58.42-3.08-.27-.79-1.1.92-2.75,1.36-2.94a9.69,9.69,0,0,1,2.17-.18c.37,0,.8-.27,1.18-.36.54-.11,1.09-.06,1.45-.17.86-.28,1.67-1.49,2.35-2.32,1.1-1.35,2.75-2.31,1.81-4.28-.19-.4-.8-.75-1-1.07a11.75,11.75,0,0,1-.36-1.25A27,27,0,0,0,109,79a18.23,18.23,0,0,0-2-2.31c-.51-.62-.7-1.47-1.54-1.79a4,4,0,0,0-.27-.89c-1-1.19-3-1.54-4.25-2.5-.27.19-.08.81-.36,1-.55,0-.77-.32-1.18-.45-.36,0-.35.42-.81.35-.91-.38-1.74,0-2.72,0a38.61,38.61,0,0,0-4.25-.17c-.88.11-1.66.62-2.53.71s-1.61-.06-2.44,0c-1.69.13-3.34.78-5.07.89-2.15.13-4.15-.36-6.42-.18-.3.49.2,1.24,0,1.61,0,.57-.71.37-.82.8.22,2-.88,2.7-.72,4.64,0,.41-.5,0-.73.09-.24,1.68-.8,3.51-.9,5.44s.75,4.08-.09,5.8c-.22.29-.95.07-1.27.26-.62,1-.27,2.47-.63,3.48-.3.84-1.17,1.21-1.63,2s-.46,1.67-1.27,2c-.67.16-1.1-.17-1.72-.09s-.78.51-1.17.54-.91-.36-1.45-.36c-.76,0-1.32.51-2,.36a2,2,0,0,1-1-2.76c.59-1.23,3-1,3.34-2.33-.8-.17-1.26.61-2.08.63-.46,0-.76-.3-1.26-.36s-1.24.27-1.9,0a2.71,2.71,0,0,1-.28-1.69c.75-1.66,2.29-1.29,3.9-1.87,2.83-1,2.22-4.87,1.71-8.3a47.91,47.91,0,0,1-.45-5.26,10.7,10.7,0,0,0-.09-1.16,15.13,15.13,0,0,0-6.06-10.43c-1.62-2.17-3.27-3.91-3.8-6.78-.18-1-.09-2-.36-3.21-.85-3.62-4.47-6.07-5.88-9.36-.46-1.08-.39-2.33-1.27-3.3-1.2.41-2.39,1.79-4,1-1.43.72.44,4.12-1.09,4.54s-3-2-3-3.74c0-2.16,1.14-3.3,1.45-4.91-1.19-.51-2.6,0-3.62-.44-1.45-.57-1.82-2.47-2.72-3.57V35.53a19.86,19.86,0,0,1,3.35-3c1-.77,3-1.93,3.26-3.12a10.36,10.36,0,0,0-.09-1.6,9.1,9.1,0,0,1,1.26-4.55c.46-.66,1.24-1,1.63-1.78.2-1.89-.56-3.08-.81-5.18-.13-1-.43-3.6.63-3.74.67-.09,1.26,1,1.54,1.51,1.45,2.49,3,4.74,5.88,5.53A18.08,18.08,0,0,1,52.25,12.35Z"/><path class="cls-3" d="M133.21,100.59H132l-.06,0a2.75,2.75,0,0,1-.49-3.78,2.4,2.4,0,0,1,1-.67,2.13,2.13,0,0,0,.68-.42c.73-.83.5-2.13.26-3.51-.05-.25-.09-.51-.13-.77s-.09-.55-.13-.83a12.25,12.25,0,0,0-.41-2.16A7.2,7.2,0,0,0,130,84.87l-.65-.57a12.82,12.82,0,0,1-1-1,8.2,8.2,0,0,0-1.53-1.4,31.28,31.28,0,0,0-4.4-2.12,22.48,22.48,0,0,1-5.15-2.66l.18.42a9.44,9.44,0,0,0,1.43,2.6,5.3,5.3,0,0,0,.84.73c.65.5,1.38,1.07,1.47,1.89.13,1.23-1,2-1.9,2.7l-.36.26-.12.09a18.28,18.28,0,0,0-2.56,2.2,16.66,16.66,0,0,0-1.21,1.59c-1,1.37-2,2.78-3.82,3.19a1.81,1.81,0,0,0-.25.61,2.1,2.1,0,0,1-.32.75l-.07.06a3,3,0,0,1-1.38.29,4.09,4.09,0,0,0-.85.09,2,2,0,0,0-.53.23,2.28,2.28,0,0,1-.75.31,3.42,3.42,0,0,1-.45,0,3.72,3.72,0,0,1-1.33-.3,4.66,4.66,0,0,0-.65-.19,5.72,5.72,0,0,0-1.23,0,7.91,7.91,0,0,1-.83.06,1.38,1.38,0,0,1-1.16-.44,1.41,1.41,0,0,1-.18-1.26,4,4,0,0,1,1.63-2,3.25,3.25,0,0,1,1.17-.16h.51a2.66,2.66,0,0,0,1.15-.2,3.65,3.65,0,0,1,.56-.18,6.16,6.16,0,0,1,.81-.1,2.65,2.65,0,0,0,.62-.07,5.29,5.29,0,0,0,1.89-1.8l.35-.45c.23-.29.49-.55.74-.81.92-1,1.72-1.81,1-3.24a2.08,2.08,0,0,0-.5-.55,2.22,2.22,0,0,1-.48-.5,2.25,2.25,0,0,1-.24-.76,2.9,2.9,0,0,0-.13-.51,13.44,13.44,0,0,0-1-1.75c-.2-.3-.4-.6-.58-.9a8.41,8.41,0,0,0-1.2-1.45c-.25-.26-.52-.54-.77-.84a4.62,4.62,0,0,1-.45-.67,2.09,2.09,0,0,0-1-1.05l-.1,0,0-.11a2.33,2.33,0,0,1-.07-.25,2.73,2.73,0,0,0-.18-.57,6.58,6.58,0,0,0-2.32-1.44A11.83,11.83,0,0,1,101,71.8c0,.06,0,.13,0,.18a.8.8,0,0,1-.29.67l-.06,0h-.06a1.55,1.55,0,0,1-.9-.29,2.1,2.1,0,0,0-.3-.15s-.09.05-.16.11a.7.7,0,0,1-.66.24l-.06,0a3.08,3.08,0,0,0-1.64-.07,7.76,7.76,0,0,1-1,.09h0c-.6,0-1.21-.06-1.79-.11a11.3,11.3,0,0,0-2.43-.07,5.33,5.33,0,0,0-1.19.34,5.62,5.62,0,0,1-1.35.37,9.08,9.08,0,0,1-1.28,0,9.1,9.1,0,0,0-1.17,0,16.3,16.3,0,0,0-2.41.43,15.57,15.57,0,0,1-2.66.46,20.66,20.66,0,0,1-3.06-.09c-.75-.06-1.52-.12-2.31-.12-.32,0-.62,0-.91,0a1.4,1.4,0,0,0,0,.66,1.35,1.35,0,0,1,0,.77.66.66,0,0,1-.56.64c-.15.06-.22.1-.25.15a5.19,5.19,0,0,1-.37,2.43,4.93,4.93,0,0,0-.36,2.16c0,.33-.21.44-.39.44a1.14,1.14,0,0,1-.32-.07h0c-.09.57-.22,1.15-.34,1.76a22.44,22.44,0,0,0-.53,3.44,12.88,12.88,0,0,0,.13,2.14,6.49,6.49,0,0,1-.25,3.74,1,1,0,0,1-.87.3,1.37,1.37,0,0,0-.43,0,4.19,4.19,0,0,0-.37,1.88,5.08,5.08,0,0,1-.22,1.5A3.21,3.21,0,0,1,69.25,97a3.67,3.67,0,0,0-.7.78,4.09,4.09,0,0,0-.37.8,2,2,0,0,1-1,1.33l0,0a2.63,2.63,0,0,1-1,0,1.78,1.78,0,0,0-.69-.05,1.24,1.24,0,0,0-.55.25,1.33,1.33,0,0,1-.64.28,1.77,1.77,0,0,1-.75-.17,2.2,2.2,0,0,0-.72-.19h0a2.57,2.57,0,0,0-.87.2,2.35,2.35,0,0,1-1.17.16,1.7,1.7,0,0,1-1.13-1,2.5,2.5,0,0,1,0-2.12,2.83,2.83,0,0,1,1.79-1.18,2.6,2.6,0,0,0,1.45-.84,1.68,1.68,0,0,0-.69.28A2.34,2.34,0,0,1,61,96h0a1.67,1.67,0,0,1-.76-.19,2.43,2.43,0,0,0-.54-.17,2.9,2.9,0,0,0-.71,0,2.51,2.51,0,0,1-1.25-.06l-.05,0,0,0a2.86,2.86,0,0,1-.32-1.84l0-.08c.56-1.27,1.57-1.45,2.63-1.65a9.37,9.37,0,0,0,1.39-.34c2.63-1,2.07-4.67,1.59-7.94l0-.11a46.38,46.38,0,0,1-.45-5.29c0-.37,0-.78-.09-1.13a14.86,14.86,0,0,0-6-10.29l0,0c-.25-.34-.5-.66-.75-1a13.14,13.14,0,0,1-3.09-5.89,11.63,11.63,0,0,1-.14-1.35,10.23,10.23,0,0,0-.22-1.85,13.8,13.8,0,0,0-3.13-5.26,18.06,18.06,0,0,1-2.74-4.07A6.28,6.28,0,0,1,46,46.15a4.43,4.43,0,0,0-.76-1.88,7.9,7.9,0,0,0-.85.45,4.21,4.21,0,0,1-2.06.74,2.33,2.33,0,0,1-1-.22c-.46.34-.38,1.22-.29,2.08.1,1.06.21,2.16-.75,2.43a1.47,1.47,0,0,1-.42.06c-1.61,0-2.84-2.44-2.85-4a7.11,7.11,0,0,1,.84-3.23A8.18,8.18,0,0,0,38.41,41a4.72,4.72,0,0,0-1.49-.18h-.45a4.22,4.22,0,0,1-1.5-.2,4.34,4.34,0,0,1-2-2.33A8.55,8.55,0,0,0,32.17,37L32.12,37v-1.5l.05-.06a19.6,19.6,0,0,1,3.38-3.06l.63-.45c1-.7,2.36-1.65,2.55-2.54a3,3,0,0,0,0-.89,3.33,3.33,0,0,1-.06-.69,9.55,9.55,0,0,1,1.31-4.66,4.45,4.45,0,0,1,.74-.76,3.25,3.25,0,0,0,.85-1,7.64,7.64,0,0,0-.36-2.88,14.6,14.6,0,0,1-.46-2.2c-.13-1.15-.45-3.82.83-4,.76-.1,1.36.91,1.7,1.51l.06.11c1.44,2.45,2.85,4.55,5.53,5.36a17.65,17.65,0,0,1,3.24-7.08l.07-.08h.92l.06.06c1.53,1.42,2,3.25,2.46,5.19.2.79.4,1.6.68,2.38A15,15,0,0,0,58,22.82a19.26,19.26,0,0,1,1.91,3.36,19,19,0,0,0,3.66,6.26,5,5,0,0,0,1.48.91,8.79,8.79,0,0,1,.92.48,7.32,7.32,0,0,1,1.66,1.62,8,8,0,0,0,1.08,1.16c1.77,1.48,4.77,2.13,7.95,2.72a19,19,0,0,1,2.24.6c.65.2,1.32.41,2,.56a22.62,22.62,0,0,0,3,.36c.6,0,1.22.1,1.84.17s1,.13,1.47.21a22,22,0,0,0,3.28.33h.1l1.29,0,2,0c.73,0,1.37,0,2,.05,1.15,0,2.32.15,3.45.24a55.82,55.82,0,0,0,6.84.29l.6-.05a5.7,5.7,0,0,1,1.15,0,2.43,2.43,0,0,1,.83.3,4.26,4.26,0,0,0,.57.25,3.26,3.26,0,0,0,.57.08,1.93,1.93,0,0,1,.63.1,1.67,1.67,0,0,1,.51.43,1,1,0,0,0,.31.29,8.77,8.77,0,0,0,2,.46c.31.05.6.09.86.15l.46.09c2.86.59,5.12,1.05,7.39,2.52l.68.44c1.16.75,2.36,1.52,3.5,2.33,3.28,2.37,6,4.78,5.7,10.36,0,.48-.08,1-.12,1.43a12.21,12.21,0,0,0-.07,3.08,12.51,12.51,0,0,0,.56,2c.19.54.38,1.1.53,1.7a17.68,17.68,0,0,1,.37,2.75c0,.57.09,1.11.17,1.64.38,2.36,1.65,3.89,3,5.51l.55.68c2,1,3.1,2.81,4.22,4.89l0,0v.67l0,.06a2.69,2.69,0,0,1-1.23.85,1.88,1.88,0,0,0-1,.74,7.78,7.78,0,0,0-.46,2.83l0,.64c0,.54-.11,1.08-.18,1.6a16,16,0,0,0-.18,3.18c0,.42.09.83.14,1.23a8.29,8.29,0,0,1,.13,2c-.15,1.36-1.08,3-2.18,3.14a3.16,3.16,0,0,1-1.19-.12,3.34,3.34,0,0,0-.79-.13,1.24,1.24,0,0,0-.81.29l-.06,0Zm-1.09-.45h.93a1.73,1.73,0,0,1,1-.33,4.34,4.34,0,0,1,.89.13,2.6,2.6,0,0,0,1,.12c.86-.13,1.67-1.58,1.8-2.75a8.56,8.56,0,0,0-.12-1.91c-.06-.4-.12-.82-.15-1.26a15.27,15.27,0,0,1,.19-3.27c.06-.51.13-1,.17-1.58l0-.63a8,8,0,0,1,.53-3,2.37,2.37,0,0,1,1.23-.92,2.28,2.28,0,0,0,1-.65v-.4c-1.08-2-2.14-3.74-4-4.67l-.08-.07-.58-.71c-1.38-1.66-2.69-3.24-3.08-5.72-.09-.55-.13-1.09-.18-1.67a17.51,17.51,0,0,0-.36-2.68c-.15-.59-.33-1.14-.51-1.67a11,11,0,0,1-.58-2.1,12.6,12.6,0,0,1,.06-3.19c0-.46.09-.94.12-1.4.27-5.36-2.34-7.69-5.52-10-1.12-.8-2.32-1.57-3.47-2.32l-.68-.43c-2.21-1.43-4.43-1.89-7.24-2.46l-.47-.1-.83-.14a9.28,9.28,0,0,1-2.11-.5,1.29,1.29,0,0,1-.47-.4,1.08,1.08,0,0,0-.34-.31,1.48,1.48,0,0,0-.48-.07,2.73,2.73,0,0,1-.68-.1,4.24,4.24,0,0,1-.64-.28,2.21,2.21,0,0,0-.67-.25,5.56,5.56,0,0,0-1,.05l-.63,0a56.71,56.71,0,0,1-6.9-.29c-1.13-.09-2.29-.19-3.44-.25-.59,0-1.23,0-2,0s-1.33,0-2,0l-1.28,0H90.5a22.77,22.77,0,0,1-3.35-.33c-.48-.08-1-.15-1.46-.21s-1.22-.12-1.82-.16a24.65,24.65,0,0,1-3.08-.37c-.71-.15-1.4-.37-2.06-.57a16.16,16.16,0,0,0-2.19-.59c-3.24-.6-6.3-1.27-8.15-2.82a8.21,8.21,0,0,1-1.14-1.22,6.87,6.87,0,0,0-1.56-1.53,8.56,8.56,0,0,0-.86-.45,5.47,5.47,0,0,1-1.62-1,19.52,19.52,0,0,1-3.76-6.41,18.51,18.51,0,0,0-1.86-3.28,15.52,15.52,0,0,1-1.76-3.15,24.32,24.32,0,0,1-.68-2.42c-.46-1.85-.89-3.6-2.27-4.92h-.53a17.79,17.79,0,0,0-3.14,7.06l-.06.22-.22-.06c-3-.81-4.55-3.13-6-5.63L42.84,14c-.24-.42-.74-1.29-1.19-1.29-.61.07-.76,1.25-.49,3.5a15.77,15.77,0,0,0,.44,2.14A8.06,8.06,0,0,1,42,21.47l0,.07a3.56,3.56,0,0,1-1,1.14,3.86,3.86,0,0,0-.67.67,9,9,0,0,0-1.23,4.44,2.7,2.7,0,0,0,.06.6,3,3,0,0,1,0,1c-.23,1.06-1.61,2-2.73,2.81l-.61.44a19.35,19.35,0,0,0-3.26,2.94v1.17a9.15,9.15,0,0,1,.79,1.33,4,4,0,0,0,1.78,2.11,3.6,3.6,0,0,0,1.33.17h.45a4.69,4.69,0,0,1,1.85.28l.16.07,0,.18a8.32,8.32,0,0,1-.65,1.81,6.88,6.88,0,0,0-.8,3c0,1.53,1.2,3.57,2.4,3.57a1,1,0,0,0,.3,0c.55-.15.52-.87.42-2s-.21-2.14.63-2.57l.1,0,.1,0a2,2,0,0,0,.9.22,3.77,3.77,0,0,0,1.83-.68,6,6,0,0,1,1.08-.53l.14,0,.1.11a4.65,4.65,0,0,1,1,2.19,8.37,8.37,0,0,0,.34,1.17,17.83,17.83,0,0,0,2.68,4,14.19,14.19,0,0,1,3.22,5.44,10.33,10.33,0,0,1,.23,1.92,12.71,12.71,0,0,0,.13,1.3,13,13,0,0,0,3,5.7c.24.31.49.63.73,1a15.28,15.28,0,0,1,6.12,10.56,11.74,11.74,0,0,1,.1,1.18,47.77,47.77,0,0,0,.45,5.24v.11C64,87,64.53,90.93,61.55,92a9.3,9.3,0,0,1-1.45.36c-1,.18-1.82.33-2.29,1.35A2.79,2.79,0,0,0,58,95.19a2.16,2.16,0,0,0,1,0,3.28,3.28,0,0,1,.83,0,2.31,2.31,0,0,1,.67.2,1.24,1.24,0,0,0,.54.16,1.9,1.9,0,0,0,.88-.31,2,2,0,0,1,1-.34,1.27,1.27,0,0,1,.28,0l.22,0,0,.22c-.18.85-1,1.14-1.82,1.42s-1.3.45-1.54,1a2.08,2.08,0,0,0,0,1.74,1.24,1.24,0,0,0,.82.71,1.71,1.71,0,0,0,.92-.14,2.88,2.88,0,0,1,1-.22,2.48,2.48,0,0,1,.89.21,1.61,1.61,0,0,0,.52.15,1.05,1.05,0,0,0,.46-.21,1.89,1.89,0,0,1,.73-.33,2.59,2.59,0,0,1,.85.06,1.94,1.94,0,0,0,.83,0c.42-.21.56-.59.74-1.07a4.61,4.61,0,0,1,.41-.88,4.13,4.13,0,0,1,.78-.88,2.79,2.79,0,0,0,.83-1A5.15,5.15,0,0,0,70,94.28a4.4,4.4,0,0,1,.46-2.14l0,0,0,0a1.5,1.5,0,0,1,.71-.13c.18,0,.44,0,.5-.08a6.2,6.2,0,0,0,.18-3.45,13.79,13.79,0,0,1-.14-2.22,24.28,24.28,0,0,1,.54-3.51c.15-.68.28-1.32.37-2l0-.15.15,0a.82.82,0,0,1,.43.06l.11,0a5.46,5.46,0,0,1,.39-2.28,4.88,4.88,0,0,0,.35-2.29V76a.73.73,0,0,1,.54-.48c.25-.09.28-.12.27-.26v-.06l0-.06a1.1,1.1,0,0,0,0-.52,1.42,1.42,0,0,1,0-1.09l.06-.1h.12c.35,0,.7,0,1.08,0,.81,0,1.59.06,2.35.12a21.4,21.4,0,0,0,3,.1,15.94,15.94,0,0,0,2.59-.45,15.69,15.69,0,0,1,2.48-.44,9.93,9.93,0,0,1,1.22,0,8.28,8.28,0,0,0,1.22,0,4.86,4.86,0,0,0,1.23-.35A6,6,0,0,1,91.57,72,13.75,13.75,0,0,1,94.1,72a17.09,17.09,0,0,0,1.72.11,6.74,6.74,0,0,0,1-.08,3.74,3.74,0,0,1,1.86.09c.11,0,.16,0,.26-.12a.67.67,0,0,1,.48-.24h0l0,0a1.64,1.64,0,0,1,.44.21,1.24,1.24,0,0,0,.58.22,1.25,1.25,0,0,0,0-.29.86.86,0,0,1,.27-.65l.14-.09.13.09a9.26,9.26,0,0,0,1.79,1,6.93,6.93,0,0,1,2.49,1.58l0,0a2.4,2.4,0,0,1,.23.7.65.65,0,0,1,0,.13,2.6,2.6,0,0,1,1.11,1.19,3.82,3.82,0,0,0,.41.61c.24.3.5.56.75.82a8.79,8.79,0,0,1,1.26,1.53c.18.3.37.59.57.89a14.12,14.12,0,0,1,1.07,1.81,2.94,2.94,0,0,1,.16.6,2.22,2.22,0,0,0,.19.63,2.37,2.37,0,0,0,.39.39,2.32,2.32,0,0,1,.61.69c.81,1.7-.17,2.74-1.12,3.73-.24.26-.49.52-.72.79s-.22.29-.35.44a5.42,5.42,0,0,1-2.1,2,3.22,3.22,0,0,1-.73.1,4.53,4.53,0,0,0-.74.08c-.16,0-.33.1-.51.16a2.86,2.86,0,0,1-.69.2,4.45,4.45,0,0,1-.61,0h-.51a2.61,2.61,0,0,0-1,.14,3.5,3.5,0,0,0-1.37,1.72,1,1,0,0,0,.11.88c.12.17.37.25.79.25a7.61,7.61,0,0,0,.79,0,5.61,5.61,0,0,1,1.35,0,4.56,4.56,0,0,1,.72.21,3,3,0,0,0,1.55.24,1.9,1.9,0,0,0,.61-.26,2.35,2.35,0,0,1,.65-.27,5,5,0,0,1,.93-.11,2.72,2.72,0,0,0,1.14-.21,1.82,1.82,0,0,0,.21-.56,1.75,1.75,0,0,1,.42-.85l0,0h.07c1.72-.35,2.63-1.65,3.6-3A19.2,19.2,0,0,1,116,87.73a19.91,19.91,0,0,1,2.63-2.26l.12-.09.36-.26c.85-.62,1.82-1.32,1.72-2.3-.07-.62-.69-1.11-1.3-1.58a5.15,5.15,0,0,1-.91-.8,10.09,10.09,0,0,1-1.5-2.71c-.19-.44-.38-.9-.61-1.34l.36-.26a18.29,18.29,0,0,0,5.81,3.26,31.16,31.16,0,0,1,4.47,2.15A8.65,8.65,0,0,1,128.72,83c.31.33.62.66.94,1l.65.57a7.62,7.62,0,0,1,2.76,3.72,13.53,13.53,0,0,1,.43,2.24l.12.83c0,.25.09.5.13.75.26,1.43.52,2.9-.36,3.89a2.6,2.6,0,0,1-.82.52,2,2,0,0,0-.8.53,2.31,2.31,0,0,0,.35,3.12Z"/><path class="cls-3" d="M128.33,79.86a5.54,5.54,0,0,1-1.29-.22l.1-.34a5.46,5.46,0,0,0,1.2.2v.36Zm.75,0,0-.35a4.69,4.69,0,0,0,1.17-.3l.14.33a4.65,4.65,0,0,1-1.27.32Zm-2.74-.43a9.61,9.61,0,0,1-1.17-.52l.16-.31a10.75,10.75,0,0,0,1.14.5l-.13.33Zm4.68-.19-.17-.32.24-.13a2.28,2.28,0,0,0,.69-.57l.3.21a2.66,2.66,0,0,1-.81.67l-.25.14Zm-6.5-.67-.49-.28-.6-.35.18-.31.61.36.48.27-.18.31Zm7.85-.89-.36,0V77.5a2.43,2.43,0,0,0-.26-1l.33-.14a2.73,2.73,0,0,1,.29,1.13v.16Zm-9.57-.1-1.09-.62.18-.31,1.09.62-.18.31Zm-1.72-1a8.51,8.51,0,0,1-1-.74l.23-.27a7.69,7.69,0,0,0,1,.7l-.19.31Zm10.36-.69-.19-.34c-.12-.22-.25-.45-.36-.68l0-.09.33-.15,0,.08.36.67.19.34-.32.17Zm-11.93-.6a2.48,2.48,0,0,1-.45-1.25l.36,0a2.05,2.05,0,0,0,.38,1.07l-.29.21Zm11.06-1.19c-.13-.36-.22-.74-.32-1.1l0-.12.35-.09,0,.12c.09.36.19.72.31,1.07l-.34.12ZM119.06,74v0c0-.45.55-.76,1-1l.16.32c-.64.3-.77.5-.77.63l-.36,0Zm1.78-.94-.12-.33c.37-.14.78-.28,1.2-.42l.11.34c-.41.14-.82.27-1.19.41Zm1.88-.64-.11-.33c.34-.12.78-.27,1.18-.43l.13.33c-.4.17-.85.32-1.2.43Zm7.31-.22a4.35,4.35,0,0,0-.48-1.09l.3-.2a4.6,4.6,0,0,1,.52,1.19l-.34.1Zm-5.43-.51-.17-.32.15-.08c.3-.17.58-.35.84-.52l.08,0,.19.3-.07,0-.86.53-.16.09Zm1.7-1-.18-.31a4.22,4.22,0,0,1,1.21-.52l.08.35a3.94,3.94,0,0,0-1.11.48Zm2.81-.05a3.62,3.62,0,0,0-.32-.22,2.16,2.16,0,0,0-.73-.24l.05-.35a2.3,2.3,0,0,1,.85.28,1.7,1.7,0,0,1,.38.26l-.23.27Z"/><path class="cls-3" d="M105.38,60v-.36l1.26,0v.36l-1.27,0Zm-.73,0c-.48,0-.9,0-1.27-.06l0-.36c.36,0,.77,0,1.25.06V60Zm2.73-.06,0-.36,1.27-.06,0,.35-1.27.07Zm-4.74-.09a3,3,0,0,1-1.25-.47l.22-.28a2.6,2.6,0,0,0,1.1.39l-.07.36Zm6.73,0,0-.35,1.26-.08,0,.36-1.26.07Zm2-.11,0-.36,1.27-.07,0,.35-1.26.08Zm2-.12,0-.35,1.26-.09,0,.36-1.27.08Zm2-.14,0-.36q.66,0,1.26-.12l0,.36-1.27.12Zm2-.21,0-.35c.44-.06.86-.12,1.25-.19l.06.36-1.26.18Zm2-.32-.07-.35c.44-.08.85-.18,1.21-.28l.1.34c-.37.11-.79.2-1.24.29ZM101,58.59v-.05a1.13,1.13,0,0,1,0-.25,8.74,8.74,0,0,1,.24-1l.35.11c-.1.31-.17.62-.24.94a1.1,1.1,0,0,0,0,.18l-.36.05Zm20.26-.22-.13-.34a4.82,4.82,0,0,0,1.09-.53l.21.29a5.54,5.54,0,0,1-1.17.58ZM123,57.24l-.31-.19a.9.9,0,0,0,.16-.51,1.26,1.26,0,0,0-.12-.51l.33-.15a1.65,1.65,0,0,1,.15.66,1.3,1.3,0,0,1-.21.7Zm-21.13-.49-.34-.12c.1-.27.21-.53.31-.79l.15-.38.34.13-.15.38c-.11.26-.21.51-.31.78Zm20.5-1.29c-.24-.29-.52-.6-.83-.93l.27-.24c.31.33.6.65.84,1l-.28.22Zm-19.79-.54-.34-.12a11.2,11.2,0,0,0,.35-1.18l.35.08a9.86,9.86,0,0,1-.36,1.22ZM121,54c-.29-.29-.6-.57-.92-.85l.24-.27c.33.28.64.57.93.86L121,54Zm-18-1-.36-.06c.07-.39.11-.77.15-1.22l.36,0c0,.39-.08.82-.15,1.25Zm16.5-.28c-.31-.26-.64-.53-1-.78l.22-.29c.34.27.67.53,1,.8l-.24.27ZM118,51.5c-.34-.24-.68-.48-1-.71l.2-.3q.52.34,1,.72l-.22.29ZM103.27,51l-.36,0a8.3,8.3,0,0,1,.2-1.25l.35.08a8.91,8.91,0,0,0-.19,1.21Zm13.09-.63c-.36-.22-.72-.43-1.08-.62l.17-.31c.37.19.74.41,1.1.63l-.19.3Zm-1.72-.94c-.38-.19-.77-.36-1.14-.51l.13-.33c.38.15.78.32,1.17.52l-.16.32Zm-11-.28-.33-.15a2.67,2.67,0,0,1,.86-1,2.47,2.47,0,0,1,.75-.33l.09.34a2,2,0,0,0-.63.28,2.35,2.35,0,0,0-.74.88Zm9.15-.47a10.26,10.26,0,0,0-1.21-.31l.07-.35a9.2,9.2,0,0,1,1.25.32l-.11.34Zm-1.91-.41-1.25-.16,0-.36,1.26.16,0,.36Zm-2-.24-1.26-.12,0-.36,1.27.12,0,.36Zm-3.21-.15,0-.35q.35,0,.75,0H107v.36l-.55,0q-.39,0-.69,0Z"/><g class="cls-5"><path class="cls-3" d="M113.94,74.46c-.28-.28-.58-.58-.89-.87l.25-.26c.32.3.62.59.9.89l-.26.24Zm-1.41-1.36-.94-.83.24-.27c.32.28.64.56.94.84l-.24.26ZM111,71.8l-1-.79.22-.28c.34.27.67.53,1,.8l-.24.27Zm-1.54-1.23c-.32-.26-.66-.51-1-.76l.21-.28c.35.25.69.5,1,.76l-.23.28Zm-1.58-1.18-1-.72.2-.29,1,.72-.21.29Zm-1.63-1.12c-.35-.23-.7-.46-1.06-.68l.2-.3c.36.22.71.45,1.06.68l-.2.3Zm-1.67-1.07-1.07-.64.18-.31,1.09.65-.2.3Zm-1.7-1-1.09-.62.17-.31,1.11.62-.19.31Zm-1.73-1-1.12-.57.16-.32c.38.19.76.38,1.13.58l-.17.31Zm-1.77-.89-1.14-.54.16-.32,1.14.54-.16.32Zm-1.79-.83L96.47,63l.14-.33,1.17.5-.15.33Zm-1.83-.77c-.38-.16-.78-.31-1.17-.46l.13-.33,1.18.46-.14.33ZM94,62.05l-1.19-.41.12-.34,1.2.41-.13.34Zm-1.88-.63-1.21-.37.11-.34,1.22.37-.12.34Zm-1.9-.56-1.23-.31L89,60.2l1.23.31-.09.35Zm-1.93-.48L87,60.12l.07-.35,1.24.26-.08.35ZM86.3,60l-1.25-.21,0-.35,1.26.21L86.3,60Zm-2-.31-.93-.11-.32,0,0-.35.32,0,.94.11,0,.35Zm-2-.23-1.26-.18.05-.35,1.25.17,0,.36Zm-2-.28L79.13,59l.06-.35,1.25.2-.06.36Zm-2-.34-1.24-.24.07-.35,1.24.24-.07.35Zm-2-.38-1.25-.27.08-.35,1.24.27-.07.35ZM74.51,58l-1.24-.29.08-.35,1.24.29-.08.35Zm-2-.46-1.23-.31.1-.35,1.22.31-.09.35Zm-1.92-.49-1.23-.33.1-.34,1.22.32-.09.35Zm-1.93-.52-1.22-.35.1-.34,1.22.34-.1.35ZM66.8,56l-1.22-.36.11-.34,1.21.36-.1.34Zm-1.91-.57-1.21-.38.11-.34,1.21.38-.11.34Zm-1.9-.6-1.21-.38.11-.34,1.21.38-.11.34Zm-1.9-.61-1.2-.4.12-.34,1.2.4-.12.34Zm-1.89-.63L58,53.17l.12-.33,1.19.41-.12.34Zm-1.88-.65-1.19-.43.12-.33,1.19.42-.12.34Zm-1.87-.67-1.2-.43.13-.34,1.19.43-.12.34Zm-1.87-.68-1.19-.44.12-.34,1.19.44-.12.34Zm-1.87-.69-1.19-.43.11-.34c.23.07.64.22,1.2.43l-.12.34Z"/><path class="cls-3" d="M71.3,73.75a8.62,8.62,0,0,1-.13-1l.36,0a8,8,0,0,0,.12,1l-.35.08ZM71.13,72c0-.38,0-.8,0-1.25h.36c0,.45,0,.87,0,1.24l-.36,0Zm0-2V68.76h.36V70Zm.36-2h-.36c0-.41,0-.83,0-1.26h.36c0,.43,0,.84,0,1.25Zm0-2h-.36l0-1.25h.36l0,1.25Zm.06-2-.36,0c0-.41,0-.83,0-1.25l.36,0c0,.42,0,.83,0,1.25Zm.09-2-.36,0c0-.42,0-.84.08-1.25l.36,0c0,.41-.06.83-.08,1.25Zm.13-2-.36,0c0-.43.06-.84.1-1.25l.36,0c0,.41-.07.82-.1,1.24Zm.17-2-.36,0c0-.44.09-.85.14-1.25l.36.05c0,.39-.1.8-.14,1.23Zm.23-1.94-.36,0c.06-.38.11-.73.18-1.06L72,55l.36.07,0,.18c-.06.32-.12.67-.17,1Zm.35-1.92-.36-.07q.12-.6.27-1.23l.35.08c-.09.42-.18.83-.26,1.22Zm.43-1.91-.36-.09c.1-.39.2-.8.31-1.21l.35.09c-.11.41-.21.81-.3,1.21Zm.48-1.9-.35-.09c.11-.4.22-.81.34-1.21l.34.09-.33,1.21ZM74,48.7l-.34-.1c.12-.4.24-.8.37-1.2l.34.11c-.12.39-.25.79-.37,1.19Zm.59-1.87-.34-.11c.13-.4.26-.8.4-1.19l.34.12c-.13.39-.27.78-.4,1.18ZM75.19,45l-.34-.13q.21-.6.45-1.17l.33.13c-.15.38-.3.77-.44,1.17Zm.72-1.83L75.57,43c.17-.4.34-.79.52-1.15l.32.15c-.17.36-.34.74-.5,1.13Zm.82-1.77-.33-.16c.21-.4.42-.78.62-1.11l.31.19c-.2.32-.4.69-.6,1.08Zm1-1.67-.3-.21a5.67,5.67,0,0,1,.86-1l.24.26a5.44,5.44,0,0,0-.8.92Z"/><path class="cls-3" d="M97.17,72.25l-.36,0c0-.28,0-.57.06-.89l.36,0c0,.31,0,.6-.06.88Zm.12-1.59-.36,0c0-.39.09-.81.14-1.25l.36,0c-.05.44-.1.85-.14,1.24Zm.22-1.94-.35,0c0-.4.1-.82.16-1.24l.36,0c-.06.42-.12.83-.17,1.24Zm.27-2-.36,0,.18-1.24.36.06c-.06.41-.12.83-.18,1.23Zm.29-1.94-.36,0c.07-.41.13-.83.2-1.24l.36.06c-.07.41-.14.82-.2,1.23Zm.32-1.94L98,62.83l.21-1.23.36.06q-.12.62-.21,1.23ZM98.72,61l-.36-.06c.08-.42.15-.83.22-1.24l.36.07c-.07.4-.15.81-.22,1.23ZM99.07,59,98.71,59,99,57.73l.35.07c-.07.4-.15.81-.23,1.22Zm.37-1.92L99.08,57c.09-.42.17-.83.25-1.23l.35.07q-.12.6-.24,1.23Zm.39-1.93-.36-.07c.09-.43.18-.84.26-1.23l.36.08c-.09.39-.17.8-.26,1.22Zm.41-1.92-.35-.08c.1-.44.19-.84.28-1.22l.36.09c-.09.37-.19.77-.29,1.21Zm.46-1.91-.35-.08c0-.17.09-.33.13-.47s.14-.5.22-.75l.34.11c-.07.25-.15.49-.21.73s-.09.3-.13.46Zm.57-1.86-.35-.12c.14-.39.28-.78.43-1.18l.34.13q-.22.59-.42,1.17Zm.69-1.84-.34-.13c.16-.38.32-.77.49-1.15l.33.14q-.25.57-.48,1.14Zm.77-1.8-.33-.14.53-1.14.33.16c-.18.37-.35.75-.53,1.12Zm.85-1.77-.33-.15c.19-.38.38-.76.57-1.12l.32.16-.56,1.11Zm.9-1.74-.32-.17c.21-.38.41-.75.61-1.1l.32.18-.61,1.09Zm1-1.71-.31-.18c.23-.39.45-.75.66-1.07l.31.19c-.21.32-.43.67-.66,1.06Z"/></g><path class="cls-3" d="M110.74,54.84V52.6l-.48.41v-.29l.48-.41H111v2.53Z"/><path class="cls-3" d="M114,64.72V64.5l1-1.27a.58.58,0,0,0,.11-.18.41.41,0,0,0,0-.19.42.42,0,0,0-.45-.45.5.5,0,0,0-.17,0,.39.39,0,0,0-.14.08.71.71,0,0,0-.1.14.66.66,0,0,0,0,.21H114a.76.76,0,0,1,0-.27.55.55,0,0,1,.14-.22.64.64,0,0,1,.22-.14.93.93,0,0,1,.29,0,.68.68,0,0,1,.29,0,.54.54,0,0,1,.22.13.71.71,0,0,1,.15.22.82.82,0,0,1,.05.28.67.67,0,0,1-.05.26,1.48,1.48,0,0,1-.16.25l-.89,1.13h1.1v.22Z"/><path class="cls-3" d="M87,53.31a.75.75,0,0,1-.06.31.69.69,0,0,1-.39.36.94.94,0,0,1-.3.05A1.26,1.26,0,0,1,86,54a.9.9,0,0,1-.24-.12.83.83,0,0,1-.16-.21.73.73,0,0,1-.07-.3h.26a.42.42,0,0,0,0,.2.53.53,0,0,0,.11.14l.15.08.18,0a.48.48,0,0,0,.35-.13.43.43,0,0,0,.15-.36.53.53,0,0,0-.13-.36.51.51,0,0,0-.38-.13h0V52.6h0a.47.47,0,0,0,.35-.13.49.49,0,0,0,.11-.33.44.44,0,0,0-.13-.34.47.47,0,0,0-.32-.12.48.48,0,0,0-.32.11.47.47,0,0,0-.14.31h-.26a.77.77,0,0,1,.07-.27.53.53,0,0,1,.16-.2A.54.54,0,0,1,86,51.5a.8.8,0,0,1,.27,0,.88.88,0,0,1,.29,0,.83.83,0,0,1,.22.14.55.55,0,0,1,.14.22.61.61,0,0,1,0,.28.56.56,0,0,1-.34.56A.58.58,0,0,1,87,53.31Z"/><path class="cls-3" d="M65.19,48v.4h-.26V48h-1V47.8l.92-1.89h.28l-.92,1.9h.74v-.72h.26v.72h.31V48Z"/><path class="cls-3" d="M64.72,61.1a2.22,2.22,0,0,1,0,.37.65.65,0,0,1-.17.3.64.64,0,0,1-.22.14A.65.65,0,0,1,64,62a.75.75,0,0,1-.31-.05.57.57,0,0,1-.21-.13.62.62,0,0,1-.12-.19,1,1,0,0,1-.06-.25h.26a.52.52,0,0,0,.13.3.46.46,0,0,0,.31.1.41.41,0,0,0,.31-.12.28.28,0,0,0,.08-.11.5.5,0,0,0,0-.13.59.59,0,0,0,0-.14v-.13a1.69,1.69,0,0,0,0-.23.68.68,0,0,0-.07-.2.27.27,0,0,0-.13-.13.34.34,0,0,0-.22-.06.51.51,0,0,0-.28.07.31.31,0,0,0-.14.18h-.24V59.42h1.3v.22H63.61v.8a.53.53,0,0,1,.19-.13.77.77,0,0,1,.27,0,.66.66,0,0,1,.25,0,.52.52,0,0,1,.19.12.42.42,0,0,1,.11.15.87.87,0,0,1,.07.17.88.88,0,0,1,0,.17A1.15,1.15,0,0,1,64.72,61.1Z"/><path class="cls-3" d="M83.5,64.83a.94.94,0,0,1,0,.3.72.72,0,0,1-.14.24.76.76,0,0,1-.23.15.65.65,0,0,1-.29.06.93.93,0,0,1-.29,0,.76.76,0,0,1-.23-.15.59.59,0,0,1-.14-.23.94.94,0,0,1,0-.3.84.84,0,0,1,0-.27,2.24,2.24,0,0,1,.12-.29L82.87,63h.27l-.57,1.13a.75.75,0,0,1,.54,0,.8.8,0,0,1,.21.15.61.61,0,0,1,.13.22A.93.93,0,0,1,83.5,64.83Zm-.26,0a.69.69,0,0,0,0-.2.35.35,0,0,0-.08-.16.58.58,0,0,0-.15-.11.53.53,0,0,0-.19,0,.42.42,0,0,0-.33.14.55.55,0,0,0-.12.37.53.53,0,0,0,.12.37.46.46,0,0,0,.66,0A.53.53,0,0,0,83.24,64.84Z"/><path class="cls-3" d="M100.45,68.48h-.27l.89-2.29h-.89v.39h-.26V66h1.42v.23Z"/><path class="cls-3" d="M127.19,75.58a.65.65,0,0,1-.06.29.63.63,0,0,1-.16.23,1,1,0,0,1-.24.15.94.94,0,0,1-.3,0,1,1,0,0,1-.3,0,1,1,0,0,1-.24-.15.79.79,0,0,1-.16-.23.84.84,0,0,1,0-.29.56.56,0,0,1,.11-.37.78.78,0,0,1,.27-.24.73.73,0,0,1-.24-.22.64.64,0,0,1-.09-.34.59.59,0,0,1,0-.27.54.54,0,0,1,.15-.22.83.83,0,0,1,.22-.14.87.87,0,0,1,.28,0,.82.82,0,0,1,.28,0,.88.88,0,0,1,.23.14.64.64,0,0,1,.14.22.6.6,0,0,1,.06.27.64.64,0,0,1-.09.34.73.73,0,0,1-.24.22,1,1,0,0,1,.27.24A.62.62,0,0,1,127.19,75.58Zm-.26,0a.38.38,0,0,0,0-.19.44.44,0,0,0-.1-.16.54.54,0,0,0-.16-.1.45.45,0,0,0-.2,0,.41.41,0,0,0-.19,0,.44.44,0,0,0-.16.1.46.46,0,0,0-.11.16.54.54,0,0,0,0,.19.64.64,0,0,0,0,.2.53.53,0,0,0,.11.15.46.46,0,0,0,.16.11.58.58,0,0,0,.19,0,.64.64,0,0,0,.2,0,.57.57,0,0,0,.16-.11.49.49,0,0,0,.1-.15A.45.45,0,0,0,126.93,75.58Zm-.05-1.17a.45.45,0,0,0-.77-.32.44.44,0,0,0-.12.32.45.45,0,0,0,.12.33.49.49,0,0,0,.64,0A.42.42,0,0,0,126.88,74.41Z"/><path class="cls-3" d="M113.85,73.06a7.26,7.26,0,0,1-1.22-.1l.06-.35a7.68,7.68,0,0,0,1.16.1h.07v.35Zm.82,0,0-.35a6.66,6.66,0,0,0,1.2-.27l.11.34a6.34,6.34,0,0,1-1.26.28Zm-2.76-.21a9.72,9.72,0,0,1-1.22-.41l.13-.33a11,11,0,0,0,1.18.4l-.09.34Zm4.71-.33-.14-.33c.34-.15.71-.33,1.11-.55l.18.31a11.08,11.08,0,0,1-1.15.57ZM110,72.1c-.37-.17-.76-.33-1.16-.47l.13-.34c.4.15.8.31,1.18.49l-.15.32Zm8.38-.57-.19-.3.88-.56.19-.11.19.3-.18.11-.89.56Zm-10.21-.14c-.39-.12-.8-.24-1.21-.34l.09-.35,1.23.35-.11.34ZM82.5,70.9c-.43,0-.85,0-1.27,0l0-.35,1.26,0v.36Zm.73,0v-.36l1.26,0v.36l-1.27,0Zm23,0c-.39-.09-.81-.17-1.23-.24l.06-.35c.43.07.85.15,1.25.24l-.08.35Zm-25.77,0c-.43,0-.86,0-1.27-.08l0-.35,1.26.08,0,.35Zm4.72,0,0-.36.64,0,.58,0,0,.17v.18l-.62,0-.64,0Zm2-.12,0-.35,1.27-.09,0,.36-1.26.08Zm-8.71,0-1.26-.14,0-.35,1.25.14,0,.35Zm10.69-.11,0-.35,1.26-.09,0,.36-1.27.08Zm15.14-.06c-.41-.06-.83-.11-1.25-.15l0-.36,1.26.16,0,.35Zm15.74,0-.19-.3c.41-.26.76-.46,1.1-.64l.17.31c-.33.18-.67.38-1.08.63Zm-43.55,0-1.25-.19.06-.35c.41.06.82.13,1.24.18l0,.36Zm14.66,0,0-.36L92.43,70l0,.35-1.26.08Zm2-.12,0-.36,1.27-.06,0,.35-1.27.07Zm9.2,0-1.25-.08v-.35c.43,0,.85,0,1.27.08l0,.35Zm-7.21-.07v-.35l1.26,0v.36l-1.26,0Zm5.24,0-1.27,0v-.35c.42,0,.85,0,1.27,0v.35Zm-3.25,0v-.35l1.27,0v.36Zm-22.59,0-1.25-.24.07-.35,1.24.24-.06.35Zm-2-.38-1.24-.27.08-.35,1.24.27-.08.35Zm49.19-.25-.15-.32a10.67,10.67,0,0,1,1.18-.5l.12.34a10.86,10.86,0,0,0-1.15.48Zm-51.13-.17-1.24-.28.09-.35,1.23.28-.08.35Zm-1.94-.44-1.24-.28.08-.35,1.24.28-.08.35Zm54.9-.09-.1-.34.15,0,1.07-.3.1.35-1.07.29-.15,0Zm-56.84-.35-1.24-.25.08-.35,1.24.26-.08.34Zm58.76-.21-.12-.33c.44-.16.81-.31,1.15-.47l.15.32a9,9,0,0,1-1.18.48Zm-60.71-.19-1.24-.28.09-.35c.39.1.8.2,1.23.28l-.08.35Zm-1.94-.47c-.42-.12-.83-.25-1.22-.39l.13-.34c.38.14.78.27,1.19.39l-.1.34Zm64.48-.17-.19-.3a3.44,3.44,0,0,0,.89-.78l.29.21a3.68,3.68,0,0,1-1,.87ZM61,67c-.4-.17-.8-.34-1.16-.53l.17-.32c.35.18.73.36,1.13.52L61,67Zm-1.8-.88a9.41,9.41,0,0,1-1.06-.73l.22-.28a8.84,8.84,0,0,0,1,.7l-.19.31Zm69.56-.15-.33-.15a4.38,4.38,0,0,0,.33-1.15l.36.06a5.09,5.09,0,0,1-.36,1.24ZM57.57,64.88a8.47,8.47,0,0,1-.86-1l.3-.21a6.78,6.78,0,0,0,.81.91l-.25.26ZM129.21,64l-.36,0c0-.38.07-.79.1-1.24l.36,0c0,.46-.07.87-.1,1.25Zm-72.9-.67a5.33,5.33,0,0,1-.49-1.19l.35-.1a4.65,4.65,0,0,0,.46,1.11l-.32.18ZM129.36,62,129,62c0-.41.05-.82.06-1.24h.36c0,.42,0,.84-.06,1.25Zm-73.7-.62c-.07-.4-.15-.81-.24-1.22l.36-.07L56,61.33l-.36.06ZM129.07,60c0-.44,0-.84,0-1.24l.36,0c0,.4,0,.81,0,1.26Zm-73.81-.56c-.1-.42-.21-.81-.32-1.19l.34-.11c.12.39.23.79.34,1.22l-.36.08ZM129,58.1c-.05-.42-.12-.83-.2-1.21l.35-.08a12.06,12.06,0,0,1,.21,1.25l-.36,0Zm-74.24-.49c-.14-.39-.3-.78-.46-1.14l.33-.15c.17.38.32.77.47,1.18l-.34.11Zm73.86-1.4a9.75,9.75,0,0,0-.42-1.15l.33-.14a8.84,8.84,0,0,1,.44,1.19l-.35.1ZM54,55.83c-.19-.37-.4-.73-.62-1.07l.31-.19c.22.35.44.72.63,1.1l-.32.16Zm73.89-1.39a7.91,7.91,0,0,0-.67-1l.28-.21a7.54,7.54,0,0,1,.71,1.06l-.32.18Zm-74.9-.28A11.86,11.86,0,0,1,52.33,53l.33-.15A9.28,9.28,0,0,0,53.25,54l-.31.19Zm73.77-1.28a8,8,0,0,0-.9-.84l.23-.28a9.87,9.87,0,0,1,.94.88l-.27.24Zm-74.66-.51a5.33,5.33,0,0,1-.29-1.26l.36,0a5.14,5.14,0,0,0,.27,1.18l-.34.12Zm73.2-.76-1-.72.2-.3c.36.24.71.49,1,.73l-.21.29Zm-1.63-1.11c-.35-.22-.7-.44-1.07-.65l.18-.31,1.09.66-.2.3Zm-71.53-.11-.36,0a6.44,6.44,0,0,1,.2-1.27l.35.1a5.56,5.56,0,0,0-.19,1.19Zm69.83-.89c-.36-.2-.73-.39-1.11-.58l.16-.32c.39.19.76.39,1.13.59l-.18.31Zm-1.76-.89c-.37-.18-.75-.35-1.15-.51l.15-.33,1.16.52-.16.32ZM52.5,48.54l-.34-.13a10.07,10.07,0,0,1,.56-1.15l.32.18a7.43,7.43,0,0,0-.54,1.1Zm65.85-.72-1.18-.44.13-.34,1.19.45-.14.33Zm-1.86-.68-1.2-.38.11-.34c.41.13.81.25,1.21.39l-.12.33Zm-63.08-.31-.31-.19c.22-.33.46-.66.73-1l.16.08.13.13c-.27.34-.5.67-.71,1Zm61.19-.27-1.22-.31.09-.35,1.23.32-.1.34Zm-1.92-.48-1.23-.26.07-.35,1.24.26-.08.35Zm-1.94-.39-1-.17-.21,0,0-.35.22,0,1,.17-.07.35Zm-2-.3-1.25-.17,0-.35,1.26.16,0,.36Zm-54.21-.13-.29-.21c.26-.34.5-.68.74-1l.3.2q-.36.51-.75,1Zm52.24-.12L105.55,45l0-.36,1.26.14,0,.36Zm-2-.22-1.26-.11,0-.36,1.26.12,0,.35Zm-2-.18-1.26-.09,0-.36,1.27.1,0,.35Zm-2-.15-1.27-.08,0-.35,1.26.08,0,.35Zm-2-.12-1.26-.07,0-.36,1.26.07,0,.36Zm-2-.11-1.27,0,0-.36,1.26.06v.35Zm-2-.09-1.27,0v-.36l1.27.05v.35Zm-2-.07-1.27,0v-.35l1.27,0v.35Zm-2-.06-1.27,0v-.36l1.27,0v.35Zm-2,0-1.27,0v-.36l1.27,0v.35Zm-2,0-1.27,0v-.36l1.27,0v.35ZM85,44l-1.26-.07,0-.36,1.26.07L85,44Zm-2-.12-1.27-.1,0-.35,1.26.1,0,.35Zm-2-.16-1.26-.14,0-.35,1.26.13,0,.36Zm-25.25-.05-.3-.21.71-1,.3.2-.71,1ZM79,43.49l-1.26-.18.05-.35,1.25.17,0,.36Zm-2-.29L75.77,43l.07-.35,1.24.22L77,43.2Zm-2-.36-1.24-.29.09-.34,1.22.28-.07.35Zm-2-.47c-.43-.12-.84-.25-1.22-.38l.12-.34c.37.13.78.25,1.2.37l-.1.35ZM56.84,42l-.3-.19.71-1,.3.2-.71,1Zm14.37-.29A9.18,9.18,0,0,1,70,41.18l.19-.31a9.66,9.66,0,0,0,1.11.53l-.13.33Zm-1.79-.94c-.35-.23-.7-.47-1-.72l.21-.29c.34.25.68.49,1,.72l-.2.29ZM58,40.41l-.3-.21c.28-.38.53-.71.77-1l.28.22c-.23.29-.48.62-.75,1Zm9.83-.76,0,0-1-.71.21-.29,1,.71-.19.31Zm-8.62-.78-.28-.24a9.39,9.39,0,0,1,.93-.89l.23.28a6.91,6.91,0,0,0-.88.85Zm7-.35a11.6,11.6,0,0,0-1.08-.62l.17-.32c.35.18.71.39,1.11.64l-.2.3Zm-5.57-.9-.18-.31a3.16,3.16,0,0,1,1.25-.43,5.77,5.77,0,0,1,.92,0v.36a5,5,0,0,0-.86,0,3.13,3.13,0,0,0-1.12.39Zm3.85,0a6,6,0,0,0-1.18-.34l.07-.35a6.24,6.24,0,0,1,1.25.36l-.14.33Z"/></svg>