<svg id="Layer_1" data-name="Layer 1" xmlns="http://www.w3.org/2000/svg" viewBox="0 0 170.08 113.39"><defs><style>.cls-1{fill:#1d1d1b;}</style></defs><title>useless</title><path class="cls-1" d="M12.52,37A7.47,7.47,0,0,1,7,34.79a5.89,5.89,0,0,1-1.65-3.06A27.38,27.38,0,0,1,5,26.68a27.38,27.38,0,0,1,.35-5.05A5.78,5.78,0,0,1,7,18.57a7.47,7.47,0,0,1,5.48-2.22A7.16,7.16,0,0,1,20,22.77H16a3.36,3.36,0,0,0-3.43-2.88A3.15,3.15,0,0,0,10,20.94c-.83.89-1,1.8-1,5.74s.17,4.85,1,5.74a3.15,3.15,0,0,0,2.54,1A3.36,3.36,0,0,0,16,30.59h4A7.18,7.18,0,0,1,12.52,37Z"/><path class="cls-1" d="M34.67,34.79A7.35,7.35,0,0,1,29.19,37a7.45,7.45,0,0,1-5.51-2.22c-2.05-2.06-2-4.6-2-8.11s-.06-6.05,2-8.11a7.45,7.45,0,0,1,5.51-2.22,7.35,7.35,0,0,1,5.48,2.22c2.06,2.06,2,4.6,2,8.11S36.73,32.73,34.67,34.79ZM31.73,21a3.31,3.31,0,0,0-2.54-1.08A3.41,3.41,0,0,0,26.62,21c-.77.86-1,1.8-1,5.71s.2,4.85,1,5.71a3.37,3.37,0,0,0,2.57,1.08,3.27,3.27,0,0,0,2.54-1.08c.77-.86,1-1.8,1-5.71S32.5,21.83,31.73,21Z"/><path class="cls-1" d="M53.79,36.84V25L49.9,32.7H47.22L43.31,25V36.84h-4V16.52h3.91l5.31,11,5.28-11h3.91V36.84Z"/><path class="cls-1" d="M68.89,29.19H65v7.65H61V16.52h7.88c4.2,0,6.71,2.88,6.71,6.34S73.09,29.19,68.89,29.19Zm-.2-9.13H65v5.56h3.71a2.78,2.78,0,1,0,0-5.56Z"/><path class="cls-1" d="M77.59,36.84V16.52h4V33.3h9.22v3.54Z"/><path class="cls-1" d="M92.69,36.84V16.52h13.39v3.54H96.66v4.76h8v3.54h-8V33.3h9.42v3.54Z"/><path class="cls-1" d="M116.89,20.06V36.84h-4V20.06h-5.31V16.52H122.2v3.54Z"/><path class="cls-1" d="M124.12,36.84V16.52h13.39v3.54h-9.42v4.76h8v3.54h-8V33.3h9.42v3.54Z"/><path class="cls-1" d="M140,36.84V16.52h4V33.3h9.22v3.54Z"/><path class="cls-1" d="M160.7,28.51v8.33h-3.94V28.51l-6.1-12H155l3.79,8.19,3.74-8.19h4.31Z"/><polyline class="cls-1" points="160.77 39.35 160.77 40.59 5.41 40.59 5.41 39.35"/><path class="cls-1" d="M12.89,67.24c-4.17,0-7.48-2.83-7.48-7.14V46.74h4V60c0,2.34,1.37,3.74,3.51,3.74A3.39,3.39,0,0,0,16.43,60V46.74h3.94V60.1C20.37,64.41,17.06,67.24,12.89,67.24Z"/><path class="cls-1" d="M29,67.24c-3.08,0-5.42-.66-7.42-2.69L24.15,62a6.68,6.68,0,0,0,4.91,1.71c2.34,0,3.6-.89,3.6-2.51A2.27,2.27,0,0,0,32,59.47a3,3,0,0,0-1.8-.71l-2.45-.34a6.88,6.88,0,0,1-3.94-1.69,5.36,5.36,0,0,1-1.46-4c0-3.63,2.69-6.17,7.08-6.17A8.73,8.73,0,0,1,36,48.94l-2.51,2.49A5.66,5.66,0,0,0,29.35,50c-2.11,0-3.14,1.17-3.14,2.57a2,2,0,0,0,.6,1.45,3.45,3.45,0,0,0,1.88.8l2.4.34A6.76,6.76,0,0,1,35,56.76a5.67,5.67,0,0,1,1.57,4.31C36.54,65,33.26,67.24,29,67.24Z"/><path class="cls-1" d="M38.69,67.07V46.74H52.08v3.54H42.66v4.77h8v3.54h-8v4.94h9.42v3.54Z"/><path class="cls-1" d="M54.52,67.07V46.74h4V63.53h9.22v3.54Z"/><path class="cls-1" d="M69.63,67.07V46.74H83v3.54H73.59v4.77h8v3.54h-8v4.94H83v3.54Z"/><path class="cls-1" d="M91.83,67.24c-3.08,0-5.43-.66-7.42-2.69L87,62a6.65,6.65,0,0,0,4.91,1.71c2.34,0,3.59-.89,3.59-2.51a2.27,2.27,0,0,0-.63-1.72,3,3,0,0,0-1.79-.71l-2.46-.34a6.91,6.91,0,0,1-3.94-1.69,5.36,5.36,0,0,1-1.45-4c0-3.63,2.68-6.17,7.07-6.17a8.73,8.73,0,0,1,6.57,2.37l-2.51,2.49A5.66,5.66,0,0,0,92.17,50C90.06,50,89,51.2,89,52.6a2,2,0,0,0,.6,1.45,3.49,3.49,0,0,0,1.88.8l2.4.34a6.7,6.7,0,0,1,3.88,1.57,5.67,5.67,0,0,1,1.57,4.31C99.36,65,96.08,67.24,91.83,67.24Z"/><path class="cls-1" d="M107.71,67.24c-3.09,0-5.43-.66-7.42-2.69L102.85,62a6.68,6.68,0,0,0,4.91,1.71c2.34,0,3.6-.89,3.6-2.51a2.27,2.27,0,0,0-.63-1.72,3,3,0,0,0-1.8-.71l-2.45-.34a6.88,6.88,0,0,1-3.94-1.69,5.36,5.36,0,0,1-1.46-4c0-3.63,2.69-6.17,7.08-6.17a8.73,8.73,0,0,1,6.57,2.37l-2.51,2.49a5.66,5.66,0,0,0-4.17-1.4c-2.11,0-3.14,1.17-3.14,2.57a2,2,0,0,0,.6,1.45,3.45,3.45,0,0,0,1.88.8l2.4.34a6.7,6.7,0,0,1,3.88,1.57,5.67,5.67,0,0,1,1.57,4.31C115.24,65,112,67.24,107.71,67.24Z"/><path class="cls-1" d="M11.32,94.61c-3.38,0-5.63-.81-7.51-2.72l-.08-.09,2.74-2.74.09.09a6.45,6.45,0,0,0,4.82,1.67c1.58,0,3.47-.41,3.47-2.38a2.12,2.12,0,0,0-.59-1.62,2.94,2.94,0,0,0-1.73-.69l-2.45-.34a7,7,0,0,1-4-1.72A5.44,5.44,0,0,1,4.58,80c0-3.82,2.82-6.29,7.2-6.29a8.86,8.86,0,0,1,6.65,2.4l.09.09-2.69,2.66-.08-.09a5.55,5.55,0,0,0-4.09-1.36c-2.22,0-3,1.26-3,2.45a1.84,1.84,0,0,0,.56,1.36A3.35,3.35,0,0,0,11,82l2.39.34a6.87,6.87,0,0,1,4,1.6A5.78,5.78,0,0,1,19,88.32C19,92.08,15.9,94.61,11.32,94.61Zm-7.24-2.8c1.81,1.79,4,2.55,7.24,2.55,4.5,0,7.41-2.37,7.41-6A5.57,5.57,0,0,0,17.2,84.1a6.55,6.55,0,0,0-3.81-1.53L11,82.22a3.64,3.64,0,0,1-2-.83,2.07,2.07,0,0,1-.64-1.54c0-1.64,1.28-2.7,3.26-2.7a5.84,5.84,0,0,1,4.17,1.35l2.34-2.31A8.67,8.67,0,0,0,11.78,74c-4.23,0-7,2.37-7,6A5.28,5.28,0,0,0,6.24,83.9a6.9,6.9,0,0,0,3.87,1.65l2.46.34a3.18,3.18,0,0,1,1.86.74,2.38,2.38,0,0,1,.67,1.81c0,1.7-1.32,2.63-3.72,2.63a6.76,6.76,0,0,1-4.91-1.66Z"/><path class="cls-1" d="M29.45,94.44H25.23V77.66H19.92V73.87H34.75v3.79h-5.3Zm-4-.25H29.2V77.41h5.31V74.12H20.17v3.29h5.31Z"/><path class="cls-1" d="M40.64,94.44H36.42V73.87h4.22Zm-4-.25h3.72V74.12H36.67Z"/><path class="cls-1" d="M50.64,94.61a7.59,7.59,0,0,1-5.56-2.26,5.9,5.9,0,0,1-1.69-3.12A27.7,27.7,0,0,1,43,84.16a27.75,27.75,0,0,1,.35-5.08A5.87,5.87,0,0,1,45.08,76a7.59,7.59,0,0,1,5.56-2.26,7.28,7.28,0,0,1,7.6,6.53l0,.14H54l0-.1a3.23,3.23,0,0,0-3.31-2.78,3,3,0,0,0-2.44,1c-.81.86-1,1.81-1,5.66s.16,4.79,1,5.65a3,3,0,0,0,2.45,1A3.23,3.23,0,0,0,54,88l0-.1h4.27l0,.15A7.28,7.28,0,0,1,50.64,94.61Zm0-20.66a7.33,7.33,0,0,0-5.39,2.19,5.56,5.56,0,0,0-1.62,3,27.38,27.38,0,0,0-.34,5,27.26,27.26,0,0,0,.34,5,5.73,5.73,0,0,0,1.62,3,7.33,7.33,0,0,0,5.39,2.19A7,7,0,0,0,58,88.19H54.19a3.43,3.43,0,0,1-3.52,2.88A3.26,3.26,0,0,1,48,90c-.86-.91-1-1.89-1-5.81s.17-4.91,1-5.83a3.28,3.28,0,0,1,2.63-1.09,3.43,3.43,0,0,1,3.52,2.88H58A7,7,0,0,0,50.64,74Z"/><path class="cls-1" d="M76.81,94.44H71.89l-5.17-9.15-2.48,3v6.19H60V73.87h4.22v8.62l7-8.62h5.15l-6.85,8.21ZM72,94.19h4.33L69.22,82.06l6.62-7.94h-4.5L64,83.19V74.12H60.27V94.19H64v-6l2.77-3.31Z"/><path class="cls-1" d="M91.73,94.44H78.09V73.87H91.73v3.79H82.31v4.52h8V86h-8v4.69h9.42Zm-13.39-.25H91.48V90.9H82.06V85.72h8v-3.3h-8v-5h9.42V74.12H78.34Z"/><path class="cls-1" d="M109.63,94.44h-4.88l-4-8.11H98.13v8.11H93.92V73.87H102c3.95,0,6.71,2.61,6.71,6.35a5.58,5.58,0,0,1-3.66,5.4Zm-4.72-.25h4.31l-4.51-8.7.14,0a5.36,5.36,0,0,0,3.63-5.22c0-3.59-2.66-6.1-6.47-6.1H94.17V94.19h3.72v-8.1h3ZM101.75,83H97.89V77.41h3.86a2.81,2.81,0,1,1,0,5.61Zm-3.62-.24h3.62a2.57,2.57,0,1,0,0-5.12H98.13Z"/><path class="cls-1" d="M117.42,94.61c-3.38,0-5.63-.81-7.51-2.72l-.08-.09,2.74-2.74.09.09a6.45,6.45,0,0,0,4.82,1.67c1.58,0,3.47-.41,3.47-2.38a2.12,2.12,0,0,0-.59-1.62,2.94,2.94,0,0,0-1.73-.69l-2.45-.34a7,7,0,0,1-4-1.72A5.44,5.44,0,0,1,110.68,80c0-3.82,2.82-6.29,7.2-6.29a8.86,8.86,0,0,1,6.65,2.4l.09.09-2.69,2.66-.08-.09a5.55,5.55,0,0,0-4.09-1.36c-2.22,0-3,1.26-3,2.45a1.84,1.84,0,0,0,.56,1.36,3.35,3.35,0,0,0,1.82.77l2.39.34a6.87,6.87,0,0,1,4,1.6,5.78,5.78,0,0,1,1.61,4.4C125.08,92.08,122,94.61,117.42,94.61Zm-7.24-2.8c1.81,1.79,4,2.55,7.24,2.55,4.5,0,7.41-2.37,7.41-6a5.57,5.57,0,0,0-1.53-4.22,6.55,6.55,0,0,0-3.81-1.53l-2.4-.35a3.64,3.64,0,0,1-2-.83,2.07,2.07,0,0,1-.64-1.54c0-1.64,1.28-2.7,3.26-2.7a5.84,5.84,0,0,1,4.17,1.35l2.34-2.31A8.67,8.67,0,0,0,117.88,74c-4.23,0-7,2.37-7,6a5.28,5.28,0,0,0,1.42,3.91,6.9,6.9,0,0,0,3.87,1.65l2.46.34a3.18,3.18,0,0,1,1.86.74,2.38,2.38,0,0,1,.67,1.81c0,1.7-1.32,2.63-3.72,2.63a6.76,6.76,0,0,1-4.91-1.66Z"/></svg>