<svg id="Layer_1" data-name="Layer 1" xmlns="http://www.w3.org/2000/svg" viewBox="0 0 170.08 113.39"><defs><style>.cls-1{fill:#1d1d1b;}.cls-2{fill:none;stroke:#1d1d1b;stroke-width:0.28px;}</style></defs><title>yearbook</title><path class="cls-1" d="M27.25,52v8H22V52L17.34,34h5.38l1.54,7.65.36,3.72h.08l.37-3.72L26.56,34H32Z"/><path class="cls-1" d="M34,34H48.4v5H39.06v5.54h6.83v5H39.06V55H48.4v5H34Z"/><path class="cls-1" d="M50.87,37.19A3.24,3.24,0,0,1,54.06,34H62a3.24,3.24,0,0,1,3.23,3.24V60h-5V53H55.88v7h-5Zm9.3,10.88V39H55.88v9.1Z"/><path class="cls-1" d="M82.45,48.84a4.26,4.26,0,0,1-2.67,4L82.69,60H77.27l-2.79-6.91H73.11V60h-5V34H78.16a4.31,4.31,0,0,1,4.29,4.29Zm-9.34-.73H77.4V39H73.11Z"/><path class="cls-1" d="M85.32,34H96.44a3.25,3.25,0,0,1,3.24,3.24v7A3.2,3.2,0,0,1,97.94,47a3.3,3.3,0,0,1,1.74,2.87v7A3.24,3.24,0,0,1,96.44,60H85.32Zm9.3,5H90.34v5.54h4.28Zm0,10.51H90.34V55h4.28Z"/><path class="cls-1" d="M116.91,55.75A4.3,4.3,0,0,1,112.62,60h-5.78a4.26,4.26,0,0,1-4.29-4.29V38.24A4.29,4.29,0,0,1,106.84,34h5.78a4.32,4.32,0,0,1,4.29,4.29ZM111.85,39h-4.29V55h4.29Z"/><path class="cls-1" d="M134.13,55.75A4.29,4.29,0,0,1,129.85,60h-5.79a4.26,4.26,0,0,1-4.28-4.29V38.24A4.29,4.29,0,0,1,124.06,34h5.79a4.31,4.31,0,0,1,4.28,4.29Zm-5-16.78h-4.29V55h4.29Z"/><path class="cls-1" d="M152.74,34l-6.35,11L152.49,60h-5.38l-3.88-9.58L142,52.52V60h-5V34h5v8.54L147,34Z"/><path class="cls-2" d="M58.34,67.25h3.44L62.85,73,63,75.11h.08L63.19,73l1.08-5.74h3.44V79.43H65.36V72.88l.1-1.8H65.4L64,79.43H62.06l-1.42-8.35h0l.09,1.8v6.55H58.34Z"/><path class="cls-2" d="M69.05,68.76a1.51,1.51,0,0,1,1.49-1.51h3.7a1.52,1.52,0,0,1,1.51,1.51V79.43H73.39V76.15h-2v3.28H69.05Zm4.34,5.08V69.59h-2v4.25Z"/><path class="cls-2" d="M77.09,68.76a1.51,1.51,0,0,1,1.49-1.51h3.71a1.52,1.52,0,0,1,1.51,1.51V71.2H81.44V69.59h-2v7.5h2V75.48H83.8v2.46a1.51,1.51,0,0,1-1.51,1.49H78.58a1.51,1.51,0,0,1-1.49-1.49Z"/><path class="cls-2" d="M87.48,72.18h2V67.25h2.36V79.43H89.48V74.52h-2v4.91H85.14V67.25h2.34Z"/><path class="cls-2" d="M93.18,67.25h2.34V79.43H93.18Z"/><path class="cls-2" d="M96.87,67.25h2.77L102,74.62H102l-.3-2.14V67.25h2.36V79.43h-2.78L99,72.08h-.07l.3,2.12v5.23H96.87Z"/><path class="cls-2" d="M105.44,67.25h6.7v2.34h-4.36v2.59H111v2.34h-3.19v2.57h4.36v2.34h-6.7Z"/></svg>