<svg id="Layer_1" data-name="Layer 1" xmlns="http://www.w3.org/2000/svg" viewBox="0 0 170.08 113.39"><defs><style>.cls-1{fill:#1d1d1b;}</style></defs><title>yearbook</title><path class="cls-1" d="M31.82,53.68v6.9H27.34v-6.9l-4-15.48h4.61l1.32,6.56L29.57,48h.06L30,44.76l1.28-6.56h4.65Z"/><path class="cls-1" d="M39.2,38.2H51.52v4.3h-8v4.76h5.86v4.3H43.51v4.72h8v4.3H39.2Z"/><path class="cls-1" d="M54.84,41a2.78,2.78,0,0,1,2.75-2.78h6.8A2.78,2.78,0,0,1,67.16,41v19.6H62.83v-6H59.15v6H54.84Zm8,9.33V42.5H59.15v7.81Z"/><path class="cls-1" d="M82.81,51a3.67,3.67,0,0,1-2.29,3.4L83,60.58H78.36L76,54.65H74.79v5.93h-4.3V38.2h8.64a3.71,3.71,0,0,1,3.68,3.68Zm-8-.62h3.68V42.5H74.79Z"/><path class="cls-1" d="M86.34,38.2h9.54A2.79,2.79,0,0,1,98.66,41v6a2.73,2.73,0,0,1-1.5,2.42,2.85,2.85,0,0,1,1.5,2.47v6a2.78,2.78,0,0,1-2.78,2.74H86.34Zm8,4.3H90.64v4.76h3.68Zm0,9H90.64v4.75h3.68Z"/><path class="cls-1" d="M114.3,56.9a3.68,3.68,0,0,1-3.68,3.68h-5A3.66,3.66,0,0,1,102,56.9v-15a3.68,3.68,0,0,1,3.68-3.68h5a3.71,3.71,0,0,1,3.68,3.68ZM110,42.5h-3.68V56.28H110Z"/><path class="cls-1" d="M129.94,56.9a3.68,3.68,0,0,1-3.68,3.68h-5a3.66,3.66,0,0,1-3.68-3.68v-15a3.68,3.68,0,0,1,3.68-3.68h5a3.71,3.71,0,0,1,3.68,3.68ZM125.6,42.5h-3.68V56.28h3.68Z"/><path class="cls-1" d="M146.76,38.2l-5.45,9.41,5.24,13h-4.61l-3.34-8.22-1,1.77v6.45h-4.3V38.2h4.3v7.32l4.24-7.32Z"/><path d="M32.86,67.32h2.22l.69,3.7.09,1.37h0L36,71l.7-3.7h2.22v7.87H37.39V71l.07-1.16h0l-.92,5.4H35.26l-.92-5.4h0L34.37,71v4.24H32.86Z"/><path d="M50.88,68.29a1,1,0,0,1,1-1h2.39a1,1,0,0,1,1,1v6.9H53.69V73.06H52.4v2.13H50.88Zm2.81,3.28V68.83H52.4v2.74Z"/><path d="M67.19,68.29a1,1,0,0,1,1-1h2.39a1,1,0,0,1,1,1v1.58H70v-1H68.7v4.84H70v-1h1.52v1.58a1,1,0,0,1-1,1H68.15a1,1,0,0,1-1-1Z"/><path d="M85,70.5H86.3V67.32h1.53v7.87H86.3V72H85v3.18H83.5V67.32H85Z"/><path d="M99.8,67.32h1.51v7.87H99.8Z"/><path d="M113.29,67.32h1.79l1.52,4.75h0l-.19-1.37V67.32H118v7.87h-1.79l-1.51-4.75h0l.19,1.37v3.38h-1.51Z"/><path d="M129.94,67.32h4.33v1.51h-2.82V70.5h2.06V72h-2.06v1.66h2.82v1.52h-4.33Z"/></svg>