<svg id="Layer_1" data-name="Layer 1" xmlns="http://www.w3.org/2000/svg" viewBox="0 0 170.08 113.39"><defs><style>.cls-1{fill:#1d1d1b;}</style></defs><title>zagars</title><polygon class="cls-1" points="13.74 27.7 19.09 27.7 19.09 47.15 31.21 47.15 31.21 52.02 13.74 52.02 13.74 27.7"/><path class="cls-1" d="M48.58,41.84,45.35,34l-3.23,7.89ZM43,27.53h4.93L58.31,52h-5.6l-2.22-5.46H40.21L38,52H32.53Z"/><polygon class="cls-1" points="62.23 32.63 54.83 32.63 54.83 27.7 74.98 27.7 74.98 32.63 67.58 32.63 67.58 54.23 62.23 53 62.23 32.63"/><polygon class="cls-1" points="77.08 27.7 82.99 27.7 89.35 44.83 95.7 27.7 101.47 27.7 91.64 52.19 86.92 52.19 77.08 27.7"/><rect class="cls-1" x="103.24" y="27.7" width="5.35" height="24.32"/><path class="cls-1" d="M111.1,48.72,114.47,45c1.39,1.53,2.75,2.44,4.45,2.44,2,0,3.26-1.22,3.26-4V27.7h5.49V43.61a8.84,8.84,0,0,1-2.29,6.5,8.69,8.69,0,0,1-6.32,2.25,10,10,0,0,1-8-3.64"/><path class="cls-1" d="M144.51,41.84,141.28,34l-3.23,7.89Zm-5.63-14.31h4.94L154.24,52h-5.6l-2.22-5.46H136.14L133.92,52h-5.46Z"/><path class="cls-1" d="M27.7,75.62l-3.23-7.89-3.23,7.89ZM22.08,61.3H27L37.43,85.79H31.84l-2.23-5.45H19.33l-2.22,5.45H11.65Z"/><path class="cls-1" d="M49.39,73.29c2.6,0,4.1-1.39,4.1-3.44v-.07c0-2.29-1.6-3.47-4.21-3.47H44v7ZM38.62,61.48H49.74c3.09,0,5.49.87,7.08,2.46a7.63,7.63,0,0,1,2.09,5.56v.07a7.55,7.55,0,0,1-5.21,7.54l5.94,8.68H53.38L48.17,78H44v7.78H38.62Z"/><path class="cls-1" d="M136.5,73.29c2.61,0,4.1-1.39,4.1-3.44v-.07c0-2.29-1.6-3.47-4.2-3.47h-5.32v7ZM125.73,61.48h11.12c3.09,0,5.49.87,7.09,2.46A7.67,7.67,0,0,1,146,69.5v.07a7.55,7.55,0,0,1-5.21,7.54l5.94,8.68H140.5L135.29,78h-4.21v7.78h-5.35Z"/><path class="cls-1" d="M62.23,62.31l5.35-1V85.79H62.23Zm-2.69-7.37,13.68,2.82L59.54,60.47Z"/><polygon class="cls-1" points="78.85 61.48 84.76 61.48 91.11 78.6 97.47 61.48 103.24 61.48 93.41 85.97 88.68 85.97 78.85 61.48"/><path class="cls-1" d="M114.36,75.62l-3.23-7.89-3.23,7.89ZM108.74,61.3h4.93l10.42,24.49H118.5l-2.23-5.45H106l-2.22,5.45H98.31Z"/><polygon class="cls-1" points="149.41 62.17 149.41 61.48 155.59 61.48 155.59 62.17 153.82 77.23 151.18 76.23 149.41 62.17"/><path class="cls-1" d="M149.41,85.94V78.28l7.66,3.83Z"/></svg>