<svg id="Layer_1" data-name="Layer 1" xmlns="http://www.w3.org/2000/svg" viewBox="0 0 253.99 144.87"><defs><style>.cls-1{fill:#fff;}.cls-2{fill:#140f11;}</style></defs><title>binders</title><path class="cls-1" d="M61.47,54.52l1.27-4.61a22.59,22.59,0,0,0-3.09-.21c-.83,0-1.88,0-2.69.13l-1.29,4.69Z"/><path class="cls-1" d="M50.56,68.52H37.9a21.83,21.83,0,0,0-.23,3.15c0,.6.09.85.13,1.43H49.27Z"/><path class="cls-1" d="M59.17,87.28c5.82,0,11-2.89,12.74-9.15.87-3.18.65-6.35-2.46-7.35l0-.09A10.5,10.5,0,0,0,75.1,64c1.41-5.17-1.85-8.06-7.49-8H44.31a19.36,19.36,0,0,0-3.67,4.59H66.27c2.56,0,3.39,1.93,2.77,4.18a4.79,4.79,0,0,1-4.71,3.82H59L57.71,73.1h5.77c2.78,0,3.28,2.1,2.57,4.71a5.94,5.94,0,0,1-5.61,4.7l-5.67,0h0c-.55,0-.79-.51-.57-1.44l5.24-19.21H53.73l-7.49,26.8a14.72,14.72,0,0,0,5,3.3l1.28-4.67Z"/><path class="cls-2" d="M62.74,49.91l-1.27,4.61h-5.8L57,49.83a21.34,21.34,0,0,0-12.65,6.1h23.3c5.64,0,8.9,2.86,7.49,8a10.5,10.5,0,0,1-5.63,6.73l0,.09c3.11,1,3.33,4.17,2.46,7.35-1.72,6.26-6.92,9.12-12.74,9.15l-6.61,0L51.28,92a21.19,21.19,0,0,0,8.37,1.65,22,22,0,0,0,3.09-43.73Z"/><path class="cls-2" d="M59.44,61.89,54.2,81.1c-.22.93,0,1.41.57,1.44h0l5.67,0a5.94,5.94,0,0,0,5.61-4.7c.71-2.61.21-4.72-2.57-4.71H57.71L59,68.52h5.38A4.79,4.79,0,0,0,69,64.7c.62-2.25-.21-4.19-2.77-4.18H40.64a24.32,24.32,0,0,0-2.74,8H50.56L49.27,73.1H37.8c.51,6.31,3.67,12.25,8.44,15.59l7.49-26.8Z"/><rect class="cls-2" x="114.06" y="59.01" width="4.13" height="4.39"/><path class="cls-2" d="M118.57,80.83V69.08c0-1.77-.75-2.56-2.52-2.56h-4.54v4.06H113a.74.74,0,0,1,.83.82V83.12c0,1.8.75,2.55,2.51,2.55h4.55v-4h-1.51A.75.75,0,0,1,118.57,80.83Z"/><path class="cls-2" d="M141.72,80.83V73.36c0-5.07-2.44-7.29-6.68-7.29a7.37,7.37,0,0,0-6.76,4h-.08a5,5,0,0,0,.08-.83v-.56c0-1.35-.83-2.14-2.52-2.14h-4.39v4.06h1.5a.73.73,0,0,1,.83.82V85.67h4.73V76.89a8.21,8.21,0,0,1,.37-2.56,5.26,5.26,0,0,1,5.15-3.9c2.4,0,3,1.58,3,3.9v8.79c0,1.8.75,2.55,2.55,2.55h4.55v-4h-1.5A.76.76,0,0,1,141.72,80.83Z"/><path class="cls-2" d="M163.83,80.83V61.57c0-1.77-.78-2.56-2.55-2.56h-4.54v4.06h1.5a.73.73,0,0,1,.82.82v3.38c0,.64,0,1.13,0,1.13H159s-1.36-2.33-5.52-2.33c-5.07,0-8.72,3.94-8.72,10,0,5.93,3.35,10,8.53,10a6.59,6.59,0,0,0,6-3.11h.08v.71c0,1.13.63,2,2.36,2h4.39v-4h-1.46A.76.76,0,0,1,163.83,80.83Zm-9.46,1.27c-2.82,0-4.73-2.36-4.73-6s2.18-5.94,4.8-5.94c3.2,0,4.74,2.93,4.74,5.9C159.18,80.3,156.85,82.1,154.37,82.1Z"/><path class="cls-2" d="M176.66,66.07c-5.75,0-9.73,4.13-9.73,10,0,5.44,3.95,10,10.29,10a11.66,11.66,0,0,0,7.7-2.89l-2-3.3a8.7,8.7,0,0,1-5.37,2.14,5.5,5.5,0,0,1-5.74-5.15H185s.12-1.2.12-1.76C185.15,70.09,182.14,66.07,176.66,66.07ZM172,73.62a4.59,4.59,0,0,1,4.69-3.87,3.73,3.73,0,0,1,3.61,3.87Z"/><path class="cls-2" d="M193.2,71.18h-.08a8.23,8.23,0,0,0,.08-1.2V68.85c0-1.62-.87-2.33-2.56-2.33h-4.35v4.06h1.5a.74.74,0,0,1,.83.82V85.67h4.73V78.09a11.72,11.72,0,0,1,.41-3.12A5.39,5.39,0,0,1,199,71a7.8,7.8,0,0,1,1.16.08v-4.7a6.13,6.13,0,0,0-6.94,4.85Z"/><path class="cls-2" d="M206.13,71.48c0-1.13,1.17-1.73,2.86-1.73,1,0,2.4.45,2.4,1.35V72h4.21v-2c0-3.12-4.13-4-6.72-4-4,0-7.44,1.77-7.44,5.6,0,6.19,10.1,6.15,10.1,8.86,0,1.27-1.12,1.88-2.59,1.88-3.26,0-5.7-2.82-5.7-2.82L201,82.71a10.52,10.52,0,0,0,8,3.41c4.17,0,7.36-2.25,7.36-5.85C216.31,73.88,206.13,74.48,206.13,71.48Z"/><path class="cls-2" d="M105.92,71.67v-.08a6.23,6.23,0,0,0,3.23-5.71c0-4.39-3.46-6.87-8.26-6.87H89.36v4.17H91.8V83.12c0,1.8.79,2.55,2.55,2.55H101c5,0,9.2-2.4,9.2-7.73A6.24,6.24,0,0,0,105.92,71.67Zm-9.2-8.49h4.13a3.05,3.05,0,0,1,3.3,3.3,3.14,3.14,0,0,1-3.22,3.42H96.72Zm4.65,18.33H97.55a.75.75,0,0,1-.83-.83V73.81h4.65a3.85,3.85,0,0,1,0,7.7Z"/></svg>