<svg id="Layer_1" data-name="Layer 1" xmlns="http://www.w3.org/2000/svg" viewBox="0 0 253.99 144.87"><defs><style>.cls-1{fill:#1b181c;}.cls-2{fill:#fff;}</style></defs><title>kiki</title><path class="cls-1" d="M89.76,79.65v4.83H81.23V56.68h8.53V67.76l9-11.08h9.12v.6L99.24,67.89l9,15.77v.82H98.74L93.4,75.14Z"/><path class="cls-1" d="M114.21,67.75V66.49a14.34,14.34,0,0,1,1.48-.46q.91-.24,2-.42c.69-.12,1.37-.23,2-.31a13.68,13.68,0,0,1,1.79-.13l.66.44-3.31,15.8h2.58v1.28a7,7,0,0,1-1.13.64,9.6,9.6,0,0,1-1.36.53,12.28,12.28,0,0,1-1.45.36,7.84,7.84,0,0,1-1.4.13,2.71,2.71,0,0,1-1.94-.53,1.64,1.64,0,0,1-.53-1.16,8.57,8.57,0,0,1,.11-1.44c.07-.46.17-1,.3-1.54l2.5-11.42Zm3.1-8.29a2.37,2.37,0,0,1,.85-2,3.2,3.2,0,0,1,2.13-.7,3.33,3.33,0,0,1,2.23.7,2.42,2.42,0,0,1,.83,2,2.34,2.34,0,0,1-.83,1.88,3.38,3.38,0,0,1-2.23.7,3.25,3.25,0,0,1-2.13-.7A2.3,2.3,0,0,1,117.31,59.46Z"/><path class="cls-1" d="M155.63,82.3l-7.16-7.37L137.3,81.6v2.88h-6.11V72.26h6.11v2.23l6.81-4.06-4.45-4.58H137.3V68.9h-6.11V56.68h6.11v3.06h18.33V56.68h6.11V68.6h-6.11V65.85h-7.46l7.46,7.68V72h6.11V84.48h-6.11Zm3.36-.57v-7h-.61v5.63L141.71,63.1h16.67v2.75H159V59.43h-.61v3.06H134.55V59.43h-.61v6.72h.61V63.1h6.29L148.52,71l-14,8.29V75h-.61v6.72h.61V80L149,71.48l9.43,9.73v.52Z"/><path class="cls-1" d="M177.38,82.81h-8c-.36,0-.54-.16-.54-.49v-1.8c0-.33.18-.5.54-.5h2.29V65.09h-2.29c-.36,0-.54-.16-.54-.5V62.8c0-.34.18-.5.54-.5h5.25a.44.44,0,0,1,.5.5V80h2.21c.37,0,.55.17.55.5v1.8C177.93,82.65,177.75,82.81,177.38,82.81ZM175,56.12a2.33,2.33,0,0,1,.69,1.67,2.18,2.18,0,0,1-.69,1.63,2.37,2.37,0,0,1-3.3,0,2.17,2.17,0,0,1-.68-1.63,2.32,2.32,0,0,1,.68-1.67,2.29,2.29,0,0,1,3.3,0Z"/><rect class="cls-1" x="185.1" y="56" width="10.97" height="28.24"/><path class="cls-2" d="M191.13,81.9h0A3.05,3.05,0,0,1,188,78.78a2.91,2.91,0,0,1,1-2.37l1.11,1a1.74,1.74,0,0,0-.66,1.35,1.52,1.52,0,0,0,1.62,1.44h0a1.52,1.52,0,0,0,1.64-1.51,1.87,1.87,0,0,0-.63-1.36l1-1a3.15,3.15,0,0,1-2,5.53Z"/><path class="cls-2" d="M192.37,75.63h0c-1.29,0-1.89-1-1.89-2.4a4.3,4.3,0,0,1,.24-1.45h-.1c-.7,0-1.09.43-1.09,1.27a4.41,4.41,0,0,0,.33,1.65l-1.29.42a5.25,5.25,0,0,1-.48-2.31,2.71,2.71,0,0,1,.67-2,2.6,2.6,0,0,1,1.89-.64h3.45v1.63h-.64a2.28,2.28,0,0,1,.75,1.79A1.84,1.84,0,0,1,192.37,75.63ZM192,71.76h-.3a2.46,2.46,0,0,0-.22,1.07c0,.72.29,1.17.82,1.17h0c.45,0,.72-.38.72-.92C193,72.29,192.59,71.76,192,71.76Z"/><path class="cls-2" d="M189.57,68.42v.69h-1.38v-.69h-.38a2,2,0,0,1-1.44-.48,1.82,1.82,0,0,1-.47-1.37,3.67,3.67,0,0,1,.17-1.19h1.39a2.28,2.28,0,0,0-.14.76c0,.39.2.61.64.61h.23V65.39h1.38v1.34h4.5v1.69Z"/><path class="cls-2" d="M191.13,64.86h0A3,3,0,0,1,188,61.93c0-2,1.54-2.9,3.22-2.9l.45,0v4.14a1.38,1.38,0,0,0,1.16-1.45,1.9,1.9,0,0,0-.61-1.44l.86-1a3.14,3.14,0,0,1-2,5.53Zm-.5-4.19a1.27,1.27,0,0,0-1.26,1.26,1.32,1.32,0,0,0,1.26,1.28Z"/><path class="cls-1" d="M59.32,79.85a18.53,18.53,0,0,0,16.06-9.27,18.54,18.54,0,0,0-32.11,0A18.53,18.53,0,0,0,59.32,79.85Z"/><path class="cls-2" d="M67.58,70.58a8.26,8.26,0,1,1-8.26-8.26A8.26,8.26,0,0,1,67.58,70.58Z"/><path d="M63.92,70.58A4.6,4.6,0,1,1,59.32,66,4.6,4.6,0,0,1,63.92,70.58Z"/><path class="cls-2" d="M64.14,67.54A1.56,1.56,0,1,1,62.59,66,1.55,1.55,0,0,1,64.14,67.54Z"/></svg>