<svg id="Layer_1" data-name="Layer 1" xmlns="http://www.w3.org/2000/svg" viewBox="0 0 253.99 144.87"><defs><style>.cls-1{fill:#1b181c;}</style></defs><title>made</title><path class="cls-1" d="M136.59,54.55l-15.42.06.13,29.71h15.41l7.82-14.49Zm-2.54,25.27h-8.18V59.05H134v.07l5.9,10.61Z"/><path class="cls-1" d="M95.8,84.32H91v-22L85.25,75.62h-4.8L74.69,62.29v22H69.93V54.6h5.71l7.18,17.08L90,54.6H95.8Z"/><path class="cls-1" d="M166.46,84.32h-20.4V54.6h20.4v4.19H150.82v8.88h15.62v4H150.82v8.42h15.64Z"/><path class="cls-1" d="M119.89,84.32h-4.44V75.56H101.89v8.76H97.61V73.92l8.77-19.43h4.73l8.78,19.43ZM114.4,71.7l-5.73-13.09L103.14,71.7Z"/><path class="cls-1" d="M126.05,94.16h-1v-2h-3.11v2h-1V91.77l2-4.45H124l2,4.45Zm-1.26-2.9-1.32-3-1.26,3Z"/><path class="cls-1" d="M130.69,94.15l-1.44-2.9h-1.38v2.9h-1V87.32l3.78,0a1.28,1.28,0,0,1,1.15,1.15l0,.27h0v1h0l0,.27a1.3,1.3,0,0,1-1.15,1.16l-.24,0,1.42,2.9Zm-.34-3.93.14,0a.35.35,0,0,0,.24-.23l0-.15v-1l0-.14a.4.4,0,0,0-.24-.25h-.14v0h-2.48v1.88Z"/><path class="cls-1" d="M134.11,94.15v-2.9H137v2.9h1V87.32h-1v2.9h-2.9v-2.9h-1v6.83Z"/><path class="cls-1" d="M140.37,87.32v6.83h-1V87.32Z"/><path class="cls-1" d="M144.66,94.15V88.34h2v-1h-5v1h2v5.81Z"/><path class="cls-1" d="M152.61,94.15v-1h-3.94V91.25h3.87v-1h-3.87V88.34h3.94v-1h-5v6.83Z"/><path class="cls-1" d="M153.52,94.15V87.32h1v2.84l2.59-2.84h1.32l-2.9,3.24,2.92,3.59h-1.29l-2.3-2.77-.34.4v2.37Z"/><path class="cls-1" d="M161.41,94.15V88.34h-2v-1h5v1h-2v5.81Z"/><path class="cls-1" d="M165.42,87.32v6.83h1V87.32Z"/></svg>