<svg id="Layer_1" data-name="Layer 1" xmlns="http://www.w3.org/2000/svg" viewBox="0 0 253.99 144.87"><defs><style>.cls-1{fill:#1d1d1b;}</style></defs><title>mars</title><path class="cls-1" d="M100.71,78.31l-2.7-23c-.23-2-.37-4.25-.37-4.25h-.09s-.46,2.29-1,4.25l-7,23H86l-7-23c-.59-2-1-4.25-1-4.25h-.09s-.14,2.29-.36,4.25l-2.75,23H70l4.25-33.1h6l6.54,21.62c.55,1.88,1,4.07,1,4.07h.09s.41-2.19,1-4.07l6.54-21.62h6l4.25,33.1Z"/><path class="cls-1" d="M117.83,78.81c-7.09,0-10.66-2.88-10.66-7.73,0-6.85,7.32-8.09,14.77-8.5V61c0-3.11-2.06-4.21-5.21-4.21a17.93,17.93,0,0,0-6.81,1.51l-1.28-3.43a22.93,22.93,0,0,1,8.59-1.74c5.9,0,9.47,2.29,9.47,8.37V77.07A21.45,21.45,0,0,1,117.83,78.81Zm4.11-12.89c-5,.27-10.06.68-10.06,5.07,0,2.61,2,4.21,5.81,4.21a12.7,12.7,0,0,0,4.25-.64Z"/><path class="cls-1" d="M142.08,57.51a10.2,10.2,0,0,0-2.51-.28,10.84,10.84,0,0,0-3.89.64V78.31h-5V54.9a25.7,25.7,0,0,1,9.55-1.74,15.7,15.7,0,0,1,2.79.19Z"/><path class="cls-1" d="M152.34,78.81a17.71,17.71,0,0,1-7.69-1.74l1.7-3.84a13.61,13.61,0,0,0,5.85,1.6c2.7,0,4.48-1.32,4.48-3.38,0-2.24-1.88-3.11-4.39-4-3.29-1.24-7-2.75-7-7.36,0-4.07,3.16-6.91,8.65-6.91a14.35,14.35,0,0,1,7.17,1.74l-1.55,3.47a11.14,11.14,0,0,0-5.08-1.46c-2.6,0-4.06,1.37-4.06,3.16,0,2.24,1.82,3,4.25,3.93,3.43,1.28,7.22,2.7,7.22,7.5C161.89,75.93,158.51,78.81,152.34,78.81Z"/><path class="cls-1" d="M130.54,98.1l7.18-7.21c1.11-1.11,2.11-2.27,2.11-3.55,0-1.77-1.22-3-3.83-3a10.53,10.53,0,0,0-4.16.92l-.58-1.31a12.09,12.09,0,0,1,4.85-1c3.69,0,5.41,1.86,5.41,4.35,0,1.64-1.14,3.11-2.53,4.41l-5.29,5h8.43V98.1Z"/><path class="cls-1" d="M151,98.38c-4.22,0-6.3-3.38-6.3-7.77s2.08-7.73,6.3-7.73,6.3,3.35,6.3,7.73S155.17,98.38,151,98.38Zm0-14.12c-3.16,0-4.63,2.69-4.63,6.35S147.79,97,151,97s4.63-2.69,4.63-6.36S154.11,84.26,151,84.26Z"/><path class="cls-1" d="M170.44,98.1v4.41h-1.55V98.1h-9.46V96.8l9.18-13.65h1.83V96.83h2.2V98.1ZM169,84.74a27,27,0,0,1-1.39,2.32L161,96.83h7.9V87.34c0-1.27.08-2.6.08-2.6Z"/><path class="cls-1" d="M176.77,102.79l-.5-1.41a12.26,12.26,0,0,0,8.6-7.55,10.17,10.17,0,0,1-3.8.75c-3.85,0-6.49-2.08-6.49-5.8a5.94,5.94,0,0,1,6.19-5.9c4.27,0,6.38,3.27,6.38,7.21C187.15,95.3,183.51,100.93,176.77,102.79Zm4-18.53a4.46,4.46,0,0,0-4.55,4.52c0,3,2.08,4.5,5,4.5a11.85,11.85,0,0,0,4.08-.86,10.14,10.14,0,0,0,.25-2.36C185.54,86.84,183.9,84.26,180.77,84.26Z"/><path class="cls-1" d="M109.7,48.66,109.35,46c0-.18,0-.39,0-.39h0a3.08,3.08,0,0,1-.1.38l-.83,2.68h-.24L107.3,46c0-.17-.1-.38-.1-.38h0s0,.21,0,.39l-.35,2.67h-.27l.46-3.34h.35l.81,2.6a3,3,0,0,1,.1.39h0a3,3,0,0,1,.1-.39l.8-2.6h.35l.46,3.34Z"/><path class="cls-1" d="M110.78,48.66V45.32h.28v3.34Z"/><path class="cls-1" d="M112.58,48.7a1.77,1.77,0,0,1-.78-.17l.11-.24a1.54,1.54,0,0,0,.67.16c.47,0,.82-.24.82-.66s-.34-.55-.68-.7-.88-.42-.88-1a.88.88,0,0,1,1-.86,1.32,1.32,0,0,1,.71.17l-.1.23a1.39,1.39,0,0,0-.6-.15c-.42,0-.72.22-.72.61s.37.55.72.7.84.4.84.94S113.22,48.7,112.58,48.7Z"/><path class="cls-1" d="M115.05,48.7a1.77,1.77,0,0,1-.78-.17l.11-.24a1.54,1.54,0,0,0,.67.16c.47,0,.82-.24.82-.66s-.34-.55-.68-.7-.88-.42-.88-1a.88.88,0,0,1,1-.86,1.32,1.32,0,0,1,.71.17l-.1.23a1.39,1.39,0,0,0-.6-.15c-.42,0-.72.22-.72.61s.37.55.72.7.84.4.84.94S115.69,48.7,115.05,48.7Z"/><path class="cls-1" d="M116.92,48.66V45.32h.28v3.34Z"/><path class="cls-1" d="M119.3,48.7c-.83,0-1.26-.77-1.26-1.71s.43-1.71,1.26-1.71,1.27.77,1.27,1.71S120.14,48.7,119.3,48.7Zm0-3.17c-.64,0-1,.66-1,1.46s.34,1.46,1,1.46,1-.65,1-1.46S120,45.53,119.3,45.53Z"/><path class="cls-1" d="M123.52,48.66,121.85,46c-.1-.16-.19-.35-.19-.35h0s0,.21,0,.39v2.62h-.26V45.32h.31l1.65,2.62a2.93,2.93,0,0,1,.2.35h0s0-.21,0-.4V45.32h.26v3.34Z"/><path class="cls-1" d="M126.83,45.57v3.09h-.28V45.57h-.88v-.25h2v.25Z"/><path class="cls-1" d="M129.43,48.7c-.84,0-1.27-.77-1.27-1.71s.43-1.71,1.27-1.71,1.27.77,1.27,1.71S130.26,48.7,129.43,48.7Zm0-3.17c-.65,0-1,.66-1,1.46s.34,1.46,1,1.46,1-.65,1-1.46S130.08,45.53,129.43,45.53Z"/></svg>