<svg id="Layer_1" data-name="Layer 1" xmlns="http://www.w3.org/2000/svg" viewBox="0 0 253.99 144.87"><defs><style>.cls-1{fill:#1b181c;}</style></defs><title>positivus-music</title><path class="cls-1" d="M46.52,63.3h4.84a9.17,9.17,0,0,1,2.23.24,3.33,3.33,0,0,1,1.61.87,4,4,0,0,1,1,1.77,11.41,11.41,0,0,1,.31,3,10.46,10.46,0,0,1-.31,2.8,4.4,4.4,0,0,1-1,1.77,3.27,3.27,0,0,1-1.57.92,8.25,8.25,0,0,1-2.23.27H49.73v6.39H46.52Zm3.21,2.94V72h1.63a1.75,1.75,0,0,0,1.44-.58,3.87,3.87,0,0,0,.47-2.3,4.1,4.1,0,0,0-.45-2.28,1.65,1.65,0,0,0-1.43-.62Z"/><path class="cls-1" d="M57.41,69.08a7.21,7.21,0,0,1,1.22-4.62,4.85,4.85,0,0,1,4-1.49,4.91,4.91,0,0,1,4,1.48,7.18,7.18,0,0,1,1.23,4.63v6.43a7.2,7.2,0,0,1-1.23,4.62,4.91,4.91,0,0,1-4,1.49,4.85,4.85,0,0,1-4-1.49,7.21,7.21,0,0,1-1.22-4.62ZM64.63,69a4.39,4.39,0,0,0-.48-2.32,1.71,1.71,0,0,0-1.54-.75c-1.33,0-2,1-2,3v6.67a4.4,4.4,0,0,0,.47,2.32,1.65,1.65,0,0,0,1.52.75,1.71,1.71,0,0,0,1.54-.75,4.39,4.39,0,0,0,.48-2.32Z"/><path class="cls-1" d="M76,76a2.21,2.21,0,0,0-.59-1.6,4.5,4.5,0,0,0-2.21-1,8.51,8.51,0,0,1-1.77-.62,4.21,4.21,0,0,1-1.32-1,4,4,0,0,1-.81-1.5A7.17,7.17,0,0,1,69,68.12a5.6,5.6,0,0,1,1.19-3.75A4.68,4.68,0,0,1,74,63a7.67,7.67,0,0,1,2.37.32,3.51,3.51,0,0,1,1.55,1,3.61,3.61,0,0,1,.84,1.64A9.51,9.51,0,0,1,79,68.23H75.77a3.07,3.07,0,0,0-.41-1.75A1.61,1.61,0,0,0,74,65.9a1.53,1.53,0,0,0-1.34.57,2.91,2.91,0,0,0-.4,1.65A2.56,2.56,0,0,0,72.79,70a3.81,3.81,0,0,0,2,.91,11.6,11.6,0,0,1,2.1.72,4.38,4.38,0,0,1,1.39,1A3.45,3.45,0,0,1,79,74.05,7.37,7.37,0,0,1,79.2,76a8.44,8.44,0,0,1-.36,2.65,4.26,4.26,0,0,1-1,1.75,3.94,3.94,0,0,1-1.65,1,7.33,7.33,0,0,1-2.16.29,8.11,8.11,0,0,1-2.36-.3,3.51,3.51,0,0,1-1.61-1,4.09,4.09,0,0,1-.91-1.76,9.87,9.87,0,0,1-.29-2.6H72a3.5,3.5,0,0,0,.47,2.1,1.75,1.75,0,0,0,1.49.61,1.83,1.83,0,0,0,1.54-.6A3.56,3.56,0,0,0,76,76Z"/><path class="cls-1" d="M80.41,63.3h3.21v18H80.41Z"/><path class="cls-1" d="M87.62,66.24H84.54V63.3H93.9v2.94H90.83V81.29H87.62Z"/><path class="cls-1" d="M94.82,63.3H98v18H94.82Z"/><path class="cls-1" d="M98.89,63.3h3.38l1.63,10.41.24,1.51c.06.43.11.82.15,1.16s.07.65.1.92,0,.56.09.83c0-.27,0-.55.08-.83s.08-.58.11-.92.09-.73.16-1.16.14-.94.23-1.51L106.7,63.3h3.37l-3.6,18h-4Z"/><path class="cls-1" d="M114.13,63.3V75.78a4.49,4.49,0,0,0,.41,2.19,1.85,1.85,0,0,0,2.88,0,4.36,4.36,0,0,0,.42-2.19V63.3h3.21V75.56a11.37,11.37,0,0,1-.32,2.91,4.48,4.48,0,0,1-1,1.87,3.47,3.47,0,0,1-1.59,1,7.26,7.26,0,0,1-2.19.29,7.15,7.15,0,0,1-2.18-.29,3.55,3.55,0,0,1-1.6-1,4.47,4.47,0,0,1-1-1.87,10.94,10.94,0,0,1-.32-2.91V63.3Z"/><path class="cls-1" d="M129.37,76a2.2,2.2,0,0,0-.58-1.6,4.6,4.6,0,0,0-2.21-1,8.51,8.51,0,0,1-1.77-.62,3.91,3.91,0,0,1-2.14-2.48,7.53,7.53,0,0,1-.27-2.18,5.55,5.55,0,0,1,1.19-3.75,4.67,4.67,0,0,1,3.76-1.4,7.67,7.67,0,0,1,2.37.32,3.57,3.57,0,0,1,1.55,1,3.71,3.71,0,0,1,.84,1.64,9.51,9.51,0,0,1,.25,2.33h-3.21a3.07,3.07,0,0,0-.41-1.75,1.61,1.61,0,0,0-1.39-.58,1.52,1.52,0,0,0-1.34.57,2.83,2.83,0,0,0-.4,1.65,2.61,2.61,0,0,0,.55,1.85,3.89,3.89,0,0,0,2,.91,11.6,11.6,0,0,1,2.1.72,4.23,4.23,0,0,1,1.38,1,3.59,3.59,0,0,1,.75,1.42,7.37,7.37,0,0,1,.22,1.93,8.44,8.44,0,0,1-.36,2.65,4.39,4.39,0,0,1-1,1.75,3.84,3.84,0,0,1-1.64,1,7.33,7.33,0,0,1-2.16.29,8.23,8.23,0,0,1-2.37-.3,3.53,3.53,0,0,1-1.6-1,4.09,4.09,0,0,1-.91-1.76,9.83,9.83,0,0,1-.3-2.6h3.21a3.57,3.57,0,0,0,.47,2.1,2.2,2.2,0,0,0,3,0A3.48,3.48,0,0,0,129.37,76Z"/><path class="cls-1" d="M159,81.11l-2.67-11.77c-.08-.29-.15-.62-.22-1l-.21-1.09c-.06-.36-.12-.71-.19-1s-.11-.61-.15-.84c0,.23,0,.52,0,.84s0,.68,0,1,0,.74,0,1.11,0,.71,0,1V81.11H153.8V63.36h2.82l2.73,12c.12.53.23,1,.31,1.55s.16,1,.23,1.43c.07-.46.15-.93.23-1.43s.19-1,.32-1.55l2.76-12H166V81.11h-1.83V69.39q0-.47,0-1c0-.37,0-.74,0-1.11s0-.71,0-1,0-.61,0-.84c-.06.23-.11.52-.17.86s-.11.68-.19,1-.14.71-.2,1.07-.13.7-.21,1l-2.67,11.77Z"/><path class="cls-1" d="M177.09,63.36V75.65a11.37,11.37,0,0,1-.28,2.79,4.31,4.31,0,0,1-.86,1.77,3.11,3.11,0,0,1-1.42.91,6.86,6.86,0,0,1-2,.26,6.62,6.62,0,0,1-1.95-.26,3,3,0,0,1-1.41-.91,4.44,4.44,0,0,1-.86-1.77,11.37,11.37,0,0,1-.28-2.79V63.36H170V75.7a5.85,5.85,0,0,0,.6,3.09,2.21,2.21,0,0,0,2,.9,2.24,2.24,0,0,0,2.05-.9,6.11,6.11,0,0,0,.57-3.09V63.36Z"/><path class="cls-1" d="M186.05,76.38a8,8,0,0,0-.11-1.38,2.22,2.22,0,0,0-.44-1,2.5,2.5,0,0,0-.93-.73,6.3,6.3,0,0,0-1.58-.49,5.28,5.28,0,0,1-3.16-1.56,5,5,0,0,1-1-3.33A5.21,5.21,0,0,1,180,64.33a4.17,4.17,0,0,1,3.3-1.25,4.39,4.39,0,0,1,3.37,1.15,5.62,5.62,0,0,1,1.06,3.83h-1.92a4.09,4.09,0,0,0-.6-2.56,2.34,2.34,0,0,0-1.91-.72c-1.65,0-2.48,1-2.48,3.11a3.43,3.43,0,0,0,.63,2.25,3.64,3.64,0,0,0,2.21,1,8.78,8.78,0,0,1,2.13.67,3.89,3.89,0,0,1,1.34,1.06,3.73,3.73,0,0,1,.68,1.48,9.11,9.11,0,0,1,.19,2,5.41,5.41,0,0,1-1.12,3.81,4.65,4.65,0,0,1-3.55,1.19,7.23,7.23,0,0,1-1.95-.24,3.4,3.4,0,0,1-1.45-.82,3.81,3.81,0,0,1-.9-1.54,8,8,0,0,1-.32-2.42h1.92a6.19,6.19,0,0,0,.17,1.62,2.46,2.46,0,0,0,.54,1,1.91,1.91,0,0,0,.84.53,4,4,0,0,0,1.15.15,2.58,2.58,0,0,0,2.16-.79A4.21,4.21,0,0,0,186.05,76.38Z"/><path class="cls-1" d="M189.69,63.36h1.91V81.11h-1.91Z"/><path class="cls-1" d="M198.09,79.69a2.34,2.34,0,0,0,1.94-.75,4.48,4.48,0,0,0,.6-2.69h1.91a5.79,5.79,0,0,1-1.08,4,4.37,4.37,0,0,1-3.37,1.16,6.2,6.2,0,0,1-2.1-.31,3,3,0,0,1-1.44-1,5.13,5.13,0,0,1-.82-2,14.76,14.76,0,0,1-.26-3V69.36a14,14,0,0,1,.26-2.9,5.16,5.16,0,0,1,.81-1.94A3.11,3.11,0,0,1,196,63.43a5.85,5.85,0,0,1,2.12-.35,4.37,4.37,0,0,1,3.37,1.17c.72.77,1.08,2.09,1.08,4h-1.91a4.44,4.44,0,0,0-.6-2.69,2.34,2.34,0,0,0-1.94-.75,3.19,3.19,0,0,0-1.26.23,1.87,1.87,0,0,0-.83.75,4,4,0,0,0-.47,1.38,12.37,12.37,0,0,0-.15,2.09v6a13.51,13.51,0,0,0,.14,2.1,3.73,3.73,0,0,0,.47,1.38,1.88,1.88,0,0,0,.84.77A3.19,3.19,0,0,0,198.09,79.69Z"/><path class="cls-1" d="M151.81,71.41v1.92H134.06V71.41Z"/><path class="cls-1" d="M142,63.5h1.91V81.25H142Z"/></svg>