<svg id="Layer_1" data-name="Layer 1" xmlns="http://www.w3.org/2000/svg" viewBox="0 0 253.99 144.87"><defs><style>.cls-1{fill:#140f11;}.cls-2{fill:#f9fafa;}</style></defs><title>sporta-centrs</title><path class="cls-1" d="M90.65,53.68c6.16-11.3,29.32-13.36,52-4.57,13.47,5.23,23.78,13.11,28.77,21.07-6-6.83-15.73-13.38-27.78-18C121.19,43.43,98.55,44.3,90.65,53.68Zm80.78,16.5c3.48,5.56,4.38,11.15,1.94,15.9-5.93,11.55-29.29,13.72-52.17,4.85S84.57,65.5,90.49,54c.05-.1.11-.19.16-.28A12.36,12.36,0,0,0,89.06,56C83.13,67.59,98,84.56,122.18,94s48.67,7.64,54.6-3.91C179.75,84.24,177.49,77.07,171.43,70.18Z"/><polygon class="cls-1" points="136.94 58.2 82.49 58.2 86.75 43.24 142.01 43.24 136.94 58.2"/><path class="cls-2" d="M96.11,53c-.51.53-.87.91-1.07,1.17H89.46V52.32h4.2V51.4H90.42c-.08-.1-.41-.43-1-1V48.1a5.83,5.83,0,0,1,1.48-1.27h4.79v2h-3.9v.72h3.11l1.17,1.17Z"/><path class="cls-2" d="M104.29,52.9c-.29.26-.74.67-1.35,1.25H99.66v2.67H97.18v-10h5.53a6.61,6.61,0,0,1,1.58,1.27Zm-2.48-.57V48.75H99.66v3.58Z"/><path class="cls-2" d="M112.24,52.9c-.29.26-.75.68-1.36,1.27h-4.42A9.79,9.79,0,0,0,105.19,53V48.1c.85-.84,1.38-1.27,1.59-1.27h3.88c.1,0,.34.16.7.49l.88.78Zm-2.48-.57V48.75h-2.15v3.58Z"/><path class="cls-2" d="M119.85,50.3h-2.09V48.85c0-.05-.18-.07-.43-.07a1.09,1.09,0,0,0-.62.2l-.76.54V54.2h-2.37V46.88h2.27a3.85,3.85,0,0,0,.06.84,5.34,5.34,0,0,1,1.15-.84h2.79Z"/><path class="cls-2" d="M126.28,48.77h-2.37v3.6h2.29V54.2h-3.87a6.57,6.57,0,0,0-.78-.87V48.8l-.63,0h-.62v-1.6h1.2c0-.33,0-.66,0-1v-1h2.36v1.95h2.37Z"/><path class="cls-2" d="M134,54.2h-6a6.19,6.19,0,0,1-.93-.94A3.12,3.12,0,0,1,126.9,52a4.5,4.5,0,0,1,.06-1,9,9,0,0,1,.92-1.17h3.7V48.7H127.4V46.87h5.06c.16,0,.66.42,1.49,1.26Zm-2.37-1.82v-1H129.4v1Z"/><polygon class="cls-1" points="187.01 86.75 86.36 86.75 96.3 60.72 194.83 60.72 187.01 86.75"/><path class="cls-2" d="M111.56,72.05H108V71a9,9,0,0,0-.06-1.07h-3.51v6.76h7.11V80.1h-9.21A18.48,18.48,0,0,0,100,77.94V68.73c1.58-1.58,2.57-2.38,3-2.38h8.61Z"/><path class="cls-2" d="M125.87,74.78h-8.52v1.84h8.14v3.44h-10.3a19.06,19.06,0,0,0-2.38-2.15V68.7c1.59-1.58,2.58-2.38,3-2.38h7.1c.63,0,1.62.8,3,2.38ZM121.33,72V69.55h-4V72Z"/><path class="cls-2" d="M140.89,80.06H136.2V69.86h-3.82v10.2h-4.67V66.32h10c.19,0,.71.38,1.57,1.13q.75.66,1.56,1.41Z"/><path class="cls-2" d="M153.57,70h-4.44v6.76h4.29v3.44h-7.27a11.89,11.89,0,0,0-1.47-1.63V70a9,9,0,0,0-1.17-.06h-1.18V67h2.26c.06-.61.09-1.22.09-1.85V63.19h4.45v3.66h4.44Z"/><path class="cls-2" d="M167.32,72.83h-3.91V70.11c-.07-.08-.34-.12-.82-.12a2,2,0,0,0-1.16.37l-1.44,1v8.8h-4.44V66.42h4.25a6.39,6.39,0,0,0,.13,1.56,9.82,9.82,0,0,1,2.16-1.56h5.23Z"/><path class="cls-2" d="M180.59,77.87c-1,1-1.63,1.71-2,2.19H168.1V76.62H176V74.9h-6.07c-.17-.19-.78-.8-1.82-1.85V68.7c1.59-1.58,2.51-2.38,2.79-2.38h9V70h-7.33v1.34h5.86l2.19,2.19Z"/><polygon class="cls-1" points="177.31 103.36 138.98 103.36 142.89 89.53 181.21 89.53 177.31 103.36"/><path class="cls-2" d="M147.77,100.19h-2.56V97.93h2.56Z"/><path class="cls-2" d="M154.9,95.88H153V95.3a5.17,5.17,0,0,0,0-.57h-1.87v3.6h3.78v1.82H150A10.58,10.58,0,0,0,148.75,99V94.12c.84-.84,1.37-1.26,1.58-1.26h4.57Z"/><path class="cls-2" d="M162.66,98.89c-.3.26-.75.68-1.36,1.26h-4.4A10.38,10.38,0,0,0,155.63,99V94.1c.84-.84,1.37-1.26,1.58-1.26h3.87c.1,0,.34.16.7.48l.88.78Zm-2.47-.56V94.75H158v3.58Z"/><path class="cls-2" d="M174.67,100.19h-2.5V94.75h-1.81v5.44H167.8V94.75H166v5.44h-2.49V92.87H173c.17,0,.73.46,1.67,1.37Z"/></svg>