<svg id="Layer_1" data-name="Layer 1" xmlns="http://www.w3.org/2000/svg" viewBox="0 0 170.08 113.39"><defs><style>.cls-1{fill:#1b181c;}</style></defs><title>api</title><path class="cls-1" d="M33.87,49.27v2h.07a4.76,4.76,0,0,1,2-1.87,6.21,6.21,0,0,1,2.7-.59,6.93,6.93,0,0,1,3.23.71,6.8,6.8,0,0,1,2.24,1.87,8.11,8.11,0,0,1,1.32,2.72,12.3,12.3,0,0,1,.43,3.24,11.16,11.16,0,0,1-.43,3.07,7.82,7.82,0,0,1-1.31,2.61A6.39,6.39,0,0,1,42,64.86a6.53,6.53,0,0,1-3.05.68,6.16,6.16,0,0,1-2.72-.6,5.12,5.12,0,0,1-2-1.77h-.06v7.52H29.73V49.27Zm5.67,12.58a3.46,3.46,0,0,0,1.16-1.12,4.52,4.52,0,0,0,.63-1.61,9,9,0,0,0,.19-1.87,9.09,9.09,0,0,0-.2-1.88,5.09,5.09,0,0,0-.66-1.64,3.63,3.63,0,0,0-1.18-1.16,3.28,3.28,0,0,0-1.77-.45,3.36,3.36,0,0,0-1.8.45,3.45,3.45,0,0,0-1.16,1.15,4.65,4.65,0,0,0-.63,1.62,10,10,0,0,0-.18,1.91,8.37,8.37,0,0,0,.2,1.87,4.72,4.72,0,0,0,.64,1.61A3.52,3.52,0,0,0,36,61.85a3.94,3.94,0,0,0,3.58,0Z"/><polygon class="cls-1" points="47.55 46.81 48.81 43.22 53.17 43.22 51.91 46.81 47.55 46.81"/><rect class="cls-1" x="47.55" y="49.27" width="4.36" height="15.87"/><path class="cls-1" d="M56.12,54.18a14,14,0,0,1,.7-4.5,10.75,10.75,0,0,1,2-3.65,9.35,9.35,0,0,1,3.29-2.44,10.36,10.36,0,0,1,4.4-.9,9.88,9.88,0,0,1,3.35.51,8.75,8.75,0,0,1,2.38,1.26,7.61,7.61,0,0,1,1.58,1.64,8.71,8.71,0,0,1,.93,1.68,7.57,7.57,0,0,1,.45,1.35c.08.38.12.58.12.63H74a6.5,6.5,0,0,0-.89-2.48,6.78,6.78,0,0,0-1.69-1.85,7.53,7.53,0,0,0-2.25-1.17,8.46,8.46,0,0,0-2.63-.4,8.59,8.59,0,0,0-3.83.83,8.48,8.48,0,0,0-2.86,2.23,9.75,9.75,0,0,0-1.78,3.27,13.15,13.15,0,0,0,0,8,9.85,9.85,0,0,0,1.78,3.27,8.51,8.51,0,0,0,6.69,3,6.93,6.93,0,0,0,3-.66A8.2,8.2,0,0,0,72,62.08a8.72,8.72,0,0,0,1.67-2.52,8.46,8.46,0,0,0,.72-3h1.35a10.7,10.7,0,0,1-1,3.62,10,10,0,0,1-2,2.87A8.81,8.81,0,0,1,70,65a8.69,8.69,0,0,1-3.41.68,10.51,10.51,0,0,1-4.4-.89,9.59,9.59,0,0,1-3.29-2.44,10.8,10.8,0,0,1-2-3.66A14,14,0,0,1,56.12,54.18Z"/><path class="cls-1" d="M77.39,57.25a10.28,10.28,0,0,1,.47-3.18,8.19,8.19,0,0,1,1.4-2.63,6.66,6.66,0,0,1,2.27-1.79,7.61,7.61,0,0,1,6.2,0A6.66,6.66,0,0,1,90,51.44a8,8,0,0,1,1.4,2.63,10.28,10.28,0,0,1,.48,3.18,10.44,10.44,0,0,1-.48,3.19A7.67,7.67,0,0,1,90,63.06a6.64,6.64,0,0,1-2.27,1.78,7.61,7.61,0,0,1-6.2,0,6.64,6.64,0,0,1-2.27-1.78,7.84,7.84,0,0,1-1.4-2.62A10.43,10.43,0,0,1,77.39,57.25Zm1.16,0A9.4,9.4,0,0,0,79,60a7.56,7.56,0,0,0,1.17,2.32A5.58,5.58,0,0,0,82,63.89a6,6,0,0,0,5.22,0,5.58,5.58,0,0,0,1.9-1.61A7.34,7.34,0,0,0,90.31,60a9.41,9.41,0,0,0,0-5.43,7.34,7.34,0,0,0-1.17-2.32,5.69,5.69,0,0,0-1.9-1.61,6,6,0,0,0-5.22,0,5.69,5.69,0,0,0-1.9,1.61A7.56,7.56,0,0,0,79,54.53,9.47,9.47,0,0,0,78.55,57.25Z"/><path class="cls-1" d="M93.86,49.36H95v3.37h.06A5.19,5.19,0,0,1,96,51.15,5.73,5.73,0,0,1,97.29,50a5.94,5.94,0,0,1,1.64-.74,6.92,6.92,0,0,1,1.81-.24,7.36,7.36,0,0,1,2.35.33,4.71,4.71,0,0,1,1.58.9,4.26,4.26,0,0,1,1,1.24,5.88,5.88,0,0,1,.5,1.4,8.38,8.38,0,0,1,.19,1.36c0,.44,0,.83,0,1.15v9.77h-1.17v-10c0-.39,0-.88-.09-1.48a4.39,4.39,0,0,0-.54-1.7,3.91,3.91,0,0,0-1.35-1.4,4.67,4.67,0,0,0-2.5-.58,5.63,5.63,0,0,0-2.39.49,5.22,5.22,0,0,0-1.78,1.37A5.75,5.75,0,0,0,95.42,54,8.57,8.57,0,0,0,95,56.6v8.54H93.86Z"/><path class="cls-1" d="M110.07,49.36h1.17v3.37h.06a5,5,0,0,1,.87-1.58,5.86,5.86,0,0,1,3-1.92A7,7,0,0,1,117,49a7.36,7.36,0,0,1,2.35.33,4.71,4.71,0,0,1,1.58.9,4.23,4.23,0,0,1,1,1.24,5.51,5.51,0,0,1,.51,1.4,8.33,8.33,0,0,1,.18,1.36c0,.44,0,.83,0,1.15v9.77H121.4v-10c0-.39,0-.88-.09-1.48a4.39,4.39,0,0,0-.54-1.7,4,4,0,0,0-1.35-1.4,4.69,4.69,0,0,0-2.5-.58,5.68,5.68,0,0,0-2.4.49,5.31,5.31,0,0,0-1.78,1.37A6.07,6.07,0,0,0,111.62,54a8.57,8.57,0,0,0-.38,2.65v8.54h-1.17Z"/><path class="cls-1" d="M153.33,54.24a4.6,4.6,0,0,0-.53-1.84,4,4,0,0,0-1.16-1.32,5.12,5.12,0,0,0-1.64-.8,6.83,6.83,0,0,0-2-.28,5.52,5.52,0,0,0-2.61.6,5.66,5.66,0,0,0-1.9,1.6,7.29,7.29,0,0,0-1.17,2.27,8.9,8.9,0,0,0-.4,2.62,11.4,11.4,0,0,0,.37,2.95,6.84,6.84,0,0,0,1.13,2.35,5.43,5.43,0,0,0,1.91,1.55,6,6,0,0,0,2.67.55,5.4,5.4,0,0,0,2-.37,5.28,5.28,0,0,0,1.66-1,5.35,5.35,0,0,0,1.18-1.55,6.1,6.1,0,0,0,.61-2h1.17a7.36,7.36,0,0,1-.77,2.52,6.18,6.18,0,0,1-3.49,3,7.11,7.11,0,0,1-2.4.4,7.25,7.25,0,0,1-3.3-.69A6.35,6.35,0,0,1,142.45,63a8.09,8.09,0,0,1-1.29-2.69,11.85,11.85,0,0,1-.42-3.18,10.05,10.05,0,0,1,.48-3.13,7.66,7.66,0,0,1,1.4-2.58,6.68,6.68,0,0,1,2.27-1.75A7.1,7.1,0,0,1,148,49a8.88,8.88,0,0,1,2.41.32,6,6,0,0,1,2,1,4.94,4.94,0,0,1,1.43,1.64,6,6,0,0,1,.68,2.32Z"/><path class="cls-1" d="M162.68,50.37h-3.43v11a4.31,4.31,0,0,0,.21,1.5,1.77,1.77,0,0,0,.66.85,2.42,2.42,0,0,0,1.07.35,11.31,11.31,0,0,0,1.46,0v1a11.06,11.06,0,0,1-1.73,0,3.43,3.43,0,0,1-1.49-.46,2.76,2.76,0,0,1-1-1.15,4.44,4.44,0,0,1-.32-2.12v-11h-2.92l.37-1h2.55V44.44h1.17v4.92H163Z"/><polygon class="cls-1" points="20.27 43.22 15.33 43.22 7.04 65.14 11.89 65.14 13.61 60.25 13.6 60.25 14.87 56.66 14.87 56.66 17.72 48.62 17.78 48.62 20.55 56.66 17.26 56.66 16 60.25 21.8 60.25 23.46 65.14 28.47 65.14 20.27 43.22"/><path class="cls-1" d="M138.54,53.73a7.47,7.47,0,0,0-1.3-2.45,6.26,6.26,0,0,0-2.13-1.68,7.44,7.44,0,0,0-6.08.08,6.56,6.56,0,0,0-2.23,1.84,8,8,0,0,0-1.33,2.67,11.16,11.16,0,0,0-.45,3.18,11.43,11.43,0,0,0,.43,3.21,7.47,7.47,0,0,0,1.3,2.58,6.43,6.43,0,0,0,2.18,1.71,7,7,0,0,0,3.06.63A6.87,6.87,0,0,0,136.58,64a7,7,0,0,0,2.25-4.24h-1.16a6.54,6.54,0,0,1-1.91,3.46A5.41,5.41,0,0,1,132,64.49a5.5,5.5,0,0,1-2.54-.55,5.22,5.22,0,0,1-1.82-1.5,7,7,0,0,1-1.1-2.22,9.51,9.51,0,0,1-.36-2.64V57.4h0l0-1h0a9.4,9.4,0,0,1,.49-2.4,6.44,6.44,0,0,1,1.14-2,5.74,5.74,0,0,1,1.81-1.41,5.51,5.51,0,0,1,2.5-.54,5.08,5.08,0,0,1,2.35.52,5.48,5.48,0,0,1,1.76,1.4,5.93,5.93,0,0,1,1.09,2,9.17,9.17,0,0,1,.43,2.44h-9.1l-.36,1H139c0-.08,0-.19,0-.32s0-.25,0-.36A9.7,9.7,0,0,0,138.54,53.73Z"/></svg>