<svg id="Layer_1" data-name="Layer 1" xmlns="http://www.w3.org/2000/svg" viewBox="0 0 170.08 113.39"><defs><style>.cls-1{fill:#140f11;}.cls-2{fill:#f9fafa;}</style></defs><title>centrs</title><path class="cls-1" d="M27.46,33.16c7.39-13.55,35.16-16,62.38-5.47C106,34,118.35,43.41,124.34,53c-7.2-8.19-18.87-16-33.32-21.64C64.09,20.87,36.94,21.92,27.46,33.16ZM124.34,53c4.18,6.67,5.25,13.38,2.32,19.07-7.1,13.85-35.12,16.45-62.56,5.81S20.16,47.34,27.27,33.5c.06-.12.13-.23.19-.34A14.87,14.87,0,0,0,25.55,36c-7.1,13.84,10.68,34.2,39.73,45.46s58.36,9.16,65.47-4.69C134.33,69.81,131.61,61.21,124.34,53Z"/><polygon class="cls-1" points="82.98 38.58 17.67 38.58 22.79 20.64 89.06 20.64 82.98 38.58"/><path class="cls-2" d="M34,32.33c-.61.63-1,1.09-1.28,1.4H26v-2.2h5v-1.1H27.19c-.11-.12-.49-.51-1.16-1.18V26.47c1-1,1.61-1.52,1.78-1.52h5.74v2.34H28.87v.86h3.74l1.4,1.4Z"/><path class="cls-2" d="M43.82,32.23l-1.62,1.5H38.27v3.2h-3V25h6.63a7.49,7.49,0,0,1,1.9,1.52Zm-3-.68v-4.3H38.27v4.3Z"/><path class="cls-2" d="M53.36,32.23c-.36.31-.91.81-1.64,1.52h-5.3a10.81,10.81,0,0,0-1.52-1.4V26.47c1-1,1.65-1.52,1.9-1.52h4.66c.12,0,.4.2.84.58l1.06.94Zm-3-.68v-4.3H47.8v4.3Z"/><path class="cls-2" d="M62.48,29.11H60V27.37c0-.05-.22-.08-.52-.08a1.23,1.23,0,0,0-.74.24l-.92.64v5.62H55V25h2.72a4.22,4.22,0,0,0,.08,1,6.48,6.48,0,0,1,1.38-1h3.34Z"/><path class="cls-2" d="M70.19,27.27H67.35v4.32h2.74v2.2H65.46a9.2,9.2,0,0,0-.94-1V27.31a6.28,6.28,0,0,0-.75,0H63V25.35h1.44a11.51,11.51,0,0,0,.06-1.18V23h2.83v2.34h2.84Z"/><path class="cls-2" d="M79.39,33.79H72.23a9,9,0,0,1-1.12-1.13,3.77,3.77,0,0,1-.18-1.5A5.16,5.16,0,0,1,71,29.93a11.15,11.15,0,0,1,1.1-1.4h4.44V27.19h-5V25h6.08c.19,0,.78.51,1.78,1.52Zm-2.84-2.18V30.37H73.93v1.24Z"/><polygon class="cls-1" points="143.03 72.82 22.32 72.82 34.24 41.6 152.41 41.6 143.03 72.82"/><path class="cls-2" d="M52.54,55.2H48.29V53.88a10.13,10.13,0,0,0-.07-1.27H44v8.11h8.53v4.13h-11a22.52,22.52,0,0,0-2.85-2.59v-11c1.9-1.9,3.09-2.86,3.56-2.86H52.54Z"/><path class="cls-2" d="M69.7,58.46H59.48v2.22h9.77v4.13H56.89A21.23,21.23,0,0,0,54,62.22v-11q2.85-2.85,3.57-2.85h8.52q1.13,0,3.57,2.85Zm-5.45-3.3v-3H59.48v3Z"/><path class="cls-2" d="M87.72,64.81H82.09V52.57H77.51V64.81h-5.6V48.33H84c.23,0,.86.45,1.88,1.35.6.52,1.23,1.09,1.88,1.69Z"/><path class="cls-2" d="M102.93,52.68H97.59v8.11h5.15v4.13H94a17.24,17.24,0,0,0-1.77-2V52.76a12.7,12.7,0,0,0-1.4-.08H89.45v-3.6h2.7c.07-.73.11-1.47.11-2.22V44.57h5.33V49h5.34Z"/><path class="cls-2" d="M119.41,56.13h-4.69V52.87c-.08-.1-.41-.15-1-.15a2.38,2.38,0,0,0-1.39.45l-1.73,1.2V64.92h-5.33V48.44h5.11a7.69,7.69,0,0,0,.15,1.88,11.53,11.53,0,0,1,2.59-1.88h6.27Z"/><path class="cls-2" d="M135.33,62.18c-1.15,1.18-2,2.05-2.4,2.63H120.35V60.68h9.46V58.61h-7.28c-.2-.22-.93-1-2.18-2.21V51.18q2.85-2.85,3.34-2.85h10.78v4.39h-8.79v1.61h7L135.33,57Z"/><polygon class="cls-1" points="131.39 92.74 85.43 92.74 90.12 76.16 136.07 76.16 131.39 92.74"/><path class="cls-2" d="M96,88.94H92.89V86.23H96Z"/><path class="cls-2" d="M104.52,83.78h-2.26v-.7a5,5,0,0,0,0-.68H100v4.31h4.53V88.9H98.65a10.77,10.77,0,0,0-1.51-1.37V81.66c1-1,1.64-1.51,1.89-1.51h5.49Z"/><path class="cls-2" d="M113.83,87.39c-.36.3-.91.81-1.64,1.51h-5.28a12.11,12.11,0,0,0-1.52-1.4V81.64c1-1,1.65-1.51,1.9-1.51h4.64c.12,0,.4.19.84.58l1.06.93Zm-3-.68V82.42h-2.58v4.29Z"/><path class="cls-2" d="M128.22,88.94h-3V82.42h-2.17v6.52H120V82.42h-2.2v6.52h-3V80.17h11.43c.2,0,.86.55,2,1.64Z"/></svg>