<svg id="Layer_1" data-name="Layer 1" xmlns="http://www.w3.org/2000/svg" viewBox="0 0 170.08 113.39"><defs><style>.cls-1{fill:#1b181c;}</style></defs><title>haemo</title><rect class="cls-1" x="159.38" y="36.26" width="9.29" height="9.29"/><path class="cls-1" d="M12.82,64V54.3h-8V64H1.42V42.23H4.81V51.5h8V42.23h3.4V64Z"/><path class="cls-1" d="M26.38,64.38c-4.88,0-7.31-1.92-7.31-5.24,0-4.42,4.6-5.29,9.51-5.56v-.84c0-1.69-1.18-2.32-3-2.32a13.12,13.12,0,0,0-4.54,1l-1-2.77a16.66,16.66,0,0,1,6-1.17c4.15,0,6.47,1.63,6.47,5.78v10A15,15,0,0,1,26.38,64.38Zm2.2-8.18c-3,.15-5.66.42-5.66,2.86,0,1.53,1.2,2.4,3.34,2.4a7.54,7.54,0,0,0,2.32-.33Z"/><path class="cls-1" d="M49.38,56.2,38.94,57.61c.36,2.38,2.11,3.55,4.48,3.55a10.41,10.41,0,0,0,4.51-1l1.18,3.07a14.33,14.33,0,0,1-6,1.17c-5.35,0-8.19-3.49-8.19-8.48s2.8-8.46,7.53-8.46c4.49,0,7,3,7,7.37A10.93,10.93,0,0,1,49.38,56.2Zm-7-5.78c-2.14,0-3.64,1.56-3.7,4.61l6.8-.94C45.47,51.66,44.26,50.42,42.37,50.42Z"/><path class="cls-1" d="M70.88,64V53a2.79,2.79,0,0,0-3.1-2.92,4,4,0,0,0-3,1.08V64H61.49V52.74c0-1.63-1.3-2.62-3.32-2.62a7.21,7.21,0,0,0-2.77.48V64H52.12V48.61A15.62,15.62,0,0,1,58,47.47a7.07,7.07,0,0,1,5.17,1.75,8.54,8.54,0,0,1,5.39-1.75c3.46,0,5.63,2,5.63,5.24V64Z"/><path class="cls-1" d="M84.17,64.35c-4.61,0-7.13-3.64-7.13-8.45s2.52-8.43,7.13-8.43,7.13,3.61,7.13,8.43S88.78,64.35,84.17,64.35Zm0-14.26c-2.56,0-3.82,2.29-3.82,5.77s1.26,5.81,3.82,5.81S88,59.36,88,55.86,86.73,50.09,84.17,50.09Z"/><path class="cls-1" d="M103.31,64.32c-5.18,0-9.49-3.7-9.49-11.19s4.37-11.2,9.58-11.2A10.57,10.57,0,0,1,108.54,43l-.66,1.48a9.21,9.21,0,0,0-4.45-1c-4.1,0-7.77,3-7.77,9.6s3.62,9.6,7.59,9.6a9.67,9.67,0,0,0,4-.64v-8.6H102V52h7V63.21A12.38,12.38,0,0,1,103.31,64.32Z"/><path class="cls-1" d="M119.93,49.09a7.55,7.55,0,0,0-1.21-.09,9.56,9.56,0,0,0-3.61.64V64h-1.77V48.61a14,14,0,0,1,5.59-1.11,11.36,11.36,0,0,1,1.39.06Z"/><path class="cls-1" d="M128.56,64.32c-4.24,0-6.41-1.89-6.41-4.84,0-4.73,5.18-5.33,10.08-5.6V52.47c0-2.74-1.83-3.55-4.24-3.55a10.42,10.42,0,0,0-4.33,1l-.55-1.33a12.52,12.52,0,0,1,5-1.11c3.4,0,5.84,1.35,5.84,5.09V63.21A12.69,12.69,0,0,1,128.56,64.32Zm3.67-9.08c-3.88.21-8.36.42-8.36,4.21,0,2.08,1.49,3.46,4.66,3.46a10.52,10.52,0,0,0,3.7-.6Z"/><path class="cls-1" d="M157.53,64V52.68A3.58,3.58,0,0,0,153.65,49a5.09,5.09,0,0,0-4,1.63V64h-1.77V52.19c0-2-1.77-3.22-4.28-3.22a9.46,9.46,0,0,0-3.64.67V64h-1.77V48.61a13.66,13.66,0,0,1,5.39-1.11,6.38,6.38,0,0,1,5.08,2,7.53,7.53,0,0,1,5.24-2c3.22,0,5.42,2,5.42,5.09V64Z"/><path class="cls-1" d="M84.88,77V70.17h3.5v.5H85.45v2.56h2.72v.5H85.45v2.79h2.93V77Z"/><path class="cls-1" d="M93.42,77,91.62,74h0L89.82,77h-.64l2.1-3.54-2-3.32H90L91.61,73h0l1.67-2.84h.63l-2,3.32L94.06,77Z"/><path class="cls-1" d="M97.41,77.12c-1.43,0-2.66-1.11-2.66-3.52s1.23-3.52,2.66-3.52a2.71,2.71,0,0,1,1.45.35l-.2.47a2.33,2.33,0,0,0-1.22-.31c-1.13,0-2.1.93-2.1,3s1,3,2.1,3a2.34,2.34,0,0,0,1.22-.3l.2.47A2.71,2.71,0,0,1,97.41,77.12Z"/><path class="cls-1" d="M100.16,77V70.17h3.5v.5h-2.94v2.56h2.72v.5h-2.72v2.79h2.94V77Z"/><path class="cls-1" d="M105,77V70.17h3.5v.5h-2.93v2.56h2.72v.5h-2.72v2.79h2.93V77Z"/><path class="cls-1" d="M111.5,77.12a4,4,0,0,1-1.73-.35V70.43a3.84,3.84,0,0,1,1.73-.35c1.63,0,2.92,1.13,2.92,3.52S113.13,77.12,111.5,77.12Zm0-6.54a3.31,3.31,0,0,0-1.17.19v5.66a3.12,3.12,0,0,0,1.17.19c1.27,0,2.33-.92,2.33-3S112.78,70.58,111.51,70.58Z"/><path class="cls-1" d="M120.8,74.25V77h-.58V74.25L118,70.17h.63l1.9,3.5h0l1.89-3.5h.65Z"/><path class="cls-1" d="M126.25,77.12c-1.72,0-2.61-1.59-2.61-3.52s.89-3.52,2.61-3.52,2.61,1.59,2.61,3.52S128,77.12,126.25,77.12Zm0-6.53c-1.34,0-2,1.35-2,3s.7,3,2,3,2-1.35,2-3S127.59,70.59,126.25,70.59Z"/><path class="cls-1" d="M132.43,77.12a2,2,0,0,1-2.17-2V70.17h.58V75.1a1.59,1.59,0,0,0,3.18,0V70.17h.58V75.1A2,2,0,0,1,132.43,77.12Z"/><path class="cls-1" d="M140,77l-1.18-2.29a1.29,1.29,0,0,0-1.26-.83h-.78V77h-.57V70.44a4.26,4.26,0,0,1,1.75-.36c1.55,0,2.34.79,2.34,1.87a1.71,1.71,0,0,1-1.69,1.8v0a1.81,1.81,0,0,1,.8.89L140.65,77Zm-2-6.48a3.55,3.55,0,0,0-1.19.2v2.7h1c1.21,0,2-.38,2-1.48C139.75,71.13,139.18,70.55,138,70.55Z"/><path class="cls-1" d="M143.15,77.12a3.54,3.54,0,0,1-1.6-.35l.22-.5a3.07,3.07,0,0,0,1.37.33c1,0,1.68-.49,1.68-1.36s-.69-1.13-1.4-1.44c-.9-.39-1.81-.85-1.81-1.94a1.83,1.83,0,0,1,2.06-1.78,2.85,2.85,0,0,1,1.46.35l-.22.48a2.61,2.61,0,0,0-1.23-.32c-.86,0-1.49.45-1.49,1.25s.78,1.15,1.5,1.46,1.72.81,1.72,1.93S144.46,77.12,143.15,77.12Z"/><path class="cls-1" d="M146.8,77V70.17h3.5v.5h-2.93v2.56h2.71v.5h-2.71v2.79h2.93V77Z"/><path class="cls-1" d="M151.62,77V70.17h.58v6.35H155V77Z"/><path class="cls-1" d="M156.7,70.67v2.56h2.64v.5H156.7V77h-.57V70.17h3.42v.5Z"/></svg>