<svg id="Layer_1" data-name="Layer 1" xmlns="http://www.w3.org/2000/svg" viewBox="0 0 170.08 113.39"><defs><style>.cls-1{fill:#1b181c;}.cls-2{fill:#fff;}</style></defs><title>kiki</title><path class="cls-1" d="M55.13,64.22v4.83H46.61V41.25h8.52V52.32l9-11.07h9.12v.59L64.61,52.46l9,15.77v.82H64.11l-5.34-9.34Z"/><path class="cls-1" d="M79.59,52.31V51.06a11.45,11.45,0,0,1,1.47-.46q.91-.24,2-.42c.69-.12,1.37-.23,2-.32a15.3,15.3,0,0,1,1.78-.12l.66.43L84.19,66h2.58v1.28a7,7,0,0,1-1.13.64,11,11,0,0,1-1.36.53,12.28,12.28,0,0,1-1.45.36,7.84,7.84,0,0,1-1.4.13,2.78,2.78,0,0,1-1.94-.53A1.64,1.64,0,0,1,79,67.23a9.76,9.76,0,0,1,.11-1.44c.07-.46.17-1,.3-1.54l2.5-11.42ZM82.68,44a2.36,2.36,0,0,1,.85-2,3.2,3.2,0,0,1,2.13-.7,3.31,3.31,0,0,1,2.23.7,2.4,2.4,0,0,1,.83,2,2.34,2.34,0,0,1-.83,1.88,3.36,3.36,0,0,1-2.23.69,3.24,3.24,0,0,1-2.13-.69A2.3,2.3,0,0,1,82.68,44Z"/><path class="cls-1" d="M121,66.87l-7.16-7.38-11.17,6.68v2.88H96.56V56.83h6.11v2.23L109.48,55,105,50.41h-2.36v3.06H96.56V41.25h6.11v3.06H121V41.25h6.11V53.16H121V50.41h-7.46L121,58.1V56.52h6.11V69.05H121Zm3.36-.57v-7h-.61v5.64L107.08,47.67h16.67v2.74h.61V44h-.61v3H99.92V44h-.61v6.72h.61v-3h6.29l7.68,7.94-14,8.29V59.58h-.61V66.3h.61V64.6L114.32,56l9.43,9.74v.52Z"/><path class="cls-1" d="M142.76,67.38h-8c-.36,0-.54-.16-.54-.5V65.09c0-.33.18-.5.54-.5h2.29V49.66h-2.29c-.36,0-.54-.17-.54-.5V47.37q0-.51.54-.51h5.26a.45.45,0,0,1,.5.51V64.59h2.21c.36,0,.54.17.54.5v1.79C143.3,67.22,143.12,67.38,142.76,67.38ZM140.4,40.69a2.33,2.33,0,0,1,.69,1.67A2.19,2.19,0,0,1,140.4,44a2.37,2.37,0,0,1-3.3,0,2.22,2.22,0,0,1-.68-1.63,2.36,2.36,0,0,1,.68-1.67,2.29,2.29,0,0,1,3.3,0Z"/><rect class="cls-1" x="150.47" y="40.57" width="10.97" height="28.24"/><path class="cls-2" d="M156.51,66.46h0a3.05,3.05,0,0,1-3.09-3.11,3,3,0,0,1,1-2.38l1.11,1a1.76,1.76,0,0,0-.66,1.36,1.52,1.52,0,0,0,1.62,1.44h0a1.53,1.53,0,0,0,1.65-1.51,1.88,1.88,0,0,0-.64-1.36l1-1a3.14,3.14,0,0,1-2,5.52Z"/><path class="cls-2" d="M157.74,60.19h0c-1.29,0-1.89-1-1.89-2.39a4.3,4.3,0,0,1,.24-1.45H156c-.7,0-1.08.43-1.08,1.27a4.36,4.36,0,0,0,.32,1.64l-1.29.42a5.17,5.17,0,0,1-.48-2.3,2.76,2.76,0,0,1,.67-2,2.61,2.61,0,0,1,1.9-.64h3.44v1.63h-.64a2.26,2.26,0,0,1,.76,1.79A1.84,1.84,0,0,1,157.74,60.19Zm-.39-3.87h-.3a2.69,2.69,0,0,0-.22,1.08c0,.72.29,1.17.82,1.17h0c.46,0,.72-.38.72-.93C158.39,56.86,158,56.32,157.35,56.32Z"/><path class="cls-2" d="M154.94,53v.69h-1.38V53h-.38a2,2,0,0,1-1.44-.48,1.86,1.86,0,0,1-.47-1.37,3.74,3.74,0,0,1,.17-1.2h1.4a2.15,2.15,0,0,0-.15.77c0,.39.2.61.65.61h.23V50h1.37V51.3h4.5V53Z"/><path class="cls-2" d="M156.51,49.43h0a3,3,0,0,1-3.09-2.94c0-2,1.54-2.89,3.23-2.89l.44,0v4.14a1.38,1.38,0,0,0,1.17-1.45,2,2,0,0,0-.61-1.45l.85-1a3.14,3.14,0,0,1-2,5.53Zm-.5-4.19a1.27,1.27,0,0,0-1.27,1.25A1.33,1.33,0,0,0,156,47.78Z"/><path class="cls-1" d="M24.69,64.42a18.52,18.52,0,0,0,16.06-9.27,18.54,18.54,0,0,0-32.11,0A18.53,18.53,0,0,0,24.69,64.42Z"/><path class="cls-2" d="M33,55.15a8.26,8.26,0,1,1-8.26-8.26A8.26,8.26,0,0,1,33,55.15Z"/><path d="M29.29,55.15a4.6,4.6,0,1,1-4.6-4.59A4.59,4.59,0,0,1,29.29,55.15Z"/><path class="cls-2" d="M29.52,52.11A1.56,1.56,0,1,1,28,50.56,1.56,1.56,0,0,1,29.52,52.11Z"/></svg>