<svg id="Layer_1" data-name="Layer 1" xmlns="http://www.w3.org/2000/svg" viewBox="0 0 170.08 113.39"><defs><style>.cls-1{fill:#1b181c;}</style></defs><title>lapas</title><path class="cls-1" d="M78.35,54.57l-1.83,1.79a2.46,2.46,0,0,1-1.72.7H64.54V67.57H62.3V44.17H74.77a2.42,2.42,0,0,1,1.68.7l1.9,1.82a2.41,2.41,0,0,1,.74,1.75v4.38A2.39,2.39,0,0,1,78.35,54.57Zm-1.44-6A.67.67,0,0,0,76.7,48l-1.52-1.51a.63.63,0,0,0-.48-.21H64.54v8.54H74.66a.69.69,0,0,0,.49-.21l1.55-1.48a.68.68,0,0,0,.21-.49Z"/><path class="cls-1" d="M126.63,63.84l-2.91,3a2.43,2.43,0,0,1-1.77.74H113.8a2.42,2.42,0,0,1-1.75-.73l-3.62-3.59L110,61.66l3.4,3.55a.71.71,0,0,0,.53.22h7.83a.66.66,0,0,0,.5-.22l2.67-2.77a.73.73,0,0,0,.21-.5V58.53a.67.67,0,0,0-.18-.47.75.75,0,0,0-.46-.23l-13.87-1.72a2.46,2.46,0,0,1-2.18-2.46V49.54a2.44,2.44,0,0,1,.77-1.79l3-2.88a2.42,2.42,0,0,1,1.68-.7h8a2.36,2.36,0,0,1,1.72.69l3.62,3.59L125.75,50l-3.55-3.44a.65.65,0,0,0-.49-.21h-7.66a.68.68,0,0,0-.49.21l-2.7,2.64a.68.68,0,0,0-.22.49V53.2a.67.67,0,0,0,.18.47.7.7,0,0,0,.46.23l13.87,1.72a2.5,2.5,0,0,1,2.19,2.46v4A2.51,2.51,0,0,1,126.63,63.84Z"/><path class="cls-1" d="M26.5,65.41H20a.75.75,0,0,1-.48-.21l-2.64-2.78a.64.64,0,0,1-.18-.4V44.15H14.56V62.07a2.44,2.44,0,0,0,.71,1.68l1.47,1.55v.11h.1l1.31,1.36a2.43,2.43,0,0,0,1.79.78h9.2V65.41Z"/><path class="cls-1" d="M154.2,42.26H134.74a1.31,1.31,0,0,0-1.31,1.31v24.6a1.31,1.31,0,0,0,1.31,1.31H154.2a1.31,1.31,0,0,0,1.31-1.31V43.57A1.31,1.31,0,0,0,154.2,42.26ZM151,53.89,152.12,55l-6.6,6.59v5.73h-1.61V61.63L137.31,55l1.15-1.15,5.45,5.45V55.73l-6.6-6.6L138.46,48l5.45,5.45V49.82L140,45.91l1.14-1.15,2.77,2.77V44.16h1.61v3.37l2.77-2.77,1.15,1.15-3.92,3.91v3.62L151,48l1.14,1.14-6.6,6.6v3.61Z"/><path class="cls-1" d="M101.45,67.57h2.35S95.86,45.4,95.72,45c-.23-.66-1.1-.86-1.78-.86H92.42c-.68,0-1.57.2-1.78.86L82.55,67.57H84.9l2.35-6.7H99.1C100.41,64.58,101.45,67.57,101.45,67.57ZM88,58.66c2-5.7,4.22-12,4.24-12.11a.5.5,0,0,1,.45-.28h.94a.52.52,0,0,1,.44.28c0,.06,2.25,6.41,4.24,12.11Z"/><path class="cls-1" d="M53.67,67.57H56S48.08,45.4,47.94,45c-.21-.66-1.1-.86-1.78-.86H44.64c-.68,0-1.56.2-1.78.86-.14.41-8.09,22.58-8.09,22.58h2.36s1-3,2.35-6.7H51.33C52.64,64.58,53.67,67.57,53.67,67.57ZM40.25,58.66c2-5.7,4.21-12,4.24-12.11a.49.49,0,0,1,.44-.28h1a.51.51,0,0,1,.44.28c0,.06,2.23,6.41,4.23,12.11Z"/></svg>