<svg id="Layer_1" data-name="Layer 1" xmlns="http://www.w3.org/2000/svg" viewBox="0 0 170.08 113.39"><defs><style>.cls-1{fill:#1d1d1b;}</style></defs><title>satori</title><path class="cls-1" d="M112.05,24.66a17,17,0,0,0-14.7,8.44,17,17,0,0,0-29.41,0,17,17,0,1,0,2.34,8.6A12.37,12.37,0,0,1,95,41.7v9.1a2.34,2.34,0,0,0,4.68,0V41.7a12.37,12.37,0,0,1,24.73,0v9.1a2.34,2.34,0,1,0,4.68,0V41.7A17.06,17.06,0,0,0,112.05,24.66ZM53.23,54.07A12.37,12.37,0,1,1,65.6,41.7,12.38,12.38,0,0,1,53.23,54.07Z"/><path class="cls-1" d="M112.05,48.46a2.34,2.34,0,0,0-2.34,2.34A12.36,12.36,0,0,1,85,50.8a2.35,2.35,0,0,0-4.69,0,17,17,0,0,0,34.09,0A2.34,2.34,0,0,0,112.05,48.46Z"/><path class="cls-1" d="M8.32,78.5A.68.68,0,0,1,9,77.74a.69.69,0,0,1,.7.76v8.65a.08.08,0,0,0,.09.09h4.54a.66.66,0,1,1,0,1.31H9a.63.63,0,0,1-.67-.69Z"/><path class="cls-1" d="M25.28,78.5a.68.68,0,0,1,.7-.76.67.67,0,0,1,.67.76v6.3c0,2.62-1.46,3.93-3.71,3.93s-3.7-1.31-3.7-3.93V78.5a.69.69,0,1,1,1.38,0v6.3c0,1.73.93,2.62,2.34,2.62s2.32-.89,2.32-2.62Z"/><path class="cls-1" d="M38.53,86.18a9.09,9.09,0,0,1-.29-3,9.12,9.12,0,0,1,.29-3,3.44,3.44,0,0,1,3.54-2.55,3.45,3.45,0,0,1,3.56,2.55,9.12,9.12,0,0,1,.29,3,9.09,9.09,0,0,1-.29,3,3.44,3.44,0,0,1-3.56,2.55A3.43,3.43,0,0,1,38.53,86.18Zm5.76-.42a8.16,8.16,0,0,0,.25-2.57,8.19,8.19,0,0,0-.25-2.58,2.31,2.31,0,0,0-4.42,0,8.19,8.19,0,0,0-.25,2.58,8.16,8.16,0,0,0,.25,2.57,2.3,2.3,0,0,0,4.42,0Z"/><path class="cls-1" d="M51.22,78.45a.58.58,0,0,1,.62-.63h3.23a3.21,3.21,0,1,1,0,6.41H52.68a.08.08,0,0,0-.09.09v3.56a.69.69,0,1,1-1.37,0ZM57.08,81a1.82,1.82,0,0,0-2-1.89H52.68a.08.08,0,0,0-.09.09v3.6c0,.07,0,.1.09.1H55A1.82,1.82,0,0,0,57.08,81Z"/><path class="cls-1" d="M63.42,78.45a.58.58,0,0,1,.62-.63h5.39a.63.63,0,0,1,.68.64.64.64,0,0,1-.68.67H64.88a.08.08,0,0,0-.09.09v3.16c0,.06,0,.1.09.1h3.79a.63.63,0,0,1,.68.64.64.64,0,0,1-.68.67H64.88a.08.08,0,0,0-.09.09v3.27a.08.08,0,0,0,.09.09h4.55a.66.66,0,1,1,0,1.31H64a.58.58,0,0,1-.62-.63Z"/><path class="cls-1" d="M75.17,78.59a.75.75,0,0,1,.76-.85c.4,0,.66.27.92.72L81.32,86h.06V78.45a.64.64,0,1,1,1.28,0v9.33a.75.75,0,0,1-.76.85c-.4,0-.67-.27-.93-.72L76.5,80.38h0v7.54a.64.64,0,1,1-1.28,0Z"/><path class="cls-1" d="M95,78.61a.77.77,0,0,1,.77-.87c.42,0,.65.25.87.76l2.89,6.71h.05l2.85-6.71c.21-.51.43-.76.85-.76a.77.77,0,0,1,.77.87v9.31a.64.64,0,0,1-.65.71.62.62,0,0,1-.63-.71v-7h0l-2.4,5.45c-.25.55-.45.69-.8.69s-.54-.14-.79-.69l-2.4-5.45h-.05v7a.62.62,0,0,1-.63.71.64.64,0,0,1-.65-.71Z"/><path class="cls-1" d="M109.75,78.5a.68.68,0,0,1,.7-.76.67.67,0,0,1,.67.76v9.38a.66.66,0,0,1-.67.75.68.68,0,0,1-.7-.75Z"/><path class="cls-1" d="M116.79,78.59a.75.75,0,0,1,.76-.85c.4,0,.66.27.92.72L122.94,86H123V78.45a.64.64,0,1,1,1.28,0v9.33a.75.75,0,0,1-.76.85c-.39,0-.67-.27-.94-.72l-4.46-7.53h-.05v7.54a.64.64,0,1,1-1.28,0Z"/><path class="cls-1" d="M130,78.45a.58.58,0,0,1,.61-.63h2.67c2,0,3.28.82,3.79,2.45a8.66,8.66,0,0,1,.31,2.92,8.73,8.73,0,0,1-.31,2.92c-.51,1.62-1.76,2.44-3.79,2.44h-2.67a.58.58,0,0,1-.61-.63Zm1.46,8.79h1.73c1.38,0,2.18-.44,2.55-1.61a7.94,7.94,0,0,0,.25-2.44,8,8,0,0,0-.25-2.45c-.37-1.17-1.17-1.61-2.55-1.61h-1.73a.08.08,0,0,0-.09.09v7.93A.08.08,0,0,0,131.41,87.24Z"/><path class="cls-1" d="M142.62,78.45a.58.58,0,0,1,.62-.63h5.39a.63.63,0,0,1,.68.64.64.64,0,0,1-.68.67h-4.54c-.06,0-.1,0-.1.09v3.16a.09.09,0,0,0,.1.1h3.79a.63.63,0,0,1,.67.64.64.64,0,0,1-.67.67h-3.79c-.06,0-.1,0-.1.09v3.27c0,.06,0,.09.1.09h4.54a.66.66,0,1,1,0,1.31h-5.39a.58.58,0,0,1-.62-.63Z"/><path class="cls-1" d="M154.38,78.45a.58.58,0,0,1,.61-.63h2.67c2,0,3.28.82,3.79,2.45a8.72,8.72,0,0,1,.3,2.92,8.8,8.8,0,0,1-.3,2.92c-.51,1.62-1.76,2.44-3.79,2.44H155a.58.58,0,0,1-.61-.63Zm1.46,8.79h1.73c1.38,0,2.18-.44,2.55-1.61a7.94,7.94,0,0,0,.25-2.44,8,8,0,0,0-.25-2.45c-.37-1.17-1.17-1.61-2.55-1.61h-1.73a.08.08,0,0,0-.09.09v7.93A.08.08,0,0,0,155.84,87.24Z"/></svg>