<svg id="Layer_1" data-name="Layer 1" xmlns="http://www.w3.org/2000/svg" viewBox="0 0 170.08 113.39"><defs><style>.cls-1{fill:none;}.cls-2{fill:#fff;}.cls-3{fill:#1d1d1b;}</style></defs><title>urban</title><path class="cls-1" d="M110.2,93c1.31,0,1.69-.54,1.69-1.71V81c0-1.31-.46-1.65-1.78-1.65s-1.6.42-1.6,1.62V91.28C108.51,92.19,108.51,93,110.2,93Z"/><path class="cls-1" d="M34.24,79.59H32.78v4.6a12.86,12.86,0,0,0,2.12-.06c1-.2,1.06-.94,1.06-2.48C36,79.9,35.7,79.59,34.24,79.59Z"/><path class="cls-1" d="M50.22,81.79c0-1.57-.29-2.11-1.49-2.11H46.87V84h2C50.07,84,50.22,83.28,50.22,81.79Z"/><path class="cls-1" d="M50.3,90.19c0-1.89-.08-2.63-1.57-2.63H46.87v5.09h1.86C50.3,92.65,50.3,91.56,50.3,90.19Z"/><polygon class="cls-1" points="60.9 88.28 63.62 88.28 62.27 79.3 60.9 88.28"/><path class="cls-1" d="M73.5,52.24l-.87.07c0,.4.06,1.38.2,2.55.27,2.25.7,4.86.83,5.65l2.52-.19c-.29-.72-1.16-2.91-1.64-4.61C74,53.64,73.5,52.24,73.5,52.24Z"/><path class="cls-1" d="M72,52.37l-.7.07s-.21,1.46-.4,3.6c-.17,1.73-.62,4-.78,4.8l.9-.11,1.45-.12c0-.82-.07-3.45-.21-5.69C72.16,53.75,72,52.76,72,52.37Z"/><path class="cls-2" d="M80.6,48.12c0,.28,0,.56,0,.84H81c0-.27,0-.55,0-.83Z"/><path class="cls-2" d="M80.08,44.81v.69h.43c0-.23,0-.46,0-.7Z"/><path class="cls-2" d="M78.58,48.16c0,.27,0,.55,0,.83H79c0-.28,0-.55,0-.83Z"/><path class="cls-2" d="M79.38,44.82H79c0,.24,0,.47,0,.7h.42C79.39,45.28,79.39,45.05,79.38,44.82Z"/><path class="cls-2" d="M79.09,48.15c0,.27,0,.55,0,.83h.37c0-.28,0-.55,0-.83Z"/><path class="cls-2" d="M79.78,48.13h-.19c0,.27,0,.55,0,.83H80c0-.27,0-.55,0-.83Z"/><path class="cls-2" d="M80,45.51c0-.24,0-.47,0-.7h-.43c0,.24,0,.47,0,.7H80Z"/><path class="cls-2" d="M80.09,48.13c0,.28,0,.55,0,.83h.37c0-.28,0-.56,0-.83Z"/><path class="cls-2" d="M60.05,43l-.73-.35c0,.16,0,.31.07.46Z"/><path class="cls-2" d="M59,42.35,58.21,42c0,.15,0,.31.08.46Z"/><path class="cls-2" d="M57.81,41.7l-.74-.34c0,.15,0,.3.08.46Z"/><path class="cls-2" d="M56.7,41.09,56,40.76c0,.15,0,.3.08.46Z"/><path class="cls-2" d="M55.56,40.44l-.76-.33.09.46Z"/><path class="cls-2" d="M54.39,39.85l-.76-.32.09.46Z"/><path class="cls-2" d="M52.44,39c0,.16.06.31.1.46l.67-.14Z"/><path class="cls-2" d="M53.32,39.53l-.71.15c0,.15.06.3.1.45l.7-.14Z"/><path class="cls-2" d="M53.49,40.35l-.71.15c0,.15.07.31.1.46l.7-.15Z"/><path class="cls-2" d="M53.66,41.21l-.7.15c0,.15.07.3.1.45l.7-.14C53.73,41.52,53.7,41.36,53.66,41.21Z"/><path class="cls-2" d="M53.83,42l-.7.15c0,.15.07.3.1.46l.69-.15Z"/><path class="cls-2" d="M54,42.82l-.7.14c0,.16.07.31.1.46l.69-.14Z"/><path class="cls-2" d="M53.47,43.76c0,.15.07.31.1.46l.69-.15c0-.15-.07-.3-.1-.45Z"/><path class="cls-2" d="M53.88,40.75l.7-.14-.09-.46-.7.14Z"/><path class="cls-2" d="M54.06,41.61l.69-.14L54.66,41l-.7.14C54,41.3,54,41.46,54.06,41.61Z"/><path class="cls-2" d="M54.12,41.93c0,.15.06.31.1.46l.69-.14-.09-.46Z"/><path class="cls-2" d="M55,42.62l-.69.14.09.46.69-.14Z"/><path class="cls-2" d="M54.45,43.56c0,.15.07.3.1.45l.68-.13-.09-.46Z"/><path class="cls-2" d="M55.05,41.41l.7-.14-.09-.46L55,41Z"/><path class="cls-2" d="M55.2,42.19l.7-.13-.09-.46-.7.13Z"/><path class="cls-2" d="M56,42.43l-.69.13.09.46.69-.13Z"/><path class="cls-2" d="M56.12,43.22l-.68.14.09.46.68-.14Z"/><path class="cls-2" d="M56.19,42l.7-.13-.09-.46-.69.13C56.14,41.69,56.17,41.85,56.19,42Z"/><path class="cls-2" d="M56.35,42.83,57,42.7c0-.15,0-.31-.08-.46l-.7.13Z"/><path class="cls-2" d="M56.42,43.17l.09.46.68-.13c0-.15-.06-.31-.08-.46Z"/><path class="cls-2" d="M57.34,42.64l.69-.12c0-.15-.06-.31-.08-.46l-.7.12Z"/><path class="cls-2" d="M57.49,43.45l.68-.13c0-.15-.05-.31-.08-.46L57.4,43Z"/><path class="cls-2" d="M58.47,43.27l.68-.12c0-.16,0-.31-.07-.47l-.69.13C58.41,43,58.44,43.11,58.47,43.27Z"/><path class="cls-2" d="M94.74,22.87l.63,0c.07,0,.14,0,.14-.09s0-.25,0-.38a.12.12,0,0,0-.13-.11l-.63,0a.11.11,0,0,0-.14.09c0,.13,0,.25,0,.38S94.66,22.86,94.74,22.87Z"/><path class="cls-2" d="M96.49,24.1l.64,0a.1.1,0,0,0,.13-.09l0-.38c0-.05-.05-.1-.13-.11l-.63,0a.14.14,0,0,0-.14.09c0,.13,0,.25,0,.38A.11.11,0,0,0,96.49,24.1Z"/><path class="cls-2" d="M98.32,24.22l.62.05c.08,0,.14,0,.14-.09s0-.25,0-.38,0-.1-.12-.11l-.63-.05c-.08,0-.14,0-.14.1l0,.37C98.18,24.17,98.24,24.22,98.32,24.22Z"/><path class="cls-2" d="M94.62,25.12l.62,0c.08,0,.14-.05.14-.1s0-.25,0-.38-.05-.1-.12-.11l-.63,0c-.08,0-.14,0-.14.09s0,.26,0,.39S94.54,25.12,94.62,25.12Z"/><path class="cls-2" d="M94.56,26.25l.62,0a.14.14,0,0,0,.14-.09l0-.38c0-.06,0-.1-.13-.11l-.62,0c-.08,0-.14,0-.14.09s0,.25,0,.38S94.48,26.24,94.56,26.25Z"/><path class="cls-2" d="M96.28,27.48l.62,0a.14.14,0,0,0,.14-.09c0-.13,0-.26,0-.38s0-.11-.12-.11l-.62,0c-.07,0-.13,0-.14.09s0,.25,0,.38S96.21,27.47,96.28,27.48Z"/><path class="cls-2" d="M98.07,27.6l.61,0c.08,0,.14,0,.14-.09l0-.38a.11.11,0,0,0-.12-.11L98.11,27c-.07,0-.14,0-.14.09l0,.38C97.94,27.54,98,27.59,98.07,27.6Z"/><path class="cls-2" d="M96.21,28.62l.61,0c.07,0,.14,0,.14-.09l0-.38c0-.06-.06-.1-.13-.11l-.61,0c-.07,0-.14,0-.14.09s0,.25,0,.38S96.14,28.61,96.21,28.62Z"/><path class="cls-2" d="M98,28.74l.61,0c.08,0,.14,0,.14-.08l0-.38c0-.06-.05-.11-.12-.11L98,28.16a.1.1,0,0,0-.13.09l0,.38C97.85,28.68,97.91,28.73,98,28.74Z"/><path class="cls-2" d="M94.38,29.64l.61,0a.1.1,0,0,0,.13-.09c0-.12,0-.25,0-.38s0-.1-.12-.11l-.61,0a.14.14,0,0,0-.14.09c0,.13,0,.26,0,.39A.12.12,0,0,0,94.38,29.64Z"/><path class="cls-2" d="M97.9,29.86l.61.05c.07,0,.13,0,.13-.09l0-.38c0-.05,0-.1-.12-.11l-.61,0a.14.14,0,0,0-.14.09c0,.13,0,.26,0,.39S97.83,29.86,97.9,29.86Z"/><path class="cls-2" d="M94.32,30.77l.6,0c.08,0,.14,0,.14-.09s0-.26,0-.38a.11.11,0,0,0-.12-.11l-.61,0c-.07,0-.13,0-.13.09s0,.25,0,.38S94.25,30.76,94.32,30.77Z"/><path class="cls-2" d="M96.07,30.87l.6,0a.13.13,0,0,0,.14-.09c0-.13,0-.26,0-.38s0-.1-.12-.11l-.6,0c-.08,0-.14,0-.14.09s0,.25,0,.38S96,30.86,96.07,30.87Z"/><path class="cls-2" d="M97.73,32.11l.6,0a.13.13,0,0,0,.14-.09l0-.38a.13.13,0,0,0-.12-.11l-.61,0c-.06,0-.13,0-.13.1l0,.37A.11.11,0,0,0,97.73,32.11Z"/><path class="cls-2" d="M95.78,35.4l.59,0c.07,0,.13,0,.13-.09l0-.38a.12.12,0,0,0-.12-.11l-.59,0c-.07,0-.13,0-.13.09l0,.38C95.66,35.35,95.71,35.39,95.78,35.4Z"/><path class="cls-2" d="M97.48,35.52l.59,0a.1.1,0,0,0,.13-.09l0-.38c0-.05,0-.1-.12-.11l-.59,0a.11.11,0,0,0-.13.09l0,.38A.12.12,0,0,0,97.48,35.52Z"/><path class="cls-2" d="M95.71,36.53l.59,0a.11.11,0,0,0,.12-.1l0-.38a.11.11,0,0,0-.12-.1l-.58,0a.11.11,0,0,0-.13.09l0,.38A.12.12,0,0,0,95.71,36.53Z"/><path class="cls-2" d="M94.58,37,94,37a.11.11,0,0,0-.13.09c0,.13,0,.25,0,.38a.11.11,0,0,0,.12.1l.58,0c.07,0,.13,0,.13-.09s0-.26,0-.39S94.64,37,94.58,37Z"/><path class="cls-2" d="M95.64,37.65l.58,0c.07,0,.13,0,.13-.09s0-.25,0-.38,0-.1-.11-.11l-.58,0c-.07,0-.13,0-.13.09l0,.39A.11.11,0,0,0,95.64,37.65Z"/><path class="cls-2" d="M96.11,39.31l-.57,0a.1.1,0,0,0-.13.09c0,.12,0,.25,0,.38s0,.1.11.1l.57,0a.11.11,0,0,0,.13-.09l0-.38A.13.13,0,0,0,96.11,39.31Z"/><path class="cls-2" d="M97.73,40a.1.1,0,0,0,.12-.09c0-.12,0-.25,0-.38s0-.1-.11-.11l-.57,0c-.07,0-.13,0-.13.09l0,.38c0,.06,0,.1.11.11Z"/><path class="cls-2" d="M94.39,40.34l-.57,0c-.07,0-.13,0-.13.09s0,.26,0,.38a.13.13,0,0,0,.12.11l.57,0c.06,0,.12,0,.12-.09s0-.26,0-.39S94.45,40.35,94.39,40.34Z"/><path class="cls-2" d="M97,40.61,97,41s.05.1.11.1l.57,0a.12.12,0,0,0,.13-.09l0-.38a.11.11,0,0,0-.12-.11l-.57,0A.1.1,0,0,0,97,40.61Z"/><path class="cls-2" d="M94.32,41.47l-.56,0a.12.12,0,0,0-.13.1c0,.12,0,.25,0,.38a.11.11,0,0,0,.12.1l.56,0a.11.11,0,0,0,.13-.09c0-.13,0-.25,0-.38A.11.11,0,0,0,94.32,41.47Z"/><path class="cls-2" d="M96,41.57l-.57,0c-.06,0-.12,0-.12.09s0,.26,0,.38,0,.1.11.11l.56,0a.1.1,0,0,0,.13-.09c0-.12,0-.25,0-.38S96,41.57,96,41.57Z"/><path class="cls-2" d="M97.71,41.79a.12.12,0,0,0-.11-.11l-.57,0a.13.13,0,0,0-.13.09l0,.38a.11.11,0,0,0,.12.11l.56,0a.11.11,0,0,0,.13-.09Z"/><path class="cls-2" d="M95.89,42.69l-.56,0a.1.1,0,0,0-.13.09l0,.38a.11.11,0,0,0,.12.1l.56,0a.1.1,0,0,0,.12-.09l0-.38A.13.13,0,0,0,95.89,42.69Z"/><path class="cls-2" d="M97.51,42.81l-.56,0a.1.1,0,0,0-.13.09l0,.38a.11.11,0,0,0,.12.1l.55,0c.07,0,.13,0,.13-.09l0-.38A.11.11,0,0,0,97.51,42.81Z"/><path class="cls-2" d="M94.2,43.72l-.56,0c-.07,0-.12,0-.12.09s0,.26,0,.38,0,.1.11.11l.55,0c.07,0,.13,0,.13-.09s0-.26,0-.39A.11.11,0,0,0,94.2,43.72Z"/><path class="cls-2" d="M92.64,31.82l.6,0c.07,0,.13,0,.13-.09s0-.25,0-.38,0-.1-.12-.11l-.61,0c-.07,0-.13,0-.13.09s0,.25,0,.38S92.57,31.81,92.64,31.82Z"/><path class="cls-2" d="M92.59,32.94l.6,0c.07,0,.13,0,.13-.09s0-.26,0-.38-.06-.1-.13-.11l-.6,0a.12.12,0,0,0-.13.09c0,.13,0,.25,0,.38S92.52,32.94,92.59,32.94Z"/><path class="cls-2" d="M93.27,34c0-.12,0-.25,0-.38s0-.1-.12-.1l-.59,0a.13.13,0,0,0-.14.09c0,.13,0,.26,0,.38s0,.1.12.11l.59,0A.13.13,0,0,0,93.27,34Z"/><path class="cls-2" d="M93,36.93l-.58,0c-.07,0-.13,0-.13.09s0,.26,0,.39,0,.1.12.1l.58,0a.11.11,0,0,0,.12-.1c0-.12,0-.25,0-.38S93.07,36.93,93,36.93Z"/><path class="cls-2" d="M93,38.05l-.58,0c-.07,0-.12,0-.12.09s0,.26,0,.39,0,.09.12.1l.57,0a.12.12,0,0,0,.13-.1c0-.12,0-.25,0-.38A.13.13,0,0,0,93,38.05Z"/><path class="cls-2" d="M92.9,39.13l-.57,0c-.07,0-.13,0-.13.09s0,.25,0,.38.06.1.12.11l.57,0c.07,0,.13,0,.13-.09s0-.26,0-.38A.12.12,0,0,0,92.9,39.13Z"/><path class="cls-2" d="M92.85,40.26l-.57,0c-.07,0-.13,0-.13.1s0,.25,0,.38,0,.1.11.1l.57,0a.11.11,0,0,0,.13-.1c0-.12,0-.25,0-.38S92.92,40.26,92.85,40.26Z"/><path class="cls-2" d="M92.8,41.39l-.57,0a.12.12,0,0,0-.13.09c0,.13,0,.26,0,.39s0,.09.12.1l.56,0a.11.11,0,0,0,.12-.1c0-.12,0-.25,0-.38A.11.11,0,0,0,92.8,41.39Z"/><path class="cls-2" d="M92.74,42.51l-.56,0a.1.1,0,0,0-.12.09c0,.13,0,.26,0,.38s0,.1.12.11l.56,0a.1.1,0,0,0,.12-.09c0-.13,0-.25,0-.38S92.81,42.52,92.74,42.51Z"/><path class="cls-2" d="M92.69,43.64l-.56,0a.1.1,0,0,0-.12.09c0,.13,0,.25,0,.38s.05.1.12.11l.55,0c.07,0,.13,0,.13-.09s0-.26,0-.38A.11.11,0,0,0,92.69,43.64Z"/><path class="cls-2" d="M99.35,32.24l.61,0c.07,0,.13,0,.13-.08s0-.26,0-.39a.13.13,0,0,0-.12-.11l-.61-.05a.11.11,0,0,0-.13.09l0,.38C99.23,32.19,99.28,32.23,99.35,32.24Z"/><path class="cls-2" d="M99.05,34.41c0,.05,0,.1.11.11l.6,0c.07,0,.13,0,.13-.09l0-.38c0-.05,0-.1-.11-.11l-.6-.05a.11.11,0,0,0-.13.09Z"/><path class="cls-2" d="M99.71,35.12l-.59-.06c-.07,0-.13,0-.13.09s0,.26,0,.38a.11.11,0,0,0,.12.11l.59,0a.1.1,0,0,0,.13-.09c0-.12,0-.25,0-.38A.11.11,0,0,0,99.71,35.12Z"/><path class="cls-2" d="M99.61,36.24,99,36.19a.11.11,0,0,0-.13.09l0,.38a.13.13,0,0,0,.12.11l.58,0c.07,0,.13,0,.13-.09s0-.26,0-.38A.11.11,0,0,0,99.61,36.24Z"/><path class="cls-2" d="M99.51,37.36l-.58,0a.11.11,0,0,0-.13.09l0,.38a.1.1,0,0,0,.11.11l.58,0a.1.1,0,0,0,.13-.09c0-.12,0-.25,0-.38A.13.13,0,0,0,99.51,37.36Z"/><path class="cls-2" d="M99.32,39.56l-.57-.05c-.07,0-.13,0-.13.09l0,.38c0,.06,0,.1.11.11l.57,0a.11.11,0,0,0,.13-.09c0-.13,0-.25,0-.38A.13.13,0,0,0,99.32,39.56Z"/><path class="cls-2" d="M99.22,40.68l-.57,0a.11.11,0,0,0-.13.09l0,.38a.13.13,0,0,0,.11.11l.57,0c.07,0,.13,0,.13-.08s0-.26,0-.38A.13.13,0,0,0,99.22,40.68Z"/><path class="cls-2" d="M99,42.93l-.56,0c-.07,0-.13,0-.13.08l0,.38a.1.1,0,0,0,.11.11l.56,0a.1.1,0,0,0,.12-.09c0-.12,0-.25,0-.38A.13.13,0,0,0,99,42.93Z"/><path class="cls-2" d="M94.13,44.89l-.55,0c-.07,0-.12,0-.12.1l0,.38a.11.11,0,0,0,.12.1l.55,0a.1.1,0,0,0,.12-.09c0-.13,0-.25,0-.38S94.2,44.89,94.13,44.89Z"/><path class="cls-2" d="M97.24,46.22l-.54,0a.12.12,0,0,0-.13.09l0,.38a.11.11,0,0,0,.11.11l.55,0a.1.1,0,0,0,.12-.09l0-.38S97.31,46.23,97.24,46.22Z"/><path class="cls-2" d="M94,47.17l-.54,0a.1.1,0,0,0-.12.09c0,.13,0,.25,0,.38s.05.1.11.11l.54,0a.09.09,0,0,0,.12-.09c0-.13,0-.25,0-.38S94.07,47.17,94,47.17Z"/><path class="cls-2" d="M95.58,47.26l-.54,0a.12.12,0,0,0-.13.09c0,.13,0,.25,0,.38a.13.13,0,0,0,.11.11l.54,0a.1.1,0,0,0,.12-.09l0-.38A.12.12,0,0,0,95.58,47.26Z"/><path class="cls-2" d="M93.94,48.29l-.54,0a.11.11,0,0,0-.12.1c0,.12,0,.25,0,.38a.11.11,0,0,0,.11.1l.54,0c.06,0,.12,0,.12-.09s0-.25,0-.38A.13.13,0,0,0,93.94,48.29Z"/><path class="cls-2" d="M95.59,48.88c0-.13,0-.26,0-.39s0-.09-.11-.1l-.54,0a.11.11,0,0,0-.12.1c0,.12,0,.25,0,.38a.1.1,0,0,0,.11.1l.54,0A.12.12,0,0,0,95.59,48.88Z"/><path class="cls-2" d="M97.07,48.5l-.54,0c-.06,0-.12,0-.12.09l0,.38s0,.1.11.11l.53,0a.12.12,0,0,0,.13-.09l0-.38A.12.12,0,0,0,97.07,48.5Z"/><path class="cls-2" d="M97,49.63l-.53,0a.11.11,0,0,0-.13.09c0,.12,0,.25,0,.38a.09.09,0,0,0,.1.1l.54.05a.12.12,0,0,0,.12-.1l0-.38A.1.1,0,0,0,97,49.63Z"/><path class="cls-2" d="M93.81,50.55l-.53,0a.1.1,0,0,0-.12.09c0,.13,0,.25,0,.38a.13.13,0,0,0,.11.11l.53,0A.1.1,0,0,0,93.9,51c0-.12,0-.25,0-.38A.1.1,0,0,0,93.81,50.55Z"/><path class="cls-2" d="M96.89,50.75l-.53,0a.11.11,0,0,0-.12.09l0,.38a.12.12,0,0,0,.11.11l.53,0c.06,0,.12,0,.12-.09l0-.38A.12.12,0,0,0,96.89,50.75Z"/><path class="cls-2" d="M92.64,44.81l-.56,0a.12.12,0,0,0-.12.1c0,.13,0,.25,0,.38a.11.11,0,0,0,.12.1l.55,0a.11.11,0,0,0,.12-.1c0-.12,0-.25,0-.38A.11.11,0,0,0,92.64,44.81Z"/><path class="cls-2" d="M92.53,47.09l-.55,0c-.06,0-.11,0-.11.09s0,.25,0,.38a.1.1,0,0,0,.11.1l.55,0a.12.12,0,0,0,.12-.09c0-.13,0-.26,0-.39S92.6,47.1,92.53,47.09Z"/><path class="cls-2" d="M92.43,49.34l-.54,0a.11.11,0,0,0-.12.1c0,.12,0,.25,0,.38a.11.11,0,0,0,.11.1l.54,0a.12.12,0,0,0,.12-.1c0-.13,0-.25,0-.38A.12.12,0,0,0,92.43,49.34Z"/><path class="cls-2" d="M92.37,50.47l-.53,0a.12.12,0,0,0-.12.09c0,.13,0,.26,0,.38s0,.1.11.11l.53,0a.1.1,0,0,0,.11-.09c0-.13,0-.26,0-.38S92.44,50.48,92.37,50.47Z"/><path class="cls-2" d="M98.83,45.22l-.56,0a.1.1,0,0,0-.12.08l0,.38a.1.1,0,0,0,.11.11l.55,0a.1.1,0,0,0,.12-.09c0-.13,0-.25,0-.38A.13.13,0,0,0,98.83,45.22Z"/><path class="cls-2" d="M98.73,46.35l-.55-.05a.1.1,0,0,0-.12.09c0,.12,0,.25,0,.38a.12.12,0,0,0,.11.11l.55,0a.1.1,0,0,0,.12-.08c0-.13,0-.26,0-.39A.11.11,0,0,0,98.73,46.35Z"/><path class="cls-2" d="M98.53,48.62l-.54,0a.1.1,0,0,0-.12.08l0,.38a.1.1,0,0,0,.1.11l.54.05c.06,0,.12,0,.12-.09s0-.25,0-.38A.13.13,0,0,0,98.53,48.62Z"/><path class="cls-2" d="M98.43,49.75l-.53,0a.11.11,0,0,0-.13.09l0,.38a.13.13,0,0,0,.11.11l.53,0a.1.1,0,0,0,.12-.08c0-.13,0-.26,0-.39A.11.11,0,0,0,98.43,49.75Z"/><path class="cls-2" d="M98.33,50.87l-.53,0c-.06,0-.12,0-.12.09l0,.38a.1.1,0,0,0,.1.11l.53.05a.13.13,0,0,0,.13-.09l0-.38A.1.1,0,0,0,98.33,50.87Z"/><path class="cls-3" d="M21.32,91.39c0,.66,0,1.72-1.42,1.72s-1.52-1.17-1.52-1.8V76.1H13.49V90.76c0,2.35,0,5.83,6.61,5.83,6,0,6.11-3.48,6.11-6V76.1H21.32Z"/><path class="cls-3" d="M40.36,89.76c0-2.45-.2-3.45-2.6-4,1.54-.82,2.54-1.48,2.54-4.48a5.73,5.73,0,0,0-1-3.86c-1.15-1.26-3-1.32-4.26-1.32H28.21V96.28h4.57v-8.6c2.72,0,3.15,0,3.15,2.2,0,.57-.06,3-.06,3.48a5.12,5.12,0,0,0,.69,2.92H41a2.75,2.75,0,0,1-.68-2.23ZM34.9,84.13a12.86,12.86,0,0,1-2.12.06v-4.6h1.46c1.46,0,1.72.31,1.72,2.06C36,83.19,35.87,83.93,34.9,84.13Z"/><path class="cls-3" d="M51.82,85.62c2.51-.91,2.71-2.06,2.71-5,0-1.6-.26-2.83-1.54-3.69a7.32,7.32,0,0,0-4.06-.86H42.27V96.28h7.49c1.48,0,3.26,0,4.28-1.77a7.38,7.38,0,0,0,.75-3.77,7.37,7.37,0,0,0-.4-3.23A3.4,3.4,0,0,0,51.82,85.62Zm-5-5.94h1.86c1.2,0,1.49.54,1.49,2.11S50.07,84,48.87,84h-2Zm1.86,13H46.87V87.56h1.86c1.49,0,1.57.74,1.57,2.63C50.3,91.56,50.3,92.65,48.73,92.65Z"/><path class="cls-3" d="M59,76.1,54.87,96.28h4.78l.71-4.6H64.1l.69,4.6h4.77L65.48,76.1ZM60.9,88.28l1.37-9,1.35,9Z"/><polygon class="cls-3" points="79.28 89.19 75.05 76.1 70.22 76.1 70.22 96.28 74.34 96.28 74.34 83.13 78.53 96.28 83.45 96.28 83.45 76.1 79.28 76.1 79.28 89.19"/><polygon class="cls-3" points="96.96 84.24 93.55 84.24 93.55 76.09 88.66 76.09 88.66 96.28 93.55 96.28 93.55 87.82 96.96 87.82 96.96 96.28 101.85 96.28 101.85 76.09 96.96 76.09 96.96 84.24"/><path class="cls-3" d="M110.31,75.69c-1.46,0-3.72.06-5.26,1.66a5.94,5.94,0,0,0-1.43,4.43v8.35c0,2.35.11,6.41,6.55,6.41,1.46,0,3.66-.08,5.09-1.54s1.49-3.44,1.49-5V82.24C116.75,80,116.75,75.69,110.31,75.69Zm1.58,15.59c0,1.17-.38,1.71-1.69,1.71-1.69,0-1.69-.8-1.69-1.71V80.92c0-1.2.4-1.62,1.6-1.62s1.78.34,1.78,1.65Z"/><path class="cls-3" d="M126.35,91.39c0,.66,0,1.72-1.43,1.72s-1.51-1.17-1.51-1.8V76.09h-4.89V90.76c0,2.35,0,5.84,6.61,5.84,6.06,0,6.12-3.49,6.12-6V76.09h-4.9Z"/><path class="cls-3" d="M142.46,85.9,138.28,83c-.86-.57-.91-1-.91-2.06,0-.83,0-1.77,1.23-1.77s1.34.66,1.34,1.69v1.4h4.63c.12-4.43-.37-6.55-5.66-6.55-5,0-6.32,1.69-6.32,5.83,0,2.89.74,3.47,2.8,5l3,2.12c1.8,1.29,1.83,1.43,1.83,3,0,.49,0,1.43-1.54,1.43s-1.44-1.14-1.44-1.63V89.82h-4.83c-.06,2.43-.08,4.26,1.37,5.49,1.06.86,2.72,1.26,5,1.26,2.95,0,4.23-.69,5.06-1.55s1.29-1.94,1.29-4.14C145.06,87.79,144.32,87.19,142.46,85.9Z"/><polygon class="cls-3" points="156.59 79.64 156.59 76.06 146.15 76.06 146.15 96.28 156.59 96.28 156.59 92.71 151.04 92.71 151.04 87.85 156.27 87.85 156.27 84.27 151.04 84.27 151.04 79.64 156.59 79.64"/><path class="cls-3" d="M116.53,68.3c.59-2.44,1.17-4.88,1.76-7.32a.14.14,0,0,0-.11-.17c-1.27-.3-2.54-.58-3.81-.85a.15.15,0,0,1-.12-.16q1.19-5.64,2.36-11.27a.15.15,0,0,0-.13-.16q-3.32-.69-6.65-1.23c-.09,0-.17,0-.18.11L108.09,57a.13.13,0,0,1-.17.11l-2.53-.38a.14.14,0,0,1-.13-.15q.84-6,1.67-11.95a.14.14,0,0,0-.14-.15l-2.16-.29a.16.16,0,0,1-.15-.15c0-.34.08-.67.13-1,0-.07-.06-.14-.15-.15l-1.07-.13a.15.15,0,0,0-.18.11c0,.34-.07.67-.11,1a.16.16,0,0,1-.18.12l-1-.11c-.09,0-.16-.08-.15-.15l1.29-12.25a.15.15,0,0,0-.16-.15l-1.31-.14a.16.16,0,0,1-.16-.15q.45-4.61.88-9.22c0-.07-.06-.13-.17-.15l-1.13-.1c-.1,0-.18-.08-.17-.15.1-1.19.21-2.38.31-3.57a2.51,2.51,0,0,1,0-.27l.15-.66a.37.37,0,0,0-.07-.25q-1.78-2.08-3.65-4.14a.15.15,0,0,0-.22,0q-2.1,2-4.11,4a.28.28,0,0,0-.07.24l.21.69a1.24,1.24,0,0,1,0,.27L93.31,21c0,.07-.08.13-.18.12l-1.16,0c-.1,0-.19.05-.19.13-.11,3-.22,6.11-.32,9.16a.17.17,0,0,1-.18.13l-1.3,0c-.1,0-.18.06-.18.13q-.28,11.3-.58,22.58c-2.55-.13-5.1-.2-7.65-.19v-.42l.09,0c0-.15,0-.3-.07-.44l.12,0s.07-.08-.08-.23a.68.68,0,0,1-.14-.44l.06-.11-.11-.1a2.42,2.42,0,0,0,.1-1.14c-.13-.5-.33-.61-.33-.61s0,0,0-.08a.61.61,0,0,0-.07-.1c0-.07,0-.13,0-.19v-.94s0,0,0-.06,0-.23,0-.34l.06-.12-.27-.3a2.24,2.24,0,0,0,.08-.83,1.34,1.34,0,0,0-.38-.55l0-.1s0-.08,0-.12l.1-.11-.1-.05v-.73l0-.05,0-.28.08,0a1.59,1.59,0,0,0-.16-.19c-.06,0,.07-.57,0-.77a1.57,1.57,0,0,0-.3-.5l0-.13V41.7l.06-.1-.1-.24a.57.57,0,0,0,.07-.33.55.55,0,0,0-.2-.21c-.16-1.55-.33-3.1-.5-4.65,0-.53,0-1.06-.08-1.59,0,.53,0,1.06,0,1.59-.13,1.55-.26,3.11-.38,4.66a.48.48,0,0,0-.18.22.57.57,0,0,0,.07.33l-.09.24.06.1,0,1.13a.69.69,0,0,0,0,.13,1.69,1.69,0,0,0-.29.51c0,.2.11.71.06.76a1,1,0,0,0-.16.2s0,0,.08,0l0,.28,0,0c0,.24,0,.49,0,.73l-.09.06.09.11s0,.07,0,.11a1,1,0,0,1,0,.1,1.4,1.4,0,0,0-.37.57,2.24,2.24,0,0,0,.11.82l-.27.31a.75.75,0,0,1,.07.12l.06.34.06,0c0,.32,0,.63,0,1a1.15,1.15,0,0,0,0,.19l-.06.1a.19.19,0,0,0,0,.08s-.2.12-.31.62a2.26,2.26,0,0,0,.13,1.14l-.11.1.07.11a.72.72,0,0,1-.13.44c-.15.15-.07.23-.07.23l.11,0c0,.14,0,.29,0,.44l.09,0c0,.58,0,1.16,0,1.74,0,.14,0,.29,0,.44l-.45.17a.25.25,0,0,1,0,.08s0,.08,0,.13c0,.82,0,1.63.07,2.45s.05,1.73.08,2.6l-.38,0c-.44-.89-2-3.94-2.45-5.32-.6-1.86-1.77-6.4-2.11-8.21s-1.26-8.35-1.26-8.36l-.41-.19q-.77-7.6-1.56-15.21.57,7.62,1.18,15.25l-.36.26s.25,6.63.26,8.44-.39,6.77-.61,8.46c-.13.82-.49,2.24-.83,3.48l-.66-5.5a9.62,9.62,0,0,0-2-4.59q-.47-3-.94-6a12.63,12.63,0,0,0-2.82-.1c-.86.08-1.84.21-2.4.28l-.84-.54A74.82,74.82,0,0,0,52,38.54Q54.29,49.27,56.58,60c-1.22.26-2.44.52-3.65.81a.14.14,0,0,0-.11.17c.57,2.36,1.13,4.72,1.7,7.08a96.81,96.81,0,0,0-13.36,4.4A185.85,185.85,0,0,1,85,67.63c16,0,30.95,1.63,43.88,4.83A97.32,97.32,0,0,0,116.53,68.3ZM57.81,41.7l-.66.12c0-.16-.06-.31-.08-.46Zm-.92.17-.7.13c0-.15,0-.31-.08-.46l.69-.13Zm-.19-.78-.67.13c0-.16-.06-.31-.08-.46Zm-.8,1-.7.13-.09-.46.7-.13Zm-.15-.79-.7.14L55,41l.7-.14Zm-.19-.83-.67.13-.09-.46Zm-.65,1.81-.69.14c0-.15-.07-.31-.1-.46l.7-.14Zm-.16-.78-.69.14c0-.15-.07-.31-.1-.46l.7-.14Zm-.17-.86-.7.14-.09-.46.7-.14Zm-.19-.76-.67.14-.09-.46Zm-2-.86.77.32-.67.14C52.5,39.3,52.47,39.15,52.44,39Zm.17.69.71-.15.09.46-.7.14C52.67,40,52.64,39.83,52.61,39.68Zm.17.82.71-.15.09.46-.7.15C52.85,40.81,52.82,40.65,52.78,40.5Zm.18.86.7-.15c0,.15.07.31.1.46l-.7.14C53,41.66,53,41.51,53,41.36Zm.17.78.7-.15.09.46-.69.15C53.2,42.44,53.16,42.29,53.13,42.14Zm.17.82.7-.14.09.46-.69.14C53.37,43.27,53.34,43.12,53.3,43Zm.27,1.26c0-.15-.06-.31-.1-.46l.69-.14c0,.15.06.3.1.45Zm.72-1.46.69-.14.09.46-.69.14ZM54.55,44c0-.15-.06-.3-.1-.45l.69-.14.09.46Zm.73-1.45.69-.13.09.46-.69.13Zm.25,1.26-.09-.46.68-.14.09.46Zm.73-1.45.7-.13c0,.15,0,.31.08.46l-.69.13Zm.25,1.26-.09-.46.69-.13c0,.15,0,.31.08.46Zm.74-1.45.7-.12c0,.15,0,.31.08.46l-.69.12Zm.24,1.27L57.4,43l.69-.12c0,.15,0,.31.08.46ZM58.21,42l.74.34-.66.12C58.26,42.32,58.24,42.16,58.21,42Zm.26,1.26c0-.16-.06-.31-.08-.46l.69-.13c0,.16.05.31.07.47Zm.92-.17c0-.15,0-.3-.07-.46l.73.35ZM71,60.73l-.9.11c.16-.8.61-3.07.78-4.8.19-2.14.4-3.6.4-3.6l.7-.07c.06.39.19,1.38.26,2.55.14,2.24.19,4.87.21,5.69Zm2.67-.22c-.13-.79-.56-3.4-.83-5.65-.14-1.17-.18-2.15-.2-2.55l.87-.07s.46,1.4,1,3.47c.48,1.7,1.35,3.89,1.64,4.61ZM78.6,49c0-.28,0-.56,0-.83H79c0,.28,0,.55,0,.83ZM79,44.82h.42c0,.23,0,.46,0,.69H79C79,45.29,79,45.06,79,44.82ZM79.11,49c0-.28,0-.56,0-.83h.37c0,.28,0,.55,0,.83Zm.4-4.17h.43c0,.23,0,.46,0,.7h-.42C79.52,45.28,79.52,45.05,79.51,44.81ZM79.79,49H79.6c0-.28,0-.56,0-.83H80c0,.28,0,.56,0,.83Zm.31,0c0-.28,0-.55,0-.83h.37c0,.27,0,.55,0,.83Zm0-3.46v-.69h.42c0,.24,0,.47,0,.7ZM80.61,49c0-.28,0-.56,0-.84H81c0,.28,0,.56,0,.83ZM98.22,23.74c0-.06.06-.1.14-.1l.63.05c.07,0,.13.06.12.11s0,.26,0,.38-.06.1-.14.09l-.62-.05c-.08,0-.14,0-.13-.11ZM98,27.11c0-.06.07-.09.14-.09l.62.05a.11.11,0,0,1,.12.11l0,.38c0,.05-.06.09-.14.09l-.61,0c-.08,0-.13-.06-.13-.11Zm-.08,1.14a.1.1,0,0,1,.13-.09l.62.05c.07,0,.13.05.12.11l0,.38c0,.05-.06.09-.14.08l-.61,0c-.07,0-.13-.06-.12-.11Zm-.09,1.12a.14.14,0,0,1,.14-.09l.61,0c.07,0,.13.06.12.11l0,.38c0,.05-.06.09-.13.09l-.61-.05c-.07,0-.13-.05-.12-.1S97.8,29.5,97.8,29.37Zm-.16,2.26c0-.06.07-.1.13-.1l.61,0a.13.13,0,0,1,.12.11l0,.38a.13.13,0,0,1-.14.09l-.6,0a.11.11,0,0,1-.12-.11ZM97.39,35a.11.11,0,0,1,.13-.09l.59,0c.08,0,.13.06.12.11l0,.38a.1.1,0,0,1-.13.09l-.59,0a.12.12,0,0,1-.12-.11Zm.34,5-.58,0c-.06,0-.12,0-.11-.11l0-.38c0-.06.06-.09.13-.09l.57,0c.07,0,.12.06.11.11s0,.26,0,.38A.1.1,0,0,1,97.73,40Zm.07.66,0,.38a.12.12,0,0,1-.13.09l-.57,0C97,41.09,97,41,97,41l0-.38a.1.1,0,0,1,.12-.09l.57,0A.11.11,0,0,1,97.8,40.67ZM96.39,23.61a.14.14,0,0,1,.14-.09l.63,0c.08,0,.13.06.13.11l0,.38a.1.1,0,0,1-.13.09l-.64,0a.11.11,0,0,1-.12-.11C96.38,23.86,96.38,23.74,96.39,23.61ZM96.18,27c0-.06.07-.09.14-.09l.62,0c.07,0,.13,0,.12.11s0,.25,0,.38a.14.14,0,0,1-.14.09l-.62,0c-.07,0-.12-.05-.12-.11S96.17,27.12,96.18,27Zm-.07,1.14c0-.06.07-.09.14-.09l.61,0c.07,0,.13.05.13.11l0,.38c0,.05-.07.09-.14.09l-.61,0c-.07,0-.13-.05-.12-.11S96.1,28.25,96.11,28.13ZM96,30.38c0-.05.06-.09.14-.09l.6,0c.07,0,.13.05.12.11s0,.25,0,.38a.13.13,0,0,1-.14.09l-.6,0c-.07,0-.13-.05-.12-.11S96,30.51,96,30.38Zm-.28,4.53s.06-.09.13-.09l.59,0a.12.12,0,0,1,.12.11l0,.38s-.06.09-.13.09l-.59,0c-.07,0-.12,0-.12-.11ZM95.62,36a.11.11,0,0,1,.13-.09l.58,0a.11.11,0,0,1,.12.1l0,.38a.11.11,0,0,1-.12.1l-.59,0a.12.12,0,0,1-.12-.11Zm.06,1,.58,0c.07,0,.12,0,.11.11s0,.25,0,.38-.06.09-.13.09l-.58,0a.11.11,0,0,1-.12-.1l0-.39S95.61,37.07,95.68,37.07ZM94.63,22.38a.11.11,0,0,1,.14-.09l.63,0a.12.12,0,0,1,.13.11c0,.13,0,.25,0,.38s-.07.1-.14.09l-.63,0c-.08,0-.14-.06-.13-.11S94.62,22.51,94.63,22.38Zm-.12,2.25c0-.05.06-.09.14-.09l.63,0c.07,0,.13.06.12.11s0,.26,0,.38-.06.1-.14.1l-.62,0c-.08,0-.13-.05-.13-.1S94.5,24.76,94.51,24.63Zm-.06,1.13c0-.06.06-.09.14-.09l.62,0c.08,0,.13.05.13.11l0,.38a.14.14,0,0,1-.14.09l-.62,0c-.08,0-.13-.05-.13-.11S94.44,25.89,94.45,25.76Zm-.18,3.39a.14.14,0,0,1,.14-.09l.61,0c.07,0,.13.06.12.11s0,.26,0,.38a.1.1,0,0,1-.13.09l-.61,0a.12.12,0,0,1-.13-.1C94.26,29.41,94.27,29.28,94.27,29.15Zm0,1.13c0-.05.06-.09.13-.09l.61,0a.11.11,0,0,1,.12.11c0,.12,0,.25,0,.38s-.06.09-.14.09l-.6,0c-.07,0-.13-.05-.12-.11S94.21,30.41,94.22,30.28Zm-1.69,1s.06-.09.13-.09l.61,0c.07,0,.12,0,.12.11s0,.25,0,.38-.06.09-.13.09l-.6,0c-.07,0-.13-.05-.13-.11S92.53,31.46,92.53,31.33Zm0,1.13a.12.12,0,0,1,.13-.09l.6,0c.07,0,.13,0,.13.11s0,.25,0,.38-.06.09-.13.09l-.6,0c-.07,0-.13,0-.12-.1S92.48,32.59,92.48,32.46Zm0,18.5a.1.1,0,0,1-.11.09l-.53,0c-.07,0-.12-.05-.11-.11s0-.25,0-.38a.12.12,0,0,1,.12-.09l.53,0c.07,0,.12.05.11.11S92.47,50.83,92.46,51Zm.06-1.13a.12.12,0,0,1-.12.1l-.54,0a.11.11,0,0,1-.11-.1c0-.13,0-.26,0-.38a.11.11,0,0,1,.12-.1l.54,0a.12.12,0,0,1,.11.11C92.53,49.58,92.53,49.7,92.52,49.83Zm.11-2.25a.12.12,0,0,1-.12.09l-.55,0a.1.1,0,0,1-.11-.1c0-.13,0-.25,0-.38s0-.09.11-.09l.55,0c.07,0,.12,0,.11.1S92.63,47.45,92.63,47.58Zm.1-2.29a.11.11,0,0,1-.12.1l-.55,0a.11.11,0,0,1-.12-.1c0-.13,0-.25,0-.38a.12.12,0,0,1,.12-.1l.56,0a.11.11,0,0,1,.11.1C92.74,45,92.74,45.17,92.73,45.29Zm.06-1.16s-.06.09-.13.09l-.55,0c-.07,0-.12-.05-.12-.11s0-.25,0-.38a.1.1,0,0,1,.12-.09l.56,0a.11.11,0,0,1,.12.11C92.8,43.87,92.79,44,92.79,44.13Zm0-1.13a.1.1,0,0,1-.12.09l-.56,0c-.07,0-.12,0-.12-.11s0-.25,0-.38a.1.1,0,0,1,.12-.09l.56,0c.07,0,.12.05.12.11S92.85,42.87,92.84,43Zm0-1.13a.11.11,0,0,1-.12.1l-.56,0c-.07,0-.12,0-.12-.1s0-.26,0-.39a.12.12,0,0,1,.13-.09l.57,0a.11.11,0,0,1,.11.1C92.91,41.62,92.9,41.75,92.89,41.87ZM93,40.74a.11.11,0,0,1-.13.1l-.57,0c-.06,0-.12-.05-.11-.1s0-.25,0-.38.06-.1.13-.1l.57,0c.07,0,.12.05.11.1S93,40.62,93,40.74Zm0-1.12c0,.05-.06.09-.13.09l-.57,0c-.06,0-.12,0-.12-.11s0-.25,0-.38.06-.09.13-.09l.57,0a.12.12,0,0,1,.12.11C93,39.36,93,39.49,93,39.62Zm0-1.08a.12.12,0,0,1-.13.1l-.57,0c-.07,0-.12,0-.12-.1s0-.26,0-.39,0-.09.12-.09l.58,0a.13.13,0,0,1,.12.11C93.06,38.29,93.06,38.42,93.05,38.54Zm0-1.13a.11.11,0,0,1-.12.1l-.58,0c-.07,0-.13,0-.12-.1s0-.26,0-.39.06-.09.13-.09l.58,0c.07,0,.13,0,.12.1S93.11,37.29,93.1,37.41Zm-.56-3.31c-.07,0-.12-.05-.12-.11s0-.25,0-.38a.13.13,0,0,1,.14-.09l.59,0c.07,0,.12,0,.12.1s0,.26,0,.38a.13.13,0,0,1-.14.1ZM93.9,51a.1.1,0,0,1-.12.09l-.53,0a.13.13,0,0,1-.11-.11c0-.13,0-.25,0-.38a.1.1,0,0,1,.12-.09l.53,0a.1.1,0,0,1,.11.1C93.91,50.78,93.91,50.91,93.9,51ZM94,48.78s-.06.09-.12.09l-.54,0a.11.11,0,0,1-.11-.1c0-.13,0-.26,0-.38a.11.11,0,0,1,.12-.1l.54,0a.13.13,0,0,1,.11.11C94,48.53,94,48.65,94,48.78Zm.06-1.13a.09.09,0,0,1-.12.09l-.54,0c-.06,0-.12,0-.11-.11s0-.25,0-.38a.1.1,0,0,1,.12-.09l.54,0c.07,0,.12,0,.11.1S94.1,47.52,94.09,47.65Zm.13-2.28a.1.1,0,0,1-.12.09l-.55,0a.11.11,0,0,1-.12-.1l0-.38c0-.06.05-.1.12-.1l.55,0c.07,0,.12,0,.11.1S94.23,45.24,94.22,45.37Zm.07-1.16s-.06.09-.13.09l-.55,0c-.07,0-.12-.05-.11-.11s0-.25,0-.38,0-.09.12-.09l.56,0a.11.11,0,0,1,.11.1C94.3,44,94.3,44.08,94.29,44.21ZM94.42,42a.11.11,0,0,1-.13.09l-.56,0a.11.11,0,0,1-.12-.1c0-.13,0-.26,0-.38a.12.12,0,0,1,.13-.1l.56,0a.11.11,0,0,1,.12.1C94.43,41.7,94.43,41.82,94.42,42Zm.06-1.12c0,.05-.06.09-.12.09l-.57,0a.13.13,0,0,1-.12-.11c0-.12,0-.25,0-.38s.06-.09.13-.09l.57,0c.06,0,.12,0,.11.1S94.49,40.7,94.48,40.83Zm.19-3.33s-.06.09-.13.09l-.58,0a.11.11,0,0,1-.12-.1c0-.13,0-.25,0-.38A.11.11,0,0,1,94,37l.59,0c.06,0,.12.05.11.1S94.68,37.37,94.67,37.5Zm.92,11.38a.12.12,0,0,1-.12.09l-.54,0a.1.1,0,0,1-.11-.1c0-.13,0-.26,0-.38a.11.11,0,0,1,.12-.1l.54,0c.07,0,.12,0,.11.1S95.6,48.75,95.59,48.88Zm.07-1.13a.1.1,0,0,1-.12.09l-.54,0a.13.13,0,0,1-.11-.11c0-.13,0-.25,0-.38a.12.12,0,0,1,.13-.09l.54,0a.12.12,0,0,1,.11.11ZM96,43.18a.1.1,0,0,1-.12.09l-.56,0a.11.11,0,0,1-.12-.1l0-.38a.1.1,0,0,1,.13-.09l.56,0a.13.13,0,0,1,.11.11Zm.08-1.13a.1.1,0,0,1-.13.09l-.56,0c-.07,0-.12,0-.11-.11s0-.25,0-.38.06-.09.12-.09l.57,0c.07,0,.12,0,.11.1S96.06,41.93,96.05,42.05Zm0-2.16-.57,0c-.07,0-.12-.05-.11-.1s0-.26,0-.38a.1.1,0,0,1,.13-.09l.57,0a.13.13,0,0,1,.12.11l0,.38A.11.11,0,0,1,96.07,39.89ZM97,51.24s-.06.09-.12.09l-.53,0a.12.12,0,0,1-.11-.11l0-.38a.11.11,0,0,1,.12-.09l.53,0a.12.12,0,0,1,.11.11Zm.09-1.13a.12.12,0,0,1-.12.1l-.54-.05a.09.09,0,0,1-.1-.1c0-.13,0-.26,0-.38a.11.11,0,0,1,.13-.09l.53,0a.1.1,0,0,1,.11.1ZM97.15,49a.12.12,0,0,1-.13.09l-.53,0c-.07,0-.12-.06-.11-.11l0-.38s.06-.09.12-.09l.54,0a.12.12,0,0,1,.11.11Zm.17-2.28a.1.1,0,0,1-.12.09l-.55,0a.11.11,0,0,1-.11-.11l0-.38a.12.12,0,0,1,.13-.09l.54,0c.07,0,.12.06.11.11Zm.27-3.41c0,.05-.06.09-.13.09l-.55,0a.11.11,0,0,1-.12-.1l0-.38a.1.1,0,0,1,.13-.09l.56,0a.11.11,0,0,1,.11.11Zm0-1-.56,0a.11.11,0,0,1-.12-.11l0-.38a.13.13,0,0,1,.13-.09l.57,0a.12.12,0,0,1,.11.11l0,.38A.11.11,0,0,1,97.55,42.26Zm.86,9.1a.13.13,0,0,1-.13.09l-.53-.05a.1.1,0,0,1-.1-.11l0-.38s.06-.09.12-.09l.53,0a.1.1,0,0,1,.11.11Zm.09-1.12a.1.1,0,0,1-.12.08l-.53,0a.13.13,0,0,1-.11-.11l0-.38a.11.11,0,0,1,.13-.09l.53,0a.11.11,0,0,1,.11.1C98.53,50,98.51,50.11,98.5,50.24Zm.1-1.13c0,.06-.06.09-.12.09l-.54-.05a.1.1,0,0,1-.1-.11l0-.38a.1.1,0,0,1,.12-.08l.54,0a.13.13,0,0,1,.11.11C98.63,48.86,98.61,49,98.6,49.11Zm.2-2.27a.1.1,0,0,1-.12.08l-.55,0a.12.12,0,0,1-.11-.11c0-.13,0-.26,0-.38a.1.1,0,0,1,.12-.09l.55.05a.11.11,0,0,1,.11.1C98.83,46.58,98.82,46.71,98.8,46.84Zm.1-1.13a.1.1,0,0,1-.12.09l-.55,0a.1.1,0,0,1-.11-.11l0-.38a.1.1,0,0,1,.12-.08l.56,0a.13.13,0,0,1,.11.11C98.93,45.46,98.91,45.58,98.9,45.71Zm.2-2.29a.1.1,0,0,1-.12.09l-.56,0a.1.1,0,0,1-.11-.11l0-.38s.06-.09.13-.08l.56,0a.13.13,0,0,1,.11.11C99.13,43.17,99.12,43.3,99.1,43.42Zm.2-2.24s-.06.09-.13.08l-.57,0a.13.13,0,0,1-.11-.11l0-.38a.11.11,0,0,1,.13-.09l.57,0a.13.13,0,0,1,.12.12C99.32,40.92,99.31,41.05,99.3,41.18Zm.1-1.13a.11.11,0,0,1-.13.09l-.57,0c-.07,0-.12-.05-.11-.11l0-.38c0-.06.06-.09.13-.09l.57.05a.13.13,0,0,1,.12.11C99.42,39.8,99.41,39.92,99.4,40.05Zm.19-2.2a.1.1,0,0,1-.13.09l-.58,0a.1.1,0,0,1-.11-.11l0-.38a.11.11,0,0,1,.13-.09l.58,0a.13.13,0,0,1,.12.11C99.62,37.6,99.61,37.73,99.59,37.85Zm.1-1.12c0,.05-.06.09-.13.09l-.58,0a.13.13,0,0,1-.12-.11l0-.38a.11.11,0,0,1,.13-.09l.59.05a.11.11,0,0,1,.12.11C99.72,36.47,99.7,36.6,99.69,36.73Zm.1-1.13a.1.1,0,0,1-.13.09l-.59,0a.11.11,0,0,1-.12-.11c0-.12,0-.25,0-.38s.06-.09.13-.09l.59.06a.11.11,0,0,1,.12.1C99.81,35.35,99.8,35.48,99.79,35.6Zm.1-1.12c0,.06-.06.09-.13.09l-.6,0c-.06,0-.12-.06-.11-.11l0-.38a.11.11,0,0,1,.13-.09l.6.05c.07,0,.12.06.11.11Zm.2-2.27s-.06.09-.13.08l-.61,0c-.07,0-.12-.05-.11-.11l0-.38a.11.11,0,0,1,.13-.09l.61.05a.13.13,0,0,1,.12.11C100.11,32,100.1,32.08,100.09,32.21Z"/><path class="cls-2" d="M57.81,41.7l-.66.12c0-.16-.06-.31-.08-.46Z"/><path class="cls-2" d="M56.89,41.87l-.7.13c0-.15,0-.31-.08-.46l.69-.13Z"/><path class="cls-2" d="M56.7,41.09l-.67.13c0-.16-.06-.31-.08-.46Z"/><path class="cls-2" d="M55.9,42.06l-.7.13-.09-.46.7-.13Z"/><path class="cls-2" d="M55.75,41.27l-.7.14L55,41l.7-.14Z"/><path class="cls-2" d="M55.56,40.44l-.67.13-.09-.46Z"/><path class="cls-2" d="M54.91,42.25l-.69.14c0-.15-.07-.31-.1-.46l.7-.14Z"/><path class="cls-2" d="M54.75,41.47l-.69.14c0-.15-.07-.31-.1-.46l.7-.14Z"/><path class="cls-2" d="M54.58,40.61l-.7.14-.09-.46.7-.14Z"/><path class="cls-2" d="M54.39,39.85l-.67.14-.09-.46Z"/><path class="cls-2" d="M52.44,39l.77.32-.67.14C52.5,39.3,52.47,39.15,52.44,39Z"/><path class="cls-2" d="M52.61,39.68l.71-.15.09.46-.7.14C52.67,40,52.64,39.83,52.61,39.68Z"/><path class="cls-2" d="M52.78,40.5l.71-.15.09.46-.7.15C52.85,40.81,52.82,40.65,52.78,40.5Z"/><path class="cls-2" d="M53,41.36l.7-.15c0,.15.07.31.1.46l-.7.14C53,41.66,53,41.51,53,41.36Z"/><path class="cls-2" d="M53.13,42.14l.7-.15.09.46-.69.15C53.2,42.44,53.16,42.29,53.13,42.14Z"/><path class="cls-2" d="M53.3,43l.7-.14.09.46-.69.14C53.37,43.27,53.34,43.12,53.3,43Z"/><path class="cls-2" d="M53.57,44.22c0-.15-.06-.31-.1-.46l.69-.14c0,.15.06.3.1.45Z"/><path class="cls-2" d="M54.29,42.76l.69-.14.09.46-.69.14Z"/><path class="cls-2" d="M54.55,44c0-.15-.06-.3-.1-.45l.69-.14.09.46Z"/><path class="cls-2" d="M55.28,42.56l.69-.13.09.46-.69.13Z"/><path class="cls-2" d="M55.53,43.82l-.09-.46.68-.14.09.46Z"/><path class="cls-2" d="M56.26,42.37l.7-.13c0,.15,0,.31.08.46l-.69.13Z"/><path class="cls-2" d="M56.51,43.63l-.09-.46.69-.13c0,.15,0,.31.08.46Z"/><path class="cls-2" d="M57.25,42.18l.7-.12c0,.15,0,.31.08.46l-.69.12Z"/><path class="cls-2" d="M57.49,43.45,57.4,43l.69-.12c0,.15,0,.31.08.46Z"/><path class="cls-2" d="M58.21,42l.74.34-.66.12C58.26,42.32,58.24,42.16,58.21,42Z"/><path class="cls-2" d="M58.47,43.27c0-.16-.06-.31-.08-.46l.69-.13c0,.16.05.31.07.47Z"/><path class="cls-2" d="M59.39,43.1c0-.15,0-.3-.07-.46l.73.35Z"/><path class="cls-2" d="M78.6,49c0-.28,0-.56,0-.83H79c0,.28,0,.55,0,.83Z"/><path class="cls-2" d="M79,44.82h.42c0,.23,0,.46,0,.69H79C79,45.29,79,45.06,79,44.82Z"/><path class="cls-2" d="M79.11,49c0-.28,0-.56,0-.83h.37c0,.28,0,.55,0,.83Z"/><path class="cls-2" d="M79.51,44.81h.43c0,.23,0,.46,0,.7h-.42C79.52,45.28,79.52,45.05,79.51,44.81Z"/><path class="cls-2" d="M79.79,49H79.6c0-.28,0-.56,0-.83H80c0,.28,0,.56,0,.83Z"/><path class="cls-2" d="M80.1,49c0-.28,0-.55,0-.83h.37c0,.27,0,.55,0,.83Z"/><path class="cls-2" d="M80.08,45.5v-.69h.42c0,.24,0,.47,0,.7Z"/><path class="cls-2" d="M80.61,49c0-.28,0-.56,0-.84H81c0,.28,0,.56,0,.83Z"/><path class="cls-2" d="M98.22,23.74c0-.06.06-.1.14-.1l.63.05c.07,0,.13.06.12.11s0,.26,0,.38-.06.1-.14.09l-.62-.05c-.08,0-.14,0-.13-.11Z"/><path class="cls-2" d="M98,27.11c0-.06.07-.09.14-.09l.62.05a.11.11,0,0,1,.12.11l0,.38c0,.05-.06.09-.14.09l-.61,0c-.08,0-.13-.06-.13-.11Z"/><path class="cls-2" d="M97.89,28.25a.1.1,0,0,1,.13-.09l.62.05c.07,0,.13.05.12.11l0,.38c0,.05-.06.09-.14.08l-.61,0c-.07,0-.13-.06-.12-.11Z"/><path class="cls-2" d="M97.8,29.37a.14.14,0,0,1,.14-.09l.61,0c.07,0,.13.06.12.11l0,.38c0,.05-.06.09-.13.09l-.61-.05c-.07,0-.13-.05-.12-.1S97.8,29.5,97.8,29.37Z"/><path class="cls-2" d="M97.64,31.63c0-.06.07-.1.13-.1l.61,0a.13.13,0,0,1,.12.11l0,.38a.13.13,0,0,1-.14.09l-.6,0a.11.11,0,0,1-.12-.11Z"/><path class="cls-2" d="M97.39,35a.11.11,0,0,1,.13-.09l.59,0c.08,0,.13.06.12.11l0,.38a.1.1,0,0,1-.13.09l-.59,0a.12.12,0,0,1-.12-.11Z"/><path class="cls-2" d="M97.73,40l-.58,0c-.06,0-.12,0-.11-.11l0-.38c0-.06.06-.09.13-.09l.57,0c.07,0,.12.06.11.11s0,.26,0,.38A.1.1,0,0,1,97.73,40Z"/><path class="cls-2" d="M97.8,40.67l0,.38a.12.12,0,0,1-.13.09l-.57,0C97,41.09,97,41,97,41l0-.38a.1.1,0,0,1,.12-.09l.57,0A.11.11,0,0,1,97.8,40.67Z"/><path class="cls-2" d="M96.39,23.61a.14.14,0,0,1,.14-.09l.63,0c.08,0,.13.06.13.11l0,.38a.1.1,0,0,1-.13.09l-.64,0a.11.11,0,0,1-.12-.11C96.38,23.86,96.38,23.74,96.39,23.61Z"/><path class="cls-2" d="M96.18,27c0-.06.07-.09.14-.09l.62,0c.07,0,.13,0,.12.11s0,.25,0,.38a.14.14,0,0,1-.14.09l-.62,0c-.07,0-.12-.05-.12-.11S96.17,27.12,96.18,27Z"/><path class="cls-2" d="M96.11,28.13c0-.06.07-.09.14-.09l.61,0c.07,0,.13.05.13.11l0,.38c0,.05-.07.09-.14.09l-.61,0c-.07,0-.13-.05-.12-.11S96.1,28.25,96.11,28.13Z"/><path class="cls-2" d="M96,30.38c0-.05.06-.09.14-.09l.6,0c.07,0,.13.05.12.11s0,.25,0,.38a.13.13,0,0,1-.14.09l-.6,0c-.07,0-.13-.05-.12-.11S96,30.51,96,30.38Z"/><path class="cls-2" d="M95.69,34.91s.06-.09.13-.09l.59,0a.12.12,0,0,1,.12.11l0,.38s-.06.09-.13.09l-.59,0c-.07,0-.12,0-.12-.11Z"/><path class="cls-2" d="M95.62,36a.11.11,0,0,1,.13-.09l.58,0a.11.11,0,0,1,.12.1l0,.38a.11.11,0,0,1-.12.1l-.59,0a.12.12,0,0,1-.12-.11Z"/><path class="cls-2" d="M95.68,37.07l.58,0c.07,0,.12,0,.11.11s0,.25,0,.38-.06.09-.13.09l-.58,0a.11.11,0,0,1-.12-.1l0-.39S95.61,37.07,95.68,37.07Z"/><path class="cls-2" d="M94.63,22.38a.11.11,0,0,1,.14-.09l.63,0a.12.12,0,0,1,.13.11c0,.13,0,.25,0,.38s-.07.1-.14.09l-.63,0c-.08,0-.14-.06-.13-.11S94.62,22.51,94.63,22.38Z"/><path class="cls-2" d="M94.51,24.63c0-.05.06-.09.14-.09l.63,0c.07,0,.13.06.12.11s0,.26,0,.38-.06.1-.14.1l-.62,0c-.08,0-.13-.05-.13-.1S94.5,24.76,94.51,24.63Z"/><path class="cls-2" d="M94.45,25.76c0-.06.06-.09.14-.09l.62,0c.08,0,.13.05.13.11l0,.38a.14.14,0,0,1-.14.09l-.62,0c-.08,0-.13-.05-.13-.11S94.44,25.89,94.45,25.76Z"/><path class="cls-2" d="M94.27,29.15a.14.14,0,0,1,.14-.09l.61,0c.07,0,.13.06.12.11s0,.26,0,.38a.1.1,0,0,1-.13.09l-.61,0a.12.12,0,0,1-.13-.1C94.26,29.41,94.27,29.28,94.27,29.15Z"/><path class="cls-2" d="M94.22,30.28c0-.05.06-.09.13-.09l.61,0a.11.11,0,0,1,.12.11c0,.12,0,.25,0,.38s-.06.09-.14.09l-.6,0c-.07,0-.13-.05-.12-.11S94.21,30.41,94.22,30.28Z"/><path class="cls-2" d="M92.53,31.33s.06-.09.13-.09l.61,0c.07,0,.12,0,.12.11s0,.25,0,.38-.06.09-.13.09l-.6,0c-.07,0-.13-.05-.13-.11S92.53,31.46,92.53,31.33Z"/><path class="cls-2" d="M92.48,32.46a.12.12,0,0,1,.13-.09l.6,0c.07,0,.13,0,.13.11s0,.25,0,.38-.06.09-.13.09l-.6,0c-.07,0-.13,0-.12-.1S92.48,32.59,92.48,32.46Z"/><path class="cls-2" d="M92.46,51a.1.1,0,0,1-.11.09l-.53,0c-.07,0-.12-.05-.11-.11s0-.25,0-.38a.12.12,0,0,1,.12-.09l.53,0c.07,0,.12.05.11.11S92.47,50.83,92.46,51Z"/><path class="cls-2" d="M92.52,49.83a.12.12,0,0,1-.12.1l-.54,0a.11.11,0,0,1-.11-.1c0-.13,0-.26,0-.38a.11.11,0,0,1,.12-.1l.54,0a.12.12,0,0,1,.11.11C92.53,49.58,92.53,49.7,92.52,49.83Z"/><path class="cls-2" d="M92.63,47.58a.12.12,0,0,1-.12.09l-.55,0a.1.1,0,0,1-.11-.1c0-.13,0-.25,0-.38s0-.09.11-.09l.55,0c.07,0,.12,0,.11.1S92.63,47.45,92.63,47.58Z"/><path class="cls-2" d="M92.73,45.29a.11.11,0,0,1-.12.1l-.55,0a.11.11,0,0,1-.12-.1c0-.13,0-.25,0-.38a.12.12,0,0,1,.12-.1l.56,0a.11.11,0,0,1,.11.1C92.74,45,92.74,45.17,92.73,45.29Z"/><path class="cls-2" d="M92.79,44.13s-.06.09-.13.09l-.55,0c-.07,0-.12-.05-.12-.11s0-.25,0-.38a.1.1,0,0,1,.12-.09l.56,0a.11.11,0,0,1,.12.11C92.8,43.87,92.79,44,92.79,44.13Z"/><path class="cls-2" d="M92.84,43a.1.1,0,0,1-.12.09l-.56,0c-.07,0-.12,0-.12-.11s0-.25,0-.38a.1.1,0,0,1,.12-.09l.56,0c.07,0,.12.05.12.11S92.85,42.87,92.84,43Z"/><path class="cls-2" d="M92.89,41.87a.11.11,0,0,1-.12.1l-.56,0c-.07,0-.12,0-.12-.1s0-.26,0-.39a.12.12,0,0,1,.13-.09l.57,0a.11.11,0,0,1,.11.1C92.91,41.62,92.9,41.75,92.89,41.87Z"/><path class="cls-2" d="M93,40.74a.11.11,0,0,1-.13.1l-.57,0c-.06,0-.12-.05-.11-.1s0-.25,0-.38.06-.1.13-.1l.57,0c.07,0,.12.05.11.1S93,40.62,93,40.74Z"/><path class="cls-2" d="M93,39.62c0,.05-.06.09-.13.09l-.57,0c-.06,0-.12,0-.12-.11s0-.25,0-.38.06-.09.13-.09l.57,0a.12.12,0,0,1,.12.11C93,39.36,93,39.49,93,39.62Z"/><path class="cls-2" d="M93.05,38.54a.12.12,0,0,1-.13.1l-.57,0c-.07,0-.12,0-.12-.1s0-.26,0-.39,0-.09.12-.09l.58,0a.13.13,0,0,1,.12.11C93.06,38.29,93.06,38.42,93.05,38.54Z"/><path class="cls-2" d="M93.1,37.41a.11.11,0,0,1-.12.1l-.58,0c-.07,0-.13,0-.12-.1s0-.26,0-.39.06-.09.13-.09l.58,0c.07,0,.13,0,.12.1S93.11,37.29,93.1,37.41Z"/><path class="cls-2" d="M92.54,34.1c-.07,0-.12-.05-.12-.11s0-.25,0-.38a.13.13,0,0,1,.14-.09l.59,0c.07,0,.12,0,.12.1s0,.26,0,.38a.13.13,0,0,1-.14.1Z"/><path class="cls-2" d="M93.9,51a.1.1,0,0,1-.12.09l-.53,0a.13.13,0,0,1-.11-.11c0-.13,0-.25,0-.38a.1.1,0,0,1,.12-.09l.53,0a.1.1,0,0,1,.11.1C93.91,50.78,93.91,50.91,93.9,51Z"/><path class="cls-2" d="M94,48.78s-.06.09-.12.09l-.54,0a.11.11,0,0,1-.11-.1c0-.13,0-.26,0-.38a.11.11,0,0,1,.12-.1l.54,0a.13.13,0,0,1,.11.11C94,48.53,94,48.65,94,48.78Z"/><path class="cls-2" d="M94.09,47.65a.09.09,0,0,1-.12.09l-.54,0c-.06,0-.12,0-.11-.11s0-.25,0-.38a.1.1,0,0,1,.12-.09l.54,0c.07,0,.12,0,.11.1S94.1,47.52,94.09,47.65Z"/><path class="cls-2" d="M94.22,45.37a.1.1,0,0,1-.12.09l-.55,0a.11.11,0,0,1-.12-.1l0-.38c0-.06.05-.1.12-.1l.55,0c.07,0,.12,0,.11.1S94.23,45.24,94.22,45.37Z"/><path class="cls-2" d="M94.29,44.21s-.06.09-.13.09l-.55,0c-.07,0-.12-.05-.11-.11s0-.25,0-.38,0-.09.12-.09l.56,0a.11.11,0,0,1,.11.1C94.3,44,94.3,44.08,94.29,44.21Z"/><path class="cls-2" d="M94.42,42a.11.11,0,0,1-.13.09l-.56,0a.11.11,0,0,1-.12-.1c0-.13,0-.26,0-.38a.12.12,0,0,1,.13-.1l.56,0a.11.11,0,0,1,.12.1C94.43,41.7,94.43,41.82,94.42,42Z"/><path class="cls-2" d="M94.48,40.83c0,.05-.06.09-.12.09l-.57,0a.13.13,0,0,1-.12-.11c0-.12,0-.25,0-.38s.06-.09.13-.09l.57,0c.06,0,.12,0,.11.1S94.49,40.7,94.48,40.83Z"/><path class="cls-2" d="M94.67,37.5s-.06.09-.13.09l-.58,0a.11.11,0,0,1-.12-.1c0-.13,0-.25,0-.38A.11.11,0,0,1,94,37l.59,0c.06,0,.12.05.11.1S94.68,37.37,94.67,37.5Z"/><path class="cls-2" d="M95.59,48.88a.12.12,0,0,1-.12.09l-.54,0a.1.1,0,0,1-.11-.1c0-.13,0-.26,0-.38a.11.11,0,0,1,.12-.1l.54,0c.07,0,.12,0,.11.1S95.6,48.75,95.59,48.88Z"/><path class="cls-2" d="M95.66,47.75a.1.1,0,0,1-.12.09l-.54,0a.13.13,0,0,1-.11-.11c0-.13,0-.25,0-.38a.12.12,0,0,1,.13-.09l.54,0a.12.12,0,0,1,.11.11Z"/><path class="cls-2" d="M96,43.18a.1.1,0,0,1-.12.09l-.56,0a.11.11,0,0,1-.12-.1l0-.38a.1.1,0,0,1,.13-.09l.56,0a.13.13,0,0,1,.11.11Z"/><path class="cls-2" d="M96.05,42.05a.1.1,0,0,1-.13.09l-.56,0c-.07,0-.12,0-.11-.11s0-.25,0-.38.06-.09.12-.09l.57,0c.07,0,.12,0,.11.1S96.06,41.93,96.05,42.05Z"/><path class="cls-2" d="M96.07,39.89l-.57,0c-.07,0-.12-.05-.11-.1s0-.26,0-.38a.1.1,0,0,1,.13-.09l.57,0a.13.13,0,0,1,.12.11l0,.38A.11.11,0,0,1,96.07,39.89Z"/><path class="cls-2" d="M97,51.24s-.06.09-.12.09l-.53,0a.12.12,0,0,1-.11-.11l0-.38a.11.11,0,0,1,.12-.09l.53,0a.12.12,0,0,1,.11.11Z"/><path class="cls-2" d="M97.06,50.11a.12.12,0,0,1-.12.1l-.54-.05a.09.09,0,0,1-.1-.1c0-.13,0-.26,0-.38a.11.11,0,0,1,.13-.09l.53,0a.1.1,0,0,1,.11.1Z"/><path class="cls-2" d="M97.15,49a.12.12,0,0,1-.13.09l-.53,0c-.07,0-.12-.06-.11-.11l0-.38s.06-.09.12-.09l.54,0a.12.12,0,0,1,.11.11Z"/><path class="cls-2" d="M97.32,46.71a.1.1,0,0,1-.12.09l-.55,0a.11.11,0,0,1-.11-.11l0-.38a.12.12,0,0,1,.13-.09l.54,0c.07,0,.12.06.11.11Z"/><path class="cls-2" d="M97.59,43.3c0,.05-.06.09-.13.09l-.55,0a.11.11,0,0,1-.12-.1l0-.38a.1.1,0,0,1,.13-.09l.56,0a.11.11,0,0,1,.11.11Z"/><path class="cls-2" d="M97.55,42.26l-.56,0a.11.11,0,0,1-.12-.11l0-.38a.13.13,0,0,1,.13-.09l.57,0a.12.12,0,0,1,.11.11l0,.38A.11.11,0,0,1,97.55,42.26Z"/><path class="cls-2" d="M98.41,51.36a.13.13,0,0,1-.13.09l-.53-.05a.1.1,0,0,1-.1-.11l0-.38s.06-.09.12-.09l.53,0a.1.1,0,0,1,.11.11Z"/><path class="cls-2" d="M98.5,50.24a.1.1,0,0,1-.12.08l-.53,0a.13.13,0,0,1-.11-.11l0-.38a.11.11,0,0,1,.13-.09l.53,0a.11.11,0,0,1,.11.1C98.53,50,98.51,50.11,98.5,50.24Z"/><path class="cls-2" d="M98.6,49.11c0,.06-.06.09-.12.09l-.54-.05a.1.1,0,0,1-.1-.11l0-.38a.1.1,0,0,1,.12-.08l.54,0a.13.13,0,0,1,.11.11C98.63,48.86,98.61,49,98.6,49.11Z"/><path class="cls-2" d="M98.8,46.84a.1.1,0,0,1-.12.08l-.55,0a.12.12,0,0,1-.11-.11c0-.13,0-.26,0-.38a.1.1,0,0,1,.12-.09l.55.05a.11.11,0,0,1,.11.1C98.83,46.58,98.82,46.71,98.8,46.84Z"/><path class="cls-2" d="M98.9,45.71a.1.1,0,0,1-.12.09l-.55,0a.1.1,0,0,1-.11-.11l0-.38a.1.1,0,0,1,.12-.08l.56,0a.13.13,0,0,1,.11.11C98.93,45.46,98.91,45.58,98.9,45.71Z"/><path class="cls-2" d="M99.1,43.42a.1.1,0,0,1-.12.09l-.56,0a.1.1,0,0,1-.11-.11l0-.38s.06-.09.13-.08l.56,0a.13.13,0,0,1,.11.11C99.13,43.17,99.12,43.3,99.1,43.42Z"/><path class="cls-2" d="M99.3,41.18s-.06.09-.13.08l-.57,0a.13.13,0,0,1-.11-.11l0-.38a.11.11,0,0,1,.13-.09l.57,0a.13.13,0,0,1,.12.12C99.32,40.92,99.31,41.05,99.3,41.18Z"/><path class="cls-2" d="M99.4,40.05a.11.11,0,0,1-.13.09l-.57,0c-.07,0-.12-.05-.11-.11l0-.38c0-.06.06-.09.13-.09l.57.05a.13.13,0,0,1,.12.11C99.42,39.8,99.41,39.92,99.4,40.05Z"/><path class="cls-2" d="M99.59,37.85a.1.1,0,0,1-.13.09l-.58,0a.1.1,0,0,1-.11-.11l0-.38a.11.11,0,0,1,.13-.09l.58,0a.13.13,0,0,1,.12.11C99.62,37.6,99.61,37.73,99.59,37.85Z"/><path class="cls-2" d="M99.69,36.73c0,.05-.06.09-.13.09l-.58,0a.13.13,0,0,1-.12-.11l0-.38a.11.11,0,0,1,.13-.09l.59.05a.11.11,0,0,1,.12.11C99.72,36.47,99.7,36.6,99.69,36.73Z"/><path class="cls-2" d="M99.79,35.6a.1.1,0,0,1-.13.09l-.59,0a.11.11,0,0,1-.12-.11c0-.12,0-.25,0-.38s.06-.09.13-.09l.59.06a.11.11,0,0,1,.12.1C99.81,35.35,99.8,35.48,99.79,35.6Z"/><path class="cls-2" d="M99.89,34.48c0,.06-.06.09-.13.09l-.6,0c-.06,0-.12-.06-.11-.11l0-.38a.11.11,0,0,1,.13-.09l.6.05c.07,0,.12.06.11.11Z"/><path class="cls-2" d="M100.09,32.21s-.06.09-.13.08l-.61,0c-.07,0-.12-.05-.11-.11l0-.38a.11.11,0,0,1,.13-.09l.61.05a.13.13,0,0,1,.12.11C100.11,32,100.1,32.08,100.09,32.21Z"/></svg>