<svg id="Layer_1" data-name="Layer 1" xmlns="http://www.w3.org/2000/svg" viewBox="0 0 172.01 34.7"><defs><style>.cls-1{fill:#636468;}.cls-2{fill:#74777d;}</style></defs><title>logo</title><path class="cls-1" d="M23,28.4l-5.69.19L17,26.75c-.19.16-.43.35-.74.58a10.09,10.09,0,0,1-1.73,1,5.6,5.6,0,0,1-2.36.6A4.09,4.09,0,0,1,9,27.72a4.11,4.11,0,0,1-.89-3.29q.42-4.66,7.29-4.67h2l.13-1.56c.13-1.41-.54-2.12-2-2.12a8,8,0,0,0-1.3.11,8.36,8.36,0,0,0-1,.23l-.29.09-.6,1.84H9.76l.17-4.19A21,21,0,0,1,16.24,13c2.18,0,3.68.43,4.5,1.26s1.15,2.29,1,4.35l-.62,7,2.11.51ZM12.23,24c-.1,1.13.42,1.7,1.54,1.7a3.32,3.32,0,0,0,1.49-.41,6.24,6.24,0,0,0,1.26-.84l.46-.4.17-1.89H15.52a5.12,5.12,0,0,0-2.43.44A1.69,1.69,0,0,0,12.23,24Z"/><path class="cls-1" d="M40.46,28.4l-6,.19-.13-1.5a6.48,6.48,0,0,1-4.48,1.79,4.68,4.68,0,0,1-4.24-2,8.77,8.77,0,0,1-1-5.58,9.3,9.3,0,0,1,2.59-6.16A8.68,8.68,0,0,1,33.45,13a6,6,0,0,1,1.84.29l.32-3.6-2.24-.56.2-2.27,6.52-.22L38.42,25.57l2.24.56ZM34.35,24,35,16.7a4.33,4.33,0,0,0-2.2-.42q-3.28,0-3.72,4.81c-.26,3,.53,4.48,2.36,4.48A3.08,3.08,0,0,0,33,25.15a3.77,3.77,0,0,0,1.06-.8Z"/><path class="cls-1" d="M57.87,28.4l-6,.19-.13-1.5a6.46,6.46,0,0,1-4.48,1.79,4.65,4.65,0,0,1-4.23-2,8.76,8.76,0,0,1-1-5.58,9.35,9.35,0,0,1,2.59-6.16A8.69,8.69,0,0,1,50.87,13a6,6,0,0,1,1.84.29L53,9.71l-2.24-.56L51,6.88l6.52-.22L55.83,25.57l2.24.56ZM51.76,24l.64-7.25a4.31,4.31,0,0,0-2.19-.42q-3.3,0-3.72,4.81c-.27,3,.52,4.48,2.35,4.48a3.05,3.05,0,0,0,1.54-.42,3.63,3.63,0,0,0,1.06-.8Z"/><path class="cls-2" d="M60.58,13.53l6-.22.08,1.95c.17-.17.4-.38.69-.62a10.22,10.22,0,0,1,1.53-1,4.08,4.08,0,0,1,2-.63,7,7,0,0,1,1.32.13,4.89,4.89,0,0,1,.94.27l.28.11-.71,5.38H70.13l-.22-2.4a3.58,3.58,0,0,0-1.55.39,5.64,5.64,0,0,0-1.25.8l-.43.39L66,25.62l2.66.71-.2,2.26H59.25l.2-2.26,2.35-.71.82-9.26-2.24-.56Z"/><path class="cls-2" d="M87.69,21.8l-9.51.09A3.84,3.84,0,0,0,79,24.6a2.93,2.93,0,0,0,2.31,1,8.91,8.91,0,0,0,2.29-.33,10.62,10.62,0,0,0,1.92-.67l.72-.34,1,2.27c-.23.17-.54.39-1,.65a14.07,14.07,0,0,1-2.38,1.06,9.82,9.82,0,0,1-3.41.67q-3.65,0-5.37-2a7.31,7.31,0,0,1-1.4-5.65,9.24,9.24,0,0,1,2.56-6A7.88,7.88,0,0,1,82.11,13a5.83,5.83,0,0,1,4.68,1.79,6.3,6.3,0,0,1,1.26,4.87Zm-6.16-5.46a2.68,2.68,0,0,0-2,.79,4.1,4.1,0,0,0-1.09,2.12h5.15C83.79,17.31,83.1,16.34,81.53,16.34Z"/><path class="cls-2" d="M90,13.53l6-.22,0,1.95c.22-.17.52-.37.88-.61a16.55,16.55,0,0,1,2-1,6.7,6.7,0,0,1,2.59-.61,3.52,3.52,0,0,1,3,1.35,5.31,5.31,0,0,1,.77,3.69l-.66,7.5,1,.37.91.34-.2,2.26H98.61l.2-2.26,1.58-.71.6-6.85a2.33,2.33,0,0,0-.38-1.63,1.61,1.61,0,0,0-1.36-.63,3.37,3.37,0,0,0-1.6.41,5.06,5.06,0,0,0-1.2.8l-.41.4-.66,7.5,1.42.71-.2,2.26H88.67l.2-2.26,2.27-.71L92,16.36,89.8,15.8Z"/><path class="cls-2" d="M123.05,28.4l-5.69.19L117,26.75c-.19.16-.44.35-.74.58a10.09,10.09,0,0,1-1.73,1,5.6,5.6,0,0,1-2.36.6A4.09,4.09,0,0,1,109,27.72a4.11,4.11,0,0,1-.89-3.29q.42-4.66,7.29-4.67h2l.14-1.56c.13-1.41-.55-2.12-2-2.12a7.83,7.83,0,0,0-1.29.11,8.36,8.36,0,0,0-1,.23l-.29.09-.6,1.84h-2.57l.17-4.19A21,21,0,0,1,116.3,13c2.18,0,3.68.43,4.5,1.26s1.15,2.29,1,4.35l-.62,7,2.11.51ZM112.29,24c-.1,1.13.42,1.7,1.54,1.7a3.32,3.32,0,0,0,1.49-.41,6.24,6.24,0,0,0,1.26-.84l.46-.4.17-1.89h-1.63a5.12,5.12,0,0,0-2.43.44A1.69,1.69,0,0,0,112.29,24Z"/><path class="cls-2" d="M126.26,6.88l6.64-.22-1.68,19,2.66.71-.2,2.26h-9.34l.2-2.26,2.35-.71L128.3,9.71l-2.24-.56Z"/><path class="cls-2" d="M136.24,13.53l6.52-.22-1.09,12.31,1.94.71-.2,2.26H134.9l.2-2.26,2.36-.71.82-9.26L136,15.8Zm2.18-4.89a2.69,2.69,0,0,1,2.68-2.55c1.61,0,2.34.85,2.18,2.55a2.69,2.69,0,0,1-.89,1.88,2.6,2.6,0,0,1-1.74.69,2.23,2.23,0,0,1-1.76-.66A2.44,2.44,0,0,1,138.42,8.64Z"/><path class="cls-2" d="M146.25,13.53l5.95-.22,0,1.95c.22-.17.52-.37.88-.61a15.8,15.8,0,0,1,2-1,6.7,6.7,0,0,1,2.59-.61,3.54,3.54,0,0,1,3.05,1.35,5.31,5.31,0,0,1,.77,3.69l-.66,7.5c.24.08.58.2,1,.37l.92.34-.2,2.26h-7.73l.2-2.26,1.58-.71.6-6.85a2.33,2.33,0,0,0-.38-1.63,1.61,1.61,0,0,0-1.36-.63,3.37,3.37,0,0,0-1.6.41,5.06,5.06,0,0,0-1.2.8l-.41.4-.67,7.5,1.43.71-.2,2.26h-7.93l.2-2.26,2.27-.71.81-9.26-2.15-.56Z"/></svg>