<svg id="Layer_1" data-name="Layer 1" xmlns="http://www.w3.org/2000/svg" viewBox="0 0 170.08 113.39"><defs><style>.cls-1{fill:#1d1d1b;}</style></defs><title>basket</title><path class="cls-1" d="M69,67v-.25c0-.16,0-.31,0-.46s0-.42,0-.57-.14-.25-.19-.34A5.3,5.3,0,0,1,68.28,64c0-.13-.06-.26-.08-.38v0l0,0a3.92,3.92,0,0,1-.15-.42,3.11,3.11,0,0,1-.2-.41H18.4l-.87,4.76H69Z"/><path class="cls-1" d="M109.7,62.7H98.48l-.81.46a14.69,14.69,0,0,1-5.93,1.67,18,18,0,0,1,5.61,2.63h45.32l.79-4.76Z"/><polygon class="cls-1" points="20.37 51.14 24.4 28.15 30.1 28.15 26.91 46.34 33.63 46.34 32.78 51.14 20.37 51.14"/><polygon class="cls-1" points="35.67 51.14 39.71 28.15 45.41 28.15 41.37 51.14 35.67 51.14"/><polygon class="cls-1" points="44.5 51.14 48.53 28.15 62.98 28.15 62.14 32.95 53.38 32.95 52.63 37.14 60.23 37.14 59.42 41.81 51.83 41.81 51.04 46.34 59.79 46.34 58.95 51.14 44.5 51.14"/><path class="cls-1" d="M61.84,51.14l4-23h8a17.69,17.69,0,0,1,3.48.3,5.05,5.05,0,0,1,2.5,1.2,4.26,4.26,0,0,1,1.24,2.44,11,11,0,0,1-.15,3.8,12.7,12.7,0,0,1-1.13,3.61,6.63,6.63,0,0,1-2,2.35A7.4,7.4,0,0,1,75,43.07a17.56,17.56,0,0,1-3.59.33H68.9l-1.36,7.74ZM72,38.74a3.57,3.57,0,0,0,2.2-.58,3.92,3.92,0,0,0,1.07-2.4c.25-1.42.05-2-.16-2.26A2.5,2.5,0,0,0,73.19,33H70.73l-1,5.79Z"/><path class="cls-1" d="M89.51,51.14l-.21-4.21H84.13l-1.59,4.21H76.62l10-23h6.74l2,23Zm-.45-8.94-.2-7.3-2.81,7.3Z"/><polygon class="cls-1" points="85.73 26.78 87.2 22.92 111.31 22.92 85.73 26.78"/><path class="cls-1" d="M100.37,51.54a12.47,12.47,0,0,1-1.73-.12c-.55-.08-1.08-.18-1.56-.3l-.43-.1.85-4.83.51.17a8.31,8.31,0,0,0,1.09.25,6.83,6.83,0,0,0,1.31.13c.82,0,1.17-.17,1.31-.32a2.47,2.47,0,0,0,.54-1.27L104.4,33h-3.23l.85-4.8h8.92l-3,17.11a18,18,0,0,1-.66,2.63,5.08,5.08,0,0,1-1.25,2,5.2,5.2,0,0,1-2.21,1.23A12.45,12.45,0,0,1,100.37,51.54Z"/><path class="cls-1" d="M121.23,51.14l-.2-4.21h-5.17l-1.6,4.21h-5.92l10-23h6.74l2,23Zm-.44-8.94-.2-7.3-2.81,7.3Z"/><path class="cls-1" d="M147.58,30.63l12.87-2.89h-20a10.29,10.29,0,0,0-6.31,1.8,7.81,7.81,0,0,0-2.87,5,8.23,8.23,0,0,0,0,2.92,4,4,0,0,0,1,2.09,5.59,5.59,0,0,0,2,1.32,14,14,0,0,0,2.83.75,20.65,20.65,0,0,1,2.21.52,3.43,3.43,0,0,1,1.1.51.82.82,0,0,1,.34.5,2.85,2.85,0,0,1,0,.92,3.38,3.38,0,0,1-1,2.12,4,4,0,0,1-2.43.58,3,3,0,0,1-2.08-.55,2.42,2.42,0,0,1-.24-2l.1-.55h-5.7l-.07.38a10.21,10.21,0,0,0-.12,3.35,4.43,4.43,0,0,0,1.18,2.43,5.43,5.43,0,0,0,2.5,1.36,14.84,14.84,0,0,0,3.75.4,16.26,16.26,0,0,0,3.54-.36,8.46,8.46,0,0,0,2.92-1.26,7.23,7.23,0,0,0,2.14-2.32,10.19,10.19,0,0,0,1.2-3.47,8.28,8.28,0,0,0,.08-2.55,3.61,3.61,0,0,0-.95-2,5.69,5.69,0,0,0-2.13-1.3,18.39,18.39,0,0,0-3.36-.84,12.47,12.47,0,0,1-1.89-.44,2.35,2.35,0,0,1-.94-.52,1.1,1.1,0,0,1-.31-.66,3.72,3.72,0,0,1,.06-1.12,2.74,2.74,0,0,1,.84-1.63,3.27,3.27,0,0,1,2.1-.54c1.18,0,1.69.26,1.9.48a1.8,1.8,0,0,1,.22,1.62l-.11.55h5.71l.07-.39a9.82,9.82,0,0,0,.1-3.16A4.73,4.73,0,0,0,147.58,30.63Z"/><path class="cls-1" d="M15.86,77.53h4.55a8,8,0,0,1,2,.2,2.55,2.55,0,0,1,1.15.59,1.72,1.72,0,0,1,.46,1,4.74,4.74,0,0,1-.07,1.47,3.92,3.92,0,0,1-.71,1.75,3.36,3.36,0,0,1-1.21,1c1.15.48,1.58,1.5,1.31,3.06a5.23,5.23,0,0,1-.5,1.49,3.36,3.36,0,0,1-.93,1.12,4.17,4.17,0,0,1-1.43.71,7,7,0,0,1-2,.26H13.63ZM18.75,88A2,2,0,0,0,20,87.66a1.88,1.88,0,0,0,.6-1.22c.11-.64,0-1.06-.23-1.27a1.73,1.73,0,0,0-1.11-.31H17.3L16.76,88Zm-.55-8.24-.53,2.95h1.72a1.85,1.85,0,0,0,1.19-.33,2,2,0,0,0,.55-1.16A1.46,1.46,0,0,0,21,80.14a1.2,1.2,0,0,0-1-.38Z"/><path class="cls-1" d="M33.44,87.81H30l-.92,2.42H26.29l5.53-12.7h3.45l1.12,12.7H33.56Zm-2.52-2.19h2.4l-.16-5.72h0Z"/><path class="cls-1" d="M47.25,86.46a1.92,1.92,0,0,0,0-.63.75.75,0,0,0-.29-.45,2.37,2.37,0,0,0-.73-.34,11.3,11.3,0,0,0-1.3-.3,7.35,7.35,0,0,1-1.58-.42,3.09,3.09,0,0,1-1.07-.69,2.06,2.06,0,0,1-.54-1.08,4.24,4.24,0,0,1,0-1.58,4.18,4.18,0,0,1,1.55-2.69,5.77,5.77,0,0,1,3.59-1,8.85,8.85,0,0,1,2,.2,2.83,2.83,0,0,1,1.28.66,2,2,0,0,1,.57,1.16,5.42,5.42,0,0,1-.05,1.73H48a1.25,1.25,0,0,0-.19-1.17,1.81,1.81,0,0,0-1.29-.36,2.09,2.09,0,0,0-1.38.38A1.8,1.8,0,0,0,44.55,81a2.73,2.73,0,0,0,0,.73.92.92,0,0,0,.26.53,1.61,1.61,0,0,0,.64.37,6.51,6.51,0,0,0,1.14.26,10.9,10.9,0,0,1,1.88.47,2.94,2.94,0,0,1,1.12.69A1.78,1.78,0,0,1,50,85,4.45,4.45,0,0,1,50,86.42a5.66,5.66,0,0,1-.65,1.9,4,4,0,0,1-1.15,1.25,4.71,4.71,0,0,1-1.6.69,9.18,9.18,0,0,1-2,.2,8.26,8.26,0,0,1-2.09-.22,2.88,2.88,0,0,1-1.32-.71,2.26,2.26,0,0,1-.6-1.25,5.33,5.33,0,0,1,.07-1.84H43.4a1.58,1.58,0,0,0,.21,1.4,1.91,1.91,0,0,0,1.39.4,2.52,2.52,0,0,0,1.56-.39A2.21,2.21,0,0,0,47.25,86.46Z"/><path class="cls-1" d="M60.2,83.66l2.85,6.57H59.93l-2.15-5.39-.94,5.39H54.1l2.23-12.7h2.74l-.92,5.2L62,77.53h3.14Z"/><path class="cls-1" d="M69.28,77.53h7.78l-.39,2.23h-5l-.53,2.95h4.37l-.37,2.15H70.73L70.18,88h5l-.39,2.23H67.06Z"/><path class="cls-1" d="M83.39,79.76H80.57L81,77.53h8.36l-.39,2.23H86.12L84.28,90.23H81.55Z"/><path class="cls-1" d="M93.52,77.53h4.55a8.06,8.06,0,0,1,2,.2,2.46,2.46,0,0,1,1.14.59,1.73,1.73,0,0,1,.47,1,5.11,5.11,0,0,1-.08,1.47,3.91,3.91,0,0,1-.7,1.75,3.44,3.44,0,0,1-1.21,1c1.14.48,1.58,1.5,1.3,3.06a5.22,5.22,0,0,1-.49,1.49,3.36,3.36,0,0,1-.93,1.12A4.22,4.22,0,0,1,98.1,90a6.93,6.93,0,0,1-2,.26H91.3ZM96.41,88a2,2,0,0,0,1.24-.34,1.93,1.93,0,0,0,.6-1.22c.1-.64,0-1.06-.23-1.27a1.76,1.76,0,0,0-1.12-.31H95L94.42,88Zm-.54-8.24-.53,2.95h1.72a1.82,1.82,0,0,0,1.18-.33,2,2,0,0,0,.56-1.16,1.41,1.41,0,0,0-.15-1.08,1.16,1.16,0,0,0-1-.38Z"/><path class="cls-1" d="M106.14,81.63a5.25,5.25,0,0,1,1.68-3.27,5.76,5.76,0,0,1,3.75-1.06c1.66,0,2.79.35,3.4,1a3.87,3.87,0,0,1,.53,3.29l-.78,4.5A5.21,5.21,0,0,1,113,89.4a5.86,5.86,0,0,1-3.77,1.06c-1.64,0-2.77-.35-3.37-1.06a3.85,3.85,0,0,1-.52-3.27Zm6.64-.07a2,2,0,0,0-.19-1.55,1.71,1.71,0,0,0-1.41-.49,2.3,2.3,0,0,0-1.55.48,2.46,2.46,0,0,0-.73,1.54l-.82,4.67a1.91,1.91,0,0,0,.17,1.54,1.68,1.68,0,0,0,1.39.49,2.32,2.32,0,0,0,1.58-.49,2.69,2.69,0,0,0,.74-1.54Z"/><path class="cls-1" d="M121,77.53h2.73L121.91,88h3.86l-.39,2.23h-6.6Z"/><path class="cls-1" d="M136.44,86.46a1.92,1.92,0,0,0,0-.63.75.75,0,0,0-.29-.45,2.37,2.37,0,0,0-.73-.34,11.3,11.3,0,0,0-1.3-.3,7.35,7.35,0,0,1-1.58-.42,3.09,3.09,0,0,1-1.07-.69,2.06,2.06,0,0,1-.54-1.08A4.46,4.46,0,0,1,131,81a4.22,4.22,0,0,1,1.55-2.69,5.77,5.77,0,0,1,3.59-1,8.85,8.85,0,0,1,2,.2,2.77,2.77,0,0,1,1.28.66,2,2,0,0,1,.57,1.16,5.42,5.42,0,0,1-.05,1.73h-2.74a1.28,1.28,0,0,0-.19-1.17,1.81,1.81,0,0,0-1.29-.36,2.09,2.09,0,0,0-1.38.38,1.8,1.8,0,0,0-.58,1.09,2.73,2.73,0,0,0,0,.73.92.92,0,0,0,.26.53,1.61,1.61,0,0,0,.64.37,6.51,6.51,0,0,0,1.14.26,10.9,10.9,0,0,1,1.88.47,2.94,2.94,0,0,1,1.12.69,1.78,1.78,0,0,1,.48,1,4.45,4.45,0,0,1-.05,1.39,5.66,5.66,0,0,1-.65,1.9,4,4,0,0,1-1.15,1.25,4.71,4.71,0,0,1-1.6.69,9.18,9.18,0,0,1-2,.2,8.26,8.26,0,0,1-2.09-.22,2.88,2.88,0,0,1-1.32-.71,2.26,2.26,0,0,1-.6-1.25,5.33,5.33,0,0,1,.07-1.84h2.73a1.58,1.58,0,0,0,.21,1.4,1.92,1.92,0,0,0,1.39.4,2.54,2.54,0,0,0,1.56-.39A2.21,2.21,0,0,0,136.44,86.46Z"/><path class="cls-1" d="M70.57,64.42A2.46,2.46,0,0,1,71,65.55a7.59,7.59,0,0,1-.08,1.34c0,.46-.06.89-.08,1.35a2.8,2.8,0,0,0,1,2.06,8.94,8.94,0,0,0,1.33.87s.06.06.08.08c3.58,2.46,8.72,2,9.57,1.86a0,0,0,1,0,0,0,15.17,15.17,0,0,1-3.39-1.28s0-.05,0-.06a4.31,4.31,0,0,1,3.15-.35,37.12,37.12,0,0,0,7.19.78s0,0,0-.06a24.67,24.67,0,0,1-4.6-1.56,0,0,0,0,1,0-.06c1.88.43,6.85-.56,8.21-.67a0,0,0,0,0,0-.07c-1.21-.17-5.26-.2-7.27-1.24,0,0,0-.07,0-.06,1,.15,4.25-1.06,8.41-.51,0,0,0-.05,0-.07a21.45,21.45,0,0,0-8.07-1.79c-.28-.84-.05-2.42,2.13-2.81s4-.28,5.49-.88c0,0,0-.07,0-.07-4.62-.3-7.12-1.1-8.29-2.56-.18-.24,3.22.43,5.23-.09,0,0,0-.07,0-.07a28.4,28.4,0,0,1-5.29-1.67c-2-.69,3,.28,5.79-.26,0,0,0-.07,0-.07-4.78-.48-7-2.73-11.27-2.15-.32,0,.53-.76.21-.7a16.62,16.62,0,0,1-4,1.36,5.28,5.28,0,0,0-1.35.56,2.08,2.08,0,0,0-.61.42,2.19,2.19,0,0,0-.23.21,4.2,4.2,0,0,0-.33.49,2.87,2.87,0,0,0-.21.51.28.28,0,0,1-.19.22c-.22.08-.44.18-.65.27l-.75.37c-.14.07-.21.15-.09.31s0,0,0,0l-.12,0-1.11.37a5.8,5.8,0,0,0-1.17.58,1.88,1.88,0,0,0-.25.24.18.18,0,0,0,0,.23.78.78,0,0,1,.1.36c0,.21.09.42.14.63a.53.53,0,0,0,.18.29.14.14,0,0,1,0,.09A2.8,2.8,0,0,0,70,63a5.25,5.25,0,0,1,.13.57,3.44,3.44,0,0,0,.42.89m5.22,4c-.24.15-.51.27-.74.4a2.83,2.83,0,0,0-.69.5A1,1,0,0,0,74,70a1.13,1.13,0,0,0,.22.61l.07.12h-.11a.87.87,0,0,1-.22,0,1.27,1.27,0,0,1-.65-.38,2,2,0,0,1-.41-.61,6.6,6.6,0,0,1-.35-1,1,1,0,0,0-.08.46c-.09-.21-.19-.42-.29-.63a4.27,4.27,0,0,0,0,1.07,4.24,4.24,0,0,1-.67-1.28,3.44,3.44,0,0,1,0-1.11,3,3,0,0,1,.27-.91,6.11,6.11,0,0,0,.2,1.27c0-.08.1-.13.18-.11s.14.05.22.06a.47.47,0,0,0,.31,0c-.17,0-.13-.3-.13-.42a5.38,5.38,0,0,1,.07-.69,3.77,3.77,0,0,0,.64,1c.41.35.92.45,1.33.78,0,0,.31-.52.5-.1a3.62,3.62,0,0,1,.17-.56c.1,0,.09.19.16.28a.28.28,0,0,0,.22.07,2.24,2.24,0,0,0,1-.19c-.17.08-.26.26-.39.4a1.49,1.49,0,0,1-.41.33M71,62.86h-.12s-.11,0-.13,0,0,.09.09.11.17.45.21.63.11.42.16.62c0,0,.06.13,0,.17a3.24,3.24,0,0,1-1.06-1.72c0-.15-.16-.36.07-.4s.31.16.44.21A1.52,1.52,0,0,0,72,62.3a.37.37,0,0,1,.19-.09.44.44,0,0,1,.29.14,1.51,1.51,0,0,0,.81.21,1.75,1.75,0,0,1,1.26,1.28,2,2,0,0,0-1.16-.9,2.16,2.16,0,0,0-.67,0,.12.12,0,0,1,.11.09.42.42,0,0,1,0,.16,2.4,2.4,0,0,0,0,1.33,6,6,0,0,1-.55-.86c-.17-.3-.06-.74-.14-.81a5.08,5.08,0,0,0-.92,0H71m8.1,1.06c-.17.12-.32.68-.39.84a.23.23,0,0,0-.18-.22c-.36.32-.26.93-.49,1.36a1.3,1.3,0,0,1-.35.39,1.89,1.89,0,0,1-2.29-.06c-.21.4-.44.78-.65,1.19a5.27,5.27,0,0,0,.38-3.22,10,10,0,0,0-.79-1.41,1.68,1.68,0,0,0-.88-.65c-.34-.12-.74-.06-1-.27a.54.54,0,0,0-.41-.15.94.94,0,0,0-.28.15.74.74,0,0,1-.36.09c-.05,0-.25-.09-.28-.06a1.41,1.41,0,0,0,.35-.39c.28-.63.86-.67,1.43-.88.26-.1.53-.19.8-.27s.76-.21,1.15-.29a.66.66,0,0,1,.24,0c.14,0,.28,0,.42,0s.24,0,.33.25h0s0,.07,0,.08a.56.56,0,0,1-.17.09l-.2.1v0a6.15,6.15,0,0,0,.74.06,2.75,2.75,0,0,0,.75-.09.94.94,0,0,0,.5-.19s.24-.44.17-.44h-.52a1.4,1.4,0,0,0-.5,0,6.21,6.21,0,0,1,.7-.31.74.74,0,0,1,.28-.08c.12,0,.23,0,.35,0-.13-.13-.19-.51-.4-.53a1.7,1.7,0,0,0-.5.09,4.13,4.13,0,0,0-.5.15,3.22,3.22,0,0,0-.46.21c-.22.11-.35.32-.61.2s-.14-.29-.08-.44a1.72,1.72,0,0,1,.25-.35l-1,.57c-.36.21-.78.23-1.14.42a4,4,0,0,1-.57.33,4.54,4.54,0,0,0-.53.12,1.39,1.39,0,0,1-.49.19,3.27,3.27,0,0,1-.54,0,3.29,3.29,0,0,0-1.21.13,3.81,3.81,0,0,0,.45-.23c.18-.08.37-.14.56-.21l.55-.18a1.72,1.72,0,0,0,.49-.19c.06,0,.1-.12.16-.18s.23-.12.33-.22a1.37,1.37,0,0,1,.51-.32c.25-.09.54.06.74-.15.35-.38.47-1,1.07-1.16a1,1,0,0,1,.3,0,2.66,2.66,0,0,0,.63,0c.49-.05,1-.06,1.47-.11.28,0,.35-.09.51.11a4.12,4.12,0,0,1,.34.74,2.82,2.82,0,0,1,.22-.9l1.17.78a.29.29,0,0,1,.13.14.43.43,0,0,1,0,.11,2.78,2.78,0,0,0-.21,1.09c0,.07.16.69.24.68a.59.59,0,0,1-.44-.14,3.36,3.36,0,0,0,.14.61,3.76,3.76,0,0,0,.25.54c-.34-.58-1.44-.41-2-.4a1.35,1.35,0,0,0,.73,1.15c.23.13.47.22.71.33a1.24,1.24,0,0,0,.2.1c.08,0,.17-.07.23,0a.19.19,0,0,1,0,.1c.07.49.13,1,.19,1.47,0,0-.58-.36-.63-.36l-.07,0m2.75-6.15a4.89,4.89,0,0,0-1.38-1,8.41,8.41,0,0,0-3.07-.16,20.2,20.2,0,0,1,4.37-.69,3.87,3.87,0,0,1,1.44.21c.57.2,1.12.39,1.66.64a15.87,15.87,0,0,0-3.23-.1A13.19,13.19,0,0,1,83.78,58a4.07,4.07,0,0,0,2.29.86,5.34,5.34,0,0,1-4.18-1.09m6.72,4.47s-2.86,1.32-5.08-.06a6.74,6.74,0,0,0,3.66.11,5.87,5.87,0,0,1-3.11-1.95,11.4,11.4,0,0,0,4.53,1.9M78.78,71a.92.92,0,0,0-.16.29.81.81,0,0,0,.12.71c.2.28.59.42.75.73a16.31,16.31,0,0,1-2.24-.74c-.85-.25-1.72-.46-2.56-.74a5.34,5.34,0,0,0,2.28.25,11.65,11.65,0,0,0,2.13-.73.9.9,0,0,0-.32.23m5.48-1.13a10.79,10.79,0,0,1-3-1.16c-.89-.48-1.88-1-2.17-2a1.62,1.62,0,0,1,.76.05,2.41,2.41,0,0,1-.33-1.25l.8.38c-.06-.36-.13-.71-.19-1.07.06.33,1,.44,1.23.51a8.72,8.72,0,0,1,1.23.6c2.33,1.16,3.71.65,5.33,1s3.37.45,3.45.46a14.16,14.16,0,0,1-3.61.28c-1.26-.17-2.47-.21-3.32-.32a6.59,6.59,0,0,1-3.27-1.39A3.08,3.08,0,0,0,81.42,67l-.7-.12a7.27,7.27,0,0,0,1.76,1.36,9.85,9.85,0,0,0,3.29,1l3.59.56a1.94,1.94,0,0,0-.59,0,14.83,14.83,0,0,1-3,.16,10.22,10.22,0,0,1-1.46-.18"/></svg>