<svg id="Layer_1" data-name="Layer 1" xmlns="http://www.w3.org/2000/svg" viewBox="0 0 170.08 113.39"><defs><style>.cls-1{fill:#1d1d1b;}.cls-2{fill:#fff;}</style></defs><title>reformu</title><path class="cls-1" d="M8.79,29.68H49.31A5.28,5.28,0,0,1,54.58,35V74.54a5.28,5.28,0,0,1-5.28,5.28H8.78a5.27,5.27,0,0,1-5.27-5.27V35A5.28,5.28,0,0,1,8.79,29.68Z"/><path class="cls-2" d="M41.81,46.23,14.45,73.69l-4.36-4.34L37.4,41.94H16V35.79H47.93L48,67.65H41.86Z"/><path class="cls-1" d="M81,50.63H77.84c-.28,0-.39-.26-.52-.52l-3.73-6.92h-.36c-.67,0-1.71-.08-2.31-.1v7a.5.5,0,0,1-.49.52H67.84a.52.52,0,0,1-.52-.52V32.28c0-.52.31-.7.83-.78a35,35,0,0,1,5.08-.34c4,0,7.46,1.43,7.46,5.86v.24a5.25,5.25,0,0,1-3.5,5.28l4.07,7.57a.36.36,0,0,1,0,.21A.28.28,0,0,1,81,50.63ZM77.12,37c0-1.94-1.3-2.77-3.89-2.77-.54,0-1.84,0-2.31.1v5.83c.42,0,1.87.08,2.31.08,2.67,0,3.89-.72,3.89-3Z"/><path class="cls-1" d="M94.88,44.51H86.43v.08c0,1.5.63,3.29,3.11,3.29,1.89,0,3.68-.15,4.77-.26h.08c.26,0,.47.13.47.39v1.71c0,.42-.08.6-.55.67a22.36,22.36,0,0,1-5,.45c-2.6,0-6.28-1.4-6.28-6.51V42.41c0-4,2.26-6.58,6.22-6.58s6.17,2.72,6.17,6.58v1.45C95.4,44.28,95.24,44.51,94.88,44.51ZM92,42c0-2-1.11-3.19-2.72-3.19S86.46,39.92,86.46,42v.11H92Z"/><path class="cls-1" d="M105.79,33.19h-1.16c-1.25,0-1.53.28-1.53,1.55V36h2.49a.53.53,0,0,1,.52.52v1.55a.51.51,0,0,1-.52.5H103.1v11.5a.55.55,0,0,1-.52.55h-2.36a.57.57,0,0,1-.54-.55V38.58l-2.31-.37c-.28-.05-.51-.2-.51-.49V36.53a.52.52,0,0,1,.51-.52h2.31V34.74c0-3.34,1.79-4.15,4.48-4.15a7.18,7.18,0,0,1,1.56.21c.2.05.46.18.46.42v1.53A.39.39,0,0,1,105.79,33.19Z"/><path class="cls-1" d="M114,50.84c-4.07,0-6.2-2.75-6.2-6.46v-2.1c0-3.7,2.13-6.45,6.2-6.45s6.19,2.75,6.19,6.45v2.1C120.15,48.09,118,50.84,114,50.84Zm2.77-8.56c0-2.12-1-3.5-2.77-3.5s-2.77,1.38-2.77,3.5v2.1c0,2.13,1,3.5,2.77,3.5s2.77-1.37,2.77-3.5Z"/><path class="cls-1" d="M130,38.73a7.25,7.25,0,0,0-3.58.94V50.08a.54.54,0,0,1-.52.55h-2.38a.54.54,0,0,1-.52-.55V36.53a.52.52,0,0,1,.52-.52h2.25a.52.52,0,0,1,.52.52v.54A6.06,6.06,0,0,1,130,35.83a.51.51,0,0,1,.51.52v1.86A.51.51,0,0,1,130,38.73Z"/><path class="cls-1" d="M150.86,50.63h-2.38a.54.54,0,0,1-.52-.55V41.27c0-2-.41-2.51-1.86-2.51a5.7,5.7,0,0,0-2.42.64,14,14,0,0,1,.11,1.87v8.81a.54.54,0,0,1-.52.55h-2.39a.54.54,0,0,1-.51-.55V41.27c0-2-.34-2.51-1.79-2.51a5.72,5.72,0,0,0-2.38.85V50.08a.55.55,0,0,1-.52.55h-2.39a.55.55,0,0,1-.52-.55V36.53a.53.53,0,0,1,.52-.52h2.26a.52.52,0,0,1,.51.52v.54a6.52,6.52,0,0,1,3.71-1.24,3.64,3.64,0,0,1,3,1.17,8.09,8.09,0,0,1,4.28-1.17c3.52,0,4.3,2.41,4.3,5.44v8.81A.54.54,0,0,1,150.86,50.63Z"/><path class="cls-1" d="M166.05,50.63h-2.38a.52.52,0,0,1-.52-.52v-.6a6.7,6.7,0,0,1-4.07,1.3,4.42,4.42,0,0,1-3.19-1.09c-1-1-1.29-2.56-1.29-4.72V36.56a.54.54,0,0,1,.51-.55h2.39a.55.55,0,0,1,.52.55V45c0,1.3.1,2,.59,2.49a2.26,2.26,0,0,0,1.61.47,7.33,7.33,0,0,0,2.93-1V36.56a.54.54,0,0,1,.52-.55h2.38a.54.54,0,0,1,.52.55V50.11A.52.52,0,0,1,166.05,50.63Z"/><path class="cls-1" d="M73.23,71.35c-.67,0-1.71-.08-2.31-.1V78a.5.5,0,0,1-.49.52H67.84a.52.52,0,0,1-.52-.52V60.18c0-.52.31-.7.83-.78a35.16,35.16,0,0,1,5.08-.33c4,0,7.46,1.39,7.46,6v.23C80.69,69.87,77.22,71.35,73.23,71.35Zm3.89-6.3c0-2.18-1.3-3-3.89-3-.54,0-1.84.06-2.31.11v6.17c.42,0,1.87.08,2.31.08,2.8,0,3.89-1,3.89-3.12Z"/><path class="cls-1" d="M93.4,78.53H91.2a.52.52,0,0,1-.52-.52V77.6A7.1,7.1,0,0,1,87,78.74c-2.15,0-4.48-.84-4.48-4.33V74.3c0-3,1.82-4.48,6.32-4.48H90.5V68.68c0-1.69-.75-2.1-2.29-2.1a39.16,39.16,0,0,0-4.22.21h-.13c-.26,0-.46-.08-.46-.44V64.69c0-.29.15-.47.49-.55a22.93,22.93,0,0,1,4.32-.41c3.69,0,5.71,1.63,5.71,5V78A.53.53,0,0,1,93.4,78.53ZM90.5,72.1H88.86c-2.35,0-2.87.75-2.87,2.2v.11c0,1.27.57,1.6,1.86,1.6a5.72,5.72,0,0,0,2.65-.72Z"/><path class="cls-1" d="M104.17,66.63a7.35,7.35,0,0,0-3.58.93V78a.54.54,0,0,1-.52.55H97.69a.54.54,0,0,1-.52-.55V64.43a.52.52,0,0,1,.52-.52h2.25a.52.52,0,0,1,.52.52V65a6.06,6.06,0,0,1,3.71-1.24.52.52,0,0,1,.52.52v1.86A.52.52,0,0,1,104.17,66.63Z"/><path class="cls-1" d="M115.25,78.55a10.27,10.27,0,0,1-1.77.19c-2.92,0-4.12-.65-4.12-4.12V66.48l-2.43-.37a.55.55,0,0,1-.52-.52V64.43a.52.52,0,0,1,.52-.52h2.43V61.79a.56.56,0,0,1,.52-.52l2.41-.42h.11a.37.37,0,0,1,.41.39v2.67h2.33a.52.52,0,0,1,.52.52V66a.52.52,0,0,1-.52.52h-2.33v8.14c0,1.29.08,1.44,1,1.44h1.38c.33,0,.54.13.54.39v1.64C115.74,78.35,115.59,78.5,115.25,78.55Z"/><path class="cls-1" d="M121.08,62h-2.51a.54.54,0,0,1-.54-.52V59.17a.53.53,0,0,1,.54-.52h2.51a.52.52,0,0,1,.52.52v2.28A.52.52,0,0,1,121.08,62ZM121,78.53h-2.39a.55.55,0,0,1-.52-.55V64.43a.52.52,0,0,1,.52-.52H121a.52.52,0,0,1,.52.52V78A.55.55,0,0,1,121,78.53Z"/><path class="cls-1" d="M124.47,83.71a9.5,9.5,0,0,1-1.72-.16c-.33,0-.49-.2-.49-.46V81.4c0-.25.21-.41.54-.41H124c.83,0,.91-.34.91-1.37V64.43a.52.52,0,0,1,.52-.52h2.38a.52.52,0,0,1,.52.52V79.62C128.3,82.78,126.88,83.71,124.47,83.71ZM127.83,62h-2.48a.52.52,0,0,1-.52-.52V59.17a.52.52,0,0,1,.52-.52h2.48a.54.54,0,0,1,.55.52v2.28A.55.55,0,0,1,127.83,62Z"/><path class="cls-1" d="M141.74,78.53h-2.2A.52.52,0,0,1,139,78V77.6a7.07,7.07,0,0,1-3.65,1.14c-2.15,0-4.49-.84-4.49-4.33V74.3c0-3,1.81-4.48,6.33-4.48h1.63V68.68c0-1.69-.76-2.1-2.28-2.1a39.22,39.22,0,0,0-4.23.21h-.13c-.26,0-.46-.08-.46-.44V64.69c0-.29.15-.47.49-.55a23.05,23.05,0,0,1,4.33-.41c3.68,0,5.7,1.63,5.7,5V78A.52.52,0,0,1,141.74,78.53Zm-2.9-6.43h-1.63c-2.36,0-2.88.75-2.88,2.2v.11c0,1.27.57,1.6,1.87,1.6a5.75,5.75,0,0,0,2.64-.72Z"/></svg>