<svg id="Layer_1" data-name="Layer 1" xmlns="http://www.w3.org/2000/svg" viewBox="0 0 253.99 144.87"><defs><style>.cls-1{fill:#1b181c;}</style></defs><title>apiconn</title><path class="cls-1" d="M88.29,67.07v2h.06a4.82,4.82,0,0,1,2-1.87,6.22,6.22,0,0,1,2.71-.58,6.89,6.89,0,0,1,3.22.7,6.61,6.61,0,0,1,2.24,1.88,8,8,0,0,1,1.32,2.71,12,12,0,0,1,.43,3.24,10.74,10.74,0,0,1-.43,3.07,8,8,0,0,1-1.3,2.61,6.49,6.49,0,0,1-2.18,1.81,6.6,6.6,0,0,1-3.06.68,6.19,6.19,0,0,1-2.72-.6,5.19,5.19,0,0,1-2-1.77H88.5v7.52H84.14V67.07ZM94,79.65a3.48,3.48,0,0,0,1.17-1.12,4.84,4.84,0,0,0,.63-1.61,9.72,9.72,0,0,0,.18-1.87,8.31,8.31,0,0,0-.2-1.87,4.84,4.84,0,0,0-.66-1.65,3.63,3.63,0,0,0-1.18-1.16,3.28,3.28,0,0,0-1.77-.45,3.33,3.33,0,0,0-1.79.45,3.57,3.57,0,0,0-1.17,1.15,4.85,4.85,0,0,0-.63,1.62,10,10,0,0,0-.18,1.91,8.37,8.37,0,0,0,.2,1.87,4.85,4.85,0,0,0,.64,1.61,3.42,3.42,0,0,0,1.18,1.12,3.48,3.48,0,0,0,1.78.43A3.43,3.43,0,0,0,94,79.65Z"/><polygon class="cls-1" points="101.96 64.61 103.22 61.02 107.58 61.02 106.32 64.61 101.96 64.61"/><rect class="cls-1" x="101.96" y="67.07" width="4.36" height="15.87"/><path class="cls-1" d="M110.53,72a14,14,0,0,1,.7-4.5,10.6,10.6,0,0,1,2-3.65,9.34,9.34,0,0,1,3.28-2.44,10.39,10.39,0,0,1,4.4-.89,10.14,10.14,0,0,1,3.35.5,8.61,8.61,0,0,1,2.38,1.26,7.43,7.43,0,0,1,1.58,1.65,9.32,9.32,0,0,1,.94,1.67,8.32,8.32,0,0,1,.44,1.35q.12.57.12.63h-1.34a6.47,6.47,0,0,0-.9-2.47,6.8,6.8,0,0,0-1.68-1.86,7.71,7.71,0,0,0-2.26-1.17,8.77,8.77,0,0,0-2.63-.4,8.59,8.59,0,0,0-3.83.83,8.74,8.74,0,0,0-2.86,2.23A9.93,9.93,0,0,0,112.49,68a13.35,13.35,0,0,0,0,8,9.93,9.93,0,0,0,1.78,3.27,8.58,8.58,0,0,0,2.86,2.22,8.46,8.46,0,0,0,3.83.83,6.93,6.93,0,0,0,3-.66,8.2,8.2,0,0,0,2.44-1.75,8.67,8.67,0,0,0,1.67-2.51,8.57,8.57,0,0,0,.72-3h1.35a10.81,10.81,0,0,1-1,3.63,10.18,10.18,0,0,1-2,2.87,8.83,8.83,0,0,1-2.81,1.88,8.65,8.65,0,0,1-3.41.68,10.54,10.54,0,0,1-4.4-.89,9.34,9.34,0,0,1-3.28-2.44,10.6,10.6,0,0,1-2-3.65A14.14,14.14,0,0,1,110.53,72Z"/><path class="cls-1" d="M131.8,75.05a10.59,10.59,0,0,1,.47-3.18,8,8,0,0,1,1.4-2.62,6.67,6.67,0,0,1,2.27-1.8,7.63,7.63,0,0,1,6.21,0,6.76,6.76,0,0,1,2.27,1.8,7.84,7.84,0,0,1,1.39,2.62,10.28,10.28,0,0,1,.48,3.18,10.44,10.44,0,0,1-.48,3.19,7.79,7.79,0,0,1-1.39,2.63,7,7,0,0,1-2.27,1.78,7.63,7.63,0,0,1-6.21,0,6.86,6.86,0,0,1-2.27-1.78,8,8,0,0,1-1.4-2.63A10.75,10.75,0,0,1,131.8,75.05Zm1.16,0a9.52,9.52,0,0,0,.4,2.72,7.39,7.39,0,0,0,1.17,2.31A5.47,5.47,0,0,0,139,82.29a5.49,5.49,0,0,0,2.61-.6,5.6,5.6,0,0,0,1.91-1.61,7.17,7.17,0,0,0,1.16-2.31,9.45,9.45,0,0,0,0-5.44A7.32,7.32,0,0,0,143.56,70a5.83,5.83,0,0,0-1.91-1.61,6,6,0,0,0-5.22,0,5.79,5.79,0,0,0-1.9,1.61,7.56,7.56,0,0,0-1.17,2.32A9.47,9.47,0,0,0,133,75.05Z"/><path class="cls-1" d="M148.28,67.16h1.16v3.38h.06a5,5,0,0,1,.88-1.58,5.75,5.75,0,0,1,1.32-1.19,5.91,5.91,0,0,1,1.64-.73,6.59,6.59,0,0,1,1.81-.25,7,7,0,0,1,2.35.34,4.44,4.44,0,0,1,1.58.89,4.22,4.22,0,0,1,1,1.24,5.47,5.47,0,0,1,.5,1.4,7.41,7.41,0,0,1,.19,1.36c0,.44,0,.83,0,1.16v9.76h-1.16V73c0-.39,0-.88-.1-1.47a4.44,4.44,0,0,0-.54-1.71,3.8,3.8,0,0,0-1.35-1.39,4.55,4.55,0,0,0-2.5-.59,5.63,5.63,0,0,0-2.39.49A5.22,5.22,0,0,0,151,69.66a5.91,5.91,0,0,0-1.12,2.09,8.61,8.61,0,0,0-.39,2.65v8.54h-1.16Z"/><path class="cls-1" d="M164.48,67.16h1.17v3.38h.06a4.94,4.94,0,0,1,.87-1.58,5.59,5.59,0,0,1,1.33-1.19,5.78,5.78,0,0,1,1.64-.73,6.53,6.53,0,0,1,1.81-.25,7.07,7.07,0,0,1,2.35.34,4.53,4.53,0,0,1,1.58.89,4.19,4.19,0,0,1,1,1.24,5.51,5.51,0,0,1,.51,1.4A9.65,9.65,0,0,1,177,72c0,.44,0,.83,0,1.16v9.76h-1.17V73q0-.58-.09-1.47a4.44,4.44,0,0,0-.54-1.71,4,4,0,0,0-1.35-1.39,4.58,4.58,0,0,0-2.5-.59,5.71,5.71,0,0,0-2.4.49,5.31,5.31,0,0,0-1.78,1.37A6.07,6.07,0,0,0,166,71.75a8.93,8.93,0,0,0-.38,2.65v8.54h-1.17Z"/><path class="cls-1" d="M207.74,72a4.6,4.6,0,0,0-.53-1.84,4.11,4.11,0,0,0-1.16-1.32,5,5,0,0,0-1.64-.8,6.83,6.83,0,0,0-2-.28,5.52,5.52,0,0,0-2.61.6,5.76,5.76,0,0,0-1.9,1.6,7.29,7.29,0,0,0-1.17,2.27,8.91,8.91,0,0,0-.39,2.63,11.39,11.39,0,0,0,.36,2.94,6.86,6.86,0,0,0,1.14,2.35,5.31,5.31,0,0,0,1.9,1.55,6,6,0,0,0,2.67.55,5.61,5.61,0,0,0,2-.36,5.5,5.5,0,0,0,1.66-1,5.06,5.06,0,0,0,1.18-1.55,6.37,6.37,0,0,0,.62-2h1.16a7.58,7.58,0,0,1-.76,2.52,6.31,6.31,0,0,1-1.48,1.86,6.51,6.51,0,0,1-2,1.15,7.37,7.37,0,0,1-2.4.4,7.25,7.25,0,0,1-3.3-.69,6.27,6.27,0,0,1-2.24-1.86,8.09,8.09,0,0,1-1.29-2.69,11.83,11.83,0,0,1-.41-3.17,10.11,10.11,0,0,1,.47-3.14,7.7,7.7,0,0,1,1.4-2.57,6.44,6.44,0,0,1,2.27-1.75,7,7,0,0,1,3.1-.65,8.83,8.83,0,0,1,2.41.32,6.41,6.41,0,0,1,2,1,5,5,0,0,1,1.42,1.64,5.83,5.83,0,0,1,.68,2.32Z"/><path class="cls-1" d="M217.1,68.17h-3.44v11a4.12,4.12,0,0,0,.22,1.51,1.73,1.73,0,0,0,.65.84,2.43,2.43,0,0,0,1.08.36,11.26,11.26,0,0,0,1.46,0v1a11.17,11.17,0,0,1-1.74,0,3.43,3.43,0,0,1-1.49-.46,2.7,2.7,0,0,1-1-1.15,4.44,4.44,0,0,1-.32-2.12v-11h-2.91l.37-1h2.54V62.25h1.17v4.91h3.79Z"/><polygon class="cls-1" points="74.68 61.02 69.74 61.02 61.45 82.94 66.3 82.94 68.02 78.06 68.02 78.06 69.28 74.47 69.28 74.47 72.13 66.42 72.2 66.42 74.96 74.47 71.67 74.47 70.41 78.06 76.22 78.06 77.88 82.94 82.88 82.94 74.68 61.02"/><path class="cls-1" d="M193,71.53a7.49,7.49,0,0,0-1.31-2.45,6.07,6.07,0,0,0-2.13-1.68,6.81,6.81,0,0,0-8.31,1.92A8,8,0,0,0,179.88,72a11.21,11.21,0,0,0-.45,3.18,11.75,11.75,0,0,0,.43,3.21A7.31,7.31,0,0,0,181.17,81a6.32,6.32,0,0,0,2.17,1.72,7,7,0,0,0,3.06.63A6.86,6.86,0,0,0,191,81.83a7,7,0,0,0,2.26-4.23h-1.17a6.48,6.48,0,0,1-1.91,3.45,5.39,5.39,0,0,1-3.75,1.24,5.5,5.5,0,0,1-2.54-.55,5.22,5.22,0,0,1-1.82-1.5A6.92,6.92,0,0,1,181,78a9.2,9.2,0,0,1-.37-2.64V75.2h0l0-1h0a9.84,9.84,0,0,1,.49-2.4,6.56,6.56,0,0,1,1.14-2,5.67,5.67,0,0,1,1.82-1.41,5.5,5.5,0,0,1,2.49-.54,5.08,5.08,0,0,1,2.35.53,5.32,5.32,0,0,1,1.76,1.39,5.93,5.93,0,0,1,1.09,2,9.17,9.17,0,0,1,.43,2.44h-9.1l-.35,1h10.62c0-.08,0-.19,0-.32a2.24,2.24,0,0,0,0-.35A10,10,0,0,0,193,71.53Z"/></svg>