<svg id="Layer_1" data-name="Layer 1" xmlns="http://www.w3.org/2000/svg" viewBox="0 0 253.99 144.87"><defs><style>.cls-1{fill:#1b181c;}</style></defs><title>sporta-ag</title><path class="cls-1" d="M92,53.05,87.88,39a1.53,1.53,0,0,0-2.93.85l4.42,15.18v0a1.4,1.4,0,0,0,.19.41.18.18,0,0,1,.05.07,1.82,1.82,0,0,0,.31.31h0a2,2,0,0,0,.39.19l.08,0a1.67,1.67,0,0,0,.44.06h0l15.81-.48a1.54,1.54,0,0,0,1.48-1.58,1.57,1.57,0,0,0-.63-1.19,1.55,1.55,0,0,0-1-.29Z"/><path class="cls-1" d="M73,53l-14.61-.43a1.53,1.53,0,1,0-.09,3l15.8.5h0a1.63,1.63,0,0,0,.45-.06l.08,0a1.41,1.41,0,0,0,.39-.19h0a1.35,1.35,0,0,0,.31-.32l0-.06a1.23,1.23,0,0,0,.19-.4v0L80,39.86a1.52,1.52,0,0,0-2.36-1.65,1.55,1.55,0,0,0-.57.81Z"/><path class="cls-1" d="M68.15,69.93,63.23,83.7a1.52,1.52,0,1,0,2.87,1l5.35-14.88v0a1.36,1.36,0,0,0,.08-.44V69.3a1.33,1.33,0,0,0-.07-.43v0a1.72,1.72,0,0,0-.2-.38l-.05-.07a1.52,1.52,0,0,0-.31-.31l0,0L57.79,59.18a1.53,1.53,0,0,0-2.12.4,1.58,1.58,0,0,0-.19,1.33,1.49,1.49,0,0,0,.6.79Z"/><path class="cls-1" d="M82.28,80.14l11.57,8.94a1.53,1.53,0,1,0,1.87-2.41L83.22,77h0a1.47,1.47,0,0,0-.39-.21l-.08,0a1.55,1.55,0,0,0-.43-.07h0a1.55,1.55,0,0,0-.43.07l-.08,0a1.79,1.79,0,0,0-.39.2,0,0,0,0,1,0,0L68.85,86.67a1.54,1.54,0,0,0-.27,2.14,1.51,1.51,0,0,0,1.21.59,1.48,1.48,0,0,0,.93-.32Z"/><path class="cls-1" d="M96.31,69.94l12.08-8.25a1.52,1.52,0,0,0-1.71-2.52L93.6,68.06l0,0a1.57,1.57,0,0,0-.32.31l-.05.07a1.59,1.59,0,0,0-.2.39h0a2.12,2.12,0,0,0-.06.43v.09a1.55,1.55,0,0,0,.07.43l0,0,5.35,14.89a1.53,1.53,0,0,0,2.87-1Z"/><path class="cls-1" d="M125.37,52.25l-.28,1.62a.31.31,0,0,1-.33.27h0c-.44,0-2.27-.17-3.36-.17-.77,0-1.43.13-1.43,1,0,.34.16.5.82.93l1.86,1.22a3.08,3.08,0,0,1,1.71,2.56c0,2.93-2.29,4.1-5,4.1a11.53,11.53,0,0,1-3-.35.29.29,0,0,1-.26-.27v0l.27-1.57a.33.33,0,0,1,.34-.3h0c.63.06,2.38.19,3,.19.9,0,1.66-.29,1.66-1.32,0-.35-.2-.7-.84-1.12l-2-1.29a3,3,0,0,1-1.44-2.49c0-2.8,2.29-3.62,4.71-3.62a16.49,16.49,0,0,1,3.33.36.21.21,0,0,1,.19.22Z"/><path class="cls-1" d="M135.3,55.47v.15c-.34,3-2.69,3.88-5.46,3.88-.39,0-.9,0-1.3,0l-.67,3.89a.41.41,0,0,1-.39.32h-2.06a.26.26,0,0,1-.28-.26v0L127,52.59c.1-.54.33-.69.85-.77a24.09,24.09,0,0,1,3.3-.21c2.43,0,4.15,1,4.15,3.26C135.34,55.06,135.32,55.27,135.3,55.47Zm-4.48-1.58c-.22,0-1.12,0-1.31,0l-.58,3.26c.18,0,1.12,0,1.3,0,1.43,0,2.21-.52,2.34-1.62v-.15a1.56,1.56,0,0,0,0-.3C132.6,54.26,132,53.89,130.82,53.89Z"/><path class="cls-1" d="M145.56,56.76l-.34,1.9c-.65,3.75-2.64,5.14-5.65,5.14a3.66,3.66,0,0,1-3.95-3.92,6.71,6.71,0,0,1,.12-1.22l.34-1.9c.7-4,3-5.15,5.65-5.15a3.61,3.61,0,0,1,3.94,3.89A7.16,7.16,0,0,1,145.56,56.76ZM141.3,54c-1.35,0-2.1.73-2.45,2.74l-.34,1.9a6.11,6.11,0,0,0-.11,1.12c0,1.2.55,1.62,1.6,1.62,1.34,0,2.13-.82,2.47-2.74l.33-1.9a6.46,6.46,0,0,0,.11-1.06C142.91,54.5,142.37,54,141.3,54Z"/><path class="cls-1" d="M153.5,58.77l1.62,4.52a.31.31,0,0,1,0,.13c0,.13-.09.24-.29.24h-2.32c-.17,0-.19-.16-.26-.32l-1.44-4.05h-.3l-1.14,0-.7,4.07a.41.41,0,0,1-.39.32h-2.08a.25.25,0,0,1-.26-.26v-.06l1.9-10.75c.09-.54.33-.69.84-.77a23.55,23.55,0,0,1,3.3-.21c2.4,0,4.2.9,4.2,3.06A4,4,0,0,1,153.5,58.77Zm-1.9-4.83-1.26,0-.54,3.08c.18,0,.95,0,1.12,0,1.57,0,2.55-.38,2.55-2.06C153.47,54.19,152.84,53.94,151.6,53.94Z"/><path class="cls-1" d="M166.33,52.06l-.28,1.65a.43.43,0,0,1-.41.31h-2.59l-1.63,9.32a.41.41,0,0,1-.39.32h-2.09a.24.24,0,0,1-.26-.26v-.06L160.31,54H157.7a.24.24,0,0,1-.26-.24v-.07l.29-1.65a.38.38,0,0,1,.37-.3h8a.27.27,0,0,1,.28.25Z"/><path class="cls-1" d="M174.42,63.66h-2.19a.27.27,0,0,1-.27-.29l-.11-2.62h-3.29l-1,2.62a.44.44,0,0,1-.37.29h-2.29c-.15,0-.23-.08-.23-.19a.42.42,0,0,1,0-.15l4.13-9.93a2.85,2.85,0,0,1,3-1.78c1.1,0,2.23.24,2.32,1.78l.64,9.93v0A.31.31,0,0,1,174.42,63.66Zm-2.84-9.53c0-.16,0-.24-.15-.24s-.21.08-.27.24l-1.77,4.42h2.39Z"/><path class="cls-1" d="M120.86,71.28l-2,11.28a.38.38,0,0,1-.37.32h-2.14a.22.22,0,0,1-.23-.24v-.08l2-11.28a.34.34,0,0,1,.33-.3h2.15a.24.24,0,0,1,.26.24Z"/><path class="cls-1" d="M130.5,71.43c-.07.42-.16,1-.25,1.45a1.21,1.21,0,0,1-.22.42l-5.57,6.92a.43.43,0,0,0-.11.21s.05.08.16.08h4.16a.25.25,0,0,1,.28.24v0l-.31,1.76a.4.4,0,0,1-.38.32H121c-.33,0-.59-.11-.59-.4,0,0,0-.06,0-.1l.24-1.28a1.47,1.47,0,0,1,.35-.7l5.49-6.76a.34.34,0,0,0,.1-.19c0-.07,0-.1-.16-.1h-3.81a.25.25,0,0,1-.27-.26v0l.32-1.77A.38.38,0,0,1,123,71h6.9c.31,0,.56.13.56.37Z"/><path class="cls-1" d="M140.29,71.44l-.31,1.7c0,.18-.13.21-.27.21h-.05c-.77,0-1.95-.13-3.31-.13s-2.2.52-2.58,2.72l-.36,2a7.51,7.51,0,0,0-.11,1c0,1.33.66,1.67,1.43,1.67a12.43,12.43,0,0,0,1.25,0l.64-3.68a.38.38,0,0,1,.37-.32h2a.24.24,0,0,1,.25.25v.07l-.94,5.38c0,.22-.13.32-.38.37a18.15,18.15,0,0,1-3.66.34,3.66,3.66,0,0,1-3.78-3.9,7.64,7.64,0,0,1,.11-1.2l.36-2c.78-4.41,3.17-5.1,5.78-5.1a14.2,14.2,0,0,1,3.28.37c.11,0,.23.07.23.19Z"/><path class="cls-1" d="M147.21,81l-.27,1.49c0,.21-.14.29-.37.34a17.71,17.71,0,0,1-2.66.21c-1.76,0-3.38-.63-3.38-2.65a4.81,4.81,0,0,1,.08-.8l1.45-8.28a.43.43,0,0,1,.39-.32h2.1a.24.24,0,0,1,.25.26v.06l-1.46,8.28a2.27,2.27,0,0,0,0,.42c0,.51.27.67.88.67h2.76a.26.26,0,0,1,.27.27Z"/><path class="cls-1" d="M153.81,68.43l-.21,1.18a.36.36,0,0,1-.37.29h-3.11a.25.25,0,0,1-.27-.24v0l.21-1.18a.38.38,0,0,1,.37-.31h3.11a.25.25,0,0,1,.27.26Zm-1.08,2.85-2,11.28a.38.38,0,0,1-.37.32h-2.15a.22.22,0,0,1-.22-.24v-.08l2-11.28a.34.34,0,0,1,.33-.3h2.15a.23.23,0,0,1,.25.24Z"/><path class="cls-1" d="M167.69,68.43l-.21,1.18a.36.36,0,0,1-.37.29H164a.25.25,0,0,1-.27-.24v0l.21-1.18a.37.37,0,0,1,.36-.31h3.11a.25.25,0,0,1,.28.26Zm-1.08,2.85-2,11.28a.38.38,0,0,1-.37.32h-2.15a.22.22,0,0,1-.22-.24v-.08l2-11.28a.33.33,0,0,1,.33-.3h2.15a.23.23,0,0,1,.25.24Z"/><path class="cls-1" d="M162.46,71.28l-.29,1.66a.42.42,0,0,1-.4.3h-2.59l-1.64,9.32a.41.41,0,0,1-.39.32h-2.09a.24.24,0,0,1-.26-.25v-.07l1.63-9.32h-2.61a.23.23,0,0,1-.25-.24v-.06l.28-1.66a.39.39,0,0,1,.38-.3h7.94a.27.27,0,0,1,.29.26Z"/><path class="cls-1" d="M174.61,76.83a2.23,2.23,0,0,1,1.06,1.93c0,3.35-2.94,4.27-5.73,4.27a18.91,18.91,0,0,1-2.93-.2c-.52-.09-.74-.23-.74-.69,0-.09,0-.22,0-.35L168,72.05a1.05,1.05,0,0,1,1.05-1,26.45,26.45,0,0,1,2.93-.17c2.64,0,4.48.76,4.48,2.74A3.44,3.44,0,0,1,174.61,76.83Zm-3.1.94h-1.8l-.53,3h1.32c1.33,0,2.49-.32,2.49-1.9C173,78.25,172.61,77.77,171.51,77.77Zm.25-4.69h-1.21l-.5,2.77h1.8A1.69,1.69,0,0,0,173.78,74C173.78,73.32,173.2,73.08,171.76,73.08Z"/><path class="cls-1" d="M185.45,82.88h-2.21a.27.27,0,0,1-.26-.28L182.86,80h-3.28l-1,2.63a.44.44,0,0,1-.37.28h-2.29c-.14,0-.23-.08-.23-.19a.48.48,0,0,1,0-.15l4.13-9.93a2.85,2.85,0,0,1,3-1.77c1.11,0,2.23.24,2.32,1.77l.64,9.93v0A.31.31,0,0,1,185.45,82.88Zm-2.84-9.53c0-.16,0-.24-.16-.24s-.21.08-.28.24l-1.76,4.42h2.39Z"/><path class="cls-1" d="M196,71.48l-.28,1.61a.31.31,0,0,1-.32.28h0c-.45,0-2.28-.18-3.37-.18-.77,0-1.43.13-1.43,1,0,.33.17.49.82.92l1.86,1.22A3.11,3.11,0,0,1,195,78.92c0,2.94-2.29,4.11-5,4.11a11.53,11.53,0,0,1-3-.36.29.29,0,0,1-.26-.27v-.05l.27-1.57a.34.34,0,0,1,.34-.3h.05c.64.06,2.38.19,3,.19.9,0,1.65-.29,1.65-1.31,0-.36-.19-.71-.84-1.12l-2-1.3a3,3,0,0,1-1.44-2.48c0-2.81,2.29-3.62,4.71-3.62a16.6,16.6,0,0,1,3.33.35.21.21,0,0,1,.19.22Z"/><path class="cls-1" d="M125.09,102.11h-2.2a.27.27,0,0,1-.27-.29l-.11-2.63h-3.29l-1,2.63a.42.42,0,0,1-.37.29h-2.29a.2.2,0,0,1-.22-.2.35.35,0,0,1,0-.14l4.13-9.93a2.86,2.86,0,0,1,3-1.78c1.11,0,2.23.24,2.32,1.78l.65,9.93h0A.32.32,0,0,1,125.09,102.11Zm-2.84-9.54c0-.16,0-.24-.16-.24s-.21.08-.27.24L120.06,97h2.38Z"/><path class="cls-1" d="M132.44,103.31l-1.31,1.81c-.11.17-.18.32-.35.32h-1.41a.22.22,0,0,1-.24-.21.45.45,0,0,1,0-.11l.8-1.81c.1-.19.19-.3.37-.3h1.95c.13,0,.21.07.21.16A.19.19,0,0,1,132.44,103.31Zm4.13-12.64-.3,1.69c0,.18-.13.21-.28.21h0c-.78,0-2-.12-3.32-.12s-2.2.51-2.58,2.72l-.35,2a6.26,6.26,0,0,0-.11,1.06c0,1.33.66,1.67,1.42,1.67.45,0,.87,0,1.25-.05l.64-3.69a.38.38,0,0,1,.37-.32h2a.25.25,0,0,1,.26.26v.06l-1,5.38c0,.23-.12.32-.38.37a18,18,0,0,1-3.65.34,3.64,3.64,0,0,1-3.78-3.89,6.53,6.53,0,0,1,.11-1.2l.35-2c.79-4.42,3.17-5.11,5.78-5.11a15,15,0,0,1,3.29.36c.11,0,.22.09.22.2Z"/><path class="cls-1" d="M145.62,90.59l-.27,1.49a.39.39,0,0,1-.37.32h-3.25c-.66,0-1.06.13-1.22,1.07L140.26,95h4.14a.24.24,0,0,1,.26.26v.05l-.26,1.53a.41.41,0,0,1-.38.32h-4.15l-.3,1.69a1.75,1.75,0,0,0,0,.42c0,.51.27.68.88.68h3.25a.25.25,0,0,1,.27.27v0l-.27,1.49a.36.36,0,0,1-.37.34,19,19,0,0,1-3.11.21c-1.66,0-3.41-.59-3.41-2.66a4.6,4.6,0,0,1,.08-.79l.95-5.32c.54-3.1,2.32-3.42,4.52-3.42a17.65,17.65,0,0,1,3,.21c.19,0,.29.08.29.22S145.62,90.55,145.62,90.59Z"/><path class="cls-1" d="M156.7,90.51l-1.93,11a.77.77,0,0,1-.71.61h-1.34a.83.83,0,0,1-.88-.5l-2.66-6.31c-.05-.1-.08-.13-.13-.13s-.08,0-.1.13l-1.14,6.48a.4.4,0,0,1-.38.33h-1.89a.25.25,0,0,1-.25-.28v0l1.92-11a.77.77,0,0,1,.72-.61h1.22a.85.85,0,0,1,.86.5l2.75,6.6c.05.09.05.13.1.13s.1,0,.11-.15l1.21-6.77a.37.37,0,0,1,.36-.31h1.89a.25.25,0,0,1,.27.26Z"/><path class="cls-1" d="M166.43,90.51l-.29,1.65a.41.41,0,0,1-.4.3h-2.59l-1.64,9.32a.41.41,0,0,1-.38.33H159a.25.25,0,0,1-.26-.26v-.07l1.64-9.32H157.8a.23.23,0,0,1-.26-.24v-.06l.29-1.65a.38.38,0,0,1,.37-.31h7.94a.27.27,0,0,1,.29.26Z"/><path class="cls-1" d="M184.08,97.22l1.62,4.51a.35.35,0,0,1,0,.13.25.25,0,0,1-.28.25h-2.33c-.18,0-.19-.16-.26-.33l-1.44-4h0l-.29,0c-.34,0-.83,0-1.14,0l-.7,4.07a.42.42,0,0,1-.38.33h-2.09a.25.25,0,0,1-.26-.26v-.07L178.44,91c.1-.55.34-.69.85-.77a23.55,23.55,0,0,1,3.3-.21c2.41,0,4.2.89,4.2,3.06A4,4,0,0,1,184.08,97.22Zm-1.91-4.84c-.22,0-1,0-1.25.05l-.54,3.07c.18,0,1,0,1.12,0,1.57,0,2.55-.39,2.55-2.07C184.05,92.64,183.42,92.38,182.17,92.38Z"/><path class="cls-1" d="M196,102.11h-2.19a.28.28,0,0,1-.28-.29l-.11-2.63h-3.28l-1,2.63a.45.45,0,0,1-.37.29h-2.29a.2.2,0,0,1-.23-.2.7.7,0,0,1,0-.14l4.14-9.93a2.85,2.85,0,0,1,3-1.78c1.1,0,2.22.24,2.32,1.78l.64,9.93h0A.31.31,0,0,1,196,102.11Zm-2.84-9.54c0-.16,0-.24-.16-.24s-.21.08-.27.24L191,97h2.39Z"/><path class="cls-1" d="M176.75,90.51l-1.27,7.13c-.72,4-2.9,4.61-5.45,4.61-2.24,0-3.89-1-3.89-3.48a5.77,5.77,0,0,1,.1-1.13l1.26-7.13a.38.38,0,0,1,.37-.31H170a.25.25,0,0,1,.27.26v.05L169,97.64a4.86,4.86,0,0,0-.1.94c0,1,.45,1.38,1.57,1.38,1.44,0,2-.69,2.29-2.32L174,90.51a.37.37,0,0,1,.36-.31h2.09a.27.27,0,0,1,.29.26Zm-1.86-2.61-.21,1.18a.36.36,0,0,1-.37.29h-4.17a.24.24,0,0,1-.26-.24v0l.2-1.18a.37.37,0,0,1,.37-.3h4.17a.24.24,0,0,1,.27.25Z"/></svg>