<?xml version="1.0" encoding="utf-8"?>
<!-- Generator: Adobe Illustrator 22.0.0, SVG Export Plug-In . SVG Version: 6.00 Build 0)  -->
<svg version="1.1" id="Layer_1" xmlns="http://www.w3.org/2000/svg" xmlns:xlink="http://www.w3.org/1999/xlink" x="0px" y="0px"
	 viewBox="0 0 136.1 29" style="enable-background:new 0 0 136.1 29;" xml:space="preserve">
<style type="text/css">
	.st0{fill:#4E504F;}
	.st1{fill:#FFFFFF;}
</style>
<g>
	<g>
		<path class="st0" d="M123.9,25.7H87.4c-4,0-7.2-3.2-7.2-7.2v-8c0-4,3.2-7.2,7.2-7.2h36.5c4,0,7.2,3.2,7.2,7.2v8
			C131.1,22.5,127.9,25.7,123.9,25.7z"/>
		<path class="st0" d="M6.7,20.5c-1.2,0-2.2-0.5-2.9-1.5c-0.7-1-1.1-2.3-1.1-4c0-1.7,0.4-3.1,1.1-4.1c0.7-1,1.7-1.5,3-1.5
			c1.3,0,2.4,0.5,3.1,1.6H10c-0.1-0.8-0.2-1.5-0.2-2.1V5.5h2.9v14.8h-2.2l-0.6-1.4H9.7C9.1,20,8.1,20.5,6.7,20.5z M7.7,18.2
			c0.7,0,1.3-0.2,1.6-0.6c0.3-0.4,0.5-1.2,0.6-2.2V15c0-1.1-0.2-2-0.5-2.4c-0.4-0.5-0.9-0.7-1.7-0.7c-0.6,0-1.1,0.3-1.5,0.8
			c-0.4,0.5-0.5,1.3-0.5,2.4c0,1,0.2,1.8,0.5,2.3C6.6,17.9,7.1,18.2,7.7,18.2z"/>
		<path class="st0" d="M24.8,15c0,1.7-0.5,3.1-1.4,4.1c-0.9,1-2.2,1.5-3.8,1.5c-1,0-1.9-0.2-2.7-0.7s-1.4-1.1-1.8-1.9
			c-0.4-0.8-0.6-1.8-0.6-2.9c0-1.7,0.5-3.1,1.4-4c0.9-1,2.2-1.4,3.8-1.4c1,0,1.9,0.2,2.7,0.7c0.8,0.4,1.4,1.1,1.8,1.9
			C24.6,12.9,24.8,13.9,24.8,15z M17.4,15c0,1.1,0.2,1.8,0.5,2.4c0.3,0.5,0.9,0.8,1.7,0.8c0.8,0,1.3-0.3,1.7-0.8
			c0.3-0.5,0.5-1.3,0.5-2.4c0-1.1-0.2-1.8-0.5-2.4c-0.3-0.5-0.9-0.8-1.7-0.8c-0.8,0-1.3,0.3-1.7,0.8C17.6,13.1,17.4,13.9,17.4,15z"
			/>
		<path class="st0" d="M36.8,9.5c0.4,0,0.7,0,1,0.1l-0.2,2.7c-0.2-0.1-0.5-0.1-0.9-0.1c-0.9,0-1.6,0.2-2.2,0.7
			c-0.5,0.5-0.8,1.1-0.8,2v5.4h-2.9V9.7h2.2l0.4,1.8h0.1c0.3-0.6,0.8-1.1,1.3-1.4C35.5,9.7,36.2,9.5,36.8,9.5z"/>
		<path class="st0" d="M39,7c0-0.9,0.5-1.4,1.6-1.4S42.1,6,42.1,7c0,0.4-0.1,0.8-0.4,1c-0.3,0.3-0.7,0.4-1.2,0.4
			C39.5,8.4,39,7.9,39,7z M42,20.3h-2.9V9.7H42V20.3z"/>
		<path class="st0" d="M53.8,9.7v1.5l-1.7,0.4c0.3,0.5,0.5,1,0.5,1.6c0,1.1-0.4,2-1.2,2.7c-0.8,0.6-1.9,1-3.3,1l-0.5,0l-0.4,0
			c-0.3,0.2-0.4,0.5-0.4,0.8c0,0.4,0.5,0.6,1.6,0.6h1.8c1.2,0,2.1,0.3,2.7,0.8c0.6,0.5,0.9,1.2,0.9,2.2c0,1.2-0.5,2.2-1.6,2.9
			c-1,0.7-2.5,1-4.5,1c-1.5,0-2.6-0.3-3.4-0.8c-0.8-0.5-1.2-1.2-1.2-2.2c0-0.6,0.2-1.2,0.6-1.6c0.4-0.4,1-0.7,1.8-0.9
			c-0.3-0.1-0.6-0.3-0.8-0.6c-0.2-0.3-0.3-0.6-0.3-0.9c0-0.4,0.1-0.7,0.4-1c0.2-0.3,0.6-0.5,1-0.8c-0.6-0.2-1-0.6-1.3-1.2
			c-0.3-0.5-0.5-1.2-0.5-1.9c0-1.2,0.4-2.1,1.1-2.7c0.8-0.6,1.8-0.9,3.2-0.9c0.3,0,0.6,0,1.1,0.1c0.4,0.1,0.7,0.1,0.8,0.1H53.8z
			 M45.6,21.8c0,0.4,0.2,0.7,0.6,0.9c0.4,0.2,0.9,0.3,1.6,0.3c1,0,1.9-0.1,2.4-0.4c0.6-0.3,0.9-0.7,0.9-1.2c0-0.4-0.2-0.7-0.5-0.8
			c-0.3-0.2-0.9-0.2-1.6-0.2h-1.5c-0.5,0-1,0.1-1.3,0.4C45.8,21.1,45.6,21.4,45.6,21.8z M46.6,13.2c0,0.6,0.1,1,0.4,1.4
			c0.3,0.3,0.7,0.5,1.2,0.5c0.5,0,0.9-0.2,1.2-0.5c0.3-0.3,0.4-0.8,0.4-1.4c0-1.3-0.5-1.9-1.6-1.9C47.2,11.3,46.6,11.9,46.6,13.2z"
			/>
		<path class="st0" d="M64.8,20.3h-2.9v-6.2c0-1.5-0.6-2.3-1.7-2.3c-0.8,0-1.4,0.3-1.8,0.8s-0.5,1.4-0.5,2.7v5H55V5.5h2.9v3
			c0,0.2,0,0.8-0.1,1.7l-0.1,0.9h0.2c0.6-1,1.7-1.6,3.1-1.6c1.2,0,2.2,0.3,2.8,1c0.6,0.7,1,1.6,1,2.9V20.3z"/>
		<path class="st0" d="M71.6,18.2c0.5,0,1.1-0.1,1.8-0.3V20c-0.7,0.3-1.6,0.5-2.7,0.5c-1.2,0-2-0.3-2.5-0.9
			c-0.5-0.6-0.8-1.5-0.8-2.6v-5.1h-1.4v-1.2l1.6-1l0.8-2.2h1.9v2.3h3v2.2h-3V17c0,0.4,0.1,0.7,0.3,0.9
			C70.9,18.1,71.2,18.2,71.6,18.2z"/>
	</g>
	<g>
		<path class="st1" d="M96.7,20.3h-2.9v-6.2c0-0.8-0.1-1.3-0.4-1.7c-0.3-0.4-0.7-0.6-1.3-0.6c-0.8,0-1.4,0.3-1.8,0.8
			c-0.4,0.5-0.5,1.4-0.5,2.7v5h-2.9V9.7h2.2l0.4,1.4h0.2c0.3-0.5,0.8-0.9,1.3-1.2c0.6-0.3,1.2-0.4,1.9-0.4c1.2,0,2.2,0.3,2.8,1
			c0.6,0.7,1,1.6,1,2.9V20.3z"/>
		<path class="st1" d="M108.7,15c0,1.7-0.5,3.1-1.4,4.1c-0.9,1-2.2,1.5-3.8,1.5c-1,0-1.9-0.2-2.7-0.7c-0.8-0.4-1.4-1.1-1.8-1.9
			c-0.4-0.8-0.6-1.8-0.6-2.9c0-1.7,0.5-3.1,1.4-4c0.9-1,2.2-1.4,3.8-1.4c1,0,1.9,0.2,2.7,0.7c0.8,0.4,1.4,1.1,1.8,1.9
			C108.5,12.9,108.7,13.9,108.7,15z M101.4,15c0,1.1,0.2,1.8,0.5,2.4c0.3,0.5,0.9,0.8,1.7,0.8c0.8,0,1.3-0.3,1.7-0.8
			c0.3-0.5,0.5-1.3,0.5-2.4c0-1.1-0.2-1.8-0.5-2.4c-0.3-0.5-0.9-0.8-1.7-0.8c-0.8,0-1.3,0.3-1.7,0.8C101.5,13.1,101.4,13.9,101.4,15
			z"/>
		<path class="st1" d="M119.1,20.3l-0.8-3.7l-1.1-4.7h-0.1l-1.9,8.4h-3.1l-3-10.6h2.9l1.2,4.7c0.2,0.8,0.4,2,0.6,3.5h0.1
			c0-0.5,0.1-1.2,0.3-2.3l0.2-0.8l1.3-5.1h3.2l1.2,5.1c0,0.1,0.1,0.3,0.1,0.6c0.1,0.3,0.1,0.6,0.2,0.9c0.1,0.3,0.1,0.6,0.1,0.9
			c0,0.3,0.1,0.5,0.1,0.7h0.1c0.1-0.5,0.2-1.1,0.3-1.9c0.1-0.8,0.3-1.3,0.3-1.6l1.3-4.7h2.8l-3.1,10.6H119.1z"/>
	</g>
</g>
</svg>
