<svg id="Layer_1" data-name="Layer 1" xmlns="http://www.w3.org/2000/svg" viewBox="0 0 136.09 28.99"><defs><style>.cls-1{fill:#857973;}.cls-2{fill:#544c47;opacity:0.77;}.cls-3{fill:#fff;}</style></defs><title>logo_small</title><rect class="cls-1" x="83.35" y="3.55" width="49.64" height="21.79" rx="6.99" ry="6.99"/><path class="cls-2" d="M19.08,6.05l-2,14.08H14.48l0-1.44A4.46,4.46,0,0,1,13.22,20a3.11,3.11,0,0,1-1.72.48,2.79,2.79,0,0,1-2.36-1.07,4.87,4.87,0,0,1-.81-3,9.72,9.72,0,0,1,.52-3.05,6.33,6.33,0,0,1,1.61-2.58,3.74,3.74,0,0,1,2.69-1,3,3,0,0,1,2.32,1l.68-5Zm-6.69,6.59a4.46,4.46,0,0,0-.77,1.77,8.78,8.78,0,0,0-.23,2,2.63,2.63,0,0,0,.28,1.42.94.94,0,0,0,.82.42,1.64,1.64,0,0,0,1.11-.49,6.87,6.87,0,0,0,1.07-1.37l.53-3.76a2,2,0,0,0-.62-.54,1.74,1.74,0,0,0-2.19.55Z"/><path class="cls-2" d="M20.71,19.31a4.32,4.32,0,0,1-1.11-3.15,8.55,8.55,0,0,1,.55-3A5.38,5.38,0,0,1,22,10.7a5.18,5.18,0,0,1,3.26-1,4.13,4.13,0,0,1,3.09,1.14A4.2,4.2,0,0,1,29.43,14a8.6,8.6,0,0,1-.55,3,5.52,5.52,0,0,1-1.81,2.46,5.13,5.13,0,0,1-3.26,1A4.14,4.14,0,0,1,20.71,19.31Zm5.15-2.46a8.49,8.49,0,0,0,.55-3,2.36,2.36,0,0,0-.35-1.45,1.24,1.24,0,0,0-1-.45,1.9,1.9,0,0,0-1.85,1.4,8.38,8.38,0,0,0-.54,3A2.39,2.39,0,0,0,23,17.79a1.23,1.23,0,0,0,1.06.46A1.88,1.88,0,0,0,25.86,16.85Z"/><path class="cls-2" d="M42.89,9.92,42,12.8a3.52,3.52,0,0,0-.83-.13,1.78,1.78,0,0,0-1.45.72,6.85,6.85,0,0,0-1,2.07l-.66,4.67H35.11l1.4-10.08h2.56l0,1.88a4.36,4.36,0,0,1,1.27-1.6,2.55,2.55,0,0,1,1.58-.56A3.58,3.58,0,0,1,42.89,9.92Z"/><path class="cls-2" d="M47.06,10.05l-1.4,10.08H42.72l1.4-10.08ZM44.77,7.73a1.48,1.48,0,0,1-.44-1.1,1.77,1.77,0,0,1,.56-1.34,1.92,1.92,0,0,1,1.4-.53,1.56,1.56,0,0,1,1.13.41,1.4,1.4,0,0,1,.44,1.08,1.82,1.82,0,0,1-.56,1.36,1.92,1.92,0,0,1-1.39.54A1.57,1.57,0,0,1,44.77,7.73Z"/><path class="cls-2" d="M58.12,10.79l-1.26,8.56a6.32,6.32,0,0,1-1.64,3.82,5.14,5.14,0,0,1-3.65,1.19,6.91,6.91,0,0,1-2-.3,8.38,8.38,0,0,1-1.85-.82l1-1.95a5.66,5.66,0,0,0,2.73.79,2.71,2.71,0,0,0,1.63-.47A2.7,2.7,0,0,0,54,19.79l.13-1a4.24,4.24,0,0,1-1.2,1,3.14,3.14,0,0,1-1.45.35A3,3,0,0,1,49,19.07a4.42,4.42,0,0,1-.86-2.85,8,8,0,0,1,.6-3,5.75,5.75,0,0,1,1.92-2.48,5.48,5.48,0,0,1,3.35-1A8.43,8.43,0,0,1,58.12,10.79Zm-5.77,1.73a3.86,3.86,0,0,0-.88,1.65,7.05,7.05,0,0,0-.28,2c0,1.18.39,1.77,1.18,1.77s1.34-.47,2-1.41L55,12a3.78,3.78,0,0,0-1.14-.19A2,2,0,0,0,52.35,12.52Z"/><path class="cls-2" d="M68.18,10.37a2.55,2.55,0,0,1,.6,1.81,3.6,3.6,0,0,1,0,.64l-1,7.31H64.78l.93-6.66c0-.26,0-.42,0-.5a.89.89,0,0,0-.16-.61.55.55,0,0,0-.45-.18c-.7,0-1.45.8-2.26,2.41l-.78,5.54H59.16l2-14.08,3-.31-.83,6a4.43,4.43,0,0,1,1.39-1.46,3.26,3.26,0,0,1,1.82-.55A2.22,2.22,0,0,1,68.18,10.37Z"/><path class="cls-2" d="M73.73,16.79a4,4,0,0,0,0,.45.94.94,0,0,0,.18.64.7.7,0,0,0,.54.2,1.82,1.82,0,0,0,.52-.08,4.76,4.76,0,0,0,.62-.24l.78,1.95a5.39,5.39,0,0,1-1.35.55,5.48,5.48,0,0,1-1.41.19,2.88,2.88,0,0,1-2.12-.74,2.89,2.89,0,0,1-.74-2.13,5.56,5.56,0,0,1,.06-.79l.66-4.65H70l.29-2.09h1.52l.62-2.24L75,7.53l-.36,2.52H77l-.62,2.09h-2Z"/><path class="cls-3" d="M99.86,10.37a2.49,2.49,0,0,1,.61,1.79,4.37,4.37,0,0,1-.06.68l-1,7.29H96.47l.93-6.66c0-.26,0-.41,0-.48a.94.94,0,0,0-.16-.63.57.57,0,0,0-.46-.18c-.68,0-1.42.8-2.22,2.41l-.8,5.54H90.85l1.4-10.08h2.57l-.06,1.77a5.24,5.24,0,0,1,1.55-1.53,3.54,3.54,0,0,1,1.88-.56A2.17,2.17,0,0,1,99.86,10.37Z"/><path class="cls-3" d="M102.74,19.31a4.32,4.32,0,0,1-1.11-3.15,8.45,8.45,0,0,1,.55-3A5.29,5.29,0,0,1,104,10.7a5.18,5.18,0,0,1,3.26-1,4.14,4.14,0,0,1,3.09,1.14A4.2,4.2,0,0,1,111.46,14a8.83,8.83,0,0,1-.55,3,5.52,5.52,0,0,1-1.81,2.46,5.15,5.15,0,0,1-3.26,1A4.12,4.12,0,0,1,102.74,19.31Zm5.15-2.45a8.77,8.77,0,0,0,.55-3,2.38,2.38,0,0,0-.35-1.44,1.23,1.23,0,0,0-1-.46,1.89,1.89,0,0,0-1.85,1.4,8.39,8.39,0,0,0-.55,3,2.38,2.38,0,0,0,.35,1.44,1.21,1.21,0,0,0,1.06.46A1.87,1.87,0,0,0,107.89,16.86Z"/><path class="cls-3" d="M126.56,10.05,123.1,20.13h-3.49l-.28-7.42L117,20.13h-3.51l-.7-10.08h3l-.06,7.84,2.64-7.84h2.87l.26,7.84,2.3-7.84Z"/></svg>