<svg id="Layer_1" data-name="Layer 1" xmlns="http://www.w3.org/2000/svg" viewBox="0 0 165.89 165.89"><defs><style>.cls-1{fill:#18a9de;opacity:0.3;}.cls-2{fill:#fff;}</style></defs><title>ico-4</title><circle class="cls-1" cx="82.94" cy="82.94" r="78.8"/><path class="cls-2" d="M59.48,114.5v-11H60.9v11Z"/><path class="cls-2" d="M69.82,113.59a3.4,3.4,0,0,1-1.31.75,5.07,5.07,0,0,1-1.63.27,4.29,4.29,0,0,1-2.1-.48,3.29,3.29,0,0,1-1.36-1.38,4.52,4.52,0,0,1-.48-2.15,4.63,4.63,0,0,1,.47-2.12,3.59,3.59,0,0,1,1.31-1.42,3.49,3.49,0,0,1,1.91-.52,3.35,3.35,0,0,1,1.8.46,3,3,0,0,1,1.14,1.32,4.9,4.9,0,0,1,.39,2.05v.24H64.18v-.86h5l-.43.56a3.09,3.09,0,0,0-.51-2,1.89,1.89,0,0,0-1.57-.7,2.06,2.06,0,0,0-1.7.77,4.16,4.16,0,0,0,0,4.37,2.41,2.41,0,0,0,1.92.75,3.73,3.73,0,0,0,1.29-.23,4,4,0,0,0,1.18-.67Z"/><path class="cls-2" d="M71.82,114.5V103.14h1.4V114.5Zm5.25,0-4.13-4,3.83-3.78h1.76l-4.26,4.15.06-.82,4.54,4.41Z"/><path class="cls-2" d="M82.42,114.61a4.68,4.68,0,0,1-3.16-1l.44-1a4.41,4.41,0,0,0,1.29.7,4.64,4.64,0,0,0,1.48.23,2.34,2.34,0,0,0,1.27-.29.94.94,0,0,0,.44-.83.85.85,0,0,0-.3-.68,2.55,2.55,0,0,0-1-.43L81.59,111a2.92,2.92,0,0,1-1.54-.77,1.89,1.89,0,0,1-.53-1.34,2,2,0,0,1,.38-1.2,2.51,2.51,0,0,1,1-.83,4,4,0,0,1,1.61-.3,4.67,4.67,0,0,1,1.55.26,3.45,3.45,0,0,1,1.24.76l-.44,1a4.23,4.23,0,0,0-1.15-.69,3.34,3.34,0,0,0-1.22-.22,2.06,2.06,0,0,0-1.22.31,1,1,0,0,0-.44.83.91.91,0,0,0,.28.71,1.86,1.86,0,0,0,.87.42l1.32.32A3.15,3.15,0,0,1,85,111a1.85,1.85,0,0,1,.53,1.36,1.91,1.91,0,0,1-.84,1.63A3.69,3.69,0,0,1,82.42,114.61Zm1.2-12h1.25L83,105.74h-.94l-1.87-3.17h1.25l1.09,2.18Z"/><path class="cls-2" d="M93.84,113.59a3.47,3.47,0,0,1-1.31.75,5.07,5.07,0,0,1-1.63.27,4.29,4.29,0,0,1-2.1-.48,3.29,3.29,0,0,1-1.36-1.38A4.52,4.52,0,0,1,87,110.6a4.63,4.63,0,0,1,.47-2.12,3.51,3.51,0,0,1,3.22-1.94,3.35,3.35,0,0,1,1.8.46,3,3,0,0,1,1.14,1.32,4.9,4.9,0,0,1,.39,2.05v.24H88.19v-.86h5l-.43.56a3.09,3.09,0,0,0-.51-2,1.9,1.9,0,0,0-1.58-.7,2,2,0,0,0-1.69.77,4.11,4.11,0,0,0,0,4.37,2.39,2.39,0,0,0,1.92.75,3.73,3.73,0,0,0,1.29-.23,4.11,4.11,0,0,0,1.18-.67Zm-5.55-8.92v-1H93v1Z"/><path class="cls-2" d="M93.8,116.59l.41.09a2,2,0,0,0,.34,0,1.53,1.53,0,0,0,.64-.13.93.93,0,0,0,.47-.45,2,2,0,0,0,.17-.93v-8.46h1.41v8.61a2.59,2.59,0,0,1-.64,1.92,2.39,2.39,0,0,1-1.75.63,4.89,4.89,0,0,1-.54,0,2.71,2.71,0,0,1-.51-.11Zm1.9-13.2h1.65v1.53H95.7Z"/><path class="cls-2" d="M102.57,114.61a3.36,3.36,0,0,1-1.8-.48,3.23,3.23,0,0,1-1.21-1.39,4.85,4.85,0,0,1-.44-2.13,4.91,4.91,0,0,1,.44-2.13,3.54,3.54,0,0,1,1.22-1.42,3.13,3.13,0,0,1,1.79-.52,3,3,0,0,1,1.79.52,2.56,2.56,0,0,1,1,1.47l-.19.11v-1.9h1.39v7.76h-1.39v-1.94l.19.08a2.57,2.57,0,0,1-1,1.45A3,3,0,0,1,102.57,114.61Zm.3-1.14a2.05,2.05,0,0,0,1.71-.75,4.13,4.13,0,0,0,0-4.27,2.29,2.29,0,0,0-3.41,0,3.34,3.34,0,0,0-.62,2.14,3.25,3.25,0,0,0,.62,2.12A2.11,2.11,0,0,0,102.87,113.47Zm-2.14-8.8v-1h4.71v1Z"/><path class="cls-2" d="M37.09,133V121.67H38.5V133Zm5.25,0-4.12-4,3.83-3.78h1.76l-4.26,4.15.06-.82L44.15,133Z"/><path class="cls-2" d="M48.3,133.14a3.82,3.82,0,0,1-2-.5,3.26,3.26,0,0,1-1.3-1.4,4.58,4.58,0,0,1-.47-2.13A4.66,4.66,0,0,1,45,127a3.29,3.29,0,0,1,1.3-1.41,4.15,4.15,0,0,1,4,0A3.39,3.39,0,0,1,51.57,127a4.65,4.65,0,0,1,.46,2.14,4.58,4.58,0,0,1-.46,2.13,3.37,3.37,0,0,1-1.29,1.4A3.83,3.83,0,0,1,48.3,133.14Zm0-1.15a2.08,2.08,0,0,0,1.71-.73,3.34,3.34,0,0,0,.6-2.15A3.3,3.3,0,0,0,50,127a2.08,2.08,0,0,0-1.7-.74,2.1,2.1,0,0,0-1.7.74,4.07,4.07,0,0,0,0,4.3A2.08,2.08,0,0,0,48.3,132Z"/><path class="cls-2" d="M53.93,133v-5.59c0-.36,0-.72,0-1.09s0-.73-.1-1.09h1.33l.14,1.59-.16.08a2.55,2.55,0,0,1,1-1.38,2.68,2.68,0,0,1,1.62-.49,2.56,2.56,0,0,1,1.76.56,2.72,2.72,0,0,1,.79,1.7l-.37-.24a2.77,2.77,0,0,1,1-1.47,3,3,0,0,1,1.78-.55,2.44,2.44,0,0,1,2,.77,3.61,3.61,0,0,1,.64,2.34V133h-1.4v-4.8a2.56,2.56,0,0,0-.36-1.52,1.36,1.36,0,0,0-1.17-.49,1.82,1.82,0,0,0-1.48.64,2.63,2.63,0,0,0-.54,1.75V133H58.9v-4.8a2.48,2.48,0,0,0-.37-1.52,1.36,1.36,0,0,0-1.17-.49,1.83,1.83,0,0,0-1.49.64,2.69,2.69,0,0,0-.53,1.75V133Z"/><path class="cls-2" d="M70.34,133.14a2.71,2.71,0,0,1-2.11-.78,3.39,3.39,0,0,1-.7-2.31v-4.79h1.41V130a2.2,2.2,0,0,0,.41,1.48,1.58,1.58,0,0,0,1.25.47,2.1,2.1,0,0,0,1.59-.64,2.37,2.37,0,0,0,.61-1.71v-4.37h1.42V133H72.84v-1.67l.19-.08a2.6,2.6,0,0,1-1,1.39A3,3,0,0,1,70.34,133.14Z"/><path class="cls-2" d="M76.55,133v-5.59c0-.36,0-.72,0-1.09a10,10,0,0,0-.1-1.09h1.33l.14,1.59-.15.1a2.69,2.69,0,0,1,1.08-1.4,3.06,3.06,0,0,1,1.72-.49c1.87,0,2.8,1,2.8,3.11V133H81.93v-4.79a2.36,2.36,0,0,0-.4-1.53,1.61,1.61,0,0,0-1.31-.49,2.17,2.17,0,0,0-1.65.64,2.39,2.39,0,0,0-.62,1.72V133Z"/><path class="cls-2" d="M85.52,121.91h1.65v1.53H85.52ZM85.64,133v-7.77H87V133Z"/><path class="cls-2" d="M89.39,133V121.67h1.4V133Zm5.25,0-4.12-4,3.82-3.78H96.1l-4.26,4.15.07-.82L96.44,133Z"/><path class="cls-2" d="M100.3,133.14a3.34,3.34,0,0,1-1.79-.49,3.25,3.25,0,0,1-1.22-1.39,5,5,0,0,1-.43-2.12A4.85,4.85,0,0,1,97.3,127a3.43,3.43,0,0,1,1.22-1.43,3.1,3.1,0,0,1,1.78-.52,3,3,0,0,1,1.79.52,2.56,2.56,0,0,1,1,1.47l-.19.11v-1.9h1.39V133h-1.39v-1.95l.19.08a2.57,2.57,0,0,1-1,1.46A3.07,3.07,0,0,1,100.3,133.14Zm.31-1.15a2.06,2.06,0,0,0,1.71-.75,4.13,4.13,0,0,0,0-4.27,2.29,2.29,0,0,0-3.41,0,3.38,3.38,0,0,0-.62,2.15,3.22,3.22,0,0,0,.62,2.11A2.08,2.08,0,0,0,100.61,132Zm-2.14-8.8v-1h4.7v1Z"/><path class="cls-2" d="M110,133.14a3.9,3.9,0,0,1-2-.5,3.36,3.36,0,0,1-1.3-1.39,4.5,4.5,0,0,1-.47-2.11,4.58,4.58,0,0,1,.48-2.13,3.37,3.37,0,0,1,1.33-1.44,4,4,0,0,1,2-.51,4.46,4.46,0,0,1,1.54.27,3.24,3.24,0,0,1,1.22.75l-.45,1a4.58,4.58,0,0,0-1.1-.66,3.15,3.15,0,0,0-1.13-.22,2.25,2.25,0,0,0-1.8.76,3.12,3.12,0,0,0-.67,2.16,3.07,3.07,0,0,0,.66,2.11,2.3,2.3,0,0,0,1.82.74,3.12,3.12,0,0,0,1.11-.21,4.38,4.38,0,0,0,1.11-.67l.45,1a3.58,3.58,0,0,1-1.25.74A4.63,4.63,0,0,1,110,133.14Z"/><path class="cls-2" d="M114.2,121.91h1.65v1.53H114.2Zm.12,11.12v-7.77h1.4V133Z"/><path class="cls-2" d="M116,135.11l.41.09.35,0a1.56,1.56,0,0,0,.64-.13.93.93,0,0,0,.47-.45,2.11,2.11,0,0,0,.17-.93v-8.46h1.4v8.62a2.56,2.56,0,0,1-.64,1.91,2.38,2.38,0,0,1-1.75.63l-.53,0a2.29,2.29,0,0,1-.52-.11Zm1.9-13.2h1.65v1.53h-1.65Z"/><path class="cls-2" d="M124.8,133.14a3.37,3.37,0,0,1-1.8-.49,3.23,3.23,0,0,1-1.21-1.39,4.83,4.83,0,0,1-.43-2.12,4.71,4.71,0,0,1,.44-2.13,3.43,3.43,0,0,1,1.22-1.43,3.1,3.1,0,0,1,1.78-.52,3,3,0,0,1,1.79.52,2.54,2.54,0,0,1,1,1.47l-.18.11v-1.9h1.39V133h-1.39v-1.95l.18.08a2.55,2.55,0,0,1-1,1.46A3.07,3.07,0,0,1,124.8,133.14Zm.31-1.15a2,2,0,0,0,1.7-.75,4.1,4.1,0,0,0,0-4.27,2.29,2.29,0,0,0-3.41,0,3.32,3.32,0,0,0-.62,2.15,3.16,3.16,0,0,0,.62,2.11A2.08,2.08,0,0,0,125.11,132Z"/><path class="cls-2" d="M73.09,58.26H92.8A1.23,1.23,0,0,0,94,57V52.1a8.62,8.62,0,0,0-6.43-8.33,6.13,6.13,0,0,0,1.5-4V35.86a3.69,3.69,0,0,0,2.47-3.47V29.92a1.23,1.23,0,0,0-1.23-1.23H80.48a3.7,3.7,0,0,0-3.7,3.7v7.39a6.14,6.14,0,0,0,1.51,4,8.62,8.62,0,0,0-6.43,8.33V57A1.23,1.23,0,0,0,73.09,58.26Zm6.16-25.87a1.23,1.23,0,0,1,1.23-1.23H89.1v1.23a1.23,1.23,0,0,1-1.23,1.23H79.25Zm0,3.69h7.39v3.7a3.7,3.7,0,1,1-7.39,0Zm-4.93,16a6.16,6.16,0,0,1,6.16-6.16h4.93a6.16,6.16,0,0,1,6.16,6.16v3.7H89.1V50.87H86.64V55.8H79.25V50.87H76.78V55.8H74.32Z"/><path class="cls-2" d="M67.89,75.8a6.13,6.13,0,0,0,1.5-4V67.89a3.7,3.7,0,0,0,2.47-3.47V62a1.24,1.24,0,0,0-1.24-1.23H60.77a3.7,3.7,0,0,0-3.7,3.69v7.39a6.09,6.09,0,0,0,1.51,4,8.64,8.64,0,0,0-6.44,8.33v4.93a1.24,1.24,0,0,0,1.24,1.23H73.09a1.23,1.23,0,0,0,1.23-1.23V84.13A8.65,8.65,0,0,0,67.89,75.8ZM59.54,64.42a1.23,1.23,0,0,1,1.23-1.23h8.62v1.23a1.23,1.23,0,0,1-1.23,1.23H59.54Zm0,3.7h7.39v3.69a3.7,3.7,0,1,1-7.39,0ZM71.86,87.83H69.39V82.9H66.93v4.93H59.54V82.9H57.07v4.93H54.61v-3.7A6.17,6.17,0,0,1,60.77,78H65.7a6.18,6.18,0,0,1,6.16,6.16Z"/><path class="cls-2" d="M96.5,64.42v7.39a6.13,6.13,0,0,0,1.5,4,8.65,8.65,0,0,0-6.43,8.33v4.93a1.23,1.23,0,0,0,1.23,1.23h19.71a1.23,1.23,0,0,0,1.23-1.23V84.13a8.63,8.63,0,0,0-6.43-8.33,6.09,6.09,0,0,0,1.51-4V67.89a3.69,3.69,0,0,0,2.46-3.47V62a1.23,1.23,0,0,0-1.23-1.23h-9.86A3.69,3.69,0,0,0,96.5,64.42ZM99,68.12h7.39v3.69a3.7,3.7,0,1,1-7.39,0Zm12.32,16v3.7h-2.46V82.9h-2.47v4.93H99V82.9H96.5v4.93H94v-3.7A6.18,6.18,0,0,1,100.19,78h4.93A6.17,6.17,0,0,1,111.28,84.13Zm-2.46-19.71a1.24,1.24,0,0,1-1.24,1.23H99V64.42a1.23,1.23,0,0,1,1.23-1.23h8.63Z"/><path class="cls-2" d="M91.57,73.05H94V70.58H91.57V69.35a3.7,3.7,0,0,0-3.7-3.7H84.18V60.73H81.71v4.92H78a3.7,3.7,0,0,0-3.7,3.7v1.23H71.86v2.47h2.46v1.23A3.7,3.7,0,0,0,78,78h9.85a3.7,3.7,0,0,0,3.7-3.69ZM89.1,74.28a1.23,1.23,0,0,1-1.23,1.23H78a1.24,1.24,0,0,1-1.24-1.23V69.35A1.24,1.24,0,0,1,78,68.12h9.85a1.23,1.23,0,0,1,1.23,1.23Z"/><rect class="cls-2" x="79.25" y="70.58" width="2.46" height="2.46"/><rect class="cls-2" x="84.18" y="70.58" width="2.46" height="2.46"/></svg>