<svg id="Layer_1" data-name="Layer 1" xmlns="http://www.w3.org/2000/svg" viewBox="0 0 98.86 123.36">
    <defs>
        <style>.cls-1{fill:#1d1d1b;}</style>
    </defs>
    <title>logo</title>
    
    <path class="cls-1" d="M88.25,60.22A39,39,0,1,1,20.9,36.78a.69.69,0,0,1,1.21.46V48a2,2,0,0,1-.23.92A31.1,31.1,0,1,0,80.42,61.46a31.09,31.09,0,0,0-43.1-26.72.41.41,0,0,1-.57-.38V27.19a.94.94,0,0,1,.65-.9A39,39,0,0,1,88.25,60.22Zm-15.08.43a23.9,23.9,0,1,1-47.64,2.76V6.67A.67.67,0,0,1,26.21,6h6.55a.68.68,0,0,1,.68.68v39a23.88,23.88,0,0,1,39.73,15ZM65.34,65A16,16,0,1,0,51.07,79.31,16,16,0,0,0,65.34,65Z"/>
    <path d="M3.66,118.75a2.81,2.81,0,0,1-1.05-1.16,3.83,3.83,0,0,1-.37-1.73,3.93,3.93,0,0,1,.37-1.76,2.76,2.76,0,0,1,1.06-1.18,3.12,3.12,0,0,1,1.6-.41,3.5,3.5,0,0,1,1.25.22,2.79,2.79,0,0,1,1,.62l-.31.62a3.53,3.53,0,0,0-1-.6,2.57,2.57,0,0,0-.94-.18,2,2,0,0,0-1.64.7,3,3,0,0,0-.6,2,2.85,2.85,0,0,0,.59,1.91,2.07,2.07,0,0,0,1.65.69,2.57,2.57,0,0,0,.94-.18,4,4,0,0,0,1-.58l.31.6a3.06,3.06,0,0,1-1,.62,3.35,3.35,0,0,1-1.23.23A3,3,0,0,1,3.66,118.75Z"/>
    <path d="M9.9,118.75a2.74,2.74,0,0,1-1-1.17,4.32,4.32,0,0,1,0-3.5,2.71,2.71,0,0,1,1-1.16,2.89,2.89,0,0,1,1.56-.41,2.78,2.78,0,0,1,1.53.41,2.71,2.71,0,0,1,1,1.16,4.43,4.43,0,0,1,0,3.5,2.74,2.74,0,0,1-1,1.17,2.86,2.86,0,0,1-1.53.4A3,3,0,0,1,9.9,118.75Zm3.12-1a3,3,0,0,0,.56-2,3.08,3.08,0,0,0-.56-2,1.92,1.92,0,0,0-1.56-.69,1.93,1.93,0,0,0-1.58.69,3.72,3.72,0,0,0,0,3.91,1.91,1.91,0,0,0,1.57.67A1.9,1.9,0,0,0,13,117.78Z"/>
    <path d="M25.12,115v4.08h-.78v-4a2.28,2.28,0,0,0-.34-1.41,1.3,1.3,0,0,0-1.1-.44,1.74,1.74,0,0,0-1.39.58,2.43,2.43,0,0,0-.5,1.6v3.7h-.78v-4a2.28,2.28,0,0,0-.35-1.41,1.33,1.33,0,0,0-1.11-.44,1.77,1.77,0,0,0-1.39.58,2.38,2.38,0,0,0-.51,1.6v3.7H16.1v-4.63a15.46,15.46,0,0,0-.1-1.78h.74l.1,1.15a2,2,0,0,1,.8-1,2.26,2.26,0,0,1,1.23-.33,1.87,1.87,0,0,1,2,1.25,2,2,0,0,1,.84-.92,2.58,2.58,0,0,1,1.31-.33C24.42,112.51,25.12,113.33,25.12,115Z"/>
    <path d="M36.23,115v4.08h-.78v-4a2.28,2.28,0,0,0-.34-1.41,1.3,1.3,0,0,0-1.1-.44,1.74,1.74,0,0,0-1.39.58,2.38,2.38,0,0,0-.51,1.6v3.7h-.77v-4a2.21,2.21,0,0,0-.36-1.41,1.3,1.3,0,0,0-1.1-.44,1.77,1.77,0,0,0-1.39.58,2.39,2.39,0,0,0-.52,1.6v3.7h-.76v-4.63a13.36,13.36,0,0,0-.11-1.78h.75l.1,1.15a2,2,0,0,1,.8-1,2.26,2.26,0,0,1,1.23-.33,1.87,1.87,0,0,1,2,1.25,2,2,0,0,1,.84-.92,2.55,2.55,0,0,1,1.31-.33C35.52,112.51,36.23,113.33,36.23,115Z"/>
    <path d="M43.47,112.66v6.41h-.76V117.9a2.14,2.14,0,0,1-.87.94,2.57,2.57,0,0,1-1.29.31,2.18,2.18,0,0,1-1.7-.62,2.68,2.68,0,0,1-.57-1.85v-4H39v4a2.11,2.11,0,0,0,.39,1.4,1.46,1.46,0,0,0,1.19.44,1.94,1.94,0,0,0,1.5-.59,2.19,2.19,0,0,0,.57-1.58v-3.63Z"/>
    <path d="M50.88,115v4.08H50.1v-4a2.12,2.12,0,0,0-.39-1.41,1.53,1.53,0,0,0-1.22-.44,2.1,2.1,0,0,0-1.55.58,2.17,2.17,0,0,0-.59,1.59v3.71h-.76v-4.63a15.46,15.46,0,0,0-.1-1.78h.74l.1,1.18a2.08,2.08,0,0,1,.88-1,2.62,2.62,0,0,1,1.36-.34C50.11,112.51,50.88,113.33,50.88,115Z"/>
    <path d="M52.86,110h1v1h-1Zm.12,9.06v-6.41h.76v6.41Z"/>
    <path d="M56.9,118.75a2.81,2.81,0,0,1-1-1.16,3.83,3.83,0,0,1-.37-1.73,3.93,3.93,0,0,1,.37-1.76,2.76,2.76,0,0,1,1.06-1.18,3.12,3.12,0,0,1,1.6-.41,3.5,3.5,0,0,1,1.25.22,2.79,2.79,0,0,1,1,.62l-.31.62a3.53,3.53,0,0,0-1-.6,2.57,2.57,0,0,0-.94-.18,2,2,0,0,0-1.64.7,3,3,0,0,0-.6,2,2.85,2.85,0,0,0,.59,1.91,2.07,2.07,0,0,0,1.65.69,2.57,2.57,0,0,0,.94-.18,4,4,0,0,0,1-.58l.31.6a3.06,3.06,0,0,1-1,.62,3.35,3.35,0,0,1-1.23.23A3,3,0,0,1,56.9,118.75Z"/>
    <path d="M67.59,112.66v6.41h-.78v-1.23a2.14,2.14,0,0,1-.85,1,2.69,2.69,0,0,1-1.36.33,2.77,2.77,0,0,1-1.51-.4,2.6,2.6,0,0,1-1-1.15,4,4,0,0,1-.35-1.74,4.07,4.07,0,0,1,.35-1.76,2.79,2.79,0,0,1,1-1.18,2.73,2.73,0,0,1,1.49-.41,2.65,2.65,0,0,1,1.35.33,2.2,2.2,0,0,1,.86,1v-1.15Zm-1.33,5.11a3.07,3.07,0,0,0,.55-1.94,3.1,3.1,0,0,0-.55-2,2.11,2.11,0,0,0-3.13,0,3.08,3.08,0,0,0-.57,2,2.91,2.91,0,0,0,.57,1.92,1.91,1.91,0,0,0,1.58.68A1.87,1.87,0,0,0,66.26,117.77Z"/>
    <path d="M70.8,113.29v3.81a1.48,1.48,0,0,0,.29,1.06,1.22,1.22,0,0,0,.87.29,2.26,2.26,0,0,0,.69-.11v.7a3.31,3.31,0,0,1-.83.1,1.8,1.8,0,0,1-1.32-.47,1.92,1.92,0,0,1-.48-1.42v-4H68.75v-.63H70V111l.78-.29v2h1.89v.63Z"/>
    <path d="M73.9,110h1v1h-1Zm.12,9.06v-6.41h.76v6.41Z"/>
    <path d="M77.92,118.75a2.67,2.67,0,0,1-1-1.17,4.32,4.32,0,0,1,0-3.5,2.65,2.65,0,0,1,1-1.16,2.89,2.89,0,0,1,1.56-.41A2.73,2.73,0,0,1,82,114.08a4.43,4.43,0,0,1,0,3.5,2.8,2.8,0,0,1-1,1.17,2.86,2.86,0,0,1-1.53.4A3,3,0,0,1,77.92,118.75Zm3.12-1a3.65,3.65,0,0,0,0-3.9,1.88,1.88,0,0,0-1.55-.69,1.93,1.93,0,0,0-1.58.69,3.08,3.08,0,0,0-.56,2,3,3,0,0,0,.55,2,2.18,2.18,0,0,0,3.15,0Z"/>
    <path d="M89.41,115v4.08h-.78v-4a2.12,2.12,0,0,0-.39-1.41,1.53,1.53,0,0,0-1.22-.44,2.1,2.1,0,0,0-1.55.58,2.17,2.17,0,0,0-.59,1.59v3.71h-.76v-4.63a13.36,13.36,0,0,0-.11-1.78h.74l.11,1.18a2,2,0,0,1,.88-1,2.6,2.6,0,0,1,1.35-.34C88.64,112.51,89.41,113.33,89.41,115Z"/>
    <path d="M91.12,118.3l.28-.6a3.44,3.44,0,0,0,1,.6,3.65,3.65,0,0,0,1.2.18,2.11,2.11,0,0,0,1.2-.28.89.89,0,0,0,.42-.8.85.85,0,0,0-.28-.68,2,2,0,0,0-.9-.4L93,116.07a2.31,2.31,0,0,1-1.21-.64,1.46,1.46,0,0,1-.44-1.07A1.63,1.63,0,0,1,92,113a2.77,2.77,0,0,1,1.72-.5,3.7,3.7,0,0,1,1.26.21,2.63,2.63,0,0,1,1,.63l-.3.6a2.88,2.88,0,0,0-1.93-.76,1.92,1.92,0,0,0-1.15.29,1,1,0,0,0-.41.82,1,1,0,0,0,.26.7,1.7,1.7,0,0,0,.82.4l1.1.26c1.15.26,1.72.83,1.72,1.71a1.54,1.54,0,0,1-.66,1.29,2.94,2.94,0,0,1-1.79.49A3.47,3.47,0,0,1,91.12,118.3Z"/>
</svg>