<svg id="Layer_1" data-name="Layer 1" xmlns="http://www.w3.org/2000/svg" viewBox="0 0 253.99 144.87"><defs><style>.cls-1{fill:#150f11;}</style></defs><title>open</title><path class="cls-1" d="M150.66,44A14.73,14.73,0,0,0,138,51.32a14.68,14.68,0,0,0-25.36,0,14.7,14.7,0,1,0,2,7.42,10.67,10.67,0,0,1,21.33,0v7.84a2,2,0,1,0,4,0V58.74a10.67,10.67,0,0,1,21.33,0v7.84a2,2,0,1,0,4,0V58.74A14.72,14.72,0,0,0,150.66,44ZM99.92,69.41a10.67,10.67,0,1,1,10.67-10.67A10.69,10.69,0,0,1,99.92,69.41Z"/><path class="cls-1" d="M150.66,64.57a2,2,0,0,0-2,2,10.67,10.67,0,1,1-21.33,0,2,2,0,0,0-4,0,14.71,14.71,0,1,0,29.41,0A2,2,0,0,0,150.66,64.57Z"/><path class="cls-1" d="M61.18,90.48a.58.58,0,0,1,.58-.65.59.59,0,0,1,.6.65v7.46c0,.06,0,.08.08.08h3.92a.57.57,0,1,1,0,1.13H61.75a.54.54,0,0,1-.57-.6Z"/><path class="cls-1" d="M75.81,90.48a.59.59,0,1,1,1.18,0v5.43c0,2.26-1.26,3.39-3.2,3.39s-3.19-1.13-3.19-3.39V90.48a.59.59,0,1,1,1.18,0v5.43c0,1.5.81,2.26,2,2.26s2-.76,2-2.26Z"/><path class="cls-1" d="M87.24,97.11A7.76,7.76,0,0,1,87,94.52a7.65,7.65,0,0,1,.26-2.58,3.23,3.23,0,0,1,6.12,0,8,8,0,0,1,.25,2.58,8.1,8.1,0,0,1-.25,2.59,3.23,3.23,0,0,1-6.12,0Zm5-.37a11.31,11.31,0,0,0,0-4.44,2,2,0,0,0-3.81,0,11.84,11.84,0,0,0,0,4.44,2,2,0,0,0,3.81,0Z"/><path class="cls-1" d="M98.18,90.44a.51.51,0,0,1,.54-.55h2.79a2.77,2.77,0,1,1,0,5.53H99.45c-.06,0-.08,0-.08.08v3.07a.6.6,0,1,1-1.19,0Zm5,2.22A1.57,1.57,0,0,0,101.47,91h-2c-.06,0-.08,0-.08.09v3.1c0,.06,0,.08.08.08h2A1.57,1.57,0,0,0,103.23,92.66Z"/><path class="cls-1" d="M108.71,90.44a.5.5,0,0,1,.53-.55h4.65a.57.57,0,1,1,0,1.13H110s-.08,0-.08.09v2.72a.07.07,0,0,0,.08.08h3.27a.57.57,0,1,1,0,1.13H110a.07.07,0,0,0-.08.08v2.82c0,.06,0,.08.08.08h3.92a.57.57,0,1,1,0,1.13h-4.65a.5.5,0,0,1-.53-.54Z"/><path class="cls-1" d="M118.85,90.56c0-.45.23-.73.65-.73s.57.23.79.62L124.15,97h0V90.44a.55.55,0,1,1,1.1,0v8c0,.45-.24.73-.65.73s-.58-.23-.81-.63L120,92.1h0v6.51a.55.55,0,1,1-1.1,0Z"/><path class="cls-1" d="M136,90.57a.66.66,0,0,1,.67-.74c.36,0,.56.21.74.65l2.5,5.79h0l2.46-5.79c.19-.44.37-.65.73-.65a.65.65,0,0,1,.66.74v8a.55.55,0,1,1-1.1,0v-6h0l-2.07,4.69c-.21.48-.39.6-.69.6s-.47-.12-.68-.6l-2.07-4.69h0v6a.54.54,0,0,1-.55.61.55.55,0,0,1-.56-.61Z"/><path class="cls-1" d="M148.67,90.48a.6.6,0,1,1,1.19,0v8.09a.6.6,0,1,1-1.19,0Z"/><path class="cls-1" d="M154.75,90.56c0-.45.24-.73.65-.73s.57.23.8.62L160.05,97h0V90.44a.55.55,0,1,1,1.1,0v8c0,.45-.24.73-.65.73s-.58-.23-.81-.63l-3.85-6.49h0v6.51a.55.55,0,1,1-1.1,0Z"/><path class="cls-1" d="M166.09,90.44a.5.5,0,0,1,.53-.55h2.3c1.76,0,2.83.71,3.27,2.11a7.46,7.46,0,0,1,.27,2.52,7.42,7.42,0,0,1-.27,2.52c-.44,1.41-1.51,2.11-3.27,2.11h-2.3a.5.5,0,0,1-.53-.54ZM167.36,98h1.48c1.2,0,1.89-.38,2.21-1.39a10.71,10.71,0,0,0,0-4.22c-.32-1-1-1.39-2.21-1.39h-1.48c-.06,0-.08,0-.08.09v6.83C167.28,98,167.3,98,167.36,98Z"/><path class="cls-1" d="M177,90.44a.5.5,0,0,1,.53-.55h4.65a.57.57,0,1,1,0,1.13h-3.92s-.08,0-.08.09v2.72a.07.07,0,0,0,.08.08h3.27a.57.57,0,1,1,0,1.13h-3.27a.07.07,0,0,0-.08.08v2.82c0,.06,0,.08.08.08h3.92a.57.57,0,1,1,0,1.13h-4.65a.5.5,0,0,1-.53-.54Z"/><path class="cls-1" d="M187.16,90.44a.51.51,0,0,1,.54-.55H190c1.75,0,2.83.71,3.26,2.11a7.46,7.46,0,0,1,.27,2.52,7.42,7.42,0,0,1-.27,2.52c-.43,1.41-1.51,2.11-3.26,2.11h-2.3a.5.5,0,0,1-.54-.54ZM188.43,98h1.49c1.19,0,1.88-.38,2.2-1.39a10.71,10.71,0,0,0,0-4.22c-.32-1-1-1.39-2.2-1.39h-1.49c-.06,0-.08,0-.08.09v6.83C188.35,98,188.37,98,188.43,98Z"/></svg>