<svg id="Layer_1" data-name="Layer 1" xmlns="http://www.w3.org/2000/svg" viewBox="0 0 253.99 144.87"><defs><style>.cls-1{fill:#1b181c;}</style></defs><title>maritec</title><path class="cls-1" d="M147.42,73.62a5.94,5.94,0,0,0,3.66-5.5v0a6,6,0,0,0-.69-2.77s0,0,0-.08l-.06-.1a5.41,5.41,0,0,0-.76-1,3.58,3.58,0,0,0-.26-.29c-.05-.05-.11-.1-.16-.16l-.14-.11,0,0a1.56,1.56,0,0,0-.2-.16h0l-.2-.15a6.2,6.2,0,0,0-2.18-.91,8.83,8.83,0,0,0-2.05-.22H137.4V80.4h3.8v-6h2.39l3.37,6h4.36ZM147,68.26v0c0,1.65-1.05,2.75-3,2.75h-2.8V65.52h2.72C145.86,65.52,147,66.43,147,68.26Z"/><path class="cls-1" d="M74.51,95a21.47,21.47,0,0,1-17-8.3,6.29,6.29,0,0,0,4,.22,18.85,18.85,0,0,0,26.28,0,7.92,7.92,0,0,0,1.55.2,6.22,6.22,0,0,0,2.34-.46A21.47,21.47,0,0,1,74.51,95Z"/><path class="cls-1" d="M65.32,80.59c0-.09,0-.18,0-.27h0V63.74a1.84,1.84,0,0,1,3.68,0L69,69V80.33a5.51,5.51,0,1,0,11,0V69s0-5.12,0-5.2v0a1.84,1.84,0,0,1,3.68,0L83.75,69V80.32a1.93,1.93,0,0,0,0,.24,5.53,5.53,0,0,0,4,5.29h.06a8.05,8.05,0,0,0,1.4.21h.11a5.54,5.54,0,0,0,4.84-2.86l0-.07.08-.15a22.1,22.1,0,1,0-39.55-.3,6.15,6.15,0,0,0,.43.85,5.56,5.56,0,0,0,4.69,2.58,5.32,5.32,0,0,0,1.65-.25A5.54,5.54,0,0,0,65.32,80.59ZM61.67,64.18V80.56a1.87,1.87,0,0,1-3.3,1.18c-.13-.24-.25-.47-.36-.71s-.23-.49-.34-.74a17.86,17.86,0,0,1-1.24-4.12A18.4,18.4,0,1,1,93,73a18.58,18.58,0,0,1-1.52,7.34c-.13.3-.28.6-.42.89a2.49,2.49,0,0,0-.22.43l0,.06s0,0,0-.06a1.87,1.87,0,0,1-3.4-1.06v-.26h0V63.74h0a5.51,5.51,0,0,0-11,0l0,11.36,0,5.18a1.85,1.85,0,1,1-3.69,0V63.74a5.51,5.51,0,0,0-11,0v0C61.66,63.92,61.66,64.05,61.67,64.18Z"/><path class="cls-1" d="M87.7,85.85h0Z"/><path class="cls-1" d="M89.26,86.07h0Z"/><path class="cls-1" d="M197.87,77.25a5.82,5.82,0,1,1,0-11.63,5.74,5.74,0,0,1,3,.83L203.27,64a9.34,9.34,0,1,0,.13,14.69L201,76.33A5.81,5.81,0,0,1,197.87,77.25Z"/><path class="cls-1" d="M100.34,62h4l4.08,7.43,4-7.43h4V80.29h-3.72V68.59l-4.32,7.56h-.08L104,68.64V80.29h-3.69Z"/><path class="cls-1" d="M125.21,61.92h3.61l6.56,18.43h-3.92l-1.36-4h-6.3l-1.34,4h-3.82ZM129,73l-2-6-2,6Z"/><path class="cls-1" d="M153.74,62.15h3.79V80.46h-3.79Z"/><path class="cls-1" d="M164.29,65.72h-4.6V62.21h13v3.51h-4.6v14.8h-3.77Z"/><path class="cls-1" d="M174.53,62.27h11.8V65.7h-8v4h7.07v3.42h-7.07v4.09h8.14v3.42h-11.9Z"/></svg>