<svg id="Layer_1" data-name="Layer 1" xmlns="http://www.w3.org/2000/svg" viewBox="0 0 469.16 40.38"><defs><style>.cls-1{fill:#1a171b;}</style></defs><title>dagnis_logo</title><path class="cls-1" d="M289.29,17.7h0L273.64,2.05l-2.38,2.38,14,14H159.6v3.38H285.22l-14,14,2.38,2.39,18-18Zm-2.65,2.11.27.27-.27.27Z"/><path d="M23.2,33.67a12.21,12.21,0,0,1-8.87,3.21H2.21V3.29H14.33A12.21,12.21,0,0,1,23.2,6.5c3.78,3.77,3.4,8.39,3.4,13.44S27,29.9,23.2,33.67ZM18.63,11.21a5.9,5.9,0,0,0-4.91-2.07h-5V31h5A5.87,5.87,0,0,0,18.63,29C19.85,27.44,20,25,20,19.94S19.85,12.72,18.63,11.21Z"/><path d="M50,36.88l-2-6H36.12l-2,6H27.25L39.47,3.29h5.14L56.87,36.88ZM42.2,13.2,38,25.41h8.35Z"/><path d="M79.36,33.34a12.59,12.59,0,0,1-9.48,3.82,12.31,12.31,0,0,1-9.06-3.68,9.66,9.66,0,0,1-2.73-5,45.47,45.47,0,0,1-.57-8.35,45.54,45.54,0,0,1,.57-8.35,9.48,9.48,0,0,1,2.73-5A12.31,12.31,0,0,1,69.88,3c7.64,0,11.75,4.9,12.64,10.75h-6.6c-.8-3.25-2.78-4.9-6-4.9a5.36,5.36,0,0,0-4.2,1.79c-1.22,1.56-1.6,2.78-1.6,9.43s.28,7.93,1.6,9.49a5.19,5.19,0,0,0,4.2,1.74,6,6,0,0,0,4.67-1.89,6.59,6.59,0,0,0,1.51-4.48V23.67H69.88V18.2H82.57v4.9C82.57,28,81.68,30.89,79.36,33.34Z"/><path d="M106.74,36.88,93.43,16.26V36.88H86.87V3.29h5.85L106,23.86V3.29h6.56V36.88Z"/><path d="M118.16,36.88V3.29h6.56V36.88Z"/><path d="M140.08,37.16c-5.09,0-9-1.08-12.26-4.43l4.24-4.25c2.12,2.12,5,2.83,8.12,2.83,3.86,0,5.94-1.46,5.94-4.15a3.73,3.73,0,0,0-1-2.83,5,5,0,0,0-3-1.18l-4.06-.57a11.4,11.4,0,0,1-6.51-2.78,8.87,8.87,0,0,1-2.4-6.6c0-6,4.43-10.19,11.7-10.19,4.62,0,8,1.13,10.85,3.91L147.54,11a9.37,9.37,0,0,0-6.89-2.32c-3.49,0-5.19,1.94-5.19,4.25a3.24,3.24,0,0,0,1,2.41,5.82,5.82,0,0,0,3.11,1.32l4,.56c3.06.43,5,1.28,6.41,2.6,1.8,1.7,2.6,4.15,2.6,7.12C152.54,33.48,147.11,37.16,140.08,37.16Z"/><path d="M310.54,37.16c-5.1,0-9-1.08-12.27-4.43l4.25-4.25c2.12,2.12,5,2.83,8.11,2.83,3.87,0,5.95-1.46,5.95-4.15a3.73,3.73,0,0,0-1-2.83,5,5,0,0,0-3-1.18l-4.06-.57A11.37,11.37,0,0,1,302,19.8a8.88,8.88,0,0,1-2.41-6.6C299.59,7.2,304,3,311.29,3c4.63,0,8,1.13,10.86,3.91L318,11a9.34,9.34,0,0,0-6.88-2.32c-3.5,0-5.19,1.94-5.19,4.25a3.24,3.24,0,0,0,1,2.41A5.79,5.79,0,0,0,310,16.69l4,.56c3.07.43,5,1.28,6.42,2.6C322.19,21.55,323,24,323,27,323,33.48,317.57,37.16,310.54,37.16Z"/><path d="M346.3,36.88l-8.63-15.29-4.34,5.19v10.1h-6.56V3.29h6.56V17.91L345.17,3.29h8L342,16.64,354,36.88Z"/><path d="M368.53,37.16c-6.89,0-12.36-4.67-12.36-11.79V3.29h6.55V25.13c0,3.87,2.27,6.18,5.81,6.18s5.85-2.31,5.85-6.18V3.29h6.51V25.37C380.89,32.49,375.41,37.16,368.53,37.16Z"/><path d="M404,36.88l-6.56-13.4H392.7v13.4h-6.56V3.29H399.3c6.84,0,10.9,4.67,10.9,10.28a9.06,9.06,0,0,1-6.13,8.83l7.5,14.48ZM398.88,9.14H392.7V18h6.18c2.87,0,4.76-1.84,4.76-4.44S401.75,9.14,398.88,9.14Z"/><path d="M429.08,36.88H415V3.29h13.49c6.56,0,10.38,3.68,10.38,9.43a7.77,7.77,0,0,1-4.16,6.94,7.81,7.81,0,0,1,4.63,7.55C439.37,33.48,435.08,36.88,429.08,36.88ZM428,9.14h-6.42v7.74H428c2.78,0,4.34-1.56,4.34-3.87S430.78,9.14,428,9.14Zm.42,13.63h-6.84V31h6.84c3,0,4.39-1.89,4.39-4.15S431.4,22.77,428.42,22.77Z"/><path d="M443.78,36.88V3.29h22.13V9.14H450.34V17h13.25v5.85H450.34V31h15.57v5.85Z"/></svg>