<svg id="Layer_1" data-name="Layer 1" xmlns="http://www.w3.org/2000/svg" viewBox="0 0 329.61 30.28"><defs><style>.cls-1{fill:#010101;}</style></defs><title>behance</title><path class="cls-1" d="M26.39,26.29H17.06V4h9c4.36,0,6.89,2.44,6.89,6.26a5.16,5.16,0,0,1-2.75,4.61,5.18,5.18,0,0,1,3.07,5C33.22,24,30.37,26.29,26.39,26.29ZM25.67,7.87H21.41V13h4.26c1.85,0,2.88-1,2.88-2.57S27.52,7.87,25.67,7.87ZM26,16.92H21.41V22.4H26a2.64,2.64,0,0,0,2.91-2.75A2.62,2.62,0,0,0,26,16.92Z"/><path class="cls-1" d="M36.45,26.29V4H51.14V7.87H40.8V13.1h8.8V17H40.8V22.4H51.14v3.89Z"/><path class="cls-1" d="M66.16,26.29V17H58.62v9.34H54.26V4h4.36V13.1h7.54V4h4.35v22.3Z"/><path class="cls-1" d="M87.82,26.29l-1.31-3.95H78.58l-1.34,3.95H72.7L80.81,4h3.41l8.14,22.3Zm-5.2-15.72-2.81,8.11h5.54Z"/><path class="cls-1" d="M107.73,26.29,98.9,12.6V26.29H94.54V4h3.89l8.83,13.65V4h4.35v22.3Z"/><path class="cls-1" d="M123.19,26.47a8.16,8.16,0,0,1-6-2.44,6.46,6.46,0,0,1-1.82-3.35,30.54,30.54,0,0,1-.37-5.54,30.54,30.54,0,0,1,.37-5.54,6.31,6.31,0,0,1,1.82-3.35,8.17,8.17,0,0,1,6-2.45c4.29,0,7.45,2.51,8.2,7.05H127a3.67,3.67,0,0,0-3.76-3.16,3.42,3.42,0,0,0-2.78,1.15c-.91,1-1.1,2-1.1,6.3s.19,5.32,1.1,6.29a3.43,3.43,0,0,0,2.78,1.16A3.67,3.67,0,0,0,127,19.43h4.41A7.87,7.87,0,0,1,123.19,26.47Z"/><path class="cls-1" d="M134.06,26.29V4h14.69V7.87H138.42V13.1h8.79V17h-8.79V22.4h10.33v3.89Z"/><path class="cls-1" d="M164.84,26.47c-3.38,0-5.94-.72-8.14-2.94l2.82-2.82a7.3,7.3,0,0,0,5.39,1.88c2.56,0,3.94-1,3.94-2.75a2.48,2.48,0,0,0-.69-1.88,3.33,3.33,0,0,0-2-.79l-2.69-.37A7.55,7.55,0,0,1,159.18,15a5.85,5.85,0,0,1-1.6-4.38c0-4,2.94-6.77,7.76-6.77a9.6,9.6,0,0,1,7.21,2.6l-2.76,2.73a6.2,6.2,0,0,0-4.57-1.54c-2.32,0-3.44,1.29-3.44,2.82a2.16,2.16,0,0,0,.65,1.6,3.86,3.86,0,0,0,2.07.87l2.63.38A7.4,7.4,0,0,1,171.39,15a6.25,6.25,0,0,1,1.72,4.73C173.11,24,169.51,26.47,164.84,26.47Z"/><path class="cls-1" d="M187.83,26.29V17h-7.55v9.34h-4.35V4h4.35V13.1h7.55V4h4.35v22.3Z"/><path class="cls-1" d="M209.79,24a8.66,8.66,0,0,1-12,0c-2.26-2.25-2.2-5-2.2-8.89s-.06-6.64,2.2-8.89a8.63,8.63,0,0,1,12,0c2.26,2.25,2.22,5,2.22,8.89S212.05,21.78,209.79,24ZM206.57,8.88a3.63,3.63,0,0,0-2.79-1.19A3.7,3.7,0,0,0,201,8.88c-.84.94-1.06,2-1.06,6.26s.22,5.32,1.06,6.26a3.7,3.7,0,0,0,2.82,1.19,3.63,3.63,0,0,0,2.79-1.19c.84-.94,1.09-2,1.09-6.26S207.41,9.82,206.57,8.88Z"/><path class="cls-1" d="M234.39,26.29h-3.63l-4.1-13.53-4.1,13.53h-3.63L213,4h4.54L221,18.05,225,4h3.26l4.07,14.06L235.83,4h4.54Z"/><path class="cls-1" d="M249.56,26.47a8.18,8.18,0,0,1-6-2.44,6.45,6.45,0,0,1-1.81-3.35,30.36,30.36,0,0,1-.38-5.54,30.36,30.36,0,0,1,.38-5.54,6.3,6.3,0,0,1,1.81-3.35,8.19,8.19,0,0,1,6-2.45c4.29,0,7.45,2.51,8.2,7.05h-4.41a3.67,3.67,0,0,0-3.76-3.16,3.45,3.45,0,0,0-2.79,1.15c-.91,1-1.09,2-1.09,6.3s.18,5.32,1.09,6.29a3.46,3.46,0,0,0,2.79,1.16,3.67,3.67,0,0,0,3.76-3.16h4.41A7.87,7.87,0,0,1,249.56,26.47Z"/><path class="cls-1" d="M273.3,26.29,272,22.34h-7.92l-1.35,3.95h-4.54L266.29,4h3.41l8.14,22.3Zm-5.19-15.72-2.82,8.11h5.54Z"/><path class="cls-1" d="M286.78,26.47c-3.38,0-5.95-.72-8.14-2.94l2.82-2.82a7.29,7.29,0,0,0,5.38,1.88c2.57,0,4-1,4-2.75A2.48,2.48,0,0,0,290.1,18a3.33,3.33,0,0,0-2-.79l-2.69-.37A7.61,7.61,0,0,1,281.11,15a5.89,5.89,0,0,1-1.59-4.38c0-4,2.94-6.77,7.76-6.77a9.57,9.57,0,0,1,7.2,2.6l-2.75,2.73a6.2,6.2,0,0,0-4.57-1.54c-2.32,0-3.45,1.29-3.45,2.82a2.17,2.17,0,0,0,.66,1.6,3.86,3.86,0,0,0,2.07.87l2.63.38A7.43,7.43,0,0,1,293.33,15a6.25,6.25,0,0,1,1.72,4.73C295.05,24,291.45,26.47,286.78,26.47Z"/><path class="cls-1" d="M297.87,26.29V4h14.68V7.87H302.22V13.1H311V17h-8.8V22.4h10.33v3.89Z"/></svg>