<?xml version="1.0" encoding="utf-8"?>
<!-- Generator: Adobe Illustrator 22.0.0, SVG Export Plug-In . SVG Version: 6.00 Build 0)  -->
<svg version="1.1" id="Layer_1" xmlns="http://www.w3.org/2000/svg" xmlns:xlink="http://www.w3.org/1999/xlink" x="0px" y="0px"
	 viewBox="0 0 329.6 30.3" style="enable-background:new 0 0 329.6 30.3;" xml:space="preserve">
<title>consider</title>
<g>
	<path d="M46.9,19.5c-0.8,0.8-1.7,1.2-3,1.2c-1.3,0-2.2-0.4-3-1.2c-1.1-1.1-1.1-2.5-1.1-4.4c0-1.9,0-3.3,1.1-4.4
		c0.8-0.8,1.7-1.2,3-1.2c1.3,0,2.2,0.4,3,1.2c1.1,1.1,1.1,2.5,1.1,4.4C48,17,48,18.4,46.9,19.5z M45.3,12c-0.3-0.4-0.8-0.6-1.4-0.6
		c-0.6,0-1.1,0.2-1.4,0.6c-0.4,0.5-0.5,1-0.5,3.1c0,2.1,0.1,2.6,0.5,3.1c0.3,0.4,0.8,0.6,1.4,0.6c0.6,0,1.1-0.2,1.4-0.6
		c0.4-0.5,0.5-1,0.5-3.1C45.9,13,45.7,12.5,45.3,12z"/>
	<path d="M54,11.5v9.1h-2.2v-9.1H49V9.6h7.9v1.9H54z"/>
	<path d="M64.1,20.7V16h-3.7v4.6h-2.2v-11h2.2v4.5h3.7V9.6h2.2v11H64.1z"/>
	<path d="M68.4,20.7v-11h7.3v1.9h-5.1v2.6h4.4v1.9h-4.4v2.7h5.1v1.9H68.4z"/>
	<path d="M83.1,20.7L81,16.3h-1.6v4.4h-2.2v-11h4.3c2.2,0,3.6,1.5,3.6,3.4c0,1.5-0.9,2.5-2,2.9l2.5,4.8H83.1z M81.5,11.5h-2v2.9h2
		c0.9,0,1.6-0.6,1.6-1.5C83,12.1,82.4,11.5,81.5,11.5z"/>
	<path d="M96.1,20.7l-2.2-4.4h-1.6v4.4h-2.2v-11h4.3c2.2,0,3.6,1.5,3.6,3.4c0,1.5-0.9,2.5-2,2.9l2.5,4.8H96.1z M94.4,11.5h-2v2.9h2
		c0.9,0,1.6-0.6,1.6-1.5C96,12.1,95.4,11.5,94.4,11.5z"/>
	<path d="M100,20.7v-11h7.3v1.9h-5.1v2.6h4.4v1.9h-4.4v2.7h5.1v1.9H100z"/>
	<path d="M112.4,20.8c-1.2,0-2.2-0.4-3-1.2c-0.5-0.5-0.8-1-0.9-1.7s-0.2-1.5-0.2-2.7c0-1.2,0.1-2.1,0.2-2.7c0.1-0.6,0.4-1.2,0.9-1.7
		c0.8-0.8,1.8-1.2,3-1.2c2.1,0,3.7,1.2,4.1,3.5h-2.2c-0.2-0.9-0.8-1.6-1.9-1.6c-0.6,0-1.1,0.2-1.4,0.6c-0.4,0.5-0.5,1-0.5,3.1
		c0,2.1,0.1,2.6,0.5,3.1c0.3,0.4,0.8,0.6,1.4,0.6c1,0,1.6-0.6,1.9-1.6h2.2C116.1,19.5,114.6,20.8,112.4,20.8z"/>
	<path d="M117.9,20.7v-11h7.3v1.9h-5.1v2.6h4.4v1.9h-4.4v2.7h5.1v1.9H117.9z"/>
	<path d="M133.3,20.7l-4.4-6.8v6.8h-2.2v-11h1.9l4.4,6.8V9.6h2.2v11H133.3z"/>
	<path d="M141.7,11.5v9.1h-2.2v-9.1h-2.9V9.6h7.9v1.9H141.7z"/>
	<path d="M153.7,20.7h-4.6v-11h4.4c2.2,0,3.4,1.2,3.4,3.1c0,1.2-0.8,2-1.4,2.3c0.7,0.3,1.5,1,1.5,2.5
		C157.1,19.5,155.7,20.7,153.7,20.7z M153.4,11.5h-2.1v2.5h2.1c0.9,0,1.4-0.5,1.4-1.3C154.8,12.1,154.3,11.5,153.4,11.5z M153.5,16
		h-2.2v2.7h2.2c1,0,1.4-0.6,1.4-1.4S154.5,16,153.5,16z"/>
	<path d="M164.7,20.7l-2.2-4.4H161v4.4h-2.2v-11h4.3c2.2,0,3.6,1.5,3.6,3.4c0,1.5-0.9,2.5-2,2.9l2.5,4.8H164.7z M163,11.5h-2v2.9h2
		c0.9,0,1.6-0.6,1.6-1.5C164.6,12.1,163.9,11.5,163,11.5z"/>
	<path d="M175.4,20.7l-0.7-2h-3.9l-0.7,2h-2.2l4-11h1.7l4,11H175.4z M172.8,12.9l-1.4,4h2.7L172.8,12.9z"/>
	<path d="M185.3,20.7l-4.4-6.8v6.8h-2.2v-11h1.9l4.4,6.8V9.6h2.2v11H185.3z"/>
	<path d="M196.2,19.6c-0.7,0.7-1.8,1.1-2.9,1.1h-4v-11h4c1.1,0,2.2,0.3,2.9,1.1c1.2,1.2,1.1,2.8,1.1,4.4S197.5,18.4,196.2,19.6z
		 M194.7,12.2c-0.4-0.4-0.9-0.7-1.6-0.7h-1.6v7.2h1.6c0.7,0,1.2-0.2,1.6-0.7c0.4-0.5,0.5-1.3,0.5-3
		C195.2,13.4,195.1,12.7,194.7,12.2z"/>
	<path d="M203.7,20.7h-4.6v-11h4.4c2.2,0,3.4,1.2,3.4,3.1c0,1.2-0.8,2-1.4,2.3c0.7,0.3,1.5,1,1.5,2.5
		C207.1,19.5,205.7,20.7,203.7,20.7z M203.4,11.5h-2.1v2.5h2.1c0.9,0,1.4-0.5,1.4-1.3C204.8,12.1,204.3,11.5,203.4,11.5z M203.5,16
		h-2.2v2.7h2.2c1,0,1.4-0.6,1.4-1.4S204.5,16,203.5,16z"/>
	<path d="M215.5,19.5c-0.8,0.8-1.7,1.2-3,1.2s-2.2-0.4-3-1.2c-1.1-1.1-1.1-2.5-1.1-4.4c0-1.9,0-3.3,1.1-4.4c0.8-0.8,1.7-1.2,3-1.2
		s2.2,0.4,3,1.2c1.1,1.1,1.1,2.5,1.1,4.4C216.6,17,216.6,18.4,215.5,19.5z M213.9,12c-0.3-0.4-0.8-0.6-1.4-0.6s-1.1,0.2-1.4,0.6
		c-0.4,0.5-0.5,1-0.5,3.1c0,2.1,0.1,2.6,0.5,3.1c0.3,0.4,0.8,0.6,1.4,0.6s1.1-0.2,1.4-0.6c0.4-0.5,0.5-1,0.5-3.1
		C214.5,13,214.3,12.5,213.9,12z"/>
	<path d="M225.1,19.5c-0.8,0.8-1.7,1.2-3,1.2s-2.2-0.4-3-1.2c-1.1-1.1-1.1-2.5-1.1-4.4c0-1.9,0-3.3,1.1-4.4c0.8-0.8,1.7-1.2,3-1.2
		s2.2,0.4,3,1.2c1.1,1.1,1.1,2.5,1.1,4.4C226.2,17,226.2,18.4,225.1,19.5z M223.5,12c-0.3-0.4-0.8-0.6-1.4-0.6s-1.1,0.2-1.4,0.6
		c-0.4,0.5-0.5,1-0.5,3.1c0,2.1,0.1,2.6,0.5,3.1c0.3,0.4,0.8,0.6,1.4,0.6s1.1-0.2,1.4-0.6c0.4-0.5,0.5-1,0.5-3.1
		C224,13,223.9,12.5,223.5,12z"/>
	<path d="M234.3,20.7l-2.8-5l-1.4,1.7v3.3h-2.2v-11h2.2v4.8l3.9-4.8h2.6l-3.7,4.4l3.9,6.7H234.3z"/>
	<path d="M241.2,20.8c-1.7,0-2.9-0.4-4-1.5l1.4-1.4c0.7,0.7,1.6,0.9,2.7,0.9c1.3,0,2-0.5,2-1.4c0-0.4-0.1-0.7-0.3-0.9
		c-0.2-0.2-0.5-0.3-1-0.4l-1.3-0.2c-0.9-0.1-1.6-0.4-2.1-0.9c-0.5-0.5-0.8-1.2-0.8-2.2c0-2,1.5-3.3,3.8-3.3c1.5,0,2.6,0.4,3.6,1.3
		l-1.4,1.3c-0.7-0.7-1.5-0.8-2.3-0.8c-1.1,0-1.7,0.6-1.7,1.4c0,0.3,0.1,0.6,0.3,0.8c0.2,0.2,0.6,0.4,1,0.4l1.3,0.2
		c1,0.1,1.6,0.4,2.1,0.9c0.6,0.6,0.9,1.4,0.9,2.3C245.3,19.5,243.6,20.8,241.2,20.8z"/>
	<path d="M251.9,22.1c-0.5-0.5-1-1-1.4-1.6c-0.4-0.6-0.4-1.3-0.4-2v-6.8c0-0.7,0-1.4,0.4-2c0.4-0.6,0.9-1.1,1.4-1.6l1.3,1.3
		c-0.4,0.4-0.6,0.6-0.9,1c-0.2,0.3-0.2,0.7-0.2,1.3v6.6c0,0.6,0.1,1,0.2,1.3c0.3,0.4,0.5,0.7,0.9,1L251.9,22.1z"/>
	<path d="M259.1,16.5h-2.1v4.2h-2.2v-11h4.3c2.3,0,3.6,1.6,3.6,3.4C262.7,14.9,261.3,16.5,259.1,16.5z M259,11.5h-2v3h2
		c1,0,1.6-0.6,1.6-1.5C260.5,12.2,259.9,11.5,259,11.5z"/>
	<path d="M271,19.6c-0.7,0.7-1.8,1.1-2.9,1.1h-4v-11h4c1.1,0,2.2,0.3,2.9,1.1c1.2,1.2,1.1,2.8,1.1,4.4S272.2,18.4,271,19.6z
		 M269.5,12.2c-0.4-0.4-0.9-0.7-1.6-0.7h-1.6v7.2h1.6c0.7,0,1.2-0.2,1.6-0.7c0.4-0.5,0.5-1.3,0.5-3
		C269.9,13.4,269.9,12.7,269.5,12.2z"/>
	<path d="M276,11.5v2.7h4.4v1.9H276v4.5h-2.2v-11h7.3v1.9H276z"/>
	<path d="M285,20.5c-0.4,0.6-0.9,1.1-1.4,1.6l-1.4-1.4c0.4-0.4,0.6-0.6,0.9-1c0.2-0.3,0.2-0.7,0.2-1.3v-6.6c0-0.6-0.1-1-0.2-1.3
		c-0.3-0.4-0.5-0.7-0.9-1l1.4-1.4c0.5,0.5,1,1,1.4,1.6c0.4,0.6,0.4,1.3,0.4,2v6.8C285.4,19.2,285.3,19.9,285,20.5z"/>
	<path d="M287.4,16.5v-2.3h2.3v2.3H287.4z M287.4,20.7v-2.3h2.3v2.3H287.4z"/>
</g>
</svg>
