<svg id="Layer_1" data-name="Layer 1" xmlns="http://www.w3.org/2000/svg" viewBox="0 0 329.61 30.28"><defs><style>.cls-1{fill:#010101;}</style></defs><title>consider</title><path class="cls-1" d="M71.05,16.52H68.89v4.22H66.71V9.54h4.34a3.5,3.5,0,1,1,0,7Zm-.11-5h-2v3.07h2a1.54,1.54,0,1,0,0-3.07Z"/><path class="cls-1" d="M76.15,20.74V9.54h2.19v9.25h5.08v1.95Z"/><path class="cls-1" d="M84.79,20.74V9.54h7.38v2H87v2.63H91.4v2H87v2.72h5.19v1.95Z"/><path class="cls-1" d="M100.71,20.74l-.66-2h-4l-.68,2H93.11l4.08-11.2H98.9L103,20.74Zm-2.61-7.9-1.42,4.08h2.79Z"/><path class="cls-1" d="M107.56,20.83a5.25,5.25,0,0,1-4.09-1.48l1.42-1.41a3.63,3.63,0,0,0,2.7.94c1.29,0,2-.49,2-1.38a1.28,1.28,0,0,0-.35-.95,1.7,1.7,0,0,0-1-.39L106.88,16a3.79,3.79,0,0,1-2.17-.93,3,3,0,0,1-.8-2.2c0-2,1.48-3.4,3.9-3.4a4.8,4.8,0,0,1,3.62,1.31l-1.38,1.37a3.11,3.11,0,0,0-2.3-.77c-1.16,0-1.73.64-1.73,1.41a1.07,1.07,0,0,0,.33.81,2,2,0,0,0,1,.44l1.32.18a3.77,3.77,0,0,1,2.14.87,3.13,3.13,0,0,1,.86,2.38C111.71,19.61,109.91,20.83,107.56,20.83Z"/><path class="cls-1" d="M113.23,20.74V9.54h7.37v2h-5.19v2.63h4.42v2h-4.42v2.72h5.19v1.95Z"/><path class="cls-1" d="M129.35,20.83a4.14,4.14,0,0,1-3-1.22,3.27,3.27,0,0,1-.91-1.69,14.82,14.82,0,0,1-.19-2.78,14.94,14.94,0,0,1,.19-2.79,3.21,3.21,0,0,1,.91-1.68,4.11,4.11,0,0,1,3-1.23A3.94,3.94,0,0,1,133.47,13h-2.21a1.85,1.85,0,0,0-1.89-1.59A1.71,1.71,0,0,0,128,12c-.46.48-.55,1-.55,3.16s.09,2.67.55,3.16a1.73,1.73,0,0,0,1.4.58,1.85,1.85,0,0,0,1.89-1.59h2.21A3.94,3.94,0,0,1,129.35,20.83Z"/><path class="cls-1" d="M141.86,19.61a4.36,4.36,0,0,1-6.05,0c-1.14-1.14-1.1-2.54-1.1-4.47s0-3.34,1.1-4.47a4.33,4.33,0,0,1,6.05,0C143,11.8,143,13.2,143,15.14S143,18.47,141.86,19.61ZM140.24,12a1.81,1.81,0,0,0-1.4-.6,1.85,1.85,0,0,0-1.41.6c-.43.47-.54,1-.54,3.15s.11,2.67.54,3.14a1.82,1.82,0,0,0,1.41.6,1.78,1.78,0,0,0,1.4-.6c.43-.47.55-1,.55-3.14S140.67,12.46,140.24,12Z"/><path class="cls-1" d="M151.38,20.74l-4.44-6.88v6.88h-2.18V9.54h2l4.43,6.86V9.54h2.19v11.2Z"/><path class="cls-1" d="M158.71,20.83a5.27,5.27,0,0,1-4.09-1.48L156,17.94a3.67,3.67,0,0,0,2.71.94c1.29,0,2-.49,2-1.38a1.24,1.24,0,0,0-.35-.95,1.7,1.7,0,0,0-1-.39L158,16a3.76,3.76,0,0,1-2.17-.93,2.92,2.92,0,0,1-.81-2.2c0-2,1.48-3.4,3.91-3.4a4.78,4.78,0,0,1,3.61,1.31l-1.38,1.37a3.11,3.11,0,0,0-2.3-.77c-1.16,0-1.73.64-1.73,1.41a1.11,1.11,0,0,0,.33.81,2,2,0,0,0,1,.44l1.32.18a3.74,3.74,0,0,1,2.14.87,3.13,3.13,0,0,1,.87,2.38C162.87,19.61,161.06,20.83,158.71,20.83Z"/><path class="cls-1" d="M164.38,20.74V9.54h2.19v11.2Z"/><path class="cls-1" d="M175.65,19.67a4.09,4.09,0,0,1-3,1.07h-4V9.54h4a4.09,4.09,0,0,1,3,1.07c1.26,1.26,1.13,2.8,1.13,4.48S176.91,18.41,175.65,19.67Zm-1.53-7.49a1.93,1.93,0,0,0-1.63-.69h-1.66v7.3h1.66a2,2,0,0,0,1.63-.69c.41-.51.47-1.31.47-3S174.53,12.68,174.12,12.18Z"/><path class="cls-1" d="M178.54,20.74V9.54h7.38v2h-5.19v2.63h4.42v2h-4.42v2.72h5.19v1.95Z"/><path class="cls-1" d="M193.53,20.74l-2.19-4.47h-1.57v4.47h-2.19V9.54H192A3.38,3.38,0,0,1,195.6,13a3,3,0,0,1-2,2.94l2.5,4.83Zm-1.7-9.25h-2.06v3h2.06a1.48,1.48,0,1,0,0-3Z"/><path class="cls-1" d="M204.81,20.74h-1.64l-3.7-11.2h2.27l2.25,7.3,2.25-7.3h2.28Z"/><path class="cls-1" d="M209.69,20.74V9.54h2.18v11.2Z"/><path class="cls-1" d="M217.23,20.83a5.27,5.27,0,0,1-4.09-1.48l1.42-1.41a3.67,3.67,0,0,0,2.71.94c1.29,0,2-.49,2-1.38a1.24,1.24,0,0,0-.35-.95,1.7,1.7,0,0,0-1-.39L216.56,16a3.76,3.76,0,0,1-2.17-.93,2.92,2.92,0,0,1-.81-2.2c0-2,1.48-3.4,3.91-3.4a4.78,4.78,0,0,1,3.61,1.31l-1.38,1.37a3.11,3.11,0,0,0-2.3-.77c-1.16,0-1.73.64-1.73,1.41a1.11,1.11,0,0,0,.33.81,2,2,0,0,0,1,.44l1.32.18a3.74,3.74,0,0,1,2.14.87,3.13,3.13,0,0,1,.87,2.38C221.39,19.61,219.58,20.83,217.23,20.83Z"/><path class="cls-1" d="M222.9,20.74V9.54h2.19v11.2Z"/><path class="cls-1" d="M231.55,11.49v9.25h-2.18V11.49h-2.93v-2h8v2Z"/><path class="cls-1" d="M235.85,20.74V9.54H238v11.2Z"/><path class="cls-1" d="M246.74,20.74l-4.44-6.88v6.88h-2.18V9.54h1.95l4.43,6.86V9.54h2.19v11.2Z"/><path class="cls-1" d="M257.76,19.56a4.18,4.18,0,0,1-3.16,1.27,4.14,4.14,0,0,1-3-1.22,3.27,3.27,0,0,1-.91-1.69,14.82,14.82,0,0,1-.19-2.78,14.94,14.94,0,0,1,.19-2.79,3.21,3.21,0,0,1,.91-1.68,4.11,4.11,0,0,1,3-1.23A4,4,0,0,1,258.82,13h-2.2a1.92,1.92,0,0,0-2-1.64,1.81,1.81,0,0,0-1.4.6c-.41.52-.53.93-.53,3.15s.09,2.64.53,3.16a1.73,1.73,0,0,0,1.4.58,2,2,0,0,0,1.56-.63,2.18,2.18,0,0,0,.5-1.49v-.43H254.6V14.51h4.23v1.64A4.45,4.45,0,0,1,257.76,19.56Z"/><path class="cls-1" d="M260.58,16.48V14.15h2.33v2.33Zm0,4.26V18.41h2.33v2.33Z"/></svg>