<svg id="Layer_1" data-name="Layer 1" xmlns="http://www.w3.org/2000/svg" viewBox="0 0 329.61 30.28"><defs><style>.cls-1{fill:#010101;}</style></defs><title>github</title><path class="cls-1" d="M37.65,23.94a8.36,8.36,0,0,1-6.29,2.53,8.18,8.18,0,0,1-6-2.44,6.45,6.45,0,0,1-1.81-3.35,30.36,30.36,0,0,1-.38-5.54,30.36,30.36,0,0,1,.38-5.54,6.3,6.3,0,0,1,1.81-3.35,8.19,8.19,0,0,1,6-2.45,8,8,0,0,1,8.39,7.14H35.36a3.78,3.78,0,0,0-4-3.25,3.53,3.53,0,0,0-2.79,1.19c-.81,1-1.07,1.84-1.07,6.26s.19,5.26,1.07,6.29a3.46,3.46,0,0,0,2.79,1.16,4,4,0,0,0,3.1-1.25,4.43,4.43,0,0,0,1-3v-.84h-4.1V13.89h8.42v3.25C39.78,20.4,39.18,22.31,37.65,23.94Z"/><path class="cls-1" d="M43,26.28V4h4.36V26.28Z"/><path class="cls-1" d="M60,7.87V26.28H55.65V7.87H49.82V4h16V7.87Z"/><path class="cls-1" d="M80.27,26.28V17H72.72v9.33H68.37V4h4.35V13.1h7.55V4h4.35V26.28Z"/><path class="cls-1" d="M96.61,26.47c-4.57,0-8.2-3.1-8.2-7.82V4h4.35v14.5c0,2.57,1.51,4.1,3.85,4.1s3.89-1.53,3.89-4.1V4h4.32V18.65C104.82,23.37,101.19,26.47,96.61,26.47Z"/><path class="cls-1" d="M117.94,26.28h-9.33V4h9c4.36,0,6.89,2.44,6.89,6.26a5.18,5.18,0,0,1-2.75,4.61,5.17,5.17,0,0,1,3.06,5C124.76,24,121.92,26.28,117.94,26.28Zm-.72-18.41H113V13h4.26c1.85,0,2.88-1,2.88-2.57S119.07,7.87,117.22,7.87Zm.28,9.05H113V22.4h4.54a2.64,2.64,0,0,0,2.91-2.75A2.62,2.62,0,0,0,117.5,16.92Z"/><path class="cls-1" d="M148.84,24.16A8.11,8.11,0,0,1,143,26.28h-8.05V4H143a8.12,8.12,0,0,1,5.88,2.13c2.51,2.51,2.26,5.57,2.26,8.92S151.35,21.65,148.84,24.16Zm-3-14.91a3.89,3.89,0,0,0-3.26-1.38h-3.29V22.4h3.29A3.89,3.89,0,0,0,145.81,21c.81-1,.94-2.59.94-6S146.62,10.25,145.81,9.25Z"/><path class="cls-1" d="M154.41,26.28V4H169.1V7.87H158.76V13.1h8.8V17h-8.8V22.4H169.1v3.88Z"/><path class="cls-1" d="M180.86,17.89h-4.29v8.39h-4.35V4h8.64c4.6,0,7.36,3.16,7.36,7S185.46,17.89,180.86,17.89Zm-.22-10h-4.07V14h4.07a3,3,0,0,0,3.23-3A3,3,0,0,0,180.64,7.87Z"/><path class="cls-1" d="M204.69,24a8.66,8.66,0,0,1-12.05,0c-2.26-2.25-2.19-5-2.19-8.89s-.07-6.64,2.19-8.89a8.63,8.63,0,0,1,12.05,0c2.26,2.25,2.23,5,2.23,8.89S207,21.78,204.69,24ZM201.47,8.88a3.63,3.63,0,0,0-2.79-1.19,3.7,3.7,0,0,0-2.82,1.19c-.84.94-1.06,2-1.06,6.26s.22,5.32,1.06,6.26a3.7,3.7,0,0,0,2.82,1.19,3.63,3.63,0,0,0,2.79-1.19c.84-.94,1.09-2,1.09-6.26S202.31,9.82,201.47,8.88Z"/><path class="cls-1" d="M216.59,26.47c-3.38,0-6-.72-8.14-2.94l2.82-2.82a7.28,7.28,0,0,0,5.38,1.88c2.57,0,3.95-1,3.95-2.76a2.45,2.45,0,0,0-.69-1.87,3.33,3.33,0,0,0-2-.79l-2.7-.37A7.55,7.55,0,0,1,210.92,15a5.89,5.89,0,0,1-1.6-4.38c0-4,3-6.77,7.77-6.77a9.54,9.54,0,0,1,7.2,2.6l-2.75,2.73A6.2,6.2,0,0,0,217,7.59c-2.31,0-3.44,1.29-3.44,2.82a2.17,2.17,0,0,0,.66,1.6,3.86,3.86,0,0,0,2.06.87l2.63.38A7.33,7.33,0,0,1,223.13,15a6.25,6.25,0,0,1,1.72,4.73C224.85,24,221.25,26.47,216.59,26.47Z"/><path class="cls-1" d="M227.67,26.28V4H232V26.28Z"/><path class="cls-1" d="M244.72,7.87V26.28h-4.36V7.87h-5.82V4h16V7.87Z"/><path class="cls-1" d="M266.55,24a8.66,8.66,0,0,1-12.05,0c-2.26-2.25-2.19-5-2.19-8.89s-.07-6.64,2.19-8.89a8.63,8.63,0,0,1,12.05,0c2.26,2.25,2.23,5,2.23,8.89S268.81,21.78,266.55,24ZM263.33,8.88a3.63,3.63,0,0,0-2.79-1.19,3.7,3.7,0,0,0-2.82,1.19c-.84.94-1.06,2-1.06,6.26s.22,5.32,1.06,6.26a3.7,3.7,0,0,0,2.82,1.19,3.63,3.63,0,0,0,2.79-1.19c.84-.94,1.09-2,1.09-6.26S264.17,9.82,263.33,8.88Z"/><path class="cls-1" d="M284,26.28l-4.35-8.89h-3.13v8.89h-4.36V4h8.74c4.54,0,7.23,3.1,7.23,6.83A6,6,0,0,1,284,16.67l5,9.61ZM280.58,7.87h-4.1v5.89h4.1a3,3,0,1,0,0-5.89Z"/><path class="cls-1" d="M299.76,17.14v9.14h-4.32V17.14L288.74,4h4.72l4.17,9,4.1-9h4.73Z"/></svg>