<?xml version="1.0" encoding="utf-8"?>
<!-- Generator: Adobe Illustrator 22.0.0, SVG Export Plug-In . SVG Version: 6.00 Build 0)  -->
<svg version="1.1" id="Layer_1" xmlns="http://www.w3.org/2000/svg" xmlns:xlink="http://www.w3.org/1999/xlink" x="0px" y="0px"
	 viewBox="0 0 329.6 30.3" style="enable-background:new 0 0 329.6 30.3;" xml:space="preserve">
<style type="text/css">
	.st0{fill:#010101;}
</style>
<title>github</title>
<path class="st0" d="M37.7,23.9c-1.6,1.7-3.9,2.6-6.3,2.5c-2.3,0-4.4-0.8-6-2.4c-0.9-0.9-1.6-2.1-1.8-3.4c-0.3-1.8-0.4-3.7-0.4-5.5
	c0-1.9,0.1-3.7,0.4-5.5c0.2-1.3,0.9-2.4,1.8-3.3c1.6-1.6,3.7-2.5,6-2.5c4.3-0.2,7.9,2.9,8.4,7.1h-4.4c-0.3-2-2-3.4-4-3.2
	c-1.1,0-2.1,0.4-2.8,1.2c-0.8,1-1.1,1.8-1.1,6.3s0.2,5.3,1.1,6.3c0.7,0.8,1.7,1.2,2.8,1.2c1.2,0.1,2.3-0.4,3.1-1.2
	c0.7-0.8,1-1.9,1-3v-0.8h-4.1v-3.6h8.4v3.2C39.8,20.4,39.2,22.3,37.7,23.9z"/>
<path class="st0" d="M43,26.3V4h4.4v22.3H43z"/>
<path class="st0" d="M60,7.9v18.4h-4.3V7.9h-5.8V4h16v3.9H60z"/>
<path class="st0" d="M80.3,26.3V17h-7.5v9.3h-4.3V4h4.3v9.1h7.6V4h4.3v22.3H80.3z"/>
<path class="st0" d="M96.6,26.5c-4.6,0-8.2-3.1-8.2-7.8V4h4.3v14.5c0,2.6,1.5,4.1,3.8,4.1s3.9-1.5,3.9-4.1V4h4.3v14.6
	C104.8,23.4,101.2,26.5,96.6,26.5z"/>
<path class="st0" d="M117.9,26.3h-9.3V4h9c4.4,0,6.9,2.4,6.9,6.3c0,1.9-1,3.7-2.8,4.6c2,0.9,3.2,2.9,3.1,5
	C124.8,24,121.9,26.3,117.9,26.3z M117.2,7.9H113V13h4.3c1.8,0,2.9-1,2.9-2.6S119.1,7.9,117.2,7.9z M117.5,16.9H113v5.5h4.5
	c1.5,0.2,2.7-0.9,2.9-2.4c0-0.1,0-0.3,0-0.4c0.1-1.4-1-2.7-2.5-2.7C117.8,16.9,117.7,16.9,117.5,16.9z"/>
<path class="st0" d="M154.4,26.3V4h14.7v3.9h-10.3v5.2h8.8V17h-8.8v5.4h10.3v3.9L154.4,26.3z"/>
<path class="st0" d="M180.9,17.9h-4.3v8.4h-4.4V4h8.6c4.6,0,7.4,3.2,7.4,7S185.5,17.9,180.9,17.9z M180.6,7.9h-4.1V14h4.1
	c1.7,0.1,3.1-1.1,3.2-2.8c0-0.1,0-0.2,0-0.2c0.1-1.7-1.2-3.1-2.9-3.1C180.9,7.9,180.8,7.9,180.6,7.9L180.6,7.9z"/>
<path class="st0" d="M204.7,24c-3.4,3.3-8.7,3.3-12.1,0c-2.3-2.2-2.2-5-2.2-8.9s-0.1-6.6,2.2-8.9c3.4-3.3,8.7-3.3,12.1,0
	c2.3,2.2,2.2,5,2.2,8.9S207,21.8,204.7,24z M201.5,8.9c-0.7-0.8-1.7-1.2-2.8-1.2c-1.1,0-2.1,0.4-2.8,1.2c-0.8,0.9-1.1,2-1.1,6.3
	s0.2,5.3,1.1,6.3c0.7,0.8,1.8,1.2,2.8,1.2c1.1,0,2.1-0.4,2.8-1.2c0.8-0.9,1.1-2,1.1-6.3S202.3,9.8,201.5,8.9z"/>
<path class="st0" d="M216.6,26.5c-3.4,0-6-0.7-8.1-2.9l2.8-2.8c1.5,1.3,3.4,2,5.4,1.9c2.6,0,3.9-1,3.9-2.8c0-0.7-0.2-1.4-0.7-1.9
	c-0.6-0.5-1.3-0.8-2-0.8l-2.7-0.4c-1.6-0.1-3.1-0.8-4.3-1.8c-1.1-1.2-1.7-2.8-1.6-4.4c0-4,3-6.8,7.8-6.8c2.7-0.2,5.3,0.8,7.2,2.6
	l-2.8,2.7c-1.2-1.1-2.9-1.7-4.5-1.6c-2.3,0-3.4,1.3-3.4,2.8c0,0.6,0.2,1.2,0.7,1.6c0.6,0.5,1.3,0.8,2.1,0.9l2.6,0.4
	c1.6,0.1,3,0.7,4.2,1.7c1.2,1.3,1.8,3,1.7,4.7C224.9,24,221.2,26.5,216.6,26.5z"/>
<path class="st0" d="M227.7,26.3V4h4.3v22.3H227.7z"/>
<path class="st0" d="M244.7,7.9v18.4h-4.4V7.9h-5.8V4h16v3.9H244.7z"/>
<path class="st0" d="M266.5,24c-3.4,3.3-8.7,3.3-12.1,0c-2.3-2.2-2.2-5-2.2-8.9s-0.1-6.6,2.2-8.9c3.4-3.3,8.7-3.3,12.1,0
	c2.3,2.2,2.2,5,2.2,8.9S268.8,21.8,266.5,24z M263.3,8.9c-0.7-0.8-1.7-1.2-2.8-1.2c-1.1,0-2.1,0.4-2.8,1.2c-0.8,0.9-1.1,2-1.1,6.3
	s0.2,5.3,1.1,6.3c0.7,0.8,1.8,1.2,2.8,1.2c1.1,0,2.1-0.4,2.8-1.2c0.8-0.9,1.1-2,1.1-6.3S264.2,9.8,263.3,8.9z"/>
<path class="st0" d="M284,26.3l-4.4-8.9h-3.1v8.9h-4.4V4h8.7c4.5,0,7.2,3.1,7.2,6.8c0.1,2.6-1.6,5-4.1,5.8l5,9.6L284,26.3z
	 M280.6,7.9h-4.1v5.9h4.1c1.6,0.3,3.2-0.7,3.5-2.4s-0.7-3.2-2.4-3.5C281.3,7.8,281,7.8,280.6,7.9z"/>
<path class="st0" d="M299.8,17.1v9.1h-4.3v-9.1L288.7,4h4.7l4.2,9l4.1-9h4.7L299.8,17.1z"/>
<path class="st0" d="M147.1,26.2l-4.4-8.9h-3.1v8.9h-4.4V4h8.7c4.5,0,7.2,3.1,7.2,6.8c0.1,2.6-1.6,5-4.1,5.8l5,9.6L147.1,26.2z
	 M143.7,7.8h-4.1v5.9h4.1c1.6,0.3,3.2-0.7,3.5-2.4s-0.7-3.2-2.4-3.5C144.5,7.8,144.1,7.8,143.7,7.8z"/>
</svg>
