<?xml version="1.0" encoding="utf-8"?>
<!-- Generator: Adobe Illustrator 22.0.0, SVG Export Plug-In . SVG Version: 6.00 Build 0)  -->
<svg version="1.1" id="Layer_1" xmlns="http://www.w3.org/2000/svg" xmlns:xlink="http://www.w3.org/1999/xlink" x="0px" y="0px"
	 viewBox="0 0 560.6 116.3" style="enable-background:new 0 0 560.6 116.3;" xml:space="preserve">
<style type="text/css">
	.st0{fill:#1B181C;}
	.st1{fill:#010101;}
</style>
<title>logo</title>
<path class="st0" d="M315.1,33.5L315.1,33.5L294,12.4l-3.2,3.2l18.8,18.8h-90.5V39h90.5l-18.8,18.8L294,61l24.3-24.3L315.1,33.5z"/>
<path class="st1" d="M35.6,55c-3,3-7.2,4.3-11.9,4.3H7.3V14.1h16.3c4.7,0,9,1.3,11.9,4.3c5.1,5.1,4.6,11.3,4.6,18.1
	S40.7,49.9,35.6,55z M29.4,24.8c-1.5-1.9-3.5-2.8-6.6-2.8h-6.7v29.5h6.7c2.5,0.2,5-0.9,6.6-2.8c1.6-2,1.9-5.3,1.9-12.1
	S31.1,26.8,29.4,24.8z"/>
<path class="st1" d="M71.7,59.3l-2.7-8H53l-2.7,8H41l16.4-45.2h6.9l16.5,45.2H71.7z M61.1,27.4l-5.7,16.4h11.2L61.1,27.4z"/>
<path class="st1" d="M111.2,54.5c-3.3,3.4-8,5.3-12.8,5.1c-4.6,0.1-9-1.7-12.2-5c-1.9-1.8-3.2-4.2-3.7-6.8
	c-0.6-3.7-0.9-7.5-0.8-11.2c-0.1-3.8,0.2-7.5,0.8-11.2c0.5-2.6,1.8-5,3.7-6.8c3.2-3.3,7.6-5.1,12.2-4.9c10.3,0,15.8,6.6,17,14.5
	h-8.9c-1.1-4.4-3.7-6.6-8.1-6.6c-2.2-0.1-4.2,0.8-5.6,2.5c-1.7,2.1-2.2,3.8-2.2,12.7s0.4,10.6,2.2,12.8c1.4,1.6,3.5,2.5,5.7,2.3
	c2.4,0.1,4.7-0.8,6.3-2.5c1.4-1.7,2.1-3.8,2-6v-1.8h-8.3v-7.4h17.1v6.6C115.5,47.3,114.3,51.2,111.2,54.5z"/>
<path class="st1" d="M148,59.3l-17.9-27.7v27.7h-8.8V14.1h7.9L147,41.8V14.1h8.8v45.2H148z"/>
<path class="st1" d="M163.3,59.3V14.1h8.8v45.2H163.3z"/>
<path class="st1" d="M192.8,59.7c-6.9,0-12.1-1.5-16.5-6l5.7-5.7c2.9,2.9,6.7,3.8,10.9,3.8c5.2,0,8-2,8-5.6c0.1-1.4-0.4-2.8-1.4-3.8
	c-1.1-1-2.5-1.5-4-1.6l-5.5-0.8c-3.9-0.6-6.7-1.8-8.8-3.7c-2.1-2.2-3.2-5.1-3.2-8.9c0-8.1,6-13.7,15.7-13.7c6.2,0,10.7,1.5,14.6,5.3
	l-5.6,5.5c-2.9-2.7-6.3-3.1-9.3-3.1c-4.7,0-7,2.6-7,5.7c0,1.2,0.5,2.4,1.4,3.2c1.2,1,2.6,1.6,4.2,1.8l5.3,0.8
	c4.1,0.6,6.7,1.7,8.6,3.5c2.4,2.3,3.5,5.6,3.5,9.6C209.6,54.7,202.3,59.7,192.8,59.7z"/>
<path class="st1" d="M343.6,59.7c-6.9,0-12.1-1.5-16.5-6l5.7-5.7c2.9,2.9,6.7,3.8,10.9,3.8c5.2,0,8-2,8-5.6c0.1-1.4-0.4-2.8-1.4-3.8
	c-1.1-0.9-2.5-1.5-4-1.6l-5.5-0.8c-3.9-0.6-6.7-1.8-8.8-3.7c-2.2-2.2-3.2-5.1-3.2-8.9c0-8.1,6-13.7,15.7-13.7
	c6.2,0,10.7,1.5,14.6,5.3l-5.6,5.5c-2.9-2.7-6.3-3.1-9.3-3.1c-4.7,0-7,2.6-7,5.7c0,1.2,0.5,2.4,1.3,3.2c1.2,1,2.7,1.6,4.3,1.8
	l5.3,0.8c4.1,0.6,6.7,1.7,8.6,3.5c2.4,2.3,3.5,5.6,3.5,9.6C360.4,54.7,353.1,59.7,343.6,59.7z"/>
<path class="st1" d="M391.8,59.3l-11.6-20.6l-5.8,7v13.6h-8.8V14.1h8.8v19.7l15.9-19.7H401l-15,18l16.1,27.2L391.8,59.3z"/>
<path class="st1" d="M421.7,59.7c-9.3,0-16.7-6.3-16.7-15.9V14.1h8.8v29.4c0,5.2,3,8.3,7.8,8.3s7.9-3.1,7.9-8.3V14.1h8.8v29.7
	C438.3,53.4,430.9,59.7,421.7,59.7z"/>
<path class="st1" d="M469.4,59.3l-8.8-18h-6.4v18h-8.8V14.1h17.7c9.2,0,14.7,6.3,14.7,13.8c0.2,5.3-3.2,10.2-8.2,11.9l10.1,19.5
	H469.4z M462.5,22h-8.3v11.9h8.3c3.9,0,6.4-2.5,6.4-6S466.4,22,462.5,22z"/>
<path class="st1" d="M503.1,59.3h-18.9V14.1h18.1c8.8,0,14,4.9,14,12.7c0,3.9-2.1,7.5-5.6,9.3c2.7,1.3,6.2,4.1,6.2,10.2
	C517,54.7,511.2,59.3,503.1,59.3z M501.7,22h-8.6v10.4h8.6c3.8,0,5.8-2.1,5.8-5.2S505.4,22,501.7,22z M502.3,40.3h-9.2v11.1h9.2
	c4,0,5.9-2.5,5.9-5.6S506.3,40.3,502.3,40.3L502.3,40.3z"/>
<path class="st1" d="M522.9,59.3V14.1h29.8V22h-21v10.6h17.8v7.9h-17.8v11h21v7.9L522.9,59.3z"/>
<path class="st1" d="M14.1,96.2v7.5h-3.6v-7.5L5,85.4h3.9l3.4,7.4l3.4-7.4h3.9L14.1,96.2z"/>
<path class="st1" d="M21.4,103.8V85.4h12.1v3.2H25v4.3h7.2v3.2H25v4.5h8.5v3.2L21.4,103.8z"/>
<path class="st1" d="M47.3,103.8l-1.1-3.2h-6.5l-1.1,3.2h-3.7l6.7-18.3h2.8l6.7,18.3H47.3z M43.1,90.8l-2.3,6.7h4.6L43.1,90.8z"/>
<path class="st1" d="M62.7,103.8l-3.6-7.3h-2.6v7.3h-3.6V85.4h7.2c3.7,0,5.9,2.6,5.9,5.6c0.1,2.2-1.3,4.1-3.3,4.8l4.1,7.9H62.7z
	 M59.9,88.6h-3.4v4.8h3.4c1.3,0.1,2.5-0.9,2.6-2.2c0.1-1.3-0.9-2.5-2.2-2.6C60.2,88.6,60,88.6,59.9,88.6z"/>
<path class="st1" d="M73.8,103.8v-3l6.8-8c0.6-0.6,1-1.4,1-2.2c0-1.2-1-2.2-2.2-2.2c-1.2,0-2.2,1-2.2,2.2c0,0,0,0,0,0h-3.4
	c0-3.3,2.4-5.3,5.6-5.3s5.6,2,5.6,5.3c0,1.8-0.7,2.7-1.9,4.2l-5.1,6H85v3L73.8,103.8z"/>
<path class="st1" d="M92.6,103.9c-2.9,0.2-5.4-2-5.6-4.9c0-0.2,0-0.3,0-0.5v-7.7c0-3.1,2.5-5.6,5.6-5.6c3.1,0,5.6,2.5,5.6,5.6v7.7
	c0.1,2.9-2.2,5.3-5.1,5.5C92.9,103.9,92.8,103.9,92.6,103.9z M94.8,90.8c0.2-1.2-0.7-2.3-1.9-2.5c-0.1,0-0.2,0-0.3,0
	c-1.2,0-2.3,1-2.3,2.2c0,0.1,0,0.2,0,0.3v7.6c-0.1,1.2,0.7,2.3,2,2.5c0.1,0,0.2,0,0.3,0c1.2,0,2.2-0.9,2.2-2.2c0-0.1,0-0.2,0-0.3
	V90.8z"/>
<path class="st1" d="M100.3,103.8v-3l6.8-8c0.6-0.6,1-1.4,1-2.2c0.1-1.2-0.8-2.3-2.1-2.4c-1.2-0.1-2.3,0.8-2.4,2.1
	c0,0.1,0,0.2,0,0.3h-3.3c0-3.3,2.4-5.3,5.6-5.3s5.6,2,5.6,5.3c0,1.8-0.7,2.7-2,4.2l-5.1,6h7.1v3L100.3,103.8z"/>
<path class="st1" d="M119.1,103.9c-2.9,0.2-5.4-2-5.6-4.9c0-0.2,0-0.3,0-0.5v-7.7c0-3.1,2.5-5.6,5.6-5.6c3.1,0,5.6,2.5,5.6,5.6v7.7
	c0.1,2.9-2.2,5.3-5.1,5.5C119.4,103.9,119.3,103.9,119.1,103.9z M121.3,90.8c0.1-1.2-0.7-2.3-2-2.5c-1.2-0.1-2.3,0.7-2.5,2
	c0,0.2,0,0.3,0,0.5v7.6c-0.1,1.2,0.7,2.3,2,2.5c1.2,0.1,2.3-0.7,2.5-2c0-0.2,0-0.3,0-0.5V90.8z"/>
<path class="st1" d="M140,96.9h-3.5v6.9h-3.6V85.4h7.1c3.8,0,6.1,2.6,6.1,5.7S143.8,96.9,140,96.9z M139.8,88.6h-3.4v5h3.4
	c1.3,0.1,2.5-0.8,2.6-2.2c0-0.1,0-0.2,0-0.3c0-1.3-1-2.5-2.4-2.5C140,88.6,139.9,88.6,139.8,88.6L139.8,88.6z"/>
<path class="st1" d="M159.6,101.9c-2.8,2.7-7.1,2.7-9.9,0c-1.9-1.9-1.8-4.2-1.8-7.3s-0.1-5.5,1.8-7.3c2.8-2.7,7.1-2.7,9.9,0
	c1.9,1.9,1.8,4.2,1.8,7.3S161.5,100,159.6,101.9z M157,89.4c-0.6-0.7-1.4-1-2.3-1c-0.9,0-1.7,0.3-2.3,1c-0.7,0.8-0.9,1.6-0.9,5.2
	s0.2,4.4,0.9,5.1c0.6,0.7,1.4,1,2.3,1c0.9,0,1.7-0.3,2.3-1c0.7-0.8,0.9-1.6,0.9-5.1S157.7,90.2,157,89.4z"/>
<path class="st1" d="M174,103.8l-3.6-7.3h-2.6v7.3h-3.6V85.4h7.2c3.7,0,5.9,2.6,5.9,5.6c0.1,2.2-1.3,4.1-3.4,4.8l4.1,7.9H174z
	 M171.2,88.6h-3.4v4.8h3.4c1.3,0.1,2.5-0.9,2.6-2.2c0.1-1.3-0.9-2.5-2.2-2.6C171.5,88.6,171.4,88.6,171.2,88.6z"/>
<path class="st1" d="M187.5,88.6v15.1h-3.6V88.6h-4.8v-3.2h13.1v3.2H187.5z"/>
<path class="st1" d="M198,88.6v4.5h7.2v3.2H198v7.4h-3.6V85.4h12.1v3.2H198z"/>
<path class="st1" d="M219.8,101.9c-2.8,2.7-7.2,2.7-9.9,0c-1.9-1.9-1.8-4.2-1.8-7.3s-0.1-5.5,1.8-7.3c2.8-2.7,7.2-2.7,9.9,0
	c1.9,1.9,1.8,4.2,1.8,7.3S221.6,100,219.8,101.9z M217.1,89.4c-0.6-0.7-1.4-1-2.3-1c-0.9,0-1.7,0.3-2.3,1c-0.7,0.8-0.9,1.6-0.9,5.2
	s0.2,4.4,0.9,5.1c0.6,0.7,1.4,1,2.3,1c0.9,0,1.7-0.3,2.3-1c0.7-0.8,0.9-1.6,0.9-5.1S217.8,90.2,217.1,89.4z"/>
<path class="st1" d="M224.4,103.8V85.4h3.6v15.1h8.3v3.2H224.4z"/>
<path class="st1" d="M238.4,103.8V85.4h3.6v18.3H238.4z"/>
<path class="st1" d="M256.5,101.9c-2.8,2.7-7.1,2.7-9.9,0c-1.9-1.9-1.8-4.2-1.8-7.3s-0.1-5.5,1.8-7.3c2.8-2.7,7.1-2.7,9.9,0
	c1.9,1.9,1.8,4.2,1.8,7.3S258.4,100,256.5,101.9z M253.9,89.4c-0.6-0.7-1.4-1-2.3-1c-0.9,0-1.7,0.3-2.3,1c-0.7,0.8-0.9,1.6-0.9,5.2
	s0.2,4.4,0.9,5.1c0.6,0.7,1.4,1,2.3,1c0.9,0,1.7-0.3,2.3-1c0.7-0.8,0.9-1.6,0.9-5.1S254.5,90.2,253.9,89.4z"/>
<path class="st1" d="M266.7,103.8V85.4h3.6v18.3H266.7z"/>
<path class="st1" d="M278.9,103.9c-2.8,0-4.9-0.6-6.7-2.4l2.3-2.3c1.2,1.1,2.8,1.6,4.4,1.5c2.1,0,3.2-0.8,3.2-2.3
	c0-0.6-0.2-1.1-0.6-1.6c-0.5-0.4-1-0.6-1.6-0.6l-2.2-0.3c-1.3-0.1-2.6-0.6-3.6-1.5c-0.9-1-1.4-2.3-1.3-3.6c0-3.3,2.4-5.6,6.4-5.6
	c2.2-0.1,4.3,0.6,5.9,2.1l-2.2,2.2c-1-0.9-2.4-1.4-3.8-1.3c-1.9,0-2.8,1.1-2.8,2.3c0,0.5,0.2,1,0.5,1.3c0.5,0.4,1.1,0.7,1.7,0.7
	l2.2,0.3c1.3,0.1,2.5,0.6,3.5,1.4c1,1,1.5,2.4,1.4,3.9C285.7,101.9,282.8,103.9,278.9,103.9z"/>
<path class="st1" d="M300.2,103.9c-3.8,0-6.7-2.5-6.7-6.4v-12h3.6v11.9c-0.1,1.8,1.2,3.3,3,3.4s3.3-1.2,3.4-3c0-0.1,0-0.2,0-0.4
	V85.4h3.6v12C307,101.4,304,103.9,300.2,103.9z"/>
<path class="st1" d="M321,103.8l-7.3-11.2v11.2h-3.6V85.4h3.2l7.3,11.2V85.4h3.6v18.3H321z"/>
<path class="st1" d="M339,102c-1.3,1.2-3.1,1.8-4.8,1.8h-6.6V85.4h6.6c1.8-0.1,3.5,0.5,4.8,1.8c2.1,2.1,1.9,4.6,1.9,7.3
	S341,100,339,102z M336.5,89.7c-0.7-0.8-1.7-1.2-2.7-1.1h-2.7v11.9h2.7c1,0.1,2-0.4,2.7-1.1c0.7-0.8,0.8-2.1,0.8-4.9
	S337.1,90.6,336.5,89.7L336.5,89.7z"/>
<path class="st1" d="M343.6,103.8V85.4h12.1v3.2h-8.5v4.3h7.2v3.2h-7.2v4.5h8.5v3.2L343.6,103.8z"/>
<path class="st1" d="M368,103.8l-3.6-7.3h-2.6v7.3h-3.6V85.4h7.2c3.7,0,6,2.6,6,5.6c0.1,2.2-1.3,4.1-3.4,4.8l4.1,7.9H368z
	 M365.2,88.6h-3.4v4.8h3.4c1.3,0.1,2.5-0.9,2.6-2.2c0.1-1.3-0.9-2.5-2.2-2.6C365.5,88.6,365.4,88.6,365.2,88.6z"/>
<path class="st1" d="M385.9,103.9c-1.9,0-3.6-0.7-4.9-2c-0.8-0.7-1.3-1.7-1.5-2.8c-0.2-1.5-0.3-3-0.3-4.6c0-1.5,0.1-3.1,0.3-4.6
	c0.2-1.1,0.7-2,1.5-2.8c1.3-1.3,3.1-2,4.9-2c3.4-0.2,6.4,2.4,6.7,5.8H389c-0.2-1.5-1.5-2.7-3.1-2.6c-0.9,0-1.7,0.3-2.3,1
	c-0.7,0.8-0.9,1.6-0.9,5.2s0.2,4.4,0.9,5.2c0.6,0.7,1.4,1,2.3,1c1.5,0.1,2.9-1.1,3.1-2.6h3.6C392.2,101.6,389.3,104.1,385.9,103.9z"
	/>
<path class="st1" d="M406.3,101.9c-1.3,1.3-3.1,2.1-4.9,2c-1.9,0.1-3.7-0.7-5-2c-1.9-1.9-1.8-4.2-1.8-7.3s0-5.5,1.8-7.3
	c1.3-1.3,3.1-2.1,5-2c1.9-0.1,3.6,0.7,4.9,2c1.9,1.9,1.8,4.2,1.8,7.3S408.2,100,406.3,101.9z M403.6,89.4c-0.6-0.7-1.4-1-2.3-1
	c-0.9,0-1.7,0.3-2.3,1c-0.7,0.8-0.9,1.6-0.9,5.2s0.2,4.4,0.9,5.1c0.6,0.7,1.4,1,2.3,1c0.9,0,1.7-0.3,2.3-1c0.7-0.8,0.9-1.6,0.9-5.1
	S404.4,90.2,403.6,89.4z"/>
<path class="st1" d="M421.8,103.8l-7.3-11.2v11.2h-3.6V85.4h3.2l7.3,11.2V85.4h3.6v18.3H421.8z"/>
<path class="st1" d="M433.7,103.9c-2.8,0-4.9-0.6-6.7-2.4l2.3-2.3c1.2,1.1,2.8,1.6,4.4,1.5c2.1,0,3.2-0.8,3.2-2.3
	c0-0.6-0.2-1.1-0.6-1.6c-0.5-0.4-1-0.6-1.6-0.6l-2.2-0.3c-1.3-0.1-2.6-0.7-3.6-1.6c-0.9-1-1.4-2.3-1.3-3.6c0-3.3,2.4-5.6,6.4-5.6
	c2.2-0.1,4.3,0.6,5.9,2.1l-2.3,2.2c-1-0.9-2.4-1.4-3.7-1.3c-1.9,0-2.8,1.1-2.8,2.3c0,0.5,0.2,1,0.5,1.3c0.5,0.4,1.1,0.7,1.7,0.7
	l2.2,0.3c1.3,0.1,2.5,0.6,3.5,1.4c1,1,1.5,2.4,1.4,3.9C440.5,101.9,437.5,103.9,433.7,103.9z"/>
<path class="st1" d="M450.3,88.6v15.1h-3.6V88.6h-4.8v-3.2h13.1v3.2H450.3z"/>
<path class="st1" d="M467,103.8l-3.6-7.3h-2.6v7.3h-3.6V85.4h7.2c3.7,0,5.9,2.6,5.9,5.6c0,2.2-1.3,4.1-3.4,4.8l4.1,7.9H467z
	 M464.2,88.6h-3.4v4.8h3.4c1.3,0.1,2.5-0.9,2.6-2.2c0.1-1.3-0.9-2.5-2.2-2.6C464.5,88.6,464.4,88.6,464.2,88.6z"/>
<path class="st1" d="M479.5,103.9c-3.8,0-6.8-2.5-6.8-6.4v-12h3.6v11.9c-0.1,1.8,1.2,3.3,2.9,3.4c1.8,0.1,3.3-1.2,3.4-2.9
	c0-0.2,0-0.3,0-0.5V85.4h3.5v12C486.3,101.4,483.3,103.9,479.5,103.9z"/>
<path class="st1" d="M495.6,103.9c-1.9,0-3.6-0.7-5-2c-0.8-0.8-1.3-1.7-1.5-2.8c-0.2-1.5-0.3-3-0.3-4.6c0-1.5,0.1-3.1,0.3-4.6
	c0.2-1,0.7-2,1.5-2.8c1.3-1.3,3.1-2,5-2c3.4-0.2,6.4,2.4,6.7,5.8h-3.6c-0.2-1.5-1.5-2.7-3.1-2.6c-0.9,0-1.7,0.3-2.3,1
	c-0.7,0.8-0.9,1.6-0.9,5.2s0.2,4.4,0.9,5.2c0.6,0.7,1.4,1,2.3,1c1.5,0.1,2.9-1.1,3.1-2.6h3.6C501.9,101.6,499,104.1,495.6,103.9z"/>
<path class="st1" d="M511.9,88.6v15.1h-3.6V88.6h-4.8v-3.2h13.2v3.2H511.9z"/>
<path class="st1" d="M518.9,103.8V85.4h3.6v18.3H518.9z"/>
<path class="st1" d="M536.9,101.9c-1.3,1.3-3.1,2.1-4.9,2c-1.9,0.1-3.7-0.7-5-2c-1.8-1.9-1.8-4.2-1.8-7.3s0-5.5,1.8-7.3
	c1.3-1.3,3.1-2.1,5-2c1.9-0.1,3.6,0.7,4.9,2c1.9,1.9,1.8,4.2,1.8,7.3S538.8,100,536.9,101.9z M534.3,89.4c-0.6-0.7-1.4-1-2.3-1
	c-0.9,0-1.7,0.3-2.3,1c-0.7,0.8-0.9,1.6-0.9,5.2s0.2,4.4,0.9,5.1c0.6,0.7,1.4,1,2.3,1c0.9,0,1.7-0.3,2.3-1c0.7-0.8,0.9-1.6,0.9-5.1
	S535,90.2,534.3,89.4L534.3,89.4z"/>
<path class="st1" d="M552.4,103.8l-7.3-11.2v11.2h-3.6V85.4h3.2l7.3,11.2V85.4h3.6v18.3H552.4z"/>
</svg>
