<svg id="Layer_1" data-name="Layer 1" xmlns="http://www.w3.org/2000/svg" viewBox="0 0 329.61 30.28"><defs><style>.cls-1{fill:#010101;}</style></defs><title>year2012</title><path class="cls-1" d="M23.45,17.14v9.15H19.13V17.14L12.43,4h4.73l4.17,9,4.1-9h4.73Z"/><path class="cls-1" d="M32.31,26.29V4H47V7.87H36.66V13.1h8.8V17h-8.8V22.4H47v3.89Z"/><path class="cls-1" d="M63.83,26.29l-1.31-3.95H54.6l-1.35,3.95H48.71L56.82,4h3.41l8.14,22.3Zm-5.2-15.72-2.81,8.11h5.54Z"/><path class="cls-1" d="M82.39,26.29,78,17.39H74.91v8.9H70.56V4h8.73c4.54,0,7.24,3.1,7.24,6.83a6,6,0,0,1-4.07,5.85l5,9.62ZM79,7.87h-4.1v5.89H79a3,3,0,1,0,0-5.89Z"/><path class="cls-1" d="M96,26.29V22.62L104.31,13a3.82,3.82,0,0,0,1.16-2.7,2.71,2.71,0,1,0-5.42.07H96c0-4.07,3-6.52,6.8-6.52s6.76,2.48,6.76,6.49c0,2.16-.84,3.31-2.38,5.1l-6.23,7.23h8.61v3.67Z"/><path class="cls-1" d="M118.78,26.47c-3.64,0-6.8-2.38-6.8-6.63v-9.4c0-4.26,3.16-6.64,6.8-6.64a6.4,6.4,0,0,1,6.76,6.64v9.4C125.54,24.09,122.41,26.47,118.78,26.47Zm2.69-16c0-1.87-1.1-3-2.69-3a2.72,2.72,0,0,0-2.73,3v9.3a2.7,2.7,0,0,0,2.73,3c1.59,0,2.69-1.13,2.69-3Z"/><path class="cls-1" d="M133.31,26.29V8.38l-4.54,3.94V7.94L133.31,4h4.07v22.3Z"/><path class="cls-1" d="M141.65,26.29V22.62L150,13a3.82,3.82,0,0,0,1.16-2.7,2.71,2.71,0,1,0-5.42.07h-4.07c0-4.07,3-6.52,6.8-6.52s6.76,2.48,6.76,6.49c0,2.16-.84,3.31-2.38,5.1l-6.23,7.23h8.61v3.67Z"/><path class="cls-1" d="M173.75,17.89h-4.29v8.4h-4.35V4h8.64c4.6,0,7.36,3.16,7.36,7S178.35,17.89,173.75,17.89Zm-.22-10h-4.07V14h4.07a3,3,0,0,0,3.23-3A3,3,0,0,0,173.53,7.87Z"/><path class="cls-1" d="M197.58,24a8.66,8.66,0,0,1-12.05,0c-2.26-2.25-2.19-5-2.19-8.89s-.07-6.64,2.19-8.89a8.63,8.63,0,0,1,12.05,0c2.26,2.25,2.23,5,2.23,8.89S199.84,21.78,197.58,24ZM194.36,8.88a3.63,3.63,0,0,0-2.79-1.19,3.7,3.7,0,0,0-2.82,1.19c-.84.94-1.06,2-1.06,6.26s.22,5.32,1.06,6.26a3.7,3.7,0,0,0,2.82,1.19,3.63,3.63,0,0,0,2.79-1.19c.84-.94,1.09-2,1.09-6.26S195.2,9.82,194.36,8.88Z"/><path class="cls-1" d="M215,26.29l-4.35-8.9h-3.13v8.9h-4.36V4h8.74c4.54,0,7.23,3.1,7.23,6.83a6,6,0,0,1-4.07,5.85l5,9.62ZM211.61,7.87h-4.1v5.89h4.1a3,3,0,1,0,0-5.89Z"/><path class="cls-1" d="M231.29,7.87V26.29h-4.35V7.87h-5.83V4h16V7.87Z"/><path class="cls-1" d="M244,7.87v5.48h8.8v3.89H244v9.05h-4.35V4h14.69V7.87Z"/><path class="cls-1" d="M270.47,24a8,8,0,0,1-6,2.44,8.12,8.12,0,0,1-6-2.44c-2.25-2.25-2.19-5-2.19-8.89s-.06-6.64,2.19-8.89a8.13,8.13,0,0,1,6-2.45,8,8,0,0,1,6,2.45c2.26,2.25,2.23,5,2.23,8.89S272.73,21.78,270.47,24ZM267.25,8.88a3.63,3.63,0,0,0-2.79-1.19,3.7,3.7,0,0,0-2.82,1.19c-.84.94-1.06,2-1.06,6.26s.22,5.32,1.06,6.26a3.7,3.7,0,0,0,2.82,1.19,3.63,3.63,0,0,0,2.79-1.19c.84-.94,1.1-2,1.1-6.26S268.09,9.82,267.25,8.88Z"/><path class="cls-1" d="M276.05,26.29V4h4.35V22.4h10.11v3.89Z"/><path class="cls-1" d="M293.06,26.29V4h4.35v22.3Z"/><path class="cls-1" d="M315,24a8.67,8.67,0,0,1-12.06,0c-2.25-2.25-2.19-5-2.19-8.89s-.06-6.64,2.19-8.89a8.65,8.65,0,0,1,12.06,0c2.25,2.25,2.22,5,2.22,8.89S317.21,21.78,315,24ZM311.73,8.88a3.63,3.63,0,0,0-2.79-1.19,3.7,3.7,0,0,0-2.82,1.19c-.84.94-1.06,2-1.06,6.26s.22,5.32,1.06,6.26a3.7,3.7,0,0,0,2.82,1.19,3.63,3.63,0,0,0,2.79-1.19c.85-.94,1.1-2,1.1-6.26S312.58,9.82,311.73,8.88Z"/></svg>